<svg width="1000" height="887" viewBox="0 0 1000 887" fill="none" xmlns="http://www.w3.org/2000/svg">
<mask id="mask0_12_668" style="mask-type:alpha" maskUnits="userSpaceOnUse" x="0" y="18" width="300" height="261">
<path d="M0 18.8682H299.698V278.302H0V18.8682Z" fill="white"/>
</mask>
<g mask="url(#mask0_12_668)">
<path fill-rule="evenodd" clip-rule="evenodd" d="M214 221.51H92.1698V186.415C160.359 138.34 166.83 132.755 166.83 121.566C166.83 114.415 159.245 109.963 149.623 109.963C133.755 109.963 121.679 115.755 110.283 125.378L85.6981 95.4153C102.906 77.1134 127.943 70.1512 148.717 70.1512C187.396 70.1512 212.66 91.6229 212.66 121.566C212.66 141.906 201.038 158.679 165.491 182.151H213.981V221.491L214 221.51ZM224.226 18.8682H0V202.83C0 222.847 7.95146 242.043 22.1052 256.197C36.2588 270.351 55.4554 278.302 75.4717 278.302H299.698V94.3399C299.698 74.3235 291.747 55.127 277.593 40.9733C263.439 26.8196 244.243 18.8682 224.226 18.8682Z" fill="black"/>
</g>
<path fill-rule="evenodd" clip-rule="evenodd" d="M759.849 481.736H687.057V556.642H759.849C783.925 556.642 801.736 543.001 801.736 519.434C801.736 495.359 783.925 481.736 759.849 481.736Z" fill="black"/>
<mask id="mask1_12_668" style="mask-type:alpha" maskUnits="userSpaceOnUse" x="299" y="278" width="693" height="600">
<path d="M299.698 278.302H991.698V877.358H299.698V278.302Z" fill="white"/>
</mask>
<g mask="url(#mask1_12_668)">
<path fill-rule="evenodd" clip-rule="evenodd" d="M771.887 635.17H687.076V752.472H596.981V403.207H771.887C850.434 403.207 893.378 456.094 893.378 519.453C893.378 582.302 850.434 635.189 771.868 635.189L771.887 635.17ZM435.774 752.472H525.849V403.207H435.755V752.49L435.774 752.472ZM897.359 278.321H299.698V783.019C299.698 808.039 309.638 832.035 327.33 849.727C345.022 867.419 369.017 877.358 394.038 877.358H991.698V372.641C991.698 347.621 981.759 323.625 964.067 305.933C946.375 288.241 922.379 278.302 897.359 278.302V278.321Z" fill="black"/>
</g>
</svg>
