<svg width="1000" height="500" viewBox="0 0 1000 500" fill="none" xmlns="http://www.w3.org/2000/svg">
<path d="M925 158C922 154 919 151 904 150C900 150 888 149 867 149C812 149 774 166 755 199C760 166 728 149 658 149C576 149 524 182 503 249C495 274 495 294 501 310H481C466 311 446 312 433 312C403 312 384 307 377 297C371 288 371 271 379 246C392 205 423 187 473 187C499 187 524 190 524 190C527 190 529 186 529 183L528 180L526 166C525 157 518 152 506 150C495 149 486 149 474 149C474 149 474 149 473 149C408 149 362 171 337 213C346 170 316 149 247 149C208 149 180 150 164 152C151 154 143 159 140 168L134 186C133 189 135 191 139 191C142 191 154 189 174 188C201 186 220 185 233 185C271 185 288 195 282 214C281 218 278 221 273 222C237 228 208 232 187 235C127 243 92 261 83 291C70 332 102 352 179 352C217 352 250 350 276 345C291 342 299 339 302 329L316 283C315 329 346 352 412 352C440 352 467 351 480 349C493 347 500 344 503 334L506 320C520 342 551 353 598 353C648 353 677 352 685 349C692 347 696 343 698 338C698 337 698 336 699 335L705 316C706 313 704 311 700 311L668 313C647 314 630 315 618 315C595 315 580 313 571 310C558 305 552 296 553 281L654 268C699 262 730 248 745 226L710 343C709 345 710 347 711 348C712 349 714 350 718 350H760C767 350 770 346 771 343L808 214C813 197 828 189 856 189C881 189 899 189 911 190H912C914 190 918 189 921 184L927 166C927 163 927 160 925 158ZM251 312C238 314 219 315 195 315C152 315 134 306 139 289C143 277 154 269 172 267L269 254L251 312ZM698 208C694 221 675 230 641 235L560 246L562 239C569 217 578 203 590 195C602 187 622 183 650 183C687 184 703 192 698 208Z" fill="black"/>
</svg>
