<svg width="1000" height="1000" viewBox="0 0 1000 1000" fill="none" xmlns="http://www.w3.org/2000/svg">
<path d="M615.021 887.521C807.771 856.896 916.667 739.917 916.667 500.146C916.667 260.229 807.771 143.25 615.021 112.625C579.521 106.937 541.083 104.167 500 104.167C458.917 104.167 420.479 106.937 384.979 112.625C192.375 143.25 83.3333 260.229 83.3333 500.146C83.3333 739.917 192.375 856.896 384.979 887.521C420.479 893.208 458.917 895.833 500 895.833C541.083 895.833 579.521 893.208 615.021 887.521ZM615.021 157.333C751.229 186.583 855 264.375 855 500C855 679.062 798.292 760.896 707.5 809.687L666.667 479.167L531.604 146.812C559.875 148.187 588.021 151.521 615.021 157.333ZM479.167 146.104C484.458 145.979 494.708 145.833 500 145.833C505.146 145.833 515.542 145.979 520.833 146.104V437.5L479.667 437.958L479.167 146.104ZM145.812 500C145.812 264.375 248.771 186.583 384.958 157.333C411.979 151.521 440.104 148.187 468.375 146.792L333.333 479.167L292.5 809.687C201.708 760.896 145.812 679.062 145.812 500ZM384.979 842.812C355.729 836.437 327.604 827.292 301.417 814.396L479.167 479.167H520.833L698.583 814.396C672.396 827.292 644.271 836.437 615.021 842.812C577.979 850.708 539 854.021 500 854.167C461 854.021 422.021 850.708 384.979 842.812Z" fill="black"/>
</svg>
