<svg width="1000" height="1000" viewBox="0 0 1000 1000" fill="none" xmlns="http://www.w3.org/2000/svg">
<g clip-path="url(#clip0_13_695)">
<path d="M323.958 1.99904e-06C314.108 -0.00227211 304.354 1.93574 295.253 5.70338C286.152 9.47102 277.883 14.9945 270.917 21.9583L22 270.958C7.93075 285.01 0.0175052 304.074 0 323.958L0 676.042C0 695.958 7.91667 715.042 22 729.125L270.917 978.042C277.883 985.006 286.152 990.529 295.253 994.297C304.354 998.064 314.108 1000 323.958 1000H676.042C685.892 1000 695.646 998.064 704.747 994.297C713.848 990.529 722.117 985.006 729.083 978.042L978.042 729.125C985.01 722.154 990.537 713.878 994.305 704.769C998.072 695.661 1000.01 685.899 1000 676.042V323.958C999.994 304.08 992.096 285.017 978.042 270.958L729.083 21.9583C722.117 14.9945 713.848 9.47102 704.747 5.70338C695.646 1.93574 685.892 -0.00227211 676.042 1.99904e-06H323.958ZM508.417 125C550.917 125 548.333 171.167 548.333 171.167V453.833C548.333 453.833 547.958 462.917 555 462.917C562.833 462.917 562.292 453.5 562.292 453.5L562.208 218.917C562.208 218.917 560.125 177.833 602.167 177.833C644.25 177.833 642.583 218.792 642.583 218.792V536.333C642.583 536.333 643.167 542.917 648.458 542.917C653.75 542.917 687.792 454.5 687.792 454.5C687.792 454.5 706.583 392.125 795.125 408.667C796.708 409 788.167 437.333 788.167 437.333L693.042 710.5C693.042 710.5 653.75 862.5 488.083 862.5C277.917 862.5 287.75 637.208 287.5 637.292V315.083C287.5 315.083 286.833 273.833 324.875 273.833C360.625 273.833 360.25 315.083 360.25 315.083L360.542 464.375C360.542 464.375 360.375 471.542 367.5 471.542C374.167 471.542 373.375 464.375 373.375 464.375L373.792 217.458C373.792 217.458 371.5 169.042 414.042 169.042C457.375 169.042 455 216.625 455 216.625V450.417C455 450.417 454.792 458.917 461.333 458.917C468.333 458.917 467.75 450.333 467.75 450.333L468.167 171.458C468.167 171.458 465.833 125 508.417 125Z" fill="black"/>
</g>
<defs>
<clipPath id="clip0_13_695">
<rect width="1000" height="1000" fill="white"/>
</clipPath>
</defs>
</svg>
