<svg width="1000" height="1000" viewBox="0 0 1000 1000" fill="none" xmlns="http://www.w3.org/2000/svg">
<g clip-path="url(#clip0_5_195)">
<path d="M497.333 748C497.333 721.167 518.875 699.667 545.75 699.667C572.583 699.667 594.083 721.167 594.083 748C594.105 754.355 592.87 760.652 590.45 766.529C588.029 772.405 584.47 777.745 579.978 782.241C575.486 786.736 570.15 790.3 564.276 792.725C558.401 795.151 552.105 796.392 545.75 796.375C539.391 796.403 533.09 795.172 527.209 792.753C521.327 790.335 515.983 786.777 511.482 782.285C506.982 777.792 503.415 772.454 500.987 766.577C498.558 760.7 497.317 754.401 497.333 748.042V748ZM694.167 748.042C694.167 721.167 715.708 699.625 742.542 699.625C769.375 699.625 790.917 721.167 790.917 748C790.917 774.833 769.375 796.375 742.583 796.375C736.225 796.403 729.923 795.172 724.042 792.753C718.161 790.335 712.816 786.777 708.316 782.285C703.815 777.792 700.248 772.454 697.82 766.577C695.392 760.7 694.15 754.401 694.167 748.042ZM237.917 748.042C237.917 721.167 259.458 699.625 286.292 699.625C313.125 699.625 334.625 721.167 334.625 748C334.625 774.833 313.125 796.375 286.292 796.375C279.936 796.397 273.639 795.162 267.763 792.741C261.887 790.321 256.547 786.762 252.051 782.27C247.555 777.778 243.992 772.441 241.566 766.567C239.14 760.693 237.9 754.397 237.917 748.042ZM41.0833 748.042C41.0833 721.167 62.625 699.625 89.4583 699.625C116.292 699.625 137.833 721.167 137.833 748C137.855 754.359 136.619 760.659 134.196 766.538C131.773 772.417 128.21 777.759 123.714 782.255C119.217 786.752 113.876 790.314 107.997 792.738C102.118 795.161 95.8172 796.397 89.4583 796.375C83.1065 796.391 76.814 795.153 70.9425 792.729C65.071 790.306 59.7362 786.747 55.2447 782.255C50.7533 777.764 47.1937 772.429 44.7706 766.557C42.3474 760.686 41.1085 754.393 41.125 748.042H41.0833ZM439.042 662.542H396.958V831.833H439.042V662.542ZM137.5 831.833H179.583V662.542H137.5V676.125C122.831 665.916 105.372 660.475 87.5 660.542C39.0833 660.542 0 699.625 0 748.042C0 796.708 39.0833 835.5 87.5 835.5C106.042 835.5 123.25 829.875 137.5 819.917V831.833ZM790.583 831.833H832.667V662.542H790.583V676.125C775.914 665.916 758.455 660.475 740.583 660.542C692.167 660.542 653.083 699.625 653.083 748.042C653.045 759.541 655.282 770.935 659.666 781.566C664.05 792.197 670.495 801.855 678.628 809.985C686.761 818.114 696.423 824.554 707.056 828.933C717.689 833.312 729.084 835.544 740.583 835.5C759.125 835.5 776.333 829.875 790.583 819.917V831.833ZM848.25 776.833C849.583 811 878.75 835.167 927.417 835.167C967.208 835.167 1000 817.917 1000 779.833C1000 753.333 985.083 737.75 950.625 731.083L923.792 725.833C906.542 722.5 894.625 719.167 894.625 708.917C894.625 697.667 906.208 692.667 920.792 692.667C942.042 692.667 950.625 703.292 951.292 715.875H993.708C991.375 682.75 964.875 660.542 922.125 660.542C878.083 660.542 851.875 684.708 851.875 716.208C851.875 754.625 883.042 760.917 909.875 765.917L932.083 769.875C948 772.875 954.958 777.5 954.958 786.792C954.958 795.083 947 803.333 928.083 803.333C900.583 803.333 891.667 789.083 891.333 776.833H848.25ZM334.333 604.875V676.125C319.664 665.916 302.205 660.475 284.333 660.542C235.917 660.542 196.833 699.625 196.833 748.042C196.833 796.708 235.917 835.5 284.333 835.5C302.833 835.5 320.083 829.875 334.333 819.917V831.833H376.417V604.875H334.333ZM593.75 604.875V676.125C579.081 665.916 561.622 660.475 543.75 660.542C495.375 660.542 456.25 699.625 456.25 748.042C456.211 759.541 458.449 770.935 462.833 781.566C467.217 792.197 473.661 801.855 481.795 809.985C489.928 818.114 499.59 824.554 510.223 828.933C520.856 833.312 532.251 835.544 543.75 835.5C562.292 835.5 579.5 829.875 593.75 819.917V831.833H635.833V604.875H593.75ZM109.333 554.875L137.833 604.875H334.333L256.458 470.333L109.375 554.833L109.333 554.875ZM439.042 646.958V604.875H593.75L428.75 319.25L281.292 403.75L396.958 604.875V646.958H439.042ZM656.417 604.875H853.208L598.75 164.5L451.625 249.333L656.417 604.875Z" fill="black"/>
</g>
<defs>
<clipPath id="clip0_5_195">
<rect width="1000" height="1000" fill="white"/>
</clipPath>
</defs>
</svg>
