<svg width="1000" height="1000" viewBox="0 0 1000 1000" fill="none" xmlns="http://www.w3.org/2000/svg">
<path d="M355.833 447.083C351.667 434.167 347.917 421.667 343.75 408.75C339.583 395.833 335.833 383.75 332.5 371.667C329.167 360 326.25 349.167 323.333 339.167H322.5C318.75 357.083 314.167 375 308.333 392.917C302.083 412.917 295.833 433.75 289.167 454.583C283.75 475.833 277.083 495.417 270.833 512.917H376.667C374.167 504.167 370.833 493.75 367.083 482.917C363.333 471.667 359.583 459.583 355.833 447.083ZM713.333 435C690.417 433.75 668.75 445.833 657.917 466.667C652.917 476.25 650 486.25 648.75 496.667H736.625C747.458 496.667 755.375 496.667 760.375 496.25C763.708 495.833 767.042 495 769.958 492.917V488.75C769.958 483.333 769.083 478.333 767.417 473.333C760 450 737.917 434.167 713.333 435ZM822.917 12.5H177.083C79.1667 12.5 0 91.6667 0 189.583V810.417C0 908.333 79.1667 987.5 177.083 987.5H822.917C920.833 987.5 1000 908.333 1000 810.417V189.583C1000 91.6667 920.833 12.5 822.917 12.5ZM529.583 700.458H442.5C439.583 700.875 436.667 698.75 435.833 695.875L401.667 595.875H246.667L215 694.208C214.167 697.958 210.833 700.458 207.083 700.042H128.75C124.167 700.042 122.917 697.542 124.167 692.542L258.333 307.917C259.583 303.75 260.833 300 262.5 295C264.167 286.25 265 277.083 265 267.917C264.583 265.833 266.25 263.75 268.333 263.333H376.25C379.167 263.333 381.25 264.583 381.667 266.667L533.75 693.75C535 698.333 533.792 700.458 529.583 700.458ZM856.708 534.167C855.833 542.042 855.417 547.917 855 551.667C854.583 554.583 852.125 557.083 849.167 557.083C846.667 557.083 842.083 557.5 835.417 557.958C828.792 558.792 820.833 559.167 811.292 559.167C801.708 559.167 791.667 557.5 780.875 557.5H648.792C650.417 570.417 654.625 583.333 661.708 594.583C669.25 605.875 679.667 614.583 692.083 619.625C708.75 626.708 727.125 630.458 745.458 630.042C760.042 629.583 774.583 628.375 788.75 625.458C801.708 623.833 814.167 620.5 825.875 615.875C827.958 614.25 829.208 615.042 829.208 619.208V683C829.208 684.625 828.792 686.333 828.333 687.958C827.458 689.208 826.667 690.083 825.458 690.875C812.125 696.708 798.375 700.875 783.792 703.375C764.167 707.125 744.625 708.792 724.625 708.375C692.917 708.375 666.292 703.375 644.625 693.792C624.208 685 606.25 671.25 592.083 654.208C578.792 637.958 569.167 619.625 563.333 599.625C557.5 580 554.625 559.583 554.625 538.75C554.625 516.292 557.958 494.167 565.042 472.5C571.708 451.667 582.125 432.5 596.292 415.417C610.042 398.75 627.083 385.417 646.667 375.833C666.292 366.25 689.583 362.917 716.25 362.917C738.375 362.5 760.417 366.667 780.833 375.833C797.917 383.333 812.917 394.583 824.583 409.167C835.417 423.333 844.167 439.167 849.625 456.667C855 473.333 857.5 490.417 857.5 507.5C857.5 517.5 857.083 526.25 856.708 534.167Z" fill="black"/>
</svg>
