<svg width="1000" height="1000" viewBox="0 0 1000 1000" fill="none" xmlns="http://www.w3.org/2000/svg">
<path d="M822.917 12.5H177.083C79.1667 12.5 0 91.6667 0 189.583V810.417C0 908.333 79.1667 987.5 177.083 987.5H822.917C920.833 987.5 1000 908.333 1000 810.417V189.583C1000 91.6667 920.833 12.5 822.917 12.5ZM520.833 700H433.75C430.833 700.458 427.917 698.333 427.083 695.417L392.917 595.833H237.917L206.25 694.167C205.417 697.917 202.083 700.417 198.333 700H120C115.417 700 114.167 697.5 115.417 692.5L249.583 307.5C250.833 303.333 252.083 298.75 253.75 293.75C255.833 285 257.083 276.25 257.083 267.083C256.667 265 258.333 262.917 260.417 262.5H368.333C371.25 262.5 373.333 263.75 373.75 265.833L525 693.375C526.25 697.917 525 700 520.833 700ZM843.75 700.458H772.042C768.75 700.875 765.417 698.75 764.167 695.875C763.333 692.542 762.5 688.75 761.625 685.458C760.792 682.542 760.792 679.625 760.792 676.708C747.458 688.75 731.208 697.542 713.708 702.5C698.708 706.708 682.917 708.75 667.458 708.75C652.083 708.75 636.625 706.667 622.042 701.667C608.708 697.125 596.25 689.167 586.625 678.75C575.792 667.083 567.875 653.333 563.25 638.333C557.417 619.125 554.542 599.167 554.958 579.167V372.5C554.542 370 556.167 367.5 559.125 367.083H639.917C642.458 366.667 644.958 368.333 645.375 371.25V568.375C645.375 586.667 649.542 601.25 657.417 611.667C665.375 622.083 681.583 627.542 700.375 627.542C709.917 627.542 719.5 625.833 728.708 622.5C738.292 619.167 747 614.625 754.958 608.75V371.667C754.958 368.75 757.042 367.083 760.792 367.083H840.375C842.5 366.667 844.917 368.333 844.917 370.417V627.083C844.917 638.375 844.917 648.375 845.375 657.083C845.792 665.875 846.25 673.375 846.625 680.042C847.458 686.708 847.833 690.458 848.25 695C848.75 698.75 847.083 700.458 843.75 700.458ZM347.083 447.083C342.917 434.167 339.167 421.667 335 408.75C330.833 395.833 327.083 383.75 323.75 371.667C320.417 360 317.5 349.167 314.583 339.167H313.75C310 357.083 305.417 375 299.583 392.917C293.333 412.917 287.083 433.75 280.417 454.583C275 475.833 268.333 495.417 262.083 512.917H367.917C365.417 504.167 362.083 493.75 358.333 482.917C354.583 471.667 350.833 459.583 347.083 447.083Z" fill="black"/>
</svg>
