<svg width="1000" height="1000" viewBox="0 0 1000 1000" fill="none" xmlns="http://www.w3.org/2000/svg">
<g clip-path="url(#clip0_12_490)">
<path d="M422.917 350.833C407.276 344.702 390.538 341.865 373.75 342.5C358.606 342.184 343.456 342.462 328.333 343.333V483.333L344.583 484.167H366.667C382.917 484.167 399.167 481.667 414.583 476.667C427.917 472.917 439.583 465 448.75 454.583C457.5 444.167 461.667 430 461.667 411.667C462.607 398.708 459.346 385.791 452.365 374.833C445.385 363.875 435.058 355.459 422.917 350.833ZM822.917 12.5H177.083C130.118 12.5 85.0761 31.1569 51.8665 64.3665C18.6569 97.5761 0 142.618 0 189.583L0 810.417C0 908.333 79.1667 987.5 177.083 987.5H822.917C920.833 987.5 1000 908.333 1000 810.417V189.583C1000 91.6667 920.833 12.5 822.917 12.5ZM527.5 497.917C510.833 521.25 487.5 538.75 460.417 548.75C432.083 559.167 400.833 562.917 366.667 562.917L345.833 562.5L327.917 562.083V695.833C328.035 696.522 328.007 697.229 327.836 697.906C327.664 698.584 327.352 699.218 326.92 699.768C326.488 700.317 325.946 700.77 325.328 701.098C324.71 701.425 324.031 701.619 323.333 701.667H242.5C239.167 701.667 237.5 700 237.5 696.25V267.5C237.5 264.583 238.75 262.917 241.667 262.917L265 262.5L296.667 261.667L332.917 260.833L370.833 260.417C405 260.417 433.333 264.583 456.667 273.333C477.5 280.417 496.667 292.083 512.5 307.5C525.833 320.833 536.25 337.083 542.917 355C549.167 372.5 552.5 390.417 552.5 409.167C552.5 445 544.167 474.583 527.5 497.917ZM811.667 366.667V447.917C811.667 451.25 809.583 452.5 805 452.5C777.509 451.501 750.151 456.773 725 467.917C717.083 471.667 709.583 476.667 703.75 483.333V695.833C703.75 700 702.083 701.667 698.333 701.667H616.25C615.483 701.784 614.7 701.748 613.947 701.559C613.195 701.37 612.487 701.033 611.866 700.567C611.245 700.102 610.724 699.517 610.332 698.847C609.94 698.177 609.685 697.436 609.583 696.667V464.167L609.167 432.917L608.333 400.417C608.333 390.833 607.5 381.667 606.667 372.083C606.524 371.097 606.74 370.092 607.275 369.251C607.81 368.41 608.629 367.789 609.583 367.5H683.75C687.917 367.5 691.25 370.417 692.083 374.167C695.849 386.59 697.676 399.52 697.5 412.5C710 397.917 725.417 385.833 742.5 376.667C761.868 365.908 783.678 360.312 805.833 360.417C808.75 360 811.25 362.083 811.667 365V366.667Z" fill="black"/>
</g>
<defs>
<clipPath id="clip0_12_490">
<rect width="1000" height="1000" fill="white"/>
</clipPath>
</defs>
</svg>
