<svg width="1000" height="1000" viewBox="0 0 1000 1000" fill="none" xmlns="http://www.w3.org/2000/svg">
<path d="M410.417 350.833C395 344.583 378.333 342.083 361.25 342.5C350.417 342.5 340.833 342.5 332.917 342.917C324.583 342.5 318.75 342.917 315.833 343.333V483.333C321.667 483.75 327.083 484.167 332.083 484.167H354.167C370.417 484.167 386.667 481.667 402.083 476.667C415.417 472.917 427.083 465 436.25 454.583C445 444.167 449.167 430 449.167 411.667C449.583 398.75 446.25 385.833 439.583 374.583C432.5 363.75 422.5 355.417 410.417 350.833ZM822.917 12.5H177.083C79.1667 12.5 0 91.6667 0 189.583V810.375C0 908.292 79.1667 987.458 177.083 987.458H822.917C920.833 987.458 1000 908.292 1000 810.375V189.583C1000 91.6667 920.833 12.5 822.917 12.5ZM514.958 497.917C498.333 521.25 475 538.75 447.917 548.75C419.583 559.167 388.333 562.917 354.167 562.917C344.167 562.917 337.5 562.917 333.333 562.5C329.167 562.083 323.333 562.083 315.417 562.083V695.792C315.833 698.708 313.75 701.25 310.833 701.667H230C226.667 701.667 225 699.958 225 696.208V267.5C225 264.583 226.25 262.917 229.167 262.917C236.25 262.917 242.917 262.917 252.5 262.5C262.5 262.083 272.917 262.083 284.167 261.667C295.417 261.25 307.5 261.25 320.417 260.833C333.333 260.417 345.833 260.417 358.333 260.417C392.5 260.417 420.833 264.583 444.167 273.333C465 280.417 484.167 292.083 500 307.5C513.333 320.833 523.75 337.083 530.417 355C536.625 372.5 539.958 390.417 539.958 409.167C540 445 531.667 474.583 514.958 497.917ZM810.417 660C798.75 676.667 782.458 689.542 763.75 697.125C743.333 705.833 718.333 710.375 688.292 710.375C669.167 710.375 650.375 708.75 631.667 705C617.083 702.458 602.5 697.917 589.167 691.667C586.25 690.042 584.125 687.125 584.542 683.792V611.292C584.542 610.083 585 608.375 586.25 607.542C587.458 606.708 588.75 607.125 590 607.958C606.25 617.542 623.333 624.25 641.667 628.375C657.458 632.542 674.125 634.625 690.833 634.625C706.667 634.625 717.917 632.5 725.417 628.75C732.083 625.833 736.667 618.75 736.667 611.25C736.667 605.375 733.333 600 726.667 594.583C720 589.208 706.292 582.958 685.875 574.958C664.625 567.458 645.083 557.458 626.708 545C613.792 535.792 603 523.75 595 509.583C588.375 496.25 585.042 481.667 585.458 467.042C585.458 449.125 590.458 432.042 599.667 416.625C610.083 399.958 625.458 386.625 643.375 378.292C662.917 368.333 687.5 363.75 717.083 363.75C734.167 363.75 751.667 365 768.75 367.5C781.25 369.167 793.333 372.5 804.583 377.083C806.208 377.5 807.917 379.167 808.75 380.833C809.167 382.5 809.583 384.167 809.583 385.833V453.75C809.583 455.417 808.75 457.083 807.5 457.917C803.75 458.75 801.667 458.75 800 457.917C787.5 451.25 774.167 446.667 760 443.75C744.583 440.417 729.167 438.333 713.333 438.333C705 437.917 696.25 439.167 688.292 441.25C682.917 442.5 678.292 445.417 675.375 449.583C673.292 452.917 672.042 457.083 672.042 460.833C672.042 464.583 673.708 468.333 676.25 471.667C680 476.25 684.958 480 690.417 482.917C699.958 487.917 710 492.5 719.958 496.667C742.5 504.167 764.167 514.583 784.167 527.083C797.917 535.792 809.167 547.5 817.042 561.667C823.708 574.917 827.042 589.583 826.625 604.542C827.083 624.167 821.25 643.708 810.417 660Z" fill="black"/>
</svg>
