<svg width="1000" height="1000" viewBox="0 0 1000 1000" fill="none" xmlns="http://www.w3.org/2000/svg">
<path d="M499.917 761.125C443.583 690.458 410.458 628.542 399.417 575.5C388.458 532.75 392.792 498.542 411.542 472.833C431.417 443.25 461 428.875 499.875 428.875C538.75 428.875 568.292 443.25 588.167 473.125C606.75 498.542 611.417 532.792 600.083 575.792C587.958 629.875 554.875 691.792 499.625 761.458L499.917 761.125ZM899.792 808.625C892.083 860.5 856.708 903.542 808.125 924.542C714.333 965.375 621.458 900.25 541.958 811.917C673.417 647.333 697.708 519.208 641.292 436.333C608.167 388.833 560.75 365.708 499.917 365.708C377.292 365.708 309.875 469.458 336.375 589.875C351.792 655.042 392.667 729.125 457.833 811.958C417 857.125 378.292 889.25 344.083 909.125C317.583 923.458 292.208 932.333 267.917 934.458C156.375 951.083 68.9167 842.875 108.625 731.25C114.125 716.875 125.083 690.417 143.833 649.542L144.875 647.333C205.833 515 279.875 364.583 364.958 197.75L367.167 192.25L391.333 145.792C410.083 111.542 417.792 96.2083 447.625 77.3333C462 68.625 479.667 64.25 499.5 64.25C539.25 64.25 570.208 87.4583 583.458 106.167C590.042 116.125 597.833 129.375 607.708 145.875L630.958 191.208L634.292 197.833C719.292 364.583 793.417 514.708 854.125 647.375L855.208 648.417L877.417 699.25L890.667 731.083C900.792 756.583 902.917 781.958 899.542 808.458L899.792 808.625ZM950.583 709.083C942.833 684.792 929.583 656.125 913.083 621.875V620.625C834.458 453.75 761.417 303.75 692.083 168.958L687.458 162.208C638.042 60.875 602.667 0 499.917 0C398.333 0 355.167 70.5833 311.042 162.375L307.667 169.042C238.167 303.792 165.167 454 86.7917 620.792V623L63.5417 673.792C54.7917 694.792 50.3334 705.792 49.1667 709.083C-7.08331 863.75 108.833 999.583 249.167 999.583C250.292 999.583 254.667 999.583 260.167 998.458H275.667C348.583 989.583 423.708 943.25 499.917 860.292C576.083 943.125 651.292 989.583 724.083 998.458H739.583C745.083 999.583 749.5 999.583 750.583 999.583C890.917 999.708 1006.83 863.75 950.583 709.083Z" fill="black"/>
</svg>
