<svg width="1000" height="1000" viewBox="0 0 1000 1000" fill="none" xmlns="http://www.w3.org/2000/svg">
<path d="M500 60C257.232 60 60 257.232 60 500C60 742.768 257.232 940 500 940C742.768 940 940 742.768 940 500C940 257.232 742.768 60 500 60ZM500 100C721.151 100 900 278.849 900 500C900 721.151 721.151 900 500 900C278.849 900 100 721.151 100 500C100 278.849 278.849 100 500 100ZM475.234 120V201.055H500.195V173.75L520.352 201.055L553.203 205.82L524.727 169.414C530.987 168.134 542.695 161.573 542.695 147.773C542.695 127.073 523.851 120.43 512.031 120.43L475.234 120ZM506.797 137.773C513.597 137.773 518.413 142.325 518.633 147.305C518.853 152.285 515.355 157.695 507.695 157.695H499.766L499.336 138.203L506.797 137.773ZM623.125 142.383C601.605 142.823 583.363 155.755 579.023 176.875C574.683 197.895 593.978 222.767 617.578 228.047C643.178 233.807 667.042 221.772 672.422 194.492C677.022 171.112 659.666 148.141 633.906 143.281C630.746 142.681 627.592 142.403 624.492 142.383C624.052 142.383 623.565 142.363 623.125 142.383ZM322.383 163.789L300.039 175.469L310.547 266.953L334.258 249.609L331.172 235.742L357.031 220.547L368.828 229.258L396.016 218.398L322.383 163.789ZM625.039 164.805C626.539 164.805 628.088 164.954 629.648 165.234C642.088 167.574 649.972 178.212 647.812 189.492C645.633 200.752 634.198 208.414 621.758 206.094C609.318 203.754 603.172 191.827 605.352 180.547C607.252 170.687 614.379 164.765 625.039 164.805ZM323.242 192.812L342.07 207.148L328.516 214.922L323.242 192.812ZM739.844 204.531L669.727 252.656L690.312 268.672L724.062 242.656L706.953 284.688L715.703 292.93L758.672 275.586L732.812 310.273L748.594 332.344L798.086 262.148L782.305 243.516L742.031 259.57L758.242 219.258L739.844 204.531ZM500 220C345.479 220 220 345.479 220 500C220 654.521 345.479 780 500 780C654.521 780 780 654.521 780 500C780 345.479 654.521 220 500 220ZM237.383 224.023L203.203 263.008L262.773 315.469L279.453 296.406L256.641 276.445L273.281 258.672L258.828 245.664L242.188 263.906L233.867 256.094L251.836 236.562L237.383 224.023ZM500 240C643.712 240 760 356.288 760 500C760 643.712 643.712 760 500 760V520V460V240ZM480 241.016V460H400V259.961C424.921 249.58 451.85 243.159 480 241.016ZM340 295.273V460H243.359C253.669 393.276 289.156 335.05 340 295.273ZM579.102 302.305C574.862 302.305 571.445 305.703 571.445 309.883C571.445 314.063 574.882 317.461 579.102 317.461C583.322 317.461 586.797 314.063 586.797 309.883C586.797 305.683 583.342 302.305 579.102 302.305ZM598.711 302.305C594.471 302.305 591.016 305.703 591.016 309.883C591.016 314.063 594.491 317.461 598.711 317.461C602.951 317.461 606.367 314.063 606.367 309.883C606.367 305.683 602.971 302.305 598.711 302.305ZM618.242 302.305C614.002 302.305 610.586 305.703 610.586 309.883C610.586 314.063 614.022 317.461 618.242 317.461C622.482 317.461 625.938 314.063 625.938 309.883C625.938 305.703 622.502 302.305 618.242 302.305ZM637.852 302.305C633.612 302.305 630.156 305.703 630.156 309.883C630.156 314.063 633.632 317.461 637.852 317.461C642.092 317.461 645.508 314.063 645.508 309.883C645.508 305.703 642.092 302.305 637.852 302.305ZM657.422 302.305C653.182 302.305 649.727 305.703 649.727 309.883C649.727 314.063 653.202 317.461 657.422 317.461C661.642 317.461 665.117 314.063 665.117 309.883C665.117 305.703 661.662 302.305 657.422 302.305ZM573.594 322.148V334.453H662.93V322.148H573.594ZM837.07 326.758L762.617 356.641L783.633 405.195L803.32 396.953L792.383 372.227L801.602 367.93L812.109 391.758L830.078 384.375L820 361.406L828.75 357.539L839.258 382.227L857.656 374.844L837.07 326.758ZM156.758 335.859L146.289 358.828L218.945 392.188L242.188 345.352L224.258 336.25L210.234 360.547L156.758 335.859ZM573.594 338.711V351.016H662.93V338.711H573.594ZM540.117 353.047C539.837 353.067 539.576 353.084 539.336 353.164C538.336 353.404 537.34 354.136 536.68 355.156C535.34 357.196 534.773 359.526 538.633 362.266L538.672 362.305L538.75 362.383L547.227 368.75C550.127 370.81 554.336 374.333 554.336 380.273V380.312V380.352L554.102 393.867C554.102 396.747 553.058 400.124 550.078 402.344C547.118 404.564 542.888 404.816 538.828 403.516C535.948 402.596 534.059 401.596 532.539 401.016C531.019 400.436 529.714 400.117 526.914 400.117C523.014 400.117 520.589 401.553 518.789 403.633C516.989 405.713 516.055 408.608 516.055 410.508V411.523C516.055 413.423 516.969 416.358 518.789 418.438C520.589 420.517 523.014 421.953 526.914 421.953C529.694 421.953 531.039 421.635 532.539 421.055C534.039 420.495 535.928 419.495 538.828 418.555C542.868 417.255 547.098 417.507 550.078 419.727C553.058 421.947 554.102 425.225 554.102 428.125L554.336 441.719V441.758V441.797C554.336 447.717 550.264 451.143 547.344 453.203L538.75 459.688L538.711 459.727L538.633 459.805C534.773 462.545 535.379 464.894 536.719 466.914C537.399 467.934 538.355 468.627 539.375 468.867C540.375 469.107 541.424 469.128 543.164 468.008L561.016 456.055C563.256 454.435 564.883 451.384 564.883 448.984L564.688 432.305V432.266C564.688 425.706 568.043 420.15 572.383 416.25C574.943 413.95 577.896 412.116 581.016 411.016C577.876 409.896 574.943 408.081 572.383 405.781C568.043 401.881 564.688 396.306 564.688 389.766V389.727L564.883 373.086C564.883 370.686 563.412 367.714 561.172 366.094L543.203 354.062C541.903 353.203 540.937 353.007 540.117 353.047ZM696.211 364.453C691.511 368.693 684.925 371.466 677.305 371.406H648.125V375.781C648.125 379.281 646.169 382.047 643.789 383.867C641.389 385.667 638.398 386.758 635.078 386.758H575.078L575.039 389.727C575.039 392.727 576.696 395.784 579.336 398.164C581.996 400.544 585.554 401.914 587.734 401.914H636.875C638.775 401.914 640.679 402.334 642.539 403.594C645.059 405.714 646.094 407.497 646.094 410.977C646.094 414.357 644.399 417.04 642.539 418.32C640.679 419.6 638.775 420.039 636.875 420.039H587.734C585.534 420.039 581.976 421.37 579.336 423.75C576.696 426.13 575.039 429.148 575.039 432.148L575.078 437.031H662.812C667.312 437.031 671.387 439.033 673.867 441.953C676.327 444.873 677.403 448.472 677.383 451.992C677.363 455.532 676.249 459.131 673.789 462.031C671.329 464.931 667.292 466.914 662.812 466.914H580.586C551.866 466.914 532.461 490.955 532.461 514.375C532.461 542.415 552.531 560.977 577.891 560.977H668.633C671.073 560.977 673.501 562.109 674.961 563.789C676.421 565.489 677.05 567.474 677.07 569.414C677.09 571.354 676.519 573.378 675.039 575.078C673.559 576.778 671.053 577.891 668.633 577.891H579.57C559.23 577.891 545.781 596.259 545.781 611.719C545.781 629.079 558.621 645.156 581.641 645.156H641.484C643.224 645.156 644.864 645.407 646.484 646.367C648.064 647.327 649.766 649.355 649.766 651.875C649.766 654.375 648.104 656.403 646.484 657.383C644.884 658.363 643.204 658.633 641.484 658.633H603.281C599.081 658.633 593.382 660.559 589.102 664.219C584.802 667.879 581.797 672.938 581.797 680.078C581.797 687.838 584.799 693.231 589.219 697.031C593.659 700.831 599.619 702.852 605.039 702.852H620.586C623.406 702.852 626.711 704.749 627.891 707.109C628.871 709.129 628.851 710.806 628.711 712.266C631.611 712.026 633.753 711.106 635.273 709.766C637.633 707.686 638.945 704.4 638.945 700.82C638.945 697.96 637.706 694.377 635.586 691.797C633.446 689.237 630.769 687.656 627.109 687.656H601.211C599.651 687.656 598.003 687.309 596.562 686.289C595.122 685.269 593.888 683.409 593.828 681.289C593.748 679.149 594.984 677.135 596.484 676.055C597.984 674.975 599.651 674.648 601.211 674.648H640.273C651.453 674.648 658.067 671.45 662.227 667.07C666.387 662.67 668.281 656.637 668.281 650.117C668.281 637.237 656.364 623.75 642.344 623.75H577.227C575.107 623.75 572.864 622.789 571.484 621.289C570.124 619.789 569.551 617.991 569.531 616.211C569.531 614.431 570.104 612.595 571.484 611.055C572.864 609.555 575.107 608.594 577.227 608.594H664.727C694.427 608.594 711.328 587.593 711.328 565.273C711.328 542.373 695.051 522.969 664.531 522.969H579.609C577.129 522.969 574.625 521.856 573.125 520.156C571.585 518.456 570.957 516.414 570.938 514.414C570.918 512.414 571.527 510.334 573.047 508.594C574.587 506.874 577.09 505.742 579.57 505.742H666.562C702.562 505.742 740 473.974 740 434.414C740 413.354 733.591 399.069 724.531 387.969C716.471 378.069 706.151 370.853 696.211 364.453ZM208.477 422.969L123.047 450.703L120 475.859L201.055 519.18L200.586 490.156L188.359 484.531L190.195 454.688L204.531 451.133L208.477 422.969ZM836.641 425.547C808.061 425.547 793.711 448.734 793.711 471.914C793.711 495.094 810.681 518.281 836.641 518.281C862.601 518.281 880 497.274 880 471.914C880 446.994 864.781 425.547 836.641 425.547ZM837.188 450.703C849.807 450.703 857.148 462.373 857.148 471.953C857.148 481.313 849.508 493.164 837.188 493.164C824.867 493.164 817.656 482.893 817.656 471.953C817.656 461.013 824.568 450.703 837.188 450.703ZM170.938 459.414L169.922 476.055L146.719 465.43L170.938 459.414ZM241.016 520H340V704.727C284.126 661.016 246.731 595.047 241.016 520ZM400 520H480V758.984C451.85 756.841 424.921 750.419 400 740.039V520Z" fill="black"/>
</svg>
