<svg width="1000" height="1000" viewBox="0 0 1000 1000" fill="none" xmlns="http://www.w3.org/2000/svg">
<path d="M805.664 750.879C802.441 750 798.535 750.488 794.043 752.148C733.887 779.688 675.391 799.316 618.555 810.938C495.801 835.938 376.172 822.852 259.766 771.777C227.441 757.52 182.52 733.496 125 699.512C123.518 698.342 121.71 697.659 119.824 697.559C117.871 697.461 116.211 697.656 114.648 698.438C113.086 699.219 111.914 700.195 111.035 701.465C110.156 702.734 109.961 704.492 110.645 706.738C111.23 708.887 112.695 711.328 115.137 713.965C125.293 725.879 137.891 738.574 152.832 752.051C167.773 765.527 187.598 780.762 212.305 797.754C237.012 814.746 262.891 829.883 289.746 843.066C316.699 856.25 347.949 867.383 383.594 876.367C419.238 885.352 454.883 889.844 490.43 889.844C525.781 889.844 560.156 886.231 593.457 879.199C626.855 872.07 654.98 863.672 677.93 853.906C700.781 844.238 721.875 833.399 741.211 821.68C760.547 809.961 774.805 800 784.082 792.09C793.359 784.082 800 777.832 803.809 773.145C808.301 767.578 810.547 762.793 810.547 758.594C810.645 754.199 808.887 751.66 805.664 750.879ZM515.039 339.941C500.195 341.211 482.324 343.945 461.328 348.047C440.332 352.051 420.898 357.129 402.93 363.086C384.961 369.043 366.602 377.344 347.949 387.891C329.199 398.438 313.281 410.547 300.098 424.023C286.914 437.5 276.172 454.395 267.773 474.805C259.375 495.117 255.176 517.48 255.176 541.895C255.176 568.359 259.766 591.895 269.141 612.695C278.418 633.496 290.82 649.805 306.445 661.914C321.973 674.023 339.648 683.496 359.18 690.43C378.711 697.363 399.414 700.488 420.898 699.609C442.383 698.731 463.379 695.41 483.789 689.551C504.102 683.789 523.242 674.512 541.016 661.914C558.789 649.316 573.34 634.375 584.766 617.285C588.965 623.731 592.676 628.516 595.996 631.641L604.492 640.332C610.156 646.094 618.848 654.59 630.566 665.82C642.188 677.051 654.102 687.988 666.016 698.731L767.969 601.172L762.109 596.387C757.91 593.164 752.93 588.574 747.266 582.422C741.602 576.367 735.938 569.629 730.469 562.402C724.902 555.176 720.117 546.68 716.113 537.109C712.109 527.539 710.059 518.262 710.059 509.277V252.637C710.059 242.773 708.203 232.129 704.492 220.605C700.684 209.18 694.043 196.68 684.277 183.203C674.512 169.727 662.402 157.617 647.949 147.07C633.398 136.523 614.063 127.539 589.746 120.312C565.527 113.086 538.379 109.473 508.496 109.473C477.93 109.473 449.512 113.086 422.949 120.117C396.484 127.246 373.828 136.719 354.883 148.633C336.035 160.547 319.824 174.316 306.348 190.039C292.871 205.762 282.812 222.168 276.27 239.258C269.727 256.348 266.406 273.633 266.406 291.113L398.438 302.734C403.809 286.719 411.035 272.852 419.922 260.938C428.906 249.023 437.402 240.43 445.117 235.059C452.93 229.688 461.328 225.391 470.215 222.168C479.199 218.945 485.254 217.285 488.379 216.895C491.504 216.602 493.945 216.504 495.801 216.504C521.875 216.504 539.941 224.219 550.098 239.551C556.445 248.828 559.57 262.891 559.57 281.836V337.109C544.727 337.695 529.883 338.672 515.039 339.941ZM559.668 488.281C559.668 504.492 557.52 519.238 553.32 532.227C544.336 560.645 527.246 578.516 502.148 585.742C480.273 592.188 459.473 588.965 439.746 576.172C418.75 562.5 408.301 543.164 408.301 518.262C408.301 498.828 413.184 482.227 422.949 468.359C432.715 454.59 445.703 444.238 462.012 437.402C478.32 430.566 494.238 425.684 509.863 422.852C525.391 419.922 542.09 418.164 559.668 417.578V488.281ZM887.012 702.051C882.812 696.777 871.484 693.359 852.93 691.602C834.375 689.844 818.262 689.941 804.395 691.992C789.453 693.75 774.023 698.047 758.203 705.078C742.285 712.012 735.352 717.871 737.109 722.461L737.793 723.731L738.672 724.414L740.039 724.609H744.531C745.312 724.609 746.289 724.512 747.656 724.414C749.023 724.316 750.293 724.121 751.465 724.023C752.637 723.926 754.297 723.731 756.445 723.633C758.496 723.535 760.449 723.242 762.305 722.949C762.598 722.949 765.918 722.656 772.363 722.07C778.809 721.484 783.496 721.094 786.328 720.801C789.16 720.508 793.945 720.215 800.488 719.922C807.031 719.629 812.305 719.629 816.211 719.922C820.117 720.215 824.512 720.606 829.492 720.996C834.473 721.387 838.477 722.266 841.602 723.633C844.727 724.902 847.07 726.563 848.535 728.613C853.613 735.059 852.637 749.316 845.605 771.484C838.574 793.652 831.934 811.328 825.684 824.414C822.949 829.981 822.949 833.399 825.684 834.863C828.418 836.328 832.227 834.961 837.305 830.957C852.539 819.043 865.234 801.074 875.488 776.953C881.445 762.695 885.742 747.852 888.281 732.324C890.625 716.797 890.234 706.738 887.012 702.051Z" fill="black"/>
</svg>
