<svg width="1000" height="303" viewBox="0 0 1000 303" fill="none" xmlns="http://www.w3.org/2000/svg">
<path d="M763.5 36.3241L828.458 101.324H934.958V207.866L1000 272.866V36.3241H763.5ZM83.3333 52.2824L0 258.949H54.5417L69.9583 218.032H162.5L179.5 258.949H235.25L143 52.2824H83.3333ZM258.708 52.2824V258.741H310.292V129.907L366.042 194.991H373.875L429.625 130.157V258.949H481.208V52.2824H436.25L369.917 129.157L303.625 52.2824H258.708ZM520.5 52.2824V258.949H606.208C688.667 258.949 726.208 215.366 726.208 155.949C726.208 99.2824 687.167 52.2824 611.75 52.2824H520.5ZM572.042 90.1991H605.042C653.792 90.1991 672.958 119.824 672.958 155.616C672.958 185.949 657.458 221.116 605.625 221.116H572.042V90.1991ZM114.333 101.574L147.292 182.074H83.6667L114.333 101.574ZM828.375 114.366L761.542 181.157V274.907H855.125L921.958 207.949H828.375V114.366Z" fill="black"/>
</svg>
