<svg width="1000" height="1000" viewBox="0 0 1000 1000" fill="none" xmlns="http://www.w3.org/2000/svg">
<path d="M730.125 639.208C719.308 638.866 709.048 634.328 701.518 626.556C693.987 618.783 689.776 608.385 689.776 597.562C689.776 586.74 693.987 576.342 701.518 568.569C709.048 560.796 719.308 556.259 730.125 555.917C741.176 555.917 751.774 560.306 759.588 568.121C767.402 575.935 771.792 586.533 771.792 597.583C771.792 608.634 767.402 619.232 759.588 627.046C751.774 634.86 741.176 639.25 730.125 639.25M269.875 639.25C258.824 639.25 248.226 634.86 240.412 627.046C232.598 619.232 228.208 608.634 228.208 597.583C228.208 586.533 232.598 575.935 240.412 568.121C248.226 560.306 258.824 555.917 269.875 555.917C280.926 555.917 291.524 560.306 299.338 568.121C307.152 575.935 311.542 586.533 311.542 597.583C311.542 608.634 307.152 619.232 299.338 627.046C291.524 634.86 280.926 639.25 269.875 639.25ZM745.083 388.417L828.292 244.25C830.574 240.275 831.19 235.557 830.003 231.13C828.816 226.702 825.923 222.925 821.958 220.625C817.979 218.329 813.252 217.706 808.814 218.894C804.377 220.081 800.592 222.982 798.292 226.958L714.042 372.917C649.583 343.5 577.208 327.083 500 327.083C422.792 327.083 350.417 343.5 285.958 372.917L201.708 226.958C199.408 222.982 195.623 220.081 191.186 218.894C186.748 217.706 182.021 218.329 178.042 220.625C174.077 222.925 171.184 226.702 169.997 231.13C168.81 235.557 169.426 240.275 171.708 244.25L254.917 388.417C112 466.083 14.2917 610.75 0 781.667H1000C985.667 610.75 887.917 466.083 745.042 388.333" fill="black"/>
</svg>
