<svg width="1000" height="1000" viewBox="0 0 1000 1000" fill="none" xmlns="http://www.w3.org/2000/svg">
<path d="M500 83.3335C730.125 83.3335 916.667 269.875 916.667 500C916.667 730.125 730.125 916.667 500 916.667C269.875 916.667 83.3333 730.125 83.3333 500C83.3333 269.875 269.875 83.3335 500 83.3335ZM367.625 639.292C351.167 619.417 330.708 612.333 306 618.083L299.75 619.792L275.167 662.125C270.53 669.673 268.995 678.722 270.881 687.377C272.768 696.032 277.931 703.621 285.288 708.554C292.645 713.488 301.625 715.383 310.349 713.843C319.072 712.302 326.86 707.446 332.083 700.292L334.667 696.417L367.583 639.292H367.625ZM550.417 360.833C530.083 377.667 509.583 427.375 538.333 476.958L665 696.375C669.386 703.829 676.424 709.353 684.707 711.843C692.99 714.333 701.907 713.605 709.677 709.804C717.446 706.004 723.495 699.411 726.614 691.344C729.732 683.277 729.692 674.33 726.5 666.292L724.458 662.125L691.042 604.125H740.625C745.129 604.136 749.591 603.256 753.754 601.536C757.917 599.817 761.699 597.29 764.883 594.103C768.066 590.916 770.587 587.131 772.302 582.966C774.017 578.801 774.891 574.338 774.875 569.833C774.896 561.478 771.856 553.405 766.328 547.14C760.8 540.875 753.168 536.852 744.875 535.833L740.583 535.583H651.417L560 377.375L550.417 360.875V360.833ZM562 234C554.804 229.867 546.357 228.476 538.216 230.085C530.076 231.693 522.791 236.191 517.708 242.75L515.125 246.583L499.833 272.958L484.875 246.583C480.489 239.129 473.451 233.605 465.168 231.116C456.885 228.626 447.967 229.354 440.198 233.154C432.429 236.955 426.38 243.547 423.261 251.614C420.142 259.681 420.183 268.628 423.375 276.667L425.417 280.833L460.333 341.542L348.458 535.417H261.083C256.582 535.406 252.124 536.284 247.963 538.002C243.803 539.719 240.023 542.241 236.84 545.424C233.658 548.606 231.135 552.387 229.418 556.547C227.701 560.707 226.822 565.166 226.833 569.667C226.833 587.208 239.833 601.583 256.792 603.708L261.083 603.958H572.75C586.917 577.292 570.25 539.417 539 535.708L533.958 535.417H427.583L574.583 280.833C579.125 272.954 580.35 263.594 577.991 254.811C575.631 246.028 569.879 238.542 562 234Z" fill="black"/>
</svg>
