<svg width="1000" height="1229" viewBox="0 0 1000 1229" fill="none" xmlns="http://www.w3.org/2000/svg">
<g clip-path="url(#clip0_5_88)">
<path d="M968.182 418.796C961.056 424.324 835.258 495.209 835.258 652.826C835.258 835.135 995.332 899.631 1000.12 901.228C999.386 905.16 974.693 989.558 915.725 1075.55C863.145 1151.23 808.231 1226.78 724.693 1226.78C641.155 1226.78 619.656 1178.26 523.219 1178.26C429.238 1178.26 395.823 1228.38 319.41 1228.38C242.998 1228.38 189.681 1158.35 128.378 1072.36C57.371 971.376 0 814.496 0 665.602C0 426.781 155.283 300.123 308.108 300.123C389.312 300.123 457.002 353.44 507.985 353.44C556.511 353.44 632.187 296.929 724.57 296.929C759.582 296.929 885.381 300.123 968.182 418.796ZM680.712 195.823C718.919 150.491 745.946 87.5921 745.946 24.6929C745.946 15.9705 745.209 7.12531 743.612 0C681.45 2.33415 607.494 41.4005 562.899 93.1204C527.887 132.924 495.209 195.823 495.209 259.582C495.209 269.165 496.806 278.747 497.543 281.818C501.474 282.555 507.862 283.415 514.251 283.415C570.025 283.415 640.172 246.069 680.712 195.823Z" fill="black"/>
</g>
<defs>
<clipPath id="clip0_5_88">
<rect width="1000" height="1228.5" fill="white"/>
</clipPath>
</defs>
</svg>
