<svg width="1000" height="1000" viewBox="0 0 1000 1000" fill="none" xmlns="http://www.w3.org/2000/svg">
<path d="M262.365 392.894H42.1028C35.0221 430.91 71.9173 445.817 71.9173 445.817H307.091L262.365 392.894ZM326.607 469.499H106.341C99.26 507.515 136.155 522.422 136.155 522.422H371.329L326.607 469.499ZM957.684 392.894H737.421L692.696 445.817H927.865C927.877 445.817 964.768 430.91 957.684 392.894ZM673.183 469.499L628.458 522.422H863.627C863.627 522.422 900.522 507.515 893.446 469.499H673.183ZM608.938 546.107L589.22 569.438C584.006 564.341 574.647 554.749 568.804 546.107H418.175C417.188 556.055 415.857 565.438 414.127 573.652L390.853 546.107H170.583C163.502 584.12 200.401 599.031 200.401 599.031H799.385C799.385 599.031 836.28 584.124 829.204 546.107H608.938ZM558.994 522.422L541.155 469.499H419.873C420.151 477.789 420.571 485.724 420.571 493.164C420.571 502.66 420.353 512.583 419.881 522.422H558.994ZM606.28 433.668C606.28 433.668 600.595 401.325 563.502 389.2H436.546C424.002 409.64 420.442 430.204 419.78 449.515H552.147C553.849 436.611 555.704 433.668 606.28 433.668ZM537.006 679.458H549.97L543.49 663.309L537.006 679.458ZM421.179 643.204C403.163 643.204 387.583 655.684 380.155 679.454H456.022C453.853 656.245 446.458 643.204 421.179 643.204Z" fill="black"/>
<path d="M237.083 620.624V639.543C237.083 661.587 254.954 679.454 276.994 679.454H358.22C368.929 648.519 394.591 637.192 417.804 637.192C423.002 637.192 427.732 637.958 432.03 639.374C460.494 644.966 461.994 637.748 462.046 636.555V636.39C462.046 636.39 462.054 636.458 462.046 636.555V649.41L462.05 679.454H528.905L549.139 629.059L569.365 679.454H722.804C744.853 679.454 762.716 661.583 762.716 639.547V620.628L237.083 620.624ZM375.51 713.313C375.51 732.22 377.941 746.434 382.151 756.918H448.425V731.333H437.006V726.208H481.276V731.333H468.857V756.918H497.825L521.429 698.083H376.345C375.779 703.14 375.5 708.225 375.51 713.313ZM514.232 736.232H572.744L557.441 698.087H529.534L514.232 736.232ZM505.925 756.922H581.05L574.804 741.361H512.171L505.925 756.922ZM669.655 698.087H576.833L600.437 756.922H669.583C686.308 749.128 697.909 732.18 697.909 712.511V698.087H669.655ZM353.978 698.087H301.873V712.511C301.873 732.18 313.47 749.128 330.2 756.922H363.631C357.167 745.535 353.071 731.091 353.071 713.317C353.075 707.902 353.389 702.833 353.978 698.087ZM440.591 775.011H394.788C402.24 781.091 411.345 783.422 421.179 783.422C429.034 783.422 435.462 780.374 440.591 775.011Z" fill="black"/>
<path d="M607.696 775.011L610.546 782.132H624.885V787.253H572.131V782.132H591.167L588.316 775.011H498.663L495.812 782.132H508.53V787.253H475.071V782.132H487.712L490.562 775.011H468.861V789.434C468.861 789.434 462.849 773.007 440.76 783.567C440.764 783.561 440.766 783.554 440.768 783.547C434.2 787.983 426.53 790.462 417.804 790.462C405.216 790.462 390.579 785.507 378.405 775.011H365.03C364.837 776.983 364.736 778.995 364.736 781.015C364.736 804.007 377.518 823.942 396.216 833.845H603.571C622.272 823.942 635.054 804.011 635.054 781.015C635.054 778.995 634.962 776.983 634.764 775.011H607.696Z" fill="black"/>
</svg>
