<svg width="1000" height="1000" viewBox="0 0 1000 1000" fill="none" xmlns="http://www.w3.org/2000/svg">
<path d="M65.1653 387.147H452.365M547.641 387.147H452.359C453.584 378.587 451.14 372.476 447.478 366.359C441.371 360.248 432.817 356.58 421.829 356.58H52.9478C46.8364 355.356 44.3981 359.029 46.8364 365.14L59.0488 384.704C60.2679 385.923 61.4975 387.147 65.1601 387.147H72.4906L73.7098 392.04L85.9221 410.374C87.1465 412.822 89.5848 414.047 93.2526 412.822H99.3588L109.133 432.381C109.133 433.605 112.795 434.83 120.126 437.268L280.137 481.282L291.13 500.84C292.354 504.508 296.017 508.176 300.904 509.4L452.365 548.522L500 508.176L547.641 548.522L699.101 509.4C703.983 508.176 707.651 504.508 708.87 500.84L719.863 481.282L879.879 437.268C887.205 434.824 890.872 433.6 890.872 432.381L900.641 412.822H906.753C910.41 414.042 912.854 412.822 914.078 410.374L926.295 392.04L927.509 387.147H934.835C938.503 387.147 939.727 385.923 940.946 384.704L953.164 365.14C955.607 359.029 953.164 355.356 947.052 356.58H578.166C565.954 356.58 557.404 360.248 552.522 366.359C548.865 372.476 546.411 378.587 547.641 387.147ZM116.463 436.049L322.89 416.485L116.463 436.049ZM190.972 456.837L314.335 428.713L190.972 456.837ZM242.27 471.508L321.666 438.497L242.27 471.508ZM280.137 482.512L332.664 449.501L280.137 482.512ZM292.354 504.513L348.539 461.724L292.354 504.513ZM325.334 515.517L364.419 472.727L325.334 515.517ZM355.864 522.853L382.738 483.731L355.864 522.853ZM386.4 531.418L403.5 492.291L386.4 531.418ZM419.38 539.968L426.71 499.632L419.38 539.968ZM452.359 546.089V506.957V546.089ZM499.995 508.181V437.273V508.181ZM883.547 436.049L675.891 416.485L883.547 436.049ZM810.247 456.837L684.44 428.713L810.247 456.837ZM757.73 471.508L677.115 437.273L757.73 471.508ZM719.863 482.512L667.346 449.501L719.863 482.512ZM707.651 504.513L651.466 461.724L707.651 504.513ZM674.672 515.517L634.362 471.508L674.672 515.517ZM644.13 522.853L616.043 483.731L644.13 522.853ZM613.589 531.418L596.495 492.291L613.589 531.418ZM580.62 539.968L573.284 499.632L580.62 539.968ZM547.641 548.528V506.952V548.528ZM906.747 412.822L675.886 401.819L906.747 412.822ZM341.214 454.388L353.426 438.497L341.214 454.388ZM355.864 466.616L375.407 437.273L355.864 466.616ZM372.969 478.844L393.731 438.497L372.969 478.844ZM392.512 487.404L413.279 438.497L392.512 487.404ZM415.717 498.402L436.479 439.717L415.717 498.402ZM443.81 505.738L457.246 438.497L443.81 505.738ZM470.683 510.635L476.789 438.497L470.683 510.635ZM658.791 454.388L646.574 438.497L658.791 454.388ZM644.13 466.616L625.812 438.497L644.13 466.616ZM627.036 478.844L606.264 438.497L627.036 478.844ZM607.493 487.404L585.507 438.497L607.493 487.404ZM584.278 498.402L563.516 439.717L584.278 498.402ZM556.19 505.738L542.754 438.497L556.19 505.738ZM529.317 510.635L523.206 438.497L529.317 510.635ZM934.835 387.147H547.635H934.835ZM93.2526 412.822L322.89 401.819L93.2526 412.822Z" stroke="black" stroke-width="10" stroke-miterlimit="2.613" stroke-linejoin="round"/>
<path d="M266.7 355.361C286.243 401.824 316.779 438.497 358.308 466.616C401.061 495.959 448.692 510.635 499.995 510.635C551.293 510.635 597.709 495.959 640.473 467.84C661.235 454.393 678.339 437.273 694.204 418.934C710.089 400.594 722.302 379.812 732.081 356.58" stroke="black" stroke-width="17.3017" stroke-miterlimit="2.613" stroke-linejoin="round"/>
<path fill-rule="evenodd" clip-rule="evenodd" d="M198.297 578.623L226.395 643.42H216.621L206.852 618.969H183.647L173.873 643.42H167.766L195.859 578.623H198.297ZM205.628 614.077L194.629 590.84L184.861 614.077H205.628ZM263.037 638.528C259.375 642.195 253.263 644.639 247.157 644.639L238.607 643.425L232.501 638.533L233.726 631.197H234.945C238.607 637.308 243.494 640.976 249.601 640.976C253.263 640.976 255.707 639.762 258.15 636.094C260.594 633.651 261.813 629.973 261.813 626.315C261.813 622.637 260.594 620.193 258.15 617.755L248.381 612.863C243.494 611.649 239.832 609.195 238.607 607.981C234.945 604.313 233.726 600.645 233.726 596.978C233.726 590.856 236.164 587.188 239.832 583.52C243.5 579.852 247.162 578.638 253.268 578.638C259.38 578.638 263.042 579.852 266.705 583.52L264.262 590.856C261.818 584.745 258.155 582.306 252.049 582.306C248.387 582.306 245.943 583.52 244.724 585.974C242.28 587.188 241.056 589.642 241.056 593.31C241.056 596.978 242.275 600.645 244.724 603.089L255.717 606.757C259.385 609.2 263.048 611.649 265.491 612.868C267.935 615.322 269.154 618.99 269.154 623.872C269.171 626.6 268.639 629.304 267.588 631.822C266.537 634.341 264.989 636.621 263.037 638.528ZM322.89 582.291L324.109 585.959L304.566 584.734V643.42H296.017V584.734L275.25 585.959L276.469 582.291L275.25 579.837H324.109L322.89 582.291ZM342.428 633.646C347.315 638.528 353.421 640.971 359.527 640.971C368.077 640.971 375.407 637.303 380.294 629.968C383.962 623.856 386.4 617.75 385.176 611.639C385.176 603.079 383.957 595.743 380.294 590.846C375.407 584.734 369.301 581.066 360.746 581.066C352.197 581.066 346.085 584.734 341.203 590.846C337.185 597.481 335.071 605.095 335.092 612.853C335.102 621.413 337.546 628.748 342.428 633.646ZM325.328 611.633C325.328 601.844 328.996 593.294 335.097 587.172C341.209 581.061 349.758 578.623 359.527 578.623C369.301 578.623 377.851 581.066 383.957 585.959C391.282 592.07 394.95 599.406 394.95 610.409C394.95 621.413 391.282 628.748 385.176 634.86C379.07 640.971 370.52 644.639 359.527 644.639C349.758 644.639 341.209 642.195 335.097 636.089C329.001 629.968 325.328 621.413 325.328 611.633ZM462.133 643.42H458.466L414.493 593.294H413.274V643.42H408.392V579.837H412.055L456.027 627.519V579.837H462.133V643.42ZM510.988 579.842C521.981 600.635 530.536 616.52 537.872 628.754L564.745 579.842H565.959L573.284 643.425H564.745L559.863 595.743C548.87 616.526 540.315 632.421 536.647 642.201H535.423L529.322 632.421L510.993 595.743L507.336 643.425H500L509.774 579.842H510.988ZM634.362 643.42H629.48L619.701 618.969H595.271L586.721 643.42H579.396L608.707 578.623H611.161L638.024 643.42H634.362ZM617.257 614.077L607.488 590.84L597.709 614.077H617.257ZM656.353 583.51V609.185L668.565 607.971C672.223 606.746 674.677 605.517 677.115 604.303L680.783 595.743C680.783 588.407 677.115 584.739 669.79 583.515H656.353V583.51ZM668.56 579.842C681.997 579.842 688.108 584.734 688.108 594.513C688.108 599.406 685.665 603.073 681.997 606.741C678.339 609.185 674.672 610.409 669.785 611.633L694.204 643.42H684.435L660.005 612.847H656.348V643.42H649.012V579.837H668.56V579.842ZM714.976 643.42V584.734L695.428 585.959V579.837H741.845V585.959L723.526 584.734V643.42H714.976ZM761.398 579.842V643.425H752.848V579.842H761.398ZM833.458 643.42H829.79L785.823 593.294H784.598V643.42H779.716V579.837H782.16L827.352 627.519V579.837H833.463V643.42H833.458Z" fill="black"/>
<path fill-rule="evenodd" clip-rule="evenodd" d="M346.972 396.6L361.073 429.118H356.165L351.263 416.848H339.616L334.713 429.118H331.652L345.748 396.6H346.972ZM350.651 414.384L345.136 402.732L340.233 414.384H350.651ZM379.459 426.659C377.622 428.495 374.556 429.725 371.49 429.725L367.2 429.113L364.134 426.653L364.751 422.975H365.363C367.2 426.046 369.654 427.883 372.715 427.883C374.551 427.883 375.781 427.271 377.005 425.429C378.229 424.2 378.842 422.363 378.842 420.521C378.842 418.68 378.229 417.455 377.005 416.226L372.103 413.772C369.649 413.16 367.812 411.93 367.2 411.318C365.363 409.481 364.751 407.64 364.751 405.798C364.751 402.732 365.97 400.895 367.812 399.049C369.649 397.212 371.49 396.595 374.556 396.595C377.622 396.595 379.459 397.207 381.301 399.049L380.076 402.732C378.852 399.666 377.01 398.436 373.949 398.436C372.108 398.436 370.883 399.049 370.271 400.278C369.047 400.895 368.435 402.12 368.435 403.956C368.435 405.793 369.047 407.64 370.271 408.864L375.786 410.701C377.622 411.925 379.464 413.155 380.689 413.767C381.913 414.996 382.525 416.833 382.525 419.287C382.525 422.368 381.301 424.817 379.459 426.659ZM409.492 398.436L410.104 400.278L400.299 399.666V429.113H396.008V399.666L385.591 400.278L386.203 398.436L385.591 397.212H410.104L409.492 398.436ZM419.297 424.205C421.751 426.659 424.812 427.883 427.878 427.883C432.168 427.883 435.846 426.046 438.295 422.363C440.132 419.297 441.361 416.226 440.749 413.16C440.749 408.864 440.137 405.181 438.295 402.732C435.841 399.666 432.78 397.824 428.49 397.824C424.2 397.824 421.133 399.666 418.68 402.732C416.843 405.798 415.619 409.482 415.619 413.772C415.619 418.062 416.848 421.751 419.297 424.205ZM410.716 413.165C410.716 408.257 412.553 403.962 415.619 400.896C418.68 397.824 422.97 396.6 427.878 396.6C432.785 396.6 437.071 397.824 440.137 400.278C443.81 403.344 445.652 407.028 445.652 412.548C445.652 418.067 443.815 421.751 440.749 424.817C437.683 427.883 433.398 429.725 427.878 429.725C422.975 429.725 418.68 428.495 415.619 425.434C412.558 422.368 410.716 418.067 410.716 413.165ZM479.357 429.113H477.521L455.457 403.956H454.844V429.113H452.391V397.212H454.227L476.291 421.139V397.212H479.352V429.113H479.357ZM503.875 397.212C509.385 407.645 513.686 415.614 517.364 421.751L530.852 397.212H531.459L535.138 429.113H530.852L528.399 405.186C522.879 415.614 518.588 423.593 516.747 428.495H516.14L513.068 423.593L503.881 405.186L502.044 429.113H498.366L503.274 397.212H503.875ZM565.777 429.113H563.334L558.431 416.843H546.172L541.877 429.113H538.199L552.911 396.595H554.136L567.624 429.113H565.777ZM557.202 414.384L552.299 402.732L547.397 414.384H557.202ZM576.812 399.049V411.93L582.944 411.318C584.786 410.706 586.005 410.094 587.229 409.481L589.071 405.186C589.071 401.508 587.229 399.666 583.562 399.049H576.812ZM582.939 397.212C589.678 397.212 592.749 399.666 592.749 404.574C592.749 407.028 591.525 408.869 589.678 410.711C587.842 411.935 586 412.548 583.556 413.165L595.805 429.118H590.902L578.654 413.777H576.812V429.118H573.134V397.217H582.939V397.212ZM606.233 429.113V399.666L596.422 400.278V397.212H619.706V400.278L610.518 399.666V429.113H606.233ZM629.521 397.212V429.113H625.231V397.212H629.521ZM665.681 429.113H663.839L641.78 403.956H641.163V429.113H638.709V397.212H639.933L662.61 421.139V397.212H665.681V429.113Z" fill="black"/>
</svg>
