<svg width="1000" height="1000" viewBox="0 0 1000 1000" fill="none" xmlns="http://www.w3.org/2000/svg">
<path d="M996 449.5V396.75H802C761.5 396.75 743.25 421.75 740.25 446V446.75V396.75H683.25V449.5H740H996ZM740 468.5L683 465.25V526C683 545 673.5 550.75 640.5 550.75H595C567.75 550.75 556.25 543 556.25 526V459.5L498.5 455.25V530.75H497.25C494 508.75 485.75 483.25 430.75 479.5L250 467.5C250 495.25 269.75 511.75 300.75 515L426.75 527.75C436.75 528.5 444 531.5 444 539.75C444 548.75 436.5 549.75 425 549.75H247.75V467.5L190 463.75V603.25H425.25C477.75 603.25 494.5 576 497 553.25H498.25C504.75 589.25 536.25 603.25 589.5 603.25H648.25C710.5 603.25 740 584.25 740 539.75V468.5ZM923.25 479.25L742.5 468.5C742.5 496.25 760.75 514.75 791.75 517.25L920.5 527.25C930.5 528 936.5 530.5 936.5 538.75C936.5 546.5 929.5 549.5 915 549.5H739.5V603.25H918.75C975.25 603.25 1000 583.5 1000 538.5C1000 498 977.75 482.75 923.25 479.25ZM498.5 396.75H556.25V449.5H498.5V396.75ZM158.25 461.25L95.5 455L0 603.25H70.25L158.25 461.25ZM488 396.75H311.75C270.75 396.75 252.75 422.25 248.5 446.75V396.75H150.75C137 396.75 130.5 401 124 410.5L97 449.5H488V396.75Z" fill="black"/>
</svg>
