<svg width="1000" height="1000" viewBox="0 0 1000 1000" fill="none" xmlns="http://www.w3.org/2000/svg">
<path fill-rule="evenodd" clip-rule="evenodd" d="M600.762 280.853C599.2 281.31 598.797 282.01 597.249 283.334C596.003 284.399 594.952 285.154 593.742 286.195C590.975 288.578 589.353 290.052 586.919 292.097C574.844 302.256 558.46 318.084 546.622 329.169C528.257 346.364 511.707 362.924 494.089 380.026C460.864 412.279 423.212 451.006 389.956 482.1C362.474 507.796 338.902 530.874 310.183 556.564C299.207 566.381 292.293 575.324 277.348 575.841C252.686 576.692 220.154 555.699 203.517 546.154C188.979 537.814 150.366 515.106 131.751 514.476L145.389 533.211C155.141 548.091 171.537 580.5 179.411 596.271C206.464 650.451 242.986 707.186 289.47 744.925C301.355 754.574 312.125 762.686 327.221 771.82C333.843 775.827 340.599 779.159 348.005 783.351C350.573 784.804 368.377 793.119 370.572 793.115C365.696 788.228 360.68 782.258 356.717 777.598C339.021 756.787 299.654 716.324 287.83 695.671C277.902 678.331 275.621 667.712 286.653 650.308C299.266 630.412 328.676 605.793 347.126 590.012C392.025 551.61 432.517 516.829 479.495 480.369C501.753 463.094 524.896 445.472 548.834 428.391C572.317 411.635 595.92 395.493 620.434 379.289L657.451 355.733C660.885 353.763 694.599 333.691 695.138 333.018L728.128 314.819C739.208 308.56 749.967 303.335 761.7 297.017C796.129 278.477 864.503 248.258 903.685 234.436C916.546 229.899 928.802 225.613 941.811 221.168L980.8 208.955C977.645 207.333 934.566 206.886 926.629 206.885C894.687 206.881 875.089 207.771 844.595 210.181C821.256 212.025 777.826 216.816 756.602 221.947C752.781 222.87 748.258 223.265 744.411 224.278C737.052 226.217 728.629 227.55 721.093 229.427C705.553 233.296 691.444 237.679 676.839 242.034C661.806 246.516 648.21 251.829 634.761 257.362C626.816 260.631 602.803 276.684 600.763 280.854L600.762 280.853ZM912.762 358.011L941.113 343.533C950.948 338.85 961.119 333.467 970.382 328.94C989.175 319.756 1000 290 999.727 270.923C996.408 271.063 982.906 277.463 979.241 278.804C976.721 279.726 974.395 280.52 972.034 281.524C955.291 288.638 932.939 297.05 917.068 304.54C912.459 306.715 908.005 308.514 903.341 310.515C899.68 312.085 891.607 315.253 890.102 317.121C885.065 316.865 782.484 367.699 769.697 374.311C751.492 383.724 728.599 395.007 711.101 404.742C709.029 405.895 655.685 434.128 653.56 436.846C650.047 437.433 613.482 459.145 607.647 462.439C535.294 503.265 455.163 554.624 385.86 601.627C366.6 614.69 342 631.828 322.642 646.413L307.104 658.012C305.318 659.374 303.211 660.276 302.181 662.32C309.091 668.267 354.863 687.126 365.782 691.062C427.069 713.15 484.432 728.54 548.914 739.607L589.836 745.866L622.07 748.709L595.817 746.393C600.827 746.963 605.801 747.778 610.675 748.244C617.884 748.933 625.036 749.52 632.462 750.264C646.447 751.668 662.686 752.623 677.062 752.877C694.935 753.191 704.782 754.104 719.436 747.915C730.795 743.118 740.04 737.152 749.069 730.232C782.701 704.459 812.621 664.15 836.491 627.669C861.472 589.491 883.972 546.835 903.367 504.575C913.245 483.051 922.512 460.594 931.239 437.716C935.662 426.121 939.498 414.922 943.492 402.618C945.704 395.807 953.753 370.939 954.365 365.383C945.191 366.636 784.786 453.181 769.523 461.375C748.823 472.488 729.002 484.064 708.918 494.972C689.401 505.573 668.755 518.101 649.335 528.894C609.877 550.824 570.142 575.252 530.739 598.066C523.983 601.978 473.809 631.309 472.007 633.371C475.38 632.83 634.454 564.515 638.306 562.924C645.808 559.822 801.995 492.799 804.557 492.687C803.659 496.299 793.992 514.347 791.551 519.651C787.485 528.49 782.582 538.55 778.138 547.341C752.952 597.165 725.617 656.991 670.627 679.076L667.323 681.059C664.376 681.126 656.325 684.399 652.775 685.374C647.43 686.841 642.264 687.86 636.876 688.963C611.531 694.154 573.214 691.448 546.802 687.316C516.683 682.603 495.593 677.316 466.398 670.259C459.428 668.574 409.056 654.424 406.146 652.501C407.787 649.641 436.595 631.181 439.116 629.429C494.858 590.685 587.447 533.751 647.662 499.492C654.035 495.865 659.958 492.571 665.785 489.231C670.629 486.455 679.496 481.827 683.409 478.983L711.582 463.53C721.109 458.245 729.857 453.667 739.891 447.94C758.861 437.115 778.082 428.041 796.753 417.523C799.498 415.977 906.121 359.949 912.759 358.012L912.762 358.011ZM187.947 650.466C186.84 648.113 167.587 627.684 163.762 623.414C139.481 596.303 115.943 571.05 91.539 542.567C74.5374 522.724 59.3925 504.441 44.9433 486.91C38.8969 479.574 5.71643 437.923 0.647341 429.43C1.84774e-06 431.063 8.3531 465.206 9.58662 469.692C11.4779 476.574 12.941 482.845 14.8703 489.868C33.7251 558.514 52.5671 584.492 117.494 617.667C125.491 621.753 183.631 649.875 187.947 650.466Z" fill="black"/>
</svg>
