<svg width="1000" height="1000" viewBox="0 0 1000 1000" fill="none" xmlns="http://www.w3.org/2000/svg">
<path d="M827 327C785.667 327 747.75 341.5 718 365.667C688.25 341.5 650.333 327 609 327C567.667 327 529.75 341.5 500 365.667C470.25 341.5 432.333 327 391 327C349.667 327 311.75 341.5 282 365.667C252.25 341.5 214.333 327 173 327C77.4583 327 0 404.458 0 500C0 595.542 77.4583 673 173 673C214.333 673 252.25 658.5 282 634.333C311.75 658.5 349.667 673 391 673C432.333 673 470.25 658.5 500 634.333C529.75 658.5 567.667 673 609 673C650.333 673 688.25 658.5 718 634.333C747.75 658.5 785.667 673 827 673C922.542 673 1000 595.542 1000 500C1000 404.458 922.542 327 827 327ZM718 577.75C702.333 555.833 693.083 529 693.083 500C693.083 471 702.333 444.167 718 422.25C733.667 444.167 742.917 471 742.917 500C742.917 529 733.667 555.833 718 577.75ZM500 577.75C484.333 555.833 475.083 529 475.083 500C475.083 471 484.333 444.167 500 422.25C515.667 444.167 524.917 471 524.917 500C524.917 529 515.667 555.833 500 577.75ZM282 577.75C266.333 555.833 257.083 529 257.083 500C257.083 471 266.333 444.167 282 422.25C297.667 444.167 306.917 471 306.917 500C306.917 529 297.667 555.833 282 577.75ZM39.0833 500C39.0833 426.042 99.0417 366.083 173 366.083C203.667 366.083 231.917 376.417 254.5 393.792C231.667 423.083 218 459.958 218 500C218 540.042 231.667 576.917 254.5 606.208C231.917 623.542 203.667 633.917 173 633.917C99.0417 633.917 39.0833 573.958 39.0833 500ZM309.5 606.208C332.333 576.917 346 540.042 346 500C346 459.958 332.333 423.083 309.5 393.792C332.083 376.458 360.333 366.083 391 366.083C421.667 366.083 449.917 376.417 472.5 393.792C449.625 423.125 436 459.958 436 500C436 540.042 449.667 576.917 472.5 606.208C449.917 623.542 421.667 633.917 391 633.917C360.333 633.917 332.083 623.583 309.5 606.208ZM527.5 606.208C550.375 576.875 564 540.042 564 500C564 459.958 550.333 423.083 527.5 393.75C550.083 376.417 578.333 366.042 609 366.042C639.667 366.042 667.917 376.375 690.5 393.75C667.625 423.083 654 459.917 654 499.958C654 540 667.667 576.875 690.5 606.167C667.917 623.5 639.667 633.875 609 633.875C578.333 633.917 550.083 623.583 527.5 606.208ZM827 633.917C796.333 633.917 768.083 623.583 745.5 606.208C768.333 576.875 782 540.042 782 500C782 459.958 768.333 423.083 745.5 393.792C768.083 376.458 796.333 366.083 827 366.083C900.958 366.083 960.917 426.042 960.917 500C960.917 573.958 900.958 633.917 827 633.917Z" fill="black"/>
</svg>
