<svg width="1000" height="1000" viewBox="0 0 1000 1000" fill="none" xmlns="http://www.w3.org/2000/svg">
<g clip-path="url(#clip0_15_36)">
<path d="M287.417 18.208C287.417 18.208 327.917 22.2497 344.167 62.708C344.167 62.708 388.708 167.958 429.167 269.166C488.333 407.916 563.333 586.458 623.75 730.75H48.625C16.2083 730.75 0.041626 710.5 0.041626 710.5C32.4166 767.166 125.542 945.333 125.542 945.333C141.708 965.583 157.917 977.666 182.208 977.666C234.875 977.666 315.875 925.083 315.875 925.083L624.583 732.625C683.417 873.125 728.75 981.791 728.75 981.791H1000C1004.04 977.75 611.375 46.5413 607.333 42.458C603.292 38.4163 595.167 18.208 566.833 18.208H287.417ZM275.333 54.6663C251.042 54.6663 242.917 74.8747 238.875 78.9163L16.25 605.25C4.12496 641.666 12.2083 686.208 77 686.208H251.042L404.917 317.833C375.678 244.759 345.983 171.869 315.833 99.1663C311.792 87.0413 299.625 54.6663 275.333 54.6663Z" fill="black"/>
</g>
<defs>
<clipPath id="clip0_15_36">
<rect width="1000" height="1000" fill="white"/>
</clipPath>
</defs>
</svg>
