<svg width="1000" height="1000" viewBox="0 0 1000 1000" fill="none" xmlns="http://www.w3.org/2000/svg">
<path d="M615 466.25C609.198 466.226 603.455 467.415 598.139 469.739C592.822 472.064 588.05 475.473 584.128 479.748C580.205 484.024 577.219 489.071 575.36 494.568C573.502 500.064 572.811 505.888 573.333 511.667H659.167C659.721 505.671 658.969 499.627 656.964 493.95C654.958 488.273 651.746 483.098 647.548 478.782C643.35 474.465 638.267 471.11 632.648 468.946C627.03 466.783 621.009 465.863 615 466.25Z" fill="black"/>
<path d="M395.417 512.5H344.167V593.333H385.833C427.5 593.333 445.833 579.583 445.833 551.667C445.833 523.75 426.667 512.5 395.417 512.5Z" fill="black"/>
<path d="M431.667 438.333C431.667 416.25 417.083 402.917 392.083 402.917H344.167V475.417H379.583C416.667 475.417 431.667 462.083 431.667 438.333Z" fill="black"/>
<path d="M500 83.3333C417.591 83.3333 337.033 107.77 268.513 153.554C199.992 199.338 146.587 264.413 115.05 340.548C83.5138 416.684 75.2624 500.462 91.3396 581.288C107.417 662.113 147.1 736.356 205.372 794.628C263.644 852.9 337.887 892.583 418.712 908.66C499.538 924.738 583.316 916.486 659.452 884.95C735.587 853.413 800.662 800.008 846.446 731.487C892.23 662.967 916.667 582.409 916.667 500C916.667 445.282 905.889 391.101 884.95 340.548C864.01 289.996 833.319 244.063 794.628 205.372C755.937 166.681 710.004 135.99 659.452 115.05C608.899 94.1107 554.718 83.3333 500 83.3333ZM404.167 633.333H291.667V362.5H404.167C452.917 362.5 485 387.917 485 429.167C485.575 443.025 481.193 456.634 472.641 467.554C464.089 478.473 451.926 485.988 438.333 488.75C446.947 488.95 455.43 490.905 463.262 494.496C471.094 498.087 478.111 503.238 483.884 509.635C489.657 516.032 494.063 523.539 496.834 531.697C499.605 539.856 500.683 548.494 500 557.083C500 605.417 458.333 633.333 404.167 633.333ZM552.083 383.333H677.083V404.167H552.083V383.333ZM708.333 543.75H570.833V549.583C570.117 555.915 570.766 562.326 572.736 568.386C574.707 574.445 577.954 580.012 582.258 584.711C586.562 589.409 591.823 593.131 597.686 595.625C603.55 598.118 609.88 599.326 616.25 599.167C625.194 600.556 634.338 598.664 641.996 593.84C649.654 589.015 655.309 581.584 657.917 572.917H708.333C703.844 592.918 692.14 610.562 675.46 622.477C658.779 634.391 638.293 639.74 617.917 637.5C604.894 638.815 591.741 637.26 579.384 632.946C567.027 628.631 555.765 621.661 546.391 612.525C537.018 603.39 529.76 592.311 525.128 580.069C520.497 567.827 518.604 554.719 519.583 541.667V523.333C518.699 510.686 520.559 497.997 525.038 486.137C529.517 474.276 536.508 463.525 545.532 454.62C554.556 445.715 565.399 438.866 577.318 434.545C589.237 430.223 601.949 428.531 614.583 429.583C627.176 428.776 639.795 430.676 651.592 435.155C663.388 439.635 674.088 446.59 682.971 455.552C691.854 464.513 698.714 475.275 703.089 487.11C707.464 498.946 709.252 511.582 708.333 524.167V543.75Z" fill="black"/>
</svg>
