<svg width="1000" height="1000" viewBox="0 0 1000 1000" fill="none" xmlns="http://www.w3.org/2000/svg">
<path d="M480.625 338.083C459.364 339.842 438.461 344.612 418.542 352.25C413.083 354.333 407.333 357.875 401.292 355.542C374.042 349.167 345.833 351.542 318.292 354.5C282.5 358.25 246.625 354.375 210.833 352.625C178.195 351.538 145.521 352.234 112.958 354.708C83.25 356.542 53.4167 354.292 23.875 351.125C20.2083 351.042 16.4583 350.292 12.8333 351.042C7.20833 354.708 3.66667 360.708 0 366.167V369C7.70833 375.583 16.8333 379.917 26.0417 383.917C23.4583 390.208 21.8333 396.833 20.625 403.5C31.625 408.667 43.125 412.958 53.7917 418.833C52.5833 422.792 50.7917 426.583 50.3333 430.708C50.0833 433.167 51.3333 435.75 53.7917 436.625C62.5417 441.208 72.4583 442.542 81.5 446.208C82.375 446.625 83.5833 447.042 83.5833 448.208C84.2917 453.542 84.4167 458.958 85.5417 464.25C86.2309 464.886 87.0377 465.381 87.9167 465.708C99.875 469.667 112.417 471.167 124.625 473.875C126.042 478.458 125.542 484.25 129.042 487.875C144.667 496.042 163.208 492.042 179.583 497.375C183.667 501.375 182.708 509.458 188.875 511.708C201.208 515.458 214.458 512.125 227.125 513.792C230 517.083 230.333 521.833 233.125 525.167C234.977 527.089 237.499 528.223 240.167 528.333C252.125 528.667 263.583 524.708 275.417 523.333C277.875 527.458 279.042 533.625 284.292 534.875C293.833 536.75 303.125 533.125 312 530.042C315.333 540.875 318.917 551.75 324.625 561.625C344.333 597.375 378.292 624.083 416.208 638.333C421.542 639.833 423.375 645.625 426.125 649.833C431.417 647.833 436.625 645.583 442.125 644.25L450.458 656.625C455.417 654.125 460.333 651.542 465.292 648.958C468.625 652.875 471.958 656.75 475.375 660.625L488.292 651.458C492.042 654.708 495.5 658.292 498.875 661.917H500.333C504.333 658.375 508.125 654.542 512.083 650.958C516.5 654.167 520.833 657.458 525.25 660.75C528.625 656.792 532.042 652.833 535.5 648.917C540.5 651.417 545.417 654.042 550.375 656.583C553 652.5 555.542 648.417 558.083 644.292C563.917 645.583 569.333 648 574.917 649.958C576.292 647.125 577.625 644.208 579.167 641.458C581.375 635.542 588.333 634.625 593.167 631.792C633.667 613.167 667.333 578.208 680.625 535.208C687.375 537.708 695 540.792 702.167 537.875C705.917 535.958 707.375 531.875 709.167 528.375C719.167 530.583 729.167 534.792 739.583 532.625C745 531 747.667 525.917 750.125 521.333C759.708 522.583 769.125 525.292 778.875 524.458C783.208 523.917 789.167 524.458 792.125 520.458C794.583 516.458 794.917 511.5 797.292 507.458C810.417 505.708 824.292 509.208 837.042 504.458C841.042 499.958 841.083 493.208 844.708 488.5C855 487.75 865.333 488.5 875.625 487.75C877.407 487.622 879.137 487.095 880.688 486.208C882.238 485.32 883.57 484.096 884.583 482.625C886.917 478.167 887.25 473.042 888.75 468.292C889.042 467.292 889.583 466.208 890.583 465.75C900.625 461.583 912.833 464.833 922.042 458.375C926.542 453.375 922.917 445.458 925.708 439.917C934.333 435 945.583 436.25 953.583 429.875C958.958 425.292 954.917 418.125 954.167 412.375C963.542 409.167 973.833 407.417 981.542 400.75C979.375 394.917 976.833 389.292 974.458 383.583C983.309 379.575 991.847 374.909 1000 369.625V366C997.137 360.613 993.293 355.809 988.667 351.833C985.708 349.625 981.583 351.417 978.25 351.083C949.25 353.667 920.083 356.5 890.958 354.917C873.583 354 856.25 352.333 838.875 352.333C817.125 352.333 795.375 351.708 773.708 353.458C741.625 355.375 709.375 357.75 677.333 354.167C649.958 350.958 621.708 349.375 594.792 356.375C590.5 358.167 586 356.75 582.083 354.833C560.583 345.083 537.208 340.333 513.833 338.083H480.625ZM502.333 344.542C515.958 345.125 529.583 346.583 542.917 349.625C555.833 352.625 568.833 355.833 580.833 361.583C576.542 364.292 571.375 368.417 566.083 366.167C543.121 358.062 518.934 353.975 494.583 354.083C481 354.917 467.417 356 454.167 359.292C445.667 360.958 437.5 364.125 428.917 365.5C424.917 364.417 421.25 362.458 417.583 360.542C444.608 350.038 473.339 344.613 502.333 344.542ZM980.125 356.125C987.208 355.708 992.958 361.375 996.583 366.958C982.496 374.147 966.854 377.753 951.042 377.458C882.292 378.583 813.625 381.417 744.917 383.167C744.917 384.292 745 385.417 745.083 386.542C744.354 384.423 743.687 382.283 743.083 380.125C758.125 378.042 773.083 375.125 788.292 374.208C816.125 372.125 844.125 371.375 872.042 371.083C875.683 371.244 879.275 370.189 882.25 368.083C860.042 365.708 837.667 367 815.417 367.542C799.958 368.667 784.417 368.917 769 370.875C748.375 373.375 727.792 377.292 706.958 377.542C693.958 377.75 680.917 378.875 667.917 377.958C651.667 377.667 635.167 376.208 619.167 379.833C614.667 381.292 609.208 382.875 607.417 387.833C603.542 395.667 607.833 404.417 611.375 411.542C615.667 420.583 623 429.25 621.667 439.958C621.042 443.75 617.833 446.25 614.917 448.417C611.937 445.118 609.181 441.624 606.667 437.958C608.333 434.625 611.083 431.5 610.333 427.458C608.958 419.125 602.917 412.542 597.25 406.708C589.083 398.792 580 391.417 574.458 381.292C572.833 378.375 571.708 374.208 574.833 371.833C584 365.333 595.292 363.125 606.167 361.333C635.958 357.167 666 360.708 695.875 361.958C710.583 363.417 725.417 363.208 740.167 361.958C775.083 359.708 810.167 356.208 845.167 358.542C860.917 359.417 876.708 360.125 892.458 360.5C921.292 361.667 949.958 357.917 978.708 356.292C979.177 356.21 979.65 356.154 980.125 356.125ZM22.9167 356.25C31.0833 356.167 39.25 357.375 47.375 357.917C69.9583 359.917 92.625 361.208 115.292 360.25C143.375 359.917 171.333 356.583 199.417 358.083C228.042 359 256.5 362.167 285.167 363.042C307.042 362.292 328.875 360.542 350.75 359.542C372.958 358.833 396.042 359.083 417 367.333C421.042 369 426.042 371.208 427 375.958C426.167 382.542 421.167 387.625 417.083 392.583C409.792 401.583 399.208 407.583 393.333 417.792C388.75 423.625 388.083 432.375 393.125 438.125C390.396 441.769 387.341 445.158 384 448.25C380.542 445.083 377.333 441.167 377.75 436.083C379.333 421.667 392.208 411.375 393.708 396.917C395 391.875 392.417 386.958 389.208 383.292C383.146 380.211 376.5 378.45 369.708 378.125C346.292 376.125 322.792 379.25 299.333 377.833C276.125 378 253.208 373.958 230.292 370.875C200.986 368.245 171.588 366.772 142.167 366.458C134.042 366.333 125.917 367.083 117.792 367.792C120.417 369.958 123.625 371.417 127.167 371.042C157.708 371.458 188.25 371.958 218.708 374.583C231.5 375.792 244.125 378.083 256.875 380.042L255.917 383.542C233.583 382.167 211.167 382.375 188.792 381.458C148.583 380 108.375 378.75 68.1667 378.083C51.0417 376.958 33.125 378.792 16.75 372.5C12.1667 370.958 7.875 368.833 3.54167 366.833C6.70833 362.958 9.91667 358.542 14.7917 356.833C17.5 356.417 20.2083 356.25 22.9167 356.25ZM500.208 361C522.969 360.871 545.548 365.056 566.75 373.333C566.917 377.667 565.542 382.417 567.75 386.375C569.607 389.795 571.844 392.996 574.417 395.917C581.917 404.75 591.5 411.875 598.917 420.792C601.909 424.039 604.143 427.91 605.458 432.125C590.11 418.256 572.168 407.565 552.667 400.667C531.164 393.153 508.307 390.307 485.618 392.319C462.929 394.33 440.929 401.153 421.083 412.333C413.833 416.417 407.25 421.5 400.833 426.833L394.5 432.167C395.003 430.005 395.847 427.938 397 426.042C406.292 412.917 420.167 403.833 429.542 390.792C434.125 385.25 433.708 377.875 433 371.208C454.779 364.518 477.425 361.078 500.208 361ZM740.292 379.958C740.958 381.792 741.542 383.625 742.125 385.458C729.083 392.958 713.458 391.083 699.125 389.208C695.875 388.917 693.958 386.125 692.667 383.417C708.5 381.708 724.458 381.833 740.292 379.958ZM259.042 380.625C275.125 380.875 291.167 381.667 307.125 383.292C305.875 385.417 304.875 388.458 302.042 388.792C293.583 390.25 284.958 390.5 276.458 390.833C269.875 391.25 263.833 388.25 258.125 385.458L259.083 380.625H259.042ZM309.333 382.917C315.75 383.042 322.208 383.125 328.625 383.5C345.708 384.208 363.25 382.833 379.875 387.875C384 389.292 388.542 391.208 390.667 395.292C392.292 402.458 388.167 408.833 384.667 414.625C381.208 420.917 376.458 426.833 374.875 433.958C372.875 440.625 376.958 446.208 380.042 451.583C375.375 451.75 369.625 453.708 365.958 449.917C364.25 446.5 366.25 442.458 366.958 438.958L360.292 444.917L352.167 444.417C351.542 435.958 358.042 429.833 361.375 422.708C355.625 427.833 349.792 435.083 341.25 434.417C337.875 434.542 335.292 430.083 337.375 427.375C342 421.5 348 416.792 352.333 410.625C347.167 414.625 341.917 418.75 335.792 421.083C331.222 422.228 326.392 421.665 322.208 419.5C322.958 411 331.958 408 336.792 402.125C331.5 404.333 326.792 408.542 320.667 408.167C318.25 408.25 315.875 407.5 313.583 406.958C313.167 399.75 320.708 397.208 324.958 392.917C321.208 393.75 317.583 395.5 313.708 395.417C311.125 394.5 309.125 392.417 306.875 390.917C307.5 388.167 308.333 385.5 309.375 382.917H309.333ZM690.833 382.917C691.583 386.167 694.458 390.333 690.625 392.792C686.458 398 679.458 393.708 674.375 392.708C679.042 396.708 686.25 399.667 686.208 407C682.208 407.708 677.875 409.083 673.917 407.417C670.25 405.917 666.708 404.042 663.125 402.333C664.25 403.458 665.417 404.542 666.625 405.583L670.25 408.75C672.625 410.875 674.958 413.083 676.917 415.583C677.583 418.417 675.542 421.417 672.5 421.375C662.792 423.833 655.208 416.083 648.167 410.792C651.875 415.833 656.292 420.208 660.542 424.75C662.667 427 662.458 430.375 663.208 433.208C659.708 433.667 655.958 435.042 652.542 433.542C647.208 431.375 643.167 427.083 638.792 423.417C642.583 430.083 648.375 436.125 647.792 444.333L639.125 444.667C637.205 442.851 635.302 441.018 633.417 439.167C633.75 442.583 635.917 446.5 633.708 449.583C631.125 452.5 627.125 452.292 623.458 452.208C622.208 452.208 621 452.208 619.875 452.333C621.833 447.375 625.708 443.083 625.583 437.5C624.083 422.917 610.667 413.042 608.667 398.667C608.25 392.458 615.083 389.583 620.042 387.792C643.125 381.75 667.25 384.75 690.875 382.917H690.833ZM29.0833 383C61.1667 383 93.25 384.667 125.333 384.958C165.458 385.833 205.583 386.125 245.667 387.167C254 386.583 260.875 392 267.75 395.792L267 403.708C265.769 404.317 264.533 404.914 263.292 405.5L264.375 402.458C226.917 403.458 189.542 406 152.083 407.125C128.5 407.625 105 409.625 81.375 409.208C66.4551 409.746 51.536 408.118 37.0833 404.375C32.2917 402.958 26.7917 402.208 23 398.667C22.9583 393.042 26.0417 387.667 29.0417 383H29.0833ZM971.583 383.917C974.25 388.542 977.083 393.167 979.042 398.167C961.125 404 941.958 403.708 923.375 403C888.875 402.917 854.375 400.708 819.875 399.542C790.75 398.208 761.625 397.042 732.5 395.375C738.458 391.125 745.208 386.958 752.75 387.208C825.708 386.917 898.625 383.958 971.583 383.875V383.917ZM301.875 392.833C305.083 393.042 307.542 395.917 309.958 397.833C310.665 398.415 311.223 399.157 311.586 399.998C311.948 400.838 312.104 401.753 312.042 402.667C308.792 405.167 304.5 405.5 300.667 406.5C292.917 407.917 285.25 410.25 277.333 410.542C274.542 409.458 271.5 408.25 269.625 405.708C268.958 402.208 270.042 397.375 273.958 396.458C282.708 394.708 291.667 394.208 300.458 392.917C300.925 392.831 301.401 392.803 301.875 392.833ZM696.25 393.167C706.042 393.167 715.833 394.417 725.417 396.208C729.958 397.083 729.833 402.458 731 405.958C727.25 408.042 723.625 411.375 718.917 410.417C712.125 409.375 705.458 407.667 698.708 406.417C695.083 405.5 690.917 405.208 687.958 402.667C688.167 398.167 692.792 395.292 696.292 393.167H696.25ZM496.875 398.917C534.708 398.083 573.625 411 600.833 437.875C615.75 453.083 626.667 473.542 626.333 495.25C626.75 514.833 618.042 533.833 605.208 548.333C581.625 575.083 546.25 589.292 511.208 591.917C479.557 594.595 447.878 587.091 420.792 570.5C406.417 561.333 393.292 549.667 384.667 534.75C374.288 517.724 370.899 497.343 375.208 477.875C379.333 460.583 390.042 445.625 403.042 433.833C426.583 412.583 457.958 401.542 489.292 399.25C491.792 399.083 494.333 399 496.875 398.917ZM731.875 399.875C740.958 399.667 750 400.917 759.083 401.333C819.083 405 879.167 407.167 939.167 410.667C943.042 411.25 947.417 410.5 950.958 412.458C953.333 415.917 953.958 420.167 954.583 424.25C942 431.958 926.333 430.083 912.292 430.458C894.583 429.292 876.875 427.125 859.208 425.417C853.313 424.836 847.409 424.336 841.5 423.917C805.167 420.292 768.708 418.125 732.542 413.167C732.805 408.711 732.581 404.24 731.875 399.833V399.875ZM500.5 400.292C495.667 400.292 490.917 400.5 486.125 400.958C452.583 404.167 418.333 417.208 396.083 443.458C383.25 457.958 374.5 477.167 375.917 496.875C376.667 524.958 394.583 549.917 416.958 565.625C453.792 591.375 502.667 596.875 545.25 583.958C564.417 577.75 582.875 568.125 597.125 553.667C614.958 536.417 626.875 511.292 623.583 486.083C620.875 465.458 609 446.875 593.458 433.375C568.042 411.042 534.083 400.25 500.5 400.292ZM254.042 407.583C256.5 407.583 258.958 407.583 261.458 407.667C267.625 409.417 271.833 414.625 276.417 418.75C275.292 421.958 274.333 425.208 273.417 428.5C276.417 430.875 279.625 433 283 434.75C261.458 438.25 240.083 442.792 218.667 446.917L199.333 451.167L179.958 455.25C167.042 457.875 154.083 460.375 141.042 462.5C124.167 465.5 106.542 464.583 90.125 459.625C85.4167 458.292 84.25 452.875 86.1667 448.708C86.875 444.542 92.0417 444.958 95.125 444.333C148.292 438.917 201.292 432.042 254.292 425.708C261.708 424.917 270.125 424.75 275.542 418.917C246.333 421.583 217.125 424.833 187.958 428.083L144.167 432.792C129.583 434.292 114.958 435.708 100.333 436.958C83.9167 438.625 66.9167 437.042 51.5833 430.583C53.0814 425.823 55.0933 421.241 57.5833 416.917C115.625 414.292 173.792 413.083 231.75 408.792C239.167 408.458 246.583 407.75 254.042 407.583ZM306.375 410.25C308.077 410.175 309.781 410.287 311.458 410.583C314.958 411.625 318.208 413.375 321.458 414.958C321.083 420.458 315.708 421.875 311.542 423.792C306.333 425.917 301.25 428.375 295.917 430.167C289.167 432.333 282.375 429 276.167 426.542C277 423.708 277.333 420.542 279.083 418.083C282.883 415.703 287.072 414.01 291.458 413.083C296.333 411.833 301.333 410.417 306.375 410.25ZM691.708 410.25C699.083 410.083 706.292 412.5 713.25 414.667C715.917 415.75 719.25 416.167 721.25 418.5C722.583 421 722.917 423.917 723.917 426.5C717.833 428.708 711.333 432.542 704.667 430.375C695.706 427.053 686.917 423.285 678.333 419.083C679.083 413.958 684.042 411.583 688.542 410.5C689.592 410.361 690.649 410.277 691.708 410.25ZM728.667 417.417C738.625 417.25 748.417 419.125 758.292 420.167C789.875 423.708 821.5 427.167 853.125 430.417C875.75 433.25 898.542 434.917 921.125 438.333C921.667 442.792 926.375 451.333 919.75 452.917C904.314 455.379 888.614 455.73 873.083 453.958C823.833 446.292 774.75 437.542 725.417 430.375C725.234 426.101 724.901 421.834 724.417 417.583C725.833 417.5 727.25 417.417 728.667 417.417ZM504.625 422.042C515.167 422.083 525.625 423.375 535.792 426.333C547.542 429.833 559.458 435.75 566.208 446.417C570.833 453.083 571.375 461.75 569.833 469.5C567.5 478.917 558.875 484.708 551.417 490L551.583 491.75C562.625 499.292 574.667 509.833 574.292 524.458C575.333 535.042 569.708 544.958 562.083 551.833C556.708 555.917 550.833 559.458 544.5 561.875C526.583 568.083 507.333 568.875 488.583 567.625C465.583 564.75 441.5 558.292 424.542 541.5C427.458 537.583 431.208 534.417 433.875 530.333C434.74 507.912 434.824 485.468 434.125 463.042C431.375 458.917 427.583 455.667 424.5 451.792C435.917 436.167 455 429.083 473.25 425.125C483.542 423.167 494.083 422 504.625 422.042ZM678.083 424.667C679.292 424.667 680.5 424.708 681.667 425C688.708 427.708 695.5 431 702.25 434.375C703.75 435.375 706 435.875 706.667 437.792C706.833 441.125 705.25 444.792 701.958 446C697.167 448 691.417 449.25 686.542 447C678.583 443.5 671.333 438.583 663.875 434.208C664.583 432.458 664.917 430.25 666.125 428.792C666.557 428.297 667.099 427.912 667.708 427.667C670.91 425.93 674.449 424.907 678.083 424.667ZM321.292 424.667C325.344 424.724 329.309 425.844 332.792 427.917C335.5 429.208 336.083 433.75 333.5 435.417C326.75 440 319.667 444.167 312.083 447.125C306.125 449.083 300.125 446.833 294.583 444.917L292.917 436.833C299.917 433.167 307.083 429.625 314.333 426.417C316.477 425.279 318.865 424.678 321.292 424.667ZM503.375 431.833C499.45 431.823 495.527 432.032 491.625 432.458C485.98 433.083 480.697 435.542 476.583 439.458C469.792 446.5 469.25 457.042 470.542 466.167C470.873 470.66 472.491 474.964 475.202 478.562C477.914 482.16 481.605 484.902 485.833 486.458C495.542 489.75 506.25 489.583 516.042 486.875C526.625 483.333 531.958 471.792 531.708 461.292C532.25 452.417 530.042 442.042 522.083 436.875C516.472 433.41 509.967 431.671 503.375 431.875V431.833ZM723.667 435.375C734.917 435.625 746.167 437.542 757.25 439.5C791.958 445.75 826.667 452.042 861.333 458.583C870.083 460.375 878.958 461.875 887.583 464.333C886.417 469.542 885.792 477.667 879.167 478.667C857.792 481.375 836.333 476.583 815.833 470.875C781.917 461.708 747.625 453.625 713.75 444.208C711.713 443.754 709.613 443.656 707.542 443.917C708.083 441.75 708.25 439.458 709.292 437.5C711.958 435.5 715.667 435.625 718.833 435.417H723.667V435.375ZM290.875 437.667C292.042 442.417 293.042 447.208 294.917 451.708C268.5 459.833 242.125 467.958 215.583 475.542C201.5 479.583 187.667 484.833 173.083 486.792C159.917 487.958 146.417 487.333 133.583 484.042C128.333 482.625 126.917 476.958 126.792 472.208C163.875 464.167 200.833 455.583 238.042 448.167C255.625 444.625 273 439.708 290.875 437.667ZM661.583 439.792C664.279 439.74 666.901 440.674 668.958 442.417C675.208 446.542 681.333 450.75 687.625 454.75C687.362 455.323 687.166 455.924 687.042 456.542L686.625 458.5C686.25 459.833 685.75 461.042 684.542 461.708C679.125 462.292 673.333 463.5 668.042 461.458C662.039 457.611 656.502 453.081 651.542 447.958C649.625 446.333 649.833 443.125 651.458 441.375C652.018 440.792 652.747 440.398 653.542 440.25C656.083 440.125 658.875 439.708 661.583 439.833V439.792ZM340.208 439.792C342.333 439.792 344.458 439.958 346.542 440.208C349.417 440.917 351.375 445.292 348.5 447.25C342 453.75 335.25 462 325.292 462.458C321.958 462.417 318.625 462.542 315.375 461.833C313 460.25 313.208 456.833 312.417 454.5C319.625 449.917 326.5 444.875 333.917 440.625C335.959 440.097 338.057 439.817 340.167 439.792H340.208ZM709.25 448.292C716 449 722.417 451.208 728.958 452.792C760.875 462.167 792.833 471.417 824.708 480.875C830.667 482.667 836.75 484.167 842.458 486.625C840.875 490.583 839.375 495.083 835.667 497.542C820.399 500.703 804.559 499.666 789.833 494.542C778.583 490.25 767.875 484.833 756.833 480.125C736.833 471.583 716.917 462.667 696.625 454.708C700.917 452.75 704.75 449.667 709.25 448.292ZM644.125 449.958C648.5 449.958 652.042 453.458 655.208 456.125C658.208 459.125 662.167 461.583 664.042 465.5C664.667 469.042 661.75 472.125 660.75 475.292C656.417 474.458 651 476.125 647.5 472.542C642.154 467.798 637.622 462.21 634.083 456C633.417 452.417 637.542 450.25 640.875 450.125L642.208 450.167C642.837 450.024 643.48 449.954 644.125 449.958ZM357 450.125C360.461 450.297 363.794 451.485 366.583 453.542C363.112 460.706 358.303 467.14 352.417 472.5C349.333 476.25 344.083 475.625 339.917 474.375C337.292 472.417 336.333 468.958 334.75 466.208C339.875 460.917 344.75 455.292 350.958 451.25C352.857 450.41 354.926 450.024 357 450.125ZM301.75 455.125C303.25 455.057 304.753 455.085 306.25 455.208C310.5 455.833 311.042 460.833 312.625 464.042C305.208 466.542 298.417 470.417 291.458 473.875C273.375 482.542 255.75 492 237.708 500.75C225.417 507.25 210.917 506.167 197.458 506.292C193.708 505.917 189.5 506.292 186.208 504.125C184.042 501.333 183.125 497.792 182.042 494.458C192.25 489.292 203.542 486.958 214.125 482.667C233.125 475.5 252.625 469.75 271.792 463.083C281.708 460.292 291.417 455.625 301.792 455.167L301.75 455.125ZM622.25 455.583C626.125 456.5 630.875 456.208 633.792 459.375C637.875 464.917 642 470.708 644.333 477.208C643.583 482.208 637.917 485.542 633 485.333C631.333 474.792 626.833 465.125 622.25 455.583ZM376.917 455.708C372.301 465.213 368.912 475.265 366.833 485.625C362.875 484.708 357.917 483.708 356.167 479.5C354.917 477.417 356.125 475.125 357.083 473.25C359.727 468.148 362.868 463.319 366.458 458.833C369.417 456.583 373.417 456.583 376.917 455.708ZM690.042 456.875C697.625 458.25 704.292 462.458 711.208 465.708C738.75 478.583 766.208 491.667 793.583 504.958C793.042 507.875 793.125 511.375 791.125 513.875C784.333 516.5 776.792 515.417 769.75 514.708C761.167 513.75 752.25 512.75 744.708 508.042C723.583 494.917 703.875 479.417 681.833 467.792C686.625 466.042 688.25 461.167 690.042 456.875ZM322.042 467.458C325.792 467.458 329.542 468.042 333.167 469.208C325.083 478.875 314.167 485.542 304.208 493C292.542 500.917 281.792 510.375 268.792 516.042C258.595 519.494 247.832 520.964 237.083 520.375C232.417 519.792 230.375 515.458 230.167 511.208C254.625 497.875 279.625 485.583 304.083 472.333C309.5 469.105 315.695 467.42 322 467.458H322.042ZM673.125 468.208C678.037 468.708 682.691 470.651 686.5 473.792C705.208 487.75 723.833 501.875 742.583 515.75C745.083 517.042 746.375 519.542 747.417 522.083C742.167 524.333 736.458 527.083 730.625 525.333C728.917 524.917 727.125 524.583 725.375 524.208C720.001 523.466 714.837 521.622 710.208 518.792C692.417 507.542 678 491.708 659.958 480.792C663.792 477.375 664.958 472.042 668.542 468.583C670.045 468.247 671.587 468.12 673.125 468.208ZM333.292 475.542C338.042 482.958 347.208 480.417 354.458 482.417C338.625 493.792 326.708 509.583 311.042 521.167C301.542 528.208 286.75 530.917 277.125 522.708C281.833 515.417 289.208 510.625 295.75 505.083C308.25 495.25 320.458 484.958 333.292 475.542ZM648.042 480.75C652.625 481.708 657.75 482.083 661.333 485.583C673.167 495.583 684.292 506.333 696.167 516.333C700.208 520.083 705.625 523.292 706.083 529.458C702.125 530.917 697.667 532.583 693.5 530.833C692.497 530.569 691.509 530.249 690.542 529.875C683.792 527.25 678.25 522.25 672.875 517.5C662.695 507.517 652 498.074 640.833 489.208C643.167 486.333 645.583 483.5 648.042 480.75ZM353.542 488.083C357.792 489.208 361.917 490.792 366.167 491.875C366.708 496.042 367 500.208 367.25 504.375C360 511.667 354.458 521.292 344.708 525.625C338.208 528.125 331.083 529 324.167 528.125C321.792 527.625 320.125 525.75 318.417 524.167C330 512 340.917 499.167 353.542 488.083ZM633.917 491.125C640.208 491.042 644.333 496.042 648.25 500.208C656.417 509.708 665.75 518.042 674.167 527.25C672.375 529.625 670.417 532.917 666.667 531.667C662.248 531.913 657.828 531.202 653.708 529.583C645.042 525.417 639.333 517.375 631.958 511.542L633.917 491.125ZM504.625 496.625C501.073 496.529 497.52 496.724 494 497.208C482.583 498.542 471.625 507 469.667 518.667C468.417 529.958 468.875 543.75 478.167 551.833C484.292 556.833 492.333 558.5 500.042 559.167C510.792 559.5 523.375 557.792 530.042 548.167C537.333 537.167 537.375 522.208 532.292 510.333C526.792 500.333 515.583 496.917 504.625 496.583V496.625ZM367 510.375C369.75 517.458 371.75 524.792 373.667 532.125C368.667 531.167 361.083 531.708 358.25 526.375C356.875 519.667 363.125 514.958 367 510.417V510.375ZM631.542 516.625C635.167 519.833 640.042 524.167 638.625 529.542C635.833 534.417 629.542 534.458 624.667 534.958C627.002 528.863 629.293 522.752 631.542 516.625ZM352.792 530C356.667 533.208 360.917 536.542 366.083 537.333C369.417 538.333 373.292 538.083 376.292 539.958C382.792 547.917 388.542 556.583 396.625 563.083C409.083 574.625 424.042 582.625 438.083 591.917C435.667 601.917 429.208 610.125 423.958 618.75C385.625 604.042 352.333 574.167 337.083 535.625C342.333 533.875 347.583 532 352.75 530H352.792ZM644.167 532.625C648.042 534.167 651.917 535.75 655.833 537.208C648.125 558.458 633.667 576.792 616.667 591.417C604.316 602.338 590.008 610.821 574.5 616.417C571.167 610.583 567.583 604.833 564.667 598.75C563.833 596.667 562.5 593.833 564.25 591.875C568.333 587.792 573.708 585.375 578.667 582.542C589 576.375 598.5 568.917 607.25 560.625C613.083 555.042 616.75 547.625 622.125 541.625C626.708 539.833 632.042 540.625 636.583 538.542C639.5 537.042 641.75 534.708 644.167 532.625ZM324.583 535.542L333.083 535.667C340.333 553.583 350.667 570.542 364.75 583.875C373.375 591.667 381.75 599.875 391.792 605.833C401.375 612.167 411.875 616.75 422.208 621.667C421.189 624.536 419.949 627.322 418.5 630C408.385 625.964 398.64 621.057 389.375 615.333C376.875 607.958 366.458 597.792 356.042 587.833C345.208 577.292 338.125 563.667 330.875 550.583C328.167 545.833 326.458 540.625 324.625 535.542H324.583ZM659.042 537.958L668.208 538.792C661.293 559.938 649.155 578.999 632.917 594.208C617.417 608.375 600.208 621.917 579.917 628.375C578.5 625.458 577.083 622.542 575.75 619.542C588.458 613.833 601.167 607.5 612 598.542C632 582.375 649.917 562.375 659.042 537.958ZM602.875 556C594.958 567.083 582.667 573.5 571.792 581.208C566.792 585.083 559.708 587.458 557.667 594.125C558.125 598.042 561.292 600.958 563.083 604.333C567.583 612.083 572.042 619.917 575.667 628.083C577.667 633.25 575.625 638.583 573.667 643.375C567.083 641.583 559.75 638.583 556.875 631.917C551.333 621.875 551.458 609.25 543.75 600.25C543.042 613.667 552.75 624.5 554.375 637.458C553.708 642 550.875 645.875 548.708 649.833C542.917 646.583 535.792 643.333 534.417 636.125C530.458 625.458 532.875 612.667 526.417 602.917C523.792 612.208 528.333 621.25 530.083 630.25C531.042 635.833 533.5 642.875 529.125 647.625C527.71 649.517 526.237 651.365 524.708 653.167C520.333 650.042 514.708 647.125 513.25 641.5C510.792 630.667 512.583 619.417 510.583 608.583C510 607.208 509.042 606.125 508.167 605C505.25 617.917 511.708 630.667 510.125 643.667C508.375 648.333 504.5 653.208 499.292 654.083C494.5 650.75 490.042 645.75 490.083 639.5C489.458 628.208 493.708 617.208 493.125 605.875L490.083 605.792C488.542 615.375 489.333 625.167 488.708 634.833C488.646 639.281 487.123 643.585 484.375 647.083C481.875 649.333 479.083 651.25 476.167 653C473.542 650.25 470.542 647.583 468.958 644C467.542 638.583 469.5 633.167 470.625 627.833C472.583 619.833 475.417 611.833 475.042 603.5H472.292C468.833 614.292 468.917 625.708 465.875 636.583C465.011 639.348 463.542 641.886 461.574 644.012C459.607 646.139 457.19 647.8 454.5 648.875C452.25 649.875 449.542 648.292 448.667 646.125C444.625 641 446.667 634.083 448.458 628.5C452.042 619.25 456.458 610.208 458.458 600.417L455.708 599.292C449.875 610.125 448.458 622.792 442.375 633.5C441.047 635.99 439.205 638.169 436.971 639.893C434.737 641.617 432.162 642.846 429.417 643.5C427.542 644.125 426.083 642.583 425.25 641.125C424.175 638.969 423.599 636.599 423.562 634.19C423.526 631.782 424.032 629.395 425.042 627.208C429.708 617.167 436.292 608.042 440.875 597.958C441.708 595.208 443.208 591.5 440.917 589.083C431.75 579.667 418.167 576.583 408.833 567.333C418.542 573.083 427.958 579.667 438.667 583.417C477.125 598.917 521.583 599.375 560.125 583.875C576.375 578.208 590.5 567.75 602.875 556Z" fill="black"/>
</svg>
