<svg width="1000" height="1000" viewBox="0 0 1000 1000" fill="none" xmlns="http://www.w3.org/2000/svg">
<path d="M490.329 176.016C429.078 176.66 371.212 190.039 316.731 216.151C262.25 242.263 215.667 278.208 176.983 323.985C137.008 372.341 109.607 426.822 94.7776 487.428C76.7248 559.639 78.0143 631.206 98.6461 702.128C118.633 771.116 154.417 830.755 205.996 881.045C258.865 932.624 321.406 967.44 393.617 985.493C465.829 1003.55 537.395 1002.26 608.317 981.625C677.305 960.993 736.944 925.21 787.234 874.275C838.814 821.406 873.63 758.865 891.683 686.654C909.736 614.442 908.446 542.553 887.814 470.987C867.182 402.644 831.399 343.327 780.464 293.037C727.595 240.813 665.055 205.996 592.843 188.588C558.672 179.562 524.5 175.371 490.329 176.016ZM476.789 319.149L521.277 330.755L502.901 403.288L539.652 411.025L557.06 339.459L602.515 350.097L584.139 424.565C615.732 435.526 638.943 448.421 653.772 463.25C671.18 481.303 677.95 502.902 674.081 528.047C668.923 564.797 649.903 587.041 617.021 594.778C638.298 605.738 652.482 619.6 659.575 636.364C667.956 655.061 667.634 677.627 658.607 704.062C647.002 736.299 627.015 756.931 598.646 765.958C574.79 773.05 541.586 772.727 499.033 764.99L480.658 839.459L435.203 827.853L453.578 754.352L417.795 745.648L399.42 819.149L353.965 808.511L373.308 733.076L282.399 709.865L304.642 658.608L321.083 663.443C332.044 666.022 337.524 666.989 337.524 666.344C347.195 668.923 353.965 665.377 357.834 655.706L387.814 537.718L392.65 538.685L387.814 537.718L408.124 452.611C409.413 439.072 402.644 430.368 387.814 426.499L354.932 418.762L366.538 370.406L429.4 385.88H428.433L457.447 393.617L476.789 319.149ZM491.296 456.48L469.052 546.422L475.822 548.356C502.257 555.448 522.889 558.672 537.718 558.027C564.152 558.027 579.948 547.711 585.106 527.079C590.264 506.448 581.56 490.007 558.994 477.756C546.744 470.664 527.079 464.217 500 458.414L491.296 456.48ZM457.447 591.876L432.302 690.522L441.006 693.424C473.243 701.805 498.066 705.996 515.474 705.996C547.066 705.996 565.764 694.713 571.567 672.147C577.37 649.581 566.409 631.206 538.685 617.021C523.856 609.285 500.322 601.548 468.085 593.811L457.447 591.876Z" fill="black"/>
</svg>
