<svg width="1000" height="1000" viewBox="0 0 1000 1000" fill="none" xmlns="http://www.w3.org/2000/svg">
<path d="M515.664 100.391C511.763 100.044 507.803 100.049 503.828 100.469C487.888 102.209 473.595 110.059 463.555 122.539C442.815 148.319 446.934 186.174 472.734 206.914L538.75 260H199.219C166.139 260 139.219 286.92 139.219 320C139.219 353.08 166.139 380 199.219 380H347.93L63.125 610.195C50.185 620.655 42.1116 635.53 40.3516 652.07C38.6116 668.61 43.3681 684.873 53.8281 697.813C64.2881 710.753 79.1631 718.826 95.7031 720.586C112.243 722.326 128.505 717.569 141.445 707.109L279.961 595.156C291.541 753.976 439.279 880 619.219 880C806.699 880 959.219 743.18 959.219 575C959.219 471.08 901.037 375.427 803.477 318.867L547.93 113.399C538.555 105.869 527.368 101.429 515.664 100.391ZM619.219 400C718.459 400 799.219 467.28 799.219 550C799.219 632.72 718.459 700 619.219 700C519.979 700 439.219 632.72 439.219 550C439.219 467.28 519.979 400 619.219 400ZM619.219 440C587.393 440 556.87 450.536 534.366 469.289C511.862 488.043 499.219 513.478 499.219 540C499.219 566.522 511.862 591.957 534.366 610.711C556.87 629.464 587.393 640 619.219 640C651.045 640 681.567 629.464 704.072 610.711C726.576 591.957 739.219 566.522 739.219 540C739.219 513.478 726.576 488.043 704.072 469.289C681.567 450.536 651.045 440 619.219 440Z" fill="black"/>
</svg>
