<svg width="1000" height="1000" viewBox="0 0 1000 1000" fill="none" xmlns="http://www.w3.org/2000/svg">
<path d="M493.744 109.436C459.178 110.301 425.203 121.591 396.607 142.486L80.9327 355.682C80.7678 355.791 80.605 355.903 80.4444 356.018C52.8609 376.177 56.2081 419.79 86.5479 435.485L94.7877 439.758L80.9327 449.127C80.7678 449.236 80.605 449.348 80.4444 449.462C52.8968 469.664 56.2427 513.227 86.5174 529.052C86.5276 529.062 86.5378 529.073 86.5479 529.083L94.9098 533.416L80.9327 542.877C80.7678 542.986 80.605 543.098 80.4444 543.212C52.8968 563.414 56.2427 606.977 86.5174 622.802C86.5276 622.813 86.5378 622.823 86.5479 622.833L94.9098 627.166L80.9327 636.627C80.7678 636.736 80.605 636.848 80.4444 636.963C52.8968 657.164 56.2427 700.727 86.5174 716.552C86.5276 716.563 86.5378 716.573 86.5479 716.583L364.197 860.626C364.207 860.636 364.217 860.646 364.227 860.656C457.331 908.785 570.276 897.64 652.252 832.092C652.334 832.032 652.416 831.971 652.496 831.909L915.314 613.464C915.355 613.434 915.395 613.403 915.436 613.372C945.348 587.947 943.002 542.651 916.443 518.646C945.218 493.059 942.679 448.609 916.443 424.896C945.257 399.401 942.803 354.946 916.534 331.176C952.143 299.663 939.658 239.195 893.89 224.823C893.88 224.812 893.87 224.802 893.86 224.792L547.974 116.79C547.933 116.78 547.892 116.77 547.852 116.76C534.942 112.846 521.772 110.521 508.576 109.71C503.627 109.406 498.682 109.312 493.744 109.436ZM490.479 140.838C506.591 139.974 522.914 141.868 538.757 146.667H538.788L884.522 254.638C908.863 262.282 914.783 291.995 895.233 308.38L881.409 319.885C880.078 320.688 878.875 321.686 877.838 322.845L632.66 526.733C560.349 584.581 460.867 594.432 378.601 551.91L378.571 551.879L136.078 425.994C134.167 424.307 131.873 423.113 129.395 422.515L100.952 407.745C100.942 407.735 100.932 407.725 100.922 407.714C90.0458 402.097 88.9786 388.505 98.8465 381.256L414.581 168.029C414.736 167.93 414.888 167.829 415.039 167.724C432.876 154.691 453.263 146.211 474.457 142.608C479.753 141.708 485.108 141.126 490.479 140.838ZM892.09 351.623C909.812 362.511 912.477 387.446 895.233 402.008L881.378 413.543C879.832 414.431 878.449 415.577 877.289 416.931L632.66 620.239C560.277 678.06 460.772 687.849 378.601 645.385H378.571L134.949 518.951C133.596 517.953 132.092 517.181 130.493 516.662L100.983 501.342C90.0171 495.61 89.0138 482.004 98.9381 474.701V474.67L126.373 456.146L364.197 579.62C364.207 579.63 364.217 579.64 364.227 579.65C457.392 627.826 570.293 616.635 652.191 551.117C652.263 551.056 652.334 550.995 652.405 550.933L892.09 351.623ZM891.968 445.373C909.685 456.177 912.481 481.101 895.203 495.788L881.378 507.263C879.829 508.16 878.446 509.316 877.289 510.681L632.66 713.989C560.277 771.81 460.772 781.599 378.601 739.135H378.571L134.949 612.701C133.596 611.703 132.092 610.931 130.493 610.412L100.983 595.092C90.0075 589.355 88.9857 575.718 98.9381 568.42L126.465 549.804L364.197 673.126C364.207 673.136 364.217 673.146 364.227 673.156C457.331 721.285 570.276 710.14 652.252 644.592C652.334 644.532 652.416 644.471 652.496 644.409L891.968 445.373ZM891.968 539.123C909.685 549.927 912.481 574.851 895.203 589.538L632.66 807.739C560.277 865.56 460.772 875.349 378.601 832.885H378.571L100.983 688.842C90.0075 683.105 88.9857 669.469 98.9381 662.17L126.465 643.554L364.197 766.876C364.207 766.886 364.217 766.896 364.227 766.906C457.331 815.035 570.276 803.89 652.252 738.342C652.334 738.282 652.416 738.221 652.496 738.159L891.968 539.123Z" fill="#1A1A1A"/>
</svg>
