<svg width="1000" height="1000" viewBox="0 0 1000 1000" fill="none" xmlns="http://www.w3.org/2000/svg">
<path d="M500 20C235.312 20 20 235.312 20 500C20 764.688 235.312 980 500 980C764.688 980 980 764.688 980 500C980 235.312 764.688 20 500 20ZM469.375 74.375L500 163.125L530.625 74.375L572.5 79.375L576.875 205.625L544.375 200.625L541.25 116.25L511.875 200.625H488.125L458.75 116.25L455.625 200.625L423.125 205.625L427.5 79.375L469.375 74.375ZM775.625 171.25L799.375 193.125L755.625 250.625L825.625 218.125L846.25 243.75L799.375 305L865 275L881.25 302.5L767.5 355L751.25 327.5L806.875 254.375L723.125 292.5L700 271.25L775.625 171.25ZM218.75 186.25C227.266 185.625 235.625 188.906 241.875 195C245.938 198.984 249.297 203.828 250.625 209.375C252.031 215.078 251.016 220.703 249.375 226.25C250.156 225.625 251.094 224.922 251.875 224.375C261.641 217.422 274.531 215.547 285.625 220.625C296.719 225.703 303.906 235.547 305.625 247.5C306.016 251.953 305.703 256.875 304.375 261.25C301.797 269.688 296.016 275.781 290.625 282.5C280.156 295.547 269.844 308.828 259.375 321.875C250.703 332.734 241.797 343.516 233.125 354.375C232.5 355.156 231.875 356.094 231.25 356.875C231.094 357.031 230.781 356.406 230.625 356.25C227.422 353.672 223.828 350.703 220.625 348.125C207.891 337.969 195.156 327.656 182.5 317.5C169.688 307.266 157.188 297.109 144.375 286.875C141.016 284.141 137.188 281.484 133.75 278.75C133.672 278.672 132.422 278.203 132.5 278.125C133.047 277.422 133.828 276.328 134.375 275.625C143.125 264.688 151.875 254.062 160.625 243.125C170.781 230.391 181.094 217.734 191.25 205C193.203 202.578 194.922 199.922 196.875 197.5C200.312 193.203 204.844 190.078 210 188.125C212.734 187.109 215.938 186.484 218.75 186.25ZM216.25 218.125C214.844 218.203 213.203 218.203 211.875 218.75C207.891 220.391 205.703 224.297 203.125 227.5C193.281 239.766 183.594 252.109 173.75 264.375C173.594 264.531 171.172 266.797 171.25 266.875C173.281 268.516 175.469 270.234 177.5 271.875C182.812 276.094 187.812 280.156 193.125 284.375C198.281 277.891 203.516 271.484 208.75 265C213.906 258.516 219.219 252.109 224.375 245.625C226.953 242.422 230.078 239.688 231.25 235.625C232.266 231.016 231.328 226.016 228.125 222.5C225.156 219.219 220.547 217.812 216.25 218.125ZM500 240C643.594 240 760 356.406 760 500C760 643.594 643.594 760 500 760C356.406 760 240 643.594 240 500C240 356.406 356.406 240 500 240ZM260 246.25C255.156 246.406 251.641 248.906 248.75 252.5C244.688 257.578 240.312 263.047 236.25 268.125C227.969 278.516 220.156 288.359 211.875 298.75C216.172 302.188 220.078 305.938 224.375 309.375C226.875 311.406 229.375 313.594 231.875 315.625C232.344 316.016 233.281 315.859 233.75 316.25C242.891 304.766 252.109 293.359 261.25 281.875C264.531 277.734 267.891 273.594 271.25 269.375C274.609 265.156 275.234 259.375 273.125 254.375C270.703 249.219 265.781 246.094 260 246.25ZM500 280C378.672 280 280 378.672 280 500H500V280ZM500 500V720C621.328 720 720 621.328 720 500H500Z" fill="black"/>
</svg>
