<svg width="1000" height="1000" viewBox="0 0 1000 1000" fill="none" xmlns="http://www.w3.org/2000/svg">
<g clip-path="url(#clip0_9_270)">
<path d="M500.273 40C497.444 39.9375 494.633 40.4762 492.027 41.5805C489.421 42.6849 487.079 44.3297 485.156 46.4062L340.82 202.148L142.305 248.867L48.75 202.109C45.7607 200.611 42.4434 199.886 39.1015 200C35.5074 200.127 32.0142 201.221 28.9895 203.167C25.9647 205.112 23.5205 207.837 21.914 211.055C21.914 211.055 -0.195348 256.19 -0.195348 330C-0.195348 368.365 11.3281 397.154 24.3359 420.547C21.4048 419.865 18.3578 419.854 15.4218 420.514C12.4857 421.174 9.7364 422.487 7.37855 424.357C5.0207 426.227 3.11512 428.604 1.80376 431.313C0.492402 434.021 -0.190936 436.991 -0.195348 440V460C-0.195348 482.346 -3.11565 535.119 11.8359 587.109C26.7399 638.935 62.7633 692.421 134.648 709.297C134.843 709.352 135.038 709.404 135.234 709.453C135.263 709.46 135.284 709.486 135.312 709.492L171.484 718.008L160.664 754.297C159.084 759.577 159.74 765.201 162.5 769.961C165.24 774.721 169.816 778.153 175.156 779.453L357.07 823.125L485.547 954.023C489.307 957.843 494.464 960.039 499.844 960.039C505.224 960.039 510.322 957.863 514.102 954.023L642.617 823.125L824.531 779.453C829.871 778.173 834.447 774.741 837.187 769.961C839.947 765.201 840.603 759.577 839.023 754.297L828.164 718.008L864.336 709.492C936.68 692.797 972.822 639.1 987.773 587.109C1002.72 535.119 999.805 482.346 999.805 460V440C999.805 436.992 999.126 434.022 997.82 431.312C996.513 428.602 994.612 426.222 992.258 424.349C989.904 422.475 987.158 421.157 984.224 420.492C981.29 419.827 978.244 419.832 975.312 420.508C988.311 397.12 999.805 368.344 999.805 330C999.805 256.19 977.695 211.055 977.695 211.055C976.046 207.756 973.516 204.978 970.387 203.027C967.257 201.076 963.649 200.029 959.961 200C956.803 199.975 953.684 200.698 950.859 202.109L857.305 248.867L658.789 202.148L514.492 46.4062C512.672 44.4407 510.475 42.8607 508.033 41.7603C505.59 40.6598 502.952 40.0612 500.273 40ZM499.805 89.4141L633.594 233.789C636.307 236.706 639.83 238.747 643.711 239.648L834.57 284.57L777.578 474.258C776.455 478.004 776.455 481.996 777.578 485.742L834.57 675.43L643.711 720.352C639.83 721.253 636.307 723.294 633.594 726.211L499.805 870.586L366.016 726.211C363.313 723.3 359.804 721.261 355.937 720.352L165.078 675.43L222.07 485.742C223.193 481.996 223.193 478.004 222.07 474.258L165.078 284.57L355.937 239.648C359.804 238.739 363.313 236.7 366.016 233.789L499.805 89.4141ZM499.805 240C367.493 240 259.805 347.689 259.805 480V480.078C259.806 480.427 259.841 480.784 259.844 481.133C260.463 612.92 367.875 720 499.805 720C624.071 720 726.582 624.994 738.594 503.828C739.43 495.846 739.826 487.876 739.805 480C739.805 347.689 632.116 240 499.805 240ZM51.0546 248.008L123.164 284.023L182.031 480L126.445 665.078C81.6537 648.655 61.4242 614.79 50.2734 576.016C38.6795 535.701 39.6801 493.982 39.8828 467.773L73.4765 478.984C78.0313 480.515 82.9849 480.355 87.4314 478.534C91.878 476.712 95.5201 473.351 97.6918 469.064C99.8634 464.778 100.419 459.853 99.2581 455.19C98.0967 450.528 95.2956 446.439 91.3672 443.672C91.3672 443.672 39.8046 408.357 39.8046 330C39.8046 288.357 45.8028 263.971 51.0546 248.008ZM948.555 248.008C953.806 263.971 959.805 288.357 959.805 330C959.805 408.357 908.242 443.672 908.242 443.672C904.314 446.439 901.513 450.528 900.351 455.19C899.19 459.853 899.746 464.778 901.917 469.064C904.089 473.351 907.731 476.712 912.178 478.534C916.624 480.355 921.578 480.515 926.133 478.984L959.727 467.773C959.929 493.982 960.93 535.701 949.336 576.016C938.185 614.79 917.988 648.655 873.203 665.078L817.617 480L876.484 284.023L948.555 248.008ZM499.805 280C610.499 280 699.805 369.306 699.805 480C699.805 503.331 695.619 525.612 688.32 546.406C676.597 574.505 654.073 599.43 611.523 619.375C608.298 620.882 605.533 623.222 603.514 626.154C601.495 629.086 600.296 632.504 600.039 636.055L599.883 638.555C599.839 639.035 599.813 639.517 599.805 640C599.805 651.301 591.105 660 579.805 660H419.805C408.568 660 399.981 651.363 399.883 640.156L399.961 638.945C400.254 634.904 399.313 630.869 397.262 627.374C395.212 623.879 392.148 621.09 388.477 619.375C343.939 598.498 321.132 572.189 309.844 542.422C303.417 522.776 299.805 501.831 299.805 480V479.961V479.922C299.847 369.265 389.137 280 499.805 280ZM439.609 379.805C435.631 379.806 431.743 380.993 428.443 383.216C425.142 385.438 422.58 388.594 421.083 392.28C419.586 395.966 419.222 400.015 420.038 403.909C420.854 407.803 422.813 411.366 425.664 414.141L445.664 434.141C447.507 436.06 449.714 437.592 452.157 438.648C454.599 439.704 457.228 440.262 459.889 440.289C462.55 440.316 465.189 439.812 467.653 438.806C470.116 437.8 472.354 436.313 474.236 434.431C476.117 432.55 477.605 430.312 478.61 427.848C479.616 425.384 480.12 422.745 480.093 420.084C480.066 417.423 479.509 414.795 478.453 412.352C477.397 409.91 475.865 407.702 473.945 405.859L453.945 385.859C452.081 383.943 449.853 382.421 447.39 381.381C444.928 380.341 442.282 379.805 439.609 379.805ZM559.414 379.805C554.218 379.96 549.286 382.131 545.664 385.859L525.664 405.859C523.745 407.702 522.212 409.91 521.156 412.352C520.101 414.795 519.543 417.423 519.516 420.084C519.489 422.745 519.993 425.384 520.999 427.848C522.005 430.312 523.492 432.55 525.374 434.431C527.255 436.313 529.493 437.8 531.957 438.806C534.42 439.812 537.06 440.316 539.72 440.289C542.381 440.262 545.01 439.704 547.452 438.648C549.895 437.592 552.102 436.06 553.945 434.141L573.945 414.141C576.835 411.331 578.809 407.715 579.609 403.764C580.408 399.814 579.995 395.714 578.424 392.002C576.853 388.291 574.198 385.14 570.805 382.964C567.413 380.787 563.443 379.686 559.414 379.805ZM399.805 440C383.892 440 368.63 446.321 357.378 457.574C346.126 468.826 339.805 484.087 339.805 500C339.805 515.913 346.126 531.174 357.378 542.426C368.63 553.679 383.892 560 399.805 560C415.718 560 430.979 553.679 442.231 542.426C453.483 531.174 459.805 515.913 459.805 500C459.805 484.087 453.483 468.826 442.231 457.574C430.979 446.321 415.718 440 399.805 440ZM599.805 440C583.892 440 568.63 446.321 557.378 457.574C546.126 468.826 539.805 484.087 539.805 500C539.805 515.913 546.126 531.174 557.378 542.426C568.63 553.679 583.892 560 599.805 560C615.718 560 630.979 553.679 642.231 542.426C653.483 531.174 659.805 515.913 659.805 500C659.805 484.087 653.483 468.826 642.231 457.574C630.979 446.321 615.718 440 599.805 440ZM499.805 520L459.805 580H539.805L499.805 520Z" fill="black"/>
</g>
<defs>
<clipPath id="clip0_9_270">
<rect width="1000" height="1000" fill="white"/>
</clipPath>
</defs>
</svg>
