<svg width="1000" height="1000" viewBox="0 0 1000 1000" fill="none" xmlns="http://www.w3.org/2000/svg">
<g clip-path="url(#clip0_9_376)">
<path d="M0 215.333V306.75H121.667L121.833 276.333L122.083 245.917L267.833 245.708L413.5 245.542V416.5H298.208V368.792L237.208 368.958L176.125 369.208V608.542L237.208 608.792L298.208 608.958V561.25H413.5V753.667H121.667V693.25H0V876.167H387.917C640.417 876.167 779.792 875.833 787.25 875.333C847.127 871.163 902.957 843.593 942.667 798.583C972.727 764.584 992.154 722.514 998.542 677.583C1000.54 664.042 1000.46 628.25 998.458 614.917C992.06 569.612 972.335 527.233 941.792 493.167C939.674 490.954 937.724 488.586 935.958 486.083C935.958 485.75 938.208 482.75 940.958 479.417C966.94 447.214 983.264 408.308 988.042 367.208C989.449 351.662 989.589 336.027 988.458 320.458C983.989 277.493 967.01 236.783 939.625 203.375C918.311 177.687 891.479 157.135 861.125 143.25C845.147 136.004 828.362 130.688 811.125 127.417C789.667 123.667 809.542 123.875 392.292 123.875H0V215.333ZM777.333 246.333C800.542 248.167 817.25 255.25 831.708 269.458C854.042 291.5 862.125 328.375 851.5 360.833C847.45 373.379 840.382 384.74 830.917 393.917C818.912 405.538 803.512 413.026 786.958 415.292C780.833 416.333 763.583 416.542 677.375 416.542H574.958V331.542C574.958 284.833 575.167 246.333 575.5 246.125C576.333 245.208 765.875 245.458 777.333 246.333ZM788.458 562.417C833.375 569.667 863.75 603.125 866.625 648.458C869 685.458 856.375 715.667 830.375 735.458C823.75 740.458 809.542 747.458 801.583 749.708C787 753.667 787.333 753.667 677.542 753.667H574.958V561.25H678.167C764.917 561.25 782.417 561.375 788.458 562.417Z" fill="black"/>
</g>
<defs>
<clipPath id="clip0_9_376">
<rect width="1000" height="1000" fill="white"/>
</clipPath>
</defs>
</svg>
