<svg width="1000" height="1000" viewBox="0 0 1000 1000" fill="none" xmlns="http://www.w3.org/2000/svg">
<path fill-rule="evenodd" clip-rule="evenodd" d="M645.651 213.135C649.391 212.662 651.56 211.106 652.499 208.927C653.583 206.276 652.966 203.63 650.787 200.984C633.35 171.398 593.953 153.183 532.295 146.641C506.599 143.84 479.046 145.085 449.465 150.376C418.166 155.829 391.075 164.55 368.186 176.85C311.202 207.521 278.502 248.163 269.937 298.922C268.692 303.591 268.998 306.87 270.555 308.888C272.272 310.911 275.073 311.222 278.964 309.972C355.102 284.437 414.114 266.067 455.846 254.856C521.706 237.575 584.926 223.562 645.651 213.135Z" fill="black"/>
<path fill-rule="evenodd" clip-rule="evenodd" d="M587.883 126.564C554.048 115.53 518.682 109.908 483.093 109.906C431.867 109.906 383.599 119.716 338.604 139.487C296.1 158.013 258.887 184.176 226.654 217.809C195.667 250.353 171.533 287.56 154.563 329.448C137.438 371.33 129.023 414.301 129.023 458.528C129.023 506.174 137.9 551.64 155.808 595.229C173.245 637.734 197.69 675.268 229.611 707.962C261.095 740.625 298.786 766.669 340.472 784.567C384.221 803.565 430.311 812.908 478.896 812.908C563.438 812.908 637.241 787.374 700.3 735.993C725.062 715.9 746.861 692.544 765.859 666.241C781.9 643.97 794.502 621.392 803.695 598.819L744.682 566.737C719.765 622.792 685.203 667.17 640.987 699.708C594.114 734.12 541.026 751.717 482.008 752.651C438.254 753.279 396.994 746.431 358.381 731.941C320.701 717.928 287.54 697.529 258.887 670.599L224.787 685.229V632.447C205.789 606.912 191.47 578.887 181.504 547.9C171.227 515.984 166.091 482.19 166.091 446.694C166.091 401.077 174.5 357.95 191.314 317.152C207.667 277.449 231.017 242.576 261.377 212.523C292.053 182.002 327.71 158.651 368.502 142.143C410.856 125.174 456.318 116.609 504.742 116.609C530.738 116.598 558.613 120.022 587.883 126.564Z" fill="black"/>
<path fill-rule="evenodd" clip-rule="evenodd" d="M763.514 367.901C761.185 362.925 757.445 359.496 752.158 357.317C743.899 354.199 734.862 352.176 724.6 351.553C714.478 350.931 704.357 351.553 694.08 353.738C674.464 357.628 657.645 366.033 643.783 378.956C623.7 397.643 613.579 423.022 613.579 455.405C613.579 482.501 622.455 502.579 640.208 515.663C655.305 526.718 673.836 531.076 695.636 528.58C720.237 525.784 739.391 517.525 753.248 503.829C761.19 496.047 765.081 485.303 765.237 471.602C765.553 462.258 765.553 442.482 765.237 412.589L691.595 428.63V445.761C691.745 458.217 697.514 463.353 709.187 461.013L718.53 458.679L718.691 472.696C718.841 473.936 718.369 475.342 716.979 476.904C714.333 480.328 709.036 482.662 701.244 484.219C689.421 485.931 680.544 483.596 674.474 476.748C668.711 470.362 665.748 460.24 665.598 446.694C665.914 433.154 669.489 421.938 676.493 413.217C682.884 405.279 691.133 399.983 701.56 397.648C710.748 395.469 719.464 394.847 727.723 395.936L742.981 398.893C748.9 399.832 753.72 398.426 757.927 395.153C761.512 392.045 763.997 387.838 765.092 382.702C766.146 377.725 765.594 372.543 763.514 367.901ZM564.366 394.836C560.019 400.595 557.83 408.382 557.83 418.659L557.679 470.663C538.064 446.062 521.706 427.219 508.939 414.296C501.93 407.448 492.898 406.047 481.531 410.099L456.313 417.725V591.328L480.758 582.929C489.79 579.806 496.176 575.297 500.062 569.684C503.803 564.081 505.515 556.611 505.515 547.106L505.198 487.165L557.674 547.734C565.456 555.666 575.111 558.006 586.783 554.582C592.016 553.09 596.611 549.918 599.862 545.555C603.602 540.886 605.465 535.434 605.615 529.203V378.8C596.588 380.668 588.34 382.691 580.708 384.87C573.559 386.893 568.107 390.167 564.366 394.836ZM411.629 430.96C402.753 434.228 396.216 438.747 392.169 444.194C387.495 450.736 385.316 459.924 385.316 472.069L385.166 616.251L413.502 606.129C423.307 602.389 430.16 597.88 434.207 592.117C438.254 586.514 440.282 578.571 440.282 568.449L440.438 421.627C430.732 424.411 421.124 427.524 411.629 430.96ZM284.733 479.69L232.257 501.494L231.946 674.48L269.003 658.906C273.984 657.671 277.88 654.548 280.676 650.029C283.483 645.671 284.728 640.068 284.572 633.065V578.094L325.987 622.16C331.123 627.296 337.193 630.409 344.202 631.187C352.3 632.281 359.771 629.942 366.624 624.489C372.85 619.353 376.118 612.816 376.434 604.874C376.59 597.559 374.717 591.639 370.52 586.97L332.685 549.135L371.454 487.943C375.034 482.029 375.973 475.954 374.255 469.884C372.388 463.498 368.186 458.829 361.799 456.028C355.102 452.915 348.409 452.603 342.184 454.938C336.731 456.961 332.534 460.235 329.572 464.904L284.883 540.891L284.733 479.69Z" fill="black"/>
<path fill-rule="evenodd" clip-rule="evenodd" d="M712.912 542.442C711.049 540.414 707.776 539.952 703.257 541.197C651.259 553.347 591.624 570.005 524.202 591.182C451.799 613.921 393.098 634.937 348.254 654.236L343.735 656.415C342.651 657.193 341.712 658.127 341.245 659.538C339.839 662.485 340.622 665.458 343.585 668.565C348.721 674.796 357.286 680.866 369.431 686.785C382.504 693.005 397.456 698.152 414.581 702.043C456.313 711.225 498.195 710.758 540.227 700.637C599.867 686.318 646.102 659.227 678.962 619.363C689.867 605.978 698.738 591.805 705.592 577.009C709.799 567.982 712.756 559.884 714.468 552.719C715.402 547.889 714.94 544.465 712.912 542.442Z" fill="black"/>
<path fill-rule="evenodd" clip-rule="evenodd" d="M275.545 352.487C267.291 348.124 256.708 348.124 243.78 352.949C237.243 355.289 224.32 360.425 204.86 368.362L205.011 494.485L251.411 474.709C264.179 469.412 273.678 463.498 279.903 457.112C287.69 449.013 291.42 439.519 291.265 428.308C291.114 422.078 289.091 416.786 284.884 412.428C281.092 408.248 275.977 405.501 270.399 404.646C281.454 395.765 286.902 385.337 286.902 373.197C286.907 363.543 283.016 356.689 275.545 352.487ZM242.846 402.307L236.927 404.797V378.178C242.068 375.371 246.426 374.748 249.855 375.838C253.123 377.083 254.835 379.884 254.68 384.559C254.68 392.501 250.633 398.416 242.846 402.307ZM252.039 422.394C255.619 424.262 257.486 427.53 257.486 432.511C257.803 441.237 253.279 447.618 244.408 451.664L237.248 454.933V424.257C243.313 421.149 248.298 420.527 252.039 422.394ZM379.552 321.811C379.552 316.675 378.001 313.251 374.728 311.383C371.926 309.671 368.03 309.516 363.517 310.916C358.687 312.317 353.551 314.029 347.948 316.208V394.525C347.631 406.203 344.057 412.745 336.892 414.612C333.313 415.391 330.511 414.768 328.638 412.745C326.926 410.877 325.993 407.769 325.993 403.718L325.837 339.564C325.837 334.423 324.275 330.843 321.168 328.976C318.211 327.108 314.475 327.108 309.801 328.509L293.916 334.267V411.966C293.77 425.045 297.812 434.539 306.061 440.147C314.475 446.067 325.52 447 339.071 442.954C352.306 439.058 361.96 433.144 368.186 425.668C375.662 416.636 379.397 404.024 379.547 387.672V321.811H379.552ZM611.706 288.65V271.053L638.637 265.45C645.028 264.199 648.291 259.691 648.291 252.215V238.825C626.03 242.566 603.291 247.23 580.252 252.527L579.785 367.589C599.191 362.885 618.654 358.422 638.17 354.199C645.645 352.487 649.536 347.502 649.536 339.253V325.858L611.701 334.112L611.851 311.845L635.519 306.87C642.055 305.308 645.329 301.257 645.329 294.409L645.178 281.641L611.706 288.65ZM388.279 421.621L407.111 415.24C415.676 411.816 419.878 406.208 420.034 398.115L420.189 367.283L447.281 395.464C451.332 399.36 455.846 401.072 461.132 400.766C465.34 400.294 468.769 398.893 471.565 396.242C474.994 393.129 476.706 389.083 476.706 384.253C476.551 379.584 474.994 375.693 471.876 372.575L451.327 352.954C464.562 342.059 471.103 329.442 471.254 315.435C471.254 305.625 467.519 298.31 459.892 293.636C452.105 288.811 442.139 287.721 430.155 290.518C419.878 292.852 405.866 297.215 388.279 303.285V421.621ZM420.034 349.525V316.675C432.179 312.156 438.409 314.807 438.565 324.618C438.721 334.89 432.49 343.144 420.034 349.525ZM726.924 236.646C719.449 230.883 709.799 228.704 698.282 230.265L656.556 237.269V350.619L673.831 347.351C682.708 345.323 687.216 340.036 687.377 331.16V303.441L714.006 334.734C716.652 337.691 719.926 339.403 723.5 340.031C727.708 340.804 731.749 340.031 735.64 337.536C739.847 334.885 742.187 331.154 742.654 326.48C743.121 321.806 741.876 317.759 738.763 314.486L718.214 291.446C730.981 282.881 737.518 272.137 737.518 259.214C737.663 249.564 734.089 242.249 726.924 236.646ZM687.377 285.843L687.216 255.167C699.21 252.677 705.436 255.639 705.597 264.199C705.597 274.01 699.527 281.174 687.377 285.843ZM571.847 277.122C571.998 271.675 569.668 267.473 564.844 264.511C559.547 261.554 552.066 260.303 542.105 260.464C520.928 261.237 504.27 268.562 492.125 282.57C480.914 295.493 475.311 311.845 475.311 331.777C475.311 350.614 480.914 364.632 491.964 373.82C502.241 382.385 515.631 385.187 531.662 382.229C545.374 379.578 556.112 374.759 563.894 367.75C569.658 362.764 572.465 356.072 572.465 347.818V303.129L525.276 313.718V326.797C525.276 329.915 526.37 332.249 528.399 333.961C530.417 335.678 532.917 336.296 535.874 335.678L542.723 334.122L542.873 347.04C542.873 349.691 541.311 351.714 538.048 353.271C534.925 354.827 531.2 355.605 527.143 355.449C515.47 355.294 509.707 346.734 509.39 329.759C509.541 319.17 512.036 310.605 516.555 303.757C521.073 297.376 526.827 293.319 534.147 291.296C538.816 290.212 544.896 290.056 552.528 290.985C558.447 292.079 563.116 291.14 566.54 288.65C569.964 286.16 571.692 282.264 571.847 277.122Z" fill="black"/>
<path fill-rule="evenodd" clip-rule="evenodd" d="M308.395 282.419C309.951 281.33 310.735 279.462 311.041 277.123C316.338 257.04 326.454 237.264 341.406 218.11C355.418 200.201 370.681 186.189 387.339 176.067C363.517 186.5 342.495 203.159 324.125 226.048C316.649 235.547 310.579 244.885 305.905 254.228C301.547 263.105 299.057 270.42 298.434 276.495C298.434 278.674 298.901 280.386 299.991 281.792C301.075 283.037 302.481 283.654 304.193 283.815C305.749 283.976 307.155 283.509 308.395 282.419ZM602.679 194.759C602.83 189.623 599.406 184.332 592.708 178.879C586.327 173.743 577.45 169.064 566.395 164.711C554.873 160.504 542.733 157.552 529.654 155.523C515.642 153.505 501.935 152.883 488.701 153.972C514.858 155.835 536.658 160.976 554.094 169.857C561.736 173.593 567.64 177.639 571.847 181.997C575.889 186.199 578.078 190.251 578.078 193.986C578.228 198.661 576.366 203.019 572.626 206.754C569.202 210.645 564.527 213.451 559.08 215.163L577.45 210.806C583.681 209.4 588.2 208.16 591.162 206.915C598.788 204.258 602.518 200.207 602.679 194.759ZM680.996 582.151C682.557 578.877 682.708 575.92 681.623 573.425C680.845 571.095 679.133 569.534 676.638 568.756C674.142 567.977 671.803 568.289 669.473 569.534C666.667 571.095 664.804 573.741 663.554 577.476C656.239 596.475 645.951 613.911 632.733 629.942C617.159 649.09 598.311 664.82 576.366 677.271C598.627 668.555 618.559 656.571 635.996 641.308C655.461 624.344 670.407 604.723 680.996 582.151Z" fill="black"/>
<path fill-rule="evenodd" clip-rule="evenodd" d="M794.964 567.972H783.291V569.85H787.804V578.877H790.761V569.85H794.964V567.972ZM799.482 570.001L802.128 578.877H805.09L807.731 570.001V578.877H810.693V567.972H806.335L803.69 576.387L800.883 567.972H796.525V578.877H799.482V570.001Z" fill="black"/>
</svg>
