<svg width="1000" height="1000" viewBox="0 0 1000 1000" fill="none" xmlns="http://www.w3.org/2000/svg">
<path d="M253.25 500C253.316 434.578 279.334 371.855 325.595 325.594C371.855 279.334 434.578 253.316 500 253.25C543.288 253.339 585.797 264.769 623.293 286.401C660.789 308.033 691.962 339.112 713.708 376.542L651.25 412.667L860.708 291.75C855.321 281.974 847.535 273.729 838.083 267.792L532.042 91.125C514.375 80.9167 485.542 80.9167 467.917 91.125L161.875 267.792C144.292 277.958 129.875 302.958 129.875 323.333V676.667C129.875 686.875 133.458 698.208 139.292 708.25L286.333 623.333C264.603 585.867 253.188 543.312 253.25 500Z" fill="black"/>
<path d="M606.833 438.292C595.971 419.57 580.39 404.024 561.645 393.204C542.899 382.383 521.644 376.667 500 376.625C478.362 376.667 457.115 382.394 438.386 393.231C419.658 404.068 404.105 419.636 393.286 438.375C382.467 457.114 376.762 478.367 376.741 500.005C376.72 521.643 382.384 542.907 393.167 561.667L500 500L606.833 438.292Z" fill="black"/>
<path d="M860.708 291.75L650.458 413.125L606.875 438.333L606.833 438.292L500 500L393.208 561.667C404.039 580.409 419.606 595.976 438.349 606.807C457.092 617.637 478.353 623.351 500 623.375C521.656 623.34 542.924 617.623 561.679 606.794C580.433 595.965 596.018 580.405 606.875 561.667L713.667 623.458C691.927 660.894 660.755 691.977 623.258 713.61C585.761 735.243 543.248 746.669 499.958 746.75C456.648 746.725 414.107 735.308 376.603 713.645C339.1 691.983 307.954 660.837 286.292 623.333L139.25 708.25C145.083 718.333 153.083 727.125 161.875 732.208L467.917 908.875C485.542 919.083 514.375 919.083 532.042 908.875L838.083 732.208C846.875 727.125 854.875 718.333 860.708 708.25C866.542 698.208 870.125 686.875 870.125 676.667V323.333C870.125 313.125 866.542 301.792 860.708 291.75ZM746.75 513.708H719.333V541.125H691.958V513.708H664.542V486.292H691.958V458.875H719.333V486.292H746.75V513.708ZM849.583 513.708H822.167V541.125H794.75V513.708H767.375V486.292H794.75V458.875H822.167V486.292H849.583V513.708Z" fill="black"/>
</svg>
