<svg width="1000" height="1000" viewBox="0 0 1000 1000" fill="none" xmlns="http://www.w3.org/2000/svg">
<path d="M666.667 533.333V466.667H733.333V533.333H666.667Z" fill="black"/>
<path fill-rule="evenodd" clip-rule="evenodd" d="M500 28.0762L933.333 280.854V719.147L500 971.92L66.6667 719.147V280.854L500 28.0762ZM422.104 266.667C299.439 266.667 200 366.106 200 488.771V511.229C200 633.894 299.439 733.333 422.104 733.333C456.585 733.333 490.591 725.307 521.432 709.887L548.241 696.48L518.426 636.853L491.617 650.257C470.035 661.049 446.235 666.667 422.104 666.667C336.258 666.667 266.667 597.075 266.667 511.229V488.771C266.667 402.925 336.258 333.333 422.104 333.333C446.235 333.333 470.035 338.951 491.617 349.743L518.426 363.147L548.241 303.519L521.432 290.115C490.591 274.695 456.585 266.667 422.104 266.667ZM600 333.333V400H533.333V466.667H600V533.333H533.333V600H600V666.667H666.667V600H733.333V666.667H800V600H866.667V533.333H800V466.667H866.667V400H800V333.333H733.333V400H666.667V333.333H600Z" fill="black"/>
</svg>
