<svg width="1000" height="1000" viewBox="0 0 1000 1000" fill="none" xmlns="http://www.w3.org/2000/svg">
    <path fill-rule="evenodd" clip-rule="evenodd" d="M500 28.0762L933.333 280.854V719.147L500 971.92L66.6667 719.147V280.854L500 28.0762ZM500 266.667C371.133 266.667 266.667 371.133 266.667 500C266.667 628.867 371.133 733.333 500 733.333H512.132C577.233 733.333 639.669 707.473 685.7 661.438L690.24 656.903L643.097 609.763L638.562 614.298C605.031 647.829 559.553 666.667 512.132 666.667H500C407.953 666.667 333.333 592.047 333.333 500C333.333 407.953 407.953 333.333 500 333.333H512.132C559.553 333.333 605.031 352.171 638.562 385.702L643.097 390.237L690.24 343.097L685.7 338.562C639.669 292.528 577.233 266.667 512.132 266.667H500Z" fill="black" />
</svg>
