<svg width="1000" height="397" viewBox="0 0 1000 397" fill="none" xmlns="http://www.w3.org/2000/svg">
<g clip-path="url(#clip0_9_378)">
<path d="M218.491 180.153H132.654L126.018 138.691H494.583V180.153H484.629V148.414H215.372L218.491 180.153ZM124.525 129.23H494.484V98.8375H119.731L124.525 129.23ZM355.923 231.198H494.534V209.426H355.973L355.923 231.198ZM116.114 89.1671H203.793L187.202 58.7569H484.646V89.0447H494.6V48.2471H88.956L116.114 89.1671ZM645.337 48.2471H505.5V109.33H645.404L645.337 48.2471ZM152.612 283.782C154.885 287.419 159.099 291.651 173.084 295.656C179.853 297.404 187.385 299.153 197.803 301.601H346.235V280.04H150.688C151.206 281.346 151.839 282.599 152.579 283.782H152.612ZM144.135 250.836H346.235V189.928H134.197L144.135 250.836ZM355.923 336.278C407.685 347.016 458.284 356.931 494.617 362.929V260.716H355.923V336.278ZM654.926 180.153H867.412L877.117 119.053H654.926V180.153ZM654.926 67.6754V89.3595L883.471 89.2721L897.805 67.6754H654.926ZM1000 0L932.677 100.184C925.295 142.73 906.001 252.323 903.811 262.99C897.473 293.662 894.437 312.321 837.318 326.643C761.269 345.652 587.322 382.602 499.942 397.029C412.595 382.62 238.731 345.652 162.682 326.643C105.563 312.321 102.527 293.662 96.1893 262.99C93.9994 252.392 74.7051 142.73 67.3225 100.184L0 0H1000ZM946.912 18.8337H53.1546L106.243 98.7326C119.515 181.832 127.727 235.255 131.128 253.879C137.034 286.283 138.079 300.255 169.833 309.278C232.974 325.017 415.963 364.678 500.058 378.055C584.153 364.678 767.158 325.069 830.333 309.278C862.087 300.255 863.132 286.283 869.038 253.879C872.356 235.255 880.651 181.832 893.923 98.7326L946.912 18.8337ZM505.5 231.198H515.454V200.438H779.866C779.518 203.428 777.046 224.046 775.769 231.285H859.266L865.902 189.928H505.5V231.198ZM505.5 271.034H852.232L857.84 240.763H505.5V271.034ZM645.404 138.708H505.5V160.515H645.404V138.708ZM505.5 280.04H849.445C848.961 281.357 848.338 282.612 847.587 283.782C845.314 287.419 841.15 291.896 827.082 295.586C764.803 311.919 593.643 347.698 505.5 362.894V280.04ZM515.454 350.653C531.314 347.628 570.068 340.51 583.888 337.73C724.605 309.383 748.743 305.064 760.473 290.515H515.454V350.653Z" fill="black"/>
</g>
<defs>
<clipPath id="clip0_9_378">
<rect width="1000" height="397" fill="white"/>
</clipPath>
</defs>
</svg>
