<svg width="1000" height="599" viewBox="0 0 1000 599" fill="none" xmlns="http://www.w3.org/2000/svg">
<g clip-path="url(#clip0_5_260)">
<path d="M457.981 139.498L333.799 210.539C315.603 181.332 289.697 170.156 265.56 169.953C221.602 169.585 183.694 204.874 183.718 249.889C183.696 296.195 221.725 329.786 263.324 330.492C288.19 330.91 318.446 317.06 333.818 289.598L457.992 360.823C412.851 438.633 335.465 473.765 263.153 473.639C148.493 473.451 40.6259 381.781 40.6416 250.084C40.6377 119.078 148.94 25.8159 263.585 26.5532C337.936 27.0371 413.738 62.0163 457.984 139.495L457.981 139.498Z" fill="black"/>
<path d="M57.1833 536.118C65.0373 538.326 71.6409 543.823 75.9087 550.706L59.4682 560.11C56.6022 556.117 51.8823 553.251 46.8162 554.01C41.8125 554.496 37.4273 558.302 36.1119 563.142C34.0837 571.732 40.2308 578.865 47.7481 579.234C51.9531 579.359 56.4382 577.504 59.4682 573.024L75.9087 582.515C70.4821 591.489 60.8722 597.574 50.3945 598.458C30.9664 599.057 14.216 584.177 16.8947 561.521C20.5041 541.878 38.7811 531.014 57.1833 536.119V536.118Z" fill="black"/>
<path d="M313.759 534.943C307.629 534.511 301.323 535.831 295.656 539.117C280.544 547.881 275.317 567.533 284.08 582.646C292.843 597.759 312.497 602.987 327.61 594.224C342.068 585.842 347.333 567.532 340.105 552.724C339.876 552.021 339.571 551.345 339.195 550.708C339.192 550.703 339.191 550.7 339.189 550.695C339.187 550.693 339.186 550.692 339.185 550.691C338.811 550.03 338.364 549.413 337.852 548.851C332.22 540.587 323.253 535.611 313.758 534.942L313.759 534.943ZM312.442 555.14C316.107 555.375 319.554 557.4 321.583 560.899C321.584 560.899 321.584 560.9 321.584 560.9C321.585 560.902 321.585 560.903 321.586 560.904C324.829 566.503 323 573.374 317.402 576.619C311.803 579.865 304.93 578.037 301.684 572.438C298.437 566.84 300.266 559.968 305.864 556.722V556.721C307.964 555.503 310.242 555 312.441 555.141L312.442 555.14Z" fill="black"/>
<path d="M824.536 534.943C818.405 534.511 812.1 535.831 806.433 539.117C791.321 547.881 786.094 567.533 794.857 582.646C803.62 597.759 823.274 602.987 838.387 594.224C852.847 585.841 858.113 567.527 850.88 552.718C850.652 552.017 850.347 551.343 849.973 550.708C849.973 550.703 849.973 550.7 849.966 550.695C849.966 550.693 849.966 550.692 849.966 550.691C849.591 550.029 849.144 549.411 848.631 548.849C842.999 540.587 834.032 535.611 824.538 534.942L824.536 534.943ZM823.219 555.14C826.884 555.375 830.331 557.4 832.36 560.899C832.36 560.899 832.36 560.9 832.36 560.9C832.36 560.902 832.36 560.903 832.36 560.904C835.604 566.503 833.776 573.374 828.178 576.619C822.579 579.865 815.707 578.037 812.461 572.438C809.215 566.84 811.042 559.968 816.64 556.722V556.721C818.74 555.503 821.018 555 823.217 555.141L823.219 555.14Z" fill="black"/>
<path d="M126.779 536.142H96.2883L77.1935 597.185H98.654L101.791 586.947H121.341L124.419 597.185H145.873L126.779 536.142ZM111.538 552.982L116.991 571.925H106.073L111.538 552.982Z" fill="black"/>
<path d="M152.028 536.142V597.185H172.246V579.339H178.834L187.896 597.185H210.385L198.601 577.162C207.677 571.343 210.784 564.133 210.442 556.886C210.449 545.944 200.593 536.448 189.816 536.142H152.028ZM185.698 553.945C188.302 553.979 190.203 556.513 190.318 558.68C190.384 561.78 188.024 564.105 185.678 564.161L172.246 564.181V553.945H185.698Z" fill="black"/>
<path d="M216.025 553.962V536.14H277.19V553.962H258.052V597.183H235.176V553.962H216.025Z" fill="black"/>
<path d="M418.629 536.142H438.805L459.473 561.526V536.142H479.663V597.185H459.473L438.805 571.746V597.185H418.629V536.142Z" fill="black"/>
<path d="M520.959 536.142H541.133L561.801 561.526V536.142H581.989V597.185H561.801L541.133 571.746V597.185H520.959V536.142Z" fill="black"/>
<path d="M590.768 536.142H644.074L644.074 553.95H610.957V560.2H638.842V574.46H610.957V580.884H644.074L644.073 597.184H590.767L590.768 536.142Z" fill="black"/>
<path d="M650.82 553.962V536.14H711.985V553.962H692.847V597.183H669.971V553.962H650.82Z" fill="black"/>
<path d="M717.092 536.142H737.611C737.611 536.142 742.742 562.797 742.764 562.906L752.876 538.325L763.174 562.851L768.327 536.142H788.658L777.034 597.185H760.115L752.875 580.706L745.549 597.185H728.912C728.912 597.185 717.312 537.519 717.092 536.142Z" fill="black"/>
<path d="M860.146 536.142V597.185H880.363L880.402 579.339H886.952L896.011 597.185H918.503L906.718 577.162C915.794 571.343 918.905 564.133 918.562 556.886C918.57 545.944 908.711 536.448 897.933 536.142H860.146ZM893.815 553.945C896.42 553.979 898.319 556.513 898.433 558.68C898.5 561.78 896.142 564.105 893.796 564.161L880.363 564.181V553.945H893.815Z" fill="black"/>
<path d="M925.092 597.181V536.138H945.509V555.914L960.734 536.138H986.768L963.142 565.24L986.768 597.181H960.734L945.509 574.464V597.181H925.092Z" fill="black"/>
<path d="M382.761 534.943C376.631 534.511 370.325 535.831 364.658 539.117C349.546 547.881 344.319 567.533 353.082 582.646C361.845 597.759 381.497 602.987 396.61 594.224C411.069 585.842 416.335 567.532 409.107 552.724C408.878 552.021 408.573 551.345 408.197 550.708C408.194 550.703 408.193 550.7 408.191 550.695C408.189 550.693 408.188 550.692 408.187 550.691C407.812 550.029 407.365 549.411 406.853 548.849C401.221 540.587 392.254 535.611 382.761 534.942L382.761 534.943ZM381.444 555.14C385.11 555.375 388.554 557.4 390.584 560.899C390.584 560.899 390.584 560.9 390.585 560.9C390.585 560.902 390.586 560.903 390.586 560.904C393.83 566.503 392.002 573.374 386.404 576.619C380.805 579.865 373.932 578.037 370.686 572.438C367.439 566.84 369.266 559.968 374.865 556.722V556.721C376.964 555.503 379.244 555 381.443 555.141L381.444 555.14Z" fill="black"/>
<path d="M500.165 0.165039H1000.17V499.665H982.336H964.507L964 35.9999L821.808 36.249V215.165L679.165 36.249H536.065L536 464.178L678.5 464.178V285.5L821 464.178H998.435L998.467 482.089L998.5 500L517.935 500H500.165V0.165039Z" fill="black"/>
</g>
<defs>
<clipPath id="clip0_5_260">
<rect width="1000" height="598.479" fill="white"/>
</clipPath>
</defs>
</svg>
