<svg width="1000" height="870" viewBox="0 0 1000 870" fill="none" xmlns="http://www.w3.org/2000/svg">
<g clip-path="url(#clip0_9_380)">
<path d="M470.396 0.0770083C357.707 2.22163 222.005 21.791 143.19 69.0878C92.3703 99.8941 29.8837 162.626 10.7083 259.205C-8.4672 355.784 0.39655 449.847 19.3085 546.525C38.2206 643.203 76.1007 751.43 181.036 807.178C285.971 862.925 356.349 869.539 500.168 869.124C643.988 869.539 714.366 862.925 819.301 807.178C924.236 751.43 962.116 643.203 981.028 546.525C999.94 449.847 1008.8 355.784 989.628 259.205C970.453 162.626 907.966 99.8941 857.146 69.0878C754.748 12.7597 642.09 1.95565 529.94 0.0770083C509.514 0.212972 489.31 -0.150851 470.396 0.0770083ZM617.139 26.0754C658.751 30.0453 762.873 38.1156 840.801 84.5771C918.73 131.039 953.563 190.123 968.117 261.783C982.67 333.443 981.403 424.072 961.239 538.78C941.074 653.489 884.649 748.928 808.112 789.121C731.575 829.315 634.409 850.585 500.168 848.512C365.927 850.585 268.762 829.315 192.225 789.121C115.688 748.928 59.2628 653.489 39.098 538.78C18.9332 424.072 17.6668 333.443 32.2199 261.783C46.7731 190.123 81.6068 131.039 159.535 84.5771C237.463 38.1156 341.586 30.0453 383.198 26.0754C460.91 19.6247 540.402 19.1185 617.139 26.0754ZM474.356 46.0184C410.478 46.8149 342.095 54.6319 295.297 64.6889C241.814 76.1827 223.527 80.2411 177.405 107.833C131.282 135.425 74.5682 191.604 57.1652 278.106C39.762 364.608 47.8117 448.866 64.9757 535.457C82.1397 622.047 116.515 718.984 211.751 768.915C370.03 851.351 634.278 848.069 788.585 768.915C883.821 718.984 918.197 622.047 935.361 535.457C952.525 448.866 960.575 364.608 943.171 278.106C925.768 191.604 869.054 135.425 822.932 107.833C776.809 80.2411 758.523 76.1827 705.04 64.6889C658.242 54.6319 589.859 46.8149 525.98 46.0184C508.269 46.153 490.757 45.8246 474.356 46.0184ZM599.993 87.6158C617.36 89.2445 647.376 91.7299 681.312 98.2674C686.336 99.3019 689.163 100.927 688.058 105.705C633.485 238.07 575.193 370.488 514.385 502.854C506.188 520.408 495.831 521.084 487.443 506.101C426.095 372.653 367.298 239.153 312.278 105.705C311.174 100.927 314.001 99.3019 319.025 98.2674C352.96 91.7299 382.976 89.2445 400.343 87.6158C466.662 82.1593 534.726 81.7897 599.993 87.6158ZM264.154 112.66C267.261 112.581 268.301 114.633 268.191 118.518L268.235 118.397V341.127C268.235 411.424 279.728 444.395 310.819 501.714L459.821 776.1C464.909 785.796 456.656 785.162 447.689 785.26C358.844 781.445 290.817 764.17 235.391 735.556C169.279 701.425 120.536 620.39 103.118 522.984C85.6994 425.578 84.6011 348.621 97.172 287.77C109.743 226.919 139.83 176.74 207.144 137.287C223.928 127.449 242.123 119.64 260.534 113.406C261.961 112.944 263.169 112.685 264.154 112.66ZM736.183 112.66C737.167 112.685 738.376 112.944 739.803 113.406C758.213 119.64 776.408 127.449 793.193 137.287C860.506 176.74 890.594 226.919 903.165 287.77C915.736 348.621 914.637 425.578 897.219 522.984C879.801 620.39 831.057 701.425 764.945 735.556C709.52 764.17 641.492 781.445 552.648 785.26C543.68 785.162 535.427 785.796 540.515 776.1L689.517 501.714C720.609 444.395 732.102 411.424 732.102 341.127V118.397L732.146 118.518C732.035 114.633 733.075 112.581 736.183 112.66Z" fill="black"/>
</g>
<defs>
<clipPath id="clip0_9_380">
<rect width="1000" height="869.863" fill="white"/>
</clipPath>
</defs>
</svg>
