<svg width="1000" height="473" viewBox="0 0 1000 473" fill="none" xmlns="http://www.w3.org/2000/svg">
<path fill-rule="evenodd" clip-rule="evenodd" d="M499.323 57.1727L368.292 290.08L387.344 292.698C422.719 296.829 460.329 299.054 499.323 299.054C538.318 299.054 575.928 296.829 611.302 292.698L630.354 290.08L499.323 57.1727ZM620.855 28.8129L762.118 258.834L765.595 257.647C833.74 232.062 875.888 196.719 875.888 157.679C875.888 118.64 833.74 83.2958 765.595 57.712L725.587 45.3189L685.027 37.4165C670.758 34.9754 656.133 32.8073 641.193 30.928L620.855 28.8129ZM377.792 28.8129L357.452 30.928C342.514 32.8073 327.889 34.9754 313.62 37.4165L273.06 45.3189L233.051 57.712C164.907 83.2958 122.758 118.64 122.758 157.679C122.758 196.719 164.907 232.062 233.051 257.647L236.529 258.834L377.792 28.8129ZM499.323 0L499.419 0.00213219L539.491 0.814215L541.009 0.907321L550.376 1.11116C802.164 12.1321 998.647 103.782 998.647 215.211C998.647 274.64 942.758 328.442 852.398 367.388L833.364 374.844L892.359 470.907L717.7 445.337L699.156 412.373L693.682 413.509C633.944 424.399 568.265 430.422 499.323 430.422C430.382 430.422 364.702 424.399 304.965 413.509L299.492 412.373L280.947 445.337L106.288 470.907L165.283 374.844L146.249 367.388C55.889 328.442 -6.10352e-05 274.64 -6.10352e-05 215.211C-6.10352e-05 103.782 196.483 12.1321 448.271 1.11116L457.637 0.907321L459.156 0.814215L499.231 0.00199005L499.323 0Z" fill="black"/>
</svg>
