<svg width="1000" height="1000" viewBox="0 0 1000 1000" fill="none" xmlns="http://www.w3.org/2000/svg">
<path d="M996.042 407.667H663.333V343.583C663.339 342.721 663.174 341.866 662.847 341.067C662.521 340.269 662.04 339.543 661.432 338.931C660.824 338.319 660.101 337.833 659.305 337.502C658.508 337.171 657.654 337 656.792 337H343.25C342.387 337 341.533 337.171 340.737 337.502C339.94 337.833 339.217 338.319 338.609 338.931C338.001 339.543 337.52 340.269 337.194 341.067C336.868 341.866 336.703 342.721 336.708 343.583V407.667H98.2499C94.6249 407.667 90.2082 410.583 88.3749 414.25L0.833232 585.75C-1.04177 589.417 0.374899 592.292 4.04157 592.292H336.667V656.458C336.667 660.042 339.583 663 343.208 663H656.75C660.375 663 663.292 660.083 663.292 656.458V592.292H901.75C905.375 592.292 909.792 589.375 911.667 585.75L999.167 414.25C1001.04 410.625 999.625 407.667 996 407.667H996.042ZM892.083 449.167L840.25 550.708H622.25V621.875H377.917V550.708H108.125L160 449.167H378V378.042H622.333V449.167H892.083Z" fill="black"/>
</svg>
