<svg width="1000" height="1000" viewBox="0 0 1000 1000" fill="none" xmlns="http://www.w3.org/2000/svg">
<path d="M313.134 500.036C313.134 603.072 396.961 686.892 500 686.892C603.033 686.892 686.852 603.069 686.852 500.036C686.852 397 603.033 313.174 500 313.174C396.961 313.174 313.134 397 313.134 500.036Z" fill="black"/>
<path d="M930.272 253.38C931.728 250.82 931.702 247.675 930.197 245.141C886.672 171.836 824.731 110.433 751.072 67.5704C675.154 23.3901 588.331 0.0393066 500 0.0393066C347.131 0.0393066 204.666 68.6426 109.131 188.259C107.023 190.895 106.748 194.551 108.436 197.472L249.19 441.259C250.666 443.816 253.387 445.357 256.285 445.357C256.653 445.357 257.026 445.331 257.397 445.282C260.695 444.833 263.393 442.433 264.226 439.21C291.98 331.672 388.934 256.567 500 256.567C506.892 256.567 514.01 256.882 521.164 257.492C521.397 257.515 521.633 257.525 521.866 257.525H923.148C926.095 257.525 928.816 255.944 930.272 253.38Z" fill="black"/>
<path d="M573.885 737.495C571.849 734.862 568.433 733.731 565.21 734.623C544.039 740.518 522.102 743.505 500 743.505C406.095 743.505 319.548 688.43 279.505 603.197C279.407 602.987 279.298 602.784 279.184 602.58L78.3967 254.816C76.9344 252.275 74.2262 250.718 71.2984 250.718C71.2852 250.718 71.2689 250.718 71.2557 250.718C68.3115 250.734 65.6 252.325 64.1574 254.888C22.1869 329.364 0 414.134 0 500.036C0 620.544 43.4754 736.947 122.416 827.803C200.574 917.754 308.174 976.951 425.403 994.492C425.81 994.554 426.216 994.58 426.62 994.58C429.515 994.58 432.236 993.039 433.715 990.482L574.505 746.62C576.17 743.734 575.925 740.128 573.885 737.495Z" fill="black"/>
<path d="M957.951 312.216H676.069C672.738 312.216 669.738 314.233 668.482 317.315C667.223 320.397 667.954 323.938 670.331 326.266C717.495 372.502 743.469 434.213 743.469 500.036C743.469 549.866 728.433 597.82 699.984 638.718C699.852 638.908 699.731 639.102 699.616 639.302L498.482 987.669C497.01 990.22 497.02 993.364 498.505 995.908C499.977 998.423 502.672 999.964 505.58 999.964C505.61 999.964 505.643 999.964 505.672 999.964C638.033 998.489 762.239 945.829 855.406 851.695C948.649 757.482 1000 632.593 1000 500.036C1000 437.029 988.42 375.59 965.58 317.42C964.348 314.279 961.321 312.216 957.951 312.216Z" fill="black"/>
</svg>
