<svg width="1000" height="1000" viewBox="0 0 1000 1000" fill="none" xmlns="http://www.w3.org/2000/svg">
<g clip-path="url(#clip0_9_477)">
<path d="M774.375 439.083C723.333 395.375 571.875 271 500 271C428.083 271 276.667 395.292 225.708 439.042C225.375 428.708 225.083 422.417 225.083 413.208C225.083 413.208 223.833 398.042 237.292 382.833C347.875 282.625 463.833 233.583 467.417 232.083C502 217.5 500.042 220.25 500 161.583C500 161.583 501.542 161.5 502.5 161.583C551.25 166 682.125 293.042 759.583 378.958C759.75 379.083 774.917 396.625 774.917 415.125C774.917 423.792 774.625 432.333 774.375 439.083ZM772.292 367.417C764.042 358.25 570.208 144.25 500 144.25C429.833 144.25 235.958 358.25 227.75 367.375C226.917 368.292 208 389.875 208 415.125C208 434.75 209.292 454.542 209.333 454.708C209.333 455.625 209.792 463.958 214.458 466.25C215.199 466.609 216.011 466.794 216.833 466.792C218.944 466.655 220.957 465.853 222.583 464.5C224.667 462.667 422.167 288.208 500 288.208C577.833 288.208 775.333 462.667 777.333 464.458C778.983 465.832 781.025 466.649 783.167 466.792C784 466.792 784.833 466.625 785.583 466.25C790.167 463.958 790.667 455.625 790.708 454.667C790.708 454.542 792 434.75 792 415.125C792 389.917 773.083 368.292 772.292 367.375V367.417ZM774.625 642.792C723.583 599.042 571.958 474.542 500 474.542C428 474.542 276.458 599 225.417 642.792C225.125 632.458 224.833 626.125 224.833 616.958C224.833 616.958 223.583 601.75 237.042 586.542C347.75 486.208 463.792 437.125 467.375 435.625C501.958 421.042 500.042 423.75 500 365.042C500 365.042 501.542 364.958 502.5 365.042C551.25 369.458 682.292 496.667 759.875 582.625C760 582.792 775.167 600.333 775.167 618.875C775.167 627.5 774.917 636.083 774.625 642.833V642.792ZM772.542 571.042C764.333 561.917 570.25 347.708 500 347.708C429.75 347.708 235.667 561.917 227.458 571.042C226.625 571.958 207.708 593.625 207.708 618.833C207.708 638.5 209 658.292 209.042 658.458C209.042 659.375 209.5 667.75 214.167 670C214.915 670.382 215.743 670.582 216.583 670.583C218.678 670.433 220.674 669.631 222.292 668.292C224.375 666.417 422.083 491.792 500 491.792C577.917 491.792 775.625 666.417 777.625 668.167C779.267 669.566 781.308 670.412 783.458 670.583C784.292 670.583 785.125 670.375 785.875 670C790.458 667.75 790.958 659.375 791 658.417C791 658.292 792.292 638.5 792.292 618.833C792.292 593.625 773.375 571.958 772.542 571.042ZM632.958 841.542H632.917C627.696 841.694 622.471 841.694 617.25 841.542C599.958 841.542 581.292 828.417 581.292 807.208C581.292 786.208 599.583 773.625 617.125 773.625C617.375 773.625 625.917 773.208 632.958 773.625C650.667 773.625 668.958 786.208 668.958 807.208C668.958 828.417 650.292 841.542 633 841.542H632.958ZM649.833 760.375C625.25 759.833 600.25 760.375 600.083 760.375C570.083 760.375 545.625 781.333 545.625 807.042C545.625 833.208 570.042 854.458 600.083 854.458C600.292 854.458 625.25 854.958 649.875 854.458C679.958 854.458 704.417 833.208 704.417 807.083C704.417 781.583 680.458 761.083 649.833 760.417V760.375ZM969.417 853.25H1000V808.417C1000 782.25 976.667 761.708 946.917 761.708H869.5C868.25 761.708 865.25 762 865.25 765.125V849.792C865.25 852.042 866.917 853.25 868.542 853.25H900.917V782.417C900.894 781.801 900.996 781.187 901.217 780.611C901.437 780.036 901.771 779.511 902.199 779.067C902.627 778.624 903.139 778.271 903.707 778.031C904.274 777.79 904.884 777.666 905.5 777.667H941.208C951.042 777.667 965.667 786.708 965.667 806.125V849.708C965.667 849.708 965.75 853.25 969.417 853.25ZM323.208 779.875H371V765.292C371 763.25 369.542 761.708 367.583 761.708H234.458C233.997 761.708 233.54 761.8 233.115 761.979C232.69 762.158 232.305 762.421 231.983 762.751C231.661 763.081 231.408 763.472 231.239 763.901C231.07 764.33 230.989 764.789 231 765.25V779.833L262.833 779.875C274.75 779.875 282.792 790.167 282.792 799.792V849.792C282.792 851.458 284.25 853.25 286.292 853.25H318.583V784.583C318.583 782 320.667 779.917 323.25 779.917L323.208 779.875ZM176.083 849.833C176.083 851.875 177.917 853.292 179.583 853.292H181.417L181.167 853.542C182.083 853.292 185.208 853.292 196.042 853.292H211.875V765.208C211.875 764.287 211.512 763.403 210.865 762.748C210.217 762.093 209.338 761.719 208.417 761.708H179.583C178.658 761.719 177.774 762.091 177.12 762.745C176.466 763.4 176.094 764.283 176.083 765.208V849.833ZM425.833 804.625V786.292C425.833 781.292 429.375 777.833 434.417 777.833H481.917C489.125 777.833 495.25 783.917 495.25 791.167C495.25 794.736 493.832 798.159 491.308 800.683C488.784 803.207 485.361 804.625 481.792 804.625H425.833ZM495.333 853.333H530.833C530.292 831.333 507.5 822.208 504.875 821.25L504.458 821.042V819.792L504.917 819.708C520.167 816.292 530.75 804.583 530.75 791.208C530.75 777.042 517 761.708 494.667 761.708H408.792C406.332 761.691 403.895 762.166 401.621 763.104C399.348 764.043 397.285 765.426 395.554 767.173C393.823 768.919 392.458 770.994 391.54 773.276C390.622 775.557 390.169 777.999 390.208 780.458V849.792C390.191 850.247 390.267 850.701 390.432 851.125C390.598 851.55 390.848 851.936 391.168 852.26C391.488 852.585 391.871 852.84 392.294 853.01C392.717 853.18 393.17 853.262 393.625 853.25L425.875 853.292L425.833 820.792H456.25C483.333 820.792 494.5 840.5 495.333 853.292V853.333ZM121.792 792.5H156.583C149.042 773.333 128.167 760.167 104.208 759.708L93.5417 759.5C80.5169 759.012 67.4772 759.081 54.4583 759.708C37.375 760.583 26.5417 764.5 16 773.792C11.0669 777.912 7.08299 783.05 4.32132 788.854C1.55965 794.658 0.0855339 800.99 0 807.417C0 833.583 23.1667 854.167 53.8333 855.208C74.875 855.958 77.1667 856 104.75 855.208C130.292 854.375 148.625 842.708 156.542 822.458H121.792C121.182 822.433 120.577 822.579 120.046 822.881C119.515 823.183 119.081 823.629 118.792 824.167C115.562 829.609 110.961 834.109 105.448 837.216C99.935 840.324 93.7032 841.93 87.375 841.875C80.25 842.167 71.625 841.875 71.625 841.875C53.9583 841.875 35.6667 829.042 35.6667 807.583V807.375C35.7917 786.042 54 773.292 71.7083 773.25C73.7083 773.167 80.8333 772.958 87.375 773.25C100.25 773.25 112.625 780.125 118.875 790.75C119.083 791.167 119.958 792.458 121.792 792.458V792.5ZM846.125 836.833H761.958C759.125 836.833 757.125 834.958 757.125 832.25V814.792H830.042V798.75H757.125L757.083 782.792C757.083 782.708 757.042 781 758.333 779.667C759.292 778.667 760.708 778.167 762.5 778.167H846.083V765.333C846.114 764.869 846.048 764.404 845.89 763.967C845.733 763.529 845.486 763.129 845.167 762.792C844 761.667 842.125 761.75 842 761.75H724.917C724.542 761.75 721.375 761.833 721.375 765.333V834.667C721.375 843.833 728.375 853.292 740.125 853.292H842.625C843.458 853.292 844.333 852.917 845.042 852.292C845.378 851.984 845.647 851.611 845.834 851.196C846.02 850.78 846.119 850.33 846.125 849.875V836.833ZM819.958 728.625C816.209 726.396 811.902 725.283 807.542 725.417C803.198 725.309 798.911 726.42 795.167 728.625C791.875 730.667 789.292 733.417 785.417 733.417C781.542 733.417 779.208 730.667 775.75 728.625C771.996 726.445 767.716 725.335 763.375 725.417C759.016 725.29 754.71 726.402 750.958 728.625C747.542 730.708 745.833 733.25 745.833 736.208C745.833 739.208 747.542 741.75 750.958 743.833C754.417 745.958 758.542 747 763.375 747C767.592 747.132 771.766 746.124 775.458 744.083C778.583 742.208 781.917 739.083 785.417 739.083C788.917 739.083 792.083 741.875 795.167 743.833C798.925 745.999 803.205 747.094 807.542 747C812.542 747 816.708 745.958 820.042 743.833C823.375 741.75 825.042 739.208 825.042 736.208C825.042 733.292 823.375 730.708 819.958 728.625Z" fill="black"/>
</g>
<defs>
<clipPath id="clip0_9_477">
<rect width="1000" height="1000" fill="white"/>
</clipPath>
</defs>
</svg>
