<svg width="1000" height="1000" viewBox="0 0 1000 1000" fill="none" xmlns="http://www.w3.org/2000/svg">
<g clip-path="url(#clip0_5_147)">
<path d="M384.011 621.912C346.801 597.942 296.303 593.736 214.863 616.331C128.041 636.734 99.0938 649.812 61.0775 623.557C46.4725 610.66 41.2363 589.894 45.1463 559.981C54.215 511.219 78.7225 464.292 122.255 412.24C146.553 385.162 169.092 361.925 198.854 352.594C221.664 346.74 219.531 364.666 216.771 367.23C213.859 367.23 208.966 367.689 205.185 370.156C202.116 372.536 193.692 380.221 193.24 390.559C192.587 406.384 208.964 403.09 216.028 394.401C223.641 384.61 234.894 365.86 226.043 348.385C222.333 342.165 215.923 337.866 207.964 336.402C180.711 334.845 155.331 347.836 131.906 362.199C80.6788 397.785 39.7 447.095 16.5125 501.07C3.14501 533.636 -8.94499 580.286 9.17626 618.255C23.1963 644.6 52.3 658.594 87.0238 655.667C111.378 653.109 140.826 645.237 160.632 640.485C180.44 635.724 281.825 600.874 315.138 661.53C315.138 661.53 326.215 640.026 353.899 639.567C376.659 637.467 409.494 646.156 433.404 663.717C425.438 651.737 402.853 634.081 384.011 621.912V621.912Z" fill="black"/>
<path d="M225.2 418.369C206.237 405.928 168.125 429.713 137.599 470.511C109.684 507.108 97.63 549.641 110.749 569.31C130.261 592.454 166.487 558.79 181.892 540.771L183.88 538.665C194.356 527.412 202.449 513.872 210.284 500.88C210.284 500.88 217.484 488.987 217.827 488.437C222.277 487.617 227.637 486.336 233.677 484.597C233.591 484.87 210.569 523.567 212.917 542.775C213.649 548.635 213.091 570.041 233.99 576.535C261.845 581.204 284.087 559.611 303.71 540.4C303.71 540.4 307.054 537.201 308.945 535.375C308.466 537.29 307.842 539.846 307.842 539.846C299.687 568.206 310.68 574.157 317.556 576.352C338.337 582.395 363.164 552.204 363.245 552.204C362.6 561.714 360.719 569.58 370.744 575.894C380.205 579.281 389.781 574.116 397.061 569.267C423.28 550.79 444.403 521.867 461.463 496.869H450.58C450.451 496.869 423.727 535.604 406.374 544.022C406.346 544.022 403.187 545.644 401.369 544.361C399.115 542.44 400.004 538.444 401.395 535.614C401.482 535.43 468.4 419.369 468.4 419.369H436.805C436.805 419.369 433.354 424.953 433.073 425.319C432.86 425.136 432.354 424.176 432.004 423.716C412.429 396.639 368.1 438.289 334.726 486.589C321.877 505.161 305.519 526.072 288.556 541.166C288.556 541.166 263.426 564.201 252.69 547.651C248.765 540.697 249.972 530.531 252.186 523.855C264.687 488.267 286.229 455.971 310.742 436.485C317.661 431.091 325.184 429.531 328.915 431.819C332.472 433.926 333.046 439.136 330.796 442.705C325.087 442.522 320.512 444.258 316.795 448.1C309.47 455.785 306.925 463.196 309.254 470.15C320.567 486.25 343.131 454.414 342.04 435.02C341.65 428.066 337.941 421.481 332.404 418.276C324.152 413.339 311.565 414.617 303.419 418.554C292.512 422.669 275.251 437.03 265.175 448.192C252.49 462.191 230.734 477.741 223.931 476C226.155 470.053 244.531 432.455 225.2 418.369V418.369ZM377.526 473.989C383.672 465.482 401.561 442.703 405.922 438.861C420.59 425.958 426.452 431.635 426.96 435.657C413.271 460.174 397.115 488.26 381.925 513.51C381.956 513.42 377.171 520.736 377.171 520.736C370.462 530.979 363.707 539.762 352.689 545.89C351.117 546.351 348.527 546.535 346.804 545.249C344.729 543.876 343.91 541.589 344.144 539.21C344.805 531.345 352.812 507.29 377.526 473.989V473.989ZM205.645 488.716C205.645 488.716 205.369 489.543 205.234 489.813C205.199 489.813 191.457 512.222 191.457 512.222C183.165 523.294 172.811 537.202 159.869 543.877C156.032 545.157 150.729 545.984 148.026 542.601C142.297 535.739 145.25 526.224 147.649 518.541L148.499 515.796C155.376 497.136 166.287 480.666 176.91 465.389C177.042 465.299 177.34 465.207 177.447 465.207C177.474 465.299 177.516 465.299 177.534 465.482C184.199 478.287 196.696 484.231 206.042 486.98C206.099 486.98 206.16 487.071 206.16 487.255C206.161 487.527 206.009 487.896 205.645 488.716V488.716ZM218.662 462.281C218.601 462.464 212.542 476.369 212.542 476.369C211.666 477.1 210.281 476.735 208.694 476.369L205.974 475.909C197.432 473.258 190.99 467.585 189.004 460.816C186.265 447.643 197.519 437.305 202.476 433.556C207.234 430.26 214.63 428.522 218.925 431.909C221.574 435.02 222.577 439.044 222.577 443.437C222.579 449.381 220.744 456.059 218.662 462.281ZM618.088 504.725C615.04 498.14 607.809 493.931 600.101 494.387C575.072 496.676 550.591 517.259 537.736 546.805C530.991 561.992 527.31 574.524 524.896 594.466C532.68 585.504 548.555 570.776 566.57 562.725C566.57 562.725 569.021 543.606 581.521 526.59C586.251 519.544 595.716 508.201 606.345 511.219C615.632 514.33 612.367 540.037 600.025 564.915C590.892 583.214 576.917 601.515 562.777 614.136C550.276 624.747 531.78 637.555 515.597 627.676C505.405 621.641 500.206 609.012 501.304 592.73C506.174 546.534 527.204 507.196 557.298 462.371C588.328 420.748 622.532 378.026 668.611 355.244C678.01 350.487 686.714 349.39 694.238 352.317C694.238 352.317 650.982 376.103 630.364 420.106C625.119 431.269 617.824 446.359 625.17 459.716C629.009 466.667 635.824 467.217 641.312 466.851C666.586 460.995 682.915 437.394 696.256 415.806C703.991 399.431 710.866 383.147 710.866 365.034C710.866 362.839 710.752 359.912 710.567 357.715C722.641 351.314 747.402 362.655 747.402 362.655C766.751 369.061 807.95 400.624 821.848 406.659C828.626 398.792 839.766 386.901 846.04 380.954L836.959 375.372C822.421 366.499 807.055 358.081 791.931 349.757C757.582 331.006 729.623 337.591 715.394 342.715C709.801 344.726 704.691 346.465 704.691 346.465C694.131 334.939 676.811 336.034 664.05 339.146C618.157 352.319 575.549 384.428 529.868 440.141C496.283 483.779 475.45 521.47 464.346 558.701C455.787 583.766 453.186 620.632 474.076 642.497C491.837 661.064 515.389 657.041 532.019 650.366C568.052 632.619 600.439 594.377 616.576 550.374C620.471 537.294 624.793 518.815 618.088 504.725V504.725ZM700.946 366.865C696.176 421.571 653.653 453.684 643.13 456.241C636.754 457.52 625.874 454.686 635.588 431.728C649.89 400.804 674.311 374.551 700.511 361.102C701.15 363.39 701.133 364.85 700.946 366.865V366.865ZM953.194 373.815C930.32 386.807 906.607 395.221 877.905 392.295C869.951 401.262 862.205 410.501 855.066 420.014C895.352 430.26 938.061 407.481 961.881 385.802C987.08 363.937 1000 336.404 1000 336.404C1000 336.404 981.112 357.991 953.194 373.815ZM520.911 419.371H490.906L473.981 446.871H503.98L520.911 419.371Z" fill="black"/>
<path d="M877.785 624.459C874.559 626.654 870.026 624.966 871.72 619.936C875.943 607.129 892.725 581.029 892.725 581.029L939.47 498.121H907.451C905.929 500.621 902.675 506.361 902.675 506.361C901.194 503.894 896.764 498.407 894.94 497.221C887.118 492.277 875.641 494.615 867.724 499.096C833.3 519.225 808.184 558.994 788.375 590.007C788.375 590.007 767.524 624.482 755.95 627.046C746.914 627.779 747.846 615.606 748.238 612.77C751.731 592.275 759.845 572.791 768.019 555.135C784.646 543.609 803.62 528.515 820.864 511.957C858.286 476.185 889.835 435.659 894.446 426.602C894.446 426.602 889.455 427.61 883.561 427.791C854.771 467.951 795.856 526.319 777.995 535.007C785.908 515.975 837.03 425.137 880.533 381.685L887.379 375.096C897.965 364.759 908.933 354.147 917.48 352.409C918.383 352.317 919.545 352.409 920.549 354.516C920.93 362.565 917.934 368.512 914.496 375.281L909.679 385.162C909.679 385.162 916.503 383.881 920.985 382.414C926.184 372.63 931.944 361.649 929.82 348.57C929.113 344.361 926.065 341.16 922.084 340.427C909.106 337.957 894.964 347.56 883.583 355.339L883.124 355.611C824.621 401.444 775.222 467.494 732.033 557.695C728.903 560.07 716.809 562.909 714.754 561.535C719.019 552.755 724.389 540.951 727.075 528.144C727.54 524.483 727.973 520.735 727.973 517.076C727.973 509.202 726.083 501.795 719.03 496.675C710.76 492.557 700.539 494.48 693.646 497.587C662.775 510.395 639.701 542.05 623.05 568.119C614.095 584.681 605.166 602.42 602.694 622.732C600.953 638.647 604.498 648.895 613.548 654.019C622.853 658.772 634.565 653.831 639.166 651.455C670.443 634.988 692.296 601.965 709.521 571.775C710.206 571.685 719.611 571.413 726.726 569.58C726.82 569.58 726.86 569.58 727.018 569.675C726.61 571.042 722.934 582.024 722.934 582.024C712.016 614.039 706.967 635.814 717.28 648.711C732.016 666.916 756.414 648.074 776.26 623.186C772 653.007 787.455 657.676 799.238 655.391C812.771 651.734 827.853 637.276 834.851 629.869C832.604 638.557 833.214 654.113 845.526 655.665C853.964 657.225 860.28 652.635 867.586 648.7C893.797 634.427 925.174 586.869 933.32 573.119H922.639C911.058 590.622 896.321 613.568 877.785 624.459V624.459ZM642.513 621.274C640.85 618.803 640.299 616.102 640.244 613.182C639.925 595.244 659.225 563.121 672.846 545.621H672.875C678.583 558.121 691.51 566.156 699.314 569.543C689.623 591.134 656.381 637.374 642.513 621.274V621.274ZM704.785 559.89C703.863 560.535 687.561 555.043 684.41 539.949C681.738 526.954 690.686 516.8 699.344 511.682C703.06 508.752 708.658 507.75 712.764 509.208C716.575 511.774 717.608 516.351 717.608 521.283C717.608 524.308 717.206 527.415 716.853 530.25L716.775 530.892C714.045 541.035 710.015 550.781 704.785 559.89V559.89ZM835.531 615.511C835.518 615.511 832.438 618.255 832.438 618.255C828.04 622.187 823.515 626.395 818.053 624.29C816.544 623.742 815.483 621.731 815.228 620.171C814.979 608.919 820.045 598.492 824.96 588.339L826.22 585.685C840.355 562.084 856.785 534.274 880.915 514.974C884.981 512.04 889.394 509.575 894.051 511.498C895.123 512.503 896.37 514.241 896.37 515.978C896.37 516.529 895.88 517.991 895.599 518.447C888.859 529.339 882.441 540.771 876.2 551.749C864.003 573.43 851.349 595.839 835.531 615.511V615.511Z" fill="black"/>
</g>
<defs>
<clipPath id="clip0_5_147">
<rect width="1000" height="1000" fill="white"/>
</clipPath>
</defs>
</svg>
