<svg width="1000" height="1000" viewBox="0 0 1000 1000" fill="none" xmlns="http://www.w3.org/2000/svg">
<g clip-path="url(#clip0_12_623)">
<path d="M31.6667 508.333L28.3333 506.666C20.8333 502.5 15 496.25 10.8333 488.333C5 477.5 2.5 467.5 2.5 457.083L3.33333 451.666C3.33333 443.333 5.41667 435.833 9.16667 428.75L12.5 422.5C14.1667 419.166 16.6667 416.25 18.75 413.333C21.25 410.416 21.6667 406.666 20.8333 403.333L18.75 396.666C16.25 388.333 14.5833 380 14.5833 371.666L13.3333 366.666C13.3333 357.5 15.8333 348.333 21.6667 341.666L25.8333 336.25C28.75 332.083 33.3333 329.583 38.3333 327.916C42.5 326.666 45.4167 322.5 45.8333 317.5L46.6667 303.333C46.6667 292.083 52.0833 281.666 60.4167 274.166L70.4167 266.666C72.5 264.583 74.5833 262.5 76.25 259.166C78.3333 256.666 78.75 253.333 78.3333 250.833C77.5 246.666 78.3333 245.416 80.4167 245C87.0833 247.5 91.25 246.666 94.1667 243.333L99.5833 236.25L114.583 219.583C118.75 215.416 120.417 207.916 117.917 202.083L112.917 191.25C112.083 188.75 112.917 185.833 115 185C120.417 185 124.167 187.083 125.833 190.416L127.5 193.333C130 198.333 135.833 200.833 140 198.75C149.167 195.416 156.667 194.583 163.75 194.583H177.083C186.25 194.583 193.75 188.333 195.417 178.75C197.083 167.083 201.25 157.916 207.083 151.666C213.333 144.583 220.417 139.166 228.75 135C239.583 129.166 246.25 120.833 248.333 110C251.25 96.6664 258.333 87.083 267.917 80.833L299.583 62.9163L308.75 57.4997C314.167 54.1663 319.167 49.9997 323.333 44.9997L331.667 34.9997C335.833 30.833 340 27.9163 345 26.6663C349.167 25.4163 355 24.583 360 24.9997L376.667 26.2497C385 26.2497 391.667 28.333 398.333 31.2497L402.5 33.333C406.667 34.9997 410.833 34.1663 412.917 31.2497L416.667 29.1663L434.583 10.4163C438.75 6.24967 443.75 4.58301 449.167 5.41634C454.583 6.24967 460 8.33301 465 10.833C472.5 14.9997 478.75 16.6663 485.833 16.6663H490C499.167 16.6663 508.333 17.9163 517.5 19.9997L523.75 21.6663C530 23.333 536.25 20.833 540.417 15.833C541.667 13.7497 544.583 13.333 546.25 14.9997C547.5 15.833 547.917 16.6663 548.333 17.9163C549.167 26.2497 554.167 32.4997 560.833 34.583L567.5 36.6663C574.583 38.7497 580.833 43.333 585 49.1663C589.167 55.4163 594.167 61.6663 600 65.833L604.167 69.9997C608.333 74.1663 614.167 75.833 620 75.4163H644.583C654.583 75.4163 664.167 77.083 673.75 81.2497C682.917 85.4163 692.5 86.2497 701.25 82.9163C710.417 79.9997 720 78.7497 729.583 79.9997L747.5 82.9163C755.833 83.7497 764.167 87.9163 769.167 94.1663L771.25 96.2497C775.417 100.416 779.583 105.833 783.75 111.666C786.25 117.083 792.083 120 797.917 120H823.75C830 120 836.25 121.25 841.25 124.166C846.667 128.333 851.25 132.5 855.417 136.666L859.583 142.083C864.583 147.916 867.083 155.833 866.667 164.166C866.667 170.833 871.667 176.666 878.333 176.666L886.667 177.5C892.5 177.5 897.5 181.666 900.417 187.083L904.583 195.416L915.417 219.583C917.083 223.75 917.5 227.916 917.083 231.25C917.083 235.416 918.333 238.75 921.25 240.416L925.417 243.333C930.833 247.5 933.75 253.75 932.917 260.833L930 280.416L929.167 288.75C928.333 292.916 930.417 298.333 934.167 301.25C940.417 305.416 943.333 310.833 943.75 317.083V325.416C943.75 329.583 942.917 334.583 939.583 337.916C937.083 341.25 935.417 345.416 935.417 350.416L936.667 360C936.667 366.666 940.833 372.5 945 376.666C950.833 380.833 954.167 387.5 955 394.166C956.667 404.583 957.083 412.916 957.083 421.25V430.833C957.083 434.166 957.083 437.5 958.333 440.833C959.167 443.75 961.25 446.666 963.75 448.333L972.083 454.583C980.417 460 986.25 467.083 989.583 476.666C993.75 485.833 995 495.416 995 505V508.333C995 515.833 994.167 523.75 991.667 530.833C989.583 538.333 990 545.416 992.917 551.666C996.25 557.5 998.333 564.166 999.167 571.25C1000.83 579.583 1000 587.916 997.083 594.583L996.25 597.5C994.167 602.5 990.833 607.083 986.667 610.833C982.5 615 978.333 617.5 975.833 620.416C973.333 622.916 971.667 627.083 972.917 630.833L974.167 636.666C976.25 645 976.25 653.333 974.167 660.833V664.166C972.5 670.416 970 675.833 967.5 680.833C964.583 686.25 960.417 690.416 955 693.333L948.75 697.5C945.833 699.166 943.75 702.916 943.75 706.666C943.75 710.833 942.083 715 939.583 717.5L933.333 725.833C929.167 731.25 923.75 735.833 917.917 738.333C912.083 742.5 907.083 746.666 903.333 750.833C899.167 755.833 895.833 761.666 894.167 767.5C892.5 775 886.667 779.166 880.417 779.166H857.917C852.083 779.166 846.667 783.333 844.167 788.333C841.25 795 838.333 799.583 834.583 803.75C830.417 807.916 827.917 812.916 826.25 818.75C825.417 823.75 821.25 827.083 817.083 825.416C811.667 822.916 806.25 825.416 803.75 829.583C798.75 837.916 793.75 844.166 788.333 849.583L785.417 852.083C780 856.25 772.917 859.583 766.667 859.583C759.167 859.583 755.417 862.916 754.167 867.916C752.917 872.083 752.083 877.5 751.667 882.083C750.833 887.083 749.167 891.666 747.5 895.833L745.417 898.333C741.25 904.583 737.917 910.833 733.75 916.25L732.083 918.75C726.667 925.833 719.583 931.25 711.25 933.333C701.25 936.666 692.5 937.5 683.75 937.5H677.917C673.75 937.5 669.583 940 666.667 944.166L664.167 948.333L661.667 953.333L656.25 962.5C652.083 970 645.833 975 637.5 977.5C629.167 979.583 619.583 980.416 610.833 980L604.167 979.166C598.333 979.166 592.917 977.5 587.5 975C583.333 973.333 577.5 975 575 979.166C570.833 985 565.833 988.333 560.417 990L547.917 994.166C539.583 996.25 530.417 996.25 521.667 994.166L515 992.083C510.833 992.083 506.667 990 503.333 987.916C499.167 985.833 495 985 490.833 985.416L485.417 986.25C477.083 987.083 469.583 986.25 462.083 984.166L450.833 981.666C445.833 980 441.25 976.666 438.333 972.083C436.25 967.916 431.667 964.583 425.833 963.75H412.5C404.167 962.5 396.667 959.583 391.667 953.333L375 937.5L369.167 932.5L360 925.833L354.583 921.666C348.333 917.5 340.833 914.166 332.917 913.333L307.917 909.166C305.417 909.166 303.75 908.333 301.25 907.916L291.667 905.833C287.5 905 283.333 901.666 280.417 897.5C277.917 893.333 273.333 891.666 269.167 893.333C260.833 896.666 254.167 897.5 247.5 898.75H241.667C230.833 899.583 220.833 897.916 210.833 893.333C200.833 889.166 194.167 882.916 187.917 875C182.917 867.916 175.417 862.5 166.25 860.833L154.583 858.333C146.25 856.666 137.917 853.333 130.417 848.333C122.083 842.5 117.917 837.083 114.583 830.416C111.25 824.166 109.167 817.083 108.75 809.583V806.25C107.917 797.916 102.083 790.416 94.1667 788.333C84.5833 785.416 77.5 781.25 71.25 775.833C65.4167 770.416 62.0833 762.5 62.0833 754.166L62.9167 735.833C62.9167 728.75 60.8333 722.5 55.8333 717.916C50.8333 712.916 47.5 706.666 47.5 700L46.25 685C45.4167 674.166 43.3333 663.333 40.8333 652.5C38.3333 642.916 42.0833 633.333 50 628.75L52.9167 626.666C57.0833 623.75 58.75 618.333 56.25 613.333L52.9167 609.166C48.75 605 44.5833 602.083 40.4167 600.833C37.0833 600 36.25 596.666 36.25 594.583L40.4167 589.583C42.9167 586.666 42.5 582.083 40.4167 579.583C37.0833 576.25 35.4167 572.083 35 567.916L34.1667 538.75C34.1667 532.916 35 527.083 36.6667 521.25C38.3333 516.25 36.6667 510.416 31.6667 507.916V508.333ZM444.167 453.333C447.083 450.416 446.667 445 444.167 442.916C440 439.583 437.083 435.833 434.583 431.666L430.417 425C427.5 419.583 423.75 415 419.583 410.833L418.75 410C414.583 406.666 411.667 402.5 409.167 397.5C407.083 393.333 407.083 389.166 409.167 385L411.667 380.833C414.167 376.666 415.833 370.833 415.833 365.833V364.166C415.833 360 414.167 355.833 411.667 351.666C410 348.333 408.333 344.166 407.5 340V337.5C406.25 332.5 407.5 327.083 410.833 322.916C414.167 317.5 416.667 312.5 417.917 306.25V305.416C419.583 301.25 418.75 295.833 416.25 291.666C413.75 287.5 412.917 283.333 414.583 278.333L417.5 270C420 262.5 423.75 255.833 428.75 250L434.583 243.75L438.75 238.75L441.25 236.25C443.75 233.75 444.167 229.583 442.083 226.25C440 222.083 438.75 217.916 439.583 213.75L440.417 207.916C441.667 199.583 444.583 191.25 450 184.583L451.667 182.916C457.917 174.583 465.833 169.166 475 166.25L486.25 162.083C491.25 160.416 494.583 155 494.583 149.583C494.583 142.916 496.667 137.083 500.417 131.666L502.5 129.583C506.667 122.5 511.667 115.416 515 107.916L517.917 102.5C518.75 101.25 519.167 99.583 519.167 98.333C519.167 91.2497 515 84.9997 508.333 84.583L490 83.333C479.583 82.4997 469.167 83.333 459.167 83.333L423.75 87.4997C418.333 87.4997 414.167 91.6663 413.75 97.4997C413.75 103.333 409.583 108.333 404.583 110L389.583 114.166L385.417 115.416L372.917 119.583C363.75 122.5 356.25 129.166 352.083 138.333L348.75 143.75C344.583 152.916 337.5 160.416 328.75 165.833C320.417 171.25 316.25 180 315.417 190V194.166C314.583 202.5 312.083 210.833 307.083 216.666L305 220C301.667 224.166 300.833 229.583 302.917 234.166C305 239.166 306.25 244.583 305.833 250V272.083C305.833 277.916 301.667 282.916 297.5 284.583C291.667 286.666 287.917 291.25 286.25 297.083L284.167 305.416C282.5 313.75 285.417 322.083 292.5 327.083C299.167 332.083 303.333 339.583 305 348.75V356.25C306.25 364.583 310.833 372.916 318.333 377.083C325.833 382.083 331.667 389.583 335 397.916L337.083 404.583C340.417 413.75 347.917 419.166 356.25 420H358.75C366.25 420 372.917 424.166 377.083 430.833C381.25 437.5 387.917 442.083 395.417 443.333L407.083 446.666C414.167 448.75 420.833 452.5 426.25 457.916L427.083 458.75C431.25 462.083 437.917 461.666 441.667 457.083L444.583 453.75L444.167 453.333ZM491.667 415C495.833 417.5 500 416.25 501.667 412.5L502.917 410.416C505.833 404.583 509.583 398.75 513.75 393.75L522.083 381.25C523.333 381.25 523.75 380.416 524.167 379.583L534.167 366.25C538.333 362.083 543.333 359.166 549.167 359.166C554.583 359.166 559.167 356.25 561.667 350.833C563.333 345 565.833 339.583 570.833 335L572.917 332.5C577.083 328.333 581.25 326.25 585.417 324.166C590.833 323.333 595.833 322.5 600.833 322.5H613.333C618.333 322.5 622.5 320.416 625 316.25C627.5 312.083 631.25 309.166 635.417 307.083L639.583 305.416C646.25 302.5 653.75 300.416 661.25 299.583L669.583 298.75C674.583 298.75 680 298.75 685 301.666C689.167 304.583 694.583 304.166 698.75 300.833L701.667 299.166C707.917 295 715 291.666 722.5 290.833H723.333C731.667 289.166 739.167 289.166 747.5 289.583H751.667C760 290.833 767.083 293.75 772.5 300L773.75 301.666C777.917 305.833 784.583 309.166 790.417 309.166H797.5C799.583 309.166 801.667 308.333 802.917 306.25C804.167 305 806.25 303.75 808.333 303.75H812.5C818.333 303.75 823.75 305.416 829.167 307.083L836.25 310C842.917 312.083 850 314.166 857.083 315H862.083C865.417 315 867.5 312.916 867.5 310C867.5 305.833 866.667 301.666 864.583 298.333L861.667 291.666C858.333 286.25 855.833 280.416 853.333 275L852.5 272.916C850.417 268.75 850.417 264.583 852.5 260.416V258.333C853.333 255 851.667 251.25 848.333 250H845C838.333 247.916 832.5 244.166 828.333 238.75L824.167 234.583C820 230.416 817.5 224.166 815.833 217.916C813.75 212.5 809.167 208.333 803.333 208.333H785.833C779.583 207.5 774.167 204.166 770.417 199.166L768.75 197.083C765.833 192.916 763.333 187.916 761.667 182.916C759.583 178.75 755 176.25 750.833 177.5L745.833 179.166C737.5 182.083 729.167 183.333 720.833 182.5L714.167 181.666C707.083 181.666 700.417 178.75 695 174.583L690.833 171.666C687.5 169.166 684.167 167.5 680.417 165.833C676.25 164.166 672.917 165 670.417 167.916L668.333 170.416C664.167 174.583 658.333 177.916 652.5 178.75L630 180C625.833 180 621.667 182.083 618.75 185C615.417 187.916 611.667 190 607.5 190.833H606.667C602.5 190.833 598.333 193.75 594.167 196.666V197.5C590 201.666 584.583 203.75 579.167 203.75L577.5 204.583C572.5 204.583 567.5 204.583 562.5 205.833H557.5C550.417 207.083 545 212.916 543.333 220.416L541.667 230C540.417 236.666 537.5 242.5 533.333 247.916C529.167 252.916 524.167 256.25 517.917 256.25H511.667H510.833C506.667 257.083 502.5 261.666 503.333 266.666C504.167 273.75 503.333 280 502.083 286.25L500.417 293.333C498.75 299.583 494.583 304.583 489.167 306.666L486.667 307.916H485.833C483.333 309.583 481.667 313.333 483.75 316.25C486.25 320.416 487.083 324.583 486.667 328.75L485.417 342.083C485.417 347.083 483.333 351.666 481.25 355.833C478.75 360 478.75 364.166 480.417 368.333L484.583 377.5C486.667 381.666 487.083 385.833 485.833 390.833C484.583 395 483.75 399.166 484.167 403.333C484.167 407.5 486.667 411.666 490 413.333L490.833 414.166L491.667 415ZM820.833 716.25C825 720.416 831.25 722.083 836.25 718.75L844.583 713.333C848.75 710.416 852.083 706.25 853.75 700.833V700L857.917 687.5L860.417 683.333L862.083 679.166L863.75 676.25C865.417 672.916 867.917 670.416 872.083 669.166L873.75 668.333C877.083 667.5 879.167 664.166 879.167 660.833C879.167 656.666 881.25 653.333 883.333 650.416L886.667 647.5L895 636.666V635.833C897.5 632.5 899.167 628.75 900 624.583C900.833 620.416 900 616.25 898.333 612.083L897.5 610.416C895.833 606.25 895 603.333 894.583 599.583L893.333 587.916L892.083 575.416C892.083 571.25 893.75 567.083 896.25 562.916C899.167 559.583 901.25 555.416 902.917 551.25V549.583L903.75 548.75C904.583 544.583 902.5 540.416 898.75 540.416C894.583 538.333 890.417 535 889.167 530L887.917 527.5C885.833 520 884.583 512.5 884.583 505L885.417 484.166V482.916C885.417 475.833 879.583 470.416 872.917 470.416H872.083C863.75 470.416 857.083 467.916 851.25 462.083L847.917 457.916L839.583 448.333L828.75 435.833C824.583 430 820.417 425 815 420C810.833 415.833 804.583 411.666 798.333 410.833L790 409.583C785.833 408.75 780.417 406.666 775.833 403.75C772.5 401.25 767.5 402.083 764.167 405.416L758.75 411.25L756.25 412.916C753.333 413.75 750.417 412.083 749.167 408.75C747.5 403.75 747.5 397.916 750 392.916V390.416C750 387.5 747.5 385.416 745 386.25H738.333C730.833 386.25 723.333 385.416 716.25 382.083L712.083 380.416C707.917 378.333 702.917 377.083 698.333 377.083C694.167 377.083 690 377.916 685.833 380.416L684.167 381.666C679.167 385 673.333 386.666 667.5 387.083H653.75C647.5 387.083 641.25 389.166 637.083 392.5C631.667 395.833 625.833 397.916 619.583 399.166L608.333 400.833C603.333 402.083 597.917 404.166 593.333 407.916C589.167 412.083 583.333 414.583 577.917 416.25L575.833 417.083C569.167 419.166 563.333 423.333 559.167 429.583L554.167 434.583C551.25 438.75 551.25 443.75 554.167 447.916C556.667 452.083 561.667 453.333 566.667 452.083L572.917 449.583C576.25 448.333 580 449.583 582.917 451.25C585.417 453.333 589.167 454.583 592.917 454.166L603.333 452.916C609.167 452.916 615 452.916 620.833 454.583C627.083 456.666 632.5 458.75 637.5 462.916C642.5 467.083 647.917 468.75 654.167 469.583C660.417 470.416 666.667 471.666 672.5 473.75L676.667 474.583C680.833 475.833 684.167 478.75 686.667 482.916C688.75 486.25 690.833 491.25 690.833 495.416V496.666C690.833 501.666 695 505 699.167 505H701.667C708.333 505 715.417 505.833 722.5 507.916L725.417 509.166C729.583 510.833 733.75 513.333 736.667 517.5C740 521.666 742.083 525.833 743.333 530L744.583 535.833C745.833 542.083 746.25 548.333 746.25 555V557.083C746.25 561.25 749.167 565.416 753.75 567.083C757.917 567.916 762.917 569.583 767.5 572.083L769.583 572.916C775 576.25 780.417 580.416 784.583 585.416L786.667 588.333C792.083 594.583 795 602.5 795 610.416V613.333C795 619.583 793.75 625.833 791.667 631.666C790 636.666 791.667 642.5 797.083 644.166L800 646.25C806.25 648.75 811.667 653.333 815.833 658.75C820 665 821.667 672.083 821.667 679.583V692.083C820.833 696.25 819.583 699.583 817.5 702.5C815.417 705.416 815.417 709.583 817.5 712.5L820 716.666L820.833 716.25ZM554.167 502.916H553.333C551.667 502.916 550.833 505 551.25 507.083L552.917 515.416C554.583 522.083 555.417 528.75 556.25 535.416C557.083 542.083 560.417 547.916 565.417 552.083H567.083C573.333 557.083 577.083 564.583 577.5 572.083V592.916C576.667 597.083 577.5 601.25 580 604.583L582.083 606.666C586.25 611.666 587.917 617.5 588.333 623.333L589.583 646.25C589.583 651.666 586.25 656.25 581.25 657.083L577.083 657.916C574.167 657.916 572.917 661.25 572.917 664.166C572.917 667.5 574.167 671.25 575.417 674.583V675.416C576.667 679.583 577.083 683.75 576.667 687.916L575 699.166C573.333 707.5 570.833 715 566.667 722.5L563.75 727.5C561.667 731.666 558.75 734.166 555.417 735.833C551.25 737.5 548.333 740.833 547.083 745L543.75 760C541.667 768.333 537.917 776.666 532.917 785H532.083C527.083 791.666 520.833 797.5 513.333 801.666L508.333 805L495.833 811.25C491.667 812.916 489.167 816.666 488.333 821.25L486.25 835C485 843.333 482.083 850.416 476.25 855.833L470.833 862.083L464.583 868.333L458.333 875C453.333 880.833 445.833 883.333 437.5 882.083L422.5 879.166L408.75 877.5H405C403.333 879.166 402.917 881.666 404.167 884.166C407.083 889.166 411.667 892.5 416.667 892.5L425.833 894.166C430 894.166 435 896.25 439.167 898.333C443.333 901.25 447.5 903.333 452.5 904.583H453.333C458.75 906.666 464.583 907.083 470 906.666L476.25 905.833C483.333 905 490 905.833 495.833 908.333L500.833 910C502.917 910.833 506.25 910 508.333 907.916C510.833 905.416 513.333 903.75 516.667 902.5L520 901.666C525.417 900 530.833 899.166 536.667 899.166H540C545 899.166 549.583 900 553.75 902.5L555.417 903.333C558.333 904.583 561.667 903.333 563.75 900.833C565 897.916 567.917 895 570.833 892.5L581.25 885.416L587.917 881.25L591.25 879.166C595.417 876.25 601.25 875 606.25 875L621.25 873.75C627.083 872.916 632.083 868.75 633.75 862.916C635.417 856.666 637.917 850.416 642.083 845C646.25 839.583 650.417 835 654.583 830.833C660 826.666 665.417 824.583 671.25 824.166H674.583C681.25 822.916 686.25 816.666 685.833 810V809.166V782.083C686.667 777.916 688.333 772.5 690.833 768.333L699.167 755.833L702.5 751.666C705 749.583 706.667 746.666 709.583 743.333L713.75 737.916C716.25 733.75 716.25 728.333 712.917 724.583C708.75 720.416 706.667 714.583 705.833 708.75V707.083C705 700.416 705 693.333 707.083 686.25V684.166C709.167 678.75 712.083 673.333 715.417 668.333C718.75 664.166 718.333 658.333 714.167 655L707.083 648.75C701.25 643.75 697.917 636.25 697.083 628.75L696.25 620.416C696.25 617.916 696.25 615 695.417 612.083L694.583 605.833C693.75 598.75 689.583 593.333 683.75 589.166L680.833 588.333C676.667 585.833 672.5 582.083 669.167 577.083C665.833 572.916 664.167 567.083 662.917 561.25L661.667 554.166C661.667 551.666 660 550 657.5 548.75L650.833 546.666L637.5 542.5C633.333 541.666 629.167 538.333 626.25 535.416H625.417C622.917 532.083 618.75 532.083 616.25 534.583L612.083 538.75C611.25 540 610.417 540.416 609.167 540C606.667 540 605 537.916 605.833 535.833C606.667 529.166 604.167 522.5 598.75 518.333L593.333 514.166L580.833 505.833C577.5 504.583 572.5 505.833 570.833 510L569.167 512.5C569.167 513.333 567.917 513.75 567.5 514.166C565.833 514.166 563.333 514.166 563.333 512.083L562.083 510C560.833 507.5 557.917 505.833 555.417 505L554.167 502.916ZM504.167 544.583L502.083 542.5C500 540.833 497.917 541.25 495.833 543.333C492.917 548.333 490.417 553.75 489.167 559.166V560C487.917 565.416 482.917 569.166 477.917 568.333H473.75H472.917C467.083 568.333 462.5 573.333 462.5 579.166C462.5 586.666 460 594.166 455.417 600L452.917 602.5C448.75 607.916 442.5 611.666 436.25 613.75L432.917 614.583C428.75 615.833 425.417 618.75 424.583 623.75C424.583 627.916 422.083 632.083 418.75 635.416L414.583 638.75C409.583 644.166 402.083 647.083 394.583 647.916L373.75 650C367.083 650 361.25 654.166 357.083 660.416C352.917 666.666 346.667 670.833 340.417 671.666L331.25 672.5C324.583 673.333 317.5 673.333 310.417 671.666L306.25 670.833L295 667.916C290.833 666.666 287.5 667.916 285 670.833L280.833 676.25C275.417 682.5 267.5 685.416 260 684.583L232.917 681.25C228.75 681.25 225.417 679.166 221.667 677.083C217.5 674.583 214.583 671.666 211.667 668.75L201.25 656.25C200 655.416 197.917 655 195.833 655.416L190 657.916L166.667 663.75C162.5 665 157.083 663.75 152.917 661.25C148.75 657.916 143.75 657.083 138.75 657.083H133.333C128.333 658.333 125 663.75 126.667 668.75L128.333 677.083C129.583 681.25 129.167 686.25 127.083 690.416C125 694.583 125.417 698.75 128.333 702.916L130.833 706.25C134.167 711.25 139.167 715.416 143.333 719.583C147.5 723.75 151.667 727.916 155 733.333L161.25 744.583C164.583 750.416 169.583 753.75 176.25 753.75C182.5 753.75 188.75 755.833 193.75 760L206.25 771.666C209.583 774.583 214.583 775 217.917 772.5L220 771.666C222.5 771.666 224.167 773.333 224.167 775.833V777.916C224.167 783.333 228.333 788.333 233.75 790.416L252.5 794.583C259.167 796.666 265.833 798.75 272.083 802.916H275.417C278.75 802.916 281.667 800 281.25 796.25V781.666C281.25 777.5 282.917 773.333 286.25 771.666L288.333 770.833C290.417 771.666 292.5 773.333 291.667 775V782.083C291.667 787.5 293.333 792.5 297.083 796.25C301.25 800.416 306.667 801.25 311.25 799.583C316.25 797.5 321.25 797.083 326.667 797.5L342.083 798.333C349.583 799.166 356.667 798.333 362.917 795.416C370.417 792.916 376.667 789.583 382.5 785L385 783.333L397.5 772.083C401.667 767.916 407.083 765.833 412.083 765.833H428.75C437.083 765 444.583 757.5 445.417 749.166L447.083 740.833C447.083 735.416 449.583 730.416 453.333 726.25C457.5 722.083 461.667 719.583 465.833 717.916L470.833 715.833C477.917 712.916 483.333 706.666 485.833 699.166L488.333 689.166C490.417 680.833 494.583 672.5 500.833 667.083L501.667 666.25C506.667 662.083 507.5 653.75 504.167 647.916L502.917 645C500 640.833 499.583 634.583 501.667 629.166C503.75 623.333 505.833 618.333 509.167 613.333L513.333 607.5C515 604.166 515 599.166 512.5 596.25C510 592.916 508.333 588.75 508.333 584.583L507.5 578.75V564.583C508.333 560.416 507.5 555 506.25 550.833L504.583 545.833L504.167 544.583ZM444.583 512.916V511.666C444.583 507.5 442.083 505 438.75 505H427.917C423.75 505.833 419.583 505.833 416.25 505H397.5C387.917 505 378.75 503.333 369.583 500.833L359.583 498.333L351.25 495.833L332.5 489.583C322.5 486.666 315 480 310.417 470.833L308.333 466.666C305.417 460.416 299.167 457.083 292.917 458.333C285.833 458.333 278.75 458.333 272.083 455L267.083 452.916C257.5 448.75 250.417 440.416 250.417 429.166L248.75 417.916C247.5 412.083 243.75 406.666 238.75 404.583C232.917 402.083 227.5 398.75 222.083 395L220 393.75C213.75 388.75 208.333 382.083 205.417 374.166L204.583 371.666C202.5 365 202.083 357.916 203.75 350.833L204.583 348.333C206.25 342.916 206.667 337.5 206.667 331.666C206.667 326.666 204.583 321.666 200.833 317.916L195 312.5C188.333 307.083 184.167 299.166 183.75 290.416C182.917 281.25 182.917 272.5 184.583 263.75V262.5V261.25C184.583 256.25 180.417 252.916 176.25 252.916H175C169.583 252.916 165 256.25 162.5 261.25C160.417 267.083 157.083 271.666 153.333 276.25L151.667 278.333L143.333 286.666L139.167 290.833C135 295 132.5 301.25 131.667 307.5C130.833 313.75 129.167 320 126.667 325.833L125.833 327.916C123.75 332.916 120.417 337.5 116.25 340.416C112.083 343.75 109.167 348.75 109.167 353.75L108.333 372.916C108.333 381.25 107.083 389.583 104.167 397.916L103.333 401.25C101.25 406.666 103.333 412.5 108.333 415L125.833 422.5L127.5 423.333C128.75 423.333 129.167 424.166 129.583 425.416C130.833 427.083 129.583 429.583 128.333 429.583L124.167 431.666C121.667 432.5 120 435 119.167 437.916L118.333 442.083V442.916L114.167 466.25C113.333 469.583 113.333 473.333 113.333 477.083C113.333 480.416 115.417 483.333 118.333 484.583L127.5 488.75C131.667 491.25 136.667 494.166 140 497.083L144.167 500.416C145.417 502.083 147.5 503.75 149.167 504.583L150.833 506.25C153.75 508.75 155.833 512.083 156.667 515.833L160.833 534.583C160.833 539.583 165 543.75 169.167 545L175.833 547.083C175.833 547.083 177.083 547.083 177.917 547.916L186.25 550.416C192.917 552.5 198.75 556.25 203.75 561.25C208.75 565.416 213.75 570.833 217.917 576.666L219.583 578.333C222.917 582.5 227.917 584.583 232.917 583.333C237.917 582.083 243.333 581.666 248.75 581.666H255C259.167 581.666 264.583 582.916 269.167 585.833C273.333 588.333 278.75 590 283.75 592.083H285C290 594.166 295.417 593.333 299.583 590.416C303.75 587.083 309.167 585.416 314.583 585.416L334.167 586.666C338.333 586.666 342.5 585.833 344.583 582.5H345.417L352.5 575.833L354.583 573.75C357.917 569.583 362.917 567.916 367.917 567.5H386.667C391.667 567.5 396.25 563.333 398.333 559.166C400.417 555 404.583 551.666 409.583 550.833L417.917 549.166C421.25 549.166 424.167 546.25 425.417 542.5C426.667 538.333 428.75 535 431.667 532.5L438.333 525.833C442.5 521.666 444.583 517.5 445.417 512.5L444.583 512.916Z" fill="black"/>
</g>
<defs>
<clipPath id="clip0_12_623">
<rect width="1000" height="1000" fill="white"/>
</clipPath>
</defs>
</svg>
