<svg width="1000" height="1000" viewBox="0 0 1000 1000" fill="none" xmlns="http://www.w3.org/2000/svg">
<path d="M500 80L80 346.875V653.047L500 920L920 653.125V346.875L500 80ZM500 583.672L381.328 501.406L500 420.469L618.672 501.406L500 583.672ZM540 352.109V198.984L808.594 369.688L688.203 453.125L540 352.109ZM460 352.109L311.797 453.125L191.406 369.688L460 198.984V352.109ZM241.875 500.859L160 556.641V444.062L241.875 500.859ZM311.406 549.062L460 652.109V801.016L191.797 630.547L311.406 549.062ZM540 652.109L688.594 549.062L808.203 630.547L540 801.016V652.109ZM758.125 500.859L840 444.062V556.641L758.125 500.859Z" fill="black"/>
</svg>
