<svg width="1000" height="1000" viewBox="0 0 1000 1000" fill="none" xmlns="http://www.w3.org/2000/svg">
<g clip-path="url(#clip0_8_262)">
<path d="M498.918 293.488C505.535 291.195 512.763 293.109 518.828 296.1C523.065 298.828 527.302 301.585 532.047 303.37C532.41 304.052 533.165 305.401 533.527 306.069C533.339 306.519 532.976 307.447 532.787 307.897C536.169 315.588 538.331 324.701 535.051 332.782C532.816 335.511 528.927 335.933 525.778 336.989C525.764 340.893 526.388 344.754 526.722 348.629C533.455 349.717 539.155 345.03 545.816 345.494C546.715 341.765 547.426 337.975 548.619 334.319C549.998 336.743 550.054 339.53 550.07 342.258C551.812 342.752 553.582 343.202 555.364 343.635C555.381 344.304 555.394 345.639 555.394 346.307C584.591 346.481 613.771 346.175 642.969 346.467C642.897 347.465 642.755 349.469 642.697 350.472C643.451 350.472 644.989 350.486 645.756 350.486C645.727 345.176 645.756 339.849 645.741 334.54C646.481 334.509 647.932 334.466 648.658 334.451C648.675 338.63 648.688 342.81 648.732 346.99C649.369 347.774 650.646 349.34 651.287 350.123C651.766 349.556 652.722 348.442 653.2 347.874C655.42 349.951 654.158 352.795 654.059 355.346C662.229 355.257 670.483 355.809 678.626 355.141C679.236 354.691 680.455 353.806 681.064 353.358C682.183 353.792 683.314 354.229 684.431 354.678C688.102 354.588 691.788 354.577 695.474 354.562C695.398 356.463 695.34 358.363 695.268 360.265C690.523 360.191 685.763 360.091 681.09 360.902C678.072 358.306 674.023 359.13 670.381 359.032C664.78 359.293 659.001 358.306 653.577 360.09C650.353 360.989 646.815 360.773 643.971 358.943C643.286 360.641 644.334 364.443 641.472 364.296C630.211 364.443 618.965 364.196 607.719 364.37C606.181 365.183 604.628 365.952 603.093 366.705C601.467 371.552 596.809 374.787 592.845 377.747C592.351 385.191 595.297 392.142 596.444 399.367C594.223 400.004 591.989 400.66 589.798 401.386C586.649 408.815 588.579 418.957 581.294 424.141C575.707 427.39 572.01 434.457 564.475 433.341C568.306 436.533 563.431 435.532 563.939 432.978C550.313 431.774 538.834 423.778 526.993 417.685C526.442 421.021 525.572 424.302 524.671 427.567C529.17 428.423 532.885 431.731 533.683 436.346C535.119 446.404 532.246 456.389 532.29 466.473C532.609 472.393 530.069 477.819 526.906 482.651C524.134 485.786 519.766 482.563 516.443 482.1C515.687 483.565 514.949 485.033 514.223 486.511C515.166 490.457 515.573 494.563 516.893 498.423C524.308 506.622 531.056 515.505 536.237 525.3C541.569 536.392 546.321 547.755 550.474 559.341C550.878 561.592 552.997 562.4 554.857 563.216C555.104 565.538 555.351 567.857 555.583 570.209C556.309 571.268 557.049 572.326 557.803 573.4C558.253 587.709 556.497 601.958 554.274 616.077C552.898 622.449 556.625 628.673 555.116 635.087C555.29 638.371 553.029 640.851 551.967 643.753C551.764 650.53 551.43 657.392 552.173 664.157C552.692 669.12 556.889 672.311 559.733 676.013C562.839 679.308 565.436 683.733 570.138 684.907C574.564 686.227 578.786 688.143 582.687 690.655C583.877 693.599 583.659 696.722 583.093 699.781C574.59 701.348 565.912 700.566 557.321 700.698C550.701 701.045 544.798 697.49 538.367 696.748C532.142 696.591 524.552 699.681 519.766 694.108C521.795 686.377 521.958 678.074 525.67 670.86C526.86 662.692 524.599 654.404 525.075 646.162C524.367 645.567 522.942 644.377 522.23 643.779C522.741 638.397 520.084 633.607 519.198 628.457C518.62 620.936 517.935 613.422 517.065 605.934C516.382 602.292 518.269 598.956 520.837 596.532C521.07 592.324 521.638 588.158 522.042 583.98C521.418 581.265 519.256 579.249 517.863 576.928C513.205 578.889 506.921 577.959 504.15 573.4C497.577 563.621 491.017 553.84 484.371 544.116C481.759 543.944 479.002 544.218 476.564 543.173C473.751 540.287 472.283 536.441 470.486 532.93C467.917 535.817 468.104 540.242 465.059 542.87C458.616 549.053 456.904 558.137 453.537 566.059C450.957 571.194 452.408 577.391 449.532 582.398C447.994 585.096 444.134 585.633 443.118 588.712C441.783 592.032 440.216 595.473 437.096 597.493C433.715 599.71 432.817 603.921 431.309 607.401C429.931 610.61 431.977 613.975 431.498 617.27C429.35 627.734 422.689 636.483 419.889 646.729C418.612 651.344 416.782 656.539 411.413 657.524C405.304 668.437 401.938 681.788 405.392 694.075C407.511 697.935 407.395 702.274 406.742 706.526C397.035 707.282 387.079 708.586 377.547 705.874C375.312 701.447 375.631 696.237 376.095 691.453C379.04 678.869 382.945 666.507 385.338 653.795C382.348 651.139 383.046 647.078 383.103 643.521C383.003 636.889 387.514 631.578 390.649 626.137C391.826 620.55 391.274 614.546 394.16 609.42C397.558 603.006 400.429 596.071 405.669 590.889C406.669 586.318 410.039 582.866 411.4 578.464C412.851 574.575 410.311 570.628 410.822 566.654C412.069 554.592 414.261 542.651 416.162 530.679C412.565 527.675 413.724 522.902 412.578 518.852C413.144 517.256 413.855 515.734 414.711 514.252C413.812 513.425 412.928 512.583 412.027 511.758C412.897 507.502 412.651 499.883 419.181 501.266C419.587 487.176 414.697 473.535 416.336 459.429C417.207 460.443 418.062 461.475 418.934 462.505L418.47 457.731C421.198 456.28 424.1 455.163 427.147 454.597C422.184 453.945 417.352 452.683 412.488 451.549C411.313 448.457 411.969 445.164 412.401 442.001C414.288 431.321 414.984 420.495 415.376 409.67C420.876 407.757 426.941 409.381 432.31 406.826C430.645 393.287 430.224 379.154 435.039 366.165C438.913 355.107 446.315 344.441 457.865 340.553C463.321 339.249 470.185 337.782 474.042 343.078C475.101 342.106 476.16 341.105 477.22 340.132C468.413 322.641 478.933 297.086 498.918 293.488ZM569.398 369.352C567.076 370.774 564.798 372.401 567.238 374.984C566.048 375.694 564.856 376.377 563.651 377.029C561.765 378.48 557.528 379.305 558.021 382.24C560.14 385.643 561.966 389.22 563.479 392.933C568.106 389.132 571.792 384.022 574.288 378.612C574.81 378.075 575.871 377.001 576.392 376.477C576.16 373.996 575.608 371.571 574.636 369.28C572.895 369.31 571.139 369.338 569.398 369.352Z" fill="#231F20"/>
<path d="M611.975 499.256C618.62 490.87 629.358 486.225 640.008 486.4C672.411 486.43 704.829 486.385 737.233 486.414C753.038 486.748 768.448 499.098 770.276 515.149C725.422 515 680.58 515.28 635.743 515C635.699 545.01 635.641 575.034 635.743 605.059C670.163 605.002 704.581 604.943 739.005 605.088C738.872 594.335 739.045 583.582 738.903 572.831C721.883 572.928 704.86 572.962 687.838 572.831C674.185 572.307 664.027 560.511 660.952 547.944C697.549 547.814 734.132 547.799 770.726 547.959C770.569 566.345 770.816 584.746 770.595 603.132C770.16 618.615 756.84 632.243 741.573 633.796C706.267 633.796 670.947 633.781 635.641 633.781C625.092 633.706 615.761 627.045 609.811 618.731C605.748 612.853 604.833 605.555 604.254 598.632C604.195 573.963 604.283 549.279 604.223 524.61C604.357 515.669 605.938 506.223 611.975 499.256ZM826.057 487.414C829.703 486.427 833.502 486.356 837.263 486.4C867.214 486.49 897.18 486.299 927.131 486.472C944.109 487.198 959.025 501.857 959.679 518.89C959.71 546.419 959.71 573.96 959.679 601.505C959.375 618.38 944.428 634.11 927.293 633.822C894.353 633.677 861.412 633.923 828.469 633.706C812.042 631.877 799.432 616.192 799.316 599.953C799.084 574.847 799.345 549.713 799.185 524.61C799.055 517.21 800.39 509.606 804.308 503.221C808.906 495.195 817.149 489.577 826.057 487.414ZM831.225 514.204C831.283 545.171 831.094 576.151 831.312 607.118C863.483 607.207 895.672 607.104 927.842 607.159C927.94 576.166 927.856 545.168 927.882 514.157C895.669 514.145 863.44 514.088 831.225 514.204ZM0.0508247 521.576C0.734302 504.787 14.7942 489.012 31.9029 488.359C63.8696 488.328 95.8523 488.328 127.822 488.373C145.09 488.2 159.474 503.8 160.777 520.531C158.47 520.721 156.162 520.864 153.855 520.894C115.792 520.852 77.7293 520.909 39.6795 520.864C39.6635 547.913 39.5213 574.96 39.752 602.01C80.1526 601.951 120.537 601.922 160.936 602.026C159.79 619.364 145.19 634.75 127.591 635.431C98.6268 635.839 69.6625 635.445 40.6967 635.621C33.4846 635.868 26.0549 634.967 19.5553 631.673C8.35268 625.942 0.428116 614.259 0.0392158 601.576C0.00729114 574.905 -0.0362425 548.246 0.0508247 521.576ZM191.541 508.429C196.866 496.804 209.056 488.171 222.03 488.33C253.955 488.36 285.894 488.33 317.834 488.344C334.506 488.446 349.192 503.042 350.369 519.516C308.256 520.111 266.115 519.601 223.991 519.762C223.8 528.237 223.889 536.711 223.874 545.199C255.19 545.299 286.519 545.228 317.834 545.228C327.12 545.591 336.873 548.567 343.199 555.749C350.308 562.106 353.313 571.785 353.545 581.101C353.703 590.403 353.703 599.749 352.194 608.961C348.74 623.88 334.476 634.996 319.255 635.475C288.812 635.763 258.35 635.504 227.907 635.62C220.726 635.766 213.296 634.734 206.924 631.237C196.824 625.968 189.569 615.372 188.569 603.998C231.435 604.204 274.315 604.129 317.181 604.029C317.283 595 317.225 585.975 317.225 576.951C285.503 576.733 253.768 576.92 222.03 576.861C203.791 577.007 187.654 560.246 188.145 542.064C188.783 530.862 186.202 518.834 191.541 508.429ZM969.589 491.349C973.623 491.248 977.701 491.088 981.72 491.698C979.848 492.176 977.945 492.423 976.032 492.452C975.785 496.821 975.756 501.189 975.814 505.554C975.393 505.554 974.568 505.554 974.16 505.569C974.189 501.085 974.233 496.601 974.174 492.131C973.043 492.221 970.793 492.423 969.676 492.509L969.589 491.349ZM983.983 491.187C984.84 491.232 986.58 491.319 987.454 491.362C988.687 495.293 990.138 499.153 991.938 502.883C993.621 499.124 994.724 495.118 996.581 491.464C997.394 491.348 999.019 491.101 999.829 490.985C999.379 496.325 1001.22 502.231 998.337 507.093C997.815 502.362 998.032 497.601 997.726 492.856C995.519 497.283 994.477 502.259 991.589 506.352C989.382 502.146 988.44 497.354 985.799 493.382C985.627 497.62 985.712 501.871 985.654 506.12L984.102 505.945C984.1 501.028 984.028 496.108 983.983 491.187Z" fill="#231F20"/>
</g>
<defs>
<clipPath id="clip0_8_262">
<rect width="1000" height="1000" fill="white"/>
</clipPath>
</defs>
</svg>
