<svg width="1000" height="781" viewBox="0 0 1000 781" fill="none" xmlns="http://www.w3.org/2000/svg">
<path fill-rule="evenodd" clip-rule="evenodd" d="M164.274 235.022H147.226C141.802 235.022 137.153 235.993 134.053 238.906C130.954 240.848 128.63 244.732 127.08 247.644C125.53 251.527 124.755 255.41 123.98 259.295C123.205 264.149 123.205 268.032 123.205 270.944V358.324C123.205 369.002 121.656 377.741 117.781 384.537C113.907 391.334 109.258 397.159 103.059 401.041C97.6344 404.924 90.6605 407.839 84.4615 409.781C77.4876 411.722 71.2885 412.693 65.8644 412.693V413.663C70.6785 413.663 76.1029 414.427 82.1376 415.278L84.4615 415.605C91.4354 416.576 97.6344 419.488 103.059 423.373C108.483 427.256 113.907 433.081 117.781 440.849C121.656 448.615 123.205 459.295 123.205 471.915V554.439C123.205 558.324 123.205 562.207 123.98 566.09C124.755 570.944 125.53 574.829 127.855 577.742C129.404 581.624 132.504 584.537 136.378 586.478C140.252 588.42 144.902 590.363 151.876 590.363H165.049V686.478H110.032C102.284 686.478 94.5349 684.537 86.7861 681.624C79.0373 678.712 71.2885 673.859 64.3146 668.032C57.3407 662.207 51.9166 653.468 47.2673 643.761C42.6183 634.051 41.0685 622.4 41.0685 608.81V500.071C41.0685 491.334 39.5188 484.537 36.4193 479.683C33.3198 474.829 29.4454 470.944 24.7961 468.032C20.1468 465.12 15.4975 463.178 10.8483 462.207C6.199 461.237 2.32463 461.237 0 461.237V369.002H0.000226788C3.09966 369.002 6.19912 369.002 10.8483 368.032C15.4975 367.061 20.1468 366.09 24.0211 363.178C28.6705 360.266 31.77 357.354 35.6444 352.498C39.5188 347.644 40.2937 341.82 40.2937 334.051V220.46C40.2937 206.867 42.6183 195.217 46.4924 185.508C51.1417 175.799 56.5659 168.032 63.5398 161.236C70.5137 155.411 77.4876 150.557 86.0112 147.644C93.76 144.731 101.509 142.79 109.258 142.79H164.274V235.022ZM835.727 235.022H852.773C858.198 235.022 862.846 235.993 865.946 238.906C869.046 240.848 871.371 244.732 872.919 247.644C874.471 251.527 875.244 255.41 876.02 259.295C876.795 264.149 876.795 268.032 876.795 270.944V358.324C876.795 369.002 878.344 377.741 882.22 384.537C886.093 391.334 890.741 397.159 896.941 401.041C902.366 404.924 909.339 407.839 915.539 409.781C922.512 411.722 928.712 412.693 934.137 412.693V413.663C929.322 413.663 923.898 414.427 917.863 415.278L915.539 415.605C908.566 416.576 902.366 419.488 896.941 423.373C891.517 427.256 886.093 433.081 882.22 440.849C878.344 448.615 876.795 459.295 876.795 471.915V554.439C876.795 558.324 876.795 562.207 876.02 566.09C875.244 570.944 874.471 574.829 872.146 577.742C870.595 581.624 867.495 584.537 863.622 586.478C859.746 588.42 855.098 590.363 848.124 590.363H834.951V686.478H889.968C897.717 686.478 905.466 684.537 913.215 681.624C920.963 678.712 928.712 673.859 935.685 668.032C942.658 662.207 948.083 653.468 952.732 643.761C957.383 634.051 958.932 622.4 958.932 608.81V500.071C958.932 491.334 960.481 484.537 963.581 479.683C966.681 474.829 970.554 470.944 975.205 468.032C979.854 465.12 984.502 463.178 989.151 462.207C993.8 461.237 997.676 461.237 1000 461.237V369.002C996.9 369.002 993.8 369.002 989.151 368.032C984.502 367.061 979.854 366.09 975.978 363.178C971.329 360.266 968.229 357.354 964.356 352.498C960.48 347.644 959.707 341.82 959.707 334.051V220.46C959.707 206.867 957.383 195.217 953.507 185.508C948.859 175.799 943.434 168.032 936.461 161.236C929.485 155.411 922.512 150.557 913.988 147.644C906.239 144.731 898.49 142.79 890.741 142.79H835.727V235.022ZM664.317 486.093L343.766 162.207H267.534V239.232L588.085 563.117L530.978 620.817L568.961 659.193L634.685 591.966L721.424 678.246C731.929 688.861 748.9 688.861 759.405 678.246L778.529 658.922C789.034 648.307 789.034 631.161 778.529 620.544L692.871 533.995L759.405 466.768L721.424 428.39L664.317 486.093ZM732.468 238.96L604.785 367.968L528.554 291.217L656.237 162.207H732.468V238.96ZM395.217 425.941L471.449 504.056L411.917 563.117L469.024 620.817L431.041 659.193L365.317 591.966L278.578 678.517C268.073 689.132 251.102 689.132 240.598 678.517L221.472 659.193C210.967 648.578 210.967 631.432 221.472 620.817L307.132 533.995L240.598 466.768L278.578 428.39L335.685 486.093L395.217 425.941Z" fill="black"/>
</svg>
