<svg width="1000" height="1000" viewBox="0 0 1000 1000" fill="none" xmlns="http://www.w3.org/2000/svg">
<g clip-path="url(#clip0_8_35)">
<path d="M907.121 0H92.8427C73.3377 0 58.7042 16.5052 60.425 36.0081L134.799 869.46C136.522 888.948 153.378 909.345 172.284 914.612L465.478 996.055C484.358 1001.29 515.219 1001.32 534.127 996.123L827.684 914.795C846.594 909.543 863.45 889.331 865.171 869.809L939.577 36.0081C941.298 16.5052 926.726 0 907.121 0ZM765.903 300.853C765.891 300.98 765.791 301.08 765.665 301.101C765.538 301.122 765.415 301.057 765.36 300.938L535.65 395.072C532.378 396.413 530.513 399.882 531.193 403.351C531.877 406.82 534.919 409.323 538.457 409.323H717.133C726.638 409.323 735.693 413.36 742.05 420.428C748.404 427.496 751.459 436.931 750.45 446.381L722.532 708.274C721.161 721.123 712.528 732.039 700.337 736.328L510.685 803.059C503.543 805.574 495.756 805.593 488.597 803.112L299.831 737.724C287.566 733.475 278.86 722.528 277.481 709.621L264.825 591.015C264.16 584.788 266.172 578.571 270.357 573.917C274.545 569.26 280.51 566.6 286.773 566.6H339.302C350.589 566.6 360.056 575.113 361.25 586.334L369.015 659.239L499.716 704.671L631.017 658.824L647.076 507.624H275.834C264.581 507.624 255.129 499.158 253.895 487.972L246.826 423.889C245.747 414.114 251.262 404.806 260.351 401.061L497.949 303.102C500.645 301.991 502.176 299.134 501.611 296.274C501.044 293.417 498.539 291.358 495.627 291.358H245.469C237.938 291.358 231.621 285.671 230.835 278.184L223.599 209.306C223.164 205.161 224.509 201.024 227.298 197.925C230.088 194.827 234.062 193.058 238.231 193.058H761.663C765.855 193.058 769.846 194.846 772.638 197.972C775.43 201.099 776.755 205.267 776.282 209.431L765.903 300.853Z" fill="black"/>
</g>
<defs>
<clipPath id="clip0_8_35">
<rect width="1000" height="1000" fill="white"/>
</clipPath>
</defs>
</svg>
