<svg width="1000" height="1000" viewBox="0 0 1000 1000" fill="none" xmlns="http://www.w3.org/2000/svg">
<path d="M937.5 328.125L890.625 343.75H656.25L562.5 562.5L515.625 578.125L531.25 609.375H546.875V593.75H562.5V609.375H546.875V625H522.656L390.625 921.875L421.875 906.25L484.375 812.5L531.25 796.875L656.25 562.5L890.625 453.125H768.25L718.672 443.531L687.5 453.125L671.875 468.75H656.25L671.875 437.5H687.5L703.125 390.625H890.625L738.281 437.5H906.25L937.5 421.875L968.75 328.125H937.5Z" fill="black"/>
<path d="M718.75 140.625L687.5 156.25H656.25L234.375 390.625L98.6875 484.375H171.875V468.75H218.75V484.375H234.375V500H218.75V484.375H203.125V500H187.5V484.375H171.875V500H102.047C86.25 500 70.6094 496.891 56.0156 490.859L56.5312 490.547C47.8906 490.344 39.25 488.375 31.25 484.375L0 500L78.125 578.125L187.5 562.5H468.75L531.25 515.625V484.375H500L468.75 468.75C437.5 484.375 404.812 482.328 390.625 484.375L468.75 500H250V484.375L671.875 218.75L734.375 234.375L812.5 187.5L718.75 140.625Z" fill="black"/>
</svg>
