<svg width="1000" height="1000" viewBox="0 0 1000 1000" fill="none" xmlns="http://www.w3.org/2000/svg">
<g clip-path="url(#clip0_9_286)">
<path d="M980.516 605.109L968.797 600.312C964.969 598.734 960.922 597.969 956.922 597.969C954.687 597.969 952.453 598.203 950.266 598.688C949.844 598.547 949.422 598.406 949 598.266C944.812 593.359 939.125 589.75 932.594 588.156L931.312 587.734C929.25 587.063 926.406 586.125 922.828 585.391C915.391 581.031 908.078 578.297 900.672 577.172C899.719 576.75 898.75 576.375 897.75 576.047C895.125 575 891.141 573.453 886.141 572.906C884.391 572.719 882.094 572.344 881.062 571.672C874.547 567.328 866.578 565.031 858.031 565.031C857.188 565.031 856.375 565.047 855.562 565.094C854.937 564.844 853.656 564.266 851.531 563C845.391 559.375 839.047 557.719 834.062 556.828C827.016 551.703 819.734 550.172 816 549.391C809.719 547.688 805.891 547 801.437 546.188L798.078 545.562C796.797 545.312 795.172 544.781 793.109 544.109C790.406 543.219 787.031 542.109 782.969 541.203C776.766 533.516 767.422 528.125 756.141 528.125C754.297 528.125 752.156 528.312 750.328 528.641C747.859 529.078 745.609 529.766 743.562 530.594C743.328 530.578 743.094 530.578 742.875 530.563C742.031 530.078 741.156 529.625 740.281 529.188C740.297 528.797 740.328 528.359 740.344 527.891C745.422 522.594 748.672 515.516 749.031 507.641L754.797 378.469C754.969 374.562 754.406 370.703 753.172 367.047C754.594 361.5 754.469 355.656 752.781 350.141L753.156 341.781C753.312 338.313 752.891 334.844 751.906 331.5C751.203 329.125 748.734 320.984 746.484 315.734C743.5 308.797 738.5 300.953 737.047 298.719C732.891 292.344 726.578 287.75 719.328 285.719C719.266 285.687 719.203 285.656 719.141 285.625L719.125 285.344C718.812 280.859 717.562 276.656 715.578 272.906L714.875 261.719C713.844 245.312 700.281 232.516 683.844 232.438C683.797 232.438 683.734 232.438 683.687 232.438C669.547 232.438 657.469 241.875 653.672 254.969C645.937 260.25 640.703 268.938 640.094 278.891L639.281 292.281C638.688 293.375 638.156 294.516 637.687 295.703L635.234 301.937L634.5 302.578C629.312 307.141 625.797 313.281 624.469 320.062L621.594 334.797L620.547 330C621.125 322.469 622.109 308.125 622.078 299.703C622.062 295.25 622.062 292.812 626.469 283.437C628.781 278.516 629.781 273.062 629.344 267.625L628.312 254.781C628.094 252 627.5 249.266 626.547 246.641C621.187 231.844 617.937 227.047 616.859 225.469C615.969 224.172 615 222.938 613.922 221.781C613.062 220.859 612.109 219.922 610.906 218.906C610.781 218.703 610.641 218.516 610.516 218.312L610.391 217.672C607.859 204.734 597.531 194.922 584.781 192.828C582.812 188.766 580 185.203 576.578 182.359C573.859 167.719 561.047 156.844 545.859 156.844C545.766 156.844 545.656 156.844 545.562 156.844C529.062 157 515.531 169.953 514.656 186.422L513.266 212.641C511.016 216.438 509.594 220.672 509.094 225.078L506.641 228.031C502.031 233.594 499.484 240.578 499.453 247.812C499.437 249.109 499.297 251.719 499.078 253.109C498.797 254.844 498.109 256.672 497.891 257.187C495.766 261.687 494.937 266.234 495.109 271.203L495.547 283.578C495.562 283.922 495.609 284.266 495.625 284.594L493.297 273.875C494.937 268.672 495.187 263.078 493.969 257.672L493.469 255.437C493.484 254.984 493.5 254.562 493.516 254.203C493.562 253.062 493.687 250.359 492.953 241.203C492.578 236.406 491.094 231.781 488.625 227.672C487.875 223.391 486.234 219.359 483.859 215.797C483.469 212.344 482.531 209.063 481.109 206.047L480.25 195.047C479.469 185.031 474.016 176.406 466.125 171.281L466.062 170.094C465.141 153.969 452.062 141.203 435.922 140.656C435.625 140.625 435.266 140.625 434.906 140.625C419.219 140.625 405.891 152.297 403.922 167.969L401.312 188.703C400.391 190.219 399.578 191.828 398.922 193.516C390.609 196.906 385.859 201.703 383.547 204.078C380.891 206.219 378.766 208.312 377.187 209.891C376.656 210.422 376.141 210.969 375.578 211.453C369.141 216.891 362.937 222.797 357.797 234.672C352.328 239.75 348.75 246.719 347.969 254.406L346.484 269C346.437 268.938 346.406 268.859 346.359 268.797L344.422 245.109C343.109 228.953 329.656 216.484 313.453 216.391C313.391 216.391 313.328 216.391 313.266 216.391C300.953 216.391 290.172 223.547 285.109 234.094C279.625 235.906 274.766 239.203 271.062 243.594C267.453 244.203 263.969 245.438 260.766 247.25C260.781 247.25 260.781 247.234 260.781 247.234C260.766 247.234 259.672 247.781 257.781 248.531C257.187 248.656 256.641 248.766 256.547 248.781C251.625 249.734 246.969 251.875 243.047 254.984L235.734 260.781C228.734 266.344 224.437 274.641 223.953 283.563L223.672 288.797L220.656 295.375C218.844 299.328 217.875 303.609 217.812 307.953L217.672 317.75C217.656 319.219 217.734 320.688 217.922 322.141C217.891 322.703 217.875 323.25 217.875 323.828L217.859 326.562C217.859 327.359 217.875 328.156 217.937 328.938C217.875 329.766 217.844 330.609 217.844 331.438V354.844L213.031 374.297C212.469 376.594 212.156 378.938 212.125 381.281C211.203 381.047 210.141 380.781 208.906 380.453C206.062 379.703 203.781 379.312 201.375 378.969C201.328 378.969 201.297 378.953 201.266 378.953C199.562 377.406 198.125 376.25 197.109 375.547C193.812 373.219 190.469 371.672 187.312 370.625C180.828 361.672 170.953 357.969 164.141 357.234C163.031 357.109 161.906 357.047 160.797 357.047C156.969 357.047 153.266 357.703 149.766 358.906C146.828 358.531 143.578 358.328 139.953 358.328C137.984 358.328 135.766 358.375 133.234 358.484C133.156 358.484 133.094 358.484 133.016 358.5C128.469 357.172 123.609 356.641 117.703 356.344C116.859 356.297 115.969 356.188 115.047 356.094C112.328 355.813 108.937 355.453 105.078 355.453C103.391 355.453 101.719 355.531 100.078 355.672C95.2343 356.109 90.6093 357.203 86.0937 359.016C79.4843 353.297 70.8593 349.875 61.6249 349.875C55.5156 349.875 49.4999 351.422 44.2343 354.359C43.4218 354.813 42.6874 355.25 41.9999 355.672C41.2968 355.547 40.5781 355.422 39.8281 355.328C38.3906 355.125 36.4687 355 35.0156 355C23.6562 355 12.9531 360.625 6.40619 370.062C-0.171936 379.531 -1.76569 391.484 2.14056 402.031C5.26556 410.453 11.6093 417.719 19.2968 422.484C19.0937 438.203 27.8124 452.297 42.6718 458.812L43.6718 459.375C47.8437 461.656 55.6249 465.922 66.3437 465.922C67.0312 465.922 67.7031 465.906 68.3749 465.875C71.2187 469.562 74.0624 472.266 75.9374 474.047C80.1406 478.031 85.3749 480.859 90.9999 482.266C92.2968 486.641 94.5312 491.25 98.2812 495.5C105.125 503.25 114.516 507.312 126.219 507.578C126.453 507.578 127.453 507.594 127.687 507.594C137.359 507.594 144.969 505.328 150.859 502.234C152.531 502.547 154.234 502.781 155.969 502.906C158.625 503.094 162.094 504.031 167.719 509.516C173.187 515.125 180.547 521.219 193.391 523.469C195.266 523.906 197.234 524.219 199.297 524.422C199.437 524.5 199.578 524.562 199.719 524.641C206.937 528.312 214.031 528.656 219.203 528.906C219.391 528.922 219.578 528.922 219.781 528.938C220.141 529.094 220.516 529.234 220.891 529.391C221.219 532.359 221.984 535.234 223.109 537.953L224.094 657.469C224.172 667.891 229.375 677.125 237.312 682.734L237.266 711.297C237.266 714.312 237.687 717.312 238.547 720.188L239.562 723.641L239.812 750.797C239.828 752.75 240.031 754.688 240.406 756.594L243.219 770.719L246.031 818.328C247 834.688 260.437 847.531 276.844 847.734C276.969 847.734 277.109 847.734 277.234 847.734C293.453 847.734 307 835.312 308.375 819.109L312.203 773.625C312.453 770.703 312.281 767.766 311.703 764.891V762.406L313.047 759.609C314.875 755.797 315.906 751.656 316.094 747.438C320.766 742.281 323.734 735.531 324.109 728.062L329.5 621.344C329.625 618.812 329.453 616.266 328.969 613.797L329.609 612.312C331.344 608.281 332.203 603.922 332.141 599.531L332 590.125C331.969 588.078 331.734 586.031 331.312 584.047V580.547C331.937 578.953 332.422 577.281 332.781 575.547L335.062 564.531C335.266 563.531 335.422 562.531 335.531 561.516C337.641 562.469 339.828 563.188 342.047 563.641C343.359 564.094 344.703 564.469 346.078 564.75L366.484 575.625C368.187 576.531 369.969 577.281 371.797 577.859V587.234C371.797 590.688 372.375 594.125 373.5 597.391L377.703 609.625L377.75 638.344C377.75 640.844 378.062 643.344 378.656 645.766L381.484 657.219L381.016 695.453C381 696.297 381.031 697.141 381.094 697.969L385.516 762.359C385.828 766.828 387.047 771 389.016 774.734L389 782.172C388.984 785.875 389.641 789.531 390.906 793L392.281 796.766L394.781 830.469C395.984 846.734 409.5 859.344 425.812 859.406C425.859 859.406 425.906 859.406 425.953 859.406C442.203 859.406 455.766 846.938 457.094 830.719L461.75 774.203C461.812 773.422 461.844 772.641 461.859 771.875L462.109 738.922L463.766 732.859C464.516 730.109 464.891 727.281 464.875 724.438L464.797 710.281C464.781 707.797 464.469 705.312 463.875 702.906L462.719 698.25L462.781 685.812C470.141 680.562 475.156 672.203 475.828 662.531L479.141 615C482.344 615.969 485.703 616.469 489.141 616.469C492.922 616.469 498.141 615.828 503.844 613.234C506.375 612.953 508.859 612.438 511.312 611.672L511.266 624.406L509.297 634.375C508.344 639.187 508.547 644.172 509.875 648.906L512.969 659.906L516.172 716.266C516.625 724.203 520 731.312 525.234 736.562L527.578 775.688C528.547 791.828 541.656 804.562 557.812 805.062C558.141 805.078 558.453 805.078 558.781 805.078C574.531 805.078 587.875 793.328 589.781 777.594L596.125 725.359C596.281 724.109 596.359 722.844 596.359 721.578V707.766L600.109 698.938C601.766 695.047 602.625 690.859 602.609 686.625L602.484 626.25C603.25 626.016 604.016 625.75 604.797 625.453C605.281 625.516 606.109 625.641 607.422 625.953C609.266 626.391 611.094 626.875 612.922 627.359C613.844 627.594 614.766 627.844 615.687 628.078C621 632.125 627.547 634.547 634.578 634.875C635.094 642.969 638.688 650.188 644.172 655.438L644.078 669.078C644.062 671.766 644.391 674.453 645.062 677.062L647.719 687.422L648.062 723.234C648.062 723.797 648.094 724.375 648.125 724.938L652.844 797.875C653.906 814.219 667.406 826.984 683.781 827.109C683.859 827.109 683.953 827.109 684.031 827.109C700.312 827.109 713.875 814.609 715.172 798.359L718.344 758.734C725.562 753.438 730.453 745.078 731.047 735.484L736.891 642.109C741.875 645.234 746.484 646.562 748.312 647.078C750.203 647.625 752.141 647.984 754.094 648.156C754.484 648.312 754.859 648.453 755.266 648.594C755.766 648.781 756.281 648.938 756.781 649.094C763.109 655.234 769.844 657.641 775.141 658.484C782.016 662.031 789.75 664.156 796.812 664.156C797.453 664.156 798.094 664.141 798.734 664.109C799.609 664.609 800.437 665.062 801.234 665.484C806.125 668.125 811.641 669.516 817.187 669.516C826.437 669.516 835.453 665.656 841.937 658.922C843.203 657.609 844.359 656.203 845.391 654.719C847.859 654.609 850.047 654.281 851.875 653.891C852.484 653.922 853.109 653.938 853.719 653.938C854.797 653.938 855.875 653.875 856.953 653.766C858.281 654.344 859.625 654.891 860.797 655.328C866.937 657.641 872.719 658.766 878.469 658.766C882.297 658.766 886.078 658.25 889.719 657.25C892.547 658.094 895.906 658.734 899.672 658.781C899.859 658.875 900.031 658.953 900.219 659.047C905.156 661.438 909.578 662.469 912.219 663.078C915.391 663.812 918.219 664.141 921 664.141C921.656 664.141 922.297 664.125 922.937 664.094C925.234 665.938 928.109 667.75 931.641 669.125C935.484 670.625 938.937 671.156 941.734 671.375C942.5 671.609 943.766 672.062 944.828 672.531C948.828 674.312 953.219 675.25 957.609 675.25C958.797 675.25 959.922 675.188 960.984 675.062C961.062 675.078 961.156 675.078 961.234 675.094C962.328 675.203 963.562 675.281 964.656 675.281C971.953 675.281 982.516 672.906 991.578 661.609C997.141 655.469 1000.02 647.141 999.703 638.875C1001.86 624.562 993.969 610.563 980.516 605.109ZM39.9843 397.141C39.8906 397.141 39.8124 397.141 39.7187 397.141C39.5468 397.188 39.3749 397.203 39.1874 397.203C36.7187 397.203 32.4687 393.938 31.4062 391.094C30.7343 389.297 32.3437 386.203 34.9843 386.203C35.1406 386.203 35.3124 386.219 35.4687 386.234C39.0156 386.734 42.1093 387.906 43.3593 391.922C44.6249 395.953 43.9843 397.141 39.9843 397.141ZM890.359 607.906C891.109 607.828 891.844 607.797 892.562 607.797C897.844 607.797 902.641 609.719 907.391 612.562C906.625 613.078 906.281 614.109 905.141 614.375C904.125 614.609 902.984 614.719 901.781 614.719C896.922 614.719 891.078 612.984 889.172 610.75C887.703 609.047 888.797 608.062 890.359 607.906ZM157.562 391.172C157.953 390.016 158.984 388.297 160.75 388.297C162.547 388.484 162.547 390 162.625 392.563C162.656 393.875 163.062 394.656 163.484 395.438C162.969 395.531 162.484 395.562 162.016 395.562C158.844 395.562 156.719 393.672 157.562 391.172ZM52.9999 385.609C55.9531 384.094 56.9687 382.969 59.3593 381.641C60.0468 381.266 60.8124 381.094 61.5937 381.094C64.1093 381.094 66.7812 382.875 67.3281 385.359C69.0624 393.328 63.7187 400.141 55.7812 400.141C55.7499 400.141 55.7187 400.141 55.6874 400.141C51.9218 400.109 49.0312 397.422 47.8124 393C46.6562 388.828 50.4843 386.906 52.9999 385.609ZM72.4374 432.344C70.1718 434 68.1718 434.609 66.3124 434.609C62.3906 434.609 59.0781 431.844 55.1874 430.141C50.8749 428.25 49.7187 424.344 50.9687 419.734C51.6093 417.359 51.4218 414.672 52.7812 412.625C53.8593 411.031 56.2343 410.266 58.1874 409.719C59.1874 409.438 60.3124 408.141 61.2968 408.141C61.3124 408.141 61.3281 408.141 61.3437 408.141C62.9999 408.219 64.4999 410.047 66.0312 411.797C66.3593 412.172 66.7656 412.25 67.1718 412.25C67.4687 412.25 67.7812 412.203 68.0781 412.203C68.4218 412.203 68.7499 412.25 69.0312 412.469C71.7031 414.516 72.6406 417.266 75.0781 419.844C76.5624 421.562 77.2343 422.797 77.1562 426.484C77.0468 432.641 74.6562 430.719 72.4374 432.344ZM139.297 472.203C136.281 475.484 131.875 476.281 127.656 476.281C127.391 476.281 127.141 476.281 126.875 476.266C121.5 476.141 119.922 474.828 120.75 466.922C120.828 466.234 121.422 464.672 126.187 464.672C126.375 464.672 126.562 464.672 126.766 464.672C126.812 464.672 126.859 464.672 126.906 464.672C129.266 464.672 128.937 463.203 130.469 463.203C132.219 463.203 136.172 463.609 137.937 466.688C139.047 468.625 141.672 468.312 143.062 469.109C141.891 470.219 141.125 470.219 139.297 472.203ZM336.297 526.094C331.828 523.953 328.375 522.953 328.922 521.219C329.125 520.563 329.609 520.281 330.297 520.281C334.062 520.281 344.016 528.766 348.375 532.984C345.75 531.297 340.562 528.125 336.297 526.094ZM471.453 570C469.859 570.016 467.734 572.203 467.734 572.203L464.625 572.156L460.609 575.891L458.312 575.813L456.781 577.344L457.187 575.141C457.187 575.141 461.469 571.234 461.937 570.531C462.937 569 463.578 564 463.578 564C463.578 564 465.109 564.484 467.203 564.484L469.062 560.812L471.891 564.906L472.281 568.344C472.281 568.344 477.078 571.062 476.047 571.859C476.016 571.875 475.984 571.891 475.937 571.891C475.359 571.891 473.453 570 471.516 570C471.469 570 471.469 570 471.453 570ZM780.203 627.641C779.453 627.641 778.328 626.844 776.844 624.641C776.844 624.641 781.625 624.672 781.328 626.328C781.203 627.094 780.828 627.641 780.203 627.641ZM796.75 632.906C793.453 632.906 787.547 630.328 785.141 627.672C785.578 627.656 786.016 627.641 786.437 627.641C791.328 627.641 795.172 629.078 799.016 631.75C798.812 632.562 797.953 632.906 796.75 632.906ZM817.125 638.25C816.75 638.25 816.359 638.156 816 637.969C812.609 636.141 809.234 634.141 806.219 631.75C802.781 629.859 805.75 625.312 803.734 624.922C804.469 624.266 805.156 623.219 806.594 623.219C807.219 623.219 807.969 623.422 808.937 623.922C810.687 624.859 812.328 626.094 814.156 626.813C819.25 628.688 819.016 628.906 819.312 632.891C819.359 633.469 820.203 634.422 820.234 635.156C820.297 636.75 818.719 638.25 817.125 638.25ZM920.937 632.906C920.547 632.906 920.109 632.859 919.641 632.75C917.703 632.297 915.703 631.859 913.922 631C910.172 629.187 906.516 627.391 902.297 627.391C901.672 627.391 901.031 627.438 900.391 627.516C900.25 627.531 900.109 627.547 899.969 627.547C898.406 627.547 896.672 626.547 895.141 625.828C893.234 624.938 891.359 624.406 889.484 624.406C887.687 624.406 885.906 624.891 884.078 625.984C882.219 627.094 880.328 627.531 878.422 627.531C876.219 627.531 873.984 626.938 871.781 626.109C868.75 624.969 862.797 622.125 862.797 622.125C862.797 622.125 861.781 622.078 860.406 622.078C858.266 622.078 855.219 622.172 853.688 622.688C853.75 621.016 853.531 618.766 851.469 618.766C851.203 618.766 850.922 618.797 850.594 618.875C847.719 619.563 849.062 621.188 850.219 622.156C848.188 622.344 845.859 623.469 843.766 623.469C843.609 623.469 843.453 623.469 843.297 623.453C841.094 623.25 839.219 621.547 837.031 618.797C836.141 617.672 834.719 616.172 833.422 615.984C833.375 615.984 833.328 615.969 833.281 615.969C832.562 615.969 832.062 616.844 831.047 616.891H831.031C830.062 616.891 827.797 614.203 826.047 613.969C822.625 613.5 820.016 611.859 818.094 611.172C815.641 610.313 813.687 610.172 812.687 610.172C812.203 610.172 811.937 610.203 811.937 610.203C811.937 610.203 808.891 608.297 807.359 607.75C806 607.266 804.984 606.984 804.25 606.984C802.625 606.984 802.266 608.281 802.109 611.375C802.453 615.406 800.562 616.813 799.469 619.109C799.406 619.25 799.094 619.391 798.641 619.391C797.984 619.391 797.016 619.109 796.078 618.141C796.125 617.75 796.172 617.359 796.219 616.984C797.406 616.188 799.062 615.625 799.672 614.5C800.312 613.297 800.5 612.266 800.109 610.891C799.906 610.188 799.531 608.484 798.484 608.141C798.437 608.125 798.391 608.125 798.344 608.125C797.656 608.125 796.016 609.203 795.328 609.203C795.281 609.203 795.25 609.203 795.203 609.187C794.469 608.984 794.016 607.219 793.109 607.219C792.906 607.219 792.687 607.297 792.437 607.516C791.031 608.672 791.969 609.906 792.187 611C792.922 614.516 791.203 617.234 787.875 617.391C787.781 617.391 787.672 617.391 787.578 617.391C785.797 617.391 784.719 616.609 785.203 614.438C785.422 613.453 785.641 612.469 785.828 611.469C786.453 608.203 785.172 606.438 785.172 606.438C785.172 606.438 774.359 602.719 771.328 602.172C771.078 602.125 770.812 602.109 770.547 602.109C768.969 602.109 767.344 602.875 767.047 603.766C765.891 607.266 766.594 608.047 768.391 610.391C768.781 610.906 769.297 611.609 769.922 612C771.578 613.047 773.156 613.922 771.672 616.375C770.562 618.219 769.312 619.406 767.422 619.406C766.938 619.406 766.422 619.328 765.844 619.172C762.812 618.078 761.734 617.094 756.891 617C755.375 616.562 753.719 615.984 752.594 614.937C748.641 611.344 743.625 610.313 738.437 610.313C738.406 610.313 738.391 610.313 738.359 610.313C737.078 610.313 735.75 609.297 735.016 608.297C732.547 604.969 730.641 604.188 726.906 604.078C724.031 603.984 719.687 604.156 716.844 603.844C716.609 603.859 716.359 603.859 716.094 603.859C713.781 603.859 711 603.312 711 603.312L710.562 600.484L704.797 600.203L706.953 619.297L699.812 733.469L697.812 650.781L696.703 650.594L694.875 657.859V707.656L689.828 722.609L683.969 795.797L679.25 722.859L678.859 683.25L675.25 669.219L675.391 647.828L677.562 639.344L677.547 601.734L673.984 591.641C673.984 591.641 673.984 591.641 673.969 591.641C673.859 591.641 673.094 591.672 670.562 592.312C670.391 592.359 670.172 592.375 669.937 592.375C668.672 592.375 666.812 591.812 666.812 591.812L665.656 632.75L664.5 592.094C661.641 593.703 660.312 594.594 658.531 595.969C653.234 600.109 647.875 602.344 643.641 602.344C643.141 602.344 642.656 602.312 642.187 602.25C641.891 602.203 641.625 602.188 641.344 602.188C639.109 602.188 637.656 603.422 636.266 603.562C636.203 603.562 636.141 603.578 636.062 603.578C635.281 603.578 634.344 603.188 634.125 602.656C632.969 599.828 630.562 599.469 628.094 598.906C623.594 597.859 619.156 596.578 614.656 595.5C611.156 594.656 607.641 594.078 604.156 594.078C600.656 594.078 597.187 594.656 593.734 596.094C593.297 596.281 592.75 596.484 592.25 596.484C592 596.484 591.766 596.437 591.562 596.297C590.281 595.469 589.031 595.172 587.781 595.172C585.984 595.172 584.25 595.781 582.531 596.234C581.703 596.453 581 596.547 580.391 596.547C577.062 596.547 576.828 593.719 576.828 593.719L575.484 592.5L571.094 609.406L571.25 686.594L564.984 701.297L565 721.484L558.656 773.719L554.516 704.531L555.062 664.875L551 653.906C551 653.906 548.359 697.016 547.25 714.406L543.859 654.641L539.844 640.359L542.391 627.453L542.547 585.234L540.375 584.344C540.375 584.344 537.687 576.859 535.828 576.859C533.969 576.859 518.969 575.953 518.969 575.953C518.969 575.953 508.031 579.312 502.953 581.391C501.453 582 500.297 582.156 499.141 582.156C497.891 582.156 496.625 581.969 494.906 581.969C494.469 581.969 493.375 583.031 492.094 583.938C491.016 584.703 490 585.141 489.016 585.141C488 585.141 487.047 584.672 486.109 583.625C483.656 580.859 481.391 580.781 481.109 580.781C481.094 580.781 481.078 580.781 481.078 580.781C481.078 580.781 476.937 582.438 476.328 582.438C476.312 582.438 476.297 582.438 476.281 582.438C474.656 582.062 473.016 581.641 471.484 580.969C471.297 580.891 471.516 578.656 471.516 578.656L475.328 576.641L477.875 577.547L479.391 578.734L481.734 578.313L483.828 579.656C483.828 579.656 484.859 579.453 485.406 579.453C485.484 579.453 485.562 579.453 485.609 579.469C485.875 579.469 486.328 575.25 486.328 575.25L486.859 579.859C487.047 579.906 487.234 579.922 487.391 579.922C489.437 579.922 489.891 576.953 489.891 575.547C489.891 573.578 488.687 571.406 488.687 571.391L487.719 571.062L486.187 572.719L484.828 570.094L480.812 567.484L474.469 567.219L469.922 559.062L466.422 552.266C464.719 552.266 463.547 552.234 462.625 552.234C462.156 552.234 461.75 552.234 461.359 552.266C461.344 552.266 461.312 552.266 461.297 552.266C459.937 552.266 458.375 550.156 458.375 550.156C458.375 550.156 456.453 551.844 452.844 551.844C452.547 551.844 452.234 551.828 451.922 551.813L450.734 572.859C450.734 572.859 455.672 573.656 455.828 574.781C455.953 575.688 454.828 577.125 453.578 577.125C452.328 577.125 451.484 575.688 451.484 575.688L450.406 575.531L444.5 660.281L443.828 573.219L439.375 571.594L437.516 580.281L437.344 657.875L431.422 676.969L431.297 701.922L433.406 710.375L433.484 724.531L430.75 734.531L430.469 771.562L425.891 828.125L423.078 790.062L420.187 782.203L420.328 717.891L418.937 705.734C418.937 705.734 417.203 745.391 416.625 760.172L412.203 695.781L412.719 653.547L408.937 638.219L408.875 604.312L402.969 587.156V556.141C402.969 556.141 396.656 554.453 394.219 552.437C391.953 550.562 389 547.781 389 547.781L381.109 547.984L355.781 534.484L352.312 534.078L348.016 527.641L352.828 532.516C352.828 532.516 370.437 536.281 376.844 537.297C377.547 537.406 378.344 537.516 379.078 537.516C381 537.516 382.547 536.75 381.359 533.188C381.234 532.812 381.562 532.219 381.797 531.797C383.562 528.562 384.078 525.938 379.141 525.672C378.719 525.656 377.344 524.828 377.25 524.484C376.844 522.984 376.531 520.5 374.937 520.5C374.891 520.5 374.859 520.5 374.812 520.5C374.594 520.516 374.375 520.531 374.156 520.531C371.078 520.531 367.797 518.922 365.859 518.344C365.25 518.172 364.641 518.109 364.109 518.109C363.016 518.109 362.203 518.359 362.203 518.359C362.203 518.359 360.125 516.141 359.141 515.875C358.453 515.687 357.891 515.656 357.391 515.656C356.875 515.656 356.422 515.703 355.937 515.703C355.75 515.703 355.562 515.703 355.359 515.672C354.969 515.641 354.594 515.625 354.25 515.625C350.047 515.625 349.281 518.219 347.859 521.938C342.734 515.047 340.484 517.516 336.797 515.688C334.875 514.734 331.266 513.484 331.266 513.484C331.266 513.484 328.516 514.703 327.109 515.828C326.75 516.125 326 516.281 325.312 516.281C324.75 516.281 324.25 516.172 324.078 515.953C322.422 513.734 320.125 512.359 317.109 512.359C316.687 512.359 316.25 512.391 315.797 512.438C315.5 512.469 315.203 512.484 314.906 512.484C312.266 512.484 309.906 511.141 309.906 511.141L309.672 518.844L305.531 531.266L304.422 558.109L302.141 569.125L301.484 511.375L299.891 511.297L300.031 589.203L300.719 590.469L300.859 599.875L297.297 608.156L296.906 616.828L298.25 619.656L292.859 726.375L291.922 653.578L290.5 650.563L288.922 695.953L284.406 710.094L284.812 745.969L280.391 755.172V768.672L281 770.891L277.172 816.375L274.234 766.625L271.016 750.406L270.734 718.875L268.469 711.219L268.516 676.422L265.047 652.594L265.031 600.359L262.828 592.266L263.016 560.891L261.187 553.281L255.266 657.062L254.203 527.984L251.859 525.75C251.859 525.75 251.812 510.375 251.812 503.391C250.281 503.656 248.797 503.781 247.344 503.781C240.609 503.781 234.609 501.203 228.5 498.609C225.078 497.156 216.359 497.969 213.812 496.672C211.187 495.344 208.281 493.156 208.281 493.156C208.281 493.156 206.75 493.312 204.844 493.312C203.141 493.312 201.156 493.188 199.672 492.719C193.469 491.891 192.172 489.672 189.453 487.016C180.594 478.391 170.625 472.547 158.156 471.641C154.109 471.344 151.031 469.344 148.094 466.469C143.906 462.375 138.844 460.312 133.125 460.312C132.094 460.312 131.047 460.375 129.969 460.516C129.516 460.578 129.047 460.594 128.578 460.594C127.312 460.594 126.016 460.391 124.875 459.969C119.266 457.891 113.734 455.594 108.203 453.328C106.141 452.484 102.156 450.359 102.156 450.359C102.156 450.359 100.406 451.312 99.5156 451.875C99.4062 451.938 99.2656 451.969 99.0937 451.969C98.5624 451.969 97.8124 451.688 97.4687 451.359C93.6249 447.703 90.0156 444 89.6406 438.062C89.4999 435.938 90.0156 434.766 89.1406 433.891C86.2656 431 82.6406 427.547 82.6718 423.516C82.7031 418.953 82.4218 412.719 82.5624 408.156C82.8124 400.531 86.3281 395.203 92.7187 390.766C95.9687 388.5 99.1718 387.125 102.812 386.797C103.547 386.734 104.297 386.703 105.047 386.703C108.766 386.703 112.672 387.375 116.047 387.563C126.984 388.125 124.328 389.203 127.187 389.594C128.391 389.75 129.922 389.828 131.406 389.828C132.484 389.828 133.547 389.797 134.422 389.719C136.484 389.641 138.297 389.594 139.891 389.594C150.016 389.594 151.953 391.344 158.937 396.234C166.297 401.391 174.875 398.156 179.062 401.109C180.422 402.078 183.984 406.391 188.328 407.859C194.906 410.094 196.828 409.594 200.844 410.656C210.047 413.094 213.875 413.719 218.172 413.719C219.5 413.719 220.875 413.656 222.469 413.578L223.109 414.625L225.859 415L227.969 413.312L248.719 413.719L247.469 394.859L243.281 381.797L249 358.656V331.453L249.812 330.797L249.859 327.781L249.031 326.766C249.047 325.109 249.047 324.031 249.047 324.031L249.906 323.891L249.953 319.313L248.844 318.234L248.984 308.438L254.484 296.453L255.094 285.281L262.406 279.484C262.406 279.484 266.266 278.75 267.641 278.219C273.187 276.109 276.156 274.422 276.156 274.422C287.125 273.5 292.766 270.844 292.766 270.844L294.875 263.766C295.734 266.578 297.812 274.391 297.812 274.391L301.859 272.859C301.859 272.859 304.234 277.219 306.672 277.531L308.406 270.25L311.031 271.109L313.219 247.641L316.641 289.641L318.094 292.922C318.094 292.922 319.094 285.828 319.375 284.406C319.625 288.328 321.422 300.188 321.422 300.188C321.422 300.188 326.672 310 328.219 314.938C328.219 314.938 326.516 320.359 325.141 328.578C323.297 330.922 320.078 333.156 320.375 339.906C320.641 346.156 321.562 351.312 321.562 351.312L318.922 354.422L319.25 401.266L311.75 429.469L331.141 431.109L338.094 434.328L347.141 434.062L364.578 438.344L367.781 437.625L374.703 441.719L379 441.328C379 441.328 379.609 442.125 380.281 442.375L379.391 446.203L380.609 447.828L384.016 448.219L390.734 453.812L394.859 451.688L392.25 396.75L394.625 392.344L394.594 376.109L387.187 354.859L387 316L385 313.688L384.406 333.281L381.547 300.188L378.187 294.859L378.172 287.438L377.297 286.969C377.312 285.484 378.141 281.141 378.141 281.141L376.797 279.422L379.031 257.516C379.031 257.516 382.766 256.125 386.016 248.063C388.797 241.172 391.516 238.812 395.719 235.266C398.406 233 400.703 230.234 403.469 228.094C406.594 225.687 407.375 222.953 413.375 221.578C418.344 220.438 422.031 215.078 422.031 215.078L423.812 217.125L427.953 204.938L430.844 203.953L434.922 171.875L437.203 211.641L439.141 211.938L441.016 198.062L443.547 223.328L445.094 223.891L445.625 216.234L447.672 213.594L449.141 197.484L450.875 219.703L451.859 222.812L452.844 219.297L454 230.797L457.891 233.141L457.937 237.719L461.828 243.719C461.828 243.719 462.406 250.922 462.312 252.813C462.234 254.688 462.125 258.422 462.125 258.422L463.5 264.531L461.25 268.406L461.141 270.781L462.047 271.531L462.219 293.359L459.906 304.469L460.859 310.516L456.828 383.344L456.062 329.609L453.312 341.953L453.125 395.234L456.719 407.125L456.969 466.5C456.969 466.5 459.078 465.453 461.937 465.453C462.078 465.453 462.219 465.453 462.359 465.453C466.766 465.609 470.5 469.156 476.984 470.266C479.094 471.75 482.141 475.266 484.484 476.375C485.141 476.688 489.578 477.578 489.578 477.578L494.125 481.766C494.828 481.703 495.484 481.672 496.109 481.672C499.391 481.672 501.891 482.469 504.422 483.719C510.156 485.203 515.016 487.75 518.203 492.766C520.375 496.188 523.328 498.188 525.422 499.391C527 500.297 532.766 500.406 535.484 500.406C536.359 500.406 536.922 500.391 536.922 500.391L536.797 443.938L531.922 425.469L531.5 384L536.812 373.469L536.344 338.438L534.797 333.266L534.891 320.797L533.562 322.469C533.562 322.469 532.609 361.406 532.156 375.031C531.953 375.031 528.359 303.641 528.359 303.641L525.094 297.016C525.094 297.016 528.125 288.75 528.125 287.375C528.125 284.016 526.828 282.453 526.828 282.453L526.391 270.078C526.391 270.078 528.891 264.766 529.969 258.078C530.719 253.469 530.75 247.953 530.75 247.953L539.953 236.859L540.187 228.578L543.984 224.187L545.906 188.078L547.875 215.266L551.859 229.828L553.781 227.781V218.328L555.906 222.078L556.656 206.391L557.562 220.234L560.75 226.094L565.062 224.969L574.391 230.422L577.859 230.312L579.734 223.656L581.75 233.984L584.828 236.078L585.891 239.531C585.891 239.531 590.203 242.125 591.016 242.984C593.141 246.125 597.172 257.219 597.172 257.219L598.203 270.062C591.531 284.219 590.812 291.172 590.828 299.75C590.859 309.859 589.031 332.109 589.031 332.109L593.062 350.563L590.172 466.781L587.797 477.641C587.797 477.641 587.734 422.172 587.734 397.234L586.906 395.719L583.703 410.469L583.625 487.062L581.969 501.156L581.766 515.391C581.766 515.391 583.781 516.969 586.719 517.594C591.672 521.453 597.359 523.078 603.625 523.078C605.797 523.078 608.031 522.875 610.344 522.516C610.953 522.422 611.594 522.484 612.219 522.438C612.453 522.422 612.688 522.422 612.922 522.422C615.938 522.422 618.125 523.781 619.25 526.875C620.359 529.922 622.469 530.781 625.641 530.938C629.281 531.125 630.859 530.734 634.453 531.547C636.875 532.078 637.234 534.781 643.687 534.781C647.859 534.969 651.266 536.703 654.656 538.906C657.234 540.578 663.484 543.5 663.484 543.5L662.375 502.234L663.141 464.172L661.109 455.25L660 453.906L657.656 480.734L652.25 444.453L651.984 401.484L655.187 390.281L655.203 373.188L652.609 360.344L652.953 355.25L651.359 354.344L651.266 351.047L650.531 349.844L655.172 326.031L661.562 320.406L666.781 307.172L668.047 312.172L669.344 313L671.297 280.797L675.312 305.406L678.25 307.938L680.562 306.859L683.703 263.687L686.234 303.734L687.969 287.516L689.312 306.953L690.859 304.953L692.156 307.391L693.844 307.484L695.016 309.531L697.828 309.391C700.234 311.828 703.734 312.609 705.234 313.656C707.625 315.328 710.906 315.812 710.906 315.812C710.906 315.812 715.656 323.078 717.797 328.062C719.5 332.016 721.969 340.359 721.969 340.359L721.344 354.25L722.938 359.266L718.891 370.187L723.609 377.062L717.844 506.234L715.578 421.5L714.281 426.516L714.437 449.844L709.281 461.672C709.281 461.672 709.031 501.297 709.25 519.297C709.328 525.516 709 529.031 709 529.031L703.234 543.266L703.141 552.813L707.594 555.25C709.859 554.859 712.187 554.641 714.516 554.641C719.5 554.641 724.453 555.688 728.734 558.5C731.047 560.016 734.016 560.641 736.766 561.359C738.266 561.766 739.047 561.859 739.672 561.859C740.234 561.859 740.687 561.781 741.437 561.781C741.969 561.781 742.641 561.812 743.625 561.953C744.812 562.109 748.719 564.406 750.531 564.406C750.75 564.406 750.953 564.375 751.094 564.297C752.5 563.547 753.797 559.766 755.844 559.406C755.937 559.391 756.047 559.375 756.156 559.375C758.109 559.375 760.078 562.578 760.094 564.016C760.109 565.422 760.219 567.984 760.219 567.984C760.219 567.984 765.172 570.766 767.594 570.766C767.609 570.766 767.641 570.766 767.656 570.766C778.047 570.766 783.516 574.609 792.312 576.266C798.687 577.469 801.5 577.828 807.75 579.547C809.969 580.156 813.984 580.547 816.094 582.422C816.969 583.203 816.672 585.203 821.203 586.5C823.672 587.203 830.969 587.141 835.641 589.891C843.609 594.594 849.297 596.375 854.922 596.375C855.594 596.375 856.266 596.344 856.938 596.297C857.297 596.266 857.656 596.25 858.031 596.25C860.031 596.25 862.219 596.641 863.75 597.656C869.578 601.547 875.969 603.219 882.75 603.953C884.266 604.125 886.469 605.281 887.953 605.703C887.937 605.938 885.391 607.203 882.562 607.203C882.531 607.203 882.5 607.203 882.484 607.203C880.406 607.188 878.156 605.906 876.859 605.906C876.844 605.906 876.828 605.906 876.812 605.906C875.969 605.922 875.234 605.937 874.609 605.937C869.812 605.937 870.156 605.312 865.969 604.437C865.453 604.328 865.031 604.281 864.672 604.281C863.234 604.281 862.797 605.125 861.484 606.719C860.047 608.469 857.828 609.906 855.875 609.906C855.641 609.906 855.422 609.891 855.187 609.844C852.812 609.391 850.797 606.828 846.672 606.234C837.047 604.844 839.094 602.516 831.219 599.516C829.156 598.734 823.219 598.172 820.984 598.031C812.094 598.031 815.703 594.187 810.562 593.797C805.437 593.406 805.297 590.141 803.187 589.438C802.812 589.312 802.5 589.266 802.187 589.266C801.172 589.266 800.187 589.75 797.25 589.75C796.828 589.75 796.359 589.734 795.859 589.719C795.719 589.719 795.578 589.719 795.437 589.719C795.156 589.719 794.859 589.719 794.547 589.719C793.688 589.719 792.781 589.656 792.25 589.219C784.719 583.094 775.375 584.547 766.812 582.797C758.187 582.359 756.203 579.984 751.656 579.797C751.578 579.797 751.516 579.797 751.437 579.797C748.203 579.797 742.625 582.547 742.625 582.547C742.625 582.547 742.359 585.219 742.719 586.312C743.891 589.922 746.828 591.844 751.187 591.844C752.016 591.844 752.891 591.781 753.812 591.641C755.156 591.438 756.469 591.203 757.687 591.203C759.75 591.203 761.578 591.859 762.891 594.469C763.062 594.813 763.734 595.031 764.203 595.078C764.828 595.188 765.516 595.219 766.187 595.219C766.672 595.219 767.156 595.203 767.641 595.203C768.297 595.203 768.922 595.219 769.5 595.328C771.422 595.703 772.906 596.719 774.656 597.078C811.625 604.5 811.609 608.437 819.703 608.437C824.359 608.437 825.922 608.922 832.984 608.922C834 608.922 835.812 613.203 848.437 616.141C851.469 617.141 852.609 617.891 863.578 617.891C865.984 617.891 874.641 623.391 879 623.578C879.078 623.578 879.172 623.578 879.266 623.578C880.375 623.578 882.391 623.312 882.438 621.891C882.469 620.625 881.172 619.375 880.172 618.906C877.812 617.797 875.203 617.234 872.766 616.312C871.5 615.828 870.281 615.156 869.219 614.328C868.781 613.984 868.391 613.453 868.625 612.344C868.719 611.875 869.141 611.75 869.594 611.75C870.219 611.75 870.906 612 870.906 612C870.906 612 875 615.609 885.781 617.25C888.734 618.5 896.062 623.75 899.125 624.703C899.328 624.703 899.531 624.703 899.734 624.703C907.406 624.703 909.906 625.922 911.828 627.563C912.859 628.438 913.875 628.734 915.984 629.125C916.5 629.219 917.125 629.25 917.797 629.25C919.281 629.25 921 629.094 922.25 629.094C923.406 629.094 924.172 629.234 924.031 629.734C923.797 631.656 922.828 632.906 920.937 632.906ZM920.687 619.984C918.172 619.984 915.859 618.453 912.609 616.125C912.328 615.922 912.156 615.453 912.156 615.453C917.766 615.688 921.297 617.562 925.203 618.5C923.516 619.531 922.062 619.984 920.687 619.984ZM964.578 644.031C964.531 644.031 964.484 644.031 964.422 644.016C963.734 643.938 963.047 642.844 962 642.844C961.984 642.844 961.984 642.844 961.969 642.844C960.172 642.891 957.984 644 957.531 644C957.516 644 957.484 644 957.469 643.984C954.281 642.562 949 640.641 945.266 640.297C944.734 640.25 943.516 640.25 942.922 640.016C941.719 639.547 941.266 637.703 940.062 637.016C938.047 635.875 936.172 635.531 935.859 634.625C934.391 630.375 932.312 629.891 928.984 629.031C928.438 628.891 927.688 628.25 927.594 627.578C927.547 627.234 927.703 626.625 928.047 626.625C928.578 626.609 929.109 626.594 929.641 626.594C936.969 626.594 943.719 628.359 949.016 633.937C949.656 634.609 951.437 634.75 953.375 634.75C954.594 634.75 955.875 634.703 956.969 634.703C957.812 634.703 958.547 634.734 959.062 634.844C961.219 635.359 962.672 636.047 966.703 637.156C967.562 637.391 968.703 640.266 968.422 640.547C967.094 641.797 966.031 644.031 964.578 644.031ZM967.547 634.078C960.781 634.078 949.703 631.406 949.703 631.406L949.203 629.984L954.547 631.109L956.922 629.203C956.922 629.203 965.328 632.656 968.75 634.047C968.375 634.078 967.969 634.078 967.547 634.078ZM392.812 529.25C393.812 530.188 394.016 530.656 394.266 532.391C394.297 532.594 393.516 534.734 393.484 534.969C393.203 537.406 393.156 540.812 390.562 540.812C390.234 540.812 389.875 540.766 389.469 540.641C387.203 540 384.797 537.078 384.828 533.5C384.859 530.734 386.234 529.109 387.75 528.453C388.203 528.266 388.766 528.172 389.375 528.172C390.656 528.156 392.078 528.563 392.812 529.25ZM443.312 554.875L443.641 570.359L441.187 569.562L441.078 553.125L443.312 554.875ZM731.797 585.641C732 586.937 731.609 588.766 730.766 589.672C730.422 590.047 729.719 590.156 728.953 590.156C728.328 590.156 727.656 590.078 727.109 590C722.328 589.344 717.609 587.937 712.766 587.812C709.734 587.734 707.156 587.734 705.688 587.734C704.828 587.734 704.344 587.734 704.344 587.734C702.672 585 703.562 579.781 703.562 579.781C706.859 581.484 710.141 581.984 713.422 581.984C717.094 581.984 720.75 581.359 724.406 581.062C724.859 581.031 725.281 581.016 725.687 581.016C729.406 581.031 731.312 582.547 731.797 585.641ZM663.891 567.891C663.922 568.734 663.938 570.734 663.812 572.172C659.172 572.703 654.562 573.328 649.953 573.328C644.906 573.328 639.891 572.578 634.906 570.156C634.125 569.781 633.219 569.641 632.266 569.641C630.328 569.641 628.141 570.187 626.203 570.453C624.25 570.719 622.422 571.734 620.5 572.234C619.812 572.406 618.937 572.563 617.984 572.563C616.844 572.563 615.578 572.344 614.391 571.719C614.516 567.188 613.484 565.297 612.375 565.172C610.125 564.922 607.266 564.438 607.266 564.438L607.766 559.078C604.812 558.734 603.141 558.062 597.5 558.062C597.375 558.062 597.266 558.062 597.141 558.062C595.281 556.172 592.125 555.297 590.109 552.609C587.828 548.578 585.937 546.453 582.578 544.484C581.844 544.062 581.375 543.172 580.797 542.5C581 542.188 581.203 541.875 581.406 541.562C582.406 541.953 583.609 542.125 584.391 542.781C585.703 543.922 587.062 545.219 587.844 546.75C591.078 553.094 596.234 555.391 602.406 555.391C603.297 555.391 604.219 555.344 605.156 555.25C605.187 555.25 605.203 555.25 605.234 555.25C610.516 555.25 612.672 553.453 612.672 553.453C612.672 553.453 617.531 554.437 619.828 555.375C620 555.453 620.219 555.484 620.437 555.484C620.625 555.484 620.797 555.453 620.938 555.375C622.797 554.328 624.578 553.922 626.312 553.922C629.828 553.922 633.141 555.625 636.516 557.234C638.266 558.078 640.609 557.391 642.484 558.062C643.937 558.594 643.359 561.25 646.062 561.25C646.281 561.25 646.531 561.234 646.812 561.188C646.969 560.484 647.188 559.469 647.422 558.359C647.922 558.406 648.422 558.312 648.594 558.516C650.187 560.453 651.766 562.391 653.234 564.422C654.469 566.141 655.797 567.141 657.75 567.141C658.219 567.141 658.719 567.078 659.266 566.969C661.016 566.594 662.156 566.203 662.859 566.203C663.562 566.188 663.844 566.609 663.891 567.891Z" fill="black"/>
</g>
<defs>
<clipPath id="clip0_9_286">
<rect width="1000" height="1000" fill="white"/>
</clipPath>
</defs>
</svg>
