<svg width="1000" height="1000" viewBox="0 0 1000 1000" fill="none" xmlns="http://www.w3.org/2000/svg">
<g clip-path="url(#clip0_8_115)">
<path d="M499.417 0C239.167 0 19.5834 201.667 1.25004 465.292C-17.9166 740.708 189.875 979.583 465.333 998.792C740.75 1017.96 979.625 810.167 998.833 534.708C1017.92 259.292 810.167 20.4167 534.708 1.25C522.917 0.416667 511.125 0 499.417 0ZM578.167 130.833C595.917 130.833 613.375 131.958 630.583 134.125L605.417 180.792L558.917 267.167L527.375 326.083C526.25 328.167 525.042 329 522.625 328.875C473.167 325.542 438.583 338.667 432.792 339.958L441.125 308.708L483.417 151.708C484.375 148.167 485.375 144.625 486.25 141.042C516.419 134.263 547.246 130.853 578.167 130.875V130.833ZM684.167 144.458C733.792 157.458 779.917 179.375 820.708 208.375L745.833 271.417L674.5 331.208C662.5 341.292 650.5 351.458 638.625 361.708C636.708 363.333 635.292 363.5 632.917 362.417C608.565 348.019 581.864 338.033 554.042 332.917L573.333 305L649.583 194.542C661.125 177.875 672.667 161.208 684.167 144.458ZM446.708 152C446.042 156.333 445.458 160.375 444.75 164.417C436.741 210.633 428.686 256.841 420.583 303.042C418.083 317.708 415.792 329.917 413.5 344.625C413.083 347.375 411.375 347.792 409.625 348.5C372.708 363.833 342.75 390.542 333.083 400L330.875 373.542C330.042 364.083 329.333 354.667 328.583 345.25C327.792 335.458 327.042 325.667 326.208 315.917L323.708 287.375L321.333 259.125L318.833 229.833C318.625 227.083 318.208 224.333 318.25 221.583L318.292 221.375C356.723 190.937 400.184 167.458 446.708 152ZM286.125 249.792L292.042 276.125L313.792 372.917C316.542 385.125 319.333 396.583 321.917 408.833C322.018 409.513 321.982 410.207 321.811 410.872C321.639 411.538 321.335 412.163 320.917 412.708C305.077 431.27 291.702 451.802 281.125 473.792L269.583 450.5C251.667 414.458 233.792 378.417 215.833 342.458C215.382 341.654 215.125 340.755 215.083 339.833L220.292 331.25C230.667 316.542 240.75 301.542 251.75 287.292C259.958 276.708 269.792 267.417 278.875 257.542L286.125 249.792ZM508.542 338.708C513.417 338.708 518.292 338.833 523.167 339.167C556.792 341.375 588.208 351.583 617.917 367.333C636.958 377.417 654.5 389.667 670.833 403.625C673.625 406 676.25 408.542 679.25 411.292L621.625 450.875L466.5 556.875C453.667 565.625 440.875 574.583 427.958 583.25C425.042 585.167 424.125 586.833 424.958 590.417C428.292 604.833 431.083 619.333 434.125 633.75C434.25 634.375 434.542 634.917 434.833 635.792L460.75 630.667L512.458 739.25C506.292 738.417 500.708 737.542 495.083 736.875C483.208 735.542 471.333 734.083 459.417 733.125C448.918 732.15 438.377 731.705 427.833 731.792C408.958 732.208 390.042 733.375 372 739.792C361.917 743.375 352.833 748.458 346.083 757.792C341.542 753.333 336.958 749.125 332.75 744.625C315.437 726.138 301.201 704.995 290.583 682C281.037 661.273 274.445 639.309 271 616.75C268.173 599.12 267.46 581.216 268.875 563.417C272.152 519.675 287.324 477.66 312.75 441.917C331.265 415.615 354.802 393.238 382.005 376.075C409.208 358.912 439.539 347.303 471.25 341.917C483.625 339.792 496.083 338.708 508.542 338.708ZM450.625 371.417C449.542 371.875 448.5 372.292 447.458 372.792C424.758 383.373 403.422 396.664 383.917 412.375C360.853 430.453 341.077 452.371 325.458 477.167C307.832 505.396 297.972 537.779 296.875 571.042C296.125 591.25 298.958 611.125 303.958 630.667C311.042 658.792 322.875 685 337.208 710.125C338.583 712.542 340.292 712.208 342 711.417C346.958 709.083 351.792 706.5 356.875 703.917L355.208 701C348.375 689.042 340.875 677.417 334.833 665.083C318.458 631.542 309.875 596.333 313.167 558.667C314.417 544.917 316.875 531.5 321.167 518.417C336.667 471.458 366.583 434.917 404 403.833C418.583 391.75 434.125 381 450.625 371.417ZM194.875 379.167L209.333 398.5C230.417 426.833 251.75 455.083 272.833 483.375C274.375 485.458 275.542 487.167 274.375 490.125C268.417 505.375 263.125 524.708 261.125 540.333C255.958 535.792 250.833 531.333 246.125 527.125L183.542 471.958C178.708 467.667 173.833 463.417 169.125 458.958C168.546 458.356 168.143 457.607 167.958 456.792C174.149 430.931 182.756 405.709 193.667 381.458L194.875 379.167ZM708.333 403.958L713.958 437.958C716.333 452.667 718.583 467.375 720.958 482.125L729 531.792C730.5 540.833 731.917 549.917 733.458 559C733.875 561.375 733.583 562.583 730.667 563.125C697.75 569.5 664.792 576.083 631.833 582.542C590.708 590.625 549.542 598.583 508.417 606.625C486.917 610.833 465.5 615.167 444 619.417C443.625 619.5 443.292 619.417 442.667 619.375C440.25 610.75 437.708 602.125 435.5 593.417C435.25 592.5 436.167 590.917 437.083 590.083L708.333 403.958ZM160.75 494.583L184.583 509.417C208.167 524.083 232.208 538.875 255.833 553.458C258.125 554.875 258.958 556.292 258.833 558.875C258.458 565.208 256.958 594.625 260.292 615.333L242.792 609.208C214.583 599.458 186.417 589.667 158.208 580.042C157.775 579.884 157.357 579.689 156.958 579.458C155.43 551.112 156.686 522.684 160.708 494.583H160.75ZM160 612.667C164.875 613.583 169.583 614.458 174.25 615.458C203.25 621.5 232.042 627.417 261 633.583C262.25 633.875 264.125 635.333 264.25 636.458C266.75 648.125 274.625 670.583 274.958 671.875H258.25C245.167 671.875 232.083 671.792 219 671.875C203.583 672.042 188.125 672.292 172.667 672.625H172.375C166.813 652.948 162.678 632.896 160 612.625V612.667ZM503.458 636.042C504.292 636.042 505.542 636.875 506.25 637.542C518.917 650.125 531.125 663.167 544.208 675.25C555.208 685.417 567.208 694.458 578.792 704C595.25 717.5 609.667 733.042 622.083 750.375C643.75 780.667 659.417 813.792 668.125 850.042C668.614 853.571 668.154 857.166 666.792 860.458C663.042 871.5 655.042 879.5 646.208 886.625C633.875 896.625 619.958 904.125 605.292 910.208C602.25 911.458 601.125 910.833 599.792 907.875C584.667 874.792 569.375 841.792 554.125 808.792L492.167 674.5L477.708 643.25L476.875 641.083C485.792 639.375 494.542 637.625 503.292 636.083H503.458V636.042ZM278.75 686.25C280.208 686.25 281.25 686.958 282.25 688.75C287.75 698.417 288.833 702.792 300.208 720.417L212.083 767.375C201.319 748.494 192.028 728.811 184.292 708.5L204.708 703.625L276.875 686.417C277.5 686.251 278.145 686.167 278.792 686.167L278.75 686.25ZM426 745.083C430.917 745.083 435.792 745.292 440.708 745.708C463.083 747.583 485.375 750.333 507.708 752.833C508.833 752.958 510.333 754.083 510.833 755.125C519.875 774.667 528.833 794.25 537.75 813.875C538.167 814.708 538.167 816.042 537.75 816.792L512.875 861.708C495.5 858.75 478.542 855.542 461.458 853.042C448.345 851.109 435.171 849.608 421.958 848.542C408.458 847.458 394.917 846.458 381.417 846.5C358.792 846.5 336.292 848.583 314.625 855.875L312.75 856.458L325.458 826.875C333.417 808.292 341.625 789.792 349.208 771.042C351.653 765.011 356.196 760.068 362 757.125C371.9 752.031 382.645 748.784 393.708 747.542C404.417 746.042 415.208 745.083 426 745.083ZM426.833 756.333C408.141 756.826 389.594 759.768 371.667 765.083C370.158 765.668 368.924 766.798 368.208 768.25C361.167 782.625 354.25 797.083 347.375 811.542C345.25 815.875 343.208 820.292 341.125 824.667L342.083 825.5C342.292 824.958 342.375 824.333 342.708 823.875C354.583 807.208 366.458 790.542 378.417 773.958C379.614 772.398 381.255 771.236 383.125 770.625C405.417 763.75 427.792 757.542 451.667 759.292C450.542 758.958 449.417 758.583 448.292 758.375C441.221 757.009 434.034 756.339 426.833 756.375V756.333Z" fill="black"/>
</g>
<defs>
<clipPath id="clip0_8_115">
<rect width="1000" height="1000" fill="white"/>
</clipPath>
</defs>
</svg>
