<svg width="1000" height="1000" viewBox="0 0 1000 1000" fill="none" xmlns="http://www.w3.org/2000/svg">
<g clip-path="url(#clip0_10_67)">
<path d="M846.542 182.083C781.71 152.326 713.292 131.108 643 118.958C642.359 118.833 641.694 118.915 641.103 119.192C640.511 119.47 640.023 119.927 639.708 120.5C630.958 136.125 621.208 156.5 614.375 172.583C538.601 161.074 461.524 161.074 385.75 172.583C378.145 154.762 369.563 137.375 360.042 120.5C359.713 119.94 359.223 119.493 358.635 119.218C358.048 118.943 357.39 118.852 356.75 118.958C286.452 131.082 218.03 152.302 153.208 182.083C152.66 182.313 152.194 182.706 151.875 183.208C22.2083 376.917 -13.3333 565.833 4.12501 752.375C4.16742 752.838 4.30384 753.287 4.52594 753.696C4.74804 754.104 5.05113 754.463 5.41667 754.75C80.8998 810.675 165.338 853.366 255.125 881C255.758 881.183 256.432 881.17 257.057 880.961C257.682 880.753 258.229 880.359 258.625 879.833C277.928 853.604 295.014 825.813 309.708 796.75C309.913 796.352 310.031 795.915 310.055 795.469C310.079 795.022 310.008 794.575 309.846 794.158C309.685 793.74 309.437 793.362 309.119 793.048C308.801 792.733 308.419 792.49 308 792.333C281.059 782.024 254.978 769.596 230 755.167C229.542 754.902 229.157 754.528 228.878 754.078C228.6 753.629 228.437 753.117 228.404 752.589C228.371 752.061 228.469 751.534 228.689 751.053C228.91 750.572 229.245 750.153 229.667 749.833C234.927 745.898 240.095 741.841 245.167 737.667C245.61 737.307 246.145 737.077 246.712 737.004C247.278 736.93 247.854 737.015 248.375 737.25C412.042 811.958 589.208 811.958 750.958 737.25C751.484 737.007 752.068 736.917 752.643 736.991C753.218 737.065 753.761 737.299 754.208 737.667C759.208 741.75 764.458 745.917 769.75 749.833C770.167 750.148 770.5 750.559 770.722 751.032C770.943 751.504 771.046 752.024 771.021 752.545C770.997 753.066 770.845 753.574 770.58 754.023C770.315 754.473 769.944 754.851 769.5 755.125C744.579 769.69 718.473 782.123 691.458 792.292C691.038 792.453 690.656 792.7 690.337 793.019C690.019 793.337 689.771 793.719 689.61 794.14C689.449 794.56 689.378 795.01 689.402 795.46C689.426 795.909 689.545 796.349 689.75 796.75C704.75 825.833 721.917 853.5 740.792 879.792C741.18 880.327 741.727 880.728 742.354 880.937C742.982 881.146 743.66 881.154 744.292 880.958C834.229 853.41 918.804 810.714 994.375 754.708C994.743 754.448 995.052 754.113 995.281 753.725C995.511 753.338 995.657 752.906 995.708 752.458C1016.54 536.75 960.792 349.375 847.833 183.292C847.569 182.731 847.11 182.287 846.542 182.042V182.083ZM334.167 638.75C284.875 638.75 244.292 593.542 244.292 537.958C244.292 482.417 284.125 437.167 334.167 437.167C384.583 437.167 424.833 482.833 424.042 538C424.042 593.542 384.208 638.75 334.167 638.75ZM666.458 638.75C617.167 638.75 576.583 593.542 576.583 537.958C576.583 482.417 616.375 437.167 666.458 437.167C716.875 437.167 757.125 482.833 756.333 538C756.333 593.542 716.917 638.75 666.458 638.75Z" fill="black"/>
</g>
<defs>
<clipPath id="clip0_10_67">
<rect width="1000" height="1000" fill="white"/>
</clipPath>
</defs>
</svg>
