<svg width="1000" height="1000" viewBox="0 0 1000 1000" fill="none" xmlns="http://www.w3.org/2000/svg">
<path d="M399.72 504.24C399.72 504.24 410.96 486.68 430.62 478.96C450.28 471.24 443.96 490.2 433.44 497.92C422.88 505.64 412.34 507.76 399.72 504.24ZM410.24 472.62C391.98 476.14 386.36 485.96 388.46 496.5C391.28 488.08 410.24 472.64 410.24 472.62ZM695.42 557.64C687.68 564.66 672.24 589.96 672.24 589.96C672.24 589.96 696.12 587.14 703.16 568.18C710.16 549.2 703.14 550.62 695.42 557.64ZM207.96 576.6C221.3 588.54 245.18 598.38 245.18 598.38L246.58 553.44C236.06 553.44 211.48 559.76 205.14 561.16C198.82 562.54 194.6 564.66 207.96 576.6ZM920 260V740C920 839.26 839.24 920 740 920H260C160.76 920 80 839.26 80 740V260C80 160.74 160.76 80 260 80H740C839.24 80 920 160.74 920 260ZM270.82 438.68L282.26 443.14C283.72 443.26 285.12 442.56 285.9 441.32C332.88 366.48 417.56 316.2 515.02 316.2C630.98 316.2 729.18 387.24 766.58 486.36C767.16 487.88 768.58 488.9 770.22 488.9H782.14C783.54 488.9 784.54 487.48 784.08 486.16C746 378.2 639.74 300.28 514.88 300.28C410.6 300.28 319.16 354.76 269.24 435.56C268.42 436.84 269.32 438.54 270.82 438.68ZM318.22 476.86C262.02 449.46 242.36 445.94 198.8 448.76C155.26 451.58 155.26 473.34 165.78 474.06C172 474.48 175.52 474.94 177.38 475.16C178.94 475.34 179.16 474.94 179.68 474.24C180.12 473.64 180.32 472.74 180.54 472.2C180.92 471.22 180.48 470.22 179.6 469.84C178.7 469.44 168.6 464.94 168.6 464.94C168.6 464.94 223.4 450.9 291.52 483.9C359.64 516.9 377.22 559.76 358.26 580.84C339.3 601.92 306.28 612.46 265.54 603.32C264.84 574.52 266.24 553.44 266.24 553.44C266.24 553.44 304.18 552.04 314.02 559.06C322.42 565.06 317.5 569 311.96 571.34C311.02 571.74 310.92 573.48 311.78 573.98C319.64 578.34 325.9 579.36 331.58 572.42C337.9 564.7 344.92 531.68 267.66 533.78C266.26 520.44 270.48 511.3 259.24 497.96C248 484.56 248 534.44 248 534.44C248 534.44 219.2 538.64 195.32 555.52C171.44 572.38 244.48 613.12 244.48 613.12C244.48 613.12 245.88 631.38 256.42 633.5C266.96 635.6 266.26 620.16 266.26 620.16C266.26 620.16 329.46 638.42 371.64 601.2C413.76 563.94 374.42 504.24 318.22 476.86ZM394.8 516.88C406.04 521.82 427.8 518.3 441.86 504.24C455.9 490.2 462.24 464.2 437.66 465.6C437.66 465.6 428.52 453.66 408.86 459.28C389.2 464.9 364.62 490.9 382.18 507.74C382.16 515.46 384.28 530.22 394.8 516.88ZM414.46 606.1C414.46 595.56 413.76 553.42 412.34 544.98C410.94 536.56 403.22 529.52 399 537.96C399 537.96 395.48 578.7 396.88 603.98C397.6 614.54 414.46 616.62 414.46 606.1ZM453.08 550.6C467.82 549.2 478.38 548.48 491.02 546.4C503.66 544.3 504.36 535.16 494.52 533.06C494.52 533.06 455.88 524.64 429.9 541.48C417.26 549.9 420.76 565.36 427.78 566.06C434.8 566.76 470.62 568.18 479.06 573.78C487.48 579.4 489.6 583.62 480.46 589.24C471.32 594.86 450.96 597.66 442.52 594.86C434.1 592.04 431.28 577.3 446.72 585.02C462.18 592.74 490.26 583.62 471.3 577.3C452.34 570.98 436.9 572.4 427.06 579.42C417.22 586.44 430.58 601.2 441.8 606.1C453.04 611 474.12 612.42 486.76 604.7C499.4 596.98 505.72 567.48 485.36 562.56C464.98 557.66 452.34 558.36 443.22 556.94C434.12 555.52 438.34 552.02 453.08 550.6ZM555.66 526.76C533.88 501.46 545.1 537.26 546.52 543.58C547.92 549.9 553.54 573.78 553.54 583.62C546.52 573.08 535.28 552 525.44 542.18C515.6 532.34 512.8 540.78 512.8 540.78C512.8 540.78 502.96 576.6 505.78 599.78C508.6 622.96 520.52 606.8 521.24 599.78C521.94 592.76 523.36 569.58 523.36 563.26C529.68 577.3 539.52 593.46 547.24 601.2C554.96 608.92 562.7 604.02 565.5 597C568.3 589.98 577.44 552.04 555.66 526.76ZM630.8 598.34C638.52 592.02 629.38 585.72 621.66 586.44C613.94 587.14 591.46 590.64 591.46 590.64L596.36 575.9C596.36 575.9 611.1 576.6 623.04 575.2C634.98 573.8 626.56 560.46 622.34 560.46C618.14 560.46 602.68 560.46 602.68 560.46L606.2 550.62C606.2 550.62 632.18 549.92 640.6 548.5C649.02 547.1 635.7 533.04 625.86 532.34C616.02 531.64 594.94 534.46 580.9 537.24C566.86 540.06 590.04 550.58 590.04 550.58C590.04 550.58 587.92 557.6 585.14 562.52C576.72 563.92 577.42 568.84 580.24 575.16C574.62 589.9 571.82 608.18 587.96 613.8C604.12 619.4 623.08 604.64 630.8 598.34ZM716.52 557.64C718.62 528.12 691.92 534.46 681.38 545C670.84 555.54 652.58 582.94 652.58 582.94C654.7 564.68 659.6 559.76 670.84 541.5C680.44 525.9 665.22 531.66 665.22 531.66C665.22 531.66 629.4 561.86 644.84 596.28C634.3 622.26 617.44 659.48 642.02 679.16C648.34 683.36 646.22 670.74 648.34 663.7C650.46 656.68 657.48 620.86 664.5 611.02C681.4 609.62 711.6 603.3 716.52 557.64ZM840.08 555.72C840.14 554.46 839.08 553.42 837.78 553.42H795.5C794.62 539.44 792.94 524.52 789.86 510.5C789.68 509.72 789.04 509.1 788.24 509.04C782.5 509.04 781.62 509.08 776.22 509.08C774.66 509.12 773.6 510.58 774 512.06C775.76 518.52 778.32 535 779.16 553.4H739C737.76 553.4 736.72 554.42 736.66 555.64L735.6 566.28C735.52 567.98 736.98 569.38 738.68 569.2L779.64 569.34C779.88 584.42 780 593.48 778.72 609.42C778.56 610.48 779.38 611.38 780.46 611.44C786.9 611.84 790.98 612.34 793.4 612.38C794.38 612.4 795.18 611.66 795.26 610.68C795.64 605.56 796.62 589.48 796.14 569.4L837.74 569.54C839.04 569.54 840.08 568.48 840.08 567.18V555.72Z" fill="black"/>
</svg>
