<svg width="1000" height="1000" viewBox="0 0 1000 1000" fill="none" xmlns="http://www.w3.org/2000/svg">
<path d="M200.844 719.719C172.375 719.719 146.5 696.469 146.5 668.125C146.5 639.781 169.75 616.375 200.844 616.375C232.094 616.375 255.562 639.656 255.562 668.125C255.562 696.469 229.531 719.719 201.031 719.719H200.844ZM868 438C862.281 396.656 836.75 362.969 803.031 337.25L789.875 326.844L779.281 339.688C758.781 362.969 750.5 404.312 753.062 435.219C755.531 458.688 762.969 481.938 776.187 500C765.437 505.531 752.437 510.406 742.312 515.781C718.562 523.562 695.437 526.187 672.344 526.187H4.06242L1.43742 541.469C-3.43758 590.812 4.06242 642.375 24.9062 689.094L35.1562 707.187V709.594C97.6562 813.125 208.812 859.688 330.062 859.688C563.156 859.688 754.219 758.938 844.844 541.656C904.25 544.25 964.187 528.781 992.312 471.812L999.812 458.969L987.437 451.125C953.594 430.469 907.344 427.719 868.656 438.125L867.812 438.281L868 438ZM534.344 396.656H433.125V497.531H534.344V396.656ZM534.344 269.875H433.125V370.75H534.344V269.875ZM534.344 140.469H433.125V241.375H534.344V140.469ZM658.031 396.656H557.437V497.531H658.344V396.656H658.031ZM283.219 396.656H182.625V497.531H283.531V396.656H283.219ZM409.344 396.656H309.437V497.531H410.031V396.656H409.344ZM158.219 396.656H58.2499V497.531H159.5V396.656H158.219ZM409.344 269.875H309.437V370.75H410.031V270L409.344 269.875ZM282.531 269.875H182.781V370.75H283.375V270L282.719 269.875H282.531Z" fill="black"/>
</svg>
