<svg width="1000" height="1000" viewBox="0 0 1000 1000" fill="none" xmlns="http://www.w3.org/2000/svg">
<path d="M917.542 722.404L917.533 722.418C901.279 748.782 869.685 776.047 832.746 801.988C795.357 828.244 750.767 854.308 706.721 877.924C618.598 925.173 531.507 963.227 505.957 974.122L499.967 976.676L494.011 974.044C469.001 962.993 384.558 924.843 297.52 877.401C254.01 853.686 209.617 827.522 171.587 801.147C133.881 774.996 101.185 747.802 82.2229 721.804C76.3552 713.791 72.2528 700.988 68.9669 687.055C65.5069 672.383 62.4237 653.95 59.6603 632.803C54.1274 590.462 49.7316 536.093 46.3176 476.784C39.4859 358.103 36.531 218.647 36.4157 113.897L36.4156 113.831L36.4161 113.766C36.5496 96.2468 40.8386 80.7409 52.9269 68.6263C64.3909 57.1373 81 50.6652 101.124 46.2737C120.425 41.9068 177.655 36.1623 250.478 31.4999C323.98 26.7939 414.842 23.1067 502.183 23.1275L917.542 722.404ZM917.542 722.404L917.55 722.391M917.542 722.404L917.55 722.391M917.55 722.391C923.16 713.247 927.232 698.102 930.589 680.997C934.092 663.145 937.227 640.758 940.042 615.396C945.676 564.628 950.127 500.96 953.558 435.781C960.421 305.424 963.249 168.116 963.208 113.892C963.251 96.3591 959.069 80.8194 947.039 68.6679C935.631 57.1456 919.047 50.6658 899.022 46.2736M917.55 722.391L899.022 46.2736M899.022 46.2736C879.648 41.9131 822.807 36.1655 750.686 31.5005C677.928 26.7944 588.177 23.1067 502.19 23.1275L899.022 46.2736Z" stroke="black" stroke-width="30"/>
<path d="M515.433 263.775C520.602 245.925 559.671 220.165 565.761 225.647C565.53 219.055 593.948 193.023 604.432 197.564C601.9 189.675 640.865 165.296 649.988 172.139C652.248 162.241 708.707 154.77 719.903 164.187C726.348 156.967 776.424 169.105 777.638 181.681C786.867 173.625 837.948 227.614 838.031 254.776C838.031 265.386 789.985 222.55 759.642 231.988C709.628 247.222 645.845 300.542 590.663 380.836C575.24 402.662 535.752 410.635 527.089 375.018C527.089 375.039 510.055 281.729 515.433 263.775Z" fill="black"/>
<path d="M511.206 761.693C503.17 748.363 505.661 732.396 512.252 726.202C521.585 717.224 548.308 724.465 550.401 716.136C555.674 697.072 542.114 690.334 544.583 663.695C545.253 654.467 562.852 587.084 567.351 581.058C571.076 576.119 593.571 568.272 599.661 565.719C603.365 561.513 605.981 556.427 606.023 547.701C576.81 538.536 568.92 565.886 564.714 564.672C560.487 563.793 566.87 534.894 570.532 531.839C574.215 528.596 608.701 520.937 612.384 514.868C616.674 508.444 632.578 446.963 612.384 446.021C614.184 446.272 611.547 441.857 612.907 442.296C654.425 451.88 682.361 254.107 784 254.797C885.157 255.697 879.884 402.034 874.045 407.349C862.452 417.624 845.711 413.878 844.916 423.232C839.894 512.734 759.914 608.513 735.807 600.163C721.242 595.057 733.63 549.585 740.578 548.769C734.154 545.881 740.473 499.069 747.986 497.918C742.043 493.795 747.295 450.646 754.871 450.248C751.083 446.858 751.481 417.31 743.759 402.578C738.088 391.32 713.039 385.251 711.449 412.644C726.788 405.382 727.834 454.873 721.514 463.494C715.215 471.718 674.702 490.656 662.188 501.099C663.109 522.213 643.125 603.239 628.288 626.656C613.661 649.57 598.929 663.256 590.684 684.391C582.083 705.338 587.482 741.227 568.439 757.486C559.922 764.601 514.659 767.782 511.206 761.693Z" fill="black"/>
<path d="M858.141 430.117C863.038 422.06 882.458 418.859 889.405 422.709C897.692 427.355 903.781 491.703 895.223 493.691C902.714 497.541 893.381 546.362 884.09 546.655C891.456 549.585 876.201 597.464 867.14 595.915C872.497 603.26 847.783 642.183 841.191 639.902C838.847 680.08 718.25 699.186 720.949 665.327C722.268 649.089 740.306 673.007 821.604 546.676C857.262 490.594 851.236 442.191 858.141 430.117ZM485.237 264.319C476.908 245.736 442.338 221.022 436.499 226.714C436.499 219.913 408.082 193.881 397.828 198.631C400.13 190.512 361.144 166.133 351.748 173.206C349.781 163.099 293.322 155.628 282.357 165.254C275.682 157.825 225.605 169.963 224.622 182.728C215.163 174.462 164.082 228.451 164.229 255.844C163.999 266.244 212.045 223.387 242.095 232.532C292.402 248.059 356.185 301.4 411.597 381.38C426.79 403.541 465.419 411.493 474.104 375.541C474.125 375.541 493.754 282.566 485.237 264.319Z" fill="black"/>
<path d="M489.464 762.237C497.269 748.174 495.846 732.71 488.94 726.223C479.921 717.559 453.722 725.323 451.336 717.224C446.356 697.93 459.937 691.192 457.698 664.783C456.798 655.325 439.199 587.963 434.93 582.146C430.954 576.977 408.479 569.13 402.62 566.786C398.686 562.37 396.091 557.264 395.735 548.245C425.262 539.373 433.151 566.744 437.588 565.74C441.564 564.631 435.202 535.731 431.77 532.362C427.836 529.412 393.873 521.251 389.395 515.935C384.77 509.741 369.494 447.821 389.395 446.565C387.888 447.13 390.525 442.694 388.871 442.84C347.647 452.738 319.71 254.944 217.779 255.865C116.915 256.534 122.188 402.871 128.257 408.416C139.599 418.482 156.361 414.736 156.863 424.299C162.157 513.592 242.158 609.371 266.516 600.686C280.85 595.894 268.462 550.443 261.745 549.313C267.939 546.76 261.64 499.927 254.337 499.006C260.05 494.653 254.776 451.504 247.431 450.792C250.968 447.716 250.591 418.147 258.02 403.645C263.963 392.157 289.033 386.088 290.33 413.711C275.305 406.24 274.238 455.71 280.809 464.017C286.877 472.534 327.39 491.473 340.113 502.145C338.962 523.05 358.947 604.076 373.491 627.158C388.411 650.386 403.143 664.093 411.618 684.914C420.051 706.364 423.986 748.362 434.386 758.009C443.719 766.505 485.99 768.745 489.464 762.237ZM501.14 803.022C469.458 803.608 441.752 781.112 447.109 774.939C458.179 763.471 477.075 780.463 499.55 770.712C521.816 779.94 540.231 763.513 554.628 774.416C562.894 780.359 532.593 802.582 501.14 803.022Z" fill="black"/>
<path d="M143.596 431.163C138.992 422.877 119.593 421.809 112.332 425.869C104.338 430.264 98.2485 492.519 106.514 494.716C99.3157 498.357 108.649 547.178 118.17 547.178C110.595 550.401 125.85 598.28 134.597 596.962C129.533 604.077 154.247 643.02 161.09 640.928C163.224 680.917 283.801 700.002 281.332 666.374C279.783 649.905 261.745 673.824 180.698 547.199C144.767 491.431 150.815 443.049 143.596 431.163Z" fill="black"/>
</svg>
