<svg width="1000" height="1000" viewBox="0 0 1000 1000" fill="none" xmlns="http://www.w3.org/2000/svg">
<path d="M500 0C224.303 0 0 224.303 0 500C0 775.697 224.303 1000 500 1000C775.697 1000 1000 775.697 1000 500C1000 224.303 775.697 0 500 0ZM518.988 473.496C586.51 521.867 663.043 576.691 663.043 663.045C663.043 741.787 606.941 807.654 532.607 822.801V858.697C532.607 876.711 518.012 891.307 499.998 891.307C481.984 891.307 467.389 876.711 467.389 858.697V822.801C393.057 807.652 336.953 741.785 336.953 663.045C336.953 645.031 351.549 630.436 369.562 630.436C387.576 630.436 402.172 645.031 402.172 663.045C402.172 716.988 446.055 760.871 499.998 760.871C553.941 760.871 597.824 716.988 597.824 663.045C597.824 610.193 541.076 569.549 481.01 526.506C413.488 478.135 336.955 423.311 336.955 336.957C336.955 258.215 393.057 192.348 467.391 177.201V141.305C467.391 123.291 481.986 108.695 500 108.695C518.014 108.695 532.609 123.291 532.609 141.305V177.201C606.941 192.35 663.045 258.217 663.045 336.957C663.045 354.971 648.449 369.566 630.436 369.566C612.422 369.566 597.826 354.971 597.826 336.957C597.826 283.014 553.943 239.131 500 239.131C446.057 239.131 402.174 283.014 402.174 336.957C402.174 389.809 458.922 430.453 518.988 473.496Z" fill="black"/>
</svg>
