<svg width="1000" height="1000" viewBox="0 0 1000 1000" fill="none" xmlns="http://www.w3.org/2000/svg">
<g clip-path="url(#clip0_9_304)">
<path d="M979.883 199.297L859.883 200.039C851.743 200.079 844.426 205.057 841.406 212.617L820 266.172L798.594 212.578C795.554 204.978 788.18 200 780 200H700V220L691.836 211.836C684.256 204.256 673.982 200 663.242 200H520.039C507.219 200 494.919 205.081 485.859 214.141L480 220L473.984 213.984C465.024 205.024 452.894 200 440.234 200H260V220L254.141 214.141C245.081 205.081 232.819 200 220.039 200H20C11.92 200 4.60348 204.884 1.52348 212.344C-1.57652 219.824 0.13942 228.421 5.85942 234.141L40 268.281V720C40 727.64 44.351 734.609 51.211 737.969C53.991 739.329 57.02 740 60 740C64.36 740 68.6857 738.561 72.2657 735.781L252.266 595.781C252.906 595.261 253.541 594.741 254.141 594.141C262.161 586.121 267.527 579.192 271.367 572.852L391.641 659.531C395.141 662.051 399.259 663.32 403.359 663.32C407.579 663.32 411.812 661.996 415.352 659.336L480 610.82L544.648 659.336C548.188 661.996 552.421 663.32 556.641 663.32C560.741 663.32 564.859 662.051 568.359 659.531L699.766 564.805L768.008 616.016C774.068 620.576 782.165 621.251 788.945 617.891C795.725 614.491 800 607.58 800 600V584.727V560L819.531 599.062H820.469L840 560V584.727V600V660C840 666.28 842.968 672.217 848.008 675.977L928.008 736.016C931.528 738.656 935.76 740 940 740C943.04 740 946.125 739.291 948.945 737.891C955.725 734.491 960 727.58 960 720V268.164L994.258 233.281C999.918 227.521 1001.58 218.924 998.438 211.484C995.318 204.084 988.02 199.297 980 199.297H979.883ZM932.031 239.57L925.742 245.977C922.062 249.717 920 254.76 920 260V680L880 650V500C880 490.72 873.61 482.667 864.57 480.547C855.57 478.387 846.249 482.755 842.109 491.055L820 535.273L797.891 491.055C793.751 482.755 784.35 478.407 775.43 480.547C766.39 482.667 760 490.72 760 500V560L720 530V240H766.445L801.406 327.422C804.466 335.002 811.82 340 820 340C828.18 340 835.534 335.002 838.594 327.422L873.594 239.922L932.031 239.57ZM68.2813 240H220C228.64 240 240 252.58 240 260V540C240 547.4 239.999 551.54 226.719 565L80 679.102V260C80 254.7 77.9007 249.599 74.1407 245.859L68.2813 240ZM280 240H460V575.859L403.086 618.516L280 529.766V260V240ZM500 240H680V529.766L556.914 618.516L500 575.859V240ZM140 300V500L200 460V300H140ZM340 300V460L400 500V300H340ZM560 300V500L620 460V300H560Z" fill="black"/>
</g>
<defs>
<clipPath id="clip0_9_304">
<rect width="1000" height="1000" fill="white"/>
</clipPath>
</defs>
</svg>
