<svg width="1000" height="1000" viewBox="0 0 1000 1000" fill="none" xmlns="http://www.w3.org/2000/svg">
<path d="M385.714 259.524C311.111 294.445 256.349 362.699 238.889 445.238C246.032 445.238 357.143 446.826 484.921 412.699C438.889 330.952 389.683 264.286 385.714 259.524Z" fill="black"/>
<path d="M507.143 453.968C369.841 495.238 238.095 492.063 233.333 492.063C233.333 494.444 233.333 497.619 233.333 500.794C233.333 569.048 259.524 631.746 301.587 678.571C301.587 678.571 374.603 548.413 518.254 502.381C521.428 501.587 525.397 500 528.571 499.206C522.222 484.127 514.286 469.048 507.143 453.968Z" fill="black"/>
<path d="M500 233.333C478.571 233.333 457.143 235.714 437.302 240.476C441.27 246.032 491.27 311.905 537.301 396.032C637.301 358.73 675.397 300.794 676.19 300C629.365 258.73 567.46 233.333 500 233.333Z" fill="black"/>
<path d="M596.825 530.952C631.746 626.984 646.032 704.762 648.413 721.429C707.937 680.952 750.794 616.667 762.698 542.857C757.937 540.476 683.333 516.667 596.825 530.952Z" fill="black"/>
<path d="M749.206 0H250C112.698 0 0 112.698 0 250.794V750C0 887.302 112.698 1000 250 1000H749.206C887.302 1000 1000 887.302 1000 749.206V250.794C1000 112.698 887.302 0 749.206 0ZM805.556 562.698C801.587 582.54 795.238 602.381 787.302 621.429C779.365 639.683 769.841 657.936 758.73 674.603C747.619 691.27 734.921 706.349 720.635 720.635C706.349 734.921 691.27 747.619 674.603 758.73C657.936 769.841 640.476 779.365 621.429 787.302C602.381 795.238 582.54 801.587 562.698 805.556C542.063 809.524 521.429 811.905 500 811.905C478.571 811.905 457.936 809.524 437.302 805.556C417.46 801.587 397.619 795.238 378.571 787.302C360.317 779.365 342.063 769.841 325.397 758.73C308.73 747.619 293.651 734.921 279.365 720.635C265.079 706.349 252.381 691.27 241.27 674.603C230.159 657.936 220.635 640.476 212.698 621.429C204.762 602.381 198.413 582.54 194.444 562.698C190.476 542.063 188.095 520.635 188.095 500C188.095 478.571 190.476 457.936 194.444 437.302C198.413 417.46 204.762 397.619 212.698 378.571C220.635 360.317 230.159 342.063 241.27 325.397C252.381 308.73 265.079 293.651 279.365 279.365C293.651 265.079 308.73 252.381 325.397 241.27C342.063 230.159 359.524 220.635 378.571 212.698C397.619 204.762 417.46 198.413 437.302 194.444C457.936 190.476 479.365 188.095 500 188.095C521.429 188.095 542.063 190.476 562.698 194.444C582.54 198.413 602.381 204.762 621.429 212.698C639.683 220.635 657.936 230.159 674.603 241.27C691.27 252.381 706.349 265.079 720.635 279.365C734.921 293.651 747.619 308.73 758.73 325.397C769.841 342.063 779.365 359.524 787.302 378.571C795.238 397.619 801.587 417.46 805.556 437.302C809.524 457.936 811.905 478.571 811.905 500C811.905 521.429 809.524 542.063 805.556 562.698Z" fill="black"/>
<path d="M546.825 542.857C546.825 542.857 546.032 543.651 545.238 543.651C388.095 598.413 336.508 708.73 336.508 710.317C381.746 745.238 438.095 766.667 500 766.667C536.508 766.667 572.222 758.73 603.968 745.238C600 722.222 584.921 640.476 546.825 542.857Z" fill="black"/>
<path d="M705.556 330.952C705.556 331.746 662.698 393.651 557.143 436.508C563.492 449.206 569.048 461.905 574.603 475.397C576.19 480.159 578.571 484.921 580.159 488.889C671.429 476.984 761.905 496.825 765.873 497.619C765.079 434.127 742.857 376.19 705.556 330.952Z" fill="black"/>
</svg>
