<svg width="1000" height="1000" viewBox="0 0 1000 1000" fill="none" xmlns="http://www.w3.org/2000/svg">
<path d="M748.612 0.396484H250.595C112.609 0.396484 0 113.006 0 250.991V749.802C0 886.994 112.609 999.603 250.595 999.603H749.405C887.391 999.603 1000 886.994 1000 749.009V250.991C999.207 113.006 886.598 0.396484 748.612 0.396484ZM681.998 695.876L499.604 806.106L317.209 695.876V655.432L371.927 691.911L500.397 584.853L628.073 691.911L681.998 655.432V695.876ZM811.261 533.307L628.073 653.053L499.604 545.995L371.134 653.053L187.946 533.307L314.83 431.007L187.946 328.707L371.134 208.961L499.604 316.812L628.073 208.961L811.261 328.707L684.378 431.007L811.261 533.307Z" fill="black"/>
<path d="M314.83 431.007L499.604 545.995L684.378 431.007L499.604 316.812L314.83 431.007Z" fill="black"/>
</svg>
