<svg width="1000" height="1000" viewBox="0 0 1000 1000" fill="none" xmlns="http://www.w3.org/2000/svg">
<g clip-path="url(#clip0_15_50)">
<path d="M252.281 505.375V300.469H302.406V426.438C326.969 397.125 360.688 388.688 394.031 388.688C449.844 388.688 511.875 426.438 511.875 507.656C511.875 517.438 511.219 526.688 509.438 535.5C519.375 495.781 562.5 481.125 630.031 479.5C651.344 478.844 675.781 478.844 695.125 478.844V473.156C695.125 436.375 671.844 421.406 631.312 421.406C601.375 421.406 579.406 433.781 576.938 455.094H523.719C529.406 401.375 586.219 387.563 635.688 387.563C679.969 387.563 718.844 398.781 736.281 430.031L718.219 395.031H776.969L862.594 566.906L948.219 395.031H999.969L845.031 699.406H788.875L833.469 614.438L736.469 431.969C741.844 442.562 744.781 455.094 744.781 470.719V573.25C744.781 587.562 745.094 601.906 746.406 615.094H700.031C698.719 604.5 698.062 593.781 698.062 583.188C673 613.781 643.062 623.219 601.375 623.219C539.688 623.219 506.656 590.656 506.656 552.594C506.656 546.25 507.312 540.719 508.281 535.656C495.75 587.563 451.625 622.563 393.031 622.563C356.75 622.563 322.406 609.531 301.219 583.812C301.219 593.906 300.719 604.469 299.594 614.406H250.438C251.25 598.125 252.062 578.75 252.062 562.5V518.719H50.875C53.4688 564.469 84.9062 591.313 128.031 591.313C157.969 591.313 184.5 578.781 193.469 552.562H245.062C235.125 606.281 178 624.344 128.844 624.344C39.5 625.312 -0.0625 575.844 -0.0625 509.594C-0.0625 436.5 40.7812 388.344 129.812 388.344C200.125 388.344 251.875 425.281 252.219 505.219V505.531L252.281 505.375ZM632.969 513.031C587.406 514.5 559.25 522.813 559.25 552.594C559.25 571.969 574.219 593.125 613.625 593.125C666.188 593.125 694.344 564.313 694.344 517.438V512.062C675.625 512.062 653 512.375 632.5 513.031H632.969ZM380.531 591.156C426.75 591.156 458.656 557.625 458.656 507C458.656 456.375 426.75 422.844 379.875 422.844C333.656 422.844 301.094 456.375 301.094 507C301.094 557.625 333 591.156 379.219 591.156H380.531ZM199.219 486.5C197.438 439.625 163.75 422.031 127.438 422.031C88.0625 422.031 56.8125 441.719 51.75 486.5H199.219Z" fill="black"/>
</g>
<defs>
<clipPath id="clip0_15_50">
<rect width="1000" height="1000" fill="white"/>
</clipPath>
</defs>
</svg>
