<svg width="1000" height="1000" viewBox="0 0 1000 1000" fill="none" xmlns="http://www.w3.org/2000/svg">
<g clip-path="url(#clip0_12_498)">
<path d="M462.906 0.96875C451.5 1.125 437.688 1.46875 432.156 1.9375C280.312 14.9688 144.562 104.969 65.7812 244.125C28.1875 311.344 6.06247 386.219 0.843716 463.031C-0.781284 484.531 0.0312161 535.625 2.31247 555C15 666.812 58.625 765.781 130.25 845.188C211.969 935.688 321.344 989.719 440.156 997.844C457.562 999.156 483.625 999.469 482.625 998.344C478.062 996.875 473.344 995.906 468.469 995.25C398.812 981.406 327.344 948.219 269.562 902.156C230.344 870.75 195.844 833.781 167.344 792.469C112.812 712.062 81.9062 618 78.4687 520.812C75.875 460.594 83.6875 400.219 101.75 342.75C134.469 237.594 200.531 145.812 288.281 83.1562C341.031 45.0625 401.062 18.375 464.875 5.03125L483.281 0.96875H462.906ZM524.25 22.3125C443.531 27.0312 366.875 54.2188 304.187 99.9375C226.062 157.062 166.344 235.188 134.094 322.75C128.062 339.344 122.375 356.938 122.375 359.375C122.375 359.875 281.875 360.344 551.906 360.344C904.594 360.344 981.75 360.031 981.75 358.875C981.75 356.906 975.406 337.062 970.031 322.25C963.688 304.844 945.938 267.719 935.844 250.469C919.25 222 897.906 193.344 874.469 167.469C805.625 91.625 724.719 45.25 631.969 28.625C599.25 22.75 556.937 20.3125 524.219 22.2812L524.25 22.3125ZM992.844 415.375C992.031 415.375 793.312 415.375 550.937 415.531L110.344 415.844L109.844 418.281C108.375 424.969 104.312 463.375 104.312 470.187C104.312 471.312 178.531 471.5 552.062 471.5H999.969V468.406C999.969 464.188 997.031 435.375 995.562 424.469C994.75 417.781 993.937 415.344 992.969 415.344L992.844 415.375ZM552.406 525.219C161.937 525.062 105.312 525.219 104.812 526.688C103.844 528.312 105.781 549.969 107.906 567.219C108.719 573.719 109.375 579.594 109.375 580.406C109.375 581.375 198.406 581.875 552.094 581.875H994.625L995.75 573.906C997.531 560.406 999.969 533.531 999.656 529.469L999.344 525.562L552.406 525.219ZM552.562 638.5C182.437 638.5 122.375 638.656 122.375 639.969C122.375 640.781 124.656 648.594 127.406 657.375C145.812 714.5 175.094 767.406 213.656 813.312C225.375 827.625 253.031 856.438 264.937 867.031C330.219 925.312 400.187 959.312 480.75 972.344C505.969 976.25 517.687 977.062 553.656 976.906C591.594 976.906 607.688 975.594 637.969 969.594C725.875 952.344 801.062 909.219 868.438 837.594C921.188 781.438 956.156 722.531 977.812 653.688L982.687 638.562L552.562 638.5Z" fill="black"/>
</g>
<defs>
<clipPath id="clip0_12_498">
<rect width="1000" height="1000" fill="white"/>
</clipPath>
</defs>
</svg>
