<svg width="1000" height="1000" viewBox="0 0 1000 1000" fill="none" xmlns="http://www.w3.org/2000/svg">
<g clip-path="url(#clip0_15_14)">
<path d="M964.844 593.75H325.844C325.844 617.844 329.438 639.656 336.75 659.344C344.594 678.719 354.844 696.125 367.656 711.25C380.688 726.406 395.812 739.406 413.75 750.344C430.844 761.25 449.531 770.344 469.594 777.344C489.438 784.5 510.25 789.875 531.25 793.312C577 800.656 623.719 800.156 669.25 792.188C692.719 787.781 715.5 782.094 738.125 774.781C760.594 767.281 782.219 758.656 804.031 748.562C825.812 738.656 848 727.719 870.906 715.531V927.438C845.375 939.812 820.312 950.406 795.406 959.312C770.312 968.094 745.438 975.781 719.875 981.938C694.5 988.156 668.781 992.844 642.25 995.656C615.25 998.562 587.875 1000.03 560.719 1000.03C523.313 1000.03 487 995.656 452.188 987.031C417.969 978.688 385.094 966.312 354.031 949.906C323.625 933.781 295.438 913.938 269.906 890.812C218.625 844.438 181.188 784.531 161.812 717.938C151.719 682.656 146.812 646.031 146.969 609.219C146.969 568.219 152.5 528.969 163.937 491.719C175.312 454.25 191.438 420.25 212.594 389C233.875 357.406 260.094 329.25 289.875 305.656C321.125 280.906 355.781 260.906 392.75 246.25C371.75 267.25 355.125 292.5 344.25 320.156C332.844 347.5 325.375 376.281 321.969 405.75H677.938C677.938 369.781 674.344 338.531 667.031 311.656C659.688 284.812 648 262.531 631.531 244.781C615.281 227.031 594.281 213.531 568.562 204.75C542.813 195.969 511.562 191.406 475.281 191.406C432.312 191.406 389.375 197.562 346.375 210.625C303.406 223.125 262.594 241.031 223.844 263.656C185.094 286.781 149.469 313.781 117.094 344.688C84.5 375.938 57.1875 409.469 35.0625 445.938C39.5938 404.594 48.7187 363.906 62.0625 324.531C74.9375 285.938 92.1875 250 112.844 216.625C133.344 183.906 157.594 153.969 185.25 126.969C212.906 100.094 243.531 77 277.375 58.25C311.406 39.5312 347.375 24.4062 386.406 14.1562C427.125 4.6875 468.938 0 510.781 0C536.312 0 561.875 2.28125 587.281 6.84375C612.812 11.5625 637.562 17.9375 661.812 25.875C709.969 42.5 752.938 65.5938 790.719 95.0312C827.625 123.688 859.875 158.188 886.094 197.062C911.812 235.656 931.344 278.312 944.844 324.688C958.188 371.062 965 419.406 965 469.562V593.719L964.844 593.75Z" fill="black"/>
</g>
<defs>
<clipPath id="clip0_15_14">
<rect width="1000" height="1000" fill="white"/>
</clipPath>
</defs>
</svg>
