<svg width="1000" height="1000" viewBox="0 0 1000 1000" fill="none" xmlns="http://www.w3.org/2000/svg">
<g clip-path="url(#clip0_10_8)">
<path d="M147.469 0C90.1875 0 69.1875 21.1563 69.1875 78.2812V768.375C69.1875 774.906 69.5312 780.906 70.0312 786.469C71.5 799 71.5 811.219 83.1875 824.875C84.3125 826.5 96.0625 835.125 96.0625 835.125C102.406 838.219 106.781 840.5 113.937 843.406L461.281 988.906C479.188 997.062 486.875 1000.5 499.875 1000H500.031C513.188 1000.5 520.875 997.094 538.781 988.906L885.938 843.406C893.281 840.5 897.469 838.188 903.969 835.125C903.969 835.125 915.719 826.156 916.844 824.875C928.562 811.219 928.562 799 930 786.469C930.5 780.938 930.844 774.938 930.844 768.562V78.3125C930.844 21.1875 909.687 0.03125 852.562 0.03125L147.469 0ZM703.969 129.531H732.25C779.469 129.531 802.594 152.5 802.594 200.375V278.656H745.312V203.438C745.312 188.156 738.312 181.156 723.469 181.156H713.719C698.438 181.156 691.437 188.156 691.437 203.438V445.594C691.437 460.875 698.438 467.875 713.719 467.875H724.625C739.25 467.875 746.25 460.875 746.25 445.594V359H803.531V448.375C803.531 496.031 780.125 519.5 732.75 519.5H703.969C656.438 519.5 633.125 495.875 633.125 448.375V200.781C633.125 153.125 656.406 129.5 703.969 129.5V129.531ZM196.125 132.844H325.844V186.062H254.375V294.438H323.25V347.531H254.375V463.062H326.844V516.312H196.125V132.844ZM355.125 132.844H446.625C493.969 132.844 517.406 156.438 517.406 204.094V306C517.406 353.656 493.938 377.125 446.625 377.125H413.594V516.281H355.125V132.844ZM543.781 132.844H602.031V516.312H543.781V132.844ZM413.406 184.406V325.656H437.5C452.156 325.656 459.156 318.531 459.156 303.188V206.844C459.156 191.562 452.156 184.375 437.5 184.375L413.406 184.406ZM252.75 607.406H261.375L263.344 607.75H266.469L268.094 608.25H269.719L271.188 608.719L272.812 609.062L274.094 609.406L277 610.062L278.656 610.531L279.781 610.875L281.063 611.375L282.688 611.875L283.812 612.344L285.469 613L286.938 613.656L288.219 614.438L289.688 615.094L290.812 615.875L292.469 616.719L293.75 617.5L295.031 618.156L296.313 619.125L297.656 619.969L298.781 620.938L302.688 623.906L301.688 625.188L300.563 626.312L299.563 627.469L298.438 628.75L297.656 629.875L296.656 631.031L295.531 632.156L294.531 633.438L293.75 634.562L292.594 635.906L291.625 637.031L290.5 638.312L289.5 639.469L288.719 640.75L287.562 641.875L286.594 643.219L285.469 644.344L284.469 645.469L283.344 644.688L282.063 643.531L280.719 642.75L278.313 641.125L276.844 640.281L275.5 639.5L274.031 638.656L272.906 638L271.625 637.375L269 636.375L267.375 636.094L266.094 635.75L264.625 635.406L262.969 635.062L261.344 634.906H259.719L257.813 634.562H254.688L253.062 634.719H251.438L249.812 635.219L248.531 635.562L247.063 636.062L245.594 636.344L244.25 637L242.625 637.656L240.375 639.281L239.031 640.062L237.906 641.062L236.781 641.844L235.625 642.844L234.844 643.969L233.5 645.094L231.875 647.375L231.094 648.656L230.438 650.125L229.656 651.281L228.812 652.75L228.312 654.219L227.687 655.5L227.188 657.125L227.031 658.75L226.563 660.25L226.219 661.875V663.5L226.063 665.125V668.875L226.219 670.5V671.781L226.375 673.406L226.656 674.875L227.156 676.156L227.313 677.812L227.812 679.094L228.281 680.219L228.938 681.844L229.781 683.469L230.406 684.625L232.031 687.219L233.031 688.5L233.812 689.656L235.156 690.625L235.938 691.75L237.062 692.75L239.688 694.719L240.812 695.344L242.094 696.188L243.594 696.844L245.219 697.469L246.344 698.125L249.594 699.094L251.063 699.25L252.688 699.75L254.312 699.906H261.313L263.281 699.75H264.75L266.406 699.094L268.031 698.938L269.656 698.469L270.938 698.125L272.406 697.469L273.688 696.844L275.156 696.188L276.156 695.531L277.438 694.75V680.25H254.469V657H306.375V709.094L305.25 709.875L304.125 710.844L302.969 711.688L301.688 712.656L300.406 713.312L299.281 714.312L296.656 715.938L295.031 716.719L292.438 718.344L290.781 719L289.5 719.625L288.031 720.281L284.781 721.562L283.5 722.219L280.531 723.188L279.063 723.531L277.594 724.031L275.969 724.531L274.688 724.812L269.812 725.812L268.313 725.969L265.063 726.312L263.281 726.469L261.656 726.594L259.875 726.75H251.75L250.125 726.469H248.5L246.875 726.125H245.406L243.781 725.625L239.031 724.656L237.75 724.156L236.281 724L234.656 723.344L231.688 722.375L228.781 721.094L227.156 720.438L226.031 719.781L224.406 719.156L223.25 718.156L221.625 717.531L220.656 716.688L219.375 715.906L216.75 713.938L215.469 713.094L214.469 712.125L213.188 711.125L211.062 709.031L209.937 708.031L208.969 706.906L207.812 705.75L207.031 704.469L206.031 703.5L205.25 702.156L204.25 700.875L203.469 699.75L202.625 698.469L201.844 696.969L201.188 695.688L200.531 694.219L199.906 692.938L198.625 689.969L198.125 688.844L197.469 687.375L197.125 685.906L196.844 684.625L196.5 683L196 681.5L195.656 679.875L195.5 678.594L195.219 676.969L194.875 674.062L194.531 670.812V662.188L194.875 660.531V658.906L195.375 657.281V655.656L195.844 654.188L196.344 652.562L197 649.656L197.469 648.031L197.969 646.562L199.938 642.156L200.563 640.875L201.219 639.406L202.062 637.906L202.688 636.625L203.531 635.5L205.156 632.875L206.125 631.594L207.125 630.469L207.906 629.188L210.031 627.062L211 625.906L212.156 624.781L213.125 623.656L214.469 622.656L216.719 620.688L218 619.719L219.344 618.875L220.469 617.906L221.75 617.062L223.094 616.438L224.562 615.594L226.188 614.812L227.313 613.969L228.938 613.344L230.406 612.688L231.875 611.906L233.219 611.562L234.844 611.062L236.125 610.406L237.594 610.125L239.062 609.625L240.688 609.281L242.031 608.781L243.656 608.438H245.281L246.75 607.969H248.375L250 607.625H251.469L252.75 607.406ZM752.281 607.75H760.906L762.875 608.094H765.969L767.594 608.562H769.375L771 609.062L773.906 609.719L775.531 610.062L777 610.344L778.656 610.844L780.125 611.344L781.406 611.688L782.875 612.156L784.5 612.656L785.781 613.312L787.406 613.938L788.906 614.594L790.375 615.438L791.5 616.062L792.969 616.906L794.438 617.531L795.781 618.375L797.25 619.344L798.375 620.188L801 622.156L802.281 622.938L801.281 624.219L800.5 625.562L799.531 626.688L798.531 627.969L797.75 629.438L796.906 630.781L795.937 631.906L794.938 633.188L794.156 634.531L793.156 635.812L792.375 636.938L791.375 638.219L790.594 639.719L789.594 641L788.625 642.125L787.625 643.406L786.844 644.75L785.562 643.75L784.062 642.969L782.938 642.125L781.656 641.344L780.187 640.688L778.844 639.844L777.375 639.219L776.25 638.562L774.625 637.938L773.469 637.281L772.187 636.781L769.281 635.812L766.031 634.812L761.156 633.844L759.531 633.688L756.562 633.344H753.156L751.375 633.688L749.75 634.031L748.281 634.375L747 635L745.844 635.656L744.562 636.781L743.594 638.25L742.938 639.75V643.625L743.781 645.406L744.406 646.406L745.406 647.375L747.031 648.219L748.312 649L749.781 649.656L751.406 650.281L753.531 650.781L754.656 651.281L756 651.625L757.625 651.969L758.906 652.438L760.375 652.781L762.156 653.281L763.781 653.781L765.562 654.25L767.344 654.594L768.812 655.094L770.594 655.562L772.219 655.906L773.687 656.25L778.594 657.719L779.875 658.219L781.5 658.719L782.969 659.344L784.594 660.188L787.844 661.469L789.312 662.312L791.937 663.938L794.344 665.719L795.844 666.688L796.969 667.812L798.094 669.156L799.25 670.281L800.031 671.406L801.188 673.031L801.969 674.188L802.625 675.812L803.25 676.781L803.75 678.406L804.25 679.75L804.594 681.219L805.219 684.469L805.375 686.094L805.531 687.562V691.469L805.375 693.25L805.031 696.5L804.688 698.125L804.219 699.594L803.875 701.219L803.375 702.844L802.906 704.312L802.25 705.469L801.594 706.938L800.812 708.219L799.812 709.375L798.188 711.969L796.219 714.25L795.094 715.031L793.812 716.188L792.812 717.156L791.531 718.125L790.25 718.781L788.969 719.781L787.469 720.562L784.562 722.031L782.938 722.688L781.469 723.312L779.844 723.812L778.375 724.312L777.031 724.656L773.781 725.281L772.656 725.625L771.031 725.969H769.406L767.937 726.312H766.312L764.687 726.656H753.094L748.219 726.156L746.594 725.812L745.125 725.656L741.875 725.031L740.094 724.688L738.625 724.344L737 723.844L735.344 723.5L733.875 723.031L732.25 722.531L730.625 721.875L729.344 721.406L727.719 720.906L726.094 720.25L724.938 719.625L723.312 719.125L722.031 718.281L720.406 717.656L719.125 716.812L717.969 716.031L716.344 715.188L715.219 714.562L713.938 713.562L712.656 712.781L711.312 711.781L710.188 710.812L708.906 709.812L707.75 709.031L706.469 707.875L707.469 706.594L708.594 705.469L709.562 704.312L710.719 703.031L711.5 701.906L712.5 700.625L713.625 699.469L714.594 698.344L715.75 697.062L716.531 695.906L717.687 694.781L718.656 693.5L719.656 692.344L720.781 691.062L721.562 689.938L722.719 688.781L723.844 687.5L724.969 688.5L726.469 689.469L727.594 690.438L729.219 691.281L730.344 692.125L731.812 693.094L733.156 693.938L734.625 694.562L735.75 695.406L737.219 695.875L738.844 696.531L740.188 697.188L741.656 697.656L742.938 698.312L744.562 698.812L746.031 699.281L747.656 699.781L749.281 699.938L750.781 700.438L752.406 700.594H754.188L755.656 701.062H764.438L765.906 700.781L767.531 700.438L768.656 700.281L770 699.781L771.125 699.156L772.594 698.156L773.438 697.031L774.062 695.75L774.562 694.25V690.5L773.906 689.031L773.125 687.75L772.125 686.781L770.656 685.781L769.531 685.312L768.062 684.656L766.437 684L764.656 683.219L763.5 682.875L762.219 682.531L760.594 682.031L759.469 681.75L757.844 681.25L756.219 681.094L754.562 680.438L752.938 680.281L751.156 679.812L749.688 679.469L748.062 678.969L746.437 678.625L744.812 678.156L743.344 677.656L741.719 677.312L740.438 676.812L737.469 675.844L735.844 675.188L734.219 674.719L730.969 673.375L729.5 672.594L727.875 671.75L726.75 670.969L725.25 670.125L724.125 669.344L722.656 668.5L720.531 666.375L719.406 665.406L717.438 663.125L716.594 662L715.969 660.875L714.969 659.375L714.5 658.25L713 654.344L712.719 652.719L712.375 651.25V649.781L712.031 648.156V641.5L712.375 638.25L712.719 636.906L713 635.438L713.5 634.156L713.844 632.531L714.5 631.406L715.125 629.75L715.781 628.469L716.406 626.844L717.25 625.719L718.375 624.438L719.219 623.094L720.5 621.969L721.469 620.844L722.469 619.5L723.938 618.375L724.938 617.531L726.219 616.562L728.812 614.938L730.281 614.094L733.25 612.625L734.531 612.156L736 611.656L737.625 611L739.25 610.531L740.406 610.188L741.875 609.844L743.156 609.5L744.625 609.156L746.25 608.812L749.5 608.531L751 608.375L752.281 607.75ZM367.344 608.875H396.812L398.156 611.844L398.781 613.125L399.281 614.75L399.938 616.219L400.406 617.5L401.25 618.969L402.219 621.938L403.062 623.406L404.344 626.312L404.688 627.594L407.281 633.469L407.781 634.938L408.438 636.281L409.219 637.75L409.562 639.219L410.406 640.844L410.688 642.312L412.188 645.219L412.812 646.375L413.469 648L413.969 649.625L414.438 650.75L415.281 652.375L415.781 653.719L416.406 655.344L416.906 656.469L417.563 658.094L419.031 661L419.5 662.469L419.844 663.969L420.5 665.438L421.281 666.719L421.938 668.344L422.594 669.812L423.062 671.094L424.406 674.062L424.875 675.531L425.531 677L426.031 678.469L426.656 679.75L427.5 681.25L428.125 682.719L428.781 684L429.125 685.625L430.406 688.531L431.062 689.875L431.531 691.344L432.875 694.25L433.656 695.875L434 697.156L434.844 698.812L435.125 699.938L435.781 701.562L436.625 703.188L437.25 704.312L437.75 705.938L438.406 707.281L438.875 708.906L439.719 710.031L440.688 713.281L441.344 714.438L441.969 716.062L442.812 717.344L443.469 718.969L443.75 720.438L444.25 721.719L444.906 723.188L445.688 724.531H413.156L412.375 723.188L411.875 721.719L411.219 720.25L410.594 718.625L410.25 717.344L408.906 714.438L408.438 713.094L407.156 710.188L406.656 708.906L406 707.281L405.031 704.312L404.375 703.031H359.125L358.5 704.5L358 705.844L357.344 707.469L356.719 708.938L356.375 710.219L355.719 711.844L355.094 713.125L354.594 714.594L353.938 715.938L353.312 717.562L352.812 718.688L352.156 720.312L351.688 721.938L351.031 723.094L350.531 724.719H318.312L318.781 723.219L320.125 720.312L320.594 718.688L321.094 717.406L321.938 715.938L322.562 714.469L323.219 713.125L323.563 711.656L324.188 710.031L325.031 708.75L325.656 707.281L326.656 704.312L328.125 701.406L328.625 699.938L329.25 698.656L329.75 697.156L331.719 692.781L332.375 691.156L332.844 689.875L333.344 688.406L334.188 687.062L334.812 685.438L335.312 683.969L335.813 682.688L336.438 681.062L337.281 679.906L337.781 678.281L338.406 677L338.906 675.531L339.562 673.906L340.344 672.625L340.844 671L341.469 669.844L341.969 668.219L342.625 666.594L343.25 665.469L343.906 663.844L344.406 662.5L345.031 660.875L345.531 659.75L346.375 658.125L347 656.5L347.656 655.219L348 653.75L348.625 652.25L349.469 650.781L350.094 649.5L350.438 647.875L351.094 646.406L351.75 645.062L353.031 642.156L353.5 640.875L354.844 637.625L355.469 636.469L356.125 634.844L356.625 633.562L357.094 631.938L357.75 630.469L358.594 629.188L359.219 627.562L359.719 626.406L360.219 624.781L360.844 623.5L361.688 622.031L362.188 620.406L362.656 619.062L363.313 617.438L363.938 616.312L364.781 614.688L365.281 613.062L365.75 611.938L366.406 610.312L367.344 608.875ZM458.844 609.719H491.062L492.063 611L493.688 613.625L494.469 615.094L495.313 616.219L496.094 617.688L496.938 618.969L497.719 620.469L498.563 621.75L499.344 622.875L500.188 624.344L500.969 625.688L502.125 626.969L502.594 628.25L503.594 629.719L504.375 631.062L505.375 632.188L506.031 633.656L506.813 634.938L507.812 636.281L508.281 637.562L509.438 639.031L511.844 642.938L512.5 644.219L513.469 645.5L514.312 646.781L515.094 648.281L517.563 652.156L518.344 653.656L519.188 654.938L520.156 653.656L520.813 652L521.781 650.875L522.625 649.406L523.406 648.281L524.063 646.656L525.188 645.5L526.031 644.031L526.688 642.906L527.469 641.562L528.469 640.094L529.25 638.969L530.094 637.344L530.875 636.219L531.875 634.719L532.5 633.594L533.344 631.969L534.125 631L534.969 629.656L535.938 628.031L536.781 626.906L537.406 625.438L538.406 624.281L539.188 622.656L540.031 621.688L541 620.406L541.844 618.781L542.625 617.625L543.469 616.156L544.25 615.031L545.094 613.406L546.063 612.25L546.719 610.781L547.562 609.656H580.281V725.875H549.656V657.5L548.875 658.656L547.875 660.281L547.094 661.25L546.094 662.531L545.469 664.156L544.469 665.312L543.688 666.438L542.687 668.062L541.062 670.344L540.094 671.625L539.25 673.25L538.281 674.406L537.438 675.531L536.812 677.156L535.812 678.281L535.031 679.438L534.031 681.062L533.25 682.188L532.25 683.469L531.469 684.938L530.812 686.094L529.844 687.375L529 688.844L528.031 689.969L527.031 691.312L526.406 692.594L525.563 694.062L524.594 695.219L523.594 696.5L522.969 698.125L521.812 699.094L521.188 700.375L520.188 702.031L519.406 703.156H518.75L517.781 701.688L516.938 700.344L516.156 698.875L515.312 697.75L514.344 696.281L513.5 695L512.531 693.656L511.688 692.375L510.906 690.906L510.063 689.781L508.938 688.281L508.281 687L507.312 685.531L506.469 684.406L505.687 682.938L504.688 681.594L503.906 679.969L502.906 678.844L502.125 677.375L501.281 676.031L500.5 674.562L499.5 673.438L498.719 671.969L497.719 670.688L497.094 669.344L496.094 668.062L495.313 666.594L494.312 665.469L493.531 663.969L492.531 662.688L491.906 661.219L490.75 660.094L490.125 658.594L489.125 657.312V725.844H459.031V610.75L458.844 609.719ZM603.344 609.719H695V635.938H633.781V654.656H688.781V679.406H633.781V699.25H695.781V725.625H603.5V610.719L603.344 609.719ZM381.656 645.344L381.156 646.812L380.688 648.156L380.031 649.781L379.375 651.25L378.906 652.719L377.562 655.625L376.938 657.25L376.438 658.594L375.938 660.219L375.312 661.344L374.813 662.969L374.156 664.594L373.531 665.75L373.031 667.375L372.406 668.656L371.906 670.281L371.062 671.75L370.719 673.031L370.094 674.656L369.438 676.156L368.938 677.438L368.313 679.062H395.156L394.531 677.438L394.031 675.969L392.75 673L392.25 671.531L391.594 670.25L391.125 668.625L390.469 667.156L389.969 665.688L389.344 664.344L388.844 662.875L388.188 661.25L387.719 659.969L386.375 657.062L386.094 655.562L385.438 654.094L384.781 652.469L384.313 651.344L382.969 648.094L382.5 646.625L381.656 645.344ZM333.844 862.969H667.625L497.25 919.125L333.844 862.969Z" fill="black"/>
</g>
<defs>
<clipPath id="clip0_10_8">
<rect width="1000" height="1000" fill="white"/>
</clipPath>
</defs>
</svg>
