<svg width="1000" height="1000" viewBox="0 0 1000 1000" fill="none" xmlns="http://www.w3.org/2000/svg">
<path d="M500.023 0C224.328 0 0.0234375 224.305 0.0234375 500C0.0234375 775.695 224.328 1000 500.023 1000C775.703 1000 999.977 775.695 999.977 500C999.977 224.305 775.703 0 500.023 0ZM686.18 764.648C639.844 791.547 586.992 805.227 533.336 805.227C402.148 805.227 283.688 718.75 243.227 593.75H204.047C182.508 593.75 164.992 576.219 164.992 554.688C164.992 533.148 182.508 515.625 204.047 515.625H228.828C228.508 507.812 228.352 504.992 228.352 500C228.352 495.008 228.508 492.188 228.828 484.375H204.047C182.508 484.375 164.992 466.844 164.992 445.312C164.992 423.773 182.508 406.25 204.047 406.25H243.227C283.688 281.25 402.148 195.555 533.328 195.555C586.984 195.555 639.844 209.914 686.172 236.781C704.781 247.602 711.141 271.609 700.336 290.242C693.367 302.227 680.414 309.727 666.516 309.727C659.688 309.727 652.93 307.914 646.977 304.477C612.516 284.492 573.234 273.656 533.32 273.656C443.641 273.656 363.852 328.125 326.938 406.25H509.008C530.531 406.25 548.062 423.773 548.062 445.312C548.062 466.844 530.531 484.375 509.008 484.375H307.008C306.641 492.188 306.461 494.734 306.461 500C306.461 505.266 306.641 507.812 307.008 515.625H509.008C530.531 515.625 548.062 533.148 548.062 554.688C548.062 576.219 530.531 593.75 509.008 593.75H326.938C363.859 671.875 443.641 727.133 533.328 727.133C573.234 727.133 612.523 716.859 646.969 696.867C652.922 693.406 659.695 691.711 666.539 691.711C680.422 691.711 693.383 699.227 700.344 711.234C711.148 729.859 704.781 753.852 686.18 764.648Z" fill="black"/>
</svg>
