<svg width="1000" height="1000" viewBox="0 0 1000 1000" fill="none" xmlns="http://www.w3.org/2000/svg">
<path d="M967.769 115.385H615.385V230.154H731.962V308.269H615.385V384.616H730.769V461.539H615.385V538.462H730.769V615.385H615.385V692.308H730.769V769.231H615.385V884.616H967.769C985.5 884.616 1000 869.577 1000 851.154V148.846C1000 130.423 985.5 115.385 967.769 115.385ZM923.077 769.231H769.231V692.308H923.077V769.231ZM923.077 615.385H769.231V538.462H923.077V615.385ZM923.077 461.539H769.231V384.616H923.077V461.539ZM923.077 307.692H769.231V230.769H923.077V307.692Z" fill="#030104"/>
<path d="M0 111.115V888.923L576.923 1000V0L0 111.115ZM364.923 695.385L297.808 568.5C295.269 563.769 292.654 555.077 289.923 542.423H288.885C287.615 548.385 284.615 557.462 279.885 569.615L212.538 695.385H107.962L232.115 500.615L118.538 305.808H225.308L281 422.615C285.346 431.846 289.231 442.808 292.692 455.462H293.769C295.962 447.846 300.038 436.538 306 421.5L367.923 305.769H465.692L348.885 498.923L468.962 695.346L364.923 695.385Z" fill="#030104"/>
</svg>
