<svg width="1000" height="1000" viewBox="0 0 1000 1000" fill="none" xmlns="http://www.w3.org/2000/svg">
<path d="M500 343.75V467.163H497.498C482.498 449.194 463.918 442.993 442.2 442.993C397.825 442.993 364.38 474.701 352.661 516.357C324.536 419.264 200.452 422.188 162.17 493.469V453.918H76.5381V411.072H170.288V343.933H0V645.264H76.5381V518.616H152.954C150.61 527.928 149.353 537.932 149.353 548.401C149.353 667.87 309.658 697.722 352.783 587.097H287.17C264.202 621.253 215.637 601.639 215.637 563.232H349.243C355.024 613.076 392.022 656.25 443.115 656.25C465.147 656.25 485.337 644.979 497.681 625.854H498.413V645.264H830.017L864.502 604.431L899.353 645.264H1000L915.649 546.387L998.901 448.486H901.428L867.493 489.075L832.336 448.547H646.851V422.363H734.558V343.75H500ZM572.021 358.337H720.459V407.654H632.812V463.074H719.543V508.972H631.897V582.092H719.543V630.432H572.021V358.337ZM735.474 453.613L814.697 546.753L735.474 639.893V565.369H647.827V525.513H735.474V453.613ZM764.038 463.074H826.111L867.676 510.925L907.654 463.074H967.834L896.851 546.387L968.75 630.432H905.457L864.38 582.214L823.608 630.432H764.038L835.327 546.753L764.038 463.074ZM254.761 487.488C270.796 487.632 286.533 498.365 290.283 519.287H217.651C222.417 497.787 238.726 487.343 254.761 487.488ZM457.336 496.582C508.274 496.582 511.243 599.243 457.336 599.243C403.274 599.243 404.211 496.582 457.336 496.582Z" fill="black"/>
</svg>
