<svg width="1000" height="1000" viewBox="0 0 1000 1000" fill="none" xmlns="http://www.w3.org/2000/svg">
<g clip-path="url(#clip0_9_553)">
<path d="M498.833 0C470.433 0.134224 442.05 1.39912 413.75 3.79167C354.102 8.72802 294.926 18.2704 236.75 32.3333C194.585 42.9899 153.174 56.4362 112.792 72.5833L110.292 73.5C110.292 73.5 115.208 375.292 119.042 524.792C120.029 568.807 128.033 612.382 142.75 653.875C159.782 701.082 182.475 746.049 210.333 787.792C239.479 830.898 274.736 869.539 315 902.5C330.739 915.702 347.331 927.853 364.667 938.875C391.856 955.302 420.241 969.662 449.583 981.833C459.292 985.917 467.75 989.833 475.417 992.458C483.432 995.522 491.645 998.042 500 1000C508.356 998.028 516.569 995.495 524.583 992.417C532.167 989.792 540.708 985.917 550.417 981.792C579.744 969.617 608.115 955.258 635.292 938.833C652.655 927.813 669.274 915.662 685.042 902.458C725.289 869.508 760.533 830.882 789.667 787.792C817.528 746.051 840.222 701.083 857.25 653.875C871.982 612.384 879.999 568.809 881 524.792C884.792 375.292 889.75 73.6667 889.75 73.6667C888.977 73.2667 888.184 72.9052 887.375 72.5833C846.979 56.4343 805.554 42.988 763.375 32.3333C705.198 18.2841 646.022 8.75566 586.375 3.83333C558.075 1.44368 529.692 0.164918 501.292 0L498.833 0ZM498.833 15.0417H501.208C529.5 15.375 554.875 16.2917 583 18.7917C640.354 23.5654 697.248 32.8017 753.167 46.4167C793.729 56.7582 833.554 69.8012 872.375 85.4583C873.184 85.7655 873.976 86.1132 874.75 86.5L873.167 181.25C872.917 181.086 872.652 180.947 872.375 180.833C833.567 165.18 793.756 152.137 753.208 141.792C697.274 128.193 640.366 118.97 583 114.208C554.875 111.708 529.625 110.042 501.333 109.708H498.917C470.625 110.083 445.167 111.708 417.042 114.208C359.686 119.013 302.792 128.277 246.875 141.917C206.312 152.274 166.488 165.331 127.667 181C127.376 181.112 127.097 181.251 126.833 181.417L125.25 86.375L127.667 85.4583C166.474 69.8026 206.285 56.7596 246.833 46.4167C302.778 32.7828 359.7 23.5325 417.083 18.75C445.208 16.25 470.583 15.4167 498.875 15.0417H498.833ZM510.833 24.0417C498.305 23.813 485.772 23.9241 473.25 24.375C468.208 24.5833 461.25 28.9167 461.167 33.9583L460.875 60.9583C460.792 66.4583 468.042 70.7917 473.583 70.9167C492.833 71.3333 509.833 71 528.5 72.1667C529.875 72.2917 531.083 73.125 531.083 74.5L530.958 79.9167C530.983 80.171 530.952 80.4277 530.868 80.6688C530.783 80.9099 530.646 81.1295 530.468 81.3122C530.289 81.4949 530.072 81.6362 529.833 81.7262C529.594 81.8163 529.338 81.8528 529.083 81.8333C507.375 81.8333 484.667 80.7917 462.708 82.5417C461.542 82.625 461.583 82.3333 461.542 83.5L460.542 99.5L460.458 100.75C486.575 99.2414 512.758 99.2414 538.875 100.75C541.922 100.657 544.845 99.5233 547.158 97.5369C549.47 95.5505 551.032 92.8316 551.583 89.8333L551.833 63.7083C551.833 58.3333 545.25 54.375 540.958 54.125C522.542 52.9583 501.583 53.5833 482.875 53.0833C482.616 53.0731 482.361 53.0102 482.127 52.8987C481.893 52.7871 481.683 52.6292 481.512 52.4344C481.341 52.2396 481.211 52.012 481.13 51.7654C481.049 51.5189 481.019 51.2585 481.042 51L481.417 44.9583C481.417 43.7917 482.208 43.4583 483.375 43.4167C501.875 42.75 529.5 43.625 548.458 44.2083C549.15 44.0914 549.78 43.7355 550.236 43.2026C550.693 42.6697 550.949 41.9935 550.958 41.2917V28.0833C550.958 27.375 549.625 25.2917 548.333 25.25V25.2083C535.839 24.6495 523.338 24.2606 510.833 24.0417ZM432.5 26.7083C414.875 27.0417 376.625 31.9167 354.917 34.625L354.792 110V110.958L374.375 108.458C374.458 108.449 374.539 108.422 374.611 108.379C374.683 108.336 374.744 108.278 374.792 108.208C374.885 108.091 374.93 107.941 374.917 107.792V86L414.375 81.75C417.833 81.125 421.875 83.6667 425.042 88.7917C427.575 93.1252 429.192 97.9328 429.792 102.917L449.25 101.458C449.667 101.458 450.5 101.458 450.417 101.042C449.839 90.5371 445.262 80.6522 437.625 73.4167C440.169 72.3874 442.327 70.5892 443.799 68.2734C445.27 65.9576 445.982 63.2399 445.833 60.5C446.038 52.6551 445.732 44.8051 444.917 37C444.251 34.1506 442.667 31.5993 440.408 29.7395C438.149 27.8796 435.341 26.8145 432.417 26.7083H432.5ZM582.083 27.5C578.03 27.3452 574.056 28.6596 570.894 31.2013C567.733 33.743 565.595 37.341 564.875 41.3333L564.458 91.125C564.591 93.9459 565.639 96.6469 567.443 98.8195C569.247 100.992 571.71 102.518 574.458 103.167C599.875 105.542 624.875 107.833 653.208 112.125C653.667 112.125 654.542 111.833 654.542 111.417V94.0833C654.542 93.7083 653.708 92.9167 653.417 92.8333C634.5 90.4583 609.542 87.125 587.208 84.7917C586.545 84.6309 585.951 84.2601 585.516 83.7345C585.08 83.2089 584.826 82.5567 584.792 81.875V48.0417C584.792 46.625 586.875 45.875 588.292 45.9583C610.333 47.7917 632.292 51.7917 654.292 54.1667C654.875 54.25 655.792 53.875 655.833 53.2917L656.25 37.375C656.222 37.0468 656.089 36.7362 655.872 36.4888C655.655 36.2413 655.364 36.07 655.042 36C630.808 32.5785 606.496 29.7443 582.125 27.5H582.083ZM664.583 37.375C664.083 37.375 663.667 37.9583 663.667 38.4167C663.417 49.8333 661.792 99.125 661.458 112.25V113.375C667.917 114.5 675.042 115.375 680.333 116.458C680.917 116.542 681.792 116.125 681.792 115.542C681.708 106.917 681.792 96.875 681.625 89.0417C681.625 88.5 681.875 88.4583 682.458 88.5417C697.817 91.323 713.125 94.3791 728.375 97.7083C728.708 97.7083 730.542 98 730.542 98.9583C730.417 108 730.25 115.625 730 124.667C729.987 125.028 730.089 125.384 730.291 125.683C730.493 125.983 730.785 126.21 731.125 126.333C737.167 127.708 742.917 129.125 748.625 130.5C750.167 130.833 750.417 130.542 750.458 130C751.375 111.208 751.708 81.0833 751.958 55.6667C751.958 55.3333 751.833 54.8333 751.542 54.75C745.167 53.2917 739.167 51.75 732.667 50.375C732.083 50.25 731.75 51.2083 731.708 51.8333C731.083 61.125 731.333 69.75 730.625 79C730.625 79.3333 730.625 79.5 730.25 79.4167C714.833 76.25 698.375 72.8333 683.083 69.9583C682.667 69.875 682.833 69.125 682.875 68.6667L683 41.4583C682.98 41.1606 682.863 40.8777 682.667 40.6522C682.472 40.4267 682.208 40.2709 681.917 40.2083C676.134 39.2112 670.342 38.2667 664.542 37.375H664.583ZM330.583 38.3333C330.07 38.3019 329.555 38.3019 329.042 38.3333C306.417 41.9167 283.667 46.7083 260.708 51.6667C257.027 52.7333 253.71 54.7951 251.125 57.625C248.71 59.8554 247.197 62.8949 246.875 66.1667L247.042 112.75C247.218 116.838 248.775 120.745 251.458 123.833C252.373 125.253 253.632 126.418 255.118 127.219C256.605 128.02 258.27 128.433 259.958 128.417C282.539 123.441 305.225 118.954 328 114.958C332.374 113.926 336.294 111.498 339.167 108.042C341.623 105.434 343.07 102.036 343.25 98.4583L343.167 50C343.019 48.3815 342.536 46.8116 341.746 45.3909C340.957 43.9702 339.88 42.7301 338.583 41.75C336.404 39.7388 333.587 38.5587 330.625 38.4167L330.583 38.3333ZM420.458 46.5417C421.278 46.4951 422.084 46.7689 422.706 47.3053C423.328 47.8417 423.717 48.5987 423.792 49.4167L423.917 57.2917C423.888 58.9395 423.292 60.5271 422.23 61.787C421.167 63.0468 419.703 63.902 418.083 64.2083L373.833 68.5417L373.458 68.2083V51.25L373.833 51.0833L420.125 46.5833C420.236 46.5775 420.347 46.5775 420.458 46.5833V46.5417ZM315.458 58.625C316.601 58.6591 317.717 58.9739 318.708 59.5417C319.444 60.0094 320.041 60.6659 320.437 61.4427C320.832 62.2195 321.012 63.0882 320.958 63.9583L320.583 93.2917C320.621 94.1316 320.456 94.9682 320.1 95.73C319.745 96.4919 319.21 97.1564 318.542 97.6667C317.042 98.6849 315.334 99.3541 313.542 99.625C299.717 102.379 285.869 105.018 272 107.542C271.374 107.699 270.722 107.716 270.088 107.594C269.455 107.472 268.856 107.212 268.333 106.833C267.855 106.259 267.497 105.594 267.282 104.878C267.068 104.162 267 103.41 267.083 102.667V72.4167C267.107 70.9069 267.702 69.4624 268.75 68.375C270.149 67.089 271.882 66.2226 273.75 65.875C285.833 63.625 301.667 60.5 314.083 58.7083C314.538 58.6351 314.998 58.6072 315.458 58.625ZM765.875 58.625L765.833 58.6667C765.5 58.6667 765.5 59.1667 765.5 59.4583C764.917 84.7083 764.25 108.083 764.042 133.333C764.042 133.875 764.292 134.583 764.792 134.708C795.24 142.895 825.252 152.63 854.708 163.875C856.042 164.333 856 163.333 856 162.958C856.125 157.208 856.417 151.375 856.125 145.625C856.089 145.324 855.974 145.038 855.791 144.796C855.607 144.555 855.363 144.366 855.083 144.25C832.439 135.528 809.352 128.004 785.917 121.708C785.689 121.631 785.491 121.486 785.35 121.292C785.208 121.098 785.13 120.865 785.125 120.625L785.458 113.125C785.458 112.792 786.042 112.708 786.375 112.792C809.863 119.384 833.076 126.918 855.958 135.375C856.375 135.5 856.375 134.958 856.375 134.583C856.672 128.087 856.672 121.58 856.375 115.083C856.362 114.84 856.275 114.606 856.126 114.413C855.978 114.219 855.774 114.075 855.542 114C833.092 105.827 810.324 98.5574 787.292 92.2083C786.958 92.125 786.542 91.7917 786.542 91.4583V83.4583C786.542 83.125 787.083 82.9167 787.417 83.0417C810.917 89.0417 836.75 98.0417 854.708 104.667C856.292 105.25 857.208 105 857.208 103.542C857.208 97 857.458 96.5417 857.125 90.0417C857.042 89.2083 856.958 88.375 856.208 88.0833C826.629 76.6628 796.461 66.8293 765.833 58.625H765.875ZM225.458 61.2917C224.281 61.2808 223.107 61.4066 221.958 61.6667C194.875 68.5833 167.667 78.9167 140.458 88.8333C140.086 89.062 139.777 89.3799 139.559 89.7582C139.34 90.1366 139.22 90.5634 139.208 91V152.083L139.333 165.833C139.333 165.833 158.958 158.458 163.208 157.083C163.75 156.917 163.75 156.375 163.75 155.792L163.333 134.125C163.333 133.5 163.417 132.583 164 132.458L231.708 111.542C233.986 110.714 235.981 109.254 237.458 107.333C238.933 105.495 239.702 103.189 239.625 100.833L238.917 72.375C238.74 70.7275 238.205 69.1388 237.348 67.7206C236.492 66.3024 235.335 65.0892 233.958 64.1667C231.474 62.3901 228.512 61.4028 225.458 61.3333V61.2917ZM213.542 81.9583C215.042 81.5417 216.458 83.25 216.542 84.5833C216.942 88.0404 217.109 91.5205 217.042 95C217 96.875 214.292 99.0417 212.458 99.5833L163.125 115.667C162.667 115.833 161.833 115.667 161.833 115.167L161.917 100.25C161.917 99.5417 162.75 98.9583 163.417 98.75C179.781 92.175 196.519 86.5681 213.542 81.9583ZM503.833 122.833C531.042 123.25 555.75 124.083 583 126.5C640.34 131.277 697.22 140.513 753.125 154.125C793.688 164.463 833.513 177.506 872.333 193.167C872.535 193.25 872.73 193.347 872.917 193.458C872.804 199.68 872.707 205.903 872.625 212.125H503.833V122.833ZM490.625 122.917L490.583 315.333H367.792C366 315.167 367.167 314.375 368.417 313.167C377.213 306.596 387.409 302.147 398.208 300.167C399.125 300.083 399.375 299.583 398.083 297.917C393.106 292.953 386.831 289.492 379.978 287.93C373.125 286.367 365.97 286.767 359.333 289.083C353.369 291.008 347.924 294.273 343.418 298.628C338.911 302.984 335.461 308.313 333.333 314.208C333.247 314.583 333.034 314.916 332.73 315.151C332.427 315.387 332.051 315.51 331.667 315.5C325.147 315.908 318.615 316.089 312.083 316.042C311.042 316.042 310.542 314.708 310.625 313.708C311.48 309.54 313.192 305.595 315.652 302.124C318.112 298.652 321.267 295.73 324.917 293.542C331.383 289.283 338.823 286.731 346.542 286.125C346.802 286.047 347.039 285.907 347.232 285.717C347.426 285.526 347.57 285.291 347.652 285.033C347.734 284.774 347.752 284.499 347.704 284.232C347.655 283.965 347.542 283.714 347.375 283.5C346.1 282.015 344.628 280.711 343 279.625C336.58 276.163 329.16 275.029 322 276.417C311.749 277.411 302.174 281.98 294.952 289.323C287.73 296.667 283.322 306.317 282.5 316.583C282.083 319.083 282.75 319.667 280.292 320.5C275.625 322.083 266.875 323.167 262.208 324.167C261.375 324.292 260.125 322.375 260.333 321.542C262.065 313.627 265.538 306.197 270.5 299.792C274.276 294.728 279.147 290.583 284.75 287.667C285.833 287.125 286.833 285.833 285.833 285C275.292 275.833 253.708 285.5 245 295.042C236.777 305.908 232.713 319.357 233.542 332.958C233.542 333.625 234.125 334.667 233.542 334.917C228.079 337.239 222.518 339.325 216.875 341.167C216.375 341.292 216.292 340 216.208 339.5C214.541 329.659 216.735 319.555 222.333 311.292C224.78 307.108 228.287 303.644 232.5 301.25C232.917 301 232.833 300.5 232.5 300.083C227.708 293.875 208.792 298.333 203 304C189.667 317 190.625 329.625 190 349.708C189.958 350.667 188.75 354.333 187.667 354.833C185.3 356.243 182.705 357.23 180 357.75C179.125 358 179.042 358.333 178.833 357.458C178.114 355.115 176.873 352.964 175.204 351.168C173.535 349.371 171.481 347.976 169.197 347.086C166.912 346.197 164.456 345.835 162.011 346.029C159.567 346.224 157.199 346.969 155.083 348.208C153.297 349.357 151.779 350.875 150.63 352.661C149.481 354.447 148.73 356.459 148.425 358.56C148.121 360.662 148.272 362.804 148.867 364.842C149.462 366.881 150.488 368.767 151.875 370.375C152.5 371.083 152.708 371.792 151.75 372.083C149.522 372.769 147.453 373.893 145.665 375.389C143.877 376.886 142.406 378.724 141.339 380.797C140.271 382.87 139.629 385.135 139.449 387.46C139.269 389.784 139.556 392.121 140.292 394.333C141.294 396.82 142.989 398.966 145.175 400.517C147.362 402.068 149.947 402.959 152.625 403.083C158.109 403.236 163.502 401.662 168.042 398.583C168.233 398.447 168.45 398.349 168.679 398.296C168.908 398.242 169.146 398.235 169.378 398.274C169.61 398.312 169.832 398.396 170.032 398.521C170.232 398.646 170.405 398.808 170.542 399C172.794 402.615 176.388 405.19 180.536 406.158C184.684 407.127 189.046 406.411 192.667 404.167C199.417 399.708 202.417 392.792 197.417 380.875C197.125 380.208 198.25 378.958 198.833 378.625C238.751 355.65 283.789 343.043 329.833 341.958C336.324 342.521 342.712 343.935 348.833 346.167C349.166 346.236 349.488 346.348 349.792 346.5L349.875 385.708C349.443 386.107 348.968 386.456 348.458 386.75C339.908 391.988 333.521 400.119 330.458 409.667C330.292 410.375 330.208 410.542 329 410.667C320.958 411.458 312.375 412.625 304.375 413.25C303.917 413.333 303.042 412.458 303.208 412C309.005 396.501 319.585 383.25 333.417 374.167C333.776 373.807 334.01 373.342 334.085 372.839C334.16 372.337 334.072 371.824 333.833 371.375C331.876 369.498 329.463 368.162 326.833 367.5C319.876 366.972 312.89 368.058 306.421 370.674C299.952 373.291 294.176 377.366 289.542 382.583C281.238 392.932 276.658 405.774 276.542 419.042C276.5 419.958 276.667 421.458 275.75 421.75C270.583 423.375 264.875 424.833 259.5 426.333C258.875 426.5 258.042 425.875 257.917 425.208C256.56 416.846 257.769 408.27 261.384 400.608C264.999 392.947 270.85 386.561 278.167 382.292C280.292 380.625 276.583 378.042 273.917 378.042C266.114 377.619 258.358 379.483 251.6 383.406C244.842 387.329 239.377 393.14 235.875 400.125C232.027 410.74 231.59 422.291 234.625 433.167C234.75 434.125 235.417 435.792 234.375 436.042C231.083 436.833 223.333 439.792 220.917 440.542C220.042 440.833 219.458 440.417 218.958 439.292C217.058 432.679 216.758 425.71 218.083 418.958C219.971 411.262 223.818 404.186 229.25 398.417C229.583 398 229.708 397.083 229.25 396.875C224.298 394.637 218.704 394.267 213.5 395.833C209.252 396.909 205.283 398.877 201.856 401.607C198.428 404.338 195.623 407.767 193.625 411.667C187 424.042 188.708 435.958 195.75 453.542C196.083 454.375 196.5 455.958 195.75 456.458L190.042 459.792C189.333 460.333 188.708 459.875 188.208 459.167C185.917 455.917 183.042 450.75 179.458 449.167C176.635 447.76 173.482 447.153 170.338 447.41C167.195 447.667 164.182 448.779 161.625 450.625C159.124 452.8 157.317 455.661 156.428 458.853C155.539 462.046 155.608 465.429 156.625 468.583C157.79 470.834 159.186 472.956 160.792 474.917C161.208 475.5 160.75 476.417 160.25 476.875C157.792 479.042 154.417 480.625 152.417 482.708C150.249 485.501 149.037 488.917 148.962 492.452C148.887 495.986 149.952 499.451 152 502.333C154.036 505.242 157.025 507.346 160.449 508.282C163.874 509.218 167.518 508.927 170.75 507.458C174.104 506.027 177.337 504.327 180.417 502.375C181.542 501.625 182.292 500.25 183.333 501.333C185.859 504.21 189.069 506.402 192.667 507.708C195.165 508.376 197.779 508.49 200.327 508.044C202.874 507.598 205.294 506.602 207.417 505.125C209.995 503.904 212.087 501.851 213.357 499.296C214.627 496.742 215 493.834 214.417 491.042C213.106 486.971 211.089 483.163 208.458 479.792C207.083 478.333 207 478.417 208.458 477.542C230.199 464.705 253.426 454.575 277.625 447.375C300.436 440.515 324.25 437.598 348.042 438.75H349.958L350.083 519.958H133.583C131.333 431.083 128.75 290.375 127.083 193.458C127.271 193.348 127.466 193.25 127.667 193.167C166.473 177.508 206.284 164.465 246.833 154.125C302.752 140.511 359.646 131.275 417 126.5C441.502 124.376 466.075 123.181 490.667 122.917H490.625ZM361.958 156.917C351.579 157.157 341.515 160.527 333.083 166.583C321.167 174.417 314.083 198.792 312.667 207.5C312.594 207.899 312.391 208.263 312.089 208.535C311.788 208.806 311.405 208.97 311 209C301.519 210.196 292.115 211.935 282.833 214.208C282.542 214.25 282.333 213.792 282.333 213.5C283.055 204.331 286.842 195.672 293.083 188.917C299.42 182.809 306.295 177.287 313.625 172.417C314.167 171.958 313.792 170.542 313.125 170.292C307.831 168.176 302.171 167.131 296.471 167.217C290.771 167.302 285.144 168.518 279.917 170.792C272.54 173.92 266.085 178.88 261.163 185.202C256.241 191.524 253.015 198.998 251.792 206.917C250.821 212.557 250.416 218.28 250.583 224C250.667 224.708 249.333 224.75 248.708 224.958C238.458 228.167 227.708 231.917 219.125 234.792C218.708 234.958 217.5 234.875 217.5 234.375C217.179 224.757 219.716 215.26 224.792 207.083C229.792 198.958 239.083 194.375 245.833 187.542C246.292 187.042 247 185.708 246.292 185.417C229.208 178.542 213.083 185.583 199.458 201.042C194.845 207.819 191.718 215.495 190.281 223.567C188.845 231.638 189.133 239.922 191.125 247.875C191.5 249.375 191.125 251 190.333 251.333C187.227 252.786 184.025 254.025 180.75 255.042C180.605 255.092 180.45 255.111 180.298 255.095C180.145 255.079 179.997 255.029 179.866 254.949C179.735 254.87 179.622 254.762 179.537 254.634C179.453 254.506 179.397 254.36 179.375 254.208C175.5 241.875 161.042 244.292 154.5 248.042C151.043 249.988 148.494 253.221 147.41 257.037C146.325 260.853 146.792 264.943 148.708 268.417C148.807 268.563 148.874 268.728 148.906 268.901C148.938 269.074 148.935 269.252 148.896 269.423C148.857 269.595 148.783 269.757 148.679 269.899C148.575 270.041 148.443 270.161 148.292 270.25C146.086 271.304 144.113 272.786 142.486 274.611C140.859 276.435 139.612 278.565 138.817 280.877C138.022 283.188 137.695 285.635 137.855 288.074C138.015 290.513 138.659 292.896 139.75 295.083C141.591 297.964 144.381 300.111 147.637 301.154C150.893 302.196 154.411 302.068 157.583 300.792C161.195 299.4 164.635 297.597 167.833 295.417C168.034 295.316 168.261 295.279 168.484 295.308C168.707 295.338 168.915 295.434 169.083 295.583C170.372 297.403 172.019 298.941 173.923 300.102C175.827 301.263 177.948 302.023 180.156 302.335C182.364 302.647 184.613 302.505 186.764 301.917C188.916 301.329 190.924 300.308 192.667 298.917C197.458 295.5 199.333 294.917 201.167 288.75C201.439 286.52 201.247 284.259 200.602 282.107C199.956 279.956 198.872 277.961 197.417 276.25C196.917 275.833 197.375 274.583 197.958 274.292C252.118 246.392 311.888 231.107 372.792 229.583C394.901 230.238 416.137 238.36 433.042 252.625C433.329 253.04 433.716 253.376 434.168 253.602C434.619 253.828 435.12 253.936 435.625 253.917C436.139 253.702 436.605 253.384 436.991 252.983C437.378 252.582 437.679 252.105 437.875 251.583C439.288 246.553 439.239 241.225 437.734 236.222C436.228 231.219 433.329 226.748 429.375 223.333C422.478 216.14 413.605 211.153 403.875 209C403.375 208.875 403.042 207.792 403.458 207.458C407.421 203.463 412.175 200.34 417.417 198.292C425.745 196.886 434.178 196.189 442.625 196.208C443.208 196.167 444.083 195.583 443.875 195.042C442.224 190.434 439.269 186.406 435.371 183.447C431.473 180.488 426.798 178.726 421.917 178.375C412.092 177.15 402.119 178.589 393.042 182.542C383.665 187.612 376.312 195.745 372.208 205.583C372.085 205.832 371.895 206.042 371.66 206.189C371.424 206.336 371.153 206.415 370.875 206.417C362.629 206.118 354.376 206.02 346.125 206.125C345.542 206.125 344.667 206.125 344.667 205.542C345.873 197.428 349.588 189.895 355.292 184C363.579 176.817 373.209 171.35 383.625 167.917C384.417 167.667 385.292 166.417 384.833 165.792C382.657 162.786 379.783 160.355 376.458 158.708C371.744 157.458 366.876 156.882 362 157L361.958 156.917ZM503.833 223.875H872.375C871.875 252.458 871.333 283.583 870.708 315.333H503.833V223.875ZM361.708 325.042L639.458 325.167C639.622 325.154 639.786 325.202 639.916 325.302C640.047 325.402 640.136 325.547 640.167 325.708L640.083 539.792C639.875 550.66 637.861 561.417 634.125 571.625C623.066 601.817 601.855 627.225 574.125 643.5C552.192 656.61 527.175 663.669 501.625 663.958C466.984 663.537 433.616 650.84 407.458 628.125C393.325 616.327 381.898 601.623 373.953 585.015C366.009 568.407 361.733 550.283 361.417 531.875L361.125 325.833C361.125 325.292 361.167 325.042 361.708 325.042ZM653.125 328.625H870.5C870 355.5 869.458 382.625 869.083 408.875H653.125V346.583V328.625ZM368.167 331.583C367.625 331.583 367.583 331.792 367.583 332.333L367.875 530.375C368.141 548.07 372.199 565.501 379.774 581.494C387.35 597.487 398.268 611.669 411.792 623.083C436.641 644.879 468.449 657.097 501.5 657.542C525.9 657.257 549.781 650.453 570.667 637.833C597.188 622.108 617.425 597.66 627.917 568.667C631.473 558.853 633.387 548.52 633.583 538.083L633.667 332.25C633.661 332.168 633.64 332.088 633.604 332.014C633.567 331.94 633.516 331.874 633.455 331.82C633.393 331.766 633.321 331.724 633.243 331.698C633.165 331.672 633.082 331.661 633 331.667L368.167 331.583ZM553 344.25C553.014 344.25 553.028 344.25 553.042 344.25C553.856 344.372 554.622 344.711 555.26 345.232C555.898 345.752 556.384 346.435 556.667 347.208L566.75 377C566.955 377.463 567.05 377.967 567.029 378.473C567.007 378.979 566.869 379.473 566.625 379.917C566.353 380.247 566.009 380.509 565.618 380.683C565.228 380.856 564.802 380.936 564.375 380.917C563.799 380.93 563.235 380.759 562.763 380.429C562.291 380.1 561.936 379.628 561.75 379.083L560.167 373.875H546.417L544.917 379.208C544.5 380.875 543.25 381.042 541.958 381.042C541.587 380.989 541.232 380.858 540.915 380.657C540.599 380.456 540.33 380.189 540.125 379.875C539.885 379.574 539.722 379.22 539.65 378.843C539.577 378.466 539.597 378.076 539.708 377.708L549.375 347.375C549.59 346.548 550.052 345.805 550.7 345.247C551.348 344.689 552.15 344.341 553 344.25ZM521.208 344.542C521.528 344.525 521.847 344.525 522.167 344.542C524.291 344.401 526.403 344.967 528.174 346.149C529.944 347.332 531.275 349.067 531.958 351.083C532.042 351.329 532.074 351.59 532.054 351.849C532.033 352.108 531.96 352.36 531.84 352.589C531.719 352.819 531.553 353.022 531.351 353.186C531.149 353.35 530.916 353.471 530.667 353.542C530.166 353.802 529.585 353.86 529.043 353.705C528.5 353.55 528.038 353.193 527.75 352.708C527.223 351.671 526.442 350.784 525.481 350.128C524.519 349.473 523.408 349.07 522.25 348.958C521.02 349.034 519.839 349.469 518.853 350.209C517.868 350.95 517.122 351.964 516.708 353.125C515.237 355.989 514.453 359.156 514.417 362.375C514.336 365.645 514.991 368.892 516.333 371.875C516.827 373.163 517.711 374.265 518.861 375.027C520.012 375.789 521.371 376.173 522.75 376.125C524.892 375.491 526.749 374.137 528.009 372.293C529.269 370.448 529.855 368.226 529.667 366V364.375H524.042C523.701 364.389 523.361 364.329 523.045 364.2C522.729 364.07 522.445 363.875 522.211 363.625C521.978 363.376 521.801 363.08 521.693 362.756C521.584 362.433 521.547 362.089 521.583 361.75C521.583 360.792 521.875 359.667 524.042 359.667H532.042C534.708 359.667 535.083 361.667 535.083 363.417C535.135 365.538 534.981 367.659 534.625 369.75C533.796 373.674 531.576 377.167 528.375 379.583C526.485 380.72 524.33 381.338 522.125 381.375C520.144 381.342 518.211 380.759 516.541 379.693C514.871 378.626 513.53 377.117 512.667 375.333C510.542 371.367 509.493 366.914 509.625 362.417C509.542 357.967 510.696 353.582 512.958 349.75C513.727 348.211 514.902 346.912 516.356 345.994C517.811 345.076 519.489 344.574 521.208 344.542ZM396.708 344.625C396.764 344.625 396.819 344.625 396.875 344.625C404.5 344.708 407 349.25 407 350.875C407 352.333 404.458 354.208 403.042 352.5C402.229 351.573 401.22 350.838 400.089 350.349C398.958 349.859 397.732 349.626 396.5 349.667C395.159 349.528 393.811 349.848 392.676 350.575C391.541 351.301 390.686 352.391 390.25 353.667C390.124 354.294 390.127 354.941 390.257 355.568C390.388 356.195 390.643 356.789 391.009 357.314C391.375 357.839 391.843 358.285 392.386 358.625C392.929 358.965 393.534 359.192 394.167 359.292C398.083 359.529 401.89 360.67 405.292 362.625H405.25C406.407 363.482 407.325 364.622 407.916 365.935C408.507 367.248 408.751 368.691 408.625 370.125C408.688 372.828 407.686 375.447 405.833 377.417C404.464 378.705 402.842 379.696 401.071 380.327C399.3 380.958 397.417 381.215 395.542 381.083C393.363 381.162 391.202 380.665 389.278 379.64C387.354 378.616 385.734 377.101 384.583 375.25C384.417 374.833 384.167 372.625 386 372C386.614 371.856 387.256 371.88 387.858 372.071C388.459 372.262 388.998 372.612 389.417 373.083C391.194 374.717 393.503 375.65 395.917 375.708C398.156 375.78 400.346 375.04 402.083 373.625C402.717 373.014 403.152 372.225 403.33 371.363C403.508 370.5 403.422 369.604 403.083 368.792C402.212 367.473 401.012 366.403 399.602 365.687C398.193 364.971 396.621 364.634 395.042 364.708C392.367 364.692 389.801 363.648 387.875 361.792C386.838 360.716 386.045 359.43 385.549 358.021C385.053 356.612 384.866 355.113 385 353.625C385.136 352.252 385.581 350.927 386.303 349.75C387.025 348.574 388.004 347.577 389.167 346.833C391.399 345.352 394.029 344.582 396.708 344.625ZM465.417 344.625C465.431 344.625 465.444 344.625 465.458 344.625C465.542 344.621 465.625 344.621 465.708 344.625H480.5C481.163 344.625 481.799 344.888 482.268 345.357C482.737 345.826 483 346.462 483 347.125C483 347.788 482.737 348.424 482.268 348.893C481.799 349.362 481.163 349.625 480.5 349.625L475.75 349.708V378.125C475.67 378.759 475.361 379.342 474.881 379.764C474.402 380.187 473.785 380.42 473.146 380.42C472.507 380.42 471.89 380.187 471.41 379.764C470.931 379.342 470.622 378.759 470.542 378.125V349.667H465.708C465.045 349.705 464.394 349.479 463.898 349.038C463.402 348.596 463.101 347.976 463.062 347.312C463.024 346.649 463.25 345.998 463.692 345.502C464.133 345.006 464.754 344.705 465.417 344.667V344.625ZM488.75 344.625C488.764 344.625 488.778 344.625 488.792 344.625C488.875 344.621 488.958 344.621 489.042 344.625H503.792C504.455 344.625 505.091 344.888 505.559 345.357C506.028 345.826 506.292 346.462 506.292 347.125C506.292 347.788 506.028 348.424 505.559 348.893C505.091 349.362 504.455 349.625 503.792 349.625L499.042 349.708V378.125C498.961 378.759 498.652 379.342 498.173 379.764C497.694 380.187 497.077 380.42 496.438 380.42C495.798 380.42 495.181 380.187 494.702 379.764C494.223 379.342 493.914 378.759 493.833 378.125V349.667H489.042C488.379 349.705 487.727 349.479 487.231 349.038C486.735 348.596 486.435 347.976 486.396 347.312C486.357 346.649 486.583 345.998 487.025 345.502C487.466 345.006 488.087 344.705 488.75 344.667V344.625ZM602.917 344.625C602.944 344.625 602.972 344.625 603 344.625C603.083 344.621 603.167 344.621 603.25 344.625H617.958C618.621 344.625 619.257 344.888 619.726 345.357C620.195 345.826 620.458 346.462 620.458 347.125C620.458 347.788 620.195 348.424 619.726 348.893C619.257 349.362 618.621 349.625 617.958 349.625L613.292 349.708V378.125C613.211 378.759 612.902 379.342 612.423 379.764C611.944 380.187 611.327 380.42 610.688 380.42C610.048 380.42 609.431 380.187 608.952 379.764C608.473 379.342 608.164 378.759 608.083 378.125V349.667H603.25C602.587 349.705 601.936 349.479 601.44 349.038C600.943 348.596 600.643 347.976 600.604 347.312C600.566 346.649 600.792 345.998 601.233 345.502C601.675 345.006 602.295 344.705 602.958 344.667L602.917 344.625ZM574.708 344.792C574.875 344.776 575.042 344.776 575.208 344.792H583.125C586.192 344.702 589.214 345.545 591.792 347.208C593.117 348.229 594.206 349.525 594.982 351.007C595.759 352.488 596.206 354.121 596.292 355.792C596.473 357.302 596.301 358.834 595.787 360.266C595.274 361.698 594.433 362.991 593.333 364.042C591.97 365.445 590.302 366.514 588.458 367.167L587.625 367.458L594.208 375.792C594.8 376.428 595.141 377.257 595.167 378.125C595.083 379.458 594.208 380.208 592.667 380.208C592.215 380.227 591.766 380.134 591.359 379.938C590.952 379.742 590.6 379.448 590.333 379.083L582.542 368.333H577.667V377.917C577.718 378.281 577.686 378.652 577.575 379.002C577.463 379.353 577.275 379.674 577.023 379.941C576.771 380.209 576.462 380.417 576.119 380.55C575.777 380.683 575.408 380.737 575.042 380.708C574.68 380.723 574.32 380.659 573.986 380.521C573.652 380.383 573.352 380.174 573.106 379.908C572.861 379.643 572.675 379.327 572.564 378.984C572.452 378.64 572.416 378.276 572.458 377.917V347.667C572.415 346.914 572.652 346.171 573.125 345.583C573.545 345.144 574.105 344.864 574.708 344.792ZM413.458 344.875C413.5 344.874 413.542 344.874 413.583 344.875H428.458C429.127 344.875 429.768 345.141 430.241 345.613C430.714 346.086 430.979 346.727 430.979 347.396C430.979 348.064 430.714 348.706 430.241 349.178C429.768 349.651 429.127 349.917 428.458 349.917H423.625V378.417C423.545 379.051 423.236 379.633 422.756 380.056C422.277 380.478 421.66 380.712 421.021 380.712C420.382 380.712 419.765 380.478 419.285 380.056C418.806 379.633 418.497 379.051 418.417 378.417V349.917H413.583C412.92 349.933 412.278 349.686 411.797 349.229C411.317 348.772 411.037 348.142 411.021 347.479C411.004 346.816 411.252 346.174 411.709 345.693C412.166 345.213 412.795 344.933 413.458 344.917V344.875ZM437.75 344.875C437.778 344.875 437.806 344.875 437.833 344.875C438.189 344.864 438.542 344.925 438.873 345.054C439.204 345.184 439.506 345.379 439.759 345.628C440.012 345.878 440.212 346.176 440.347 346.505C440.481 346.834 440.548 347.186 440.542 347.542V367.167C440.396 369.373 440.935 371.57 442.083 373.458C442.702 374.256 443.51 374.887 444.434 375.294C445.358 375.701 446.369 375.872 447.375 375.792C448.371 375.89 449.376 375.726 450.289 375.317C451.203 374.908 451.993 374.267 452.583 373.458C453.678 371.565 454.185 369.39 454.042 367.208V347.5H454.083C454.164 346.866 454.473 346.283 454.952 345.861C455.431 345.438 456.048 345.205 456.687 345.205C457.327 345.205 457.944 345.438 458.423 345.861C458.902 346.283 459.211 346.866 459.292 347.5V365.5C459.58 369.288 458.77 373.078 456.958 376.417C455.896 377.911 454.459 379.099 452.791 379.86C451.122 380.62 449.283 380.928 447.458 380.75C445.624 380.901 443.782 380.582 442.106 379.824C440.429 379.066 438.973 377.893 437.875 376.417C435.949 373.116 435.064 369.312 435.333 365.5V347.5C435.331 346.838 435.579 346.201 436.027 345.714C436.475 345.227 437.09 344.928 437.75 344.875ZM577.5 349.667V363.333H582.917C583.949 363.449 584.993 363.349 585.984 363.04C586.976 362.731 587.892 362.22 588.675 361.538C589.459 360.857 590.092 360.02 590.535 359.081C590.979 358.142 591.222 357.121 591.25 356.083C591.229 355.221 591.029 354.372 590.663 353.59C590.297 352.808 589.774 352.111 589.125 351.542C588.392 350.885 587.535 350.382 586.605 350.06C585.675 349.738 584.69 349.604 583.708 349.667H577.5ZM553.167 350.292L547.5 369.833H559.083L553.167 350.292ZM505.667 392.167C506.125 392.167 506.542 392.25 506.583 392.625C506.667 393.375 505.917 393.833 504.833 394.375C503.218 395.06 501.851 396.223 500.917 397.708C499.762 399.78 499.199 402.13 499.292 404.5C499.45 405.212 499.768 405.879 500.223 406.45C500.678 407.02 501.257 407.479 501.917 407.792C503.763 408.661 505.795 409.062 507.833 408.958C510.979 408.769 514.041 407.872 516.792 406.333C520.502 405.133 524.447 404.848 528.292 405.5C531.191 405.53 534.011 406.446 536.375 408.125C537.375 408.833 537.208 409.708 536.833 409.792C536.25 410 535.625 409.292 535 409.375C532.989 409.577 531.005 409.997 529.083 410.625C526.583 411.75 525.458 412.167 524.25 414.375C523.767 415.314 523.663 416.403 523.958 417.417C524.375 418.417 525.417 419.083 525.625 419.792C526.233 421.658 527.133 423.416 528.292 425C528.678 425.357 529.096 425.678 529.542 425.958C533.689 429.056 537.616 432.439 541.292 436.083C542.096 437.253 542.662 438.57 542.958 439.958C543.083 440.458 542.667 441.208 542.208 441C541.673 440.643 541.171 440.239 540.708 439.792C540.08 439.117 539.331 438.566 538.5 438.167C536.177 437.225 533.66 436.868 531.167 437.125C530.042 437.125 527.792 438.125 529.083 438.625C531.291 439.753 533.181 441.414 534.583 443.458C537.717 447.006 539.32 451.65 539.042 456.375C539.042 456.625 538.542 456.792 538.417 456.625C537.334 454.83 535.886 453.283 534.167 452.083C531.638 450.233 528.545 449.32 525.417 449.5C524.792 449.542 522.917 449.5 523.125 450.083C525.083 452.567 526.799 455.232 528.25 458.042C529.749 461.678 530.308 465.633 529.875 469.542C529.833 469.75 529.042 469.958 528.917 469.75C527.943 468.602 526.869 467.542 525.708 466.583C524.545 465.545 523.223 464.701 521.792 464.083C518.911 463.419 515.887 463.834 513.292 465.25C510.991 466.519 509.109 468.43 507.875 470.75C506.397 473.373 505.515 476.289 505.292 479.292C504.831 482.955 505.439 486.674 507.042 490C508.798 493.135 511.6 495.554 514.958 496.833C519.452 498.264 524.164 498.885 528.875 498.667C534.667 498.875 540.458 498 546.25 497.833C551.74 497.313 557.269 497.355 562.75 497.958C567.19 498.839 571.428 500.534 575.25 502.958C578.37 505.338 581.36 507.884 584.208 510.583C584.542 510.833 585.292 510.458 585.667 510.208C588.403 507.581 590.302 504.203 591.125 500.5C591.665 496.911 590.832 493.251 588.792 490.25C586.833 486.708 583.958 482.75 581.708 479C578.656 475.063 575.846 470.944 573.292 466.667C571.909 463.795 571.656 460.508 572.583 457.458C573.377 455.201 574.961 453.307 577.042 452.125C577.5 451.833 577.958 452.375 577.75 453C577.155 454.483 577.039 456.114 577.417 457.667C578.119 459.903 579.398 461.915 581.125 463.5C581.667 463.917 583.083 463.292 583.417 462.625C584.167 460.833 583.708 458.042 584.375 456.208C585.218 452.796 586.749 449.591 588.875 446.792C593.469 443.382 598.518 440.633 603.875 438.625C605.25 437.833 606.125 434.25 607.667 434.833C609.208 435.375 608.375 439 607.208 440.75C605.542 443.333 603.583 444.917 601.75 447.25C599.247 450.465 597.056 453.911 595.208 457.542C594.2 459.264 593.776 461.267 594 463.25C594.188 464.086 594.558 464.871 595.084 465.548C595.61 466.225 596.278 466.777 597.042 467.167C597.958 467.583 599.125 466.75 599.958 466.125C601.559 464.956 602.929 463.501 604 461.833C604.958 460.25 604.417 458.125 605.333 456.5C605.583 456.125 606.583 456.208 606.875 456.5C607.877 457.416 608.526 458.655 608.708 460C608.798 461.581 608.658 463.167 608.292 464.708C608.167 465.042 607.292 465.833 607 466.583C606.774 467.163 606.495 467.721 606.167 468.25C604.667 470.875 602.917 473.083 600.958 473.5C600.542 473.542 600.25 474.375 600.542 474.75C601.679 476.913 603.288 478.793 605.25 480.25C606.226 480.734 607.288 481.02 608.375 481.092C609.462 481.163 610.552 481.019 611.583 480.667C612.708 480.333 613.583 479.542 614.875 479.125C615.417 478.958 615.083 479.292 615.083 479.833C615.071 481.054 614.86 482.264 614.458 483.417C613.787 484.857 612.698 486.062 611.333 486.875C609.21 488.073 606.848 488.785 604.417 488.958C603.292 489.167 601.583 490 602 491.083C602.358 492.363 602.951 493.564 603.75 494.625C604.617 495.567 605.807 496.147 607.083 496.25C608.936 496.329 610.764 495.802 612.292 494.75C613.958 493.667 614.833 491.667 616.292 490.25C616.583 490 617.375 490.25 617.375 490.667C617.317 492.963 616.733 495.215 615.667 497.25C614.271 499.489 612.461 501.441 610.333 503C609.708 503.542 608.958 504.208 608.958 505.042C609.28 506.338 609.909 507.539 610.792 508.542C611.615 509.706 612.852 510.511 614.25 510.792C615.627 511.052 617.04 511.052 618.417 510.792C618.958 510.792 618.833 511.75 618.375 512.083C617.037 513.453 615.352 514.432 613.5 514.917C611.781 515.49 609.943 515.605 608.167 515.25C604.792 514.417 602.583 513.167 599.25 512.208C597.455 511.522 595.495 511.392 593.625 511.833C591.837 512.513 590.297 513.719 589.208 515.292C588.559 516.052 588.127 516.973 587.958 517.958C587.708 520.583 589 523.375 588.167 525.958C587.329 529.301 586.199 532.563 584.792 535.708C583.372 538.119 581.771 540.417 580 542.583C578.333 544.833 576.125 545.667 575 548.125C574.523 549.03 573.995 549.906 573.417 550.75C571.883 553.7 571.055 556.967 571 560.292C571.425 563.447 572.644 566.443 574.542 569L580.917 578.875C581.369 579.969 581.499 581.168 581.292 582.333C581.248 582.932 581.059 583.512 580.739 584.02C580.419 584.529 579.979 584.951 579.458 585.25C570.997 590.011 564.732 597.891 562 607.208L561.917 607.75V607.917C561.76 608.558 561.46 609.156 561.042 609.667C558.91 611.828 556.13 613.232 553.125 613.667C550.833 614.292 548.542 614.875 546.25 615.583C545.503 615.779 544.852 616.238 544.417 616.875C544.026 617.496 543.85 618.229 543.918 618.96C543.986 619.69 544.293 620.378 544.792 620.917C545.483 621.763 545.917 622.79 546.042 623.875C546.077 624.504 545.885 625.126 545.5 625.625C545.165 625.993 544.77 626.303 544.333 626.542C541.51 628.15 538.483 629.37 535.333 630.167C533.25 630.625 531.75 630.083 532.417 627.708C533.572 623.573 534.935 619.498 536.5 615.5C537.869 613.152 539.766 611.154 542.042 609.667C544.852 607.247 547.802 604.993 550.875 602.917C552.882 601.539 554.573 599.749 555.833 597.667C558.277 593.716 560.919 589.892 563.75 586.208C564.316 585.447 564.716 584.575 564.924 583.649C565.132 582.723 565.144 581.764 564.958 580.833C564.687 579.159 564.004 577.579 562.972 576.233C561.939 574.888 560.589 573.82 559.042 573.125C557.882 572.602 556.701 572.129 555.5 571.708C551.453 570.314 547.894 567.783 545.25 564.417C544.962 563.972 544.582 563.594 544.137 563.306C543.692 563.019 543.191 562.83 542.667 562.75C540.042 562.833 539.292 566.5 539.208 568.5C538.996 571.443 539.052 574.4 539.375 577.333C539.632 578.312 539.689 579.332 539.542 580.333C539.408 580.685 539.19 580.998 538.906 581.245C538.623 581.492 538.283 581.665 537.917 581.75C529.648 584.707 521.749 588.608 514.375 593.375C513.316 594.164 512.424 595.156 511.75 596.292L511.042 597.5C510.116 599.043 508.685 600.218 506.991 600.826C505.297 601.433 503.445 601.436 501.75 600.833C501.146 600.653 500.534 600.5 499.917 600.375C498.971 600.28 498.024 600.532 497.25 601.083C496.6 601.483 496.022 601.99 495.542 602.583C495.356 602.82 495.215 603.088 495.125 603.375V603.625C495.117 603.736 495.117 603.847 495.125 603.958C495.151 604.201 495.207 604.438 495.292 604.667L496.208 607.167C496.414 607.525 496.537 607.925 496.566 608.338C496.596 608.75 496.533 609.164 496.38 609.548C496.228 609.933 495.992 610.278 495.688 610.558C495.384 610.838 495.02 611.046 494.625 611.167C491.907 612.266 489.068 613.035 486.167 613.458C484.5 613.667 483.042 613.042 483.458 611.083C484.057 607.693 485.035 604.38 486.375 601.208C486.554 600.638 486.861 600.116 487.273 599.683C487.684 599.25 488.19 598.916 488.75 598.708C491.504 597.134 494.016 595.169 496.208 592.875C498.119 591.055 500.616 589.977 503.25 589.833C507.206 589.487 510.986 588.044 514.167 585.667C517.504 583.352 520.641 580.76 523.542 577.917C525.67 575.163 526.803 571.77 526.758 568.29C526.712 564.81 525.491 561.448 523.292 558.75L522.458 557.292C521.667 556.042 521.208 554.25 520.542 552.958C519.669 551.661 519.112 550.177 518.917 548.625C518.917 545.792 520.042 543.083 520.208 540.25C520.23 540.027 520.176 539.803 520.055 539.614C519.934 539.425 519.754 539.282 519.542 539.208C517.709 538.519 515.786 538.098 513.833 537.958C506.086 538.857 498.265 538.941 490.5 538.208C484.735 536.545 479.256 534.016 474.25 530.708C472.042 529.333 470.708 527.792 468.458 526.5C467.875 526.167 467.833 526.292 467.292 526.75C461.765 530.76 454.963 532.612 448.167 531.958H448.083C443.915 531.243 439.817 530.169 435.833 528.75C432.792 527.625 427.917 525.667 425 528.125C423.792 529.167 424.083 530.625 424.083 532C424.467 536.237 424.327 540.505 423.667 544.708C423.589 544.926 423.56 545.159 423.581 545.389C423.603 545.619 423.675 545.842 423.792 546.042C423.867 546.133 423.95 546.217 424.042 546.292C424.496 546.644 425.002 546.925 425.542 547.125L425.958 547.292C427.125 547.708 427.333 548.25 428.042 549.708C428.404 550.527 428.629 551.4 428.708 552.292C428.837 553.153 428.794 554.031 428.583 554.875C428.478 555.421 428.353 555.963 428.208 556.5C427.687 558.359 427.804 560.34 428.542 562.125C428.89 563.02 429.5 563.789 430.292 564.333C430.426 564.399 430.566 564.455 430.708 564.5C430.844 564.553 430.983 564.595 431.125 564.625C431.264 564.635 431.403 564.635 431.542 564.625H431.958C432.251 564.555 432.532 564.443 432.792 564.292L432.958 564.208C433.363 563.861 433.885 563.682 434.417 563.708C434.56 563.734 434.7 563.776 434.833 563.833C435.549 563.988 436.193 564.373 436.668 564.931C437.142 565.488 437.42 566.186 437.458 566.917C437.554 570.094 436.897 573.25 435.542 576.125C435.415 576.419 435.231 576.686 435.001 576.908C434.77 577.131 434.498 577.305 434.199 577.422C433.901 577.538 433.582 577.594 433.262 577.586C432.941 577.578 432.626 577.506 432.333 577.375L431.583 577.083C429.323 575.879 427.337 574.219 425.75 572.208C424.574 570.92 423.856 569.28 423.708 567.542C423.759 566.297 423.343 565.079 422.542 564.125C422.146 563.816 421.693 563.589 421.208 563.458C420.068 563.123 419.052 562.456 418.292 561.542C417.29 560.269 416.578 558.793 416.204 557.218C415.83 555.642 415.803 554.004 416.125 552.417C417.417 543.494 416.763 534.397 414.208 525.75C413.672 524.292 413.702 522.687 414.292 521.25L414.958 519.458C415.042 519.231 415.14 519.008 415.25 518.792C415.421 518.451 415.667 518.153 415.97 517.922C416.274 517.691 416.626 517.532 417 517.458C417.398 517.382 417.803 517.34 418.208 517.333C424.57 517.311 430.891 516.327 436.958 514.417C437.781 514.099 438.661 513.958 439.542 514C440.554 514.069 441.569 514.097 442.583 514.083C443.833 514.083 445.083 512.958 443.583 512C442.332 510.877 441.162 509.665 440.083 508.375C439.875 508.003 439.55 507.711 439.157 507.545C438.765 507.379 438.328 507.349 437.917 507.458C437.773 507.517 437.633 507.587 437.5 507.667L437.125 507.875C436.658 508.286 436.103 508.585 435.503 508.748C434.903 508.912 434.274 508.937 433.663 508.82C433.052 508.704 432.476 508.449 431.978 508.076C431.48 507.703 431.075 507.221 430.792 506.667C429.213 504.036 427.993 501.205 427.167 498.25C426.465 494.63 424.908 491.229 422.625 488.333C421.58 487.34 420.329 486.59 418.96 486.136C417.592 485.682 416.14 485.536 414.708 485.708C412.439 486.311 410.496 487.776 409.292 489.792L406.667 493.458C406.001 494.261 405.556 495.223 405.375 496.25C405.358 496.472 405.358 496.695 405.375 496.917C405.433 497.373 405.545 497.82 405.708 498.25C406.164 499.352 406.252 500.572 405.959 501.728C405.666 502.884 405.009 503.914 404.083 504.667L400.167 507.792C399.803 508.105 399.506 508.487 399.291 508.916C399.076 509.345 398.949 509.813 398.917 510.292C398.799 511.134 398.632 511.969 398.417 512.792C398.266 513.405 398.224 514.039 398.292 514.667C398.308 514.835 398.336 515.002 398.375 515.167C398.617 515.846 399.069 516.43 399.667 516.833C399.857 516.99 400.037 517.157 400.208 517.333C400.408 517.545 400.576 517.783 400.708 518.042C400.946 518.518 401.026 519.057 400.936 519.582C400.846 520.107 400.591 520.589 400.208 520.958C399.897 521.274 399.563 521.566 399.208 521.833C396.802 523.71 394.135 525.226 391.292 526.333C390.944 526.466 390.579 526.55 390.208 526.583C388.625 526.708 388.125 525.5 388.042 524.083C387.917 522.25 387.917 520.375 387.917 518.5C387.976 516.369 388.822 514.336 390.292 512.792C392.318 510.093 393.375 506.79 393.292 503.417C393.187 501.471 393.777 499.55 394.958 498C395.964 496.899 396.768 495.63 397.333 494.25C397.734 493.257 398.282 492.33 398.958 491.5C403.186 486.412 407.097 481.069 410.667 475.5C412.917 471.917 417.125 467.5 420.542 472.458C421.429 473.792 422.527 474.974 423.792 475.958C427.239 478.464 430.844 480.747 434.583 482.792C438.5 485 439.125 481.042 439.792 477.75V477.625C440.123 476.275 440.657 474.982 441.375 473.792C443.733 470.018 446.561 466.56 449.792 463.5C451.583 461.917 454.167 460.333 456.042 458.792C456.792 458.125 457 458.042 457.292 457.125C457.667 456.208 458.292 455.042 458.708 453.875C459.125 452.75 459.333 451.583 459.708 450.708C460.53 449.452 461.148 448.074 461.542 446.625V446.5C461.549 446.431 461.549 446.361 461.542 446.292V446L461.417 445.708C461.242 445.288 460.935 444.937 460.542 444.708C459.265 443.932 457.785 443.555 456.292 443.625H456.167C454.046 443.643 451.95 444.082 450 444.917C448.997 445.361 448.194 446.163 447.75 447.167C447.318 448.134 446.727 449.021 446 449.792C445.284 450.489 444.337 450.9 443.339 450.946C442.341 450.992 441.36 450.67 440.583 450.042C439.583 449.375 440 448.25 440.583 447.417C441.12 446.759 441.607 446.063 442.042 445.333C442.217 445.016 442.29 444.652 442.25 444.292V444.125L442.167 443.917C442.108 443.825 442.038 443.741 441.958 443.667C441.698 443.46 441.388 443.324 441.059 443.273C440.731 443.221 440.394 443.257 440.083 443.375C438.914 443.698 437.761 444.074 436.625 444.5C436.247 444.706 435.826 444.818 435.395 444.826C434.965 444.833 434.54 444.737 434.155 444.544C433.77 444.352 433.438 444.069 433.186 443.721C432.934 443.372 432.77 442.967 432.708 442.542C432.545 441.789 432.503 441.016 432.583 440.25C432.609 439.772 432.783 439.314 433.082 438.941C433.381 438.567 433.789 438.296 434.25 438.167C435.083 437.917 436.333 437.458 436.167 436.417C436.12 436.099 436.12 435.776 436.167 435.458C436.243 435.087 436.415 434.742 436.667 434.458C437.033 434.054 437.453 433.704 437.917 433.417C442.525 430.397 446.975 427.142 451.25 423.667C451.573 423.292 452.018 423.044 452.507 422.968C452.995 422.892 453.495 422.992 453.917 423.25L454.333 423.5C456.268 424.508 458.495 424.803 460.625 424.333C461.001 424.316 461.364 424.188 461.667 423.966C461.971 423.743 462.203 423.436 462.333 423.083C462.34 423.014 462.34 422.944 462.333 422.875V422.667L462.25 422.417L462.125 422.25C461.735 421.822 461.228 421.518 460.667 421.375L458.25 420.5C457.493 420.231 456.766 419.882 456.083 419.458C455.665 419.218 455.337 418.848 455.149 418.404C454.961 417.961 454.923 417.467 455.042 417C456 412.292 461.167 412.25 465.083 412.625H465.25C467.228 412.595 469.192 412.287 471.083 411.708C473.583 410.833 475.5 408.917 477.875 407.792C480.25 406.667 482.75 405.417 485.208 404.458C485.958 404.208 486.583 404.375 487.25 404.083C487.812 403.858 488.312 403.5 488.708 403.042C490.42 400.563 492.405 398.285 494.625 396.25C497.685 394.472 501.002 393.179 504.458 392.417C504.861 392.274 505.282 392.19 505.708 392.167H505.667ZM487.958 415.375C486.432 415.365 484.928 415.737 483.583 416.458C483.208 416.667 482.958 417.125 483.25 417.458C484 418.333 485.292 418.708 486.167 419.542C486.765 420.087 487.259 420.736 487.625 421.458C488 422.25 488.625 423.125 489 423.958C489.711 425.634 490.337 427.345 490.875 429.083C491.823 431.92 492.52 434.834 492.958 437.792C493.375 440.167 493.25 442.667 493.375 445.083V448.458C493.333 449.417 493.333 450.417 493.25 451.375C493.136 452.733 493.08 454.095 493.083 455.458V458.792C493.167 461.708 493.625 463.792 494.917 463.792C496.13 463.815 497.331 463.543 498.417 463C499.484 462.36 500.37 461.457 500.99 460.378C501.61 459.298 501.943 458.078 501.958 456.833C503.06 448.868 503.018 440.787 501.833 432.833C501.636 429.915 500.838 427.07 499.49 424.474C498.142 421.879 496.273 419.59 494 417.75C492.356 416.254 490.223 415.409 488 415.375H487.958ZM652.958 422.083H868.667C867.958 456.458 867.25 488.75 866.583 516.375H652.833L653 438.792L652.958 422.083ZM652.708 528.083H866.167C864.852 569.438 857.194 610.346 843.458 649.375C827.098 695.138 805.273 738.759 778.458 779.292C750.481 821.04 716.585 858.5 677.833 890.5C662.698 903.317 646.733 915.121 630.042 925.833C603.906 941.744 576.606 955.658 548.375 967.458C539.042 971.458 530.958 975.208 523.542 977.75C515.5 980.458 508.625 982.958 503.792 984.25V979.458L503.917 675.5C508.318 675.377 512.711 675.057 517.083 674.542C517.292 675.167 517.75 676.917 518.375 678.708C519.316 680.444 520.617 681.959 522.191 683.152C523.764 684.345 525.574 685.188 527.5 685.625C529.83 686.098 532.244 685.934 534.488 685.149C536.732 684.364 538.723 682.988 540.25 681.167C542.416 683.094 545.078 684.376 547.935 684.869C550.792 685.363 553.73 685.047 556.417 683.958C558.505 683.407 560.353 682.18 561.671 680.47C562.99 678.759 563.706 676.66 563.708 674.5C563.975 671.542 563.503 668.564 562.333 665.833L560.833 663.083C571.754 658.527 582.149 652.799 591.833 646L592.667 645.75C608.208 641.833 670.667 619.458 708.958 618.958C732.58 618.424 755.937 624.023 776.75 635.208C787.399 641.431 796.991 649.307 805.167 658.542C805.417 658.917 805.708 659.708 806.708 659.875C807.009 659.882 807.305 659.798 807.558 659.635C807.811 659.471 808.008 659.236 808.125 658.958C810.872 652.143 811.999 644.783 811.417 637.458C810.583 625.708 798.917 617.208 795.458 613.708C795.333 613.583 795.042 612.833 796.292 612C797.628 610.676 799.093 609.489 800.667 608.458C807.359 603.143 815.547 600.054 824.083 599.625C825.333 599.75 824.917 597.958 824.583 596.458C822.167 586.042 807.292 579.292 791.667 581.708C786.473 582.773 781.541 584.857 777.157 587.839C772.773 590.822 769.023 594.643 766.125 599.083C765.833 599.542 764.375 600.208 763.792 599.625C758.77 597.804 753.634 596.314 748.417 595.167C746.542 594.75 747.542 593.333 747.625 593.083C750.719 587.496 755.052 582.693 760.292 579.042C766.289 574.298 773.355 571.094 780.875 569.708C781.792 569.708 781.792 568.458 781.542 568.042C780.062 564.897 777.886 562.129 775.179 559.949C772.472 557.769 769.305 556.234 765.917 555.458C760.436 553.696 754.606 553.306 748.939 554.323C743.273 555.341 737.942 557.733 733.417 561.292C724.613 568.612 718.163 578.366 714.875 589.333C714.292 590.167 714.125 590.833 713.375 590.667C709.25 589.833 699 590.375 698.083 589.75C697.458 589.458 697.583 588.5 697.708 587.875C699.45 581.92 702.626 576.483 706.958 572.042C710.863 566.79 716.099 562.676 722.125 560.125C722.486 559.959 722.797 559.702 723.029 559.38C723.261 559.057 723.405 558.68 723.447 558.285C723.489 557.89 723.428 557.491 723.269 557.127C723.11 556.763 722.86 556.446 722.542 556.208C714.115 551.843 704.432 550.55 695.155 552.55C685.878 554.549 677.588 559.718 671.708 567.167C665.831 576.023 661.544 585.837 659.042 596.167C658.958 596.542 658.333 597.667 657.542 597.667L636.375 602.333L632.917 603.125L632 604.083C644.888 583.414 652.036 559.683 652.708 535.333V528.083ZM133.958 531.625H350.208V535.375C350.607 567.827 363.034 598.977 385.083 622.792H148.167C139.966 593.043 135.185 562.457 133.917 531.625H133.958ZM151.25 633.417H395.542C397.056 634.851 398.612 636.24 400.208 637.583C425.783 659.056 457.356 672.122 490.625 675V725.417H189.792C176.858 700.88 165.717 675.438 156.458 649.292C154.621 644.048 152.884 638.769 151.25 633.458V633.417ZM592.25 645.5L591.833 646H591.75L591.667 645.917C591.875 645.778 592.084 645.639 592.292 645.5H592.25ZM664.667 653.208C657.14 653.219 649.787 655.467 643.542 659.667C636.458 663.53 630.75 669.5 627.208 676.75C623.212 687.093 620.796 697.979 620.042 709.042C619.896 709.383 619.679 709.689 619.406 709.941C619.133 710.192 618.81 710.383 618.458 710.5C613.738 711.429 609.076 712.64 604.5 714.125C604.273 714.105 604.058 714.013 603.886 713.863C603.714 713.714 603.593 713.514 603.542 713.292C602.07 702.776 604.278 692.074 609.792 683C612.08 678.793 615.165 675.071 618.875 672.042C619.146 671.867 619.356 671.612 619.475 671.313C619.593 671.013 619.615 670.684 619.537 670.371C619.459 670.058 619.285 669.778 619.039 669.569C618.793 669.361 618.488 669.235 618.167 669.208C608.888 667.633 599.35 669.311 591.167 673.958C586.059 676.778 581.69 680.765 578.417 685.595C575.143 690.425 573.059 695.961 572.333 701.75C571.352 710.037 571.946 718.434 574.083 726.5C574.083 726.75 574.333 727.625 573.417 727.792C570.25 729.333 561.667 733.833 558.625 735.292C558.417 735.375 557.833 735.5 557.708 735.042C556.927 731.94 555.537 729.024 553.62 726.464C551.704 723.903 549.298 721.749 546.542 720.125C543.567 718.905 540.359 718.355 537.148 718.513C533.936 718.672 530.799 719.535 527.958 721.042C524.119 723.218 520.993 726.46 518.958 730.375C517.533 733.663 517.28 737.341 518.244 740.792C519.207 744.244 521.328 747.259 524.25 749.333C524.5 749.583 524.958 750.167 524.25 750.375C520.5 752.417 520.417 752.875 517.583 757.083C516.154 760.098 515.6 763.454 515.983 766.768C516.366 770.083 517.671 773.224 519.75 775.833C521.311 778.143 523.352 780.089 525.733 781.538C528.115 782.987 530.781 783.905 533.55 784.23C536.319 784.554 539.125 784.277 541.777 783.418C544.429 782.558 546.864 781.137 548.917 779.25C549.083 779.125 549.667 779.458 549.958 780.083C551.525 782.542 553.547 784.677 555.917 786.375C558.809 788.007 562.075 788.865 565.396 788.865C568.717 788.865 571.982 788.007 574.875 786.375C577.901 784.705 580.355 782.162 581.916 779.078C583.476 775.994 584.072 772.511 583.625 769.083C583.564 764.981 581.905 761.064 579 758.167C578.458 757.5 579 757.167 580.417 756.25C605.596 741.824 633.327 732.401 662.083 728.5C676.968 726.207 692.138 726.517 706.917 729.417C716.556 731.622 725.537 736.076 733.125 742.417C739.312 747.417 744.98 753.029 750.042 759.167C751.74 759.446 753.481 759.074 754.917 758.125C756.459 754.759 757.306 751.115 757.406 747.414C757.506 743.712 756.858 740.028 755.5 736.583C752.053 727.305 746.588 718.909 739.5 712C739.375 711.917 739.375 711.458 739.375 711.167C739.208 709.917 740 709.292 741.542 707.875C748.106 701.739 756.19 697.466 764.958 695.5C766.083 695.417 766.542 694.583 765.792 693.292C762.622 687.509 757.468 683.067 751.281 680.785C745.094 678.503 738.29 678.535 732.125 680.875H732.083C723.966 684.297 717.283 690.421 713.167 698.208C712.917 698.667 712.25 700.292 711.625 699.792C707.875 699.458 701.542 698.458 697.833 698.125C696.125 698.042 696.792 696.5 696.833 696.25C698.373 691.249 701.154 686.72 704.917 683.083C709.958 677.276 716.296 672.737 723.417 669.833C723.559 669.817 723.696 669.766 723.814 669.684C723.932 669.602 724.029 669.493 724.095 669.365C724.16 669.238 724.194 669.096 724.192 668.952C724.19 668.808 724.153 668.667 724.083 668.542C721.721 665.662 718.77 663.321 715.428 661.675C712.086 660.029 708.431 659.117 704.708 659C699.967 658.752 695.226 659.506 690.796 661.215C686.366 662.924 682.346 665.548 679 668.917C671.027 677.351 666.087 688.199 664.958 699.75C664.583 700.708 664.125 701.208 663.417 701.208C659.585 701.825 655.714 702.173 651.833 702.25C651.208 702.083 651.25 701.417 651.25 700.75C651.32 694.861 652.761 689.069 655.458 683.833C660.743 673.812 668.668 665.426 678.375 659.583C679.875 658.542 679.958 656.417 679.458 656.167C674.775 654.201 669.745 653.195 664.667 653.208ZM196.125 737.167H490.667V828.417H258.875C245.332 812.856 232.833 796.417 221.458 779.208C212.5 765.488 204.036 751.452 196.083 737.125L196.125 737.167ZM615.958 786.167C611.969 786.008 608.019 787.007 604.583 789.042C595.217 793.967 588.123 802.33 584.792 812.375C582.841 820.209 583.013 828.422 585.292 836.167C585.417 836.458 585.792 837.167 585.208 837.417C581.958 838.667 579.542 840.125 576.333 841.417C576.167 841.417 575.333 841.625 575.167 841.208C572.464 836.364 571.364 830.788 572.022 825.28C572.681 819.772 575.065 814.613 578.833 810.542C579.542 809.917 579.958 809.083 578.5 808.583C574.434 807.958 570.275 808.367 566.408 809.773C562.542 811.178 559.091 813.535 556.375 816.625C553.253 820.387 551.162 824.896 550.307 829.71C549.452 834.523 549.863 839.476 551.5 844.083C552.315 847.897 553.706 851.564 555.625 854.958C555.75 855.167 556.875 855.833 556.208 856.125L549.958 860.917C549.833 861.042 549.375 861.25 549.167 860.917C547.91 858.546 546.195 856.448 544.12 854.745C542.046 853.043 539.654 851.77 537.083 851C534.751 850.448 532.317 850.494 530.008 851.135C527.698 851.776 525.589 852.991 523.875 854.667C522.023 856.493 520.676 858.769 519.965 861.272C519.255 863.774 519.207 866.418 519.824 868.945C520.441 871.473 521.703 873.797 523.486 875.69C525.27 877.584 527.514 878.983 530 879.75C530.292 879.875 530.708 880.25 530.208 880.583C526.885 882.834 524.166 885.867 522.292 889.417C521.163 892.274 520.897 895.399 521.527 898.406C522.156 901.413 523.654 904.169 525.833 906.333C527.471 907.77 529.395 908.844 531.477 909.483C533.56 910.122 535.755 910.312 537.917 910.042C541.147 908.983 544.131 907.282 546.687 905.041C549.243 902.8 551.32 900.065 552.792 897C552.875 896.875 553.667 896.292 554.083 896.75C556.768 900.63 560.622 903.549 565.083 905.083C567.364 905.877 569.815 906.044 572.182 905.568C574.55 905.091 576.746 903.989 578.542 902.375C580.99 900.454 582.76 897.8 583.592 894.801C584.424 891.803 584.275 888.616 583.167 885.708C581.154 882.068 578.278 878.978 574.792 876.708C574.25 876.292 574.667 875.25 575.75 874.417C592.628 860.845 612.77 851.938 634.167 848.583C648.773 846.646 663.627 849.052 676.875 855.5C682.051 858.537 686.777 862.281 690.917 866.625C691.458 866.917 693 867.458 693.542 866.958C696.68 864.073 698.583 860.089 698.855 855.835C699.127 851.58 697.746 847.386 695 844.125C692.636 841.274 689.715 838.935 686.417 837.25C686.28 837.063 686.181 836.85 686.125 836.625C688.704 830.108 693.047 824.438 698.667 820.25C702.513 817.783 706.639 815.783 710.958 814.292C711.875 814.042 711.708 813.458 711.25 812.333C705.917 800.125 684.792 799.667 674.833 806.083C668.751 810.322 663.801 815.987 660.417 822.583C660.208 823 659.917 824.25 659.375 823.875L650.5 821.208C650.333 821.208 650.333 820.208 650.417 820.042C653.358 814.325 657.455 809.28 662.447 805.228C667.438 801.176 673.217 798.204 679.417 796.5C680.042 796.25 679.833 795.667 679.708 795.333C675.125 784.167 652.167 785.125 640.958 792.25C630.542 799.158 623.186 809.812 620.417 822C620.292 822.833 620.667 823.542 620.125 823.667C617.011 824.734 613.802 825.502 610.542 825.958C610.298 825.938 610.071 825.83 609.902 825.653C609.733 825.476 609.634 825.244 609.625 825C608.803 819.397 609.781 813.678 612.417 808.667C616.156 802.436 620.695 796.72 625.917 791.667C626.089 791.491 626.224 791.281 626.312 791.05C626.4 790.82 626.439 790.573 626.427 790.327C626.415 790.081 626.353 789.839 626.244 789.618C626.134 789.397 625.98 789.201 625.792 789.042C622.81 787.26 619.429 786.257 615.958 786.125V786.167ZM490.708 840.167V982.542C486.625 981.208 481.792 979.458 476.458 977.667C469.042 975.167 460.917 971.375 451.583 967.375C423.351 955.562 396.051 941.633 369.917 925.708C353.227 915.008 337.262 903.219 322.125 890.417C303.422 874.883 285.798 858.094 269.375 840.167H490.625H490.708Z" fill="black"/>
</g>
<defs>
<clipPath id="clip0_9_553">
<rect width="1000" height="1000" fill="white"/>
</clipPath>
</defs>
</svg>
