<svg width="1000" height="1000" viewBox="0 0 1000 1000" fill="none" xmlns="http://www.w3.org/2000/svg">
<g clip-path="url(#clip0_10_16)">
<path d="M500 500C500 455.797 517.56 413.405 548.816 382.149C580.072 350.893 622.464 333.333 666.667 333.333C710.869 333.333 753.262 350.893 784.518 382.149C815.774 413.405 833.333 455.797 833.333 500C833.333 544.203 815.774 586.595 784.518 617.851C753.262 649.107 710.869 666.667 666.667 666.667C622.464 666.667 580.072 649.107 548.816 617.851C517.56 586.595 500 544.203 500 500ZM166.667 833.333C166.667 789.131 184.226 746.738 215.482 715.482C246.738 684.226 289.131 666.667 333.333 666.667H500V833.333C500 877.536 482.441 919.928 451.185 951.184C419.928 982.441 377.536 1000 333.333 1000C289.131 1000 246.738 982.441 215.482 951.184C184.226 919.928 166.667 877.536 166.667 833.333ZM500 0V333.333H666.667C710.869 333.333 753.262 315.774 784.518 284.518C815.774 253.262 833.333 210.869 833.333 166.667C833.333 122.464 815.774 80.0716 784.518 48.8155C753.262 17.5595 710.869 0 666.667 0L500 0ZM166.667 166.667C166.667 210.869 184.226 253.262 215.482 284.518C246.738 315.774 289.131 333.333 333.333 333.333H500V0H333.333C289.131 0 246.738 17.5595 215.482 48.8155C184.226 80.0716 166.667 122.464 166.667 166.667ZM166.667 500C166.667 544.203 184.226 586.595 215.482 617.851C246.738 649.107 289.131 666.667 333.333 666.667H500V333.333H333.333C289.131 333.333 246.738 350.893 215.482 382.149C184.226 413.405 166.667 455.797 166.667 500Z" fill="black"/>
</g>
<defs>
<clipPath id="clip0_10_16">
<rect width="1000" height="1000" fill="white"/>
</clipPath>
</defs>
</svg>
