<svg width="1000" height="1000" viewBox="0 0 1000 1000" fill="none" xmlns="http://www.w3.org/2000/svg">
<g clip-path="url(#clip0_15_12)">
<path d="M1000.08 77.5003V33.3753C991.25 33.3753 982.625 29.7503 976.417 23.542C970.25 17.3753 966.667 8.70866 966.667 -0.0830078H922.458C921.583 18.417 905.792 32.667 887.292 31.792C870.083 30.917 856.333 17.1253 855.458 -0.0830078H811.25C810.125 18.417 794.25 32.5003 775.708 31.3753C758.833 30.3337 745.333 16.792 744.25 -0.0830078H700.125C699.167 18.417 683.458 32.667 664.917 31.792C647.708 30.917 633.958 17.1253 633.042 -0.0830078H588.875C587.958 18.417 572.25 32.667 553.708 31.792C536.5 30.917 522.75 17.1253 521.833 -0.0830078H477.708C476.583 18.417 460.708 32.5003 442.167 31.3753C425.292 30.3337 411.792 16.792 410.708 -0.0830078H366.542C366.083 18.417 350.583 32.8753 332.125 32.167C314.542 31.5837 300.417 17.4587 299.792 -0.0830078H255.625C254.75 18.417 238.958 32.667 220.458 31.792C203.25 30.8753 189.458 17.1253 188.625 -0.0830078H144.458C143.792 18.417 128.25 32.8753 109.792 32.167C92.2083 31.5837 78.125 17.4587 77.5 -0.0830078H33.3333C33.3333 8.70866 29.75 17.3753 23.5417 23.542C17.3333 29.7503 8.70833 33.3753 -0.125 33.3753V77.5003C18.375 78.2087 32.7917 93.7087 32.125 112.167C31.5833 129.75 17.4583 143.875 -0.125 144.459V188.667C18.375 189.334 32.7917 204.834 32.125 223.334C31.5833 240.917 17.4583 255 -0.125 255.625V299.75C18.375 299.75 33.375 314.792 33.375 333.292C33.375 351.792 18.375 366.792 -0.125 366.792V410.917C18.375 410.917 33.375 425.875 33.375 444.417C33.375 462.959 18.4167 477.917 -0.125 477.917V522.084C18.375 522.75 32.7917 538.292 32.125 556.75C31.5417 574.334 17.4167 588.417 -0.125 589.042V633.25C18.375 633.25 33.375 648.209 33.375 666.709C33.375 685.25 18.4167 700.25 -0.125 700.25V744.459C18.375 745.125 32.7917 760.584 32.125 779.042C31.5417 796.625 17.4167 810.792 -0.125 811.334V855.542C18.375 855.542 33.375 870.5 33.375 889.084C33.375 907.542 18.4167 922.542 -0.125 922.542V966.75C18.2917 966.834 33.2917 981.709 33.3333 1000.21H77.5C78.625 981.75 94.5833 967.667 113.083 968.792C130 969.834 143.458 983.292 144.5 1000.21H188.708C189.583 981.75 205.375 967.5 223.875 968.375C241.083 969.25 254.833 983.042 255.708 1000.21H299.833C300.792 981.75 316.5 967.5 335.042 968.375C352.25 969.25 366 983.042 366.875 1000.21H411.042C411.75 981.75 427.25 967.25 445.708 967.917C463.292 968.584 477.417 982.667 478 1000.21H522.208C523.083 981.75 538.875 967.5 557.375 968.375C574.583 969.25 588.333 983.042 589.208 1000.21H633.333C634.292 981.75 650 967.5 668.542 968.375C685.75 969.25 699.5 983.042 700.417 1000.21H744.542C745.5 981.75 761.208 967.5 779.75 968.375C796.958 969.25 810.708 983.042 811.625 1000.21H855.792C856.458 981.75 871.958 967.25 890.417 967.917C908 968.584 922.125 982.667 922.708 1000.21H966.667C966.667 991.417 970.25 982.792 976.458 976.542C982.625 970.375 991.25 966.792 1000.08 966.792V922.584C981.583 921.459 967.542 905.584 968.625 887.084C969.667 870.167 983.208 856.667 1000.08 855.667V811.459C981.583 810.5 967.333 794.792 968.25 776.292C969.125 759.042 982.875 745.292 1000.08 744.459V700.25C981.583 699.125 967.542 683.167 968.625 664.667C969.667 647.75 983.208 634.292 1000.08 633.25V589.042C981.583 588.167 967.333 572.375 968.25 553.875C969.125 536.709 982.875 522.959 1000.08 522.042V477.959C981.583 476.834 967.542 460.875 968.625 442.375C969.667 425.459 983.208 412 1000.08 410.959V366.792C981.583 365.917 967.333 350.125 968.25 331.625C969.125 314.417 982.875 300.667 1000.08 299.792V255.625C981.583 254.5 967.542 238.625 968.625 220.084C969.667 203.209 983.208 189.709 1000.08 188.667V144.5C981.583 143.584 967.333 127.834 968.208 109.334C969.083 92.1253 982.833 78.3753 1000.08 77.5003ZM830.583 487.417L563.75 746.834C587.917 750.584 611.25 756.209 636.333 756.209C697.375 756.209 767.5 737.667 814.958 718.042L790.625 832.459C720.792 866 678.083 868.75 636.333 868.75C590.708 868.75 547 853.875 502.375 853.875C477.25 853.875 440.958 855.75 418.667 870.542L370.292 785L645.583 512.459H328.792L268.333 796.125H136.25L273.958 146.959H711.042L683.125 278.042H379L352.958 399.917H852L830.583 487.417Z" fill="black"/>
</g>
<defs>
<clipPath id="clip0_15_12">
<rect width="1000" height="1000" fill="white"/>
</clipPath>
</defs>
</svg>
