<svg width="1000" height="1000" viewBox="0 0 1000 1000" fill="none" xmlns="http://www.w3.org/2000/svg">
<g clip-path="url(#clip0_10_131)">
<path d="M852.167 143.542C821.66 112.248 786.836 85.4767 748.75 64.0418C706 41.5418 629.083 3.87512 519.875 1.33345C489.292 0.625115 459.167 2.58345 429.292 7.33345C399.292 12.0834 371.042 19.5001 341.042 30.6668C298.667 46.3751 257.875 71.2918 233.792 95.4168C258.083 80.8751 295.292 64.8751 340.042 54.0834C390.949 42.114 443.643 39.7541 495.417 47.1251C592.958 61.2918 669.5 104.667 723.75 156.5C744.517 176.152 762.692 198.373 777.833 222.625C839 321.875 833.25 446.625 785.5 520.208C750.083 574.875 674.25 626.208 603.417 625.625C579.125 624.667 543.5 619.292 509.667 602.042C400.125 546.083 383.792 406.708 463.083 339.292C436.75 333.625 387.25 344.708 352.833 396.083C321.917 442.208 323.667 513.417 342.75 563.917C330.545 539.018 322.253 512.385 318.167 484.958C310.212 430.951 316.178 375.806 335.5 324.75C349.119 288.425 368.817 254.68 393.75 224.958C431.083 180.417 473.25 153.292 508.333 141.417C485.833 121.792 449.542 110.667 407.458 109.458C346.25 107.625 263.625 127.542 195.833 183.75C162.167 211.662 134.21 245.816 113.5 284.333C94.5417 319.167 84.7084 353.458 84.4584 354.25C89.5417 294.042 113.792 229.5 136.458 185.292C103.542 202.5 60.3334 254.792 36.0417 312.042C3.95836 390.417 -8.33331 483.667 5.83336 582.875C46.0834 819.042 251.667 998.792 499.292 998.792C775.833 998.792 1000 774.625 1000 498.167C1000.12 432.204 987.111 366.878 961.73 305.994C936.349 245.11 899.105 189.887 852.167 143.542Z" fill="black"/>
</g>
<defs>
<clipPath id="clip0_10_131">
<rect width="1000" height="1000" fill="white"/>
</clipPath>
</defs>
</svg>
