<svg width="1000" height="1000" viewBox="0 0 1000 1000" fill="none" xmlns="http://www.w3.org/2000/svg">
<path d="M162.083 653.042L260.625 19.2082C261.338 14.5098 263.516 10.1562 266.847 6.76705C270.178 3.37793 274.494 1.12609 279.179 0.332102C283.865 -0.461887 288.681 0.242441 292.943 2.34482C297.205 4.4472 300.695 7.84047 302.917 12.0416L408.875 210.833L162.083 653.042ZM861.875 806.833L768.042 223.542C767.352 219.453 765.552 215.633 762.838 212.498C760.124 209.363 756.601 207.034 752.654 205.766C748.706 204.497 744.486 204.338 740.454 205.305C736.423 206.272 732.734 208.329 729.792 211.25L138.125 806.833L465.5 991.333C475.596 997.006 486.982 999.985 498.562 999.985C510.143 999.985 521.529 997.006 531.625 991.333L861.875 806.833ZM595.833 297.833L520 152.75C518.087 149.101 515.212 146.046 511.686 143.914C508.161 141.782 504.12 140.655 500 140.655C495.88 140.655 491.839 141.782 488.314 143.914C484.788 146.046 481.913 149.101 480 152.75L147.083 749.333L595.833 297.833Z" fill="black"/>
</svg>
