<svg width="1000" height="1000" viewBox="0 0 1000 1000" fill="none" xmlns="http://www.w3.org/2000/svg">
<path d="M500 343.167C244.667 343.167 37.7083 413.75 37.7083 500.083C37.7083 586.417 244.667 656.958 500 656.958C755.292 656.958 962.25 586.417 962.25 500.083C962.25 413.708 755.292 343.167 500 343.167ZM262.583 603.167C235.25 603.375 211.208 586.5 208.417 557.292C206.83 542.072 211.223 526.832 220.667 514.792C228.792 504.208 242.542 495.417 254.167 493.25C257.917 492.542 263.042 493 265.167 495.5C268.458 499.375 267.5 503.583 264.208 505.25C255.333 509.792 244.625 517.542 239.333 528.167C236.909 532.672 235.761 537.754 236.01 542.864C236.26 547.974 237.899 552.919 240.75 557.167C251.708 573.708 282.292 574.167 310.708 547.792C317.75 541.292 324.042 535.125 330.417 527.792C342.917 513.458 347.083 508.208 363.75 485.125C363.958 484.875 364 484.542 363.917 484.375C363.792 484.083 363.542 483.958 363.083 483.958C351.958 484.25 342.25 487.583 332.875 494.583C330.167 496.583 326.25 496.292 324.542 493.708C322.625 490.792 324 486.917 327.125 484.75C342.25 474.208 358.792 472.333 375.708 469.458C375.708 469.458 376.875 469.542 377.833 468.208C384.792 459.333 390 451.333 397.417 442.333C404.833 433.167 414.5 424.833 421.833 418.5C432.083 409.667 438.667 406.708 445.333 403.083C447.125 402.167 445.125 401.042 444.583 401.042C407.25 394.042 368.458 384.958 331.375 398.708C305.708 408.292 294.417 428.625 299.833 442.25C303.708 451.875 316.375 453.5 328.292 447.667C338.655 442.527 347.447 434.699 353.75 425C357.375 419.417 365 423.417 360.875 433.125C350.042 458.583 329.333 478.833 304.083 479.708C282.583 480.375 268.708 464.583 268.75 445.083C268.833 406.583 311.667 381.25 356.667 377.5C410.875 373 462.208 387.458 516.042 393.958C557.25 398.958 596.792 399.083 638.208 389.542C643.125 388.5 646.542 391.625 646.25 396.542C645.833 403.708 640.292 410.583 626.667 418.042C611.125 426.542 594.875 429.125 577.917 429.292C536.917 429.625 498.708 413.625 459.167 405.042C459.25 406.75 459.667 408.833 458.208 409.917C436.333 426.083 416.542 442.5 403.292 465.5C402.833 466.042 403.083 466.542 403.833 466.5C415.375 465.875 425.708 465.583 436.458 464.75C438.333 464.583 438.417 464.125 438.25 462.75C437.661 458.49 438.112 454.151 439.563 450.102C441.014 446.054 443.422 442.416 446.583 439.5C453.75 433.125 462.708 432.417 468.667 437C475.333 442.25 474.792 451.708 471.083 458.792C469.432 461.902 467.172 464.649 464.438 466.868C461.703 469.087 458.55 470.733 455.167 471.708C455.167 471.708 453.917 471.958 454.083 473.125C454.333 474.917 462.417 479.417 463.125 480.625C463.833 481.75 463.458 483.542 462.25 484.875C461.77 485.461 461.166 485.932 460.481 486.257C459.797 486.581 459.049 486.749 458.292 486.75C456.917 486.75 456.083 486.25 454.292 485.292C450.003 483.017 446.185 479.949 443.042 476.25C442.042 474.958 441.5 474.917 438.917 475.042C427.292 475.75 409.167 477.5 396.875 479.042C393.917 479.375 393.458 479.958 392.875 481C373.292 513.292 352.375 548.083 329.417 571.417C304.75 596.417 284.292 603 262.583 603.167ZM793.75 446.25C789.958 452.833 716.708 564.333 712.083 575.833C710.625 579.5 710.417 582.292 711.917 584.333C715.75 589.5 724.292 586.458 729.625 582.75C745.5 571.833 756.5 558.583 768.667 547C769.375 546.458 770.583 546.25 771.375 547C773.167 548.667 775.792 550.792 777.625 552.708C777.788 552.858 777.92 553.038 778.012 553.239C778.105 553.44 778.157 553.657 778.164 553.878C778.172 554.099 778.136 554.32 778.057 554.527C777.979 554.734 777.861 554.923 777.708 555.083C766.577 569.074 753.946 581.803 740.042 593.042C720.458 608.208 700.917 612.083 691.208 602.375C687.785 598.803 685.721 594.144 685.375 589.208C685.292 586.833 684.083 586.708 682.958 587.792C671.375 599.25 651.292 611.917 633.042 602.875C617.792 595.375 614.25 577.125 617.083 561.792C617.125 561.458 616.833 559.292 614.958 560.542C611.111 563.339 606.907 565.609 602.458 567.292C597.675 569.476 592.466 570.572 587.208 570.5C583.427 570.543 579.701 569.592 576.403 567.742C573.105 565.892 570.351 563.208 568.417 559.958C565.958 555.526 564.6 550.567 564.458 545.5C564.417 545.042 563.75 544.167 563.083 545.292C550.583 564.333 538.958 582.75 526.625 602.083C525.958 603 525.375 603.583 524.125 603.625L499.667 603.667C498.167 603.667 497.458 602.5 498.25 601.042C502.583 592.708 526.333 558.125 542.417 528.708C546.875 520.625 545.958 516.458 543.208 514.667C539.75 512.417 532.875 515.792 527.083 520.208C511.292 532.167 498.042 550.833 491.292 559.167C487.333 564.042 483.583 571.292 473.25 582.5C456.958 600.208 435.333 610.375 414.583 603.333C409.102 601.476 404.161 598.301 400.194 594.087C396.227 589.874 393.356 584.75 391.833 579.167C391.208 577 390 576.417 388.792 577.833C385.458 582 378.583 588.208 372.833 592.083C372.208 592.542 370.667 593.458 369.333 592.792C366.825 590.355 364.691 587.561 363 584.5C362.749 583.944 362.678 583.324 362.798 582.726C362.917 582.128 363.221 581.583 363.667 581.167C371.875 573.958 376.375 569.875 379.958 565.333C382.625 562 384.667 558.25 387.042 552.208C392.042 539.625 403.417 516.125 426.125 503.958C434.514 499.208 443.736 496.111 453.292 494.833C457.458 494.417 460.917 494.917 462.167 498.167C462.625 499.542 463.792 502.542 464.5 504.75C464.958 506.083 464.625 507.125 463.042 507.708C449.708 512.792 436.25 520.667 427 533.125C416.458 547.208 413.625 564.208 420.667 573.958C425.792 581.042 434.083 582.292 442.083 579.75C454.167 575.917 464.5 564.625 469.833 552.125C475.583 538.417 476.5 522.25 472.25 508C471.583 505.542 472.208 503.667 473.792 502.333C477 499.708 481.458 497.667 482.75 497C484.022 496.319 485.501 496.134 486.902 496.481C488.302 496.827 489.525 497.68 490.333 498.875C494.75 505.417 497.125 514.625 497.417 524.167C497.667 526.208 498.5 526.25 499.5 525.208C507.417 516.792 514.75 507.792 523.167 501.042C530.875 494.917 540.75 489.917 549.958 490.125C561.875 490.375 567.792 498.458 567.417 512.875C567.375 514.708 568.667 514.542 569.542 513.333C572.303 509.185 575.674 505.477 579.542 502.333C587.792 495.542 596.208 492.5 605 493.083C615.833 493.917 624.5 503.792 622.708 515.042C622.276 518.6 620.984 521.999 618.944 524.947C616.905 527.894 614.178 530.301 611 531.958C608.328 533.382 605.29 533.968 602.28 533.641C599.271 533.314 596.429 532.089 594.125 530.125C592.339 528.436 591.03 526.308 590.327 523.953C589.625 521.597 589.556 519.099 590.125 516.708C590.333 515.667 589 514.708 587.875 515.875C577.292 526.875 576.5 541.125 583.417 547.542C591.042 554.625 602.5 549.875 610.833 544.417C626.083 534.458 637.917 520.958 651.625 510.542C660.708 503.625 671.083 497.458 682.708 495.917C689.094 494.94 695.625 495.688 701.625 498.083C709.958 501.458 715.208 508.5 715.875 514.583C716.042 516.375 717.375 516.583 718.5 515C725.083 504.75 760.375 451.792 763.292 446.25C764.125 444.542 765.125 444.292 767 444.292H792.25C793.708 444.292 794.375 445.125 793.75 446.25ZM697.083 538.083C696.825 538.601 696.78 539.2 696.958 539.75C697.083 540.583 698.208 541.417 699.292 541.833C699.708 541.958 699.917 542.25 699.458 543.167C696.333 549.833 693.5 553.667 689.583 559.458C686.122 564.576 681.908 569.141 677.083 573C669.667 579.125 659.417 585.792 650.917 581.333C647.167 579.375 645.5 574.083 645.625 569.833C645.792 557.833 651.125 545.5 661 533.375C673 518.583 686.292 510.917 695 515.125C704 519.417 701.167 529.875 697.083 538.042V538.083ZM449.208 459.708C448.895 457.046 449.232 454.348 450.19 451.844C451.148 449.341 452.698 447.106 454.708 445.333C457.083 443.25 460.25 442.75 462.208 444.417C464.375 446.292 463.333 450.958 461.125 454.167C458.727 457.779 455.1 460.4 450.917 461.542C450.167 461.708 449.5 461.375 449.208 459.708ZM500 312.5C222.5 312.5 0 395.708 0 500C0 603.667 224.292 687.5 500 687.5C775.708 687.5 1000 603.333 1000 500C1000 396.667 775.708 312.5 500 312.5ZM500 671.167C235.375 671.167 20.8333 594.583 20.8333 500.083C20.8333 405.542 235.417 328.958 500 328.958C764.583 328.958 979.083 405.542 979.083 500.083C979.083 594.583 764.583 671.167 500 671.167Z" fill="black"/>
</svg>
