<svg width="1000" height="1000" viewBox="0 0 1000 1000" fill="none" xmlns="http://www.w3.org/2000/svg">
<path d="M500 0C224.298 0 0 224.298 0 500C0 775.702 224.298 1000 500 1000C775.702 1000 1000 775.702 1000 500C1000 224.298 775.702 0 500 0ZM676.149 336.875C676.149 341.912 672.067 345.994 667.03 345.994H465.188V433.173H616.41C621.447 433.173 625.529 437.255 625.529 442.292V512.201C625.529 517.237 621.447 521.319 616.41 521.319H465.188V591.228H509.261C514.298 591.228 518.38 595.31 518.38 600.346V655.058C518.38 660.094 514.298 664.176 509.261 664.176H465.188V717.836C465.188 722.872 461.106 726.954 456.07 726.954H386.161C381.125 726.954 377.043 722.872 377.043 717.836V664.176H332.97C327.933 664.176 323.851 660.094 323.851 655.058V600.346C323.851 595.31 327.933 591.228 332.97 591.228H377.043V266.967C377.043 261.93 381.125 257.848 386.161 257.848H667.03C672.067 257.848 676.149 261.93 676.149 266.967V336.875Z" fill="black"/>
</svg>
