<svg width="1000" height="1000" viewBox="0 0 1000 1000" fill="none" xmlns="http://www.w3.org/2000/svg">
<path d="M391.802 241.873C433.832 227.864 470.363 219.34 503.434 215.845C535.841 212.413 560.212 210.82 580.126 210.82C601.431 210.82 617.178 212.632 635.235 215.571L640.346 183.14C640.346 183.14 590.488 167.816 525.014 173.17L519.875 155.519C540.202 151.213 555.458 133.174 555.458 111.563C555.458 86.7443 535.336 66.624 510.52 66.624C485.699 66.624 465.579 86.7463 465.579 111.563C465.579 133.168 480.83 151.209 501.152 155.517L506.872 175.155C437.362 184.758 382.007 211.917 382.007 211.917L391.802 241.873Z" fill="#010001"/>
<path d="M194.574 374.638C196.198 372.567 197.796 370.589 199.379 368.667L186.124 359.02L165.342 343.822C164.118 345.495 131.501 375.49 105.731 431.009C104.611 429.255 103.343 427.553 101.884 425.946C94.1588 417.424 83.3388 413.191 69.6488 413.424C69.4446 413.426 69.2444 413.428 69.0462 413.428C60.4875 413.428 54.6924 410.532 50.8359 407.127C54.6373 402.287 56.9251 396.2 56.9251 389.568C56.9251 373.851 44.1809 361.105 28.4625 361.105C12.7422 361.105 0 373.849 0 389.568C0 405.288 12.7422 418.03 28.4625 418.03C30.9015 418.03 33.2546 417.691 35.5138 417.115C42.5243 424.904 53.6588 431.69 69.9287 431.395C78.2832 431.261 84.3622 433.414 88.5169 437.965C93.2416 443.139 94.8227 450.558 95.2945 456.153C95.268 456.224 95.2414 456.292 95.2128 456.365C76.6307 506.997 81.9784 569.968 81.9784 569.968L126.925 571.759C127.838 548.816 131.139 508.719 142.738 476.822C165.148 415.224 193.153 376.57 194.333 374.955L194.574 374.638Z" fill="#010001"/>
<path d="M971.535 248.447C955.817 248.447 943.073 261.187 943.073 276.91C943.073 279.353 943.414 281.712 943.994 283.973C936.222 290.988 929.454 302.12 929.708 318.372C929.838 326.724 927.692 332.805 923.141 336.962C919.578 340.216 914.949 341.975 910.586 342.912C877.058 296.103 835.829 267.413 835.829 267.413L803.547 302.039C827.963 324.281 852.852 352.053 877.119 386.744C893.849 410.66 911.06 441.622 925.443 472.409L969.029 451.778C969.029 451.778 949.134 402.597 921.096 358.533C925.98 356.796 930.89 354.2 935.162 350.327C943.684 342.604 947.898 331.757 947.683 318.092C947.544 309.2 950.498 303.225 953.981 299.281C958.82 303.082 964.905 305.372 971.537 305.372C987.256 305.372 1000 292.628 1000 276.91C999.996 261.187 987.254 248.447 971.535 248.447Z" fill="#010001"/>
<path d="M858.453 639.994C798.501 669.182 699.783 707.766 569.943 725.842C518.966 732.94 469.513 735.593 424.084 735.593C364.943 735.593 312.875 731.097 272.766 726.054C226.989 720.296 189.968 713.22 169.541 708.311V708.309C169.541 708.301 169.198 708.291 169.155 708.283C174.499 725.221 180.825 741.635 188.303 757.329C188.348 757.425 188.324 757.525 188.371 757.621C188.555 758.007 188.712 758.393 188.9 758.78C189.817 760.694 190.736 762.597 191.688 764.497C192.593 766.295 193.508 768.084 194.441 769.865C194.685 770.329 194.919 770.797 195.165 771.26C208.056 795.558 223.486 817.823 241.137 837.144C302.36 904.191 364.771 914.725 365.398 914.825L366.367 914.976L367.298 915.285C367.835 915.46 423.181 933.375 507.356 933.377C590.12 933.377 671.325 916.69 748.721 883.776C806.034 854.458 860.32 809.881 887.104 770.125C907.914 739.423 922.963 706.593 931.85 672.52C936.585 654.375 940.276 625.469 938.128 594.921C921.206 606.172 894.551 622.417 858.453 639.994Z" fill="#010001"/>
<path d="M564.987 690.39C689.504 673.056 784.076 636.172 841.483 608.347C889.202 585.218 919.844 564.268 931.718 555.632C919.925 511.896 887.365 443.23 857.477 400.505C772.212 278.609 680.243 247.303 633.012 239.502C614.978 236.52 600.544 234.792 580.124 234.792C561.072 234.792 537.503 236.344 505.95 239.68C474.32 243.028 439.082 251.305 398.22 264.993C340.854 284.208 288.964 314.354 248.155 352.166L246.793 353.434C240.716 359.058 228.092 370.746 213.583 389.238C211.796 391.732 186.091 428.576 165.56 485.017C150.159 527.361 151.157 589.091 151.157 589.707V589.881C151.157 604.28 151.68 618.668 153.272 632.938C153.298 633.165 152.92 633.394 152.949 633.621C153.151 635.4 153.2 637.173 153.2 638.946C153.2 638.948 153.2 638.95 153.2 638.952C155.243 649.008 156.385 659.154 158.415 669.034C158.44 669.041 158.597 669.212 158.621 669.212H158.685C188.452 677.381 366.269 718.052 564.987 690.39ZM735.579 360.888C776.528 360.888 809.73 394.087 809.73 435.041C809.73 475.994 776.53 509.19 735.579 509.19C694.627 509.19 661.426 475.992 661.426 435.041C661.426 394.089 694.627 360.888 735.579 360.888ZM384.967 357.895C451.154 357.895 504.81 411.552 504.81 477.735C504.81 543.923 451.154 597.576 384.967 597.576C318.783 597.576 265.126 543.923 265.126 477.735C265.126 411.55 318.783 357.895 384.967 357.895ZM153.784 639.463C155.057 649.123 156.683 658.878 158.707 668.679C156.679 658.878 155.055 649.123 153.784 639.463Z" fill="#010001"/>
</svg>
