<svg width="1000" height="1000" viewBox="0 0 1000 1000" fill="none" xmlns="http://www.w3.org/2000/svg">
<path d="M208.333 125C162.312 125 125 162.312 125 208.333V791.667C125 837.688 162.312 875 208.333 875H791.667C837.688 875 875 837.688 875 791.667V208.333C875 162.312 837.688 125 791.667 125H208.333ZM479.574 229.98H490.885C527.99 231.23 565.081 253.232 580.811 287.191C580.186 272.107 580.2 256.396 580.2 241.292C612.284 241.292 644.349 240.667 676.432 241.292V617.391H676.392C677.017 660.162 656.883 702.888 622.925 729.492C566.946 773.513 487.103 781.057 421.061 757.161C363.082 736.411 319.832 677.743 323.853 614.868H412.231C416.002 634.368 420.43 656.993 438.68 669.556C479.555 699.743 547.465 687.172 572.632 641.276C583.319 615.484 575.151 586.571 577.026 559.53C561.943 594.738 519.772 604.154 485.189 607.3C443.689 606.05 400.322 592.235 371.134 561.401C342.905 535.61 332.96 501.638 328.044 459.513C323.127 417.388 321.885 362.65 343.343 319.255C366.364 266.421 422.344 230.605 479.574 229.98ZM503.459 314.25C475.167 314.875 448.767 328.102 436.808 355.143C422.35 386.581 421.722 423.047 427.368 456.38C434.285 492.234 463.209 531.222 503.459 528.076C534.896 531.222 560.049 506.051 572.632 479.655C587.09 440.03 584.603 395.364 569.499 356.364C558.79 329.968 531.125 314.25 503.459 314.25Z" fill="black"/>
</svg>
