<svg width="1000" height="200" viewBox="0 0 1000 200" fill="none" xmlns="http://www.w3.org/2000/svg">
<g clip-path="url(#clip0_9_491)">
<path d="M499.981 199.992C500.952 199.953 501.903 199.711 502.775 199.284C558.972 171.265 585.22 145.567 618.198 92.3226C630.515 71.9378 637.481 61.5486 667.428 57.141C714.337 50.4116 926.135 35.615 967.928 29.8301C985.794 27.2722 990.674 24.5174 999.057 15.7023C1000.43 14.3249 1000.43 13.1443 997.876 13.3805C992.524 13.8527 781.198 22.8645 654.403 27.5082C623.274 29.1217 613.987 28.4528 587.975 19.8738C549.409 8.0679 514.581 -0.0389404 499.942 -0.0389404C485.303 -0.0389404 450.475 8.0679 411.909 19.8738C385.897 28.4528 376.491 29.1217 345.481 27.5082C218.686 22.8645 7.35994 13.8527 2.00793 13.3805C-0.550019 13.1443 -0.549971 14.3249 0.827385 15.7023C9.20958 24.5174 14.05 27.2722 31.9557 29.8301C73.7486 35.615 285.547 50.4116 332.455 57.141C362.403 61.5486 369.369 71.9771 381.686 92.3226C414.664 145.567 440.716 171.265 497.108 199.284C497.981 199.71 498.932 199.951 499.903 199.992H499.981ZM432.097 176.381C434.655 176.853 434.655 175.672 433.278 174.531C400.3 148.361 389.163 129.157 363.859 89.8041C356.185 77.7621 346.898 72.2133 326.474 69.6554C315.337 68.278 76.3458 46.0436 29.437 41.8721C26.8791 41.636 26.8791 42.5805 28.2565 43.9578C36.1747 51.8644 44.6294 59.2146 53.5604 65.9562C78.1954 84.6882 96.5339 89.3318 126.482 90.473C151.786 91.4175 306.246 98.8159 324.349 100.193C337.375 101.138 341.31 103.184 344.773 107.356C346.386 109.205 346.623 110.819 344.301 110.819C328.953 110.819 234.112 109.874 155.721 108.024C155.013 108.024 154.776 108.497 155.485 108.733C211.445 127.229 256.268 138.838 301.799 138.602C324.782 138.366 347.528 138.13 356.618 138.13C366.378 138.13 370.313 139.035 374.052 143.678C375.429 145.528 375.232 146.669 371.966 146.905C358.271 148.047 338.752 149.463 315.77 150.841C313.684 151.077 313.684 151.549 315.534 151.982C367.794 164.496 395.42 170.281 432.097 176.302V176.381ZM499.981 185.432C499.152 185.447 498.339 185.199 497.659 184.724C451.892 157.413 405.219 115.266 395.696 66.1923C392.429 47.6964 399.434 44.194 411.043 40.0225C431.94 32.3881 480.029 17.5519 499.981 17.5519C519.933 17.5519 568.023 32.3881 588.919 40.0225C600.725 44.194 607.494 47.657 604.227 66.1923C594.704 115.266 548.031 157.373 502.264 184.724C501.584 185.199 500.771 185.447 499.942 185.432H499.981ZM567.747 176.42C604.424 170.399 632.09 164.614 684.311 152.1C686.161 151.628 686.161 151.156 684.075 150.959C661.093 149.581 641.573 148.165 627.879 147.023C624.612 146.787 624.376 145.646 625.793 143.796C629.492 139.153 633.467 138.248 643.226 138.248C652.278 138.248 675.024 138.484 698.045 138.72C743.577 138.956 788.557 127.386 844.36 108.851C845.068 108.615 844.832 108.143 844.124 108.143C765.85 109.992 670.97 110.937 655.544 110.937C653.222 110.937 653.458 109.323 655.071 107.474C658.535 103.302 662.509 101.217 675.496 100.311C693.598 98.9341 848.059 91.5356 873.363 90.5911C903.311 89.4499 921.649 84.8063 946.284 66.0742C955.214 59.3309 963.668 51.9808 971.588 44.0759C972.966 42.6985 972.965 41.7541 970.407 41.9902C923.499 46.1616 684.508 68.3567 673.371 69.7734C652.947 72.3314 643.659 77.8801 635.985 89.9222C610.681 129.275 599.544 148.479 566.527 174.649C565.15 175.79 565.15 176.971 567.708 176.499" fill="black"/>
<path d="M432.175 73.7476L434.733 74.8102C435.069 74.902 435.361 75.1113 435.556 75.4001C435.751 75.689 435.836 76.0382 435.796 76.3843V82.2479C434.491 82.9502 433.027 83.3028 431.545 83.2711C430.303 83.1972 429.089 82.8745 427.974 82.3221C426.859 81.7697 425.867 80.9989 425.056 80.0555C424.244 79.1122 423.631 78.0155 423.252 76.8305C422.873 75.6455 422.736 74.3964 422.848 73.1573C422.848 67.097 426.154 62.6502 431.86 62.6502C434.753 62.695 437.538 63.7533 439.731 65.6409L440.911 61.3514C438.061 60.0161 434.967 59.2795 431.821 59.1871C429.882 58.9545 427.916 59.149 426.06 59.7572C424.205 60.3653 422.505 61.3724 421.079 62.7074C419.654 64.0425 418.539 65.6733 417.811 67.4853C417.083 69.2974 416.761 71.2469 416.867 73.1967C416.783 75.0427 417.093 76.8853 417.775 78.6024C418.458 80.3194 419.499 81.8716 420.827 83.1557C422.156 84.4398 423.743 85.4265 425.482 86.0502C427.222 86.674 429.074 86.9206 430.916 86.7736C434.436 86.9398 437.927 86.0636 440.951 84.2549V72.449H432.608L432.175 73.7476ZM490.339 77.6829L476.172 59.7773H470.584L469.915 61.3514L471.095 61.9024C471.437 62.0241 471.727 62.2573 471.92 62.5643C472.113 62.8713 472.197 63.2342 472.158 63.5946V86.1045H476.369V69.0253L489.906 86.1045H494.55V59.738H490.378L490.339 77.6829ZM520.05 63.1618L519.145 59.8167H500.374L499.744 61.3908L500.925 61.9417C501.266 62.0801 501.55 62.3313 501.729 62.6535C501.908 62.9757 501.972 63.3495 501.909 63.7126V86.1439H520.05V82.7201H507.851V74.1412H518.516V70.8749H507.851V63.0043L520.05 63.1618ZM547.597 61.3908L548.778 61.9417C549.127 62.0732 549.42 62.3215 549.606 62.6444C549.793 62.9672 549.862 63.3447 549.801 63.7126V86.1439H555.626V59.7773H548.267L547.597 61.3908ZM536.697 70.7961C533.431 69.104 530.007 68.1595 530.007 65.1687C530.007 63.7126 531.424 62.4927 534.178 62.4927C536.911 62.6216 539.588 63.3044 542.049 64.4998L542.797 60.5645C540.175 59.6635 537.423 59.1982 534.65 59.1871C527.842 59.1871 524.301 62.2172 524.301 66.3886C524.301 70.56 527.016 72.6458 531.069 74.5347C535.123 76.4237 537.602 77.2501 537.602 79.8474C537.602 81.8151 536.067 83.0744 533.076 83.0744C530.256 82.9441 527.488 82.2622 524.93 81.0673L524.497 85.6323C527.379 86.2829 530.319 86.6388 533.273 86.6948C538.743 86.6948 543.623 84.0582 543.623 79.2571C543.623 74.4561 540.16 72.6064 536.736 70.7961H536.697ZM465.901 63.1618L464.996 59.8167H446.224L445.634 61.3908L446.814 61.9417C447.156 62.0801 447.44 62.3313 447.619 62.6535C447.798 62.9757 447.861 63.3495 447.798 63.7126V86.1439H465.94V82.7201H453.623V74.1412H464.287V70.8749H453.623V63.0043L465.901 63.1618ZM574.358 70.7961C571.091 69.104 567.668 68.1595 567.668 65.1687C567.668 63.7126 569.084 62.4927 571.839 62.4927C574.572 62.6216 577.249 63.3044 579.71 64.4998L580.457 60.5645C577.835 59.6649 575.084 59.1997 572.311 59.1871C565.503 59.1871 561.765 62.2172 561.765 66.3886C561.765 70.56 564.716 72.6458 568.769 74.5347C572.823 76.4237 575.302 77.2501 575.302 79.8474C575.302 81.8151 573.767 83.0744 570.776 83.0744C567.956 82.9441 565.189 82.2622 562.63 81.0673L562.198 85.6323C565.079 86.2834 568.019 86.6394 570.973 86.6948C576.443 86.6948 581.323 84.0582 581.323 79.2571C581.323 74.4561 577.86 72.6064 574.436 70.7961" fill="black"/>
</g>
<defs>
<clipPath id="clip0_9_491">
<rect width="1000" height="199.992" fill="white"/>
</clipPath>
</defs>
</svg>
