<svg width="1000" height="1000" viewBox="0 0 1000 1000" fill="none" xmlns="http://www.w3.org/2000/svg">
<path d="M306.543 179.219C234.863 179.219 176.543 237.539 176.543 309.219V699.219C176.543 770.899 234.863 829.219 306.543 829.219H696.543C768.223 829.219 826.543 770.899 826.543 699.219V309.219C826.543 237.539 768.223 179.219 696.543 179.219H306.543ZM306.543 199.219H330.957V249.473C330.957 296.523 292.685 334.785 245.645 334.785H196.543V309.219C196.543 248.569 245.893 199.219 306.543 199.219ZM340.957 199.219H556.211L308.965 446.465C307.015 448.415 307.015 451.585 308.965 453.535L556.445 701.016C557.385 701.956 558.65 702.48 559.98 702.48C561.31 702.48 562.595 701.946 563.535 701.016L806.543 458.008V699.219C806.543 759.869 757.193 809.219 696.543 809.219H306.543C256.583 809.219 214.376 775.7 201.016 730H632.773C635.533 730 637.773 727.76 637.773 725C637.773 722.24 635.533 720 632.773 720H368.145L282.109 539.492C280.449 535.992 274.746 535.992 273.086 539.492L196.582 699.98C196.582 699.72 196.543 699.469 196.543 699.199V344.785H245.645C298.205 344.785 340.957 302.033 340.957 249.473V199.219ZM563.77 199.219H696.543C757.193 199.219 806.543 248.569 806.543 309.219V441.992L563.77 199.219ZM559.98 209.57L800.41 450L559.98 690.43L319.57 450L559.98 209.57ZM235 240C232.24 240 230 242.24 230 245V295C230 297.76 232.24 300 235 300H255C257.76 300 260 297.76 260 295V286.211L272.324 298.535C273.264 299.475 274.529 300 275.859 300H294.141C298.591 300 300.826 294.615 297.676 291.465L285.391 279.18C293.801 276.82 300 269.17 300 260C300 248.95 291.05 240 280 240H235ZM275 252.5C280.52 252.5 285 255.86 285 260C285 264.14 280.52 267.5 275 267.5C269.48 267.5 265 264.14 265 260C265 255.86 269.48 252.5 275 252.5ZM552.93 303.633C551.631 303.633 550.33 304.099 549.395 305.039L506.973 347.461C506.033 348.401 505.508 349.686 505.508 351.016C505.508 352.346 506.043 353.611 506.973 354.551L549.395 396.973C550.335 397.913 551.6 398.438 552.93 398.438C554.26 398.438 555.525 397.903 556.465 396.973L598.887 354.531C600.837 352.581 600.837 349.411 598.887 347.461L556.465 305.039C555.525 304.099 554.228 303.633 552.93 303.633ZM552.93 315.645L588.281 351.016L552.93 386.367L517.578 351.016L552.93 315.645ZM644.863 367.227C643.583 367.227 642.303 367.697 641.328 368.672L478.672 531.328C477.732 532.268 477.207 533.524 477.207 534.844C477.207 536.174 477.742 537.458 478.672 538.398L521.094 580.801C522.074 581.781 523.368 582.266 524.648 582.266C525.928 582.266 527.204 581.771 528.184 580.801L690.82 418.184C691.76 417.244 692.285 415.978 692.285 414.648C692.285 413.318 691.75 412.034 690.82 411.094L648.398 368.672C647.423 367.697 646.143 367.227 644.863 367.227ZM644.844 379.297L680.195 414.648L524.648 570.215L489.277 534.863L644.844 379.297ZM460.996 395.488C459.716 395.488 458.436 395.978 457.461 396.953L415.059 439.375C413.099 441.335 413.089 444.515 415.039 446.465L457.461 488.887C458.401 489.827 459.666 490.352 460.996 490.352C462.326 490.352 463.591 489.817 464.531 488.887L506.973 446.465C507.913 445.525 508.438 444.26 508.438 442.93C508.438 441.6 507.903 440.315 506.973 439.375L464.531 396.953C463.556 395.978 462.276 395.488 460.996 395.488ZM460.996 407.578L496.367 442.93L460.996 478.281L425.645 442.93L460.996 407.578ZM277.598 553.262L357.07 720H198.574C198.524 719.76 198.507 719.517 198.457 719.277L277.598 553.262ZM668.086 720C665.326 720 663.086 722.24 663.086 725C663.086 727.76 665.326 730 668.086 730H690.742C693.502 730 695.742 727.76 695.742 725C695.742 722.24 693.512 720 690.742 720H668.086Z" fill="black"/>
</svg>
