<svg width="1000" height="1000" viewBox="0 0 1000 1000" fill="none" xmlns="http://www.w3.org/2000/svg">
<g clip-path="url(#clip0_15_46)">
<path d="M827 68.1667C822.583 67.5 817.5 72.625 813.5 84.7084C806.958 104.292 768.792 218.167 584.167 264.958C609 286.292 624.833 316.708 624.833 350.75C624.833 415.208 568.833 467.417 499.833 467.417C430.875 467.417 374.958 415.167 374.917 350.75C374.917 325.625 383.583 302.5 398.042 283.417C267.417 270 210.958 153.292 210.958 153.292L206.958 326.75C205.917 350.25 206.583 373.042 195.708 394.917C195.023 393.91 194.329 392.91 193.625 391.917C178.3 370.591 159.015 352.798 138.005 340.601C116.995 328.404 95.1206 322.301 74.9167 323C59.0028 323.55 44.5826 328.304 32.7083 336.917C11.5364 352.237 -0.230408 378.819 -0.00380579 410.817C0.222797 442.815 12.4242 477.607 33.9167 507.542C51.7168 532.316 74.7877 552.226 99.5696 564.199C124.352 576.172 149.467 579.543 171.042 573.792C295.917 666.292 524.458 746.625 680.667 652.333L596.292 584.458C551.958 598.833 487.792 598.625 413.083 572.167C533.917 596.417 599.333 569.958 635.333 542.083C625.833 529.75 605.75 520.167 605.75 520.167C605.75 520.167 629.208 524.625 644.5 540.833C650.625 547.292 652.75 556.958 653.583 568.042C676.625 580.458 702.875 595.375 731.708 612.292C817.542 526.458 867.25 365.083 836.708 86.5834C835.25 75.375 831.417 68.875 827 68.1667ZM285.625 295.667C329.417 295.625 364.917 328.792 364.917 369.708C364.917 410.542 329.375 443.708 285.625 443.667C241.875 443.667 206.458 410.542 206.458 369.708C206.458 328.833 241.875 295.667 285.625 295.625V295.667ZM526.292 315.75C519.042 315.745 511.861 317.167 505.161 319.937C498.461 322.706 492.372 326.768 487.241 331.891C482.111 337.013 478.04 343.096 475.26 349.793C472.481 356.489 471.047 363.667 471.042 370.917C471.036 378.167 472.459 385.347 475.228 392.047C477.998 398.747 482.06 404.837 487.182 409.967C492.305 415.098 498.388 419.169 505.084 421.948C511.78 424.728 518.958 426.161 526.208 426.167C540.85 426.178 554.897 420.372 565.259 410.026C575.62 399.68 581.447 385.642 581.458 371C581.469 356.358 575.663 342.311 565.318 331.95C554.972 321.588 540.934 315.761 526.292 315.75ZM70.375 342.375C70.4028 342.375 70.4305 342.375 70.4583 342.375C70.75 342.372 71.0417 342.372 71.3333 342.375C76.6187 342.37 81.8533 343.389 86.7369 345.375C91.6205 347.361 96.0571 350.274 99.7924 353.947C103.528 357.621 106.488 361.982 108.505 366.782C110.521 371.581 111.553 376.725 111.542 381.917C111.542 387.102 110.501 392.236 108.48 397.026C106.459 401.816 103.497 406.168 99.7624 409.832C96.0282 413.497 91.5953 416.403 86.7172 418.383C81.8392 420.364 76.6116 421.38 71.3333 421.375C60.6949 421.353 50.4998 417.187 42.9851 409.789C35.4704 402.392 31.25 392.368 31.25 381.917C31.2135 371.598 35.293 361.676 42.6143 354.277C49.9356 346.878 59.916 342.59 70.4167 342.333L70.375 342.375ZM302 347.5C297.404 347.555 292.863 348.514 288.638 350.324C284.412 352.133 280.585 354.757 277.373 358.046C274.162 361.335 271.63 365.224 269.921 369.491C268.213 373.758 267.362 378.32 267.417 382.917C267.471 387.513 268.431 392.053 270.24 396.279C272.05 400.504 274.674 404.332 277.963 407.543C281.251 410.755 285.14 413.287 289.408 414.995C293.675 416.704 298.237 417.555 302.833 417.5C312.116 417.39 320.974 413.596 327.46 406.954C333.946 400.312 337.527 391.366 337.417 382.083C337.306 372.801 333.513 363.942 326.871 357.457C320.229 350.971 311.283 347.39 302 347.5ZM646.167 554.333C644.375 556.542 641.875 558.458 639.667 560.458L648.417 565.25C647.708 561.083 647.042 556.5 646.167 554.333ZM623.25 558.5L592.708 573.542L595.208 575.625L603.458 582.167L686.542 649.083L687.167 649.583C713.959 671.006 741.073 692.022 768.5 712.625C768.182 714.37 768.07 716.146 768.167 717.917L779 716.25L783.292 722.583L879.833 783.917C874.833 801 877.125 823.625 888.458 844.625C921.375 905.667 1000 931.875 1000 931.875C967.875 849.875 991.292 783.167 927.917 759.667C917.833 755.917 909.042 755.792 901.708 758.292L816.417 679.333L809.167 677.167L808.125 666.25C806.396 666.935 804.724 667.757 803.125 668.708C790.375 657.875 774.5 646.333 757.708 634.75C700.875 599.958 663.667 580.583 623.208 558.5H623.25Z" fill="black"/>
</g>
<defs>
<clipPath id="clip0_15_46">
<rect width="1000" height="1000" fill="white"/>
</clipPath>
</defs>
</svg>
