<svg width="1000" height="1000" viewBox="0 0 1000 1000" fill="none" xmlns="http://www.w3.org/2000/svg">
<path fill-rule="evenodd" clip-rule="evenodd" d="M900.941 462.88L537.103 99.0518C516.154 78.0934 482.173 78.0934 461.205 99.0518L385.661 174.614L481.493 270.455C503.766 262.928 529.304 267.979 547.061 285.727C564.909 303.593 569.915 329.349 562.197 351.704L654.574 444.071C676.929 436.363 702.703 441.342 720.55 459.226C745.49 484.156 745.49 524.577 720.55 549.525C695.593 574.483 655.181 574.483 630.214 549.525C611.46 530.753 606.816 503.183 616.33 480.075L530.175 393.929V620.626C536.251 623.637 541.992 627.645 547.061 632.697C572.001 657.636 572.001 698.048 547.061 723.024C522.121 747.954 481.683 747.954 456.752 723.024C431.813 698.048 431.813 657.636 456.752 632.697C462.919 626.539 470.057 621.877 477.674 618.758V389.966C470.057 386.855 462.937 382.23 456.752 376.036C437.862 357.154 433.318 329.422 443.013 306.223L348.533 211.734L99.0454 461.194C78.096 482.17 78.096 516.152 99.0454 537.11L462.901 900.939C483.85 921.888 517.823 921.888 538.799 900.939L900.941 538.797C921.909 517.838 921.909 483.839 900.941 462.88Z" fill="black"/>
</svg>
