<svg width="1000" height="1000" viewBox="0 0 1000 1000" fill="none" xmlns="http://www.w3.org/2000/svg">
<path d="M500 12.375C223.781 12.375 0 236.344 0 512.375C0 733.406 143.25 920.75 341.781 986.844C366.875 991.562 375.938 976.094 375.938 962.719C375.938 950.844 375.656 919.437 375.469 877.75C236.313 907.875 207 810.531 207 810.531C184.219 752.906 151.344 737.438 151.344 737.438C106.094 706.531 154.938 707.187 154.938 707.187C205.062 710.594 231.438 758.594 231.438 758.594C276.031 835.094 348.438 812.969 377.094 800.094C381.469 767.875 394.5 745.719 408.688 733.375C297.688 720.844 180.969 677.875 180.969 486.281C180.969 431.562 200.344 387 232.375 352C226.844 339.469 209.906 288.531 236.781 219.656C236.781 219.656 278.625 206.312 374.281 270.938C414.312 259.844 456.812 254.312 499.281 254.031C541.781 254.312 584.25 259.875 624.281 270.938C719.375 206.312 761.188 219.656 761.188 219.656C788.031 288.531 771.094 339.437 766.219 352C797.938 387 817.312 431.594 817.312 486.281C817.312 678.312 700.438 720.656 589.312 732.875C606.688 747.844 622.969 778.625 622.969 825.344C622.969 892.219 622.344 946.094 622.344 962.375C622.344 975.375 631.094 991 656.844 985.969C856.844 920.562 999.938 733.062 999.938 512.344C999.938 236.312 776.156 12.3438 499.938 12.3438L500 12.375Z" fill="black"/>
</svg>
