<svg width="1000" height="1000" viewBox="0 0 1000 1000" fill="none" xmlns="http://www.w3.org/2000/svg">
<path d="M964.98 550L915.801 397.5C915.541 396.097 915.142 394.723 914.609 393.398L815.976 86.875C813.391 78.9951 808.374 72.1375 801.647 67.2877C794.92 62.4378 786.828 59.8454 778.535 59.8828C770.263 59.8581 762.202 62.4903 755.539 67.3919C748.876 72.2935 743.963 79.2053 741.523 87.1094L647.5 379.199H350.625L256.523 87.0898C254.096 79.2129 249.21 72.3201 242.581 67.4208C235.953 62.5215 227.93 59.8731 219.687 59.8633H219.473C211.158 59.8916 203.065 62.5528 196.356 67.4652C189.647 72.3776 184.667 79.2887 182.129 87.207L83.3984 394.004C83.3984 394.277 83.1835 394.512 83.0859 394.785L33.0273 550.02C29.3407 561.39 29.3262 573.632 32.986 585.011C36.6458 596.39 43.7942 606.329 53.4179 613.418L485.918 930.625C489.715 933.403 494.303 934.889 499.007 934.864C503.711 934.839 508.283 933.306 512.051 930.488L944.629 613.418C954.254 606.326 961.401 596.382 965.054 584.998C968.708 573.614 968.682 561.369 964.98 550ZM318.496 424.004L439.062 798.535L149.668 424.004M559.121 798.613L674.726 439.551L679.707 423.926H848.691L586.855 762.578M778.906 115.84L863.613 379.18H694.043M633.125 423.828L549.141 684.727L499.023 840.117L365.117 423.828M219.277 115.84L304.16 379.18H134.766M79.453 577.305C77.409 575.797 75.8919 573.683 75.1171 571.264C74.3423 568.845 74.3492 566.243 75.1366 563.828L112.246 448.594L384.922 801.309M918.633 577.305L613.125 801.211L614.141 799.863L885.742 448.516L922.851 563.75C923.649 566.167 923.665 568.773 922.897 571.199C922.129 573.625 920.617 575.748 918.574 577.266" fill="black"/>
</svg>
