<svg width="1000" height="1000" viewBox="0 0 1000 1000" fill="none" xmlns="http://www.w3.org/2000/svg">
<path d="M240 468.06V467.8V207.78L237.6 206H237.4L182.8 165.6C149.4 140.8 101.8 142 72.2 171.2C52.4 190.8 40 218 40 248.2V320.24L240 468.06ZM760 467.8V468.06L960 320.24V248.2C960 218.4 948 191.2 928.4 171.6C899.2 142.46 853.1 139.04 819.92 163.54L762.4 206L760 207.78V467.8ZM280 497.36L488.12 651.2C495.18 656.42 504.84 656.42 511.9 651.2L720 497.36V237.34L500 400L280 237.34V497.36ZM760 517.78V820C760 831.04 768.96 840 780 840H910C937.62 840 960 817.62 960 790V369.94L760 517.78ZM240 517.78L40 369.94V790C40 817.62 62.38 840 90 840H220C231.04 840 240 831.04 240 820V517.78Z" fill="#1A1A1A"/>
</svg>
