<svg width="1000" height="1000" viewBox="0 0 1000 1000" fill="none" xmlns="http://www.w3.org/2000/svg">
<g clip-path="url(#clip0_8_91)">
<path d="M75.4583 446.458C73.5 446.458 73.0416 445.5 74 444L84.25 430.875C85.2083 429.417 87.625 428.458 89.5833 428.458H263.417C265.333 428.458 265.833 429.917 264.875 431.375L256.583 444C255.625 445.5 253.167 446.917 251.708 446.917L75.4583 446.458ZM1.9583 491.25C-3.2847e-05 491.25 -0.500033 490.292 0.499967 488.833L10.7083 475.667C11.6666 474.208 14.125 473.25 16.0833 473.25H238.083C240.042 473.25 241 474.708 240.5 476.167L236.625 487.833C236.125 489.792 234.208 490.75 232.25 490.75L1.9583 491.25ZM119.792 536.042C117.833 536.042 117.333 534.583 118.333 533.125L125.125 520.958C126.083 519.5 128.042 518.042 130 518.042H227.375C229.333 518.042 230.292 519.5 230.292 521.458L229.333 533.125C229.333 535.083 227.375 536.542 225.917 536.542L119.792 536.042ZM625.167 437.708C594.5 445.5 573.542 451.333 543.375 459.125C536.042 461.042 535.583 461.542 529.208 454.25C521.958 445.958 516.583 440.625 506.375 435.75C475.667 420.667 445.958 425.042 418.25 443.042C385.125 464.458 368.083 496.125 368.583 535.542C369.042 574.5 395.833 606.625 434.292 612C467.417 616.375 495.125 604.708 517.083 579.875C521.458 574.5 525.333 568.667 530.208 561.833H436.25C426.042 561.833 423.583 555.5 427 547.25C433.333 532.167 445 506.833 451.833 494.167C452.877 491.82 454.585 489.831 456.748 488.446C458.911 487.061 461.432 486.341 464 486.375H641.208C640.25 499.542 640.25 512.667 638.292 525.833C633.248 560.497 619.516 593.321 598.375 621.25C563.333 667.5 517.542 696.25 459.625 704C411.917 710.333 367.583 701.083 328.667 671.917C292.625 644.625 272.167 608.583 266.833 563.792C260.5 510.708 276.083 463 308.208 421.125C342.792 375.875 388.542 347.125 444.542 336.917C490.292 328.625 534.125 334 573.542 360.75C599.375 377.833 617.833 401.167 630.042 429.417C632.958 433.792 631 436.25 625.167 437.708ZM786.333 706.958C742 705.958 701.583 693.292 667.5 664.083C639.146 640.187 620.456 606.79 614.917 570.125C606.167 515.125 621.25 466.417 654.375 423.083C689.917 376.333 732.75 352 790.708 341.792C840.375 333.042 887.125 337.875 929.458 366.625C967.917 392.875 991.792 428.458 998.125 475.167C1006.38 540.917 987.417 594.458 942.125 640.25C910 672.875 870.542 693.292 825.25 702.542C812.125 705 799 705.458 786.333 706.958ZM902.167 510.25C901.708 503.917 901.708 499.042 900.75 494.167C892 445.958 847.667 418.708 801.417 429.417C756.125 439.625 726.917 468.375 716.208 514.125C707.458 552.125 725.958 590.583 761 606.167C787.792 617.833 814.542 616.375 840.375 603.25C878.833 583.25 899.75 552.125 902.208 510.25H902.167Z" fill="black"/>
</g>
<defs>
<clipPath id="clip0_8_91">
<rect width="1000" height="1000" fill="white"/>
</clipPath>
</defs>
</svg>
