<svg width="1000" height="1000" viewBox="0 0 1000 1000" fill="none" xmlns="http://www.w3.org/2000/svg">
<path d="M482.188 107.063C478.406 107.531 460.125 109.656 441.875 111.813C392.812 117.5 350.594 131.5 320 152.344C310.031 159.219 309.562 159.469 302.219 155.656C291.562 150.219 263.344 149.25 249.344 154C229.906 160.406 217.094 174.875 213.312 194.781C210.469 209.719 213.562 227.25 221.375 238.875C226.125 246 243.406 258.562 253.844 262.594C254.562 263.062 253.125 277.781 250.531 295.312C246.5 322.094 246.031 335.125 246.969 374.719C247.687 400.813 249.813 432.344 251.719 444.656C253.844 457 256.219 475.25 256.937 485.187L258.594 503.219L248.406 504.875C232.281 507.25 207.625 520.531 205.031 527.875C201.937 536.656 204.781 544.937 214.031 554.906C223.5 564.875 229.187 564.625 245.094 553.969L254.562 547.562V656.625C254.562 764.969 254.562 766.156 260.031 779.188C267.156 796.969 281.844 819.25 296.062 834.656L307.906 847L296.062 854.594C283.031 863.125 272.344 878.531 272.344 889.219C272.344 893.719 274.937 898.219 280.875 903.687C288 910.562 291.062 911.75 300.781 911.75C311.219 911.75 313.812 910.562 324.969 901.094C331.844 895.156 342.031 888.063 347.5 885.219L357.688 880L379.5 887.344C416.469 899.906 439 903.219 486.906 903C547.594 902.75 597.875 894 634.844 877.156C641.719 874.063 649.312 871.469 651.187 871.469C653.312 871.469 663.281 880.25 673.469 890.656C691.719 909.875 691.969 910.094 701.688 908.687C715.688 906.781 725.156 897.063 725.156 884.969C725.156 871.938 719.469 861.25 705.719 848.938L694.094 838.5L705.219 823.563C726.312 794.875 738.406 763.344 746.719 715.437C751.469 686.75 752.406 631.969 749.344 570.813C748.406 554.938 747.906 541.875 747.906 541.875C748.156 541.875 753.125 544.469 758.562 547.813C772.312 555.625 780.625 555.406 788.187 547.344C795.062 540 796.969 533.844 795.781 522.687C794.844 512.5 785.594 506.094 763.781 500.156C755 498.031 747.187 495.656 746.469 494.938C745.75 494.469 744.562 451.781 743.625 400.094C741.969 303.375 741.969 301.938 730.594 253.094C729.875 250 730.344 247.875 732.25 247.875C738.187 247.875 756.187 232.938 761.656 223.469C773.281 204.031 771.844 179.125 758.094 160.156C743.875 140.469 713.063 133.594 683.875 143.313L668.938 148.281L656.844 140.469C640 129.094 611.563 117.719 586.438 112.25C565.813 107.75 499.656 104.438 482.125 107.031L482.188 107.063ZM573.688 118.688C651.688 132.188 693.656 168.719 718.312 243.875C733 288.688 734.906 308.375 737.031 436.375C738.219 500.156 740.344 574.344 741.781 601.156C743.219 627.969 743.687 660.438 742.969 673.469C739.875 720.656 729.469 764.281 714.281 793.188C704.094 812.625 684.406 837.281 677.281 839.406C674.188 840.344 667.562 845.094 662.344 850.063C635.094 875.906 576.031 891.781 498.75 894.406C451.563 895.844 423.844 892.5 387.094 880.875C366.469 874.25 362.438 871.875 352.969 862.156C341.125 849.594 330.219 842.938 321.187 842.938C309.344 842.938 277.562 801.688 267.594 773.719C260.469 753.563 259.281 703.063 262.844 588.094L265.938 487.563L260.25 443C245.312 325.875 260 234.844 302.938 181.5C321.906 158.031 351.312 140.969 393.969 128.875C435.938 117.031 532.656 111.344 573.688 118.688ZM737.281 153.281C767.156 168.469 768.562 215.625 739.906 233.906C733.969 237.688 728.531 240.781 727.813 240.781C726.875 240.781 724.031 234.156 721.187 226.313L715.75 211.625L721.906 204.5C726.406 199.281 727.594 195.719 726.406 191.219C723.563 179.844 717.156 176.531 703.875 179.594C698.906 180.781 696.531 179.125 687.75 167.969C682.062 160.844 677.781 154.688 678.281 153.969C678.75 153.5 685.156 151.594 692.281 149.469C707.688 145.188 724.531 146.625 737.312 153.25L737.281 153.281ZM288.719 160.406C295.344 161.844 301.281 163.969 302 164.906C302.719 166.094 298.688 172.969 293.219 180.094C283.5 192.656 282.563 193.125 274.5 191.938C267.156 190.75 265.25 191.469 261 196.906C254.375 205.438 254.375 210.406 261.469 218.469L266.937 225.094L262.437 238.844C259.844 246.438 256.5 252.594 255.094 252.594C250.344 252.594 235.187 242.406 230.187 236C210.031 209.438 223.062 169.844 255.094 161.094C269.562 157.313 274.062 157.063 288.75 160.375L288.719 160.406ZM771.187 507.031C787.531 513.188 795.375 521.719 793 530.969L791.562 536.906L783.5 532.156C778.75 529.312 774.719 528.375 774.031 529.781C773.094 530.969 774.5 532.625 777.125 533.562C784.719 535.937 788.031 541.156 784.469 545.406C779.719 551.094 769.531 549.688 757.688 541.625L746.531 534.281V517.937C746.531 502.531 746.781 501.594 751.969 501.813C754.812 501.813 763.594 504.188 771.156 507.031H771.187ZM258.125 516.25C258.125 535.438 255.531 541.844 245.094 548.969C230.625 558.937 224.219 560.125 217.594 553.469C212.625 548.5 212.375 548 216.406 545.656C226.125 539.719 228.031 537.844 225.656 536.406C224.25 535.469 220.437 537.125 216.875 539.719C211.656 543.75 210.469 544 209.281 540.906C205 529.75 213.312 520.531 234.656 513.156C254.094 506.531 258.125 507 258.125 516.25ZM700.781 849.844C713.344 859.094 724.25 880.188 721.156 889.438C717.844 899.406 715 898.438 708.594 884.938C705.281 878.313 701.469 872.375 700.063 872.125C698.625 871.656 700.531 877.563 704.562 885.406C708.344 893.219 710.719 900.563 709.781 902C709.062 903.438 704.813 904.594 700.313 904.594C693.688 904.594 690.344 902.219 677.781 888C669.969 879 661.188 870.938 658.594 870.219C651.469 867.844 653.125 863.344 664.75 852.687C678.031 840.594 687.031 839.875 700.781 849.844ZM333.75 851.25C337.531 853.156 344.406 859.313 349.156 864.75L357.938 874.719L348.687 879C343.719 881.375 333.281 888.719 325.469 895.344C309.594 908.844 303.656 911 293.687 906.969C287.531 904.375 287.062 903.656 289.187 897.969C290.625 894.406 294.406 888 297.719 883.75C301.031 879.5 303.187 875.219 302.469 874.5C300.562 872.844 289.656 885.406 286.344 893.219C283.031 901.531 279.938 901.75 278.031 893.938C274.719 880.438 284.188 866.188 304.125 854.813C317.625 847 324.031 846.031 333.75 851.25ZM568 148.312C544.063 154.469 523.187 171.562 513.469 193.125C506.125 209 506.594 235.562 514.188 251.437C522.25 268.031 539.563 284.406 556.156 290.562C574.656 297.438 605 296.5 620.875 288.437C647.188 274.937 659.281 256.438 660.688 226.094C661.625 208.063 660.938 204.281 655.938 192.906C647.656 174.875 636.969 163.75 620.125 155.438C603.781 147.625 582.906 144.781 567.969 148.312H568ZM614.469 157.312C654.531 175.094 669.719 224.406 646.719 260.906C624.906 295.281 568.719 301.688 536.719 273.469C509.219 249.281 504.469 212.531 524.875 182.656C544.312 154.219 582.969 143.313 614.5 157.281L614.469 157.312ZM527.937 209.719C508.75 226.781 527.469 257.125 553.063 250.031C562.531 247.438 571.063 236.531 571.063 227.031C571.063 205.469 544.5 194.781 527.906 209.719H527.937ZM374.312 157.562C355.344 163.5 336.625 179.125 327.375 196.688C321.906 206.875 320.969 211.844 320.969 228.938C320.969 245.531 321.906 251.219 326.656 260.719C349.188 306.469 410.094 318.094 447.812 284.187C466.062 267.844 472.719 253.594 472.719 230.125C472.719 214 471.781 209.031 466.094 197.656C453.062 171.094 426.75 155.219 396.156 155.688C387.375 155.688 377.656 156.625 374.344 157.594L374.312 157.562ZM431.688 168C483.594 198.344 480.75 267.094 426.469 293.656C409.875 301.719 382.375 301 364.344 292.219C310.531 265.656 311.25 191.688 365.781 165.625C376.437 160.656 380.469 159.937 399.219 160.656C417.469 161.375 422.438 162.562 431.688 168ZM349.406 209.25C342.281 210.906 332.344 221.344 330.906 228.469C329.25 236.781 334.219 248.625 341.344 253.594C344.438 255.719 351.312 257.375 356.75 257.375C384.25 257.375 391.125 221.563 365.75 210.906C357.469 207.344 357.219 207.344 349.375 209.25H349.406ZM482.875 273.719C470.531 276.312 462 282.5 460.344 290.781C459.625 295.281 456.562 299.094 452.531 301.219C437.594 309.031 429.781 325.625 435 339.156C437.125 344.125 448.281 349.812 456.813 349.812H463.688L461.563 362.156C458.969 377.812 460.844 388.937 467.031 395.125C473.219 401.312 481.719 400.812 489.563 393.937L496.188 388.469L500.219 393.219C505.188 399.625 519.656 399.625 526.531 393.219C530.813 389.438 531.281 386.813 530.312 369.281L529.375 349.844H536.719C563.75 349.844 563.281 314.531 536 301.25C529.375 298.156 526.031 295.094 526.031 291.781C525.781 284.906 520.812 279.219 511.094 275.187C501.844 271.406 496.875 271.156 482.875 273.75V273.719ZM532.906 304.781C545.719 311.188 552.094 319.969 552.094 331.344C552.094 339.656 551.156 341.062 544.281 343.906C535.969 347.469 525.781 346.031 506.344 339.156C495.687 335.375 494.5 335.375 478.844 340.094C450.625 348.625 438.312 345.312 437.844 329.188C437.594 319.719 441.625 313.312 451.594 306.906C459.906 301.938 460.375 301.938 468.656 305.969C473.406 308.094 482.656 310.469 489.281 311.188C499 312.125 503.031 311.187 511.813 306.437C517.75 303.125 522.719 300.281 523.188 300.281C523.438 300.031 527.937 302.188 532.906 304.781ZM493.781 362.156C491.875 387.281 490.219 391.781 482.156 393.937C467.938 397.5 462.719 387.781 465.781 364.781L467.906 348.656L479.75 344.625C486.375 342.5 492.313 340.594 493.25 340.344C494.188 340.344 494.438 350.312 493.719 362.156H493.781ZM512.062 345.312C523.906 349.344 526.062 353.375 526.062 371.625C526.062 385.844 525.344 387.969 520.375 391.313C512.313 396.531 502.594 393.688 500.938 385.625C500.219 382.313 499.031 377.813 498.563 375.906C496.906 371.156 500.219 342.719 502.344 342.719C503.281 342.719 507.562 343.906 512.062 345.312Z" fill="black"/>
</svg>
