<svg width="1000" height="1000" viewBox="0 0 1000 1000" fill="none" xmlns="http://www.w3.org/2000/svg">
<path d="M166.667 116.667C126.884 116.667 88.7311 132.47 60.6007 160.6C32.4702 188.731 16.6667 226.884 16.6667 266.667C16.6667 306.449 32.4702 344.602 60.6007 372.733C88.7311 400.863 126.884 416.667 166.667 416.667C206.449 416.667 244.602 400.863 272.733 372.733C300.863 344.602 316.667 306.449 316.667 266.667C316.667 226.884 300.863 188.731 272.733 160.6C244.602 132.47 206.449 116.667 166.667 116.667ZM483.333 116.667V883.333H783.333C725.87 883.333 670.76 860.506 630.127 819.873C589.494 779.24 566.667 724.13 566.667 666.667C566.667 609.203 589.494 554.093 630.127 513.46C670.76 472.827 725.87 450 783.333 450C739.131 450 696.738 432.44 665.482 401.184C634.226 369.928 616.667 327.536 616.667 283.333C616.667 239.13 634.226 196.738 665.482 165.482C696.738 134.226 739.131 116.667 783.333 116.667H483.333ZM783.333 116.667V450C827.536 450 869.928 432.44 901.185 401.184C932.441 369.928 950 327.536 950 283.333C950 239.13 932.441 196.738 901.185 165.482C869.928 134.226 827.536 116.667 783.333 116.667ZM783.333 450V883.333C811.786 883.333 839.961 877.729 866.248 866.841C892.535 855.952 916.42 839.992 936.54 819.873C956.659 799.754 972.619 775.868 983.507 749.581C994.396 723.294 1000 695.12 1000 666.667C1000 609.203 977.173 554.093 936.54 513.46C895.907 472.827 840.797 450 783.333 450ZM462.5 149.75L0 883.292H366.667L462.5 731.625V149.75Z" fill="black"/>
</svg>
