<svg width="1000" height="1000" viewBox="0 0 1000 1000" fill="none" xmlns="http://www.w3.org/2000/svg">
<path d="M160 80C115.8 80 80 115.8 80 160V840C80 884.2 115.8 920 160 920H688.203L920 688.203V160C920 115.8 884.2 80 840 80H160ZM500 220C599.2 220 680 300.8 680 400C680 469.2 641.2 531.011 580 561.211V720H540V760H460V720H420V561.211C358.8 531.011 320 469.2 320 400C320 394.2 320.181 388.217 320.781 382.617C325.181 336.217 346.789 295.606 378.789 266.406C410.789 237.406 453.4 220 500 220ZM500 260C427.6 260 367.586 314.406 360.586 386.406C360.186 390.806 360 395.4 360 400C360 457.4 394.383 508.205 447.383 529.805L460 534.805V600H540V534.805L552.617 529.805C605.617 508.205 640 457.4 640 400C640 322.8 577.2 260 500 260ZM460 640V680H540V640H460ZM720 680H871.797L680 871.797V720C680 698 698 680 720 680Z" fill="black"/>
</svg>
