<svg width="1000" height="1000" viewBox="0 0 1000 1000" fill="none" xmlns="http://www.w3.org/2000/svg">
<path d="M499.875 250.5C499.875 250.5 429.792 366.667 396.5 423.125C390.042 425.542 389.333 424.833 382.292 431.75C365.208 412.167 344.917 430.042 339.458 440.917C337.083 417.333 333.167 417.292 327.833 412C330.917 391.333 341 357.625 317.792 333.5C272.875 303.208 220.875 377.25 191.917 416.083L176.292 442C111.875 440.667 61.1667 442.333 0 441.125C74.5833 469.042 77.6667 469.708 167.75 503.875C167.75 506.625 174.458 519.375 181.917 526.875C188.042 533.125 194.75 536.625 198.125 538.708C193.708 540.958 184.792 544.458 182.083 549.458C169.917 572.208 187.875 577.458 199.5 595.583C212.625 619.25 215.417 634.917 246.417 621.625C257 617.042 269.833 615.458 278 612.875C249.125 658.458 241.75 670.875 191.208 749.292L191.708 749.458C393.792 670.583 398.958 668.542 498.917 629.042C642.583 684.792 650.833 689.375 808.583 749.5C786.542 715.083 771.5 693.542 755.5 666.375C761.792 665.833 775.625 664.458 787.875 656.667C796.75 651.042 807.167 644.667 816.542 632.75C835 609.208 839.5 579.542 832.792 542.5C829.542 524.875 823 507.75 823.917 507.083C909.792 474.667 919.917 471.167 1000 440.958C903.75 442.375 899.083 441.375 808.708 441.625C807.208 424.375 798.542 415.5 771.958 416.375C762.042 418 755.75 421.375 751.125 434.917C736.25 407.542 715.708 415.583 706.958 429.083C695.5 417.333 668.75 413.375 655.292 422C645.375 417.333 633.875 417.333 623.75 429.375C616.458 423.292 614.167 421.542 598.167 415.125C561.25 352.75 530.583 302.958 499.833 250.5H499.875ZM500.375 283.917C514.958 306.208 565.042 392.667 577.417 412C563.375 412.958 549.583 420.417 539.167 435.417C530.125 426.083 519.583 416.875 500.958 416.125C478.292 412.25 466.208 422.292 450.958 439.792C446.458 424.583 428.875 421.042 413.625 428.125C427.25 406.5 491.625 298.042 500.375 283.958V283.917ZM310.417 380.333C308.333 440.083 265.917 493.333 235.5 473.875C212.542 455.167 241.708 407.875 260.083 391.167C258.708 403.958 270.333 411.917 261.042 423.25C242.458 445.875 249.792 462.25 257.792 464.75C279.167 471.5 299.625 413.625 299.625 373.042C299.625 347 284.375 347.5 254.375 378.708C213.417 421.292 191.333 462.542 206.042 490.792C214.25 506.625 226.25 517.917 246 515.542C284.542 510.958 307.792 463.292 310.292 432.708C316.458 432.583 314.833 433.125 316.458 431.875C316.458 437.25 323.833 463.333 329.667 480.458C337.292 509.708 369.833 568.375 272.625 591.208C254.292 595.792 247.042 597.375 228.875 604.542C220 586.083 217.917 580.167 199.833 562.333C224.333 553.792 224.542 554.625 240.333 549.125C301.458 527.875 319.833 509.667 317.708 483.708C317.708 483.708 318.458 470.375 310 459.208C307.169 468.679 303.062 477.721 297.792 486.083C279.583 514.417 243.792 531.958 211.958 520.792C194.583 514.708 187.125 501.375 187.125 478.5C187.125 449.208 253.833 364.542 286.583 350.167C309.708 343.292 310.708 362.375 310.375 380.333H310.417ZM581.333 434.5C592.167 434.75 603.958 440.042 611.958 448.667C636.708 475.333 634 507.708 618.75 528.042C600.625 552.25 554.917 541.542 544.125 507.708C539.125 491.958 548.083 453.042 563.917 440.042C568.873 436.176 575.056 434.224 581.333 434.542V434.5ZM493.292 437.25C494.939 437.293 496.575 437.531 498.167 437.958C519.125 439.208 523.583 451 527.375 461.292C537 487.375 534.583 511.792 514.833 531.75C485.208 561.708 450.667 548.458 450.833 508.125C451.417 479.375 469.292 436.667 493.333 437.292L493.292 437.25ZM571.125 438.833C555.167 450.792 553.125 481.458 567.792 492.833C573.542 498.25 576.75 502 593.333 503.5C604.708 504.5 622.667 492.958 623.542 481.542C623.958 476.333 623 467.667 610.542 453.625C600.042 441.833 586.417 439.083 583 441.125C571.958 447.625 583.875 452.792 588.208 457.083C594.958 463.875 596.542 466.833 593.417 468.833C591.161 470.332 588.606 471.321 585.929 471.732C583.252 472.142 580.518 471.963 577.917 471.208C573.542 469.167 558.917 460.958 571.125 438.833ZM727.75 438.958C734.708 449.792 736.708 452.125 744.5 479.167C754.5 514.083 767.25 527.625 778.5 521.25C809.333 503.833 784.667 459.75 773.792 439C780.75 438.917 779.375 439.292 785.708 439.208C790.708 458.833 789.292 455.333 802.667 514.75C818.708 585.833 821.083 604.75 780.667 636.667C762.083 651.333 734.708 652.083 711.208 650.833L684.708 646.875C702.958 634.917 707.417 623.667 707.292 600.375C760.542 622.667 788.917 605.875 800.208 578.458C805.708 565.25 803.792 547.833 798.542 517.167C798.875 542.167 798.333 546.75 795.042 559.125C788.458 583.917 772.25 590.792 761.208 573.292C756.958 566.5 746.833 544.042 743.708 519.875C740.583 495.708 738.208 461.75 722.875 447.542C724.542 444.208 726.292 440.458 727.75 438.958ZM675.792 439.375C686.542 442.208 699.625 447.875 706.625 461.042C716.375 479.208 722.792 488.875 722.292 521.333C721.708 556 708.125 565.292 699.083 566.583C687.5 568.25 667.333 568 655.375 500C651.417 477.458 644.208 456 636.625 449C640.375 444.417 640.667 445 643.5 440.5C647.292 444.667 650.583 451.75 655.917 472.875C664.333 506.542 672.042 513.5 686.958 515.375C710.208 518.375 719.375 482.875 700.208 457.417C696.042 451.833 685 444.625 679.25 447.583C679.583 457.417 683.958 454.333 684 460.833C682.917 468.542 681.792 469.958 679.292 474.167C673.375 471.833 670.542 470.917 665.375 462.042C658.833 449.125 663.083 437.042 675.792 439.375ZM484.25 442.542C473.292 450.25 459.5 475.875 471.583 498.792C477.542 507.333 483.958 514.292 498.167 511.292C508.375 509.167 526.125 497.125 528.583 480.083C530.75 465.5 509.583 437.25 497.833 443.833C484.208 451.458 492.5 456.917 500.917 465.125C508.625 472.625 503.083 477.167 497.708 479.375C486.958 483.792 480.917 479.5 478.25 470.917C475.542 462.375 477.833 455.083 484.25 442.583V442.542ZM364.792 445.208C367.125 452.375 368.958 461.958 373.875 471.208C375.042 472.167 379.375 471.208 385.083 464.667C388.667 460.5 392.792 454.75 399.958 445.375C404.292 449.333 404.667 452.292 405.875 454.5C408.917 459.917 415.25 459.5 417.25 458.917C424.25 451.958 425.375 447.458 430 446.833C430.417 455.833 430.875 461.417 419.292 475.042C416.734 477.945 413.464 480.133 409.803 481.39C406.143 482.646 402.219 482.928 398.417 482.208C393.417 480.792 390.125 477.708 382.208 473.667C371.458 475.333 374.292 486.792 376.25 496.417C381.25 521.875 397.083 532.042 410.917 524.542C415.75 521.958 414.667 521.958 423.917 518.167C422.333 534.333 421.417 537.458 424.333 555.5C401.792 568.042 383.417 565.917 378.417 534.417C374.625 508.083 367.542 476.083 361.125 469.583C355.083 463.458 352.583 461.458 352.583 461.458L364.792 445.208ZM68.375 448.625C99.75 449.042 135.125 449.042 172.792 449.333C167.375 462.583 165.5 471.833 164.75 484.917C147.167 478.125 86.5417 456.417 68.375 448.625ZM931.833 449.042C890.292 464 860.375 475.583 820.292 490.875C815.917 472.125 815.125 466.375 811.167 449.458C877.875 449.25 879 449.375 931.833 449.042ZM641.083 534.042C645.458 551.958 651.625 560.75 651.625 560.75C660.042 575.25 670.542 583.458 686.625 587.625C690.167 593.292 691.417 594.417 692.792 597.458C694.333 616.5 693.208 618.875 678.458 629.708C669.75 638.208 669.375 650.417 678.333 661.75C687.958 670.917 698.083 674.167 735.625 664.417C742.875 676.917 753.042 691.625 767.958 715.125C717.708 696.167 648.458 669.167 500.042 611.375C500.042 611.375 326.333 678.875 233.208 715.167C272.167 653.75 275.375 648.542 303.083 605.583C312.458 601.875 309.292 603.375 317.625 599.125C336.75 588.917 352.083 573.708 360.458 551.417C375.792 586 392.917 589.958 428.625 578.708C436 575.292 444.458 570.375 446.292 557.125C465.458 574.333 505.958 577.542 535.542 541.208C561.042 571.083 618.917 573.917 641.083 534.083V534.042ZM730.958 570.083C730.958 570.083 732.625 575.458 733.625 577.125C729.417 577.25 724.75 577.125 724.75 577.125C727.107 575.033 729.193 572.653 730.958 570.042V570.083Z" fill="black"/>
</svg>
