<svg width="1000" height="1000" viewBox="0 0 1000 1000" fill="none" xmlns="http://www.w3.org/2000/svg">
<path d="M776.114 106.679C796.654 105.033 817.472 106.131 838.283 105.855V363.296C800.763 363.296 763.513 363.573 726.269 363.296C712.301 362.474 695.869 353.165 695.869 337.555V183.638C696.414 168.301 712.025 158.989 725.995 158.167C742.427 157.346 759.134 158.167 775.837 157.891C776.114 140.913 775.837 123.659 776.114 106.679V106.679ZM31.9994 183.912C32.2733 167.479 49.2534 158.17 64.0426 158.17C100.194 157.622 136.342 158.17 172.497 157.894C173.044 239.511 172.497 321.396 172.773 403.287C173.318 417.255 157.984 426.29 145.386 427.659C107.588 427.936 69.7939 427.659 31.7283 427.659C32.0021 411.503 30.9039 395.342 32.5499 379.186C59.1156 378.91 85.9552 379.186 112.521 378.91V363.573C94.7192 362.477 76.9174 364.394 59.3895 362.477C45.1481 361.655 30.6328 349.879 31.7283 334.542C31.7255 284.423 31.4516 234.03 31.9994 183.912V183.912ZM198.515 158.167C232.749 157.346 267.26 158.167 301.494 157.891C314.092 157.346 328.333 160.356 335.728 171.584C341.479 178.979 339.559 188.841 339.836 197.602C339.559 214.859 340.381 232.113 339.559 249.093C338.19 256.762 328.604 257.584 323.127 260.593C329.426 263.609 339.836 265.249 339.836 274.287C340.11 309.346 339.836 344.125 339.836 379.183C357.638 379.183 375.44 378.907 392.965 379.183C393.512 398.355 392.965 417.8 393.241 437.242C410.219 437.518 427.199 436.968 443.908 437.242C458.147 437.518 473.21 448.473 473.21 463.808C473.486 524.881 473.21 586.229 473.21 647.303C452.669 647.579 431.855 647.579 411.043 647.303C411.043 593.621 411.317 539.944 411.043 486.539H393.241V647.303C372.424 647.579 351.613 647.579 331.072 647.303C330.795 574.179 330.795 500.781 330.795 427.656C318.197 426.835 303.956 430.395 292.453 423.274C285.061 419.166 277.667 412.045 278.214 403.282V285.239H259.865C259.588 310.983 259.865 336.73 259.588 362.472C239.324 363.841 218.507 363.841 198.243 362.472C198.241 294.556 197.693 226.362 198.515 158.167V158.167Z" stroke="black" stroke-width="15"/>
<path d="M364.482 183.638C363.386 167.753 381.459 158.167 395.43 157.894C421.448 157.62 447.466 157.894 473.757 157.894C488.547 157.894 505.53 167.756 506.075 184.188C506.351 243.893 506.075 303.597 506.075 363.299H397.349C383.93 363.299 367.768 356.452 364.759 342.484C364.211 315.919 364.759 289.627 364.485 263.061C362.568 249.093 377.354 239.782 389.133 236.495C407.48 235.126 425.558 236.495 443.908 235.948V207.191H425.011C424.737 211.299 424.737 215.407 424.463 219.515H364.487C364.482 207.465 364.482 195.688 364.482 183.638V183.638ZM530.449 158.167C550.716 157.62 571.256 157.891 591.526 157.891C591.802 162.823 591.802 167.753 591.802 172.68C605.77 161.725 623.843 158.165 641.1 158.165C653.698 158.439 668.21 165.833 670.949 178.705C671.771 240.327 670.401 301.672 672.042 363.293H610.42C610.968 311.257 611.242 259.498 610.697 207.462C604.395 207.185 598.096 207.185 591.802 207.185C591.526 259.221 592.076 311.257 591.802 363.293H530.181C530.175 294.83 529.902 226.362 530.449 158.167V158.167Z" stroke="black" stroke-width="15"/>
<path d="M93.3471 207.191H111.694C111.97 242.794 111.694 278.398 111.97 314.001H93.3471V207.191ZM259.586 207.191H278.212V235.948H259.586C259.862 226.362 259.862 216.776 259.586 207.191ZM757.491 207.191H775.837C775.837 242.794 776.114 278.398 775.837 314.001H757.491V207.191ZM425.279 285.245H443.905V314.001H425.556C425.556 304.416 425.279 294.83 425.279 285.245Z" fill="black" stroke="black" stroke-width="15"/>
<path d="M198.788 387.4C217.412 387.4 236.035 387.123 254.932 387.4V411.224H198.788V387.4ZM165.376 438.066C185.916 436.42 206.18 437.518 226.721 437.518C226.721 441.627 226.997 446.008 226.997 450.117C253.563 450.393 280.403 450.393 306.968 450.117V498.866H226.721C226.997 530.362 226.997 561.857 226.721 593.352H245.347V515.299H306.968C306.968 550.08 307.242 584.862 306.692 619.37C306.968 635.258 292.177 647.306 277.113 646.758C248.631 646.758 220.148 647.034 191.939 646.758C176.599 645.936 165.096 631.421 165.096 616.632C165.096 577.468 165.373 538.304 165.096 498.866C159.619 498.866 154.142 498.866 148.664 498.592C148.941 482.434 148.941 466.549 148.664 450.39C154.142 450.39 159.619 450.114 165.096 450.114C165.099 446.008 165.376 441.9 165.376 438.066V438.066ZM492.378 462.989C491.557 448.199 507.165 438.066 520.59 437.518C547.977 436.971 575.365 437.242 602.752 437.242C617.538 436.968 634.247 447.104 634.247 462.986V564.593C607.405 564.593 580.842 564.319 554 564.593C554 574.179 554.276 583.764 554.276 593.35H572.355C572.631 589.242 572.631 584.86 572.9 580.48C593.166 580.204 613.707 580.48 634.247 580.204C633.7 594.99 635.34 610.053 633.152 624.571C630.413 639.908 614.528 648.124 600.013 647.574C573.719 647.297 547.153 647.851 520.59 647.026C506.072 646.481 492.378 634.702 492.655 619.639C492.378 567.334 492.655 515.299 492.378 462.989V462.989ZM653.419 462.989C652.871 448.199 668.482 438.066 682.175 437.245H795.285C795.008 453.677 795.285 470.109 795.008 486.542H715.04V501.331C741.88 501.879 768.445 501.331 795.285 501.605C795.008 518.037 795.008 534.47 795.285 550.902C768.445 551.179 741.88 550.628 715.04 550.902C714.764 583.222 715.04 615.262 715.04 647.306C694.5 647.582 673.959 647.582 653.419 647.306V462.989V462.989ZM824.863 437.245C845.404 437.521 866.221 437.245 886.762 437.245C886.762 441.629 887.038 446.008 887.038 450.117C913.604 450.393 940.443 450.393 967.009 450.117V498.866C940.443 498.866 913.604 498.592 887.038 498.866C886.761 530.362 886.761 561.857 887.038 593.352H905.388V515.299H967.009V622.386C966.733 635.534 953.589 643.751 942.084 646.489C914.697 647.311 887.309 645.942 859.922 647.311C847.874 647.859 834.726 642.926 828.703 631.971C824.318 624.032 824.595 614.446 824.595 605.677C824.595 570.073 824.318 534.47 824.869 498.866C819.391 498.866 814.193 498.866 808.716 498.592C808.99 482.434 808.99 466.549 808.716 450.39C813.914 450.114 819.123 450.114 824.324 450.114C824.59 445.735 824.589 441.353 824.863 437.245Z" stroke="black" stroke-width="15"/>
<path d="M554 486.542H572.626V515.299H554V486.542Z" fill="black" stroke="black" stroke-width="15"/>
<path d="M118.27 707.281C122.104 693.588 137.167 685.919 150.861 686.464C177.152 686.741 203.718 686.19 230.284 686.741C243.43 687.288 258.493 696.05 259.041 710.568V892.417C222.068 892.691 185.095 892.691 148.396 892.417C136.345 891.869 122.378 885.847 118.27 873.794C117.722 843.941 117.722 814.086 118.27 784.237C124.021 773.559 135.25 764.518 147.848 764.518C164.557 764.518 181.534 764.795 198.241 764.518C197.964 754.932 198.241 745.347 197.964 735.761H179.888C179.614 739.869 179.615 743.978 179.341 748.086H117.996C118.27 734.397 117.448 720.975 118.27 707.281V707.281ZM285.059 686.47H345.311C345.311 738.506 345.034 790.541 345.311 842.577C351.61 842.577 357.909 842.578 363.934 842.854C363.658 790.818 363.934 738.782 363.934 686.47H424.734C424.457 748.915 425.008 811.359 424.457 873.799C420.075 886.668 404.739 892.691 391.869 891.875C365.575 891.601 339.009 892.151 312.446 891.875C299.297 890.782 283.141 881.196 285.059 866.133V686.47ZM460.612 686.47H521.685C521.962 690.854 521.962 695.234 522.23 699.342C548.796 699.342 575.362 699.618 601.93 699.342C601.109 715.774 601.385 732.206 601.385 748.639C575.091 748.915 548.525 748.639 521.962 748.915C521.685 780.134 522.236 811.359 521.685 842.577C528.256 842.577 534.831 842.578 541.401 842.854C540.856 816.836 541.401 790.818 541.128 764.524H601.38C601.103 798.213 601.654 831.899 601.38 865.583C601.654 881.739 584.671 892.422 570.158 891.875H490.461C478.411 891.875 465.265 885.304 460.609 873.528C459.787 832.17 460.609 790.542 460.335 748.915C455.131 748.915 449.925 748.639 444.724 748.639C444.724 732.206 444.447 715.774 444.724 699.618H460.061C460.338 695.234 460.338 690.849 460.612 686.47V686.47ZM647.393 687.839C653.419 685.925 659.718 686.47 665.743 686.47C690.391 686.746 715.04 686.196 739.689 686.47C753.382 687.294 768.719 697.425 768.445 712.214V857.641C768.445 864.487 768.169 871.334 764.882 877.359C758.583 887.493 745.988 892.422 734.211 891.875C707.917 891.875 681.351 892.151 654.788 891.875C641.368 890.782 626.031 880.92 626.853 866.133C626.576 814.922 626.853 763.431 626.576 712.219C625.757 700.163 636.712 691.125 647.393 687.839V687.839Z" stroke="black" stroke-width="15"/>
<path d="M688.198 735.767H706.824C706.547 771.37 707.098 806.974 706.824 842.304C700.522 842.577 694.5 842.577 688.474 842.849C687.927 807.245 688.474 771.37 688.198 735.767ZM179.617 813.821H198.241C197.964 823.406 197.964 832.718 198.788 842.032C192.215 842.577 185.64 842.578 179.341 842.854C179.617 833.263 179.617 823.406 179.617 813.821Z" fill="black" stroke="black" stroke-width="15"/>
</svg>
