<svg width="1000" height="692" viewBox="0 0 1000 692" fill="none" xmlns="http://www.w3.org/2000/svg">
<path d="M654.259 2.4209C495.582 2.4209 361.599 110.859 322.515 257.452H391.36C427.294 147.069 531.265 67.7863 654.259 67.7863C808.125 67.7863 932.214 191.874 932.214 345.741C932.214 499.607 808.125 623.619 654.259 623.619C534.259 623.619 432.421 548.166 393.403 441.973H469.965V376.078H377.969H335.452H312.301C327.712 551.137 475.283 688.985 654.259 688.985C843.452 688.985 997.579 534.933 997.579 345.741C997.579 156.548 843.452 2.4209 654.259 2.4209Z" fill="black" stroke="black" stroke-width="2"/>
<path d="M345.741 2.4209C504.418 2.4209 638.401 110.859 677.485 257.452H608.64C572.706 147.069 468.735 67.7863 345.741 67.7863C191.874 67.7863 67.7863 191.874 67.7863 345.741C67.7863 499.607 191.874 623.619 345.741 623.619C465.74 623.619 567.579 548.166 606.597 441.973H530.035V376.078H622.031H664.548H687.699C672.288 551.137 524.717 688.985 345.741 688.985C156.548 688.985 2.4209 534.933 2.4209 345.741C2.4209 156.548 156.548 2.4209 345.741 2.4209Z" fill="black" stroke="black" stroke-width="2"/>
</svg>
