<svg width="1000" height="762" viewBox="0 0 1000 762" fill="none" xmlns="http://www.w3.org/2000/svg">
<g clip-path="url(#clip0_12_662)">
<path d="M485.357 771.428C340.714 713.571 197.679 689.464 54.6429 697.5L0 147.857C147.857 139.821 308.571 165.535 485.357 231.428V771.428Z" fill="black"/>
<path d="M485.357 154.286V180C361.607 135 239.464 107.679 120.536 99.6429L115.714 0C231.429 6.42857 366.429 65.8929 485.357 154.286Z" fill="black"/>
<path d="M527.143 771.429C671.786 713.572 814.821 689.465 957.857 697.5L1012.5 146.25C864.643 138.215 703.929 163.929 527.143 229.822V771.429Z" fill="black"/>
<path d="M527.143 154.286V180C652.5 135 774.643 107.679 891.964 101.25L896.786 0C781.071 6.42857 646.071 65.8929 527.143 154.286Z" fill="black"/>
</g>
<defs>
<clipPath id="clip0_12_662">
<rect width="1000" height="761.905" fill="white"/>
</clipPath>
</defs>
</svg>
