<svg width="1000" height="1000" viewBox="0 0 1000 1000" fill="none" xmlns="http://www.w3.org/2000/svg">
<g clip-path="url(#clip0_9_495)">
<path d="M995.958 286.25C982.25 152.125 893.042 123.917 814.542 111.042C775.125 104.375 704.958 98.5833 659.708 96.9167C620.292 94.4167 527.708 93.1667 499.917 93.1667C472.5 93.1667 379.5 94.4167 340.083 96.9167C295.25 98.5833 224.667 104.417 185.25 111.042C106.792 124.333 17.5 152.5 3.83338 286.208C0.500044 322.75 -0.33329 370.5 0.0833768 421.542C1.33338 506.208 8.41671 563.5 12.5834 603.375C15.4584 630.75 26.6667 712.542 41.2084 754.875C61.125 813 79.375 830 100.542 847.458C139.583 879 203.5 888.958 216.792 891.458C289 904.333 435.125 906.792 499.5 906.792C563.833 906.792 709.917 904.708 782.167 891.458C795.875 888.958 859.792 879.375 898.417 847.458C919.583 830 937.833 813 957.75 754.875C972.333 712.542 983.917 630.75 986.833 603.375C991 563.5 998.458 506.208 999.292 421.542C1000.96 370.5 999.708 322.75 995.958 286.208V286.25ZM946.958 511.208C939.083 618.292 929.542 682.25 915.833 728.708C903.792 769.417 889.292 796.375 867.292 815.917C831.167 848.708 781.333 855.75 752.292 859.917C689.208 869.458 583.333 872.375 499.917 872.375C416.458 872.375 310.583 869.042 247.5 859.875C218.458 855.75 168.625 848.708 132.5 815.917C110.917 796.375 96 769 84.375 728.708C70.6667 682.667 61.125 618.292 53.25 511.208C48.6667 446.875 49.5 342.25 56.5834 286.208C67.3334 202.375 108.875 160.417 197.708 144.667C239.208 137.167 295.208 131.792 347.958 129.292C390.292 126.375 460.458 125.125 499.5 125.542C538.5 125.125 608.667 126.792 651 129.292C704.125 131.792 759.75 137.208 801.25 144.667C890.5 160.417 932.042 202.792 942.417 286.208C950.708 342.25 951.958 446.875 947 511.208H946.958ZM730.25 161.667C707.417 264.208 698.292 311.125 679.583 385.417C661.75 456.833 647.625 522.833 623.958 554.792C599.5 587.167 567.083 594.25 545.083 596.708C533.458 597.958 525.167 598.375 500.667 598.792C475.792 598.792 467.458 597.958 455.833 596.708C433.833 594.208 401.042 587.167 377 554.792C352.917 522.833 339.208 456.833 321.375 385.417C301.833 311.542 293.125 264.208 269.875 161.667C269.875 161.667 247.042 162.5 236.667 163.333C222.958 164.167 212.167 165.417 200.542 167.083C200.542 167.083 213.875 377.958 219.667 467.208C225.917 561.042 237.083 719.583 247.458 839.167C247.458 839.167 266.542 842.083 298.542 844.167C332.167 846.208 347.083 846.208 347.083 846.208C360.792 793.5 378.208 720.417 397.333 689.292C413.083 663.958 437.583 661.083 451.292 659.417C472.875 656.5 491.125 656.083 499.875 656.083C508.167 655.667 526.417 656.083 548.417 659.417C562.125 661.5 586.625 664 602.375 689.292C621.917 720.417 638.917 793.458 652.625 846.208C652.625 846.208 667.542 845.792 701.167 844.125C718.272 843.384 735.325 841.715 752.25 839.125C762.625 719.583 773.833 561.417 780.042 467.208C785.875 377.958 799.167 167.083 799.167 167.083C787.5 165.417 776.75 164.167 763.042 163.333C753.458 162.5 730.25 161.667 730.25 161.667Z" fill="black"/>
</g>
<defs>
<clipPath id="clip0_9_495">
<rect width="1000" height="1000" fill="white"/>
</clipPath>
</defs>
</svg>
