<svg width="1000" height="250" viewBox="0 0 1000 250" fill="none" xmlns="http://www.w3.org/2000/svg">
<path d="M59.875 115.125H50.125C37.625 115.125 27.375 111.25 19.375 103.625C11 94.875 6.75 84.125 6.75 71.625V18.375C6.75 14.5 8.125 11.125 11 8.375C13.875 5.5 17.125 4.125 21 4.125C25.125 4.125 28.5 5.5 31.25 8.375C34.125 11.125 35.625 14.5 35.625 18.375V71.625C35.625 74.375 36.125 77.375 37.25 80.5C39.625 84.25 43.5 86.25 49.25 86.25H53.875H146C158.625 86.25 168.875 90.125 176.75 97.75C185.125 106.5 189.375 117.25 189.375 129.75V231.625C189.375 235.5 188 238.75 185.125 241.625C182.375 244.375 179 245.875 175.25 245.875C171.125 245.875 167.625 244.375 164.875 241.625C162 238.75 160.625 235.5 160.625 231.625V129.75C160.625 127 160 124 159 121C156.625 117.125 152.625 115.125 147 115.125H59.875Z" fill="#1F1B20"/>
<path d="M35.625 188V231.625C35.625 235.5 34.125 238.75 31.375 241.625C28.5 244.5 25.125 245.875 21.375 245.875C17.25 245.875 13.75 244.5 11 241.625C8.125 238.75 6.75 235.5 6.75 231.625V188V147.25C6.75 143.375 8.125 140.125 11 137.25C13.75 134.375 17.125 133 21 133C25.125 133 28.5 134.375 31.375 137.25C34.125 140.125 35.625 143.375 35.625 147.25V188Z" fill="#1F1B20"/>
<path d="M960.625 115.125H979C982.875 115.125 986.25 113.75 989 110.875C991.875 108.125 993.25 104.625 993.25 100.5C993.25 96.625 991.875 93.25 989 90.5C986.25 87.625 982.875 86.25 979 86.25H960.625H894.5C882 86.25 871.625 90.25 863.375 98.125C855.25 106.25 851.125 116.75 851.125 129.75V231.625C851.125 235.5 852.5 238.875 855.375 241.625C858.125 244.5 861.625 245.875 865.75 245.875C869.5 245.875 872.875 244.5 875.75 241.625C878.5 238.875 880 235.5 880 231.625V129.75C880 120 884.625 115.125 894.125 115.125H960.625Z" fill="#1F1B20"/>
<path d="M464 193.625V231.625C464 235.5 462.625 238.75 459.75 241.625C457 244.5 453.625 245.875 449.75 245.875C445.75 245.875 442.25 244.5 439.5 241.625C436.625 238.75 435.25 235.5 435.25 231.625V193.625V147.25C435.25 143.375 436.625 140.125 439.5 137.25C442.25 134.375 445.625 133 449.375 133C453.5 133 457 134.375 459.75 137.25C462.625 140.125 464 143.375 464 147.25V193.625Z" fill="#1F1B20"/>
<path d="M467.875 115.125H449.375C445.625 115.125 442.25 113.75 439.5 110.875C436.625 108.125 435.25 104.625 435.25 100.5C435.25 96.625 436.625 93.25 439.5 90.5C442.25 87.625 445.625 86.25 449.375 86.25H467.875H561.75C574.25 86.25 584.625 90.25 592.875 98.125C601 106.25 605.125 116.75 605.125 129.75V231.625C605.125 235.5 603.75 238.75 600.875 241.625C598.125 244.375 594.625 245.875 590.5 245.875C586.625 245.875 583.375 244.375 580.5 241.625C577.75 238.75 576.375 235.5 576.375 231.625V129.75C576.375 120 571.625 115.125 562.125 115.125H467.875Z" fill="#1F1B20"/>
<path d="M276.125 245.875H263.75C251.25 245.875 240.625 241.625 232 233.125C224.25 225.125 220.5 214.875 220.5 202.375V129.75C220.5 118.75 223.625 109.25 230 101.375C238 91.25 249 86.25 263.375 86.25H345.75H360.875C373.375 86.25 384 90.5 392.75 99C400.375 106.875 404.25 117.25 404.25 129.75V145.625V202.625C404.25 213.5 401 222.875 394.625 230.75C386.375 240.875 375.125 245.875 360.875 245.875H263.75H276.125ZM249.25 186.375V203.25C249.25 208.875 251.125 212.875 255 215.25C258.125 216.375 261 217 263.75 217H276.125H361.375C367.25 217 371.375 215 373.75 211.125C374.875 208.125 375.375 205.125 375.375 202.375V145.625V128.875C375.375 123.25 373.5 119.125 369.625 116.875C366.625 115.75 363.625 115.125 360.875 115.125H345.75H262.875C257.25 115.125 253.25 117.125 250.875 121C249.75 124 249.25 127 249.25 129.75V203.25V186.375Z" fill="#1F1B20"/>
<path d="M692 245.875H679.75C667.125 245.875 656.5 241.625 647.875 233.125C640.125 225.125 636.375 214.875 636.375 202.375V129.75C636.375 118.75 639.5 109.25 645.875 101.375C653.875 91.25 665 86.25 679.25 86.25H761.625H776.75C789.25 86.25 799.875 90.5 808.625 99C816.25 106.875 820.125 117.25 820.125 129.75V145.625V202.625C820.125 213.5 816.875 222.875 810.5 230.75C802.25 240.875 791 245.875 776.75 245.875H679.75H692ZM665.125 186.375V203.25C665.125 208.875 667 212.875 670.875 215.25C674 216.375 676.875 217 679.75 217H692H777.25C783.125 217 787.25 215 789.625 211.125C790.75 208.125 791.25 205.125 791.25 202.375V145.625V128.875C791.25 123.25 789.375 119.125 785.625 116.875C782.5 115.75 779.5 115.125 776.75 115.125H761.625H678.75C673.125 115.125 669.125 117.125 666.75 121C665.625 124 665.125 127 665.125 129.75V203.25V186.375Z" fill="#1F1B20"/>
</svg>
