<svg width="1000" height="1000" viewBox="0 0 1000 1000" fill="none" xmlns="http://www.w3.org/2000/svg">
<g clip-path="url(#clip0_15_78)">
<path d="M500 999.999H485.25L587.75 718.958H728.25C753.125 718.958 780.292 700.291 788.833 676.999L899.833 372.666C917.708 322.999 889.75 281.833 836.167 281.833H640.542L384.292 986.833C163.875 933.958 0 735.958 0 499.999C0 270.958 154.5 77.6244 364.917 18.6243L110.25 718.958H215.833L350.917 347.041H430.917L295.792 718.958H401.417L527.958 371.874C545.792 322.208 517.875 281.041 464.292 281.041H375L477.5 0.832682C485.25 0.832682 492.25 0.0410156 500 0.0410156C776.417 0.0410156 1000 223.624 1000 500.041C1000 776.458 776.417 1000.04 500 1000.04V999.999ZM802.792 347.083H722.792L611.042 652.916H691L802.792 347.083Z" fill="black"/>
</g>
<defs>
<clipPath id="clip0_15_78">
<rect width="1000" height="1000" fill="white"/>
</clipPath>
</defs>
</svg>
