<svg width="1000" height="1000" viewBox="0 0 1000 1000" fill="none" xmlns="http://www.w3.org/2000/svg">
<path d="M74.6854 0C65.4947 0 58.6468 7.4896 59.4623 16.6436L136.945 885.741C137.76 894.895 145.671 904.396 154.531 906.856L483.328 998.148C492.185 1000.61 506.676 1000.61 515.536 998.155L845.332 906.713C854.188 904.256 862.109 894.755 862.925 885.604L940.534 16.6436C941.357 7.4896 934.502 0 925.311 0H74.6854ZM775.526 199.325C774.794 207.49 773.527 221.663 772.712 230.817L770.67 253.62C769.848 262.771 768.678 275.858 768.06 282.7C767.445 289.544 766.86 295.142 766.753 295.142C766.649 295.142 759.043 295.142 749.852 295.142H516.709C507.518 295.142 499.921 295.142 499.821 295.142C499.721 295.142 492.118 295.142 482.927 295.142H360.139C350.948 295.142 344.1 302.632 344.916 311.786L352.078 391.845C352.893 400.996 361.085 408.489 370.276 408.489H482.93C492.121 408.489 499.724 408.489 499.825 408.489C499.925 408.489 507.521 408.489 516.712 408.489H710.349C719.539 408.489 733.763 408.489 741.955 408.489C750.14 408.489 756.235 415.17 755.494 423.334C754.748 431.499 753.475 445.676 752.659 454.827L729.629 712.929C728.807 722.083 727.768 733.777 727.32 738.917C726.862 744.054 719.245 750.267 710.389 752.723L516.104 806.594C507.247 809.047 499.888 811.079 499.751 811.109C499.614 811.139 492.258 809.151 483.398 806.694L288.906 752.726C280.049 750.27 272.135 740.768 271.32 731.614L258.801 591.097C257.985 581.943 264.84 574.453 274.03 574.453H291.78C300.971 574.453 316.01 574.453 325.201 574.453H351.67C360.861 574.453 369.046 581.943 369.868 591.097L374.777 646.104C375.593 655.258 383.517 664.706 392.393 667.102L483.368 691.67C492.238 694.066 499.53 696.028 499.571 696.028C499.611 696.028 506.9 694.063 515.773 691.667L606.911 667.039C615.781 664.642 623.712 655.191 624.534 646.04L634.417 535.832C635.239 526.678 628.391 519.189 619.2 519.189H516.712C507.521 519.189 499.925 519.189 499.825 519.189C499.724 519.189 492.121 519.189 482.93 519.189H269.074C259.883 519.189 251.699 511.696 250.883 502.545L226.633 230.814C225.818 221.66 224.551 207.49 223.819 199.322C223.094 191.157 230.015 184.476 239.206 184.476H482.93C492.121 184.476 499.724 184.476 499.825 184.476C499.925 184.476 507.521 184.476 516.712 184.476H760.142C769.33 184.476 776.255 191.157 775.526 199.325Z" fill="black"/>
</svg>
