<svg width="1000" height="131" viewBox="0 0 1000 131" fill="none" xmlns="http://www.w3.org/2000/svg">
<g clip-path="url(#clip0_5_129)">
<path d="M1000.39 14.6978V-0.00726318H891.765C879.608 -0.00726318 869.971 9.61457 869.971 21.7925V109.152C869.971 121.315 879.608 130.951 891.765 130.951H1000.39V116.232H891.765C887.952 116.232 884.691 112.964 884.691 109.152V21.7853C884.691 17.9729 887.952 14.7051 891.765 14.7051L1000.39 14.6978Z" fill="black"/>
<path d="M726.303 67.6288V130.951H741.009V81.5423C743.733 81.9127 746.456 82.2685 748.09 82.2685H835.28C847.444 82.2685 857.081 72.4579 857.081 60.476V22.1484C857.081 10.1592 847.444 0.355835 835.28 0.355835H726.303V15.2497L835.28 15.0609C839.099 15.0609 842.36 18.336 842.36 22.1484V60.476C842.36 64.2884 839.099 67.3746 835.28 67.3746L726.303 67.6288Z" fill="black"/>
<path d="M576.267 28.6622L678.526 28.5097V59.561L576.267 59.8442V130.951H604.423V88.9856C604.597 89.1744 604.967 89.1744 604.967 89.1744C604.967 88.4483 604.786 88.0852 604.423 88.0852L641.837 87.8964L677.981 130.951H707.044V121.315C697.967 110.422 687.974 98.8035 678.707 87.8964H679.986C694.873 87.8964 707.044 75.7329 707.044 61.0206V27.2389C707.044 12.5265 694.873 0.355835 679.986 0.355835H576.267V28.6622Z" fill="black"/>
<path d="M558.468 0.174286H437.683V130.951H558.468V102.609H466.195V79.7196H540.487V51.3915H466.195V28.5097H558.468V0.174286Z" fill="black"/>
<path d="M293.638 60.062V130.951H321.801V88.9856C321.975 89.1744 322.338 89.1744 322.338 89.1744C322.338 88.4483 322.164 88.0852 321.801 88.0852L397.357 87.8964C412.251 87.8964 424.415 75.7329 424.415 61.0206V27.2389C424.415 12.5265 412.251 0.355835 397.357 0.355835H293.638V28.3935L395.904 28.5097V59.561L293.638 60.062Z" fill="black"/>
<path d="M255.679 -0.00726318C242.6 16.7311 228.068 34.9291 214.815 51.6384L173.762 -0.00726318H140.16C150.327 14.0079 165.41 34.7475 176.856 50.0045L200.646 82.0289V130.951H228.983V82.2104L289.651 -0.00726318H255.679Z" fill="black"/>
<path d="M105.461 -0.00726318V51.3915H28.2716V-0.00726318H0.108948V130.951H28.2716V79.7196H105.461V130.951H133.624V-0.00726318H105.461Z" fill="black"/>
</g>
<defs>
<clipPath id="clip0_5_129">
<rect width="1000" height="130.712" fill="white"/>
</clipPath>
</defs>
</svg>
