<svg width="1000" height="1000" viewBox="0 0 1000 1000" fill="none" xmlns="http://www.w3.org/2000/svg">
<path d="M287.208 608.583C215.417 602.5 90.8333 555.417 90.8333 473.292C90.8333 369.125 271.792 272.542 499.958 272.542C739.542 272.542 909.125 369.125 909.125 473.292C909.125 555.375 785.042 601.917 713.208 608C693.417 582.625 499.958 325.042 499.958 325.042C499.958 325.042 305.708 584.708 287.208 608.583ZM859.875 696.708C955.042 650 1000 572.25 1000 503.667C1000 356.458 794.667 242.667 499.958 242.667C205.292 242.667 0 356.458 0 503.667C0 572.25 44.9583 649.958 140.125 696.708C228.375 740.083 353.292 755.167 371.375 757.333L499.958 383.083L629.875 757.333C647.875 755.167 771.583 740.083 859.875 696.708Z" fill="black"/>
</svg>
