<svg width="1000" height="1000" viewBox="0 0 1000 1000" fill="none" xmlns="http://www.w3.org/2000/svg">
<path d="M500 396.667C479.563 396.667 459.584 402.727 442.591 414.081C425.598 425.436 412.354 441.574 404.532 460.456C396.711 479.338 394.665 500.115 398.652 520.159C402.639 540.204 412.481 558.616 426.932 573.068C441.384 587.519 459.796 597.361 479.841 601.348C499.885 605.335 520.662 603.289 539.544 595.468C558.426 587.646 574.564 574.402 585.919 557.409C597.273 540.416 603.333 520.437 603.333 500C603.333 486.43 600.661 472.993 595.468 460.456C590.275 447.919 582.663 436.528 573.068 426.932C563.472 417.337 552.081 409.725 539.544 404.532C527.007 399.339 513.57 396.667 500 396.667ZM913.75 294.583C913.531 262.407 907.606 230.524 896.25 200.417C887.887 178.386 874.947 158.379 858.284 141.716C841.621 125.053 821.614 112.113 799.583 103.75C769.476 92.3943 737.593 86.4692 705.417 86.25C651.667 83.3333 635.833 83.3333 500 83.3333C364.167 83.3333 348.333 83.3333 294.583 86.25C262.407 86.4692 230.524 92.3943 200.417 103.75C178.386 112.113 158.379 125.053 141.716 141.716C125.053 158.379 112.113 178.386 103.75 200.417C92.3944 230.524 86.4692 262.407 86.25 294.583C83.3334 348.333 83.3334 364.167 83.3334 500C83.3334 635.833 83.3334 651.667 86.25 705.417C86.6985 737.707 92.6156 769.687 103.75 800C112.076 821.93 125.005 841.821 141.667 858.333C158.258 875.096 178.308 888.036 200.417 896.25C230.524 907.606 262.407 913.531 294.583 913.75C348.333 916.667 364.167 916.667 500 916.667C635.833 916.667 651.667 916.667 705.417 913.75C737.593 913.531 769.476 907.606 799.583 896.25C821.692 888.036 841.742 875.096 858.333 858.333C874.995 841.821 887.924 821.93 896.25 800C907.595 769.745 913.519 737.728 913.75 705.417C916.667 651.667 916.667 635.833 916.667 500C916.667 364.167 916.667 348.333 913.75 294.583ZM807.917 627.917C806.58 653.629 801.092 678.956 791.667 702.917C783.578 722.904 771.553 741.06 756.306 756.306C741.06 771.553 722.904 783.578 702.917 791.667C678.73 800.566 653.261 805.491 627.5 806.25C594.583 806.25 585.833 806.25 500 806.25C414.167 806.25 405.417 806.25 372.5 806.25C346.739 805.491 321.27 800.566 297.083 791.667C276.421 783.988 257.762 771.738 242.5 755.833C227.403 740.885 215.744 722.828 208.333 702.917C199.398 678.755 194.609 653.257 194.167 627.5C194.167 594.583 194.167 585.833 194.167 500C194.167 414.167 194.167 405.417 194.167 372.5C194.609 346.743 199.398 321.245 208.333 297.083C216.012 276.421 228.261 257.762 244.167 242.5C259.181 227.484 277.219 215.837 297.083 208.333C321.27 199.434 346.739 194.509 372.5 193.75C405.417 193.75 414.167 193.75 500 193.75C585.833 193.75 594.583 193.75 627.5 193.75C653.261 194.509 678.73 199.434 702.917 208.333C723.579 216.012 742.238 228.261 757.5 244.167C772.597 259.115 784.256 277.172 791.667 297.083C800.566 321.27 805.491 346.739 806.25 372.5C806.25 405.417 806.25 414.167 806.25 500C806.25 585.833 809.167 594.583 807.917 627.5V627.917ZM741.25 317.917C736.289 304.458 728.467 292.235 718.324 282.092C708.182 271.949 695.959 264.128 682.5 259.167C664.02 252.761 644.556 249.658 625 250C592.5 250 583.333 250 500 250C416.667 250 407.5 250 375 250C355.344 250.192 335.878 253.86 317.5 260.833C304.247 265.569 292.154 273.071 282.024 282.842C271.895 292.612 263.961 304.427 258.75 317.5C252.699 336.057 249.743 355.483 250 375C250 407.5 250 416.667 250 500C250 583.333 250 592.5 250 625C250.413 644.633 254.074 664.062 260.833 682.5C265.794 695.959 273.616 708.182 283.759 718.324C293.902 728.467 306.124 736.289 319.583 741.25C337.361 747.788 356.069 751.445 375 752.083C407.5 752.083 416.667 752.083 500 752.083C583.333 752.083 592.5 752.083 625 752.083C644.656 751.891 664.122 748.224 682.5 741.25C695.959 736.289 708.182 728.467 718.324 718.324C728.467 708.182 736.289 695.959 741.25 682.5C748.224 664.122 751.891 644.655 752.083 625C752.083 592.5 752.083 583.333 752.083 500C752.083 416.667 752.083 407.5 752.083 375C752.095 355.325 748.421 335.822 741.25 317.5V317.917ZM500 659.167C479.118 659.167 458.44 655.047 439.153 647.043C419.865 639.039 402.346 627.308 387.599 612.523C372.853 597.737 361.168 580.187 353.214 560.879C345.261 541.57 341.195 520.882 341.25 500C341.25 468.502 350.596 437.712 368.104 411.529C385.612 385.345 410.495 364.944 439.603 352.91C468.711 340.875 500.735 337.747 531.622 343.923C562.509 350.098 590.869 365.299 613.112 387.6C635.355 409.902 650.481 438.302 656.576 469.204C662.67 500.107 659.458 532.123 647.348 561.2C635.237 590.276 614.771 615.106 588.542 632.545C562.312 649.984 531.498 659.249 500 659.167ZM666.667 372.083C657.456 371.108 648.932 366.759 642.737 359.874C636.542 352.988 633.114 344.054 633.114 334.792C633.114 325.529 636.542 316.595 642.737 309.71C648.932 302.824 657.456 298.475 666.667 297.5C675.877 298.475 684.401 302.824 690.596 309.71C696.792 316.595 700.219 325.529 700.219 334.792C700.219 344.054 696.792 352.988 690.596 359.874C684.401 366.759 675.877 371.108 666.667 372.083Z" fill="black"/>
</svg>
