<svg width="1000" height="395" viewBox="0 0 1000 395" fill="none" xmlns="http://www.w3.org/2000/svg">
<path d="M82.954 13.154H11.8867V84.236H82.954V13.154Z" fill="black"/>
<path d="M81.1835 383.489V127.239H13.657V383.236H81.1835V383.489ZM528.326 386.019V323.284C518.462 323.284 510.116 322.778 504.046 321.766C496.965 320.755 491.654 318.225 488.113 314.684C484.573 311.142 482.296 306.083 481.032 299.253C480.02 292.929 479.514 284.581 479.514 274.463V185.167H528.326V127.239H479.514V27.5728H411.988V275.222C411.988 296.217 413.758 313.925 417.299 328.09C420.84 342.003 426.909 353.387 435.255 361.987C443.601 370.588 454.729 376.659 468.133 380.453C481.791 384.248 498.988 386.019 519.474 386.019H528.326ZM914.77 383.489V7.8418H847.243V383.489H914.77ZM346.99 152.536C328.275 132.299 301.973 122.18 268.589 122.18C252.403 122.18 237.481 125.469 224.33 132.046C210.926 138.623 199.798 147.729 190.693 159.365L187.152 164.172V159.871V127.239H120.637V383.236H187.658V246.89V256.25C187.658 254.732 187.658 253.214 187.658 251.696C188.417 227.665 194.234 209.958 205.362 198.574C217.248 186.432 231.664 180.361 248.103 180.361C267.577 180.361 282.499 186.432 292.362 198.069C301.973 209.705 307.031 226.147 307.031 247.143V247.902V383.236H375.063V238.036C375.316 201.61 365.706 172.772 346.99 152.536ZM812.342 254.985C812.342 236.519 809.054 219.317 802.731 203.128C796.156 187.191 787.051 173.025 775.67 160.883C764.036 148.741 750.126 139.382 733.94 132.552C717.754 125.722 699.798 122.433 680.324 122.433C661.861 122.433 644.411 125.975 628.225 132.805C612.038 139.887 597.875 149.247 585.989 161.136C574.102 173.025 564.492 187.191 557.663 203.381C550.582 219.57 547.294 237.025 547.294 255.491C547.294 273.957 550.582 291.411 557.157 307.601C563.733 323.79 573.09 337.956 584.724 349.845C596.358 361.734 610.774 371.347 627.466 378.177C644.158 385.26 662.62 388.801 682.347 388.801C739.504 388.801 774.911 362.746 796.156 338.462L747.597 301.53C737.481 313.672 713.202 330.114 682.853 330.114C663.885 330.114 648.204 325.814 636.318 316.96C624.431 308.36 616.338 296.217 612.038 281.293L611.28 279.016H812.342V254.985ZM611.785 231.459C611.785 212.74 633.283 180.108 679.565 179.855C725.847 179.855 747.597 212.487 747.597 231.206L611.785 231.459ZM991.654 351.11C990.389 348.074 988.619 345.545 986.343 343.268C984.067 340.991 981.538 339.221 978.503 337.956C975.468 336.691 972.18 335.932 968.892 335.932C965.351 335.932 962.317 336.691 959.282 337.956C956.247 339.221 953.718 340.991 951.442 343.268C949.165 345.545 947.395 348.074 946.13 351.11C944.866 354.145 944.107 357.434 944.107 360.722C944.107 364.264 944.866 367.299 946.13 370.335C947.395 373.37 949.165 375.9 951.442 378.177C953.718 380.453 956.247 382.224 959.282 383.489C962.317 384.754 965.604 385.513 968.892 385.513C972.433 385.513 975.468 384.754 978.503 383.489C981.538 382.224 984.067 380.453 986.343 378.177C988.619 375.9 990.389 373.37 991.654 370.335C992.919 367.299 993.677 364.011 993.677 360.722C993.677 357.434 992.919 354.145 991.654 351.11ZM987.607 368.817C986.596 371.347 985.078 373.623 983.308 375.394C981.538 377.165 979.261 378.683 976.732 379.695C974.203 380.706 971.674 381.212 968.639 381.212C965.857 381.212 963.075 380.706 960.546 379.695C958.017 378.683 955.741 377.165 953.971 375.394C952.2 373.623 950.683 371.347 949.671 368.817C948.66 366.288 948.154 363.758 948.154 360.722C948.154 357.94 948.66 355.157 949.671 352.628C950.683 350.098 952.2 347.821 953.971 346.051C955.741 344.28 958.017 342.762 960.546 341.75C963.075 340.739 965.604 340.233 968.639 340.233C971.421 340.233 974.203 340.739 976.732 341.75C979.261 342.762 981.538 344.28 983.308 346.051C985.078 347.821 986.596 350.098 987.607 352.628C988.619 355.157 989.125 357.687 989.125 360.722C989.125 363.758 988.619 366.288 987.607 368.817ZM973.445 362.999C975.468 362.746 976.985 361.987 978.25 360.722C979.514 359.458 980.273 357.687 980.273 355.157C980.273 352.375 979.514 350.351 977.744 348.833C976.227 347.315 973.445 346.557 970.157 346.557H959.029V375.141H964.34V363.505H968.133L975.215 375.141H980.779L973.445 362.999ZM970.663 358.699C969.904 358.699 969.145 358.699 968.133 358.699H964.34V350.604H968.133C968.892 350.604 969.651 350.604 970.663 350.604C971.421 350.604 972.18 350.857 972.939 351.11C973.697 351.363 974.203 351.869 974.456 352.375C974.962 352.881 974.962 353.64 974.962 354.651C974.962 355.663 974.709 356.422 974.456 356.928C973.95 357.434 973.445 357.94 972.939 358.193C972.18 358.446 971.421 358.699 970.663 358.699Z" fill="black"/>
</svg>
