<svg width="1000" height="1000" viewBox="0 0 1000 1000" fill="none" xmlns="http://www.w3.org/2000/svg">
<g clip-path="url(#clip0_5_119)">
<path d="M955.083 292.792L950.792 283.208L943.75 291.042C926.75 310.375 905.083 325.208 881.042 334.208L874.417 336.75L877.167 343.208C897.85 392.833 908.472 446.071 908.417 499.833C908.417 725.042 725.208 908.417 499.833 908.417C274.458 908.417 91.4166 725.208 91.4166 500C91.4166 274.792 274.833 91.4167 500 91.4167C561.125 91.4167 620.125 104.708 675 130.875L681.458 134L684.208 127.542C694.372 103.887 710.198 83.0957 730.292 67L738.5 60.375L729.125 55.5C658.329 18.8769 579.749 -0.146207 500.042 0.0416613C224.25 0.0416613 0.041626 224.25 0.041626 500.042C0.041626 775.833 224.25 1000.04 500.042 1000.04C775.833 1000.04 1000.04 775.833 1000.04 500.042C1000.04 427.958 985 358.25 955.125 292.833L955.083 292.792ZM500 272.083C439.573 272.15 381.64 296.183 338.912 338.912C296.183 381.64 272.149 439.573 272.083 500C272.149 560.427 296.183 618.36 338.912 661.088C381.64 703.817 439.573 727.85 500 727.917C560.427 727.85 618.36 703.817 661.088 661.088C703.817 618.36 727.85 560.427 727.917 500C727.817 439.583 703.773 381.669 661.052 338.948C618.331 296.227 560.417 272.183 500 272.083V272.083ZM931.042 188.458C931.042 202.105 928.354 215.618 923.131 228.226C917.909 240.833 910.255 252.289 900.605 261.939C890.956 271.588 879.5 279.243 866.892 284.465C854.284 289.687 840.772 292.375 827.125 292.375C813.478 292.375 799.966 289.687 787.358 284.465C774.75 279.243 763.294 271.588 753.645 261.939C743.995 252.289 736.341 240.833 731.119 228.226C725.896 215.618 723.208 202.105 723.208 188.458C723.208 160.898 734.157 134.466 753.645 114.978C773.133 95.49 799.565 84.5417 827.125 84.5417C854.685 84.5417 881.117 95.49 900.605 114.978C920.093 134.466 931.042 160.898 931.042 188.458Z" fill="black"/>
</g>
<defs>
<clipPath id="clip0_5_119">
<rect width="1000" height="1000" fill="white"/>
</clipPath>
</defs>
</svg>
