<svg width="1000" height="1000" viewBox="0 0 1000 1000" fill="none" xmlns="http://www.w3.org/2000/svg">
<g clip-path="url(#clip0_15_48)">
<path d="M499.042 999.957C395.583 999.957 294.958 967.582 209.292 905.707C156.051 867.409 110.918 818.953 76.4917 763.13C42.0658 707.308 19.0287 645.224 8.70837 580.457C-2.01871 515.709 0.156181 449.48 15.1081 385.575C30.0599 321.67 57.494 261.35 95.8334 208.082C133.795 154.672 182.009 109.352 237.664 74.7646C293.319 40.1769 355.302 17.0134 420 6.62406C484.51 -4.07871 550.506 -1.83952 614.142 13.2112C677.779 28.262 737.785 55.8235 790.667 94.2907C843.911 132.598 889.05 181.062 923.482 236.89C957.915 292.719 980.96 354.808 991.292 419.582C1002.01 484.331 999.83 550.558 984.879 614.462C969.927 678.365 942.498 738.685 904.167 791.957C866.196 845.36 817.98 890.674 762.327 925.26C706.673 959.847 644.695 983.015 580 993.416C553.232 997.758 526.159 999.945 499.042 999.957ZM229.292 878.041C278.538 913.857 334.415 939.522 393.673 953.542C452.93 967.562 514.384 969.658 574.458 959.707C634.713 950.01 692.437 928.424 744.27 896.206C796.103 863.987 841.01 821.78 876.375 772.041C1025.67 563.582 978.25 271.916 770.625 121.916C721.379 86.0997 665.501 60.4349 606.244 46.4146C546.987 32.3943 485.533 30.2985 425.458 40.2491C365.212 49.9557 307.498 71.5461 255.673 103.764C203.848 135.982 158.947 178.184 123.583 227.916C-25.75 436.416 21.7084 728.041 229.292 878.041ZM671.208 730.041C685.791 726.032 699.071 718.277 709.728 707.547C720.386 696.816 728.049 683.484 731.958 668.874L734.542 659.874L734.875 418.791C735.125 238.207 734.875 176.541 733.875 173.166C732.946 169.854 731.263 166.802 728.958 164.249C725.489 162.17 721.502 161.115 717.458 161.207C714.417 161.207 703.917 162.666 694.125 164.457C650.75 172.374 395.125 223.249 390.75 224.874C383.658 227.703 377.778 232.92 374.125 239.624L371.417 244.957C371.417 244.957 370.125 622.874 368.167 627.124C364.981 633.795 359.382 639.007 352.5 641.707C344.107 643.89 335.644 645.794 327.125 647.416C275.833 657.624 256.792 664.957 240.667 680.791C231.5 689.791 224.75 702.041 221.792 714.957C219 727.207 219.917 745.624 223.917 756.832C228.083 768.541 234.833 778.541 243.625 786.416C251.625 792.582 261.083 797.166 271.708 799.916C295.167 805.916 339.125 799.249 361.625 786.249C372.513 779.414 381.955 770.51 389.417 760.041C391.917 756.332 395.667 748.874 397.75 743.416C405.083 724.416 405.292 385.874 406.25 381.624C406.891 378.219 408.484 375.066 410.843 372.529C413.203 369.992 416.234 368.176 419.583 367.291C425.708 365.624 671.875 316.999 678.833 316.041C684.917 315.207 690.667 317.166 693.833 321.041C695.662 321.967 697.225 323.344 698.375 325.041C700.375 327.957 700.5 333.916 700.792 441.082C701.125 564.416 701.292 561.582 694.583 569.374C689.708 575.041 683.625 577.249 658.583 582.291C620.5 590.124 607.5 593.791 592.917 600.916C574.708 609.791 564.625 619.499 556.792 635.707C551.693 645.387 549.086 656.184 549.208 667.124C549.25 687.541 556.25 703.416 572.125 718.999C573.583 720.416 575 721.749 576.458 723.041C584.458 729.207 592.583 732.957 602.833 735.291C618.25 738.707 649.667 736.332 671.208 730.041Z" fill="black"/>
</g>
<defs>
<clipPath id="clip0_15_48">
<rect width="1000" height="1000" fill="white"/>
</clipPath>
</defs>
</svg>
