<svg width="1000" height="539" viewBox="0 0 1000 539" fill="none" xmlns="http://www.w3.org/2000/svg">
<g clip-path="url(#clip0_12_436)">
<path fill-rule="evenodd" clip-rule="evenodd" d="M0 352.192V202.885L136.096 277.538L0 352.192ZM0 538.462V389.135L136.096 463.808L0 538.462ZM7.96154 370.673L144.058 296.019V445.346L7.96154 370.673ZM992.038 277.538L855.942 352.192V202.885L992.038 277.538ZM855.962 538.462V389.135L992.058 463.808L855.942 538.462H855.962ZM863.904 370.673L1000 296.019V445.346L863.885 370.673H863.904ZM511.75 385.404H668.865L590.327 514.712L511.75 385.404ZM315.712 385.404H472.827L394.288 514.712L315.712 385.404ZM413.712 522.25L492.289 392.942L570.865 522.25H413.712ZM687.25 358L608.673 228.692H765.827L687.25 358ZM589.231 236.231L667.808 365.558H510.654L589.231 236.231ZM297.308 358L218.731 228.692H375.885L297.308 358ZM395.327 236.231L473.904 365.558H316.75L395.327 236.231ZM0 0L135.481 74.3462V74.9808L0 149.308V0ZM855.962 0L991.423 74.3462V75L855.962 149.308V0Z" fill="black"/>
</g>
<defs>
<clipPath id="clip0_12_436">
<rect width="1000" height="538.462" fill="white"/>
</clipPath>
</defs>
</svg>
