<svg width="1000" height="1000" viewBox="0 0 1000 1000" fill="none" xmlns="http://www.w3.org/2000/svg">
<path d="M218.375 275.375C214.303 275.428 210.233 275.567 206.167 275.792C206.167 275.792 139.5 278.792 118.667 309.042C118.667 309.042 115.125 313.125 117.125 317.5C117.125 317.5 117.542 318.75 116.708 319.583C116.708 319.583 105.458 329.583 99.7917 338.542C97.7917 341.792 95.5417 347.25 99.7917 351.042C99.7917 351.042 101.667 352.5 102.417 353.75C104.042 356.417 105.542 360.375 107.542 362.708C110.458 366.208 116.333 372.208 124.625 370.75C127.667 370.208 128.375 369.083 128.375 369.083C132.542 373.208 139.208 373.083 139.208 373.083C138.375 370.417 135.458 365.25 135.042 362.125C134.809 359.856 135.021 357.563 135.667 355.375C136.82 351.211 138.884 347.354 141.708 344.083C143.958 341.833 149.708 339.292 154.333 342.5C158 345.125 162.417 353.667 158.75 365.833C158.75 366.75 154.583 375.417 150.208 376.667C150.208 376.667 149.792 376.833 148.958 376.833C146.042 376.833 140.625 373.792 140.625 373.792C140.625 373.792 140.625 374.542 141.25 377.708C141.75 379.5 142.375 381.458 142.917 383C142.917 383 141.875 384.917 141.167 386C140.125 387.875 139.25 391.458 141.583 393.083C141.583 393.083 151.167 399.625 160.542 400.208C166.958 400.625 169.375 396.25 169.375 396.25C174.125 389.75 177.708 384.167 182.708 379.625C196.333 367.125 215.458 363.792 215.458 363.792C216.708 363.625 237.667 357.792 273.208 386.25C263.042 387.083 250.958 389.5 241.708 391.125C215.375 395.833 198.5 420.708 193.583 430.792C180.792 457.167 206.917 466.25 206.917 466.25C207.333 466 231.917 464.083 243.833 437.792C243.833 437.792 248.167 426.167 259.792 429.958C267.375 432.417 334.375 455.792 349.458 459.792C349.458 459.792 394.333 471.458 411.208 450.833C438.25 459.708 463.583 464 529.958 455.417C541.5 453.917 550.583 454.292 550.583 454.292C566.083 455.417 580.25 465.875 584.542 472.708C602.042 500.667 624.125 556.167 701.042 549.417L735.833 546.25C757.083 545 774.333 544.167 791.875 553.417C799.5 557.417 803.75 558.875 816.708 571.25C834.417 588.083 850.708 606.333 872.375 596.375C880.083 592.833 888.75 579.083 888.75 579.083C888.324 575.594 887.164 572.235 885.347 569.226C883.53 566.217 881.097 563.627 878.208 561.625C897.917 566.333 942.375 569.333 959.542 539.292C964 532.292 964.458 526.042 962.792 522.292C958.083 511.75 945.042 515.208 945.042 515.208C938.875 516.458 931.833 523.542 921.375 526.625C898.958 533.292 881.042 525.542 881.042 525.542C846.5 510.583 735.5 447.042 679.042 419.292C679.042 419.292 614.25 386.792 519.083 349.125C519.083 349.125 346.25 273.167 218.583 275.375H218.375ZM218.375 281.042C343.375 278.917 514.75 353.5 516.458 354.292V354.333C531.792 360.417 546.292 366.375 559.917 372.042L540.125 364.208C514.94 354.682 489.545 345.721 463.958 337.333C399.625 315.125 371.458 311.208 369.5 310.958C365.957 310.348 362.401 309.82 358.833 309.375L347.25 308.042L353.667 318.417C308.25 286.292 253.875 284.667 251.208 284.583C240.25 284.583 230.708 287.708 223.292 291.25L227 284.375L218 283.958C205.484 283.317 192.939 283.567 180.458 284.708C192.935 282.358 205.596 281.131 218.292 281.042H218.375ZM205.083 289.292C209.042 289.292 213.292 289.417 217.875 289.625L216.375 292.417C213.167 298.5 200.333 311.083 179.208 306.417C179.208 306.417 179.208 315.833 202.333 319.208C202.333 319.208 223.042 322.875 258.208 351.167C258.208 351.167 241.417 317.75 212.875 309.083C212.875 309.083 209.292 308.333 211.042 306.083C211.042 306.083 227.875 290.25 251.333 290.25C251.333 290.25 324.417 291.833 370.875 340.417C370.875 340.417 368.792 331.958 361.5 320L358.458 315C358.458 315 361.25 315.333 368.875 316.583C368.875 316.583 396.792 320.042 462.333 342.667C462.333 342.667 511.458 358.833 538.333 369.458C578.75 385.583 679.917 424.75 744.458 459.958C755.958 466.208 872.667 527.042 872.667 527.042C904.958 541.583 927.333 532.75 927.333 532.75C934.625 530 947.833 519.833 953.583 525.583C956.542 528.542 956.958 532.542 955.542 536.417C953.875 542.25 945.542 550.083 935.417 554.542C924.792 559.292 902.625 560.542 889.833 558.458C889.833 558.458 865 555.958 843.292 533.25C836.417 526.083 828 517.958 820.208 509.958C813.476 502.466 804.339 497.559 794.375 496.083C779.792 494.125 744.167 493.167 730.792 488.708C721.833 485.708 711.042 479.667 696.667 458.375C689.75 448.208 684.875 445.417 675.458 439.417C675.458 439.417 682.667 445.167 686.75 452.417C692.667 462.917 695.625 470.542 698.833 476.167C702.042 481.792 705.667 486.75 711.125 491.167C717.958 496.625 722.208 497.667 729.583 498.875C736.667 500.042 760.5 499.833 780.917 499.542C801.042 499.208 810.042 505.708 816.625 511.292C822.75 516.458 833.292 531.167 839.708 537.625C847.375 545.292 853.042 553.125 868.208 560.792C873.5 563.458 882.125 570.042 881.667 576.375C874.833 583.208 866.375 585 846.042 579.542C847.5 580.958 858.125 592.167 876.333 586.875C871.868 591.045 865.941 593.291 859.833 593.125C840.75 592.042 822.083 568.542 811.583 559.875C803.667 553.292 802.708 551.667 789.208 542.292C768.667 528.083 722.625 532.083 722.625 532.083L688.792 533.833C622.958 538.833 595.292 480.5 588 468.333C585.885 464.719 583.547 461.24 581 457.917C577.667 453.417 559.667 430.083 541.458 422.417C541.458 422.417 559.375 437.833 558.292 448C558.292 448 550.875 444.542 530.708 447.417C444 459.792 414.458 438.083 414.458 438.083C418.5 420.708 406.375 402.875 406.375 402.875C413.042 404.958 455.708 419.375 496.167 411.208C496.167 411.208 430.292 411.542 384.083 374.667C384.083 374.667 412.833 410.708 406 434.292C406 434.292 401.292 459.417 351.167 449.292C345.792 448.25 339.5 446.458 264.5 425.625C246.833 420.333 240.75 428.75 237.542 433.833C237.542 441.25 228.667 449.917 224.292 452.583C201.042 448.417 210.292 426.875 210.292 426.875C195.708 447.792 211 457.042 215.833 457.708C212.917 459.083 210.208 460.125 207.917 460.958C207.917 460.958 188.875 449.667 199.5 431.167C214.292 405.333 229.375 397.042 257 394.5C269.083 393.375 279.125 392.5 286.792 393.583C306.792 396.333 319.375 407.667 349.375 410.542C285.708 391.792 285.542 354.917 285.333 354.208V354.167C281.792 366.333 283.75 376.583 286.875 385.25C286.042 384.917 272.083 375.75 266.75 372.542C243.917 358.583 225.833 356.125 225.833 356.125C218.25 355.167 214.75 345.958 214.75 345.958C214.333 345.5 214.208 345.042 213.917 344.625C203.417 326.625 193 326.292 193 326.292C196.103 330.93 198.047 336.246 198.667 341.792C199.083 344.083 199.25 348.333 199.25 349.583C199.25 368.833 176.75 374.875 176.75 374.875C161.25 394.583 162.042 395 158.583 395.5C155.125 396 147.542 392.167 147.542 392.167C146.958 391.833 146.792 390.958 146.875 390.417C146.875 389.208 148.042 388.458 148.042 388.458C150.958 386.167 153.333 383.875 153.333 383.875C169.75 367.083 171.708 358.875 169.708 348C165.542 326.167 149.958 328.708 149.958 328.708C142.375 329.458 139.292 335.708 139.292 335.708C136.324 341.02 133.613 346.471 131.167 352.042C127.833 359.375 124.333 361 122.542 361.333C121.644 361.449 120.738 361.491 119.833 361.458C114.542 361.25 110.542 356.417 110.542 356.417C110.125 356.167 110.125 355.875 109.875 355.667C105.042 350.5 108.542 343.708 108.542 343.708C115.042 328.583 127.708 326.375 129.375 326.167L136.958 325.083C153 322.375 160.583 305.667 160.583 305.667C155.215 305.514 149.843 305.709 144.5 306.25C133.833 308.125 130.208 320.667 130.208 320.625C121.208 322.708 121.458 314.958 123.042 312.583C124.458 310.417 129.708 301.125 164.333 293.125C164.333 293.125 177.417 289.167 205.083 289.292ZM198.458 294.292C190.125 294.292 185.75 298.958 185.75 299.417C185.75 299.667 186.875 299.792 188.667 299.833L191.583 299.958C196.222 299.759 200.766 298.58 204.917 296.5C206.28 295.941 207.568 295.213 208.75 294.333L198.542 294.25L198.458 294.292ZM205.292 309.417V309.583C206.542 312.958 209.792 314.167 211.25 314.583V314.542C218.042 316.625 224.125 320.292 229.458 324.583C213.208 315.5 203.917 313.708 203.292 313.583C201.09 313.248 198.907 312.803 196.75 312.25C199.735 311.63 202.642 310.679 205.417 309.417H205.292ZM148.458 311.5C148.458 311.5 146.375 318.167 138.167 319.583C138.167 319.583 134.958 320.333 133.667 320.375L134.542 317.875C134.542 317.375 136.667 312.125 141.417 311.625C141.417 311.625 144.167 311.458 148.458 311.458V311.5ZM120 321.208C120.659 321.991 121.449 322.653 122.333 323.167C116.708 325.542 102.125 341.167 102.125 341.167C109.5 330.25 119.125 322.083 119.208 322C119.208 321.875 119.625 321.75 119.625 321.625C119.625 321.5 120.042 321.333 120.042 321.208H120ZM150.708 334.333C152.292 334.125 159.75 333.833 163.208 345.583C162.001 342.531 159.984 339.866 157.375 337.875C155.848 336.816 154.128 336.068 152.312 335.675C150.496 335.281 148.62 335.25 146.792 335.583C147.972 334.846 149.319 334.416 150.708 334.333ZM97.2917 642.583V678.958C97.2917 689.583 94.9583 696.708 89.7917 701.875C82.9167 708.625 71.5833 711.375 54.7917 711.375H0V722.042H59.5C87.7083 722.042 107.667 718.208 118.042 707.583C124 701.5 126.875 693.875 126.875 681.333V642.583H97.2917ZM209.292 642.583L140.417 722.083H157.583L172.083 705.167H259.75L274.333 722.083H307.5L238.5 642.625L209.292 642.583ZM379.542 642.583C359.417 642.583 347.375 644.917 336.625 650.917C331.043 653.969 326.411 658.501 323.235 664.013C320.06 669.526 318.465 675.807 318.625 682.167C318.625 698.208 325.917 709.917 341.833 716.333C351.375 720.208 364 722.042 380.042 722.042H465.667V685.583H436.208V711.417H389C373.75 711.417 364.833 709.208 358.292 704.208C352.042 699.417 348.75 692.167 348.75 682.333C348.75 672.792 351.875 665.667 357.708 660.958C364.292 655.625 372.917 653.208 388.75 653.208H462.667V642.583H379.542ZM615.208 642.583V681.083C615.208 691.083 613.958 697.458 610.125 702.75C603.708 711.792 593.583 715.042 572.792 715.042H570.292C550.458 715.042 539.417 711.792 533 702.792C529.208 697.458 527.917 691.417 527.917 681.083V642.625H498.333V682.208C498.333 692.458 499.458 700.542 504.583 707.333C513 718.333 528.5 724.667 571.25 724.667H571.708C614.708 724.667 630.125 718.333 638.542 707.333C643.708 700.542 644.792 692.458 644.792 682.208V642.625L615.208 642.583ZM726.75 642.583L657.833 722.042H675L689.542 705.125H777.167L791.75 722.042H824.917L755.917 642.583H726.75ZM851.167 642.583V722.083H880.75V694.542H919.625L963.958 722.042H1000L953.458 694C964.542 693.625 974 691.917 981.25 688.042C984.734 686.104 987.616 683.243 989.579 679.773C991.542 676.303 992.509 672.359 992.375 668.375C992.375 657.75 987.625 650.958 979 647.125C971.292 643.792 961.792 642.625 942.917 642.625L851.167 642.583ZM880.75 652.583H939.042C950.125 652.583 955.042 653.667 958.417 656.167C961.625 658.583 962.792 662.25 962.792 667.958V669.458C962.792 674.583 961.542 678.75 957.792 681.375C954.042 683.958 948.875 684.5 939.417 684.5H880.75V652.583ZM215.833 654.167L250.833 694.875H180.917L215.833 654.167ZM733.292 654.167L768.292 694.875H698.292L733.292 654.167Z" fill="black"/>
</svg>
