<svg width="1000" height="1000" viewBox="0 0 1000 1000" fill="none" xmlns="http://www.w3.org/2000/svg">
<g clip-path="url(#clip0_8_65)">
<path d="M362.542 773.375C362.542 773.375 324.292 795.625 389.75 803.125C413.708 806.667 441.375 808.708 469.458 808.708C514.625 808.708 558.542 803.5 600.667 793.583L596.792 794.333C612.375 803.833 630.5 812.875 649.375 820.333L651.833 821.167C456.083 905.083 208.792 816.292 362.583 773.333L362.542 773.375Z" fill="black"/>
<path d="M338.625 663.875C338.625 663.875 295.75 695.625 361.208 702.375C389.833 705.958 422.958 708.042 456.583 708.042C517.458 708.042 576.75 701.292 633.75 688.542L628.375 689.542C639.833 700.292 653.542 708.833 668.708 714.375L669.542 714.625C432.875 783.833 169.208 720.083 338.625 663.875Z" fill="black"/>
<path d="M540.25 478.125C588.5 533.667 527.583 583.625 527.583 583.625C527.583 583.625 650.042 520.292 593.833 441.208C541.292 367.375 501 330.667 719.083 204.208C719.083 204.208 376.75 289.708 540.25 478.125Z" fill="black"/>
<path d="M799.167 854.375C799.167 854.375 827.417 877.708 768.042 895.708C655.042 929.958 297.75 940.292 198.458 897.083C162.792 881.542 229.708 860 250.708 855.5C260.375 853.042 271.5 851.625 282.958 851.625H285.333H285.208C245.542 823.667 28.7499 906.542 175.208 930.208C574.333 994.958 902.792 901.042 799.292 854.375H799.167Z" fill="black"/>
<path d="M380.917 550.417C380.917 550.417 199.167 593.583 316.542 609.25C348.167 611.875 385.042 613.333 422.208 613.333C469.667 613.333 516.542 610.917 562.708 606.208L556.917 606.708C632.125 600.375 707.667 586.708 707.667 586.708C689.958 594.458 674.958 602.625 660.75 611.917L661.958 611.167C477.375 659.708 120.875 637.125 223.5 587.458C268.75 564 322.333 550.25 379.083 550.25H381H380.917V550.417Z" fill="black"/>
<path d="M706.917 732.708C894.5 635.208 807.792 541.542 747.208 554.125C738.917 555.667 731.709 557.667 724.75 560.208L725.709 559.917C729.667 554.333 735.125 550.042 741.5 547.625L741.75 547.542C861.5 505.458 953.667 671.75 703.083 737.542C704.625 736.167 705.875 734.542 706.792 732.75L706.834 732.667L706.917 732.708Z" fill="black"/>
<path d="M593.833 4.06951e-05C593.833 4.06951e-05 697.75 103.917 495.25 263.75C332.917 391.958 458.208 465.042 495.25 548.583C400.5 463.083 330.958 387.833 377.583 317.75C446.083 214.917 635.792 165.083 593.833 -0.041626V4.06951e-05Z" fill="black"/>
<path d="M399.375 996.875C579.375 1008.42 856.042 990.458 862.708 905.292C862.708 905.292 850.125 937.583 713.875 963.25C638.625 976.833 552 984.583 463.542 984.583C391.083 984.583 319.875 979.375 250.167 969.333L258.125 970.292C258.125 970.292 281.167 989.375 399.5 996.958L399.375 996.875Z" fill="black"/>
</g>
<defs>
<clipPath id="clip0_8_65">
<rect width="1000" height="1000" fill="white"/>
</clipPath>
</defs>
</svg>
