<svg width="1000" height="1000" viewBox="0 0 1000 1000" fill="none" xmlns="http://www.w3.org/2000/svg">
<g clip-path="url(#clip0_9_515)">
<path d="M172.083 300.417H253.292V513.5C253.292 550.167 237.542 627.042 124.875 627.042C12.2083 627.083 0 555.458 0 515.292V475.958H78.5833V514.417C78.5833 537.958 94.3333 559.833 124 559.833C153.708 559.833 172.042 543.208 172.042 515.25V300.417H172.083ZM347.583 481.25C347.583 457.625 357.167 438.417 384.25 438.417C412.208 438.417 424.417 459.375 424.417 481.208H347.583V481.25ZM379.042 389.5C304.792 389.5 271.583 457.625 271.583 516.167C271.583 574.667 309.167 631.417 386 631.417C453.25 632.292 497.792 588.625 497.792 556.333H423.542C423.542 556.333 414.792 577.25 388.625 577.25C362.417 577.25 347.583 562.417 347.583 526.625H498.667C498.667 413.958 442.792 389.542 379.042 389.542V389.5ZM590.375 481.208C590.375 457.625 599.958 438.417 627.042 438.417C655 438.417 667.208 459.375 667.208 481.208H590.417H590.375ZM621.792 389.542C547.583 389.542 514.375 457.625 514.375 516.125C514.375 574.667 551.958 631.417 628.792 631.417C696.042 632.292 740.583 588.625 740.583 556.333H666.333C666.333 556.333 657.583 577.25 631.417 577.25C605.25 577.25 590.333 562.417 590.333 526.625H741.417C741.417 413.958 685.583 389.542 621.833 389.542H621.792ZM834.75 513.5C835.667 469 853.125 450.667 876.708 450.667C915.125 450.667 922.125 480.333 922.125 510.917C922.125 541.458 916.875 581.625 880.208 581.625C843.542 581.625 833.958 558.083 834.792 513.5H834.75ZM836.542 699.542V606.083C839.667 610.25 841.458 612.25 847 616.583C855.75 623.375 870.583 634.917 903.792 634.917C964.042 634.917 998.958 582.542 998.958 510.917C998.958 418.333 940.458 392.167 902.917 392.167C865.375 392.167 851.25 409.583 846.167 415.708C840.292 422.792 838.375 426.792 835.667 432.583V398.25H760.542V699.542H836.542ZM968.458 664.625V689.292H972.792V679.542H976.208C978.542 679.542 980.167 679.833 981.083 680.375C982.625 681.292 983.375 683.167 983.375 686V687.958L983.458 688.792L983.542 689.042L983.583 689.292H987.667L987.5 689C987.348 687.965 987.265 686.921 987.25 685.875V684.042C987.25 682.792 986.792 681.542 985.917 680.208C985.409 679.533 984.764 678.972 984.025 678.562C983.285 678.153 982.467 677.905 981.625 677.833C982.887 677.668 984.104 677.258 985.208 676.625C986.833 675.583 987.625 673.958 987.625 671.75C987.625 668.667 986.375 666.583 983.833 665.5C981.652 664.819 979.365 664.536 977.083 664.667H968.458V664.625ZM981.75 668.5C982.833 669.125 983.417 670.333 983.417 672.125C983.417 674.042 982.542 675.292 980.833 675.958C979.505 676.399 978.107 676.596 976.708 676.542H972.792V667.583H976.542C978.917 667.583 980.667 667.917 981.75 668.5ZM993.417 692.958C995.543 690.887 997.224 688.403 998.356 685.659C999.488 682.915 1000.05 679.968 1000 677C1000.04 674.051 999.481 671.125 998.348 668.401C997.216 665.678 995.538 663.216 993.417 661.167C991.348 659.051 988.87 657.38 986.133 656.255C983.396 655.13 980.458 654.575 977.5 654.625C974.554 654.577 971.63 655.133 968.906 656.258C966.183 657.383 963.72 659.053 961.667 661.167C959.553 663.22 957.883 665.683 956.758 668.406C955.633 671.13 955.077 674.054 955.125 677C955.125 683.25 957.292 688.583 961.625 692.958C963.674 695.094 966.141 696.784 968.873 697.924C971.604 699.064 974.541 699.629 977.5 699.583C980.468 699.622 983.413 699.05 986.151 697.903C988.889 696.756 991.362 695.059 993.417 692.917V692.958ZM963.833 663.333C967.625 659.583 972.167 657.667 977.5 657.667C982.833 657.667 987.417 659.542 991.167 663.333C994.917 667.083 996.792 671.667 996.792 677C996.792 682.417 994.917 687 991.208 690.75C989.442 692.597 987.311 694.057 984.952 695.04C982.593 696.022 980.055 696.505 977.5 696.458C974.954 696.507 972.426 696.029 970.074 695.054C967.722 694.079 965.597 692.628 963.833 690.792C962.024 688.995 960.596 686.85 959.637 684.487C958.678 682.124 958.206 679.592 958.25 677.042C958.207 674.494 958.684 671.965 959.651 669.608C960.618 667.251 962.055 665.116 963.875 663.333" fill="black"/>
</g>
<defs>
<clipPath id="clip0_9_515">
<rect width="1000" height="1000" fill="white"/>
</clipPath>
</defs>
</svg>
