<svg width="1000" height="1000" viewBox="0 0 1000 1000" fill="none" xmlns="http://www.w3.org/2000/svg">
<path d="M62.5 62.5V937.5H937.5V62.5H62.5ZM538.688 744.906C538.688 830.062 488.688 868.938 415.844 868.938C350.031 868.938 311.938 834.969 292.406 793.75L359.406 753.312C372.312 776.156 384.031 795.5 412.344 795.5C439.281 795.5 456.469 784.938 456.469 743.75V464.25H538.688V744.906ZM733.188 868.938C656.812 868.938 607.406 832.625 583.375 784.938L650.375 746.281C667.969 775 691 796.281 731.438 796.281C765.406 796.281 787.312 779.281 787.312 755.656C787.312 727.531 765.031 717.562 727.344 700.969L706.844 692.188C647.469 667 608.219 635.156 608.219 568.156C608.219 506.438 655.281 459.562 728.531 459.562C780.875 459.562 818.375 477.719 845.344 525.375L781.281 566.406C767.219 541.219 751.969 531.25 728.344 531.25C704.344 531.25 689.094 546.5 689.094 566.406C689.094 591.031 704.344 600.969 739.688 616.406L760.188 625.188C830.125 655.062 869.375 685.75 869.375 754.469C869.375 828.312 811.156 868.906 733.219 868.906L733.188 868.938Z" fill="black"/>
</svg>
