<svg width="1000" height="1000" viewBox="0 0 1000 1000" fill="none" xmlns="http://www.w3.org/2000/svg">
<path d="M960.938 809.75C956.938 792.771 950.917 776.041 941.792 760.875C923.646 730.333 895.979 707.021 866.917 688.187C837.562 669.416 806.167 654.354 774.042 641.958C712.521 618.187 715.5 618.979 673.979 604.166C581.979 571.375 530.896 522.625 527.688 469.75C526.146 444.146 551.146 360.708 654.229 380.541C678.708 385.25 701.875 391.854 724.688 402.146C745.708 411.646 807.062 441.396 828.562 483.75C830.188 502.437 836.771 509.666 863.062 522.083C882.833 531.416 902.792 541.562 904.583 564.562C904.688 565.812 905.646 566.833 907.312 567.083C908.396 567.083 909.396 566.437 909.833 565.396C913.625 556.25 928.896 544.791 940.271 547.916C941.583 548.25 942.75 547.729 943.354 546.646C943.979 545.562 943.771 544.229 942.917 543.354L924.938 525.562C918.458 519.104 911.375 510.541 905.375 499.541C903.75 496.583 902.354 493.666 901.125 490.854C900.333 488.896 899.542 486.958 898.75 485C883.667 445.521 855.562 403.229 826.562 375.833C810.812 360.687 793.479 347.354 775 335.979C756.438 324.771 737.104 314.812 715.979 308.854L714.438 314.187C734.167 321 752.625 331.875 769.896 343.75C787.146 355.812 803.083 369.646 817.25 384.979C837.479 406.479 853.417 431.437 864.792 458.146L823.271 406.541L824.417 424.416L790.396 386.062L792.5 404.021L759.458 377.375L762.292 389.541C754.854 384.625 688.854 358.375 655.917 346C622.979 333.625 557.896 272.583 576.667 195.333C576.667 195.333 545.896 183.375 523.854 175.229C502.125 167.396 480.312 160.291 458.438 153.437C414.688 139.729 370.688 127.229 326.458 115.562C282.229 103.958 237.708 93.4372 192.938 84.1455C148.146 74.958 103.104 66.7705 57.5208 62.208L56.7083 69.1455C101.562 76.0413 145.833 86.4997 189.771 97.9372C233.688 109.5 277.312 122.229 320.583 136.041C363.833 149.896 406.813 164.583 449.271 180.375C470.479 188.271 491.625 196.396 512.333 205.125C516.729 206.958 521.208 208.875 525.688 210.791C500.188 205.771 474.688 201.791 449.167 198.479C403.104 192.625 357 188.937 310.854 186.854C264.729 184.771 218.563 184.437 172.479 186.146C126.417 187.937 80.3333 191.541 34.875 199.333L35.7708 205.666C81.1875 201 126.917 200.541 172.5 201.854C218.104 203.25 263.625 206.666 308.896 211.791C354.146 216.916 399.208 223.604 443.667 232.333C471.083 237.771 498.333 244.083 524.979 251.521C503.917 249.416 482.958 248.875 462.188 249.125C421 249.75 380.396 254.271 340.354 261.083C300.312 267.958 260.812 277.187 222.125 289.125C183.562 301.187 145.438 315.521 110.438 335.979L112.854 340.312C148.688 323.062 187.188 312.021 225.896 303.25C264.688 294.625 304.042 288.708 343.479 285.166C382.875 281.666 422.479 280.5 461.458 283.062C496.125 285.354 530.562 290.625 562.083 300.75C563.438 310.021 569.708 328.791 572.729 338.166C484.083 378.937 472.854 452.271 480.104 491.604C488.625 537.729 522 572.896 561.438 595.666C594.083 614.229 627.438 626.062 659.896 638.312C692.292 650.458 724.375 662.125 752.958 678.271C781.125 693.833 804.542 717.875 823.604 745.146C861.875 800.104 877.188 869.396 881.771 937.75L889.375 937.541C889.542 868.312 879.583 795.833 842.458 733.125C830.208 712.583 815.083 693.104 797.229 676.187C817.896 684.187 838.083 693.229 857.375 703.958C885.979 720.187 912.938 740.396 931.292 767.521C940.542 781 947.021 796.166 951.771 811.958C955.979 827.937 957.917 844.562 958.625 861.354H965.125C965.354 844.208 964.396 826.875 960.938 809.75Z" fill="black"/>
</svg>
