<svg width="1000" height="1000" viewBox="0 0 1000 1000" fill="none" xmlns="http://www.w3.org/2000/svg">
<path d="M580.125 590.625C580.125 592.542 580.75 593.625 581.833 593.625C582.712 593.506 583.544 593.162 584.25 592.625L895.917 390.375C901.182 386.688 907.491 384.789 913.917 384.958H982.417C992.917 384.958 1000 391.958 1000 402.458V533.25C1000 549.083 996.5 558.25 982.5 566.625L899.417 616.625C898.591 617.198 897.627 617.543 896.625 617.625C895.625 617.625 894.625 616.833 894.625 613.958V461.333C894.625 459.542 894.125 458.375 892.917 458.375C892.033 458.473 891.195 458.82 890.5 459.375L662.75 607.333C657.594 610.843 651.487 612.689 645.25 612.625H494.25C483.667 612.625 476.667 605.625 476.667 595.042V406.542C476.667 405.167 476.042 403.875 474.833 403.875C473.967 403.991 473.147 404.336 472.458 404.875L322.167 495C320.667 496 320.25 496.708 320.25 497.417C320.25 498 320.583 498.625 321.583 499.708L428.958 607C430.375 608.417 431.375 609.5 431.375 610.708C431.375 611.708 429.75 612.5 427.875 612.5H330.833C323.208 612.5 317.333 611.417 313.208 607.292L248.125 542.292C247.879 541.996 247.574 541.755 247.23 541.583C246.885 541.411 246.509 541.311 246.125 541.292C245.417 541.331 244.73 541.546 244.125 541.917L135.375 607.333C130.175 610.826 124.012 612.604 117.75 612.417H17.7083C7 612.5 0 605.417 0 594.958V466.625C0 450.792 3.5 441.625 17.5833 433.292L101.25 383C101.899 382.588 102.648 382.357 103.417 382.333C104.75 382.333 105.417 383.583 105.417 386.5V558.333C105.417 560.125 105.833 560.958 107.125 560.958C108.023 560.819 108.878 560.477 109.625 559.958L391.958 390C397.432 386.316 403.952 384.503 410.542 384.833H562.542C573.042 384.833 580.125 391.833 580.125 402.333L580.042 590.583L580.125 590.625Z" fill="black"/>
</svg>
