<svg width="1000" height="1000" viewBox="0 0 1000 1000" fill="none" xmlns="http://www.w3.org/2000/svg">
<path d="M177.417 372.292L176.167 373.417V386.125L177.417 387.292H185.5C188.5 387.292 190.792 389.583 190.792 392.542V621.833C190.792 624.75 193.083 627.083 195.875 627.083H254.208C254.899 627.089 255.585 626.957 256.224 626.695C256.863 626.433 257.444 626.047 257.933 625.558C258.422 625.069 258.808 624.488 259.07 623.849C259.332 623.21 259.464 622.524 259.458 621.833V525.417C259.458 523.083 260.708 521.917 262.292 521.917C264.542 521.917 265.625 523.667 266.292 524.833L335.167 621.292C337.458 624.75 341.5 627.083 344.292 627.083H413.667C416.5 627.083 420.333 623.333 417.167 618.958L329.375 494.792L328.292 491.875L329.375 488.458L402.792 379.792C404.708 376.625 402.25 372.292 398.75 372.292H332.875C329.875 372.292 326.042 374.583 323.583 378.083L266.292 458.917C264.542 461.708 262.625 461.833 262.417 461.833H262.292C261.909 461.846 261.528 461.778 261.173 461.635C260.818 461.491 260.497 461.275 260.231 461.001C259.964 460.726 259.758 460.399 259.625 460.04C259.492 459.681 259.435 459.299 259.458 458.917V377.5C259.459 376.811 259.321 376.129 259.053 375.493C258.786 374.858 258.394 374.283 257.901 373.802C257.408 373.32 256.824 372.942 256.182 372.69C255.541 372.438 254.856 372.317 254.167 372.333L177.417 372.292ZM646.25 372.292L645.167 373.417V386.125L646.25 387.292H653.25C656.083 387.292 658.542 388.958 658.542 391.875L657.833 394.833L582.125 620.708V621.125C581.972 621.785 581.956 622.469 582.078 623.136C582.2 623.802 582.457 624.437 582.833 625C583 625.208 583 625.417 583.167 625.542C584.1 626.474 585.349 627.024 586.667 627.083H645.708C648.542 627.083 651.542 624.75 652.75 621.833L702.958 463.583C702.958 463.583 703.667 461.208 705.625 461.208C707.542 461.208 708.042 463.583 708.042 463.583L759 621.833C760.042 624.75 763.042 627.083 766 627.083H824.875C825.68 627.109 826.477 626.922 827.186 626.542C827.896 626.161 828.493 625.601 828.917 624.917C829.567 623.781 829.816 622.461 829.625 621.167C829.625 621.042 829.417 620.875 829.417 620.75L747.417 375.75C746.167 372.833 743.375 372.292 740.375 372.292H646.25ZM451.25 372.292L450.75 373.417V386.125L451.25 387.292H459.333C462.292 387.292 464.625 389.583 464.625 392.542V621.833C464.625 624.75 466.917 627.083 469.875 627.083H529.792C530.483 627.089 531.168 626.957 531.807 626.695C532.447 626.433 533.028 626.047 533.516 625.558C534.005 625.069 534.391 624.488 534.653 623.849C534.915 623.21 535.047 622.524 535.042 621.833V377.5C535.042 376.814 534.905 376.136 534.641 375.503C534.376 374.871 533.988 374.298 533.499 373.817C533.01 373.336 532.431 372.957 531.794 372.702C531.158 372.448 530.477 372.322 529.792 372.333L451.25 372.292ZM941.333 500C941.333 620.917 743.375 719.333 499.917 719.333C256.458 719.333 58.5 620.917 58.5 500C58.5 379.125 256.458 280.708 499.917 280.708C743.333 280.708 941.333 379.167 941.333 500ZM853.167 322.292C758.667 275.125 633.25 249.083 499.917 249.083C366.583 249.083 241.167 275.125 146.833 322.292C52 369.667 0 432.708 0 500C0 567.292 52 630.417 146.833 677.792C241.167 724.958 366.583 750.917 499.917 750.917C633.25 750.917 758.667 724.958 853.167 677.792C947.833 630.375 1000 567.292 1000 500C1000 432.708 947.833 369.667 853.167 322.292Z" fill="black"/>
</svg>
