<svg width="1000" height="1000" viewBox="0 0 1000 1000" fill="none" xmlns="http://www.w3.org/2000/svg">
<path d="M709.833 642.75H709.542C704 644.083 699.417 640.833 700.708 638.292C705.792 626.625 711.875 609.958 712.958 605.625C718 588.25 716.125 576.292 700.75 563.458C691.583 555.958 681.292 548.792 672 542.167C667.625 538.25 670.125 534.458 671.5 533.125C674.167 530.458 677.5 528.25 680.083 526.25C687.583 520.625 692.208 521.375 699 522.083C709.5 523.5 719.958 525.042 730.417 526.875C740.542 528.958 742.625 525.25 745.083 518.167L751 500.458C754.625 490.292 749.75 488.042 742.25 487.875L642.542 484C634.125 483.458 630.75 486 627.667 488.083C612.667 498.917 597.667 509.667 582.625 520.458C574.833 525.708 578.167 529.292 580.125 532.875L588.542 546.667C595.292 557.667 592.708 560.708 586.833 567.125C582.333 571.708 577.417 575.875 572.25 579.583L570.458 580.833C555.042 591.75 539.208 596.667 525.708 598.958C493.375 603.417 463 604.083 436.208 604.542C376.681 605.407 317.159 602.499 258 595.833C255.719 595.538 253.404 595.981 251.394 597.099C249.384 598.216 247.786 599.949 246.833 602.042L237.667 622.042C237.056 623.349 235.973 624.376 234.636 624.917C233.299 625.458 231.806 625.473 230.458 624.958C145.042 594.583 91.1667 549.958 91.1667 500.25C91.1667 431.542 193.958 372.542 340.625 347.333C343.625 346.75 345.333 347.958 346.042 348.583C349.25 351.292 352.5 354 355.625 356.833C357.667 358.583 357.208 360.375 356.75 361.833L278.458 532.875L265.833 560.417C263.167 567.167 268.958 569.292 270.958 569.292C324.5 572.042 377.042 571.083 424.917 566.375C477.417 561.75 510.417 550.417 551.167 525.458C582.509 506.157 612.257 484.38 640.125 460.333C655.625 446.458 663.625 438.708 673.667 426.125C691.208 403.542 694.667 381.125 680.875 355.792C679.375 352.292 683.375 351.833 684.875 352.042C817.958 379.417 909.208 435.542 909.208 500.25C909.208 560.792 829.208 613.792 709.833 642.75ZM380.625 379.917C384.083 383.333 386.625 386 389.875 389.417C398.417 399.125 405.208 407.875 404.708 424.5C404.458 435.083 399.417 447.917 392.292 460.333C385.208 473 376.75 484.875 367.208 495.75C353.25 512.417 339 519.667 320.125 524.458C316.708 525.125 316.083 522.208 316.792 520.417L375.625 380.875C377.333 377.833 379.875 379.25 380.625 379.917ZM501.708 367.708C497.164 355.32 490.034 344.043 480.792 334.625C479.85 333.712 478.986 332.723 478.208 331.667C477.625 330.667 476.542 328.833 477.792 327.208C479.458 325.292 481.583 326.167 482.333 326.583C487.917 329.25 507 340 517.25 367.583C525.542 389.833 520.167 411.917 499.292 441.375C471.917 479.958 448.333 509 394.042 530.833C370.333 540.417 331.542 543.958 312.792 543.958C306.292 544.042 302.583 543.25 301.5 540.792C301.238 540.317 301.107 539.781 301.122 539.239C301.137 538.697 301.296 538.168 301.583 537.708C303.333 535.375 305.958 535.75 308.25 535.75C329.375 535.75 367.375 528.542 390.167 517.875C438.083 495.417 462 465.458 482.375 436.708C496.125 417.417 510.625 392.125 501.708 367.708ZM586.708 374.792C584.958 362.417 576.542 351.667 571 344.542L566.625 338.917C565.208 337.25 563.625 335.375 565.375 333.5C568.167 330.667 572.583 334.042 573.5 334.625C582.667 340.792 598.625 354.708 602.792 378.458C606.333 398.083 603.125 426.708 546.958 473.917C543.917 476.417 540.875 479.083 537.667 481.917C514.167 502.333 484.958 527.792 420.5 549C398.167 556.292 355.875 561.625 319.917 561.625C313.375 561.625 307.375 561.417 302 561.042C296 560.625 294.208 558.542 293.75 556.875C293.615 556.425 293.587 555.951 293.666 555.488C293.746 555.025 293.931 554.587 294.208 554.208C295.042 553.125 296.708 552.458 298.792 552.417C358.875 551.167 379.625 547.417 415.583 535.917C469.125 518.75 508.083 487.042 535.958 461.333C591.708 409.958 588.458 387.083 586.75 374.792H586.708ZM500 292.5C223.833 292.5 0 385.375 0 500C0 614.583 223.833 707.5 500 707.5C776.167 707.5 1000 614.583 1000 500C1000 385.417 776.167 292.5 500 292.5Z" fill="black"/>
</svg>
