<svg width="1000" height="1000" viewBox="0 0 1000 1000" fill="none" xmlns="http://www.w3.org/2000/svg">
<path d="M500.234 40C392.422 40 287.578 55 216.25 77.6563C120.391 107.656 100.391 120.781 100.391 186.406C100.391 531.172 236.172 723.047 356.406 838.047C419.609 898.438 477.969 942.422 500.234 942.422C522.422 942.422 580.781 898.438 643.984 838.047C764.219 723.047 900 531.172 900 186.406C900 120.781 880 107.656 784.219 77.6563C712.812 55 608.203 40 500.234 40ZM468.438 146.406C482.969 146.406 494.766 161.016 494.766 190.156C494.766 219.375 482.969 233.75 468.438 233.75C453.828 233.75 441.953 224.609 441.953 190.156C441.953 171.719 446.562 159.219 453.672 152.5C456.406 149.766 459.609 147.969 463.125 147.031C464.844 146.641 466.562 146.406 468.438 146.406ZM503.984 147.344C503.984 147.344 527.812 148.359 533.438 148.594C538.984 148.828 553.594 154.219 553.594 172.188C553.594 190.156 541.25 194.609 541.25 194.609L554.609 233.75L538.047 233.203L525 197.188H519.219L518.984 232.422H503.984V147.344ZM584.375 148.75C608.594 148.75 610.391 175 610.391 175L595 177.656C595 177.656 592.578 164.219 585.781 164.219C578.984 164.219 574.375 176.406 574.375 191.406C574.375 206.641 577.812 221.797 586.953 221.797C594.766 221.797 595 212.578 595 210.781C595 208.75 594.766 205.781 594.766 205.781L586.25 205.234V190.391L610.234 192.344V212.188C610.234 216.406 610.234 236.797 587.812 236.797C565.391 236.797 559.375 213.984 559.375 189.844C559.375 165.391 567.422 148.75 584.375 148.75ZM412.578 151.016C414.531 150.937 416.094 151.484 417.812 151.875C419.062 152.109 420.391 152.109 421.484 152.5C422.891 153.125 423.984 154.141 425.234 155C426.094 155.703 427.109 156.172 427.891 156.953C428.984 158.125 429.766 159.609 430.547 161.094C431.016 161.953 431.719 162.578 432.109 163.516C433.047 166.016 433.594 168.672 433.594 171.562C433.594 183.125 429.609 186.797 425.625 189.766C434.766 193.984 435 206.406 435 207.422C435 231.797 417.031 235.391 414.219 235.625C411.25 236.016 386.562 237.969 386.562 237.969V153.203C386.562 153.203 402.031 151.641 412.578 151.016ZM621.562 153.984L636.953 156.406V188.594L656.25 191.406V158.75L671.797 162.031V246.406L655.781 243.594L656.25 206.406L636.797 203.75L636.406 241.25L621.562 238.984V153.984ZM374.375 154.219V239.609L358.984 241.406L360.234 199.844L344.375 250.234L328.75 198.75L329.766 246.016L315.625 248.594C315.547 248.594 315.547 243.359 315.469 235.391C315.469 229.453 315.391 222.031 315.391 214.141C315.391 208.984 315.391 203.594 315.391 198.438C315.391 180.234 315.391 163.984 315.391 163.984L330.625 160.625L345 207.422L358.75 156.25L374.375 154.219ZM468.438 161.797C462.188 161.797 457.188 171.172 457.188 190.625C457.188 199.141 457.891 205.312 459.062 209.688C461.094 217.031 464.531 219.375 468.438 219.375C474.609 219.375 479.609 209.766 479.609 190.625C479.609 171.406 474.609 161.797 468.438 161.797ZM518.984 162.812V182.969H530.234C535 182.969 538.438 178.359 538.438 171.797C538.438 165 532.031 162.812 528.047 162.812H518.984ZM683.984 164.375L699.766 167.344V251.797L683.984 248.75V164.375ZM410.078 165.781C409.688 165.781 409.375 165.703 409.219 165.781C408.047 165.781 401.875 166.016 401.875 166.016V184.375C401.875 184.375 406.406 184.375 410 183.984C413.438 183.75 418.203 180 418.203 172.812C418.203 171.094 417.734 169.844 417.031 168.906C416.797 168.516 416.484 168.359 416.25 168.125C415.625 167.578 415.078 167.031 414.375 166.719C414.062 166.563 413.75 166.484 413.359 166.328C412.656 166.094 412.109 165.938 411.484 165.938C411.172 165.859 410.938 165.781 410.625 165.781C410.469 165.781 410.234 165.781 410.078 165.781ZM287.422 169.844L308.984 249.766L293.047 253.75L288.047 232.578L273.047 236.797L268.594 259.219L252.188 263.984L273.047 173.438L287.422 169.844ZM712.578 170L726.953 173.438L746.953 224.375V178.984L762.422 184.219V269.766L749.609 264.766L727.422 206.406V258.75L712.578 254.375V170ZM224.375 187.969V259.375L250.234 249.766V265L208.984 279.766V193.984L224.375 187.969ZM775 188.75L790.391 194.219V280L775 273.75V188.75ZM280.391 195.156L275.625 222.188L285.625 220L280.391 195.156ZM411.016 198.984C409.453 198.984 401.953 199.609 401.953 199.609V221.25C401.953 221.25 407.969 221.172 411.562 220.625C415.234 219.766 419.609 216.016 419.609 208.047C419.609 200.234 412.422 198.984 411.016 198.984ZM535.234 260.078C537.5 260 539.297 260.234 540.703 260.625H540.781C542.344 261.172 543.672 261.953 544.766 263.047C546.016 264.062 547.109 265.312 548.438 266.797C550.078 266.562 551.875 266.484 553.672 266.484C556.484 266.562 559.375 266.875 562.344 267.5C563.047 267.656 563.75 267.813 564.453 267.969C567.422 268.672 570.469 269.531 573.438 270.547C580.781 273.125 587.578 276.016 593.672 278.438C594.688 278.906 595.859 279.375 596.797 279.766C595.938 279.688 595.078 279.688 594.297 279.688C592.031 279.688 590 280 587.891 280.234C586.797 280.391 585.703 280.312 584.609 280.547C581.328 281.016 578.203 281.562 575.156 282.188C572.109 282.891 569.141 283.516 566.172 284.062C565.156 284.219 564.219 284.219 563.203 284.375C560.625 284.688 558.047 285 555.547 284.766C548.75 284.531 540.547 283.984 532.812 282.969C525 281.563 517.188 279.766 511.953 277.344C508.516 277.578 503.984 277.344 500.312 278.359C496.719 279.375 493.984 281.328 493.75 286.328C493.359 291.172 508.125 293.75 527.344 295.312C546.172 296.953 568.984 297.344 585.156 297.969C601.172 298.75 614.922 301.328 625.156 305.312C635.547 309.375 642.578 314.766 645 320.703C646.172 323.672 646.953 326.406 647.344 329.297C647.734 332.109 647.734 335.078 647.344 338.359C646.328 345.156 643.75 353.359 638.984 365.156C652.578 382.344 659.609 402.578 662.812 420.703C666.172 439.141 665.312 455.547 663.75 465.938C661.719 476.172 661.953 482.578 662.812 487.344C663.75 492.109 665.391 495.156 666.562 498.125C667.578 501.562 668.516 503.984 668.75 506.953C668.984 509.922 668.516 513.516 667.344 518.984C677.969 531.562 686.953 537.344 695 540.156C702.734 542.969 709.375 542.969 715.312 543.75C709.375 552.969 700 557.578 689.375 560C684.062 561.172 678.438 561.797 672.891 562.109C667.344 562.344 661.875 562.344 656.797 562.344C660.234 564.766 662.422 569.766 663.75 575.547C665 581.562 665.156 588.359 664.609 593.984C663.75 599.922 664.141 605.938 665 610.703C665.938 615.938 667.188 619.766 668.594 621.172C669.766 622.578 671.406 624.531 671.953 627.188C672.969 629.766 672.969 633.125 671.328 636.562C670.547 638.359 670.078 639.844 669.766 641.016C669.453 642.266 669.375 643.203 669.375 644.141C669.609 645.547 670.625 646.953 671.797 648.125C672.969 649.531 674.375 651.172 675.781 652.812C676.797 654.766 677.578 656.953 677.578 660.156C677.188 663.359 676.016 666.953 673.984 670.156C671.953 673.125 669.375 675.547 666.797 675.703C665.859 675.859 664.844 675.547 663.906 675.312C663.438 675.234 663.047 675.234 662.578 675.078C661.25 674.609 659.922 673.828 658.75 672.812C656.016 670.547 654.375 667.578 653.984 664.375C653.594 661.172 653.984 657.969 653.984 655C654.219 652.188 654.375 649.141 653.984 646.562C653.75 645.156 653.516 643.516 653.203 641.641C652.969 639.844 652.656 637.812 652.422 635.625C651.797 631.172 651.172 626.172 651.797 620.938C651.797 615.859 651.172 611.562 650.078 607.734C649.062 603.906 647.5 600.703 645.625 597.812C643.672 594.922 641.406 592.422 638.984 590.312C636.562 588.125 633.906 586.25 631.172 584.375C630.391 585.547 628.984 586.719 627.188 588.047C625.469 589.297 623.359 590.703 621.172 592.188C618.984 593.75 616.641 595.391 614.375 597.031C612.109 598.672 609.844 600.391 607.969 602.188C605.938 603.75 604.297 605.938 602.812 608.438C601.25 610.938 600 613.828 598.75 616.797C596.562 622.422 595 628.438 593.75 632.812C598.594 636.25 598.438 641.562 596.562 647.188C594.609 652.578 591.406 657.578 589.766 660.234C588.438 662.969 587.578 664.375 584.375 665.391C581.406 666.172 575.625 666.406 564.375 666.406C553.438 666.172 545.391 663.75 540 660.781C534.609 657.344 531.562 653.594 530.391 650.234C529.219 647.188 528.047 643.594 526.25 640.391C524.375 637.188 522.188 633.828 519.766 631.016C519.609 632.188 519.375 633.984 518.594 636.25C517.969 638.203 516.641 640.625 514.609 643.203C512.812 645.781 511.172 650 509.609 654.219C508.047 658.438 507.031 662.578 506.562 665.391C505.781 667.969 504.375 669.375 501.562 670.234C500.312 670.469 498.828 670.547 497.109 670.547C495.156 670.469 492.891 670.312 490.234 670C485.391 669.219 483.203 666.406 482.812 663.047V662.422C482.812 661.562 482.812 660.781 483.047 659.766C483.047 659.375 482.969 659.375 483.203 659.375C483.594 657.031 484.375 654.609 485.781 652.578C487.578 649.609 490.781 645.391 493.594 641.406C496.797 637.812 499.609 633.984 501.016 631.797C502.422 629.609 503.984 627.969 504.375 626.406C504.844 624.844 504.609 623.594 502.422 621.953C501.094 621.25 500.312 620.781 499.688 620.391C499.375 620.312 499.141 620.078 498.828 620.078C498.75 620.078 498.594 620.156 498.438 620.234C497.578 620.781 496.406 622.188 493.984 625.391C491.562 628.203 490.391 631.562 488.438 635.391C486.562 638.984 484.219 643.203 480.625 647.812C476.797 652.578 474.219 657.188 472.578 661.406C471.016 665.625 470 669.219 469.609 672.578C468.984 675.625 467.578 678.828 466.562 681.953C465.234 685.156 464.453 688.203 464.219 690.781C463.984 693.75 464.766 696.016 465.234 698.594C465.625 701.172 465.625 703.984 464.219 708.047C462.656 711.797 460.156 715 456.953 716.953C455.234 717.891 453.281 718.516 451.172 718.984C450.391 719.141 449.453 719.141 448.672 719.219C446.875 719.453 445.234 719.688 443.203 719.609C437.188 719.375 433.594 717.422 431.406 714.766C429.219 712.422 428.203 709.453 428.438 707.031C428.438 704.844 430 701.641 432.578 697.812C435.391 694.219 439.219 689.844 443.75 685.391L446.797 682.188C449.375 678.438 450.781 674.062 451.406 670C452.578 664.453 452.422 659.062 452.578 655.391C452.578 652.031 455 646.641 457.812 641.016C460.625 635.781 463.984 630.625 466.406 627.422C468.828 624.453 468.984 621.016 467.578 617.578C466.406 614.453 463.438 611.641 460 610.234C456.406 608.672 454.219 606.25 452.422 603.672C450.547 600.859 449.375 598.047 448.203 595.234C447.031 592.656 447.578 589.453 446.953 586.875C446.797 584.219 445.781 582.031 441.797 581.406C441.172 581.25 440.547 581.25 440 581.25C439.141 581.25 438.516 581.562 437.812 581.875C437.5 581.953 436.953 581.953 436.641 582.188C435.469 582.891 434.531 583.828 433.75 585C431.797 587.656 430.625 591.25 428.75 594.219C426.797 597.422 425 600.625 423.594 604.766C422.422 608.594 421.406 613.828 421.016 619.766C420.781 626.172 418.047 635.234 414.375 643.203C411.016 651.641 407.031 658.594 404.766 661.25C402.422 663.828 401.016 664.609 399.219 665.859C397.656 666.641 396.016 667.969 393.594 671.406L388.594 682.031C386.016 686.797 385.234 693.047 384.609 699.609C383.828 706.016 383.359 712.188 382.422 716.406C381.172 721.016 378.203 725 373.75 727.422C371.797 728.516 369.375 729.219 366.953 729.688C366.328 729.766 365.547 729.766 364.922 729.922C362.344 730.156 359.688 730.234 356.797 729.609C350.234 728.594 347.031 725.234 346.25 721.25C346.25 720.781 346.016 720.469 346.016 720C346.016 717.422 347.031 714.609 348.438 711.797C349.219 710.781 349.766 709.609 350.625 708.75C353.984 704.766 358.594 698.984 363.203 692.812C367.422 686.797 371.953 680.234 375.625 675C378.75 670 380.391 664.609 381.406 659.219C382.578 654.844 383.594 649.844 385.781 644.375C386.016 643.438 386.562 642.422 386.953 641.406C387.578 640 388.203 638.438 388.984 636.562C391.016 631.172 392.812 625.391 394.219 618.984C396.016 610.547 396.953 601.641 397.422 592.812C397.812 583.828 399.375 575.625 401.25 568.203C402.188 564.531 403.125 560.938 404.062 557.578C405 554.297 405.859 551.172 406.797 548.438C407.578 545.469 408.438 542.188 409.297 538.516C410.078 534.922 410.781 531.016 411.328 526.953C412.969 518.984 413.984 510.625 414.141 503.594C414.766 496.406 417.188 490.234 420 484.766C422.734 479.219 425.938 474.375 427.969 469.609C430 464.844 431.172 459.609 434.141 450.391C437.188 441.016 441.953 427.578 451.562 406.562C461.172 385.625 479.375 370 496.953 358.75C510.078 350.234 522.734 344.297 531.25 340.547C534.062 339.219 536.406 338.203 538.125 337.422C541.328 335.781 544.922 334.844 548.516 334.297C549.766 334.062 550.938 334.062 552.188 333.984C555.156 333.672 558.047 333.438 560.938 333.594C568.75 334.219 576.797 336.562 582.969 340C589.531 343.438 597.031 345.234 603.438 346.016C610 347.031 615.391 346.953 618.438 347.188C622.188 344.219 625.156 341.953 626.172 338.75C626.406 338.047 626.562 337.266 626.484 336.328C626.406 334.531 625.703 332.422 624.219 329.922C623.516 328.672 622.5 327.266 621.328 325.781C616.797 319.609 602.578 316.406 584.141 314.219C565.781 312.031 543.359 311.406 522.969 310.234C517.812 309.922 513.203 309.531 509.062 308.984C496.484 307.344 488.047 304.297 482.422 300.625C480.547 299.297 479.141 297.891 477.891 296.406C474.297 291.953 473.125 286.719 473.594 281.016C473.828 273.203 478.203 269.609 483.438 267.422C488.594 265.156 494.766 265 499.375 264.375C503.594 263.594 506.953 263.438 510.625 263.203C514.609 262.969 518.984 262.578 526.172 261.016C529.531 260.469 532.188 260.234 534.453 260.078C534.766 260.078 535 260.078 535.234 260.078ZM544.375 352.5C542.656 352.5 540.703 353.047 538.75 353.438C537.891 353.594 537.109 353.594 536.25 353.828C532.969 354.688 529.531 355.938 525.938 357.578C518.594 361.25 510.938 366.172 504.766 371.562C498.359 377.188 491.172 381.953 485.156 387.188C479.141 392.422 473.984 398.438 471.328 406.25C468.75 414.375 465 424.609 461.172 433.984C457.578 443.594 453.984 452.188 451.797 456.562C449.531 460.781 445.156 469.844 441.172 479.609C441.094 479.844 441.094 480 440.938 480.234C439.375 484.219 438.047 488.203 436.875 492.109C436.719 492.656 436.484 493.203 436.328 493.75C435.391 497.656 434.844 501.172 434.688 504.375C434.688 504.688 434.531 505.156 434.531 505.547C434.531 505.938 434.531 506.406 434.609 506.875C434.453 508.516 434.375 510.234 434.375 511.797C434.375 512.188 434.453 512.5 434.453 512.891C434.531 515.625 434.766 518.125 435.312 520.234C435.391 520.391 435.312 520.625 435.391 520.781C435.938 522.344 436.797 523.594 437.812 524.375C438.125 524.688 438.516 524.609 438.828 524.766C439.453 525.078 440 525.625 440.703 525.625C441.172 525.625 441.719 525.547 442.188 525.391C445.625 524.766 447.031 521.797 448.438 518.984C450 516.172 451.406 513.594 455.391 513.594C458.984 513.594 461.016 513.984 462.422 514.766C463.594 515.625 464.531 516.641 466.328 517.812C467.969 518.594 470.156 520.391 472.422 521.25C473.203 521.562 474.062 521.875 474.922 521.875C475.078 521.797 475.234 521.719 475.391 521.719C475.625 521.719 475.781 521.641 475.938 521.562C476.953 521.328 477.812 520.781 478.75 519.688C478.75 519.609 478.75 519.688 478.75 519.609H478.828C480.625 517.266 483.203 516.25 485.781 516.016C486.719 515.859 487.734 515.859 488.75 515.938C490.234 516.016 491.797 516.172 493.125 516.406C493.984 516.484 494.766 516.562 495.625 516.562C496.953 516.562 498.359 516.406 499.766 516.016C501.797 515.391 503.594 513.828 505.391 510.859C507.188 507.656 509.375 506.641 511.562 506.406C512.188 506.328 512.578 506.406 513.125 506.484C514.297 506.641 515.469 506.875 515.938 507.031C518.594 510.859 521.172 516.016 522.812 520.859C523.047 521.641 523.203 522.344 523.438 523.125C523.828 524.453 524.219 525.703 524.453 526.875C524.609 527.734 524.688 528.359 524.766 529.141C524.922 530.391 525.156 531.641 525 532.5V532.578C524.609 535 523.438 539.219 521.562 543.438C519.609 547.656 516.953 552.422 513.984 556.25C511.016 560.234 507.188 565.859 506.797 571.875C506.797 572.031 506.797 572.188 506.797 572.422C506.797 573.281 507.031 574.062 507.188 575C507.266 575.547 507.266 576.016 507.422 576.562C507.656 577.656 508.203 578.75 508.75 579.844C508.984 580.391 509.141 580.859 509.453 581.328C510.234 582.578 511.328 583.75 512.5 585C512.812 585.391 513.047 585.781 513.438 586.172C515.156 587.734 517.266 589.297 519.766 590.859C519.688 592.422 519.609 593.828 519.609 595C519.609 595.078 519.688 595.156 519.688 595.234C519.688 596.797 519.844 598.281 520.625 600C521.094 601.406 522.109 603.047 523.75 605.156C525.312 607.266 527.656 609.922 530.859 613.438C532.031 614.766 533.203 616.406 534.297 618.359C535.391 620.312 536.406 622.5 537.422 624.766C539.453 629.609 540.781 634.375 541.562 638.047C541.797 638.984 542.422 639.844 543.047 640C543.203 640.078 543.359 640.078 543.438 640.078C543.516 640.078 543.516 639.922 543.516 639.922C544.141 639.844 544.609 639.531 544.766 638.438C546.172 635 548.438 630.469 549.766 623.438C550.469 620.625 551.094 617.266 551.562 613.516C551.641 612.969 551.719 612.422 551.797 611.797C552.188 608.125 552.344 603.906 552.422 599.297C552.422 598.828 552.5 598.438 552.5 597.969C552.5 596.328 552.5 594.609 552.422 592.812C550.391 593.438 547.656 594.219 545 595.859C542.266 597.422 539.609 599.609 537.578 602.422C537.5 600.156 537.656 597.5 537.812 594.766C537.891 593.828 537.812 593.047 537.891 592.109C538.125 588.828 538.438 585.391 538.828 582.031C539.844 574.844 540.859 568.047 542.188 564.609C543.438 560.781 543.984 558.984 544.609 557.812C545.391 556.406 546.172 555.625 548.047 554.062C549.844 552.188 551.406 549.375 551.562 546.406C551.641 546.094 551.641 545.781 551.641 545.391C551.641 544.609 551.406 543.828 551.25 542.969C551.25 542.891 551.25 542.812 551.25 542.734C551.094 542.266 551.172 541.797 551.016 541.328C550.547 539.922 549.844 538.594 548.75 537.266C548.672 537.188 548.75 537.109 548.672 537.031C545.859 534.219 544.219 531.641 543.047 529.219C542.969 529.062 542.969 528.984 542.891 528.828C542.422 527.344 542.188 525.781 542.109 524.297C542.031 523.203 542.031 522.109 542.188 521.016C542.422 518.047 545.391 514.219 551.562 510.859C557.969 507.188 567.422 504.219 580.391 503.047C581.094 502.891 581.484 503.125 581.875 503.359H581.953C582.109 503.438 582.266 503.359 582.422 503.438L582.5 503.516C582.656 503.672 582.734 503.906 582.812 504.062C582.969 504.219 583.125 504.453 583.125 504.609C583.125 505.391 582.578 506.797 580.938 507.578C579.766 508.438 576.953 510.156 574.141 512.188C570.938 514.375 568.125 516.641 566.797 518.203C565.391 519.609 562.969 523.047 562.812 527.578C562.812 532.031 564.531 537.188 572.344 542.578C579.766 548.047 584.375 550.781 588.516 552.422H588.594C592.422 553.984 595.781 554.453 601.016 555C599.453 553.203 595.391 549.219 591.25 545.234C590.234 544.297 589.219 543.438 588.203 542.5C586.328 540.781 584.688 539.141 583.516 537.891C583.047 537.266 582.578 536.797 582.422 536.406C581.562 535 580.391 533.203 580.234 531.25C580.156 530.625 580.391 529.922 580.625 529.297V529.219C580.703 529.062 580.703 528.906 580.703 528.75C580.859 528.516 580.781 528.281 580.938 528.047H581.016C581.641 526.875 582.656 525.625 584.375 524.219C586.094 522.891 587.734 521.719 589.297 520.469C590.781 519.297 592.031 518.125 593.125 516.953C595.547 515.156 597.188 513.359 597.969 511.953C600.938 513.828 605.938 516.406 610.938 518.984C615.938 521.406 621.172 523.75 624.141 525C627.109 526.016 630.547 527.578 633.359 529.766C636.328 531.797 638.906 534.375 640.938 536.953C642.5 539.453 645.312 541.875 648.828 543.906C652.344 545.938 656.562 547.656 661.172 548.984C663.516 549.688 666.016 550.234 668.516 550.625C668.984 550.625 669.453 550.625 669.922 550.703C671.953 550.938 674.062 551.172 676.172 551.172C676.328 551.172 676.484 551.25 676.641 551.25C676.875 551.25 677.031 551.172 677.188 551.172C681.484 551.094 685.781 550.625 689.766 549.375H689.688C688.359 548.906 686.016 547.969 683.203 546.719C680.469 545.469 677.266 543.75 673.984 541.797C670.547 539.766 667.109 537.5 663.828 534.922C660.625 532.344 657.656 529.531 655.391 526.406C652.188 521.797 650 520 647.969 518.594H647.891C645.703 517.188 643.75 516.797 640.938 515.938C638.125 514.766 632.578 513.203 626.797 510C621.172 507.031 615.234 502.578 611.797 496.016C608.203 489.844 605.781 480.625 603.75 471.953C601.562 463.828 600.156 456.016 598.594 452.812C597.031 449.844 594.375 446.641 591.953 442.812C589.766 438.984 587.578 434.375 586.797 428.047C586.172 421.797 585 415.391 583.984 409.766C582.812 403.984 581.406 399.219 579.609 396.016C577.578 392.578 576.172 387.188 574.766 382.188C573.359 376.953 572.188 372.188 570.391 370C568.828 367.812 565.391 363.828 560.938 360C558.672 358.203 556.25 356.484 553.672 355.078C551.094 353.75 548.438 352.812 545.703 352.578C545.312 352.578 544.844 352.5 544.375 352.5Z" fill="black"/>
</svg>
