<svg width="1000" height="1000" viewBox="0 0 1000 1000" fill="none" xmlns="http://www.w3.org/2000/svg">
<path d="M499.833 250.625C438.363 250.625 377.4 256.676 320.381 268.485C263.393 280.287 211.172 297.671 166.798 319.858C122.505 342.004 86.2609 368.826 60.987 399.334C35.5998 429.979 21.5 464.153 21.5 499.792C21.5 535.43 35.5998 569.604 60.987 600.249C86.2609 630.757 122.505 657.579 166.798 679.726C211.172 701.912 263.393 719.296 320.381 731.098C377.4 742.908 438.363 748.958 499.833 748.958C561.304 748.958 622.267 742.908 679.286 731.098C736.273 719.296 788.494 701.912 832.868 679.726C877.161 657.579 913.406 630.757 938.68 600.249C964.067 569.604 978.167 535.43 978.167 499.792C978.167 464.153 964.067 429.979 938.68 399.334C913.406 368.826 877.161 342.004 832.868 319.858C788.494 297.671 736.273 280.287 679.286 268.485L675.23 288.069L679.286 268.485C622.267 256.676 561.304 250.625 499.833 250.625Z" stroke="black" stroke-width="40"/>
<path d="M294.354 449.083C293.458 451.938 286.229 451.208 286.229 451.208H254.875C254.875 451.208 283.938 370.375 286.271 364.25C290.417 353.417 292.896 354.167 292.896 354.167H249.583C254.937 356.854 250.187 367.396 250.187 367.396C250.187 367.396 215.5 468.208 213.083 473.25C210.667 478.292 208.854 478.938 208.854 478.938H283.854L294.354 449.083ZM791.667 395.833H709.104L699.042 425.042H752.479L691.521 446.479L687.5 458.333L781.292 427.083L791.667 395.833ZM452.188 470.979C454.292 465.292 473.021 412.062 473.021 412.062L481.167 478.813H513.167L555.104 360.083C555.104 360.083 556.812 354.521 559.167 354.521L525.167 354.417C525.167 354.417 526.146 358.521 524.938 361.667C523.729 364.813 504.417 418.688 504.417 418.688L496.875 354.417H460.354C460.354 354.417 462.25 357.563 461.042 361.021C460.062 363.833 422.333 471.917 422.333 471.917C422.333 471.917 419.917 478.813 417.792 478.813H453.104C453.083 478.813 450.667 475.063 452.188 470.979ZM270.833 520.833L177.021 552.104L166.667 583.333H249.229L259.271 554.125H205.833L266.792 532.688L270.833 520.833ZM654.729 596.812L661.979 576.625H688.521C688.521 576.625 694.146 576.208 695.375 577.896L706.229 545.979C706.229 545.979 705.438 548.854 698.188 548.854C690.958 548.854 672.438 548.854 672.438 548.854L680.104 526.562H712.687C712.687 526.562 717.104 525.917 718.708 529.5L729.167 500H650.708C650.708 500 653.521 502.604 649.896 513.125C646.271 523.646 614.479 613.229 614.479 613.229C614.479 613.229 608.854 625 607.25 625C605.625 625 688.125 625 688.125 625L697.792 595.125C697.792 595.125 696.583 596.812 688.938 596.812C681.271 596.812 654.729 596.812 654.729 596.812ZM643.875 500.063H597.562C597.562 500.063 601.188 502.583 598.375 507.208C595.562 511.833 554.396 576.208 554.396 576.208L554.917 511.292C554.917 511.292 554.833 500.875 558.833 500L518.083 500.063C518.083 500.063 521.083 501.75 521.083 509.729C521.083 511.083 521.083 515.104 521.083 520.833C521.083 548.854 521.083 617.854 521.083 617.854C521.083 617.854 520.667 623.771 518.542 625H550.896C550.896 625 550.896 622.479 554.104 618.271C557.333 614.062 624.542 519.833 624.542 519.833C624.542 519.833 639.854 500.063 643.875 500.063ZM830.333 548.229C845.771 497.563 796.625 500.021 796.625 500.021H747.125C750.75 504.229 747.938 513.063 747.938 513.063C747.938 513.063 715.667 606.042 713.229 613.208C710.813 620.375 706.187 624.938 706.187 624.938L747.333 625C744.333 625.062 746.417 617.333 746.417 617.333L759.042 581.646C759.042 581.646 776.062 617.833 777.271 620.375C778.479 622.917 777.875 625 777.875 625H821.563C817.542 625 813.104 617 813.104 617L792.104 577.604C821.5 577.583 830.333 548.229 830.333 548.229ZM795.417 542.938C790.896 555.042 776.104 553.875 776.104 553.875H768.458L776.5 529.063H787.417C787.417 529.063 800.75 528.667 795.417 542.938ZM619.375 354.458H579.25C579.25 354.479 582.25 359.5 578.333 371.146C574.417 382.813 543.625 469.438 543.625 469.438C543.625 469.438 541.188 477.583 537.896 479.167L586.187 479.104C586.187 479.104 644.729 481.354 662.854 417.125C662.833 417.146 685.771 353.813 619.375 354.458ZM623.604 422.479C613.375 448.479 598.167 450.354 589.958 450.354C584.542 450.354 584.375 450.396 584.375 450.396L607.917 381.208H616.979C616.958 381.229 640.417 379.771 623.604 422.479ZM413.688 479.021C413.688 479.021 410.812 477.333 410.292 472.375L405.438 362.75C405.438 362.75 405.229 355.75 408.417 354.271H370.083C370.083 354.271 372.771 357.729 367.646 365.604C362.521 373.479 297.042 474.813 297.042 474.813C297.042 474.813 295.75 477.417 292.437 478.896H331.146C331.146 478.896 331.021 475.792 332.042 473.792C333.875 470.146 338.688 461.375 338.688 461.375H377.646L377.729 472.333C377.729 472.333 377.938 476.104 375.062 479.021H413.688ZM355.396 433.25L376.917 396.708L377.229 433.25H355.396ZM384.437 547.125C398.917 498.75 350.167 500 350.167 500H300.271C303.896 504.208 301.062 513.042 301.062 513.042C301.062 513.042 270.083 605.667 267.667 612.833C265.25 619.979 260.812 624.979 260.812 624.979C260.812 624.979 302.333 625 300.271 625C299.062 625 299.062 620.938 299.062 620.938L313.229 581.646C313.229 581.646 330.854 617.833 332.083 620.354C333.271 622.875 332.667 625 332.667 625H374.854C370.833 625 366.688 617 366.688 617L345.688 577.583C375.042 577.583 384.437 547.125 384.437 547.125ZM350.021 542.875C344.521 555.25 329.625 553.875 329.625 553.875H321.979L330.167 528.75C330.167 528.75 334.562 528.688 338.479 528.688C356.458 528.688 350.021 542.875 350.021 542.875ZM462.688 500.521C424.188 500.521 399.083 529.604 392.583 565.75C386.625 599 405.5 625.521 436.604 625.521C480.146 625.521 506.062 583 506.062 552.479C506.062 520.5 492.854 500.521 462.688 500.521ZM468.396 566.771C462.167 591.625 450.208 599.417 439.354 597.417C424.583 594.688 427.125 571.875 429.521 561.354C434.75 538.312 447.625 527.271 457.25 528.438C460.417 528.812 477.854 529.146 468.396 566.771Z" fill="black"/>
</svg>
