<svg width="1000" height="1000" viewBox="0 0 1000 1000" fill="none" xmlns="http://www.w3.org/2000/svg">
<path d="M236.145 156.433C215.614 157.308 59.0376 170.6 47.9126 171.631C36.7876 172.537 24.5195 177.682 35.6445 204.651C46.7695 231.62 224.553 623.482 229.553 634.888C234.522 646.263 247.432 664.849 277.588 657.349C308.494 649.724 415.71 621.066 474.304 605.347C505.21 662.722 568.359 779.029 580.078 795.654C595.609 817.967 606.435 814.171 630.31 806.702C649.06 800.858 922.685 700.223 934.998 695.13C947.31 689.88 954.877 686.303 946.533 673.584C940.377 664.303 868.165 565.394 830.383 513.55C856.321 506.519 948.44 481.482 958.252 478.638C969.783 475.607 971.4 469.956 965.088 462.769C958.932 455.581 873.126 345.772 858.032 327.21C842.938 308.647 835.452 311.889 826.233 313.233C816.858 314.576 708.333 333.295 695.74 335.388C683.146 337.638 675.233 342.727 682.983 353.821C689.858 363.696 761.226 467.27 777.039 490.051L493.286 559.509L267.517 173.767C258.58 160.142 256.645 155.371 236.145 156.433ZM232.605 183.228C237.886 182.915 237.29 184.097 239.197 187.378C239.197 187.378 447.489 555.025 450.989 561.463C454.801 567.9 452.655 569.868 449.28 570.618C445.905 571.368 286.942 610.275 278.442 612.244C269.942 614.181 269.952 613.291 268.921 610.291C267.89 607.291 80.0176 210.779 77.3926 205.811C74.7676 200.873 74.8926 196.961 77.3926 196.961C79.8926 196.961 227.48 183.509 232.605 183.228ZM836.609 338.928C838.714 339.417 840.926 340.994 843.567 344.666C848.848 352.009 920.62 445.015 923.401 448.609C926.026 452.077 921.317 454.189 915.161 455.689C909.005 457.032 807.373 482.788 807.373 482.788L724.304 366.272C721.96 362.835 720.077 359.515 725.952 358.765C731.796 358.015 826.133 340.445 830.383 339.539C832.508 339.007 834.503 338.44 836.609 338.928ZM797.729 519.287C799.69 519.51 801.34 520.899 803.528 524.414C807.809 531.633 894.961 652.554 897.461 656.616C899.961 660.648 902.533 663.355 894.47 666.199C886.564 669.199 625.452 759.225 620.483 761.475C615.358 763.725 611.357 764.45 604.919 754.7C598.482 744.95 513.55 594.727 513.55 594.727L790.039 521.179C793.477 520.054 795.769 519.065 797.729 519.287Z" fill="black"/>
</svg>
