<svg width="742" height="824" viewBox="0 0 742 824" fill="none" xmlns="http://www.w3.org/2000/svg">
<path d="M0.5 228.5L154.5 241.5L143.5 258.5L209 282L197.5 292.5V300L239.5 315V321.5H201L209 315H159.5L169.5 308H126L133.5 290L108.5 288.5L118.5 282H89L92.5 276.5L52.5 274.5L60 255L0.5 228.5Z" fill="black"/>
<path d="M447.5 220L553 143.5L541.5 131.5L594.5 80L579.5 70.5L625 5.5L495.5 100.5L505.5 116L464 160.5L476.5 168.5L447.5 220Z" fill="black"/>
<path d="M591.5 240.5L741 231L681.5 258.5L687 268.5L608.5 288.5L620.5 309.5L503 321.5L543.5 300L530.5 286.5L597.5 258.5L591.5 240.5Z" fill="black"/>
<path fill-rule="evenodd" clip-rule="evenodd" d="M319.5 392.5L181 823H256.5L289 706.5L458.5 751.5L482.5 823H564.5L424.5 392.5V383.5L433 375L441 364.5L448 354.5L451.5 346.5L453.5 332.5V321.5V309.5L451.5 300L448 288.5L444 279.5L438.5 268.5L433 258.5L430 253.5L426.5 249.5L419 244L412.5 240.5L406 237L396.5 234L387.5 231.5L375.5 230.5H361.5H351L343.5 232.5L334.5 236L325.5 241.5L317 247L307 255L301 261.5L293 272L288 282L285.5 290L284 298.5V311V325L285.5 334.5L288 346L293 357L298.5 367L307 376L317.5 385L321 387.5L319.5 392.5ZM345 325V308L346 304L350.5 298L355 295.5L363 292.5H372L381.5 293.5L386.5 298.5L390 304L391.5 309V315V323.5L390 333.5L386.5 337L381.5 341.5L377.5 344H369H360.5L355 341L350 336L347 331.5L345 325ZM366 431L344.5 517L402.5 543.5L366 431ZM391.5 591.5L332.5 561L310.5 634.5L391.5 591.5ZM425.5 628.5L343 669L448 701L425.5 628.5Z" fill="black"/>
<path d="M118.5 0.5L248 103L235.5 116L276.5 158.5L260 167L296.5 212L293 220L183 145L197.5 131L147 81.5L162.5 73L118.5 0.5Z" fill="black"/>
<path d="M319.5 392.5L319.976 392.653L319.979 392.644L319.5 392.5ZM181 823L180.524 822.847L180.314 823.5H181V823ZM256.5 823V823.5H256.88L256.982 823.134L256.5 823ZM289 706.5L289.128 706.017L288.651 705.89L288.518 706.366L289 706.5ZM458.5 751.5L458.974 751.341L458.888 751.086L458.628 751.017L458.5 751.5ZM482.5 823L482.026 823.159L482.14 823.5H482.5V823ZM564.5 823V823.5H565.188L564.975 822.845L564.5 823ZM424.5 392.5H424V392.579L424.025 392.655L424.5 392.5ZM424.5 383.5L424.146 383.146L424 383.293V383.5H424.5ZM433 375L433.354 375.354L433.377 375.33L433.398 375.303L433 375ZM441 364.5L441.398 364.803L441.404 364.795L441.41 364.787L441 364.5ZM448 354.5L448.41 354.787L448.438 354.746L448.458 354.7L448 354.5ZM451.5 346.5L451.958 346.7L451.985 346.638L451.995 346.571L451.5 346.5ZM453.5 332.5L453.995 332.571L454 332.536V332.5H453.5ZM453.5 309.5H454V309.448L453.989 309.397L453.5 309.5ZM451.5 300L451.989 299.897L451.985 299.875L451.978 299.854L451.5 300ZM448 288.5L448.478 288.354L448.469 288.325L448.457 288.297L448 288.5ZM444 279.5L444.457 279.297L444.452 279.287L444.447 279.276L444 279.5ZM438.5 268.5L438.947 268.276L438.943 268.268L438.938 268.259L438.5 268.5ZM433 258.5L433.438 258.259L433.434 258.251L433.429 258.243L433 258.5ZM430 253.5L430.429 253.243L430.406 253.204L430.376 253.171L430 253.5ZM426.5 249.5L426.876 249.171L426.84 249.129L426.796 249.097L426.5 249.5ZM419 244L419.296 243.597L419.268 243.576L419.237 243.56L419 244ZM406 237L406.237 236.56L406.196 236.537L406.151 236.523L406 237ZM396.5 234L396.651 233.523L396.642 233.521L396.634 233.518L396.5 234ZM387.5 231.5L387.634 231.018L387.588 231.006L387.542 231.002L387.5 231.5ZM375.5 230.5L375.542 230.002L375.521 230H375.5V230.5ZM351 230.5V230H350.934L350.871 230.017L351 230.5ZM343.5 232.5L343.371 232.017L343.345 232.024L343.319 232.034L343.5 232.5ZM334.5 236L334.319 235.534L334.277 235.55L334.239 235.573L334.5 236ZM325.5 241.5L325.239 241.073L325.228 241.08L325.5 241.5ZM317 247L316.728 246.58L316.707 246.594L316.688 246.61L317 247ZM307 255L306.688 254.61L306.658 254.633L306.633 254.661L307 255ZM301 261.5L300.633 261.161L300.617 261.178L300.602 261.197L301 261.5ZM293 272L292.602 271.697L292.574 271.734L292.553 271.776L293 272ZM288 282L287.553 281.776L287.535 281.812L287.523 281.851L288 282ZM285.5 290L285.023 289.851L285.013 289.882L285.008 289.913L285.5 290ZM284 298.5L283.508 298.413L283.5 298.456V298.5H284ZM284 325H283.5V325.039L283.506 325.078L284 325ZM285.5 334.5L285.006 334.578L285.008 334.592L285.011 334.606L285.5 334.5ZM288 346L287.511 346.106L287.523 346.158L287.545 346.207L288 346ZM293 357L292.545 357.207L292.553 357.224L292.562 357.241L293 357ZM298.5 367L298.062 367.241L298.093 367.297L298.137 367.343L298.5 367ZM307 376L306.637 376.343L306.655 376.362L306.675 376.38L307 376ZM317.5 385L317.175 385.38L317.191 385.394L317.209 385.407L317.5 385ZM321 387.5L321.479 387.644L321.582 387.301L321.291 387.093L321 387.5ZM345 308L344.515 307.879L344.5 307.938V308H345ZM345 325H344.5V325.075L344.522 325.147L345 325ZM347 331.5L346.522 331.647L346.544 331.717L346.584 331.777L347 331.5ZM350 336L349.584 336.277L349.611 336.319L349.646 336.354L350 336ZM355 341L354.646 341.354L354.697 341.404L354.761 341.439L355 341ZM360.5 344L360.261 344.439L360.372 344.5H360.5V344ZM377.5 344V344.5H377.643L377.765 344.424L377.5 344ZM381.5 341.5L381.765 341.924L381.802 341.901L381.834 341.872L381.5 341.5ZM386.5 337L386.834 337.372L386.844 337.363L386.854 337.354L386.5 337ZM390 333.5L390.354 333.854L390.47 333.737L390.494 333.574L390 333.5ZM391.5 323.5L391.994 323.574L392 323.537V323.5H391.5ZM391.5 309H392V308.927L391.979 308.856L391.5 309ZM390 304L390.479 303.856L390.459 303.79L390.422 303.732L390 304ZM386.5 298.5L386.922 298.232L386.892 298.185L386.854 298.146L386.5 298.5ZM381.5 293.5L381.854 293.146L381.728 293.021L381.552 293.003L381.5 293.5ZM372 292.5L372.052 292.003L372.026 292H372V292.5ZM363 292.5V292H362.909L362.824 292.032L363 292.5ZM355 295.5L354.824 295.032L354.79 295.045L354.757 295.063L355 295.5ZM350.5 298L350.257 297.563L350.164 297.615L350.1 297.7L350.5 298ZM346 304L345.6 303.7L345.539 303.781L345.515 303.879L346 304ZM344.5 517L344.015 516.879L343.914 517.282L344.292 517.455L344.5 517ZM366 431L366.476 430.846L365.938 429.188L365.515 430.879L366 431ZM402.5 543.5L402.292 543.955L403.327 544.427L402.976 543.346L402.5 543.5ZM332.5 561L332.73 560.556L332.194 560.279L332.021 560.857L332.5 561ZM391.5 591.5L391.734 591.942L392.577 591.494L391.73 591.056L391.5 591.5ZM310.5 634.5L310.021 634.357L309.678 635.502L310.734 634.942L310.5 634.5ZM343 669L342.78 668.551L341.643 669.109L342.854 669.478L343 669ZM425.5 628.5L425.978 628.352L425.804 627.794L425.28 628.051L425.5 628.5ZM448 701L447.854 701.478L448.757 701.754L448.478 700.852L448 701ZM0.5 228.5L0.542058 228.002L0.296575 228.957L0.5 228.5ZM154.5 241.5L154.92 241.772L155.373 241.072L154.542 241.002L154.5 241.5ZM143.5 258.5L143.08 258.228L142.738 258.758L143.331 258.971L143.5 258.5ZM209 282L209.337 282.369L209.95 281.81L209.169 281.529L209 282ZM197.5 292.5L197.163 292.131L197 292.279V292.5H197.5ZM197.5 300H197V300.352L197.332 300.471L197.5 300ZM239.5 315H240V314.648L239.668 314.529L239.5 315ZM239.5 321.5V322H240V321.5H239.5ZM201 321.5L200.685 321.112L199.592 322H201V321.5ZM209 315L209.315 315.388L210.408 314.5H209V315ZM159.5 315L159.213 314.59L157.914 315.5H159.5V315ZM169.5 308L169.787 308.41L171.086 307.5H169.5V308ZM126 308L125.538 307.808L125.25 308.5H126V308ZM133.5 290L133.962 290.192L134.232 289.543L133.53 289.501L133.5 290ZM108.5 288.5L108.228 288.081L106.955 288.908L108.47 288.999L108.5 288.5ZM118.5 282L118.772 282.419L120.187 281.5H118.5V282ZM89 282L88.5782 281.732L88.0892 282.5H89V282ZM92.5 276.5L92.9218 276.768L93.3831 276.044L92.525 276.001L92.5 276.5ZM52.5 274.5L52.0333 274.32L51.7855 274.965L52.475 274.999L52.5 274.5ZM60 255L60.4667 255.179L60.6371 254.736L60.2034 254.543L60 255ZM118.5 0.5L118.81 0.107946L118.073 0.759412L118.5 0.5ZM248 103L248.36 103.347L248.742 102.95L248.31 102.608L248 103ZM235.5 116L235.14 115.653L234.806 116.001L235.14 116.347L235.5 116ZM276.5 158.5L276.729 158.944L277.327 158.637L276.86 158.153L276.5 158.5ZM260 167L259.771 166.556L259.224 166.837L259.612 167.315L260 167ZM296.5 212L296.958 212.2L297.08 211.921L296.888 211.685L296.5 212ZM293 220L292.718 220.413L293.216 220.753L293.458 220.2L293 220ZM183 145L182.653 144.64L182.211 145.067L182.718 145.413L183 145ZM197.5 131L197.847 131.36L198.217 131.003L197.85 130.643L197.5 131ZM147 81.5L146.76 81.0616L146.169 81.3855L146.65 81.8571L147 81.5ZM162.5 73L162.74 73.4384L163.198 73.1872L162.927 72.7406L162.5 73ZM447.5 220L447.064 219.755L447.794 220.405L447.5 220ZM553 143.5L553.294 143.905L553.758 143.568L553.361 143.154L553 143.5ZM541.5 131.5L541.152 131.141L540.795 131.487L541.139 131.846L541.5 131.5ZM594.5 80L594.848 80.3586L595.303 79.9168L594.768 79.5776L594.5 80ZM579.5 70.5L579.09 70.2133L578.79 70.6422L579.232 70.9224L579.5 70.5ZM625 5.5L625.41 5.78673L624.704 5.09685L625 5.5ZM495.5 100.5L495.204 100.097L494.825 100.375L495.08 100.771L495.5 100.5ZM505.5 116L505.866 116.341L506.131 116.056L505.92 115.729L505.5 116ZM464 160.5L463.634 160.159L463.225 160.598L463.73 160.921L464 160.5ZM476.5 168.5L476.936 168.745L477.168 168.334L476.77 168.079L476.5 168.5ZM591.5 240.5L591.468 240.001L590.82 240.042L591.026 240.658L591.5 240.5ZM741 231L741.21 231.454L740.968 230.501L741 231ZM681.5 258.5L681.29 258.046L680.803 258.271L681.062 258.741L681.5 258.5ZM687 268.5L687.123 268.985L687.749 268.825L687.438 268.259L687 268.5ZM608.5 288.5L608.377 288.015L607.74 288.178L608.066 288.748L608.5 288.5ZM620.5 309.5L620.551 309.997L621.315 309.919L620.934 309.252L620.5 309.5ZM503 321.5L502.766 321.058L503.051 321.997L503 321.5ZM543.5 300L543.734 300.442L544.32 300.131L543.86 299.653L543.5 300ZM530.5 286.5L530.307 286.039L529.633 286.32L530.14 286.847L530.5 286.5ZM597.5 258.5L597.693 258.961L598.121 258.782L597.974 258.342L597.5 258.5ZM319.024 392.347L180.524 822.847L181.476 823.153L319.976 392.653L319.024 392.347ZM181 823.5H256.5V822.5H181V823.5ZM256.982 823.134L289.482 706.634L288.518 706.366L256.018 822.866L256.982 823.134ZM288.872 706.983L458.372 751.983L458.628 751.017L289.128 706.017L288.872 706.983ZM458.026 751.659L482.026 823.159L482.974 822.841L458.974 751.341L458.026 751.659ZM482.5 823.5H564.5V822.5H482.5V823.5ZM564.975 822.845L424.975 392.345L424.025 392.655L564.025 823.155L564.975 822.845ZM425 392.5V383.5H424V392.5H425ZM424.854 383.854L433.354 375.354L432.646 374.646L424.146 383.146L424.854 383.854ZM433.398 375.303L441.398 364.803L440.602 364.197L432.602 374.697L433.398 375.303ZM441.41 364.787L448.41 354.787L447.59 354.213L440.59 364.213L441.41 364.787ZM448.458 354.7L451.958 346.7L451.042 346.3L447.542 354.3L448.458 354.7ZM451.995 346.571L453.995 332.571L453.005 332.429L451.005 346.429L451.995 346.571ZM454 332.5V321.5H453V332.5H454ZM454 321.5V309.5H453V321.5H454ZM453.989 309.397L451.989 299.897L451.011 300.103L453.011 309.603L453.989 309.397ZM451.978 299.854L448.478 288.354L447.522 288.646L451.022 300.146L451.978 299.854ZM448.457 288.297L444.457 279.297L443.543 279.703L447.543 288.703L448.457 288.297ZM444.447 279.276L438.947 268.276L438.053 268.724L443.553 279.724L444.447 279.276ZM438.938 268.259L433.438 258.259L432.562 258.741L438.062 268.741L438.938 268.259ZM433.429 258.243L430.429 253.243L429.571 253.757L432.571 258.757L433.429 258.243ZM430.376 253.171L426.876 249.171L426.124 249.829L429.624 253.829L430.376 253.171ZM426.796 249.097L419.296 243.597L418.704 244.403L426.204 249.903L426.796 249.097ZM419.237 243.56L412.737 240.06L412.263 240.94L418.763 244.44L419.237 243.56ZM412.737 240.06L406.237 236.56L405.763 237.44L412.263 240.94L412.737 240.06ZM406.151 236.523L396.651 233.523L396.349 234.477L405.849 237.477L406.151 236.523ZM396.634 233.518L387.634 231.018L387.366 231.982L396.366 234.482L396.634 233.518ZM387.542 231.002L375.542 230.002L375.458 230.998L387.458 231.998L387.542 231.002ZM375.5 230H361.5V231H375.5V230ZM361.5 230H351V231H361.5V230ZM350.871 230.017L343.371 232.017L343.629 232.983L351.129 230.983L350.871 230.017ZM343.319 232.034L334.319 235.534L334.681 236.466L343.681 232.966L343.319 232.034ZM334.239 235.573L325.239 241.073L325.761 241.927L334.761 236.427L334.239 235.573ZM325.228 241.08L316.728 246.58L317.272 247.42L325.772 241.92L325.228 241.08ZM316.688 246.61L306.688 254.61L307.312 255.39L317.312 247.39L316.688 246.61ZM306.633 254.661L300.633 261.161L301.367 261.839L307.367 255.339L306.633 254.661ZM300.602 261.197L292.602 271.697L293.398 272.303L301.398 261.803L300.602 261.197ZM292.553 271.776L287.553 281.776L288.447 282.224L293.447 272.224L292.553 271.776ZM287.523 281.851L285.023 289.851L285.977 290.149L288.477 282.149L287.523 281.851ZM285.008 289.913L283.508 298.413L284.492 298.587L285.992 290.087L285.008 289.913ZM283.5 298.5V311H284.5V298.5H283.5ZM283.5 311V325H284.5V311H283.5ZM283.506 325.078L285.006 334.578L285.994 334.422L284.494 324.922L283.506 325.078ZM285.011 334.606L287.511 346.106L288.489 345.894L285.989 334.394L285.011 334.606ZM287.545 346.207L292.545 357.207L293.455 356.793L288.455 345.793L287.545 346.207ZM292.562 357.241L298.062 367.241L298.938 366.759L293.438 356.759L292.562 357.241ZM298.137 367.343L306.637 376.343L307.363 375.657L298.863 366.657L298.137 367.343ZM306.675 376.38L317.175 385.38L317.825 384.62L307.325 375.62L306.675 376.38ZM317.209 385.407L320.709 387.907L321.291 387.093L317.791 384.593L317.209 385.407ZM320.521 387.356L319.021 392.356L319.979 392.644L321.479 387.644L320.521 387.356ZM344.5 308V325H345.5V308H344.5ZM344.522 325.147L346.522 331.647L347.478 331.353L345.478 324.853L344.522 325.147ZM346.584 331.777L349.584 336.277L350.416 335.723L347.416 331.223L346.584 331.777ZM349.646 336.354L354.646 341.354L355.354 340.646L350.354 335.646L349.646 336.354ZM354.761 341.439L360.261 344.439L360.739 343.561L355.239 340.561L354.761 341.439ZM360.5 344.5H369V343.5H360.5V344.5ZM369 344.5H377.5V343.5H369V344.5ZM377.765 344.424L381.765 341.924L381.235 341.076L377.235 343.576L377.765 344.424ZM381.834 341.872L386.834 337.372L386.166 336.628L381.166 341.128L381.834 341.872ZM386.854 337.354L390.354 333.854L389.646 333.146L386.146 336.646L386.854 337.354ZM390.494 333.574L391.994 323.574L391.006 323.426L389.506 333.426L390.494 333.574ZM392 323.5V315H391V323.5H392ZM392 315V309H391V315H392ZM391.979 308.856L390.479 303.856L389.521 304.144L391.021 309.144L391.979 308.856ZM390.422 303.732L386.922 298.232L386.078 298.768L389.578 304.268L390.422 303.732ZM386.854 298.146L381.854 293.146L381.146 293.854L386.146 298.854L386.854 298.146ZM381.552 293.003L372.052 292.003L371.948 292.997L381.448 293.997L381.552 293.003ZM372 292H363V293H372V292ZM362.824 292.032L354.824 295.032L355.176 295.968L363.176 292.968L362.824 292.032ZM354.757 295.063L350.257 297.563L350.743 298.437L355.243 295.937L354.757 295.063ZM350.1 297.7L345.6 303.7L346.4 304.3L350.9 298.3L350.1 297.7ZM345.515 303.879L344.515 307.879L345.485 308.121L346.485 304.121L345.515 303.879ZM344.985 517.121L366.485 431.121L365.515 430.879L344.015 516.879L344.985 517.121ZM365.524 431.154L402.024 543.654L402.976 543.346L366.476 430.846L365.524 431.154ZM402.708 543.045L344.708 516.545L344.292 517.455L402.292 543.955L402.708 543.045ZM332.27 561.444L391.27 591.944L391.73 591.056L332.73 560.556L332.27 561.444ZM391.266 591.058L310.266 634.058L310.734 634.942L391.734 591.942L391.266 591.058ZM310.979 634.643L332.979 561.143L332.021 560.857L310.021 634.357L310.979 634.643ZM343.22 669.449L425.72 628.949L425.28 628.051L342.78 668.551L343.22 669.449ZM425.022 628.648L447.522 701.148L448.478 700.852L425.978 628.352L425.022 628.648ZM448.146 700.522L343.146 668.522L342.854 669.478L447.854 701.478L448.146 700.522ZM0.457942 228.998L154.458 241.998L154.542 241.002L0.542058 228.002L0.457942 228.998ZM154.08 241.228L143.08 258.228L143.92 258.772L154.92 241.772L154.08 241.228ZM143.331 258.971L208.831 282.471L209.169 281.529L143.669 258.029L143.331 258.971ZM208.663 281.631L197.163 292.131L197.837 292.869L209.337 282.369L208.663 281.631ZM197 292.5V300H198V292.5H197ZM197.332 300.471L239.332 315.471L239.668 314.529L197.668 299.529L197.332 300.471ZM239 315V321.5H240V315H239ZM239.5 321H201V322H239.5V321ZM201.315 321.888L209.315 315.388L208.685 314.612L200.685 321.112L201.315 321.888ZM209 314.5H159.5V315.5H209V314.5ZM159.787 315.41L169.787 308.41L169.213 307.59L159.213 314.59L159.787 315.41ZM169.5 307.5H126V308.5H169.5V307.5ZM126.462 308.192L133.962 290.192L133.038 289.808L125.538 307.808L126.462 308.192ZM133.53 289.501L108.53 288.001L108.47 288.999L133.47 290.499L133.53 289.501ZM108.772 288.919L118.772 282.419L118.228 281.581L108.228 288.081L108.772 288.919ZM118.5 281.5H89V282.5H118.5V281.5ZM89.4218 282.268L92.9218 276.768L92.0782 276.232L88.5782 281.732L89.4218 282.268ZM92.525 276.001L52.525 274.001L52.475 274.999L92.475 276.999L92.525 276.001ZM52.9667 274.68L60.4667 255.179L59.5333 254.821L52.0333 274.32L52.9667 274.68ZM60.2034 254.543L0.703425 228.043L0.296575 228.957L59.7966 255.457L60.2034 254.543ZM118.19 0.892054L247.69 103.392L248.31 102.608L118.81 0.107946L118.19 0.892054ZM247.64 102.653L235.14 115.653L235.86 116.347L248.36 103.347L247.64 102.653ZM235.14 116.347L276.14 158.847L276.86 158.153L235.86 115.653L235.14 116.347ZM276.271 158.056L259.771 166.556L260.229 167.444L276.729 158.944L276.271 158.056ZM259.612 167.315L296.112 212.315L296.888 211.685L260.388 166.685L259.612 167.315ZM296.042 211.8L292.542 219.8L293.458 220.2L296.958 212.2L296.042 211.8ZM293.282 219.587L183.282 144.587L182.718 145.413L292.718 220.413L293.282 219.587ZM183.347 145.36L197.847 131.36L197.153 130.64L182.653 144.64L183.347 145.36ZM197.85 130.643L147.35 81.1429L146.65 81.8571L197.15 131.357L197.85 130.643ZM147.24 81.9384L162.74 73.4384L162.26 72.5616L146.76 81.0616L147.24 81.9384ZM162.927 72.7406L118.927 0.240588L118.073 0.759412L162.073 73.2594L162.927 72.7406ZM447.794 220.405L553.294 143.905L552.706 143.095L447.206 219.595L447.794 220.405ZM553.361 143.154L541.861 131.154L541.139 131.846L552.639 143.846L553.361 143.154ZM541.848 131.859L594.848 80.3586L594.152 79.6414L541.152 131.141L541.848 131.859ZM594.768 79.5776L579.768 70.0776L579.232 70.9224L594.232 80.4224L594.768 79.5776ZM579.91 70.7867L625.41 5.78673L624.59 5.21327L579.09 70.2133L579.91 70.7867ZM624.704 5.09685L495.204 100.097L495.796 100.903L625.296 5.90315L624.704 5.09685ZM495.08 100.771L505.08 116.271L505.92 115.729L495.92 100.229L495.08 100.771ZM505.134 115.659L463.634 160.159L464.366 160.841L505.866 116.341L505.134 115.659ZM463.73 160.921L476.23 168.921L476.77 168.079L464.27 160.079L463.73 160.921ZM476.064 168.255L447.064 219.755L447.936 220.245L476.936 168.745L476.064 168.255ZM591.532 240.999L741.032 231.499L740.968 230.501L591.468 240.001L591.532 240.999ZM740.79 230.546L681.29 258.046L681.71 258.954L741.21 231.454L740.79 230.546ZM681.062 258.741L686.562 268.741L687.438 268.259L681.938 258.259L681.062 258.741ZM686.877 268.015L608.377 288.015L608.623 288.985L687.123 268.985L686.877 268.015ZM608.066 288.748L620.066 309.748L620.934 309.252L608.934 288.252L608.066 288.748ZM620.449 309.003L502.949 321.003L503.051 321.997L620.551 309.997L620.449 309.003ZM503.234 321.942L543.734 300.442L543.266 299.558L502.766 321.058L503.234 321.942ZM543.86 299.653L530.86 286.153L530.14 286.847L543.14 300.347L543.86 299.653ZM530.693 286.961L597.693 258.961L597.307 258.039L530.307 286.039L530.693 286.961ZM597.974 258.342L591.974 240.342L591.026 240.658L597.026 258.658L597.974 258.342Z" fill="black"/>
</svg>
