<svg width="1000" height="1000" viewBox="0 0 1000 1000" fill="none" xmlns="http://www.w3.org/2000/svg">
<path d="M833.731 380.615C825.731 380.615 817.769 382.231 811.346 391.962C795.346 413 750.654 536.154 752.231 560.423C752.231 568.577 757.038 576.615 768.231 576.615C779.423 576.615 787.384 568.577 793.769 557.154C806.615 534.538 846.538 424.346 848.077 396.808C848.077 390.308 846.538 380.615 833.731 380.615Z" fill="#030104"/>
<path d="M804 0H196C88.1923 0 0 88.1923 0 195.923V804.115C0 911.808 88.1923 1000 196 1000H804.039C911.808 1000 1000 911.808 1000 804.077V195.923C1000 88.1923 911.808 0 804 0ZM130.731 652.769C100.385 652.769 73.2308 638.192 73.2308 602.577C71.6539 539.346 133.885 393.538 164.308 346.577C178.654 323.885 194.654 312.538 221.769 312.538C247.385 312.538 253.769 325.538 252.115 340.115C252.115 382.231 185.077 510.231 162.692 560.423C215.385 552.308 228.192 570.154 226.538 589.615C221.808 643.077 173.846 654.385 130.731 652.769ZM333.654 511.846C330.5 521.577 324.077 541.038 319.269 562.115C336.885 558.846 349.615 555.615 371.962 555.615C396 555.615 413.538 566.923 413.538 588C413.538 639.885 356 654.423 317.692 654.423C274.538 654.423 237.808 630.154 237.808 583.154C237.808 526.423 266.538 442.192 295.308 387.077C328.846 317.423 364.038 307.692 424.692 307.692C450.308 307.692 482.231 320.692 482.231 345C482.231 380.654 451.846 393.615 423.154 395.231C410.346 396.846 391.154 396.846 379.962 396.846C379.962 396.846 370.423 411.423 360.846 437.346C413.538 430.885 437.5 442.231 427.885 474.654C415.115 516.692 378.385 519.923 333.654 511.846ZM659.539 516.692C643.539 592.808 590.885 654.385 514.192 654.385C461.462 654.385 429.538 625.231 429.538 571.769C429.538 532.923 448.692 473 463.038 437.308C495.038 362.808 528.577 309.385 613.154 309.385C664.385 309.385 704.308 328.808 697.885 377.462C693.115 413.038 675.538 432.5 645.192 435.731C635.577 435.731 598.885 435.731 611.654 400.115C614.846 388.769 618.039 379 598.885 379C584.462 379 574.923 388.769 568.5 398.5C552.5 421.192 518.962 510.269 514.192 545.885C509.385 571.808 520.539 576.654 531.769 576.654C550.923 576.654 571.692 555.654 579.692 523.192C579.692 523.192 542.962 521.615 552.5 490.808C562.115 458.423 581.269 451.923 611.654 450.308C670.731 448.654 664.385 492.385 659.539 516.692ZM919.962 442.154C910.385 487.538 889.615 541 868.923 579.846C832.115 646.269 789 654.385 752.231 654.385C713.885 654.385 670.769 639.846 670.769 579.846C670.769 537.731 688.346 477.846 704.346 438.923C731.462 367.615 758.615 309.346 844.846 310.962C945.539 310.962 927.962 403.231 919.962 442.154Z" fill="#030104"/>
</svg>
