<svg width="1000" height="1000" viewBox="0 0 1000 1000" fill="none" xmlns="http://www.w3.org/2000/svg">
<path fill-rule="evenodd" clip-rule="evenodd" d="M508.659 293.335C490.081 316.244 437.092 390.208 431.053 399.785C419.427 418.135 418.4 427.027 418.057 432.952C417.72 438.767 417.72 449.252 427.178 457.802C443.021 471.933 465.241 469.651 484.96 469.651H647.368C654.32 469.651 656.374 467.596 660.135 462.585C673.126 442.752 678.941 421.211 678.941 401.949C678.941 360.689 652.161 308.722 584.345 285.241L576.703 296.183C630.497 321.707 652.727 355.102 652.727 401.829C653.069 414.368 649.759 427.93 641.552 440.469H483.586C474.128 440.469 472.758 429.756 476.177 423.712C489.72 399.61 504.834 376.425 521.421 354.308C537.379 332.996 553.104 313.049 569.632 292.193C574.078 286.383 571.111 280.795 562.224 278.974C543.76 275.099 524.503 272.365 501.136 272.365C371.558 272.365 324.14 346.786 324.14 401.949C324.14 461.786 371.895 531.195 501.479 531.195C573.393 531.195 620.469 508.052 647.705 478.309H620.235C596.412 500.306 555.495 515.927 501.479 515.927C391.723 515.927 351.268 454.263 351.268 401.15C352.062 353.737 395.485 288.318 504.218 286.155C508.322 286.04 511.517 289.802 508.659 293.335ZM898.442 634.901C904.937 635.814 909.954 640.94 909.954 646.989C909.954 653.816 903.801 659.29 896.273 659.29H757.009V568.226H715.973V659.523H640.525C620.126 659.523 615.914 647.098 615.914 635.7V567.661H547.874C541.145 572.221 534.65 577.238 527.698 581.45L487.352 606.295L434.928 568.003H353.322V590.913H382.836V578.369L452.245 628.183L404.833 657.92H353.317V680.83H412.921C419.302 676.503 425.346 671.943 431.956 667.953L473.438 642.766L526.09 680.378H586.047L506.827 620.769L547.521 594.223C556.185 588.516 565.305 583.738 574.192 578.498V638.445C574.192 663.746 580.688 681.297 631.633 681.297L919.411 680.617C941.631 680.949 955.877 665.572 955.877 646.999C955.877 628.525 939.462 613.371 919.411 613.371H815.471C816.841 600.723 827.772 590.13 838.827 590.13H944.023L943.691 568.133H832.109C796.774 568.133 768.516 597.424 767.717 631.503C767.608 633.895 769.195 635.373 771.82 635.373L898.442 634.901ZM353.322 634.564V611.198H373.607V634.564H353.322ZM353.322 568.003H276.277C255.421 568.003 239.349 573.476 227.5 582.815C206.188 599.686 199.351 617.459 199.579 625.444H227.386C215.189 634.564 206.982 645.495 202.655 658.153H111.473C95.0633 658.153 84.4592 646.532 84.4592 635.244V567.204H44.118V637.869C44.118 663.279 68.2833 680.83 107.027 680.83H353.322V657.92H255.536C255.992 646.299 268.412 634.564 279.696 634.564H353.322V611.198H254.394C253.03 604.36 265.792 590.913 275.592 590.913H353.322V568.003Z" fill="black"/>
<g clip-path="url(#clip0_9_527)">
<path d="M537.269 612.225H536.747V611.882H538.819V612.225H538.303V613.775H538.782C539.225 613.775 539.516 613.483 539.516 613.085H539.858V614.123H536.748V613.776H537.27L537.269 612.225ZM539.802 612.226H539.287V611.882H541.535V612.226H540.991L541.749 613.609L542.498 612.226H542.05V611.882H543.6V612.226H543.084L542.057 614.126L540.847 614.125L539.802 612.226ZM544.983 611.834C546.024 611.834 546.583 612.354 546.583 613.005C546.583 613.665 546.056 614.192 544.989 614.192C543.922 614.192 543.39 613.666 543.39 613.005C543.39 612.354 543.943 611.835 544.983 611.835V611.834ZM531.781 613.61L532.529 612.227H532.082V611.883H533.63V612.227H533.115L532.087 614.127L530.877 614.126L529.832 612.227H529.318V611.883H531.565V612.227H531.022L531.781 613.61ZM535.018 611.835C536.059 611.835 536.618 612.355 536.618 613.006C536.618 613.666 536.091 614.193 535.024 614.193C533.957 614.193 533.425 613.667 533.425 613.006C533.425 612.355 533.977 611.836 535.018 611.836V611.835ZM534.467 612.992C534.474 612.56 534.681 612.183 535.037 612.189C535.393 612.196 535.581 612.579 535.574 613.012C535.566 613.419 535.398 613.843 535.007 613.836C534.627 613.829 534.46 613.409 534.467 612.992ZM544.432 612.992C544.439 612.56 544.646 612.183 545.002 612.189C545.358 612.196 545.546 612.579 545.539 613.012C545.531 613.419 545.363 613.843 544.972 613.836C544.592 613.829 544.425 613.409 544.432 612.992ZM529.226 610.83C530.198 606.887 533.757 603.963 538 603.963C542.243 603.963 545.802 606.887 546.774 610.829L529.226 610.83ZM546.774 615.172C545.802 619.114 542.243 622.038 538 622.038C533.757 622.038 530.198 619.114 529.226 615.172H546.774ZM547.623 605.831L548.191 605.262C548.595 605.794 548.96 606.358 549.278 606.95H549.727V601.283H544.06V601.727C544.649 602.044 545.21 602.407 545.738 602.809L545.169 603.377C543.099 601.83 540.584 600.996 538 601C531.373 601 526 606.373 526 613C526 619.627 531.373 625 538 625C544.627 625 550 619.627 550 613C550 610.312 549.116 607.83 547.623 605.83V605.831Z" fill="black"/>
</g>
<defs>
<clipPath id="clip0_9_527">
<rect width="24" height="24" fill="white" transform="translate(526 601)"/>
</clipPath>
</defs>
</svg>
