<svg width="1000" height="1000" viewBox="0 0 1000 1000" fill="none" xmlns="http://www.w3.org/2000/svg">
<path d="M748.612 0.396484H250.595C112.609 0.396484 0 113.006 0 250.991V749.802C0 886.994 112.609 999.603 250.595 999.603H749.405C887.391 999.603 1000 886.994 1000 749.009V250.991C999.207 113.006 886.598 0.396484 748.612 0.396484ZM333.069 809.278H190.325V396.907H333.069V809.278ZM260.904 333.465C220.46 333.465 187.946 300.952 187.946 260.508C187.946 220.063 220.46 187.55 260.904 187.55C301.348 187.55 333.862 220.063 333.862 260.508C333.069 300.952 300.555 333.465 260.904 333.465ZM809.675 809.278H808.882H689.929V609.437C689.929 561.063 683.584 499.207 617.764 499.207C550.357 499.207 539.255 551.546 539.255 606.265V809.278H420.301V396.907H531.324V452.419H534.496C551.943 420.698 592.387 396.114 655.829 396.114C786.677 396.114 809.675 471.451 809.675 583.267V809.278Z" fill="black"/>
</svg>
