<svg width="1000" height="1000" viewBox="0 0 1000 1000" fill="none" xmlns="http://www.w3.org/2000/svg">
<g clip-path="url(#clip0_12_315)">
<path d="M520.958 0C514.5 0 507.833 0.333333 501 0.875C324.875 14.75 371.583 201.167 368.917 263.292C365.708 308.833 356.417 344.708 325.125 389.167C288.25 432.958 236.5 503.75 211.958 577.542C200.375 612.208 194.875 647.708 200 681.25C198.375 682.667 196.833 684.083 195.375 686.875C184.542 698.042 176.667 711.917 167.792 721.833C159.5 730.125 147.583 732.958 134.583 738.5C121.542 744.167 107.167 749.708 98.5833 766.875C94.8333 774.708 92.9166 783.25 93.0833 791.917C93.0833 800.208 94.2083 808.625 95.375 814.25C97.7916 830.875 100.208 844.625 97 854.667C86.6666 883 85.375 902.417 92.625 916.542C99.875 930.458 114.917 936.083 131.75 941.583C165.542 949.917 211.333 947.208 247.375 966.542C285.958 986 325.125 994.5 356.375 986.125C378.292 981.333 396.792 966.833 406.708 946.75C431.167 946.625 457.958 935.542 500.875 932.833C530 930.417 566.458 943.958 608.292 941.125C609.333 946.75 610.917 949.417 613.042 955.042L613.167 955.167C629.458 987.583 659.542 1002.33 691.667 999.792C723.792 997.292 758 977.458 785.708 945.375C812 913.5 855.833 900.208 884.792 882.75C899.292 874.458 911 863.208 911.833 847.208C912.792 830.542 903.542 813.375 882.083 789.833V785.792L881.958 785.667C874.875 777.333 871.542 763.375 867.875 747.083C864.333 730.375 860.292 714.333 847.375 703.5H847.25C844.792 701.25 842.125 700.708 839.417 697.875C837.083 696.292 834.375 695.292 831.5 695.208C849.458 641.958 842.5 588.958 824.292 541.292C802.083 482.542 763.25 431.375 733.667 396.167C700.5 354.292 668 314.625 668.625 255.792C669.75 166.125 678.5 0.25 520.958 0V0ZM543 141.875H543.542C552.417 141.875 560.042 144.458 567.875 150.125C575.833 155.75 581.625 163.958 586.167 172.333C590.542 183.125 592.75 191.458 593.083 202.5C593.083 201.667 593.333 200.833 593.333 200.042V204.375C593.25 204.083 593.167 203.75 593.167 203.5L593 202.5C592.917 212.625 590.792 222.625 586.75 231.917C584.792 237.125 581.792 241.917 577.875 245.875C576.667 245.208 575.5 244.625 574.208 244.125C569.833 242.25 565.917 241.458 562.333 238.583C559.375 237.417 556.292 236.458 553.208 235.833C555.25 233.375 559.25 230.292 560.792 227.583C563 222.25 564.208 216.583 564.458 210.833V210.042C564.542 204.417 563.708 198.75 561.917 193.375C560.042 187.75 557.708 185 554.292 179.458C550.792 176.708 547.333 173.958 543.167 173.958H542.5C538.625 173.958 535.167 175.208 531.583 179.458C527.625 183.375 524.667 188.083 523.042 193.375C520.833 198.667 519.542 204.375 519.292 210.042V210.833C519.375 214.542 519.625 218.292 520.125 221.958C512.083 219.167 501.875 216.333 494.833 213.542C494.417 210.833 494.167 208.042 494.083 205.25V204.417C493.75 193.417 495.875 182.5 500.333 172.375C503.75 163.25 510 155.458 518.25 150.167C525.375 144.792 534.042 141.875 543 141.875ZM419.583 144.333H421.083C427 144.333 432.333 146.333 437.708 149.958C443.792 155.333 448.708 161.958 452.042 169.333C455.792 177.625 457.917 186.042 458.417 197.125V197.292C458.708 202.875 458.667 205.667 458.333 208.375V211.708C457.083 212 456 212.458 454.875 212.708C448.542 215 443.458 218.333 438.5 221.042C439 217.333 439.042 213.583 438.625 209.917V209.292C438.125 203.75 437 201 435.208 195.417C433.917 191.167 431.542 187.375 428.292 184.292C426.25 182.417 423.5 181.458 420.667 181.625H419.792C416.833 181.875 414.375 183.333 412.042 187.125C409.375 190.333 407.667 194.25 407.042 198.375C405.917 202.875 405.583 207.5 406.083 212.167V212.75C406.583 218.375 407.625 221.125 409.458 226.667C411.333 232.25 413.5 235 416.333 237.833C416.792 238.208 417.208 238.583 417.75 238.833C414.833 241.208 412.875 241.75 410.417 244.5C408.875 245.667 407.083 247 404.958 247.333C400.625 242.125 396.792 236.5 393.5 230.583C389.5 221.833 387.417 212.333 387.042 202.792C386.333 193.375 387.5 183.958 390.375 174.958C392.667 166.75 396.708 159.167 402.167 152.667C407.5 147.125 413 144.333 419.583 144.333ZM476.708 215.417C490.5 215.417 507.208 218.125 527.333 232.042C539.542 240.375 549.125 243.25 571.208 251.542H571.333C581.958 257.208 588.208 262.625 591.25 268.167V262.708C594.292 268.833 594.5 275.958 591.917 282.292C586.792 295.25 570.417 309.125 547.583 317.417V317.5C536.417 323.125 526.708 331.375 515.292 336.875C503.792 342.5 490.792 349.042 473.125 348C466.792 348.333 460.417 347.375 454.458 345.208C449.875 342.708 445.375 339.958 441.042 336.958C432.917 331.333 425.917 323.125 415.542 317.583V317.375H415.333C398.667 307.125 389.667 296.042 386.75 287.75C383.875 276.583 386.542 268.208 394.792 262.75C404.125 257.125 410.625 251.458 414.917 248.75C419.25 245.667 420.875 244.5 422.25 243.292H422.333V243.167C429.375 234.75 440.5 223.625 457.292 218.125C463.083 216.625 469.542 215.417 476.708 215.417ZM593.333 304.708C608.292 363.75 643.208 449.5 665.667 491.083C677.583 513.333 701.292 560.208 711.583 617.083C718.083 616.875 725.292 617.833 732.958 619.75C759.875 550.125 710.208 475.292 687.583 454.5C678.375 446.125 677.917 440.542 682.458 440.542C707 462.792 739.333 506.042 751.042 555.417C756.417 577.708 757.667 601.417 751.917 625C754.708 626.167 757.542 627.542 760.458 627.792C803.458 650.042 819.333 666.875 811.708 691.833V690.042C809.167 689.917 806.708 690.042 804.167 690.042H803.542C809.833 670.583 795.958 655.667 759.167 639.042C721.042 622.375 690.583 625.042 685.375 658.417C685.083 660.208 684.875 661.167 684.667 664.042C681.833 665 678.875 666.25 675.958 666.708C658.042 677.875 648.375 694.583 642.917 716.167C637.5 738.375 635.833 764.333 634.375 794.042V794.167C633.5 808.083 627.25 829.083 621.083 850.458C558.583 895.125 471.917 914.542 398.208 864.375C393.583 856.333 387.958 848.792 381.458 842.167C378.375 836.958 374.458 832.292 370 828.25C377.583 828.25 384.083 827.042 389.375 825.458C395.417 822.667 400.083 817.625 402.458 811.542C406.958 800.417 402.458 782.5 388.083 763.083C373.708 743.625 349.292 721.625 313.583 699.708C287.333 683.083 272.5 663.458 265.667 641.542C258.792 619.292 259.708 596.333 265.042 573C275.25 528.417 301.417 485.083 318.125 457.875C322.583 455.167 319.667 463.5 301.125 498.458C284.625 529.75 253.583 602.5 296.042 659.042C297.625 617.833 306.792 577.167 323 539.208C346.5 485.958 395.625 393.208 399.5 319.708C401.5 321.208 408.542 325.333 411.542 328.125C420.625 333.667 427.375 342 436.125 347.5C444.917 355.875 456 361.458 472.625 361.458C474.25 361.583 475.75 361.708 477.25 361.708C494.375 361.708 507.625 356.125 518.75 350.542C530.833 344.958 540.458 336.625 549.583 333.875H549.792C569.25 328.25 584.625 317.125 593.333 304.708ZM684.417 677.958C685.958 703 698.708 729.833 721.167 735.333C745.667 740.917 780.917 721.458 795.792 703.458L804.583 703.083C817.708 702.75 828.625 703.5 839.875 714.208L840 714.333C848.667 722.625 852.708 736.458 856.292 750.833C859.833 767.542 862.708 783.333 873.333 795.25C893.583 817.208 900.208 833 899.833 842.75L899.958 842.5V843.25L899.833 842.75C899.208 853.667 892.125 859.25 879.083 867.542C852.833 884.25 806.333 897.208 776.708 932.958C750.958 963.667 719.583 980.417 691.875 982.583C664.208 984.792 640.333 974.25 626.292 945.167L626.083 945.042C617.333 928.333 621.083 902.333 628.417 874.625C635.75 846.792 646.25 818.583 647.708 795.542C649.25 765.792 650.875 739.917 655.833 719.958C660.833 700.583 668.667 686.75 682.542 678.958L684.417 678.042V677.958ZM233.792 680H234.208C236.417 680 238.583 680.208 240.75 680.583C256.417 682.875 270.167 694.458 283.375 711.917L321.292 781.25L321.417 781.375C331.542 803.583 352.833 825.708 370.958 849.625C389.042 874.542 403.042 896.75 401.333 915.042V915.292C398.958 946.292 381.375 963.125 354.458 969.208C327.583 974.833 291.125 969.292 254.667 949.875C214.333 927.542 166.417 930.333 135.625 924.792C120.25 922.042 110.167 916.417 105.5 908.083C100.875 899.792 100.792 883.042 110.625 856.833V856.708L110.708 856.583C115.583 842.667 111.958 825.208 109.583 809.958C107.292 793.25 106.125 780.417 111.375 770.792C118.042 756.875 127.875 754.167 140.083 748.583C152.375 742.958 166.792 740.167 178.25 729.042H178.333V728.917C189 717.75 196.875 703.875 206.167 694C214.083 685.625 222 680 233.792 680ZM532.083 301.917C513.958 310.292 492.708 324.208 470.083 324.208C447.5 324.208 429.667 313.083 416.792 304.792C410.333 299.208 405.125 293.625 401.208 290.833C394.375 285.25 395.208 276.917 398.125 276.917C402.667 277.583 403.5 282.542 406.417 285.292C410.417 288.042 415.375 293.583 421.458 299.167C433.583 307.5 449.792 318.625 470.042 318.625C490.25 318.625 513.917 307.5 528.292 299.208C536.417 293.583 546.833 285.292 555.292 279.75C561.792 274.042 561.5 268.583 566.917 268.583C572.292 269.25 568.333 274.167 560.792 282.458C553.25 288.083 541.583 296.417 532.042 301.958V301.917H532.083ZM487 235.917V235C486.75 234.208 487.542 233.25 488.208 232.917C491.292 231.125 495.708 231.792 499.042 233.083C501.667 233.083 505.708 235.875 505.292 238.708C505.042 240.75 501.75 241.458 499.667 241.458C497.375 241.458 495.833 239.667 493.792 238.625C491.625 237.875 487.708 238.292 487 235.917ZM464.042 235.917C463.208 238.333 459.333 237.958 457.125 238.667C455.167 239.708 453.542 241.5 451.333 241.5C449.208 241.5 445.875 240.708 445.625 238.667C445.25 235.917 449.292 233.125 451.875 233.125C455.25 231.833 459.542 231.167 462.667 232.917C463.458 233.292 464.167 234.167 463.917 235V235.875H464.042V235.917Z" fill="black"/>
</g>
<defs>
<clipPath id="clip0_12_315">
<rect width="1000" height="1000" fill="white"/>
</clipPath>
</defs>
</svg>
