<svg width="1000" height="1000" viewBox="0 0 1000 1000" fill="none" xmlns="http://www.w3.org/2000/svg">
<path fill-rule="evenodd" clip-rule="evenodd" d="M41.6667 500C41.6667 246.875 246.875 41.6667 500 41.6667C753.125 41.6667 958.333 246.875 958.333 500C958.333 753.125 753.125 958.333 500 958.333C246.875 958.333 41.6667 753.125 41.6667 500ZM500 250C500 238.949 495.61 228.351 487.796 220.537C479.982 212.723 469.384 208.333 458.333 208.333C447.283 208.333 436.685 212.723 428.871 220.537C421.057 228.351 416.667 238.949 416.667 250V303.333L320.167 335.458C309.68 338.95 301.009 346.465 296.063 356.35C291.117 366.235 290.3 377.68 293.792 388.167C297.284 398.654 304.799 407.324 314.684 412.271C324.568 417.217 336.013 418.034 346.5 414.542L416.667 391.125V428.292L320.167 460.458C309.68 463.95 301.009 471.465 296.063 481.35C291.117 491.235 290.3 502.68 293.792 513.167C297.284 523.654 304.799 532.324 314.684 537.271C324.568 542.217 336.013 543.034 346.5 539.542L416.667 516.125V708.333C416.667 719.384 421.057 729.982 428.871 737.796C436.685 745.61 447.283 750 458.333 750C499.708 750 560.875 737.917 612.917 700.458C667 661.5 708.333 596.917 708.333 500C708.333 488.949 703.944 478.351 696.13 470.537C688.316 462.723 677.717 458.333 666.667 458.333C655.616 458.333 645.018 462.723 637.204 470.537C629.39 478.351 625 488.949 625 500C625 569.75 596.875 609.333 564.167 632.833C544.822 646.421 523.034 656.141 500 661.458V488.333L596.5 456.167C601.693 454.438 606.494 451.703 610.63 448.118C614.766 444.534 618.155 440.169 620.604 435.275C623.053 430.381 624.514 425.052 624.904 419.593C625.294 414.134 624.604 408.651 622.875 403.458C621.146 398.266 618.411 393.464 614.826 389.329C611.242 385.193 606.878 381.804 601.983 379.355C597.089 376.906 591.76 375.444 586.301 375.055C580.842 374.665 575.359 375.354 570.167 377.083L500 400.542V363.333L596.5 331.167C606.987 327.675 615.658 320.16 620.604 310.275C625.55 300.39 626.367 288.946 622.875 278.458C619.383 267.971 611.868 259.301 601.983 254.355C592.099 249.408 580.654 248.591 570.167 252.083L500 275.542V250Z" fill="black"/>
</svg>
