<svg width="1000" height="1000" viewBox="0 0 1000 1000" fill="none" xmlns="http://www.w3.org/2000/svg">
<g clip-path="url(#clip0_8_119)">
<path d="M15.7812 432.469L4.53125 430.844C2.4375 445.188 1.125 459.812 0.3125 474.312L11.6875 474.938C12.5312 460.812 13.8125 446.469 15.7812 432.469ZM172.375 137.031L164.719 128.562C153.969 138.156 143.375 148.406 133.625 158.969L141.906 166.969C151.688 156.562 161.781 146.469 172.375 137V137.031ZM240.406 85.7812L234.188 76C221.969 83.8438 209.781 92.125 198.406 100.75L205.25 109.875C216.469 101.406 228.344 93.25 240.406 85.7812ZM76 765.281C83.6562 777.656 91.9688 789.688 100.75 801.25L109.875 794.406C101.406 783.188 93.25 771.312 85.7812 759.281L76 765.281ZM47.0312 683.406L36.2812 687.812C41.6562 700.969 47.6875 714.188 54.375 727.031L54.5312 727.531L64.7812 722.312L64.4375 721.812C58.0938 709.281 52.2188 696.438 47.0312 683.406ZM12.375 387.875L23.5938 390.469C26.875 376.625 30.5938 362.812 35 349.469L24.0938 345.875C19.5625 359.719 15.625 373.875 12.375 387.875ZM11.375 517.594L0 517.938C0.5 532.406 1.625 547.062 3.40625 561.406L14.7812 560.062C13 546.062 11.875 531.781 11.375 517.594ZM10.75 604.5C13.6562 618.656 17.4062 632.844 21.6562 646.656L32.5312 643.375C28.5 629.719 24.9062 615.875 21.7812 602.031L10.75 604.5ZM482.25 11.375L481.75 0C467.281 0.5 452.625 1.625 438.344 3.40625L439.812 14.7812C453.812 13 468.094 11.875 482.281 11.375H482.25ZM967.625 356.906C971.656 370.438 975.25 384.438 978.219 398.281L989.438 395.812C986.531 381.656 982.781 367.312 978.531 353.469L967.625 356.906ZM734.219 57.9688C721.344 51.125 708 44.75 694.844 39.2188L690.25 49.625C703.469 55.1562 716.281 61.375 728.844 68.0312L734.219 57.9688ZM653.781 23.75C639.938 19.5312 625.938 15.4688 611.812 12.375L609.188 23.4062C623.031 26.6875 636.844 30.4062 650.344 34.8125L653.781 23.75ZM278.156 64.4688C290.531 58.125 303.375 52.25 316.25 47.0625L311.844 36.3125C298.688 41.6875 285.625 47.7188 272.969 54.2188L272.312 54.5625L277.531 64.8125L278.156 64.4688ZM988.625 482.906L1000.16 482.406C999.5 467.906 998.375 453.281 996.75 438.781L985.344 440.25C987 454.25 988.125 468.594 988.625 482.906ZM568.844 4.375C554.562 2.46875 539.875 0.96875 525.375 0.34375L524.906 11.7188C539.062 12.375 553.375 13.8437 567.375 15.8125L568.844 4.375ZM397.625 21.9688L395.156 10.75C381.031 13.6562 366.875 17.4062 353.031 21.6562L356.438 32.5312C369.938 28.5 383.781 24.9062 397.594 21.9375L397.625 21.9688ZM80.0938 227.875L89.6875 234.031C97.3438 222.312 105.656 210.625 114.281 199.375L105.312 192.219C96.3438 203.812 87.9062 215.844 80.0938 227.875ZM39.2188 304.844L49.8125 309.438C55.3438 296.406 61.5625 283.406 68.2188 270.844L57.9688 265.469C51.25 278.344 44.9375 291.5 39.2188 304.844ZM759.281 914.219L765.281 924C777.656 916.344 789.688 908.031 801.25 899.25L794.406 890.125C783.188 898.594 771.312 906.906 759.281 914.219ZM885.25 800.781L894.375 807.938C903.344 796.531 911.781 784.469 919.594 772.281L910.188 766.125C902.344 778 894.062 789.531 885.281 800.781H885.25ZM827.281 863.125L834.938 871.594C845.688 862 856.281 851.594 866.031 841.188L857.75 833.188C848.125 843.594 837.719 853.531 827.281 863.156V863.125ZM931.625 729.344L941.75 734.719C948.594 721.844 954.906 708.688 960.469 695.344L949.875 690.938C944.344 703.969 938.344 716.812 931.625 729.344ZM984.031 567.875L995.438 569.5C997.406 555 998.844 540.531 999.656 526.031L988.281 525.375C987.438 539.531 986 553.875 984.031 567.875ZM964.844 650.875L975.938 654.469C980.312 640.625 984.219 626.469 987.469 612.312L976.25 609.719C973.125 623.719 969.25 637.562 964.844 650.875ZM935.531 278C941.875 290.719 947.906 303.719 953.281 316.875L963.875 312.5C958.5 299.156 952.281 285.625 945.625 272.781L935.531 278ZM345.719 975.75C359.562 980.125 373.562 984.031 387.719 987.281L390.312 976.25C376.469 973 362.656 969.25 349.312 964.844L345.719 975.75ZM430.656 995.469C445 997.438 459.625 998.875 474.125 999.688L474.625 988.156C460.625 987.5 446.281 986.031 432.125 984.062L430.656 995.469ZM721.844 935.375C709.312 941.75 696.469 947.75 683.25 952.969L687.656 963.719C700.812 958.188 714.375 952.312 727.031 945.625L727.188 945.469L722.156 935.219L721.844 935.375ZM192.219 894.531C203.625 903.312 215.688 911.938 227.875 919.562L234.031 910.156C222.156 902.312 210.438 894.031 199.188 885.406L192.219 894.531ZM517.406 988.625L517.75 1000C532.219 999.344 546.875 998.375 561.375 996.406L559.906 985.188C545.906 986.969 531.562 988.094 517.406 988.594V988.625ZM265.469 941.875C278.188 948.594 291.5 954.906 304.844 960.625L309.25 950.031C296.219 944.312 283.375 938.312 270.844 931.625L265.469 941.875ZM128.406 834.969C138.156 845.875 148.406 856.312 159 866.062L166.844 857.781C156.594 848.156 146.5 837.906 137.062 827.312L128.406 834.969ZM601.875 978.219L604.344 989.438C618.5 986.344 632.688 982.594 646.688 978.344L643.281 967.469C629.562 971.5 615.75 975.094 601.906 978.219H601.875ZM882.5 5.375C820.625 5.375 770.5 55.5 770.5 117.344C770.5 179.375 820.625 229.5 882.5 229.5C1031.91 229.5 1031.91 5.375 882.5 5.375ZM638.5 643.531C638.5 663.25 651.531 671.031 674 671.031C702 671.031 728.031 654.625 728.031 628.75V601.875C718.406 606.469 712.25 607.75 681.938 612C651.344 616.531 638.469 624.656 638.469 643.531H638.5ZM500 117.344C288.75 117.344 117.5 288.594 117.5 499.844C117.5 711.094 288.75 882.5 500 882.5C711.25 882.5 882.5 711.094 882.5 499.844C882.5 288.75 711.25 117.344 500 117.344ZM396.344 691.25H240.438V440.25H272.469V662.906H396.5V691.25H396.344ZM568.531 691.25H542.625V663.25C525.719 687 508.969 696.281 482.406 696.281C447.25 696.281 424.938 676.906 424.938 646.938V510.719H453.438V635.719C453.438 657.344 467.906 671.188 490.688 671.188C520.656 671.188 539.844 647.094 539.844 610.312V510.719H568.5L568.531 691.25ZM546.375 341.469C546.375 279.625 596.5 229.5 658.375 229.5C720.219 229.5 770.344 279.625 770.344 341.469C770.344 403.344 720.219 453.469 658.375 453.469C596.5 453.469 546.375 403.344 546.375 341.469ZM778.344 668.781V690.406C769.062 692.875 764.688 693.531 758.812 693.531C744.469 693.531 732.094 683.562 729.031 669.75C713.25 686.656 690.781 696.281 667.812 696.281C631.188 696.281 608.562 677.062 608.562 644.375C608.562 622.406 619.156 606.125 640.156 597.5C651.406 593.094 657.406 591.625 698.125 586.594C720.906 583.844 728.094 578.625 728.094 566.594V558.938C728.094 541.844 713.594 532.094 687.875 532.094C660.844 532.094 648 542.188 645.375 564.125H616.594C618.375 522.469 645.219 505.719 688.844 505.719C733.312 505.719 756.562 522.812 756.562 554.844V655.438C756.562 664.406 762.094 669.438 772.188 669.438C773.812 669.438 775.281 669.438 778.406 668.812L778.344 668.781Z" fill="black"/>
</g>
<defs>
<clipPath id="clip0_8_119">
<rect width="1000" height="1000" fill="white"/>
</clipPath>
</defs>
</svg>
