<svg width="1000" height="1000" viewBox="0 0 1000 1000" fill="none" xmlns="http://www.w3.org/2000/svg">
<path d="M769.12 82.6596C764.72 78.9196 758.34 79.1596 754.24 83.2396L500 334.4L245.76 83.2196C241.66 79.1596 235.28 78.8996 230.88 82.6396C223.9 88.5596 60 229.54 60 421.18C60 826.86 424.7 879.42 428.38 879.9C428.86 879.98 429.34 880 429.8 880C434.58 880 438.88 876.86 440.46 872.02C442.18 866.74 440.12 860.92 435.5 858.1C433.64 856.96 249.26 742.18 249.26 609.42C249.26 539.12 270.16 491.66 283.42 468.62C286.72 462.88 294.02 461.28 299.28 465.12C334.42 490.82 417.96 568.12 492.26 641.54C496.62 645.84 503.34 645.84 507.7 641.54C582.26 567.88 666.12 490.3 700.48 464.92C705.72 461.06 713.06 462.62 716.38 468.36C729.62 491.28 750.7 538.86 750.7 609.44C750.7 697.4 662.24 788.34 661.34 789.24C657.68 792.96 656.86 798.8 659.38 803.46C661.9 808.08 667.12 810.44 672.06 809.04C674.76 808.3 940 732.56 940 421.18C940 229.54 776.1 88.5596 769.12 82.6596Z" fill="black"/>
</svg>
