<svg width="1000" height="868" viewBox="0 0 1000 868" fill="none" xmlns="http://www.w3.org/2000/svg">
<g clip-path="url(#clip0_12_500)">
<path fill-rule="evenodd" clip-rule="evenodd" d="M5.6326 334.828C15.8385 264.446 94.4093 45.113 315.057 3.52821C445.282 -21.0402 605.851 46.4595 718.585 160.793C662.378 199.379 624.8 232.71 596.413 273.215C617.573 351.786 680.122 383.776 724.159 397.085C675.367 367.586 644.568 339.752 625.496 280.377C729.864 156.318 841.583 116.197 851.021 115.241C938.283 184.854 999.876 311.794 997.658 445.454C995.056 600.228 910.904 759.737 814.393 824.101C801.15 830.437 770.675 813.733 766.492 795.63C786.26 749.752 832.964 638.04 838.727 554.61C844.178 474.504 791.139 427.475 746.653 485.38C684.806 588.903 657.811 717.508 630.816 856.287C585.387 869.27 508.267 872.536 474.937 854.752C470.689 768.883 490.711 622.24 433.749 570.794C409.349 548.723 385.269 558.955 368.923 579.302C327.734 630.299 328.554 762.547 336.542 848.286C290.469 876.757 212.405 870.805 163.041 853.152C143.266 718.399 96.7575 554.161 58.7373 428.431C48.1541 478.979 43.0219 539.057 44.6676 590.692C19.26 570.026 -9.64053 461.319 5.6326 334.828Z" fill="black"/>
</g>
<defs>
<clipPath id="clip0_12_500">
<rect width="1000" height="867.089" fill="white"/>
</clipPath>
</defs>
</svg>
