<svg width="1000" height="1000" viewBox="0 0 1000 1000" fill="none" xmlns="http://www.w3.org/2000/svg">
<path d="M760.125 728.125H696.75C696.75 765.375 720.917 782.333 759.458 773.875V728.125H760.125ZM762.75 589.542C762.75 580.375 767.333 460.792 796.083 366.667C826.792 263.417 889.542 201.958 884.958 196.083C881.042 190.208 830.083 200.667 790.833 227.458C749.667 255.542 709.167 302.625 712.417 305.875C714.375 307.833 728.125 296.708 752.958 286.917C779.75 277.125 791.5 279.083 791.5 279.083C791.5 279.083 747.042 352.292 725.5 430.75C707.167 496.75 697.375 582.333 696.75 590.208L762.75 589.542ZM237.25 589.542C236.583 580.375 232.667 460.792 203.917 366.667C173.208 263.417 110.458 201.958 115.042 196.083C118.958 190.208 169.917 200.667 208.5 227.458C249.667 255.542 290.167 302.625 286.917 305.875C284.958 307.833 271.25 296.708 246.417 286.917C219.625 277.125 208.5 279.083 208.5 279.083C208.5 279.083 252.958 352.292 274.5 430.75C292.833 496.75 302.625 582.333 302.625 590.208L237.25 589.542ZM462.75 125.5C488.25 75.8333 492.792 1.33333 499.333 0C505.208 1.29167 510.458 75.8333 535.292 125.5C558.833 172.583 609.792 211.75 607.208 217C603.917 222.875 575.125 208.5 561.458 202C538.542 191.5 520.25 183 520.25 183C520.25 183 511.083 301.958 539.833 411.75C563.417 501.333 620.25 583 625.5 590.208H552.917C550.958 586.292 548.333 582.333 546.375 579.083C526.792 544.458 512.375 514.375 499.292 462.75C485.542 514.417 471.208 544.417 451.583 579.083C449.795 583.009 447.603 586.737 445.042 590.208H372.542C377.75 583 434.625 501.292 458.125 411.75C486.875 302.583 477.708 183 477.708 183C477.708 183 459.417 191.5 436.542 201.958C422.167 208.5 394.042 222.875 390.167 217.667C388.208 212.417 439.167 172.542 462.667 125.5H462.75ZM239.25 728.125H302.667C302.667 765.375 278.5 782.333 239.25 773.875V728.125ZM591.542 756.875C562.792 783.667 562.792 831.375 562.792 831.375H437.917C437.917 831.375 437.917 783.667 409.167 756.875C388.875 737.917 364.042 733.958 364.042 733.958C347.708 730.708 347.708 728.75 347.708 728.125H654.25C654.25 728.125 654.25 730.708 637.917 733.958C620.564 736.979 604.449 744.935 591.5 756.875H591.542ZM208.5 605.833H789.542V628.083H208.5V605.833ZM209.167 687.542H790.208V709.125H209.167V687.542ZM237.25 646.375H762.083V668.583H237.25V646.375ZM432.667 909.75H566V1000H432.667V909.75ZM411.125 848.958H587.583V892.75H411.125V848.958Z" fill="black"/>
</svg>
