<svg width="1000" height="1000" viewBox="0 0 1000 1000" fill="none" xmlns="http://www.w3.org/2000/svg">
<path d="M472.625 751.292C475.042 753.333 477.625 755.375 480.167 757.375C429.479 791.108 369.928 809.059 309.042 808.958C260.825 808.957 213.278 797.673 170.204 776.008C127.129 754.343 89.722 722.898 60.9747 684.189C32.2274 645.48 12.9375 600.581 4.64804 553.083C-3.64145 505.584 -0.700514 456.805 13.2356 410.647C27.1717 364.489 51.7163 322.232 84.9061 287.257C118.096 252.282 159.01 225.56 204.375 209.227C249.741 192.894 298.299 187.404 346.166 193.196C394.034 198.988 439.881 215.901 480.042 242.583C477.542 244.708 475.042 246.667 473.167 248.833C437.073 279.976 408.114 318.532 388.262 361.874C368.41 405.216 358.131 452.328 358.125 500C358.136 547.637 368.362 594.718 388.114 638.067C407.866 681.417 436.684 720.026 472.625 751.292ZM691 191C627.667 191 568.875 210 519.958 242.583C522.458 244.708 524.958 246.667 526.833 248.833C562.927 279.976 591.886 318.532 611.738 361.874C631.59 405.216 641.869 452.328 641.875 500C641.848 547.634 631.615 594.71 611.864 638.057C592.113 681.404 563.303 720.015 527.375 751.292C524.958 753.333 522.375 755.375 519.833 757.375C570.516 791.119 630.07 809.071 690.958 808.958C731.54 808.975 771.727 800.995 809.224 785.475C846.72 769.956 880.792 747.2 909.491 718.508C938.19 689.817 960.955 655.751 976.485 618.259C992.015 580.766 1000.01 540.581 1000 500C999.989 418.051 967.43 339.463 909.484 281.516C851.537 223.57 772.948 191.011 691 191ZM500 257.25C463.191 286.095 433.438 322.947 412.999 365.008C392.56 407.07 381.973 453.235 382.042 500C381.961 546.773 392.542 592.948 412.981 635.018C433.421 677.089 463.181 713.947 500 742.792C536.81 713.938 566.563 677.079 587.002 635.01C607.44 592.942 618.027 546.77 617.958 500C618.027 453.235 607.44 407.07 587.001 365.008C566.562 322.947 536.809 286.095 500 257.25Z" fill="black"/>
</svg>
