<svg width="1000" height="1000" viewBox="0 0 1000 1000" fill="none" xmlns="http://www.w3.org/2000/svg">
<path fill-rule="evenodd" clip-rule="evenodd" d="M916.464 604.682C850.054 445.973 738.618 310.906 599.048 214.11C599.048 214.11 529.255 164.576 499.995 164.576C470.73 164.576 400.942 214.11 400.942 214.11C261.372 310.901 149.936 445.968 83.5254 604.682C83.5254 604.682 62.146 656.457 62.146 682.35C62.146 684.606 62.146 687.984 63.2718 690.225C64.4027 693.607 65.5233 695.859 67.7749 698.116C85.7769 716.128 136.432 738.638 136.432 738.638C247.863 788.162 370.562 816.301 500 816.301C629.438 816.301 752.127 788.162 863.553 738.638C863.553 738.638 914.218 716.128 932.22 698.116C934.472 695.859 935.603 693.613 936.718 690.225C937.854 687.984 937.854 684.606 937.854 682.35C937.854 656.457 916.464 604.682 916.464 604.682ZM908.594 678.972C907.458 681.224 906.332 683.475 905.212 684.601C891.703 699.226 853.437 716.118 853.437 716.118C745.383 763.39 624.946 790.398 500.005 790.398C375.07 790.398 254.628 763.39 146.569 716.118C146.569 716.118 108.298 699.226 94.7935 684.601C93.6729 683.475 92.5419 681.224 91.4213 678.972C90.2904 676.716 90.2904 675.59 90.2904 672.212C90.2904 653.079 107.177 614.814 107.177 614.814C171.325 460.603 279.384 328.913 414.452 234.364C414.452 234.364 475.238 192.715 500 192.715C524.757 192.715 585.543 234.364 585.543 234.364C720.611 328.913 828.664 460.603 892.823 614.814C892.823 614.814 909.705 653.079 909.705 672.212C909.71 675.59 909.71 676.716 908.594 678.972Z" fill="black"/>
<path fill-rule="evenodd" clip-rule="evenodd" d="M637.314 475.233V282.756L500 364.933L362.676 282.756V475.233L242.239 403.199L237.741 743.131C248.988 746.503 261.372 749.886 273.75 753.258L278.259 467.358L362.671 518.012V772.391C375.06 774.648 387.438 776.894 399.827 778.02V540.518L500 601.299L600.178 540.518V778.02C612.562 776.894 624.94 774.648 637.314 772.391V518.018L721.736 467.363L726.234 753.263C738.618 749.891 750.996 746.509 762.254 743.136L757.756 403.204L637.314 475.233ZM600.178 497.743L500 558.53L399.827 497.743V348.046L500 407.707L600.178 348.046V497.743Z" fill="black"/>
</svg>
