<svg width="1000" height="1000" viewBox="0 0 1000 1000" fill="none" xmlns="http://www.w3.org/2000/svg">
<path d="M499.958 536.5C498.458 536.5 495.583 534.583 490.708 525.667C470.305 487.679 442.292 454.304 408.417 427.625C381.832 406.775 352.321 389.955 320.833 377.708C316.061 375.77 311.269 373.881 306.458 372.042C264.292 355.375 220.583 338.167 180 314.667C175.501 312.12 171.056 309.481 166.667 306.75C174.75 292.583 184.167 279.042 194.583 266.667C209.701 248.598 227.274 232.735 246.792 219.542C267.747 205.531 290.402 194.246 314.208 185.958C364.958 167.875 425.75 159 499.958 158.917C574.25 159 635 167.875 685.75 186C709.574 194.259 732.244 205.531 753.208 219.542C772.833 232.833 790.375 248.667 805.417 266.625C815.833 279.042 825.208 292.583 833.333 306.75C829.042 309.417 824.5 312.125 820 314.75C779.333 338.25 735.708 355.458 693.458 372.083L679.083 377.75C647.626 390.007 618.144 406.826 591.583 427.667C557.693 454.348 529.678 487.739 509.292 525.75C504.417 534.625 501.5 536.542 499.958 536.542V536.5ZM499.958 831.208C435.625 831.125 383.375 825.833 340.375 815.083C298.167 804.583 263.083 788.417 233.042 765.583C210.013 747.899 190.365 726.204 175.042 701.542C160.686 678.531 149.344 653.773 141.292 627.875C128.734 587.625 122.178 545.745 121.833 503.583C121.833 475.5 123.792 448.875 127.458 424.375C173.542 449.208 217.167 461.667 255.792 472.708L264.75 475.208C318.5 490.667 361.167 510.917 395.375 537.208C415.167 552.542 432.458 570.25 446.625 589.875C462 611.042 474.25 635.208 483.167 661.75C487.167 673.792 491.5 681.25 499.958 681.25C508.583 681.25 512.792 673.75 516.833 661.75C532.737 612.279 563.367 568.842 604.625 537.25C638.792 510.917 681.5 490.667 735.25 475.208L744.25 472.708C782.833 461.667 826.458 449.208 872.5 424.375C876.25 448.917 878.167 475.5 878.167 503.542C878.167 522.625 876.25 572.875 858.792 627.875C850.745 653.768 839.417 678.525 825.083 701.542C809.713 726.22 790.007 747.916 766.917 765.583C736.792 788.417 701.708 804.583 659.667 815.083C616.542 825.833 564.333 831.125 499.958 831.208ZM903.792 224.708C824.25 139.292 695.875 100.125 499.958 99.9166C304.125 100.125 175.75 139.25 96.2083 224.667C37.0833 288.042 0 375.75 0 494.75C0 560.542 16.25 728.083 148.5 814.583C227.667 866.333 329.917 899.833 499.958 900.083C670.083 899.833 772.292 866.333 851.5 814.583C983.708 728.083 1000 560.5 1000 494.75C1000 376.083 962.625 287.75 903.75 224.625L903.792 224.708Z" fill="black"/>
</svg>
