<svg width="1000" height="1000" viewBox="0 0 1000 1000" fill="none" xmlns="http://www.w3.org/2000/svg">
<path d="M794.25 488.042C931.958 398.917 1117.08 396.042 901.083 540.042L904.5 535.458C965.625 451.458 841.083 470.333 797.083 486.875L794.25 488.042ZM290.292 551.5H348.583V574.375H281.125C252.542 574.375 240 565.792 240 542.958V537.833C240 518.417 251.417 505.833 280 505.833H348.583V528.708H290.292C287.566 528.719 284.954 529.807 283.026 531.735C281.099 533.662 280.011 536.274 280 539V541.875C280.16 544.491 281.315 546.946 283.23 548.736C285.144 550.526 287.671 551.515 290.292 551.5ZM400 494.333V551.458H434.292V574.333H354.292V494.333H400ZM183.417 504.625C191.375 498.208 201.208 494.583 211.417 494.333H234.292V574.333H188.542V534.333L144.542 574.333H102.833V534.333L51.9583 574.333H0L90.8333 505.75C99.4167 499.458 105.125 494.333 119.958 494.333H148.542V534.333L183.417 504.625ZM571.417 513.208C571.41 511.38 571.784 509.571 572.515 507.895C573.246 506.22 574.318 504.715 575.662 503.476C577.006 502.238 578.594 501.293 580.323 500.701C582.053 500.11 583.887 499.885 585.708 500.042H640V522.917H611.417V574.333H571.417V513.208ZM839.375 500.042C873.667 500.042 885.667 507.458 885.667 532.625V574.333H845.667V545.75C845.667 543.501 845.224 541.274 844.363 539.196C843.502 537.119 842.241 535.231 840.651 533.641C839.061 532.05 837.173 530.789 835.095 529.928C833.017 529.068 830.791 528.625 828.542 528.625H811.417V574.333H771.417V500.042H839.375ZM527.417 500.042C553.708 500.042 565.708 510.917 565.708 529.167V546.292C565.708 567.417 553.708 574.292 524.583 574.292H479.458C462.875 574.292 450.875 572.583 444.583 566.875C441.583 563.162 439.963 558.523 440 553.75V550.875C440 539.458 446.875 528.583 468.583 528.583H520C520 523.458 520.583 522.875 514.292 522.875H445.708V500H527.417V500.042ZM519.958 548.625V545.75H488.542C487.863 545.866 487.247 546.218 486.804 546.744C486.36 547.27 486.116 547.936 486.116 548.625C486.116 549.313 486.36 549.979 486.804 550.506C487.247 551.032 487.863 551.384 488.542 551.5H517.125C517.501 551.5 517.872 551.425 518.219 551.28C518.565 551.135 518.88 550.923 519.143 550.655C519.407 550.388 519.615 550.071 519.755 549.722C519.895 549.373 519.964 549 519.958 548.625ZM729.125 500.042C759.417 500.042 765.708 509.167 765.708 521.75V524.625C765.708 538.333 754.833 545.75 737.125 545.75H685.708C685.708 550.875 690.833 551.458 697.125 551.458H759.958V574.333H681.667C657.083 574.333 645.667 564.042 645.667 545.208V532.083C645.667 510.375 657.667 500.083 685.083 500.083H729.125V500.042ZM722.833 528.625C723.512 528.509 724.127 528.157 724.571 527.631C725.015 527.104 725.259 526.438 725.259 525.75C725.259 525.061 725.015 524.395 724.571 523.869C724.127 523.343 723.512 522.991 722.833 522.875H688.542C687.782 522.886 687.057 523.192 686.521 523.729C685.984 524.266 685.677 524.991 685.667 525.75V528.625H722.833Z" fill="black"/>
</svg>
