<svg width="1000" height="1000" viewBox="0 0 1000 1000" fill="none" xmlns="http://www.w3.org/2000/svg">
<g clip-path="url(#clip0_9_544)">
<path d="M500.208 0C776.167 0 1000.21 224.042 1000.21 500C1000.21 775.958 776.167 1000 500.208 1000C224.25 1000 0.208374 775.958 0.208374 500C0.208374 224.042 224.25 0 500.208 0ZM135.417 730.792C174.337 792.331 228.196 843.021 291.979 878.144C355.762 913.266 427.395 931.679 500.208 931.667C653.583 931.667 788.417 851.5 865 730.792L500.208 591.792L135.417 730.792ZM579.708 454.083L882.5 700.542C915.028 638.707 931.977 569.869 931.875 500C931.875 267.625 747.833 77.875 517.708 68.6667L579.708 454.083ZM482.708 68.6667C252.583 77.875 68.5417 267.625 68.5417 500C68.5417 572.375 86.375 640.583 117.917 700.542L420.708 454.083L482.708 68.6667Z" fill="black"/>
</g>
<defs>
<clipPath id="clip0_9_544">
<rect width="1000" height="1000" fill="white"/>
</clipPath>
</defs>
</svg>
