<svg width="868" height="805" viewBox="0 0 868 805" fill="none" xmlns="http://www.w3.org/2000/svg">
<path d="M270 352.5L274.277 366.877L279.118 365.437L282.102 361.363L270 352.5ZM342.5 253.5L354.602 262.363L363.11 250.744L351.848 241.769L342.5 253.5ZM49.5 20L54.1132 5.72702L38.8542 0.795065L34.9511 16.3491L49.5 20ZM16 153.5L1.45107 149.849L0.612033 153.193L1.31695 156.567L16 153.5ZM329.5 110.5L324.887 124.773L327.136 125.5H329.5V110.5ZM544 110.5V125.5H546.392L548.666 124.756L544 110.5ZM820.5 20L835.087 16.5035L831.295 0.683773L815.834 5.74418L820.5 20ZM852.5 153.5L867.118 156.865L867.908 153.43L867.087 150.004L852.5 153.5ZM599 352.5L587.131 361.672L590.045 365.443L594.602 366.841L599 352.5ZM522.5 253.5L513.248 241.693L501.521 250.882L510.631 262.672L522.5 253.5ZM842 593L856.57 596.567L857.489 592.812L856.479 589.08L842 593ZM800.5 762.5L797.389 777.174L811.612 780.19L815.07 766.067L800.5 762.5ZM609.5 593V578H594.5V593H609.5ZM509.5 789.5V804.5H514.089L517.892 801.933L509.5 789.5ZM358 789.5L350.129 802.269L353.748 804.5H358V789.5ZM70 762.5L55.7078 767.053L59.8883 780.175L73.319 777.128L70 762.5ZM16 593L1.62607 588.712L0.303389 593.145L1.70778 597.553L16 593ZM264 593L278.893 594.789L280.91 578H264V593ZM74.2772 426.377L274.277 366.877L265.723 338.123L65.7228 397.623L74.2772 426.377ZM282.102 361.363L354.602 262.363L330.398 244.637L257.898 343.637L282.102 361.363ZM351.848 241.769L58.8484 8.26941L40.1516 31.7306L333.152 265.231L351.848 241.769ZM34.9511 16.3491L1.45107 149.849L30.5489 157.151L64.0489 23.6509L34.9511 16.3491ZM1.31695 156.567L55.3169 415.067L84.6831 408.933L30.6831 150.433L1.31695 156.567ZM44.8868 34.273L324.887 124.773L334.113 96.227L54.1132 5.72702L44.8868 34.273ZM329.5 125.5H544V95.5H329.5V125.5ZM548.666 124.756L825.166 34.2558L815.834 5.74418L539.334 96.2442L548.666 124.756ZM805.913 23.4965L837.913 156.996L867.087 150.004L835.087 16.5035L805.913 23.4965ZM837.882 150.135L778.382 408.635L807.618 415.365L867.118 156.865L837.882 150.135ZM797.398 397.659L603.398 338.159L594.602 366.841L788.602 426.341L797.398 397.659ZM610.869 343.328L534.369 244.328L510.631 262.672L587.131 361.672L610.869 343.328ZM531.752 265.307L829.752 31.8071L811.248 8.19286L513.248 241.693L531.752 265.307ZM778.521 415.92L827.521 596.92L856.479 589.08L807.479 408.08L778.521 415.92ZM827.43 589.433L785.93 758.933L815.07 766.067L856.57 596.567L827.43 589.433ZM803.611 747.826L612.611 707.326L606.389 736.674L797.389 777.174L803.611 747.826ZM624.5 722V593H594.5V722H624.5ZM609.5 608H842V578H609.5V608ZM601.108 709.567L501.108 777.067L517.892 801.933L617.892 734.433L601.108 709.567ZM509.5 774.5H358V804.5H509.5V774.5ZM365.871 776.731L256.371 709.231L240.629 734.769L350.129 802.269L365.871 776.731ZM245.181 707.372L66.681 747.872L73.319 777.128L251.819 736.628L245.181 707.372ZM84.2922 757.947L30.2922 588.447L1.70778 597.553L55.7078 767.053L84.2922 757.947ZM16 608H264V578H16V608ZM249.107 591.211L233.607 720.211L263.393 723.789L278.893 594.789L249.107 591.211ZM30.3739 597.288L84.3739 416.288L55.6261 407.712L1.62607 588.712L30.3739 597.288Z" fill="black"/>
<path d="M290 503L335 468.5L373.5 524.5L290 503Z" fill="black"/>
<path d="M498 524.5L532.5 468.5L586.5 503L498 524.5Z" fill="black"/>
<path d="M373.5 705.5H494V646L472 626.5H395L373.5 646V705.5Z" fill="black"/>
<path d="M290 503L335 468.5L373.5 524.5L290 503Z" stroke="black"/>
<path d="M498 524.5L532.5 468.5L586.5 503L498 524.5Z" stroke="black"/>
<path d="M373.5 705.5H494V646L472 626.5H395L373.5 646V705.5Z" stroke="black"/>
</svg>
