<svg width="1000" height="1000" viewBox="0 0 1000 1000" fill="none" xmlns="http://www.w3.org/2000/svg">
<path d="M333.333 156.25V250H114.583C97.3246 250 83.3333 263.991 83.3333 281.25V760.416C83.3333 823.7 134.634 875 197.917 875H802.083C865.367 875 916.667 823.7 916.667 760.416V281.25C916.667 263.991 902.675 250 885.417 250H666.667V156.25C666.667 115.979 634.021 83.333 593.75 83.333H406.25C365.979 83.333 333.333 115.979 333.333 156.25ZM406.25 145.833H593.75C599.504 145.833 604.167 150.497 604.167 156.25V250H395.833V156.25C395.833 150.497 400.497 145.833 406.25 145.833ZM333.333 541.666V395.833H479.167V541.666H333.333ZM333.333 729.166V583.333H479.167V729.166H333.333ZM666.667 541.666H520.833V395.833H666.667V541.666ZM520.833 729.166V583.333H666.667V729.166H520.833Z" fill="black"/>
</svg>
