<svg width="1030" height="1197" viewBox="0 0 1030 1197" fill="none" xmlns="http://www.w3.org/2000/svg">
<path d="M15 309.48L515.747 18L1015 309.48M15 309.48V438.03M15 309.48L515.747 594.981M1015 309.48L515.747 594.981M1015 309.48V438.03M515.747 1178.69L1015 886.46V438.03M515.747 1178.69L15 886.46V438.03M515.747 1178.69V725.773M515.747 594.981V725.773M1015 438.03L957.451 467.925V594.981L903.64 627.865V565.833L849.081 594.981V661.498L790.785 690.646V565.833L679.424 627.865V698.867L571.054 757.163V690.646L515.747 725.773M515.747 725.773L459.694 690.646V757.163L348.333 698.867V627.865L235.478 565.833V690.646L180.172 661.498V594.981L130.845 565.833V627.865L70.3064 594.981V467.925L15 438.03" stroke="black" stroke-width="30"/>
</svg>
