<svg width="1000" height="1000" viewBox="0 0 1000 1000" fill="none" xmlns="http://www.w3.org/2000/svg">
<path d="M715.833 396.583C663.208 164.917 539.083 88.7917 525.75 59.6667C511.083 39.125 495.208 0 495.208 0C495.125 0.791667 495.042 1.29167 495 2.04167V2.58333H494.958C494.875 3.20833 494.833 3.625 494.792 4.20833V4.83333H494.708C494.708 5.25 494.625 5.58333 494.625 5.91667V7H494.5C494.458 7.33333 494.458 7.75 494.375 8.04167V8.91667H494.292C494.292 9.20833 494.292 9.54167 494.208 9.79167V10.625H494.125C494.125 11.0417 494.083 11.5417 494.042 11.9583V12.0417C493.917 12.75 493.792 13.4583 493.667 14.125V14.4583H493.583C493.542 14.625 493.458 14.7917 493.458 14.9583V15.6667H493.333V16.5833H493.125V17.3333H492.917V18.2083H492.75V19H492.583V19.7083H492.333V20.2917H492.167V21.0417H492V21.625H491.792V22.1667H491.667V22.7917H491.5C491.458 22.8333 491.458 22.9167 491.458 22.9583V23.375H491.333C491.292 23.4583 491.292 23.5417 491.292 23.625V23.875H491.208C491.167 24 491.125 24.2083 491.125 24.2917C491 24.5833 490.833 24.875 490.708 25.1667V25.25C490.625 25.3333 490.542 25.4583 490.5 25.5417V25.875H490.333V26.2083H490.125V26.5417H490V26.9583H489.75V27.5417H489.583V27.7083H489.417V28.0417H489.25V28.5H489.083V28.8333H488.833V29.2917H488.667V29.625H488.458V29.9583H488.333V30.375H488.125V30.7083H487.958V30.9583H487.792V31.2917H487.542V31.6667H487.375V31.9167H487.167V32.25H487V32.7083H486.792V32.875H486.667V33.2083H486.417V33.375H486.25V33.7917H486.083V33.9583H485.917V34.2917H485.708V34.5417H485.583L485.5 34.7083V34.875H485.417C485.375 34.9583 485.333 34.9583 485.333 35.0417V35.0833H485.292C485.25 35.2083 485.208 35.2917 485.125 35.375V35.5H485.083C484.875 35.75 484.75 36 484.583 36.25V36.2917C484.5 36.375 484.292 36.5417 484.208 36.7083V36.7917H484.167C484.125 36.8333 484.042 36.875 484.042 36.9167V37.0417H483.958L483.833 37.1667V37.2083H483.792C483.792 37.25 483.708 37.2917 483.667 37.375V37.5417H483.542L483.458 37.625V37.7083H483.375C483.375 37.7917 483.292 37.7917 483.292 37.8333V37.9583H483.125C483.125 38 483.083 38.0417 483.042 38.0833V38.3333H482.917V38.5H482.75V38.75H482.583V39.0833H482.375V38.75H482.167V38.9167H482V39.1667H481.792V39.5H481.583V39.6667H481.417V39.9167H481.25V40.0833H481.083V40.4167H480.833V40.5833H480.667V40.8333H480.458V41H480.292V41.2083H480.083V41.625H480V41.7917H479.75V42H479.583V42.0833H479.417V42.25H479.208V42.6667H479.042V42.8333H478.833V43H478.667V43.25H478.458V43.4167H478.25V43.5833H478.083V43.75H477.917V44.1667H477.75V44.375H477.5V44.5417H477.333V44.7083H477.125V44.9583H476.958V45.125H476.75V45.4167H476.583V45.5833H476.333V45.8333H476.25V46H476.083V46.1667H475.875V46.3333H475.708V46.5833H475.5V46.75H475.375C475.333 46.7917 475.333 46.8333 475.333 46.8333V46.9167H475.25L475.083 47.0833C475.083 47.0833 475 47.1667 474.917 47.2083V47.4583H474.75V47.6667H474.583V47.8333H474.417V48H474.292L474.167 48.125V48.25H474.083L474 48.3333V48.4583H473.917C473.708 48.7083 473.625 48.875 473.333 49.125C473.25 49.2083 473 49.4167 472.833 49.5417C472.333 49.875 471.708 50.4167 471.208 50.875C470.875 51.0833 470.542 51.375 470.292 51.5833V51.625H470.25C469.583 52.1667 468.958 52.6667 468.208 53.25V53.2917C467.208 54.125 466.25 54.9167 465.125 55.875V55.8333H465.042C462.667 57.7917 460.167 60 457.292 62.4583V62.5H457.25C450.208 68.6667 441.833 76.5833 432.458 86.1667L431.833 86.7917L431.667 86.9583C375 145.583 285.708 267.75 276.292 465.167C275.458 481.5 275.625 497.375 276.542 512.833V513.208C281.083 591 305.5 657.417 336.042 711.375V711.417C348.208 732.917 361.333 752.458 374.625 769.958V770C420.542 830.625 467.417 866.542 479.375 875.25C497.75 917.875 496.042 991.042 496.042 991.042L522.875 1000C522.875 1000 517.417 929.125 525.083 894.917C527.458 884.208 533.083 875.083 539.625 867.333C544.042 864.208 557.125 854.792 572.833 840.458C573.583 839.667 574 838.958 574.667 838.208C638.042 779.125 756.417 633.625 715.833 396.583Z" fill="black"/>
</svg>
