<svg width="1000" height="1000" viewBox="0 0 1000 1000" fill="none" xmlns="http://www.w3.org/2000/svg">
<path d="M498.516 40C244.856 40 38.5156 246.36 38.5156 500C38.5156 753.64 244.856 960 498.516 960C506.443 960 514.319 959.812 522.148 959.414C584.781 956.229 644.158 940.444 697.773 914.57C724.572 901.638 749.941 886.145 773.555 868.477C785.365 859.638 796.759 850.258 807.656 840.352C900.283 756.144 958.516 634.746 958.516 500C958.516 357.338 893.238 229.597 790.977 145.156C790.969 145.15 790.945 145.163 790.938 145.156C785.263 140.472 779.491 135.937 773.594 131.523C773.585 131.517 773.563 131.53 773.555 131.523C696.785 74.0744 601.557 40 498.516 40ZM488.867 80.2344C498.677 80.2037 509.407 80.2694 520.977 80.625C742.163 92.329 918.516 275.93 918.516 500C918.516 555.349 907.665 608.169 888.125 656.602C885.71 662.144 883.293 667.599 880.82 672.93C877.707 679.784 874.481 686.589 871.016 693.242C869.723 695.824 868.374 698.646 867.148 701.016C852.743 727.328 835.389 751.695 815.898 774.219C817.973 767.865 824.223 748.368 827.031 729.648C830.331 707.628 824.261 664.708 809.961 638.828C795.641 612.968 759.911 565.034 712.031 541.914C664.151 518.794 615.129 524.337 547.969 529.297C480.829 534.257 434.074 533.63 396.094 520.43C358.114 507.21 343.223 464.801 341.562 446.641C339.902 428.481 344.37 420.316 352.07 407.656C359.77 394.996 353.73 391.686 350.43 390.586C347.13 389.486 343.248 381.775 342.148 368.555C341.048 355.355 343.203 332.812 343.203 332.812C343.203 332.812 347.644 341.562 349.844 370.742C352.044 399.922 388.902 410.352 401.562 410.352C414.223 410.352 437.377 412.033 469.297 387.812C501.217 363.592 531.435 388.387 545.195 392.227C558.955 396.087 598.554 424.082 626.094 456.562C653.614 489.043 663.572 480.241 684.492 482.461C705.412 484.661 703.788 491.296 728.008 491.836C752.228 492.396 765.977 470.938 765.977 470.938C765.977 470.938 781.87 540.793 787.93 562.812C793.99 584.833 823.758 634.962 860.078 636.602C896.398 638.262 901.875 600.273 901.875 600.273C901.875 600.273 885.926 617.812 863.906 616.172C841.886 614.532 832.539 591.992 832.539 591.992C832.539 591.992 854.019 598.633 861.719 598.633C869.419 598.633 884.834 593.663 898.594 583.203C912.354 572.743 925.568 529.197 904.648 515.977C883.728 502.777 871.055 510.508 871.055 510.508C871.055 510.508 877.645 512.234 884.805 517.734C891.965 523.234 894.727 524.268 894.727 541.328C894.727 558.388 889.767 576.003 865.547 576.562C841.327 577.122 820.987 567.222 812.188 544.102C803.388 520.982 797.335 495.176 786.875 467.656C776.415 440.136 752.773 423.047 752.773 423.047C752.773 423.047 757.64 423.516 772.5 423.516C787.36 423.516 785.781 448.398 785.781 448.398C785.781 448.398 798.406 445.057 802.266 440.117C806.126 435.177 803.906 416.406 803.906 416.406C803.906 416.406 807.755 418.052 811.055 410.352C814.355 402.652 801.753 399.939 812.773 390.039C823.773 380.139 819.373 382.328 812.773 371.328C806.173 360.328 809.469 365.742 820.469 365.742C831.469 365.742 830.328 362.495 813.828 339.375C797.308 316.255 784.086 323.998 773.086 328.398C762.086 332.798 743.395 324.015 726.875 315.195C710.355 306.375 712.615 306.361 702.695 307.461C692.795 308.561 682.875 306.333 671.875 298.633C660.875 290.933 666.298 295.373 647.578 274.453C628.858 253.533 679.57 255.742 679.57 255.742C679.57 255.742 672.925 225.979 649.805 208.359C626.685 190.739 597.031 197.383 597.031 197.383C597.031 197.383 593.67 174.217 587.07 167.617C580.47 161.017 563.915 159.883 545.195 159.883H505.586C478.066 159.883 490.164 153.357 495.664 143.438C501.164 133.518 484.698 133.488 472.578 152.188C460.478 170.908 452.791 154.472 442.891 147.852C432.991 141.252 434.004 157.723 406.484 135.703C378.964 113.683 406.489 88.4109 429.609 86.2109C452.729 84.0109 457.148 111.445 457.148 111.445C457.148 111.445 464.883 97.1922 461.562 89.4922C459.786 85.346 458.462 83.2249 457.5 82.0312C467.839 81.0245 478.325 80.4742 488.867 80.2344ZM367.93 101.602C367.93 101.602 358.116 122.483 373.516 135.703C388.936 148.923 402.109 159.883 402.109 159.883C402.109 159.883 361.37 152.233 343.75 151.133C326.17 150.033 304.111 146.716 316.211 133.516C328.311 120.316 329.455 119.141 336.055 119.141C342.655 119.141 355.898 126.836 355.898 126.836C355.898 126.836 356.959 115.833 352.539 113.633C348.561 111.644 344.519 110.08 343.633 109.727C346.211 108.7 348.764 107.618 351.367 106.641L367.93 101.602ZM286.523 138.984C286.523 138.984 283.202 157.671 307.422 165.391C331.642 173.091 349.258 180.781 349.258 180.781C349.258 180.781 275.464 181.944 252.344 197.344C229.224 212.764 211.659 227.041 205.039 239.141C198.439 251.241 189.614 272.214 181.914 274.414C174.214 276.614 168.684 279.953 166.484 271.133C165.209 265.991 160.933 260.868 157.578 261.406C168.558 245.926 180.824 230.962 197.344 211.602C235.864 166.462 286.523 138.984 286.523 138.984ZM514.648 232.656C515.928 232.556 517.176 232.596 518.516 232.656C539.976 233.476 539.463 240.829 556.523 250.469C573.583 260.109 585.156 268.398 585.156 268.398C585.156 268.398 565.843 272.498 549.883 265.078C533.923 257.638 521.261 251.602 513.281 251.602C505.301 251.602 483.828 252.383 483.828 252.383C483.828 252.383 495.508 234.236 514.648 232.656ZM157.5 261.445C156.311 263.132 155.154 264.896 153.984 266.602C153.604 268.342 153.281 270.442 153.281 273.242C153.281 293.062 170.938 307.461 170.938 307.461C170.938 307.461 152.206 328.297 145.586 342.617C138.986 356.937 131.211 407.605 131.211 443.945C131.211 480.285 129.034 518.766 120.234 529.766C111.434 540.766 113.625 546.355 104.805 548.555L87.1875 552.891C87.1875 552.891 101.541 570.508 122.461 570.508C143.381 570.508 159.844 548.555 159.844 548.555C159.844 548.555 170.849 582.608 182.969 601.328C195.069 620.048 214.922 650.859 214.922 650.859C214.922 650.859 212.722 685.018 214.922 705.938C217.122 726.857 212.729 748.878 189.609 736.758C166.489 724.638 167.608 739.996 183.008 751.016C198.428 762.016 217.171 765.422 230.391 756.602C243.591 747.802 246.863 734.495 249.062 720.195C251.262 705.875 250.23 704.869 257.93 700.469C265.63 696.069 284.291 708.169 285.391 731.289C286.491 754.409 288.731 753.283 292.031 759.883C295.331 766.483 294.25 770.847 288.75 776.367C283.25 781.887 288.739 790.701 297.539 780.781C306.339 770.881 310.775 766.456 311.875 757.656C312.975 748.856 318.438 741.172 318.438 741.172C318.438 741.172 343.767 752.103 364.688 753.203C385.608 754.303 421.947 776.405 423.047 800.625C424.127 824.845 403.188 833.641 364.648 839.141C326.128 844.641 279.979 836.962 242.539 818.242C214.969 804.457 171.907 767.292 140.977 719.258C139.507 716.87 138.025 714.49 136.602 712.07C132.668 705.561 128.861 698.954 125.469 692.109C125.111 691.418 124.807 690.694 124.453 690C120.369 681.566 116.665 672.936 113.633 664.102C88.3128 590.342 80.6578 535.301 81.7578 513.281C82.8578 491.261 83.9128 398.782 113.633 338.242C129.213 306.522 140.884 285.742 153.984 266.602C154.712 263.298 155.976 261.745 157.5 261.445ZM549.336 315.234C559.036 315.154 570.136 317.332 582.656 322.852C639.896 348.172 632.749 369.575 667.969 391.055C703.209 412.535 715.859 414.766 715.859 414.766L717.5 453.281C717.5 453.281 675.107 452.154 628.867 420.234C582.627 388.314 574.429 373.448 554.609 364.648C534.789 355.848 497.891 343.75 497.891 343.75C497.891 343.75 514.696 315.514 549.336 315.234ZM706.719 338.086C722.839 337.566 731.25 353.086 731.25 353.086C731.25 353.086 716.925 353.607 708.125 356.367C699.325 359.127 693.281 363.008 693.281 363.008C693.281 363.008 678.397 345.936 699.297 339.336C701.917 338.516 704.419 338.166 706.719 338.086ZM742.539 434.961C743.019 434.921 743.484 434.941 743.984 434.961C746.384 435.021 748.909 435.632 751.289 436.992C757.629 440.612 760.438 447.675 757.578 452.695C754.718 457.715 747.218 458.815 740.898 455.195C734.558 451.575 731.788 444.629 734.648 439.609C736.208 436.869 739.159 435.241 742.539 434.961Z" fill="black"/>
</svg>
