<svg width="500" height="800" viewBox="0 0 500 800" fill="none" xmlns="http://www.w3.org/2000/svg">
<path d="M467.933 13.2129C372.07 13.2129 290 65.0002 270.996 120.313V434.046C270.996 438.253 270.699 439.927 265.943 439.986L235.483 440.366C230.29 440.366 230.116 438 230.116 434.285V120.656C210 65.0002 121.17 14.5232 32.5906 14.5232V737.433C32.5906 764.909 80.2976 789.557 121.283 789.557H384.5C419.301 789.557 467.933 767.945 467.933 737.433V13.2129ZM418.142 141.438V633.134C418.142 665.237 403.041 668.683 363.11 668.683H140.689C111.909 668.683 80.7436 671.704 80.7436 633.961V141.438C80.7436 121.07 119.725 120.592 119.725 141.438V481.983C119.725 492.761 121.675 494.088 132.313 494.088H367.508C376.205 494.088 379.847 491.601 379.847 482.337C379.847 476.658 379.847 149.387 379.847 141.438C379.847 121.375 418.142 121.811 418.142 141.438Z" fill="black"/>
</svg>
