<svg width="1000" height="1000" viewBox="0 0 1000 1000" fill="none" xmlns="http://www.w3.org/2000/svg">
<g clip-path="url(#clip0_15_44)">
<path d="M1005.38 975.499L984.208 955.333C973.75 941.541 962.625 929.333 950.5 918.208L950.292 918.041C937.847 906.736 924.917 895.986 911.5 885.791C900.75 878.402 885.972 869.499 867.167 859.083C851.708 852.124 839.625 839.916 833.083 824.749L832.917 824.333L830.917 823.333C839.75 822.458 847.833 820.833 855.583 818.541L854.625 818.791L878.375 812.249C888.208 809.166 899.583 807.166 911.375 806.708H911.625C924.042 806.208 935.75 804.208 946.917 800.916L945.875 801.166C951.264 799.833 956.806 798.319 962.5 796.624C968.194 794.93 973.069 793.416 977.125 792.083V785.041C973.097 779.013 968.222 772.124 962.5 764.374C957.042 756.958 950.917 750.499 944.042 744.874L943.833 744.708C926.361 729.263 908.264 714.319 889.542 699.874C873.042 686.999 854.333 673.874 834.917 661.708L832.083 660.041C821.833 653.291 810.083 647.041 797.708 641.916L796.292 641.416C783.847 636.36 771.583 630.819 759.5 624.791C755.458 622.791 750.75 621.041 745.875 619.833L745.417 619.749C740.542 618.749 736.375 616.249 733.333 612.708L733.292 612.666C727.542 605.083 722.5 596.458 718.5 587.291L718.167 586.458C714.139 577.041 709.778 567.999 705.083 559.333C695 539.833 685.25 520.013 675.833 499.874C666.417 479.735 657.375 459.569 648.708 439.374C642.681 425.93 637.139 412.499 632.083 399.083C626.5 384.333 620.208 371.708 612.875 359.833L613.417 360.791C595.417 330.124 577.458 303.958 557.958 279.083L559.125 280.666C539.833 256.333 519.833 234.583 498.333 214.416L498 214.124C476.792 194.208 453.958 175.208 430 157.624L427.958 156.166C403.069 138.083 375.847 120.277 346.292 102.749C334.417 95.7494 320.625 90.041 306.083 86.3744L305 86.1244L258.625 74.541L232.417 72.541C223.694 71.8744 214.958 71.541 206.208 71.541C200.042 68.291 194.75 64.416 190.083 59.916C185.5 55.541 180.542 51.416 175.375 47.6243L174.958 47.3327C149.75 32.6244 120.458 19.166 89.8333 8.58268L86.2917 7.49935C78.25 2.79102 68.5833 0.0410156 58.2917 0.0410156C50.9583 0.0410156 43.9167 1.45768 37.5 3.99935L37.875 3.87435C22.0417 10.166 9.95834 22.9577 4.75001 38.8744L4.62501 39.291C1.58334 46.4577 -0.166656 54.7494 -0.166656 63.4994C-0.166656 78.8327 5.25001 92.8744 14.2917 103.833L14.2083 103.708C29.3195 123.847 40.9028 139.68 48.9583 151.208C54.9861 159.291 61.2083 167.694 67.625 176.416C73.5 184.249 78.7083 193.208 82.9167 202.666L83.25 203.541C85.5834 208.499 87.625 214.416 89.125 220.499L89.25 221.166C90.5833 226.888 92.2639 233.11 94.2917 239.833C100.319 255.277 106.028 271.11 111.417 287.333C117.292 305.041 123.792 320.041 131.333 334.333L130.542 332.666C134.569 340.055 138.611 347.277 142.667 354.333C146.722 361.388 151.083 368.277 155.75 374.999C158.458 379.083 161.875 382.458 165.792 385.083L165.917 385.166C170.042 388.166 172.75 392.874 172.958 398.208V398.249C168.208 405.249 165 413.624 163.917 422.666L163.875 422.916C162.417 433.458 160.333 442.833 157.5 451.874L157.833 450.624C148.542 478.374 143.208 510.374 143.208 543.583C143.208 554.333 143.75 564.916 144.875 575.374L144.75 574.083C147.25 613.999 159.292 650.666 178.583 682.416L178 681.374C186.208 693.666 195 704.374 204.708 714.166C211.708 721.999 221.875 726.916 233.208 726.916C239.542 726.916 245.542 725.374 250.792 722.624L250.583 722.708C265.167 717.458 275.542 704.124 276.292 688.249V688.166C278.292 668.416 281.292 650.749 285.417 633.499L284.875 636.291C285.875 633.666 286.458 630.666 286.458 627.499C286.458 626.874 286.417 626.249 286.375 625.624V625.708C286.042 622.68 287.889 619.819 291.917 617.124V619.124C295.944 628.541 300.139 637.944 304.5 647.333C308.861 656.722 313.389 666.124 318.083 675.541C330.375 694.249 343.417 710.583 357.75 725.624L357.625 725.499C372 740.999 387.667 754.916 404.583 767.208L405.5 767.833C414.333 774.583 422.083 781.874 429.083 789.833L429.25 789.999C435.833 797.749 443.708 804.124 452.583 808.916L453 809.124V808.124H455C453.375 804.499 450.75 801.583 447.5 799.583L447.417 799.541C444.125 797.708 441.292 795.874 438.625 793.874L438.833 793.999C432.806 787.972 426.583 781.249 420.167 773.833C413.75 766.416 407.875 759.36 402.542 752.666C388.431 733.166 374.972 712.791 362.167 691.541C349.361 670.291 337.264 648.694 325.875 626.749C320.486 615.999 315.278 604.916 310.25 593.499C305.222 582.083 300.347 570.999 295.625 560.249C293.583 556.124 292.167 551.374 291.625 546.333V546.124C291.375 541.333 288.625 537.208 284.625 535.083L284.542 535.041C279.5 543.624 273.917 551.041 267.542 557.749L267.583 557.708C260.958 564.666 255.542 572.874 251.667 581.874L251.458 582.416C245.583 596.666 241.292 613.208 239.417 630.499L239.333 631.291C237.333 649.097 235.319 667.402 233.292 686.208L231.292 687.208L230.292 688.208C219.458 685.999 210.542 679.083 205.708 669.749L205.625 669.541C200.569 659.791 196.042 650.208 192.042 640.791C181.708 614.249 175.292 583.541 174.417 551.458V551.083C174.042 545.999 173.875 540.041 173.875 534.083C173.875 506.333 178.25 479.583 186.333 454.499L185.833 456.333C187.833 448.944 192.194 436.499 198.917 418.999C205.639 401.499 206.986 389.402 202.958 382.708C200.875 375.833 197 370.041 191.917 365.624L191.875 365.583C186.792 361.166 182.167 356.541 177.917 351.624L177.792 351.458C173.097 344.68 168.569 337.458 164.208 329.791C159.847 322.124 155.986 314.569 152.625 307.124C145.75 291.208 138.708 271.249 132.875 250.749L131.958 247.041C125.333 223.499 117.958 203.583 109.208 184.416L110.292 187.083C105.667 176.583 100.292 167.499 94.0417 159.208L94.2917 159.541C87.5139 150.485 81.4583 141.916 76.125 133.833C69.3472 125.11 62.625 116.708 55.9583 108.624C49.1667 100.416 43.125 91.166 38.2083 81.2494L37.8333 80.416C35.8333 76.3743 34.0833 71.666 32.875 66.791L32.7917 66.3327C32.3333 64.8744 32.0833 63.166 32.0833 61.4577C32.0833 58.041 33.0833 54.8327 34.8333 52.166L34.7917 52.2493C35.25 49.916 36.3333 47.8743 37.8333 46.2077C39.4583 44.7493 41.5417 43.666 43.7917 43.2077H43.875C47.4167 40.916 51.7083 39.541 56.375 39.541C59.875 39.541 63.25 40.3327 66.2083 41.7493L66.0833 41.7077C75.2083 44.291 82.5833 46.8743 89.7917 49.8327L88.2917 49.291C101.042 54.6799 112.806 59.8882 123.583 64.916C136 70.8327 146.583 77.0827 156.583 84.041L155.833 83.541C161.222 86.9021 166.597 90.5966 171.958 94.6244C177.319 98.6521 183.028 102.694 189.083 106.749H203.208C213.958 106.749 225.375 107.263 237.458 108.291C249.667 109.249 260.958 111.541 271.708 115.124L270.708 114.833C290.75 120.791 307.958 127.833 324.292 136.291L322.583 135.499C339.056 143.888 354.681 152.791 369.458 162.208C394 177.499 415.208 193.166 435.167 210.291L434.458 209.708C455.292 227.541 474.208 245.833 491.958 265.166L492.375 265.666C509.708 284.583 526.25 305.124 541.375 326.666L542.667 328.624C556.583 348.291 570.625 371.041 583.25 394.624L585 398.166C588.375 404.583 591.792 412.458 594.75 420.499L595.208 421.874C597.903 429.597 600.917 437.513 604.25 445.624C611.639 462.43 619.556 479.388 628 496.499C636.444 513.61 644.361 530.249 651.75 546.416L673.917 594.791C681.708 611.708 690.417 626.291 700.542 639.749L700.083 639.124C708.542 648.166 719.833 654.499 732.5 656.708L732.833 656.749C748.167 660.583 761.083 664.916 773.583 670.041L771.625 669.333C777.583 672.041 785.25 674.916 793.125 677.458L794.792 677.916C803.625 680.624 811.292 684.208 818.333 688.708L817.958 688.499C831.583 696.124 843.125 703.624 854.125 711.791L853.25 711.166C864.667 719.555 876.083 727.472 887.5 734.916C892.889 738.944 901.931 744.819 914.625 752.541C927.319 760.263 934.042 767.485 934.792 774.208C930.042 774.041 924.417 773.916 918.792 773.916C898.292 773.916 878.125 775.249 858.375 777.833L860.708 777.583C838.375 780.583 818.125 786.041 799.083 793.833L800.75 793.249C796.042 795.291 790.417 797.166 784.583 798.624L783.792 798.791C777.875 799.666 773.292 804.416 772.708 810.333V810.374C775.25 813.541 777.292 817.208 778.667 821.208L778.75 821.458C780.167 825.708 781.875 829.374 783.958 832.791L783.833 832.541C788.792 841.333 794.125 848.916 800.125 855.916L799.958 855.708C805.833 862.958 812.458 869.249 819.792 874.624L820.083 874.833C826.861 880.222 833.917 885.763 841.25 891.458C847.958 896.708 855.542 901.874 863.417 906.541L864.417 907.083C876.25 914.333 890 921.249 904.333 927.041L906.25 927.708C921.833 933.958 935.208 941.208 947.625 949.833L946.958 949.374C955.042 954.069 963.097 959.277 971.125 964.999C979.153 970.722 986.875 976.263 994.292 981.624C997.333 984.624 1000 987.958 1002.25 991.583L1002.37 991.791C1006.17 996.124 1011.42 999.083 1017.38 999.833H1017.5V997.833C1013.83 995.041 1011.13 991.166 1009.83 986.708L1009.79 986.541C1008.75 982.291 1007.21 978.583 1005.12 975.166L1005.21 975.333L1005.38 975.499ZM231.375 175.291C225.986 175.291 220.944 175.458 216.25 175.791C211.458 176.124 207 176.999 202.792 178.416L203.167 178.291V179.291H205.167C207.861 183.319 211.25 187.847 215.333 192.874C219.417 197.902 223.111 202.777 226.417 207.499L242.542 240.749L244.542 239.749C249.25 236.333 252.875 231.749 255.042 226.374L255.125 226.166C257.292 220.374 258.542 213.624 258.542 206.624C258.542 205.874 258.542 205.124 258.5 204.374V204.499C256.625 202.666 255.083 200.499 254 198.083L253.958 197.958L250.583 190.374C248.375 186.874 245.292 184.124 241.667 182.374L241.542 182.333C237.625 180.458 234.292 178.083 231.375 175.291Z" fill="black"/>
</g>
<defs>
<clipPath id="clip0_15_44">
<rect width="1000" height="1000" fill="white"/>
</clipPath>
</defs>
</svg>
