<svg width="1000" height="1000" viewBox="0 0 1000 1000" fill="none" xmlns="http://www.w3.org/2000/svg">
<path d="M683.594 236.5C678.719 236.5 675.469 237.156 672.188 237.969V238.469H672.688C674.969 242.688 678.719 245.969 681.625 249.875C683.906 254.281 685.844 258.813 687.969 263.219L688.625 262.563C692.531 259.782 694.5 255.407 694.5 248.719C692.875 246.75 692.531 244.656 691.094 242.844C689.469 240.063 685.875 238.625 683.594 236.5ZM240.406 786.281H201.844C200.531 721.188 196.625 659.969 190.625 602.532H190.312L131.562 786.281H102.094L43.8125 602.532H43.3125C39.0938 657.532 36.3125 718.906 35.1875 786.281H0.03125C2.3125 704.25 8 627.438 17.125 555.813H64.9688L120.625 725.094H120.938L177.094 555.813H222.656C232.75 639.813 238.781 716.625 240.562 786.281H240.406ZM407.719 616.219C392.094 701.5 371.25 763.531 345.719 802.094C325.531 831.875 303.562 846.844 279.625 846.844C273.281 846.844 265.469 844.875 256.031 840.969V820.469C260.75 821.125 266.125 821.594 272.156 821.594C283.375 821.594 292.344 818.344 299.188 812.313C307.312 804.813 311.406 796.375 311.406 787.094C311.406 780.594 308.312 767.563 301.812 747.719L259.656 616.219H297.594L327.875 714.531C334.719 737 337.656 752.469 336.344 761.406C353.094 717.125 364.656 668.625 371.188 616.219H407.719ZM921.375 786.281H811.688V555.813H848.625V757.969H921.375V786.281ZM783.031 791.844L740.719 771C744.469 767.906 748.031 764.5 751.312 760.594C769.375 739.594 778.344 708.188 778.344 666.844C778.344 590.5 748.406 552.438 688.5 552.438C659.188 552.438 636.25 562.031 619.812 581.406C601.906 602.563 592.781 633.813 592.781 675C592.781 715.531 600.75 745.156 616.719 764.188C631.375 781.125 653.344 789.75 682.812 789.75C693.719 789.75 703.812 788.438 712.938 785.688L768.125 817.906L783.25 791.875L783.031 791.844ZM645.844 740.063C636.406 725.094 631.844 701 631.844 667.781C631.844 609.688 649.438 580.719 684.75 580.719C703.156 580.719 716.813 587.719 725.438 601.563C734.719 616.688 739.438 640.469 739.438 673.344C739.438 731.781 721.688 761.25 686.531 761.25C667.969 761.25 654.469 754.25 645.688 740.406L645.844 740.063ZM576.812 722.5C576.812 742.031 569.656 758.156 555.156 770.5C540.844 783.031 521.781 789.375 497.531 789.375C474.906 789.375 453.25 782.219 431.937 767.875L441.875 748.031C460.094 757.156 476.531 761.719 491.531 761.719C505.375 761.719 516.281 758.625 524.094 752.594C531.906 746.406 536.625 737.781 536.625 726.875C536.625 713.188 527.031 701.469 509.594 691.719C493.469 682.781 461.094 664.375 461.094 664.375C443.5 651.532 434.875 637.844 434.875 615.219C434.875 596.5 441.375 581.531 454.406 570.125C467.594 558.406 484.344 552.719 505.188 552.719C526.5 552.719 546.031 558.406 563.625 569.813L554.688 589.656C539.719 583.313 524.906 580.063 510.406 580.063C498.531 580.063 489.406 583 483.062 588.688C476.719 594.375 472.812 601.531 472.812 610.5C472.812 624.188 482.594 635.906 500.469 645.969C516.906 654.906 549.938 673.813 549.938 673.813C568 686.5 576.969 700.188 576.969 722.469L576.812 722.5ZM967.625 478.531C945.313 478.031 928.063 480.313 913.594 486.5C909.531 488.125 902.844 488.125 902.188 493.344C904.469 495.625 904.781 499.219 906.75 502.282C910.156 507.813 915.875 515.313 921.25 519.219C927.125 523.781 932.969 528.344 939 532.25C949.906 538.938 962.125 542.844 972.844 549.5C978.875 553.406 985.063 558.438 991.063 562.531C994.156 564.656 996.094 568.406 1000 569.688V568.875C998.031 566.438 997.562 562.844 995.594 559.938C992.812 557.156 990.062 554.719 987.281 551.969C979.156 541.063 969.219 531.625 958.312 523.813C949.375 517.781 929.844 509.313 926.25 499.063L925.75 498.407C931.781 497.907 938.938 495.625 944.781 494C954.219 491.563 963 492.031 972.781 489.594C977.188 488.469 981.562 487.156 986.125 485.688V483.25C981.094 478.219 977.344 471.375 972.125 466.656C957.969 454.438 942.344 442.406 926.219 432.469C917.438 426.781 906.375 423.188 897.094 418.469C893.844 416.844 888.156 416.031 886.344 413.25C881.313 407.063 878.375 399.094 874.781 391.75C866.812 376.438 859 359.532 852 343.25C846.969 332.344 844.031 321.594 837.844 311.5C809.188 264.125 777.938 235.5 730.094 207.344C719.844 201.469 707.469 199.031 694.438 195.938C687.438 195.625 680.594 195.125 673.594 194.813C669.031 192.844 664.656 187.656 660.75 185.031C644.812 174.938 603.781 153.281 592.219 181.938C584.719 200.156 603.281 217.906 609.812 227.031C614.531 233.531 620.562 240.719 623.969 247.875C625.938 252.75 626.406 257.813 628.375 262.844C632.781 275.063 637 288.719 642.875 300.125C645.969 306 649.219 312.156 653.125 317.375C655.406 320.469 659.313 321.782 660.125 326.813C656.219 332.5 655.906 340.813 653.781 347.656C643.688 379.219 647.594 418.125 661.75 441.407C666.313 448.407 676.875 463.719 691.062 457.844C703.594 452.813 700.844 437 704.406 423C705.219 419.594 704.719 417.469 706.375 415.188V415.844C710.438 423.656 714.344 431.156 717.938 438.969C726.406 452.656 741.531 466.813 754.062 476.25C760.75 481.281 765.938 489.938 774.25 493V492.188H773.594C771.812 489.75 769.531 488.594 767.25 486.657C762.219 481.625 756.656 475.438 752.594 469.906C741.031 454.281 730.625 437.031 721.5 419.282C716.938 410.5 713.031 401.063 709.469 392.438C707.844 389.188 707.844 384.125 705.062 382.5C700.844 388.531 694.656 393.719 691.719 401.375C686.344 413.25 685.844 428.063 683.75 443.375C682.781 443.688 683.25 443.375 682.781 444.031C673.844 441.75 670.75 432.625 667.469 424.813C659 404.969 657.688 373.219 664.875 350.438C666.844 344.563 675.125 326.188 671.875 320.656C670.094 315.281 664.563 312.188 661.625 307.969C657.875 302.75 654.125 296.094 651.531 290.219C644.844 274.594 641.594 257.344 634.281 241.719C631.031 234.563 625.156 227.063 620.438 220.406C615.062 212.906 609.219 207.563 605.125 198.75C603.656 195.657 601.719 190.625 604 187.344C604.5 185.063 605.625 184.25 607.906 183.594C611.5 180.5 621.906 184.407 625.5 186.188C635.75 190.25 644.375 194.156 653 200.031C656.906 202.813 661.125 208 666.188 209.469H672.063C681 211.438 690.938 209.969 699.25 212.563C714.062 217.281 727.406 224.125 739.438 231.594C775.906 254.875 805.844 287.75 826.188 326.969C829.594 333.313 831.063 339.188 834.156 345.844C839.844 359.688 847.188 373.5 853.031 386.688C858.875 399.875 864.438 413.219 872.875 424.125C877.094 430 893.719 433.063 901.344 436C906.875 438.594 915.5 440.875 920.375 443.813C929.969 449.688 939.406 456.344 948.375 462.844C952.938 465.938 966.781 472.938 967.594 478.469L967.625 478.531Z" fill="black"/>
</svg>
