<svg width="1000" height="1000" viewBox="0 0 1000 1000" fill="none" xmlns="http://www.w3.org/2000/svg">
<path d="M224.583 0.166667L422.5 561V560.708L438.167 604.875C525.167 851.042 571.917 983 572.167 983.292C572.333 983.292 585.5 984.125 601.417 984.958C649.583 987.042 709.333 992.458 754.583 997.875C765 999.125 774 999.542 774.583 999.125L578.333 442.458L560.167 391.208L459.208 105.792C440.042 51.625 423.792 5.45833 422.958 3.70833L421.667 0H224.792L224.583 0.166667ZM579.083 0.5L578.667 221.583L578.333 442.667L560.125 391.333V391.25L536.583 883.333C559.708 948.625 572.083 983.458 572.208 983.625C572.375 983.792 585.542 984.625 601.458 985.375C649.667 987.458 709.375 992.875 754.792 998.292C765.208 999.542 774.25 999.958 774.792 999.542C775.333 999.125 775.625 773.708 775.5 499.125L775.167 0.416667H579.083V0.5ZM224.583 0.0833333V499.667C224.583 774.417 224.875 999.458 225.208 999.792C225.542 1000.12 242.542 998.542 263 996.208C283.417 993.708 311.75 990.792 325.917 989.542C347.5 987.458 412.083 983.292 419.583 983.292C421.75 983.292 421.917 972.042 422.208 771.625L422.542 559.958L438.375 604.125L443.792 619.792L467.542 128.125L459.625 105.375L422.958 3.70833L421.708 0.0833333H224.583Z" fill="black"/>
</svg>
