<svg width="1000" height="1000" viewBox="0 0 1000 1000" fill="none" xmlns="http://www.w3.org/2000/svg">
<g clip-path="url(#clip0_8_121)">
<path d="M467.254 0.269143C465.104 0.464646 458.258 1.14891 452.1 1.63767C310.068 14.4431 177.028 91.0804 92.7663 208.871C45.8454 274.365 15.8358 348.656 4.49658 427.346C0.488758 454.817 0 462.929 0 500.171C0 537.417 0.488758 545.529 4.49658 572.996C31.6715 760.779 165.298 918.55 346.53 977.004C378.983 987.462 413.197 994.6 452.1 998.9C467.254 1000.56 532.746 1000.56 547.9 998.9C615.054 991.471 671.946 974.854 728.054 946.213C736.658 941.813 738.317 940.642 737.146 939.663C736.362 939.075 699.708 889.908 655.717 830.475L575.758 722.458L475.562 574.171C420.429 492.646 375.073 425.979 374.683 425.979C374.291 425.879 373.9 491.767 373.705 572.213C373.412 713.075 373.314 718.746 371.554 722.067C369.013 726.858 367.057 728.813 362.952 730.963C359.824 732.529 357.087 732.821 342.327 732.821H325.415L320.919 729.987C317.986 728.129 315.836 725.683 314.37 722.85L312.317 718.45L312.512 522.458L312.805 326.369L315.836 322.557C317.4 320.504 320.723 317.865 323.07 316.594C327.077 314.639 328.641 314.443 345.552 314.443C365.494 314.443 368.817 315.225 373.998 320.895C375.464 322.459 429.717 404.179 494.625 502.617C559.529 601.05 648.288 735.458 691.888 801.442L771.067 921.383L775.075 918.746C810.558 895.675 848.096 862.829 877.808 828.617C941.054 755.988 981.817 667.425 995.504 572.996C999.513 545.529 1000 537.417 1000 500.171C1000 462.929 999.513 454.817 995.504 427.346C968.329 239.565 834.7 81.7942 653.471 23.3385C621.504 12.9769 587.488 5.841 549.367 1.53992C539.979 0.5624 475.367 -0.512871 467.254 0.269143ZM671.946 302.713C676.638 305.059 680.45 309.555 681.817 314.248C682.6 316.789 682.796 371.139 682.6 493.621L682.308 669.379L651.321 621.871L620.233 574.367V446.604C620.233 364.003 620.625 317.571 621.213 315.323C622.775 309.849 626.196 305.548 630.888 303.006C634.896 300.953 636.362 300.758 651.713 300.758C666.179 300.758 668.721 300.953 671.946 302.713Z" fill="black"/>
</g>
<defs>
<clipPath id="clip0_8_121">
<rect width="1000" height="1000" fill="white"/>
</clipPath>
</defs>
</svg>
