<svg width="1000" height="1000" viewBox="0 0 1000 1000" fill="none" xmlns="http://www.w3.org/2000/svg">
<path fill-rule="evenodd" clip-rule="evenodd" d="M221.736 370.816C170.475 431.016 121.324 505.67 120.832 561.471C120.64 582.467 127.342 600.796 143.42 614.679C166.558 634.673 192.051 641.723 217.42 641.765C254.493 641.817 291.306 626.86 320.13 615.327C368.673 595.914 905.274 362.889 905.274 362.889C910.452 360.295 909.481 357.063 903.002 358.676C900.387 359.33 318.828 516.933 318.828 516.933C307.812 520.049 296.429 521.678 284.982 521.779C240.288 522.043 200.518 497.235 200.839 444.956C200.964 424.5 207.226 399.832 221.736 370.816Z" fill="black"/>
</svg>
