<svg width="1000" height="1000" viewBox="0 0 1000 1000" fill="none" xmlns="http://www.w3.org/2000/svg">
<path d="M857.333 623.125L856.917 624.292C804.958 776.083 661.708 877.875 500.208 877.875C338.708 877.875 195.208 775.875 143.458 624.125L143.042 622.917H29.5833V636.625L76.7917 642.167C105.958 645.5 112.083 658.417 120.042 674.667L122.042 678.667C190.292 824.292 338.875 918.333 500.375 918.333C661.917 918.333 810.5 824.292 878.75 678.875L880.75 674.917C888.667 658.667 894.833 645.75 924 642.375L971.25 636.792V623.125H857.333ZM143.458 375.5C195.417 223.708 338.708 121.75 500.208 121.75C661.708 121.75 805.167 223.708 856.958 375.5L857.375 376.667H971.042V363L923.792 357.458C894.625 354.083 888.5 341.208 880.542 324.917L878.583 320.917C810.333 175.708 661.667 81.6667 500.208 81.6667C338.5 81.6667 190.083 175.708 121.833 321.333L119.833 325.292C111.917 341.542 105.75 354.458 76.5833 357.833L29.375 363.375V377.083H142.875L143.458 375.5ZM721.042 441.583L648.417 558.042H679.75L692.667 537.208H777.375L790.292 558.042H821.417L748.792 441.583H721.042ZM764.083 515.167H705.958L735.125 468.333L764.083 515.167ZM881.167 470.75L967.458 558.042H1000V441.583H974.417V528.458L888.5 441.583H855.375V558.042H881.167V470.75ZM0 558.042H25.7917V470.75L112.292 558.042H144.833V441.583H119.042V528.458L33.125 441.583H0V558.042ZM201.792 441.583H227.583V558.042H201.75L201.792 441.583ZM388.708 533.417C387.875 533.625 384.708 533.625 383.542 533.625H280.958V557.458H385.125C385.917 557.458 392.083 557.458 393.25 557.25C414.5 555.25 424.208 537.583 424.208 522.125C424.208 506.25 414.083 489.208 394.833 487.417C391.083 487 387.917 487 386.5 487H318.458C315.931 487.082 313.402 486.886 310.917 486.417C305.542 485 303.583 480.25 303.583 476.292C303.583 472.708 305.542 467.958 311.083 466.375C313.438 465.877 315.846 465.681 318.25 465.792H416.458V442.375H316.667C312.5 442.375 309.333 442.542 306.75 442.958C298.622 443.959 291.156 447.947 285.804 454.146C280.452 460.345 277.596 468.313 277.792 476.5C277.792 490.792 286.708 507.458 306.333 510.25C309.917 510.625 314.875 510.625 317.083 510.625H383.333C384.542 510.625 387.5 510.625 388.083 510.833C395.625 511.792 398.208 517.375 398.208 522.333C398.272 525.028 397.337 527.65 395.583 529.696C393.829 531.743 391.381 533.068 388.708 533.417ZM582.75 533.417C581.917 533.625 578.75 533.625 577.375 533.625H475V557.458H579.167C579.958 557.458 586.125 557.458 587.292 557.25C608.542 555.25 618.25 537.583 618.25 522.125C618.25 506.25 608.125 489.208 588.875 487.417C585.125 487 581.958 487 580.542 487H512.5C509.972 487.082 507.443 486.886 504.958 486.417C499.583 485 497.625 480.25 497.625 476.292C497.625 472.708 499.583 467.958 505.125 466.375C507.479 465.877 509.888 465.681 512.292 465.792H610.5V442.375H510.708C506.542 442.375 503.375 442.542 500.792 442.958C492.663 443.959 485.197 447.947 479.845 454.146C474.493 460.345 471.638 468.313 471.833 476.5C471.833 490.792 480.75 507.458 500.417 510.25C503.958 510.625 508.917 510.625 511.125 510.625H577.375C578.583 510.625 581.542 510.625 582.125 510.833C589.667 511.792 592.25 517.375 592.25 522.333C592.269 525.016 591.318 527.615 589.572 529.651C587.826 531.688 585.404 533.025 582.75 533.417Z" fill="black"/>
</svg>
