<svg width="1000" height="1000" viewBox="0 0 1000 1000" fill="none" xmlns="http://www.w3.org/2000/svg">
<path d="M500 916.041C488.542 916.041 477.833 912.958 467.833 907.625L366.208 847.291C351 838.833 358.625 835.75 363.208 834.208C383.875 827.333 387.708 825.833 409.083 813.666C411.417 812.125 414.458 812.833 416.792 814.375L494.708 861.041C497.792 862.541 501.625 862.541 503.917 861.041L808.875 684.5C811.958 683 813.458 679.916 813.458 676.083V323.666C813.458 319.875 811.958 316.791 808.875 315.291L503.917 139.5C500.875 137.958 497.042 137.958 494.708 139.5L189.667 315.25C186.625 316.75 185.083 320.625 185.083 323.625V676C185.083 679.042 186.625 682.916 189.667 684.416L273 732.625C318.083 755.458 346.417 728.666 346.417 702V354.25C346.417 349.666 350.208 345.041 355.583 345.041H394.583C399.083 345.041 403.75 348.875 403.75 354.25V702.042C403.75 762.416 370.917 797.625 313.583 797.625C296 797.625 282.25 797.625 243.25 778.458L163.042 732.666C153.269 726.985 145.159 718.839 139.521 709.041C133.884 699.243 130.917 688.137 130.917 676.833V324.416C130.917 301.5 143.125 280.083 163.042 268.625L467.875 92.0831C477.771 86.7909 488.82 84.022 500.042 84.022C511.264 84.022 522.313 86.7909 532.208 92.0831L837.083 268.625C857.042 280.041 869.208 301.5 869.208 324.416V676.833C869.208 699.708 857 721.125 837.083 732.666L532.208 909.166C522.167 913.75 510.708 916.041 500 916.041ZM594 673.708C460.25 673.708 432.75 612.541 432.75 560.625C432.75 556.041 436.583 551.416 441.917 551.416H481.667C486.25 551.416 490.042 554.458 490.042 559.083C496.167 599.541 513.708 619.458 594.792 619.458C658.958 619.458 686.542 604.875 686.542 570.5C686.542 550.625 678.833 536.125 578.75 526.208C495.458 517.875 443.5 499.416 443.5 432.958C443.5 371.083 495.458 334.375 582.625 334.375C680.417 334.375 728.583 368.083 734.667 441.375C734.594 443.848 733.781 446.243 732.333 448.25C730.792 449.75 728.542 451.291 726.25 451.291H686.542C684.579 451.25 682.686 450.555 681.162 449.318C679.638 448.08 678.569 446.37 678.125 444.458C668.917 402.291 645.25 388.625 582.625 388.625C512.25 388.625 503.833 413.083 503.833 431.416C503.833 453.541 513.708 460.416 608.583 472.666C702.583 484.875 746.917 502.458 746.917 568.25C746.083 635.541 691.125 673.708 594 673.708Z" fill="black"/>
</svg>
