<svg width="1000" height="1000" viewBox="0 0 1000 1000" fill="none" xmlns="http://www.w3.org/2000/svg">
<path d="M48.5 581.375H0.3125V419.25H83.4688L179 540.344V419.25H227.187V581.375H145.656L48.5 458.313V581.375ZM457.344 531.25C457.344 553.719 453.281 561.531 446.594 569C436.5 580.062 421.687 583.5 393.031 583.5H310.844C282.187 583.5 267.375 580.094 257.125 569C250.437 561.5 246.375 553.875 246.375 531.25V468.75C246.375 446.281 250.437 438.469 257.125 431.156C267.375 419.937 282.187 416.656 310.844 416.656H393.031C421.5 416.656 436.5 419.906 446.594 431.156C453.281 438.469 457.344 446.281 457.344 468.906V531.25ZM390.938 542.469C402 542.469 405.75 541.812 408.531 539.375C410.969 537.094 412.125 534.344 412.125 524.719V475.25C412.125 465.812 411 462.875 408.531 460.75C405.75 458.313 402.031 457.656 390.938 457.656H312.812C301.906 457.656 298 458.313 295.406 460.75C292.812 462.875 291.812 465.781 291.812 475.25V524.719C291.812 534.312 292.938 537.094 295.406 539.375C298 541.812 301.906 542.469 312.812 542.469H390.938ZM527.344 419.281V581.406H477.062V419.281H527.344ZM612.312 419.281H678.562L589.031 495.125L690.094 581.375H618.969L527.344 496.906L612.312 419.437V419.281ZM699.375 419.437H749.656V581.375H699.375V419.437ZM941.406 581.375L926.438 553.219H829.094L814.438 581.375H758.938L847.969 419.25H910.469L999.656 581.375H941.375H941.406ZM846.688 518.062H909.188L877.938 459.312L846.688 518.062Z" fill="black"/>
</svg>
