<svg width="1000" height="1000" viewBox="0 0 1000 1000" fill="none" xmlns="http://www.w3.org/2000/svg">
<g clip-path="url(#clip0_15_18)">
<path d="M625 83.333C568.604 83.333 522.104 133.723 506.063 205.118C475.042 196.431 432.062 187.5 385.417 187.5C226.438 187.5 145.833 327.687 145.833 604.166H83.3333H41.6667C18.6458 604.166 0 622.812 0 645.833C0 668.854 18.6458 687.5 41.6667 687.5H83.3333H151.53C177.422 866.079 286.351 916.666 354.167 916.666C445.875 916.666 479.167 852.833 479.167 809.896C479.167 734.916 430.062 708.333 388.021 708.333C338.438 708.333 312.5 742.396 312.5 776.041C312.5 809.25 335.5 833.333 367.188 833.333C398.167 833.333 416.667 812.146 416.667 791.666C416.667 780.146 407.333 770.833 395.833 770.833C385.021 770.833 376.143 779.07 375.122 789.591C374.122 790.404 371.604 791.666 367.188 791.666C356.417 791.666 354.167 783.166 354.167 776.041C354.167 773.375 355.104 750 388.021 750C406.5 750 437.5 757.771 437.5 809.896C437.5 812.562 436.562 875 354.167 875C301.478 875 219.084 829.692 209.391 687.5H278.117C290.347 699.359 302.164 705.627 303.182 706.136C306.161 707.615 309.334 708.333 312.459 708.333C320.022 708.333 327.347 704.149 331.014 696.899C332.557 693.88 333.056 690.681 333.049 687.5H515.137C518.935 693.135 522.935 698.222 526.937 702.229C531.02 706.292 536.333 708.333 541.667 708.333C546.979 708.333 552.293 706.292 556.356 702.229C560.429 698.167 562.497 692.83 562.5 687.5H666.667C666.667 704.25 680.542 729.166 718.75 729.166C749.104 729.166 765.109 705.487 769.775 691.487C770.213 690.154 770.097 688.833 770.264 687.5H833.333V687.378L990.194 655.924C1003.28 653.299 1003.28 638.367 990.194 635.742L833.333 604.166H770.264C770.097 602.833 770.193 601.491 769.735 600.179C765.089 586.179 749.104 562.5 718.75 562.5C717.824 562.5 717.084 562.674 716.187 562.703C716.11 562.567 716.018 562.433 715.942 562.296C716.885 562.331 717.801 562.5 718.75 562.5C808.583 562.5 916.667 485.729 916.667 437.5C916.667 419.291 905.245 396.451 894.328 378.784C904.349 370.742 913.765 361.574 922.119 351.074C950.057 315.949 962.741 273.748 956.991 235.311C952.553 205.748 937.235 180.633 913.818 164.591V164.55C865.089 131.155 791.782 144.556 740.845 192.952C722.47 128.056 678.125 83.333 625 83.333ZM625 125C670.167 125 708.333 187.021 708.333 260.416C708.333 333.812 670.167 395.833 625 395.833C579.833 395.833 541.667 333.812 541.667 260.416C541.667 187.021 579.833 125 625 125ZM850.301 187.296C864.947 187.296 878.738 191.059 890.259 198.934C907.905 211.038 913.855 228.726 915.771 241.455C919.813 268.517 910.257 299.009 889.486 325.114C852.527 371.572 792.429 388.817 755.575 363.525C746.345 357.213 740.408 349.367 736.491 341.471C745.095 317.304 750 289.833 750 260.416C750 255.791 749.762 251.265 749.512 246.744C751.637 243.578 753.889 240.448 756.348 237.386C781.744 205.448 818.093 187.296 850.301 187.296ZM593.75 250C585.462 250 577.513 253.292 571.653 259.153C565.792 265.013 562.5 272.962 562.5 281.25C562.5 289.538 565.792 297.486 571.653 303.347C577.513 309.207 585.462 312.5 593.75 312.5C602.038 312.5 609.987 309.207 615.847 303.347C621.708 297.486 625 289.538 625 281.25C625 272.962 621.708 265.013 615.847 259.153C609.987 253.292 602.038 250 593.75 250ZM875 250C869.475 250 864.176 252.195 860.269 256.102C856.362 260.009 854.167 265.308 854.167 270.833C854.167 276.358 856.362 281.657 860.269 285.564C864.176 289.471 869.475 291.666 875 291.666C880.525 291.666 885.824 289.471 889.731 285.564C893.638 281.657 895.833 276.358 895.833 270.833C895.833 265.308 893.638 260.009 889.731 256.102C885.824 252.195 880.525 250 875 250ZM321.533 527.547C335.005 535.472 351.991 543.05 373.291 549.153C371.29 567.16 366.664 588.544 354.167 604.166H333.333C325.896 596.354 312.5 583.333 312.5 562.5C312.5 550.439 316.584 538.178 321.533 527.547ZM265.299 527.994C265.123 532.439 264.885 536.869 265.34 541.666C266.091 549.568 269.653 562.155 274.414 574.381C258.324 586.343 250 605.717 250 625C250 638.692 253.315 650.571 258.26 660.726C223.448 646.97 219.627 612.491 219.238 605.102C224.617 574.707 245.097 547.334 265.299 527.994ZM642.456 529.134C644.977 552.79 653.341 574.49 668.416 593.953C667.346 597.492 666.667 600.989 666.667 604.166C666.667 606.164 667.282 607.953 667.806 609.782C667.855 617.472 668.323 626.479 670.044 638.021C655.523 627.062 647.149 614.541 642.212 604.166H581.746C578.646 596.548 571.225 591.146 562.5 591.146C555.937 591.146 550.117 591.453 544.23 591.756C538.433 580.862 537.18 569.594 537.598 559.163C588.326 553.147 622.091 540.062 642.456 529.134ZM429.891 559.692C445.044 561.316 461.085 562.5 479.167 562.5C479.651 562.5 480.068 562.46 480.55 562.459C483.222 576.458 488.427 591.994 498.657 607.259C497.187 614.737 495.523 630.015 499.43 656.25C473.451 636.646 466.853 612.021 465.332 604.166H405.192C415.477 589.507 423.981 573.919 429.891 559.692Z" fill="black"/>
</g>
<defs>
<clipPath id="clip0_15_18">
<rect width="1000" height="1000" fill="white"/>
</clipPath>
</defs>
</svg>
