<svg width="1000" height="1000" viewBox="0 0 1000 1000" fill="none" xmlns="http://www.w3.org/2000/svg">
<path d="M372.833 366.583V307C378.713 306.563 384.605 306.313 390.5 306.25C553.917 301.083 661.042 446.833 661.042 446.833C661.042 446.833 545.458 607.292 421.458 607.292C404.875 607.292 388.667 604.708 373.208 599.583V418.5C436.875 426.208 449.75 454.208 487.667 517.875L572.667 446.458C572.667 446.458 510.5 365.125 406 365.125C394.924 364.878 383.845 365.365 372.833 366.583ZM372.833 169.292V258.375L390.5 257.25C617.583 249.542 765.917 443.5 765.917 443.5C765.917 443.5 595.917 650.333 418.833 650.333C403.417 650.333 388.292 648.875 373.208 646.292V701.5C385.708 702.958 398.625 704.083 411.125 704.083C576 704.083 695.292 619.792 810.833 520.417C829.958 535.875 908.333 573.042 924.583 589.25C814.875 681.25 559.083 755.25 414.042 755.25C400.083 755.25 386.833 754.5 373.583 753.042V830.708H1000V169.292H372.833ZM372.833 599.542V646.667C220.458 619.417 178.125 460.833 178.125 460.833C178.125 460.833 251.375 379.833 372.833 366.583V418.125H372.5C308.833 410.375 258.75 470 258.75 470C258.75 470 287.083 570.5 372.875 599.583L372.833 599.542ZM102.333 454.167C102.333 454.167 192.5 320.958 373.167 306.958V258.375C173.042 274.583 0 443.875 0 443.875C0 443.875 97.9167 727.292 372.833 753.042V701.5C171.167 676.5 102.333 454.167 102.333 454.167Z" fill="black"/>
</svg>
