<svg width="1000" height="1000" viewBox="0 0 1000 1000" fill="none" xmlns="http://www.w3.org/2000/svg">
<path d="M500 40C246.34 40 40 246.34 40 500C40 753.66 246.34 960 500 960C753.66 960 960 753.66 960 500C960 246.34 753.66 40 500 40ZM875.3 687.46C900.64 613.08 872.68 526.86 803.96 482.86C723.48 431.34 616.48 454.84 564.96 535.32C527.88 593.24 529.84 664.8 563.74 719.62C543.56 750.74 516.36 777.96 482.34 798.24C374.34 862.64 235.22 837.28 157.84 742.66C154.12 737.42 150.5 732.12 147.02 726.72C199.42 792.18 295.1 810.98 370.34 768.52C453.56 721.56 482.96 616.02 436 532.8C403.64 475.46 343.46 443.68 281.94 444.82C262.06 408.98 250.68 367.78 250.68 323.88C250.68 214.24 321.42 121.5 419.64 87.88C426.84 86.48 434.2 85.56 441.52 84.52C375.1 108.68 327.56 172.2 327.56 246.98C327.56 342.54 405.02 420 500.58 420C564.16 420 619.56 385.62 649.64 334.52C693.58 334.82 737.98 346.4 778.18 371.02C879.3 432.9 921.64 556.9 885.98 665.28C882.74 672.86 878.96 680.14 875.3 687.46Z" fill="black"/>
</svg>
