<svg width="1000" height="813" viewBox="0 0 1000 813" fill="none" xmlns="http://www.w3.org/2000/svg">
<path d="M499.815 728.032C323.994 728.032 178.167 582.205 178.167 406.384C178.167 397.241 178.587 388.182 179.361 379.219L448.492 396.012L332.087 476.433C330.511 477.543 329.472 479.369 329.472 481.434C329.472 484.8 332.206 487.533 335.572 487.533H810.852C774.306 624.898 647.671 728.032 499.815 728.032ZM499.815 84.7236C675.636 84.7236 821.464 230.563 821.464 406.384C821.464 415.455 821.063 424.454 820.294 433.358L551.424 416.266L668.094 336.323C669.68 335.213 670.706 333.387 670.706 331.322C670.706 327.956 667.985 325.223 664.632 325.223H188.777C225.336 187.858 351.958 84.7236 499.815 84.7236ZM961.12 442.31L873.121 436.712C873.922 426.71 874.349 416.589 874.349 406.384C874.349 199.531 706.668 31.8496 499.815 31.8496C320.843 31.8496 171.208 157.399 134.137 325.223H65.0305C60.5071 325.223 56.4605 327.371 53.8948 330.713L33.3294 359.108C32.4035 360.301 31.8496 361.793 31.8496 363.416C31.8496 367.307 34.9897 370.446 38.8808 370.446L126.534 375.913C125.722 385.962 125.293 396.119 125.293 406.384C125.293 613.225 292.974 780.906 499.815 780.906C678.787 780.906 828.422 655.357 865.506 487.533H934.957C939.492 487.533 943.527 485.385 946.094 482.043L966.67 453.648C967.596 452.455 968.151 450.963 968.151 449.34C968.151 445.449 965 442.31 961.12 442.31Z" fill="#1A171B"/>
</svg>
