<svg width="1000" height="1000" viewBox="0 0 1000 1000" fill="none" xmlns="http://www.w3.org/2000/svg">
<path d="M500 0C223.9 0 0 223.9 0 500C0 776.1 223.9 1000 500 1000C776.1 1000 1000 776.1 1000 500C1000 223.9 776.2 0 500 0ZM246.7 516.8L248.8 513.4L378.9 309.9C380.8 307 385.3 307.3 386.7 310.5C408.4 359.2 427.2 419.8 418.4 457.5C414.7 473 404.4 494 392.8 513.4C391.3 516.2 389.7 519 387.9 521.7C387.1 522.9 385.7 523.6 384.2 523.6H250.5C246.9 523.6 244.8 519.7 246.7 516.8ZM826.4 586.8C826.4 588.7 825.3 590.3 823.7 591C813.6 595.3 779.1 611.2 764.8 631.1C728.2 682 700.3 754.8 637.8 754.8H377.2C284.8 754.8 210 679.7 210 587V584C210 581.6 212 579.6 214.5 579.6H359.7C362.6 579.6 364.7 582.2 364.5 585.1C363.4 594.5 365.2 604.2 369.7 613C378.3 630.5 396.2 641.4 415.5 641.4H487.4V585.3H416.3C412.7 585.3 410.5 581.1 412.6 578.1C413.4 576.9 414.2 575.7 415.2 574.3C421.9 564.7 431.5 549.9 441.1 533C447.6 521.6 453.9 509.4 459 497.2C460 495 460.8 492.7 461.7 490.5C463.1 486.6 464.5 482.9 465.5 479.3C466.5 476.2 467.4 473 468.2 470C470.6 459.6 471.6 448.6 471.6 437.2C471.6 432.7 471.4 428 471 423.6C470.8 418.7 470.2 413.8 469.6 408.9C469.2 404.6 468.4 400.3 467.6 395.9C466.5 389.4 465.1 382.9 463.5 376.4L462.9 373.9C461.7 369.4 460.6 365.2 459.2 360.7C455.1 346.7 450.5 333 445.5 320.2C443.7 315.1 441.7 310.2 439.6 305.4C436.6 298 433.5 291.3 430.7 285C429.2 282.1 428 279.5 426.8 276.8C425.4 273.8 424 270.8 422.5 267.9C421.5 265.7 420.3 263.6 419.5 261.6L410.7 245.4C409.5 243.2 411.5 240.5 413.9 241.2L468.9 256.1H469.1C469.2 256.1 469.2 256.1 469.3 256.1L476.5 258.2L484.5 260.4L487.4 261.2V228.6C487.4 212.8 500 200 515.7 200C523.5 200 530.6 203.2 535.6 208.4C540.7 213.6 543.9 220.7 543.9 228.6V277.1L549.8 278.7C550.2 278.9 550.7 279.1 551.1 279.4C552.5 280.4 554.6 282 557.2 284C559.3 285.6 561.5 287.6 564.1 289.7C569.4 294 575.8 299.5 582.7 305.8C584.5 307.4 586.3 309 588 310.7C596.9 319 606.9 328.7 616.5 339.5C619.2 342.6 621.8 345.6 624.5 348.9C627.1 352.2 630 355.4 632.4 358.6C635.7 362.9 639.1 367.4 642.2 372.1C643.6 374.3 645.3 376.6 646.6 378.8C650.6 384.7 654 390.8 657.3 396.9C658.7 399.7 660.1 402.8 661.3 405.8C665 414 667.9 422.3 669.7 430.7C670.3 432.5 670.7 434.4 670.9 436.2V436.6C671.5 439 671.7 441.6 671.9 444.3C672.7 452.8 672.3 461.4 670.5 470C669.7 473.6 668.7 477 667.5 480.7C666.2 484.2 665 487.8 663.4 491.3C660.3 498.4 656.7 505.6 652.4 512.2C651 514.7 649.3 517.3 647.7 519.8C645.9 522.4 644 524.9 642.4 527.3C640.1 530.4 637.7 533.6 635.2 536.5C633 539.5 630.8 542.5 628.3 545.2C624.9 549.3 621.6 553.1 618.1 556.8C616.1 559.2 613.9 561.7 611.6 563.9C609.4 566.4 607.1 568.6 605.1 570.6C601.6 574.1 598.8 576.7 596.4 579L590.7 584.1C589.9 584.9 588.8 585.3 587.7 585.3H543.9V641.4H599C611.3 641.4 623 637.1 632.5 629C635.7 626.2 649.8 614 666.5 595.6C667.1 594.9 667.8 594.5 668.6 594.3L820.7 550.3C823.6 549.5 826.4 551.6 826.4 554.6V586.8Z" fill="black"/>
</svg>
