<svg width="1000" height="356" viewBox="0 0 1000 356" fill="none" xmlns="http://www.w3.org/2000/svg">
<path d="M839.208 29.6844C881.261 28.4475 920.222 43.9083 941.249 68.0271C954.236 83.4878 967.841 105.751 956.71 132.344C935.065 185.529 834.261 170.068 799.01 130.489C785.405 115.028 768.708 85.3431 777.984 59.9875C784.787 40.8162 808.287 30.3028 839.208 29.6844ZM833.643 77.9221C829.932 97.0935 846.629 113.791 857.761 121.212C875.077 132.344 907.236 132.344 910.946 111.317C915.894 83.4878 879.407 55.0402 852.196 61.2245C842.919 63.0798 834.88 68.6457 833.643 77.9221ZM755.72 62.4614C742.733 63.6983 728.509 64.3167 714.286 65.5536C700.062 66.7904 685.839 65.5535 674.707 70.5009C675.944 77.9221 678.417 84.1063 683.364 87.8169C706.246 87.8169 726.035 82.251 749.536 84.7247C755.72 92.1459 759.431 102.659 761.904 113.791C745.207 121.831 713.049 115.646 694.496 124.304C695.115 132.344 697.588 137.91 701.917 142.857C730.365 142.857 756.339 134.817 783.549 137.291C790.971 142.857 795.3 157.699 795.918 166.976C787.878 173.16 773.655 171.923 759.431 173.779C722.326 178.108 679.035 186.147 641.311 188.002C632.034 179.344 630.797 165.12 627.087 153.37C615.955 118.12 601.732 80.3959 590.6 43.9085C608.534 37.1058 631.417 38.3424 653.062 37.1056C682.746 35.2503 713.668 32.7766 742.734 34.0134C750.774 38.9609 755.72 51.9481 755.72 62.4614ZM559.678 125.541C575.139 141.62 591.836 155.226 608.534 170.068C614.099 174.397 621.522 179.344 622.14 187.384C611.627 193.568 596.784 193.568 582.56 196.042C568.336 198.516 552.257 204.082 542.362 201.608C534.941 200.371 527.52 189.858 521.336 183.055C502.165 162.647 480.52 141.62 464.441 121.212C481.138 115.646 508.967 118.738 511.441 102.041C512.677 93.3826 505.875 83.4879 495.98 81.6326C483.611 79.7773 450.216 84.7246 447.742 91.5273C445.268 98.9484 453.309 112.554 455.164 121.212C463.822 153.371 470.625 178.107 476.19 209.029C474.335 216.45 464.44 215.832 457.638 216.45C437.848 219.542 413.728 226.345 392.083 225.108C384.662 200.371 377.861 173.778 371.676 147.186C365.492 120.593 359.307 93.3828 355.597 67.4088C362.399 59.9876 376.623 60.6059 388.991 58.7506C423.623 54.4216 469.388 47.6188 502.783 45.1451C546.692 42.0529 578.85 51.3297 586.271 81.0143C593.074 104.515 576.376 118.738 559.678 125.541Z" fill="black"/>
<path d="M226.346 80.3957C270.873 79.1588 311.688 90.9091 333.333 113.791C343.228 124.304 354.979 145.331 356.216 171.305C357.453 191.095 351.887 210.266 343.847 223.253C315.4 269.635 237.478 298.701 170.687 301.175C116.266 303.649 69.2646 288.188 51.3301 251.082C30.3035 207.174 51.948 157.081 75.4483 133.581C90.909 118.12 114.41 105.751 139.766 95.8564C165.121 87.1984 194.806 81.6325 226.346 80.3957ZM145.95 161.41C139.766 170.687 133.58 188.621 138.528 205.937C154.607 261.595 257.267 244.898 264.688 188.621C269.636 151.515 239.95 128.633 200.371 132.962C177.489 134.817 155.845 145.949 145.95 161.41Z" fill="black"/>
</svg>
