<svg width="1000" height="1000" viewBox="0 0 1000 1000" fill="none" xmlns="http://www.w3.org/2000/svg">
<path d="M814.75 395.333C819.792 418.792 819.167 447.25 813.083 480.792C788.833 604.875 709.875 666.875 576.292 666.875H557.875C551.069 666.834 544.485 669.295 539.375 673.792C534.08 678.378 530.557 684.672 529.417 691.583L527.708 699.458L504.667 844.417L503.792 850.708C502.602 857.668 498.95 863.969 493.5 868.458C488.358 872.984 481.724 875.447 474.875 875.375H369.75C367.119 875.513 364.493 875.018 362.093 873.93C359.693 872.843 357.589 871.195 355.958 869.125C354.302 867.011 353.112 864.57 352.465 861.964C351.819 859.357 351.731 856.643 352.208 854C354.75 838.458 358.375 814.917 363.333 783.625C368.208 752.375 371.917 728.875 374.458 713.25C377 697.625 380.708 674.167 385.792 643.042C390.833 611.875 394.625 588.458 397.083 572.833C398.458 562.5 404.542 557.375 415.125 557.375H469.958C507.167 557.917 540.042 555 568.917 548.583C617.75 537.667 657.833 517.583 689.167 488.208C717.708 461.667 739.292 427.292 754.167 385.167C760.917 365.583 765.708 346.958 768.833 329.417C769.083 327.708 769.417 326.667 769.875 326.333C770.208 325.875 770.792 325.75 771.333 325.875C772.238 326.279 773.103 326.767 773.917 327.333C795.75 343.917 809.5 366.542 814.75 395.333ZM742.75 277.167C742.75 307.042 736.333 340 723.375 376.083C701 441.167 658.917 485.167 596.833 508.083C565.25 519.292 530.083 525.083 491.208 525.792C491.208 526.042 478.667 526.083 453.542 526.083L415.917 525.792C387.917 525.792 371.458 539.125 366.458 565.958C365.917 568.167 354.042 642.208 330.833 788C330.5 790.75 328.833 792.25 325.792 792.25H202.25C199.338 792.311 196.45 791.726 193.791 790.538C191.133 789.349 188.771 787.586 186.875 785.375C184.908 783.2 183.456 780.609 182.627 777.796C181.797 774.983 181.611 772.02 182.083 769.125L279.25 152.667C280.494 144.778 284.585 137.619 290.75 132.542C296.76 127.369 304.445 124.555 312.375 124.625H562.958C572.458 124.625 586.083 126.458 603.75 130.083C621.583 133.583 637.125 138.167 650.542 143.458C680.458 154.875 703.292 172.125 719.083 195C734.875 218 742.75 245.292 742.75 277.167Z" fill="black"/>
</svg>
