<svg width="1000" height="1000" viewBox="0 0 1000 1000" fill="none" xmlns="http://www.w3.org/2000/svg">
<g clip-path="url(#clip0_5_152)">
<path d="M500 1.00597e-05C372.083 1.00597e-05 244.167 48.75 146.542 146.417C-48.7917 341.667 -48.7917 658.25 146.542 853.542C341.75 1048.79 658.375 1048.83 853.625 853.542C1048.88 658.25 1048.88 341.625 853.542 146.458C807.177 99.9557 752.078 63.0768 691.411 37.9422C630.745 12.8075 565.709 -0.0869883 500.042 1.00597e-05H500ZM500 36C604.417 36 700.708 70.5 778.25 128.75C732.02 282.254 648.208 421.792 534.413 534.714C420.618 647.636 280.439 730.37 126.583 775.417C67.6252 695.708 35.8802 599.144 36.0417 500C36.0417 243.75 243.75 36 500 36ZM889.25 247.667C938.116 322.746 964.088 410.419 964 500C964 756.25 756.25 963.958 500 963.958C432.1 964.02 365.018 949.143 303.51 920.384C242.002 891.624 187.573 849.686 144.083 797.542C426 708.708 630.125 708.583 770.208 605.417C850.75 546.042 903.75 451.333 903.75 343.625C903.75 310.208 898.625 278 889.25 247.667Z" fill="black"/>
</g>
<defs>
<clipPath id="clip0_5_152">
<rect width="1000" height="1000" fill="white"/>
</clipPath>
</defs>
</svg>
