<svg width="1000" height="1000" viewBox="0 0 1000 1000" fill="none" xmlns="http://www.w3.org/2000/svg">
<path d="M602.781 71.875C585.656 69.8437 572.75 81.25 558.438 87.6875C546.938 94.125 532.969 92.4375 521.406 97.3437C512.594 115.437 492 125.719 480.781 142.438C469.357 175.902 448.231 205.208 420.094 226.625C382.475 250.909 355.9 288.998 346.094 332.688C341.562 342.062 342.281 356 337.438 363.938C321.469 368.406 329.969 347.812 328.062 338.156C325.75 323.469 338.719 314.094 339.719 299.844C345.129 289.772 347.404 278.312 346.25 266.937C344.5 241.5 352.156 210.469 333.969 189.531C323.062 183.281 326.5 170.062 322.531 159.938C311.594 145.393 297.762 133.274 281.906 124.344C268.812 123.062 256.719 107.406 243.406 114.25C235.094 123.906 219.562 123.781 214.594 136.531C211.469 152.656 193.094 148.219 181.219 152.156C165.969 157.938 146.281 152.344 133.781 164.094C120.937 176.906 101.469 194.125 107.687 214.281C121.969 241.844 159.094 227.969 180.094 244.719C173.517 263.642 165.933 282.199 157.375 300.312C154.09 324.468 153.629 348.925 156 373.188C159.844 397.344 153.406 428.562 174.937 445.656C186.812 449.938 186.094 463.531 190.562 473.375C194.75 482.438 203.906 469.844 207.531 479.406C218.094 485.156 208.687 496.938 214.406 504.406C222.625 508.688 234.375 508.406 240.094 517.719C251.006 525.156 261.206 533.588 270.562 542.906C277.75 557.5 287.156 528.719 295.031 539.5C300.344 548.406 310.844 555.812 320.625 548.406C335.622 546.058 349.823 540.095 362 531.031C365.92 559.169 367.706 587.562 367.344 615.969C372.156 636.503 375.189 657.414 376.406 678.469C381.835 699.21 384.978 720.482 385.781 741.906C391.72 786.483 383.994 831.813 363.625 871.906C362.407 878.119 359.352 883.823 354.856 888.28C350.36 892.737 344.629 895.742 338.406 896.906C329.312 900.969 310.281 908.344 316.781 921.156C328.191 929.026 341.457 933.783 355.268 934.955C369.079 936.128 382.958 933.677 395.531 927.844C411.469 920.25 397.812 901.031 405.969 889.531C416.688 848.906 411.406 805.438 423.938 765C433.293 744.477 436.547 721.696 433.312 699.375C435.781 685.625 430.031 669.094 439.156 657.844C439.405 643.913 444.779 630.563 454.25 620.344C457.202 599.368 458.705 578.214 458.75 557.031C471.551 553.081 485.013 551.732 498.344 553.062C498.906 564.781 489.844 578.437 492.406 591.625C495.085 606.378 492.226 621.6 484.375 634.375C480.156 646.095 478.443 658.571 479.347 670.995C480.252 683.418 483.753 695.514 489.625 706.5C514.062 732.719 545.875 751.25 568.875 779.219C578.688 785.625 575.125 795.375 570.062 803.719C567.945 811.211 564.028 818.072 558.652 823.704C553.276 829.336 546.605 833.568 539.219 836.031C529.594 839.812 514.031 853.719 525.406 863.594C548.06 868.592 571.67 867.031 593.469 859.094C608.344 853.75 602.844 836.031 608.719 825.094C618.094 832.375 621.938 849 630.938 858.5C640.312 872.031 656.156 860.781 667.062 856.562C668.43 836.679 664.414 816.794 655.438 799C650.219 787.188 630.438 786.969 631.375 772.375C644.497 738.662 662.525 707.072 684.875 678.625C700.812 663.656 688.938 641.406 689.812 622.375C684.843 573.844 696.812 525.089 723.688 484.375C729.307 507.15 736.534 529.497 745.312 551.25C751.909 576.729 763.603 600.606 779.688 621.438C787.094 646.781 785.188 674.875 790.031 701.156C797.085 746.466 794.508 792.753 782.469 837C783.719 853.188 768.188 865.125 769.5 881C773.875 895.656 791.375 883.906 800.438 890.062C808.333 892.499 816.839 892.037 824.424 888.76C832.009 885.484 838.175 879.607 841.812 872.188C837.963 859.739 835.378 846.935 834.094 833.969C821.637 796.529 818.895 756.539 826.125 717.75C827.562 696.844 840.406 670.875 823.844 653C819.219 633.656 826.969 612.844 822.312 593.156C811.116 542.497 809.821 490.151 818.5 439C821.406 431.906 818.906 418.719 826.219 414.781C833.944 426.049 837.431 439.688 836.062 453.281C843.095 474.275 843.951 496.846 838.531 518.312C825.281 534.906 833.438 557.313 835.125 576.125C837.25 589.312 851.25 579.812 853.531 571.625C865.74 549.355 875.625 525.887 883.031 501.594C891.438 490.469 883.469 477.531 883.031 465.906C895.938 464.375 891.031 450.094 884.125 444.031C881.728 419.974 874.647 396.619 863.281 375.281C838.632 350.352 818.151 321.62 802.625 290.188C786.125 238.969 738.812 205 722.75 153.344C719.594 138.371 713.379 124.211 704.496 111.752C695.612 99.2921 684.252 88.8017 671.125 80.9375C659.444 75.6281 647.365 71.2398 635 67.8125C624.386 70.0243 613.612 71.3829 602.781 71.875ZM615.281 530C622.969 574.374 628.185 619.141 630.906 664.094C631.667 692.186 623.338 719.773 607.156 742.75C603.406 756.031 591.969 743.125 583.687 742.25C563.594 741.688 556.125 720.906 545.187 707.656C533.937 696.906 542.062 682.656 549.344 672.312C557.219 666.719 560.281 654.219 571.469 655.188C583.969 654.969 581.344 639.969 579.594 631.969C587.031 620.656 582.469 604.094 589.844 591.875C602.938 586.188 599.031 566.25 603.656 555C607.25 547 604.187 531.594 614.094 528.312C615.25 528.125 615.625 528.688 615.406 529.938L615.281 530Z" fill="black"/>
</svg>
