<svg width="1000" height="1000" viewBox="0 0 1000 1000" fill="none" xmlns="http://www.w3.org/2000/svg">
<path d="M292.083 425.292H252.75L231.292 535.625H266.208C289.375 535.625 306.625 531.25 317.958 522.542C329.292 513.792 336.917 499.25 340.875 478.833C344.708 459.25 342.958 445.417 335.708 437.375C328.417 429.333 313.917 425.292 292.083 425.292ZM500 237C223.875 237 0 354.75 0 500C0 645.25 223.875 763.042 500 763.042C776.125 763.042 1000 645.25 1000 500C1000 354.75 776.125 237 500 237ZM364.167 547.458C353.292 557.875 340.208 565.708 325.958 570.417C311.958 574.917 294.083 577.25 272.417 577.25H223.208L209.583 647.292H152.167L203.417 383.708H313.833C347.042 383.708 371.25 392.417 386.5 409.875C401.75 427.292 406.333 451.625 400.25 482.875C397.92 495.24 393.63 507.154 387.542 518.167C381.583 528.792 373.792 538.583 364.167 547.458ZM531.833 577.25L554.458 460.625C557.083 447.375 556.083 438.292 551.625 433.5C547.167 428.667 537.625 426.25 523 426.25H477.5L448.167 577.292H391.167L442.417 313.667H499.375L485.75 383.75H536.5C568.458 383.75 590.458 389.333 602.583 400.458C614.708 411.583 618.333 429.625 613.542 454.583L589.708 577.25H531.833ZM848.375 482.875C846.083 495.251 841.791 507.171 835.667 518.167C829.708 528.792 821.917 538.583 812.292 547.458C801.411 557.843 788.361 565.685 774.083 570.417C760.083 574.917 742.208 577.25 720.5 577.25H671.333L657.708 647.333H600.292L651.542 383.75H761.917C795.125 383.75 819.333 392.458 834.583 409.917C849.833 427.292 854.458 451.625 848.375 482.875ZM740.25 425.292H700.958L679.458 535.625H714.375C737.583 535.625 754.833 531.25 766.125 522.542C777.458 513.792 785.083 499.25 789.083 478.833C792.917 459.25 791.125 445.417 783.875 437.375C776.625 429.333 762.042 425.292 740.25 425.292Z" fill="black"/>
</svg>
