<svg width="1000" height="1000" viewBox="0 0 1000 1000" fill="none" xmlns="http://www.w3.org/2000/svg">
<path d="M500 125C292.847 125 125 292.847 125 500C125 658.936 223.877 794.556 363.403 849.243C360.107 819.58 357.056 774.048 364.624 741.577C371.46 712.402 408.569 555.176 408.569 555.176C408.569 555.176 397.461 532.715 397.461 499.512C397.461 447.388 427.612 408.447 465.21 408.447C497.192 408.447 512.695 432.495 512.695 461.304C512.695 493.53 492.188 541.626 481.567 586.182C472.778 623.535 500.366 653.931 537.109 653.931C603.76 653.931 655.029 583.618 655.029 482.178C655.029 392.456 590.576 329.712 498.413 329.712C391.724 329.712 329.102 409.668 329.102 492.432C329.102 524.658 341.553 559.204 357.056 578.003C360.107 581.665 360.474 584.961 359.619 588.745C356.689 600.586 350.464 626.099 349.243 631.226C347.534 638.184 343.75 639.648 336.67 636.23C289.795 614.502 260.498 546.021 260.498 490.967C260.498 372.681 346.436 264.038 508.301 264.038C638.428 264.038 739.502 356.689 739.502 480.713C739.502 609.863 657.959 713.867 544.922 713.867C506.958 713.867 471.191 694.214 458.984 670.898C458.984 670.898 440.186 742.432 435.547 760.01C427.124 792.603 404.297 833.374 388.916 858.276C424.072 869.141 461.304 875 500 875C707.153 875 875 707.153 875 500C875 292.847 707.153 125 500 125Z" fill="black"/>
</svg>
