<svg width="1000" height="1000" viewBox="0 0 1000 1000" fill="none" xmlns="http://www.w3.org/2000/svg">
<g clip-path="url(#clip0_12_264)">
<path d="M374.375 108.167V839.333L537.5 891.875V278.667C537.5 249.917 550.167 230.708 570.583 237.375C597.083 244.917 602.25 271.292 602.25 300.083V544.917C703.958 594.625 784 544.833 784 413.542C784 278.667 737.083 218.75 599.083 170.75C544.625 152.083 443.75 121.333 374.458 108.167H374.375ZM568.375 784.917L830.708 690.125C860.5 679.375 865.125 664.083 840.958 656.042C816.542 648.042 772.75 650.25 742.75 661.167L567.542 723.625V624.25L577.542 620.708C577.542 620.708 627.583 603.208 698.917 595.083C769.583 587.583 856.625 596.292 925.458 622.625C1002.46 647.667 1010.5 683.958 991.125 708.958C971.75 733.958 923.542 752.125 923.542 752.125L567.542 881.583V785.875L568.375 784.917ZM75.3334 775C-3.83327 752.292 -16.9166 705.5 19.0001 678.292C52.3751 653.917 108.958 634.5 108.958 634.5L342.958 550.625V647L175.25 708.333C145.875 719.625 140.875 734.667 165.292 742.75C189.708 750.875 233.5 749 262.917 737.75L343.667 708.333V794.75C338.625 795.958 333 796.583 327.375 797.792C246.625 811.583 160.917 805.958 75.8334 777.833L75.3334 775Z" fill="black"/>
</g>
<defs>
<clipPath id="clip0_12_264">
<rect width="1000" height="1000" fill="white"/>
</clipPath>
</defs>
</svg>
