<svg width="1000" height="1538" viewBox="0 0 1000 1538" fill="none" xmlns="http://www.w3.org/2000/svg">
<g clip-path="url(#clip0_5_290)">
<path d="M738.85 313.246C694.473 422.882 686.642 558.622 681.422 678.7C678.811 717.855 660.538 694.362 655.318 689.141C582.227 563.843 436.046 344.571 349.903 276.701C284.643 211.441 91.4751 57.4284 0.111694 5.22077C28.8259 435.934 334.241 626.492 537.85 683.92C543.071 686.531 543.071 691.751 540.461 691.751C438.656 694.362 365.565 725.686 308.137 757.011C180.228 827.491 141.072 939.738 146.293 1005C154.124 1098.97 292.475 1190.33 412.552 1206C402.111 1224.27 370.786 1252.98 383.838 1299.97C394.279 1336.52 399.5 1344.35 430.825 1328.68C462.149 1313.02 514.357 1284.31 527.409 1276.48C540.461 1268.65 558.734 1255.59 569.175 1263.43C582.227 1271.26 577.006 1281.7 569.175 1292.14C561.344 1299.97 548.292 1346.96 563.954 1352.18C574.396 1354.79 710.136 1302.58 783.226 1268.65C822.382 1247.76 824.993 1239.93 838.044 1195.56C908.525 965.842 861.538 835.323 762.343 743.959C851.096 657.816 908.525 589.947 947.681 446.375C965.953 381.116 968.564 294.973 979.005 200.999C984.226 135.74 992.057 67.87 999.888 0C890.252 75.7011 791.058 185.337 738.85 313.246V313.246ZM373.396 955.4C336.851 955.4 308.137 926.686 308.137 890.141C308.137 853.595 336.851 824.881 373.396 824.881C409.942 824.881 438.656 853.595 438.656 890.141C438.656 924.075 409.942 955.4 373.396 955.4Z" fill="black"/>
<path d="M287.254 1318.24L295.085 1498.36C315.968 1482.7 334.241 1467.03 355.124 1451.37C402.111 1420.05 409.942 1433.1 451.708 1469.65L514.357 1537.52L511.747 1331.3C493.474 1341.74 480.422 1354.79 462.149 1367.84C399.5 1409.61 402.111 1412.22 342.072 1367.84L287.254 1318.24ZM563.954 1404.39L566.565 1451.37L811.941 1383.5L809.33 1339.13L563.954 1404.39Z" fill="black"/>
</g>
<defs>
<clipPath id="clip0_5_290">
<rect width="1000" height="1537.52" fill="white"/>
</clipPath>
</defs>
</svg>
