<svg width="1000" height="1000" viewBox="0 0 1000 1000" fill="none" xmlns="http://www.w3.org/2000/svg">
<path d="M185.958 487.125C182.583 468.958 158.833 458.958 135.25 471.792L141.333 492.542L150.917 523.25L155.25 537.208C172.875 525.875 190.667 512.25 185.958 487.083V487.125ZM162.542 515.042C159.857 506.192 157.121 497.359 154.333 488.542L151.875 480.083C156.489 479.088 161.299 479.569 165.625 481.458C167.833 482.542 171.708 484.958 172.542 489.625C174.5 500.042 171 507.5 162.542 514.958V515.042ZM542.042 458.292C538.785 455.291 534.946 452.993 530.762 451.542C526.579 450.09 522.141 449.515 517.726 449.853C513.311 450.191 509.013 451.435 505.099 453.507C501.186 455.579 497.741 458.434 494.979 461.896C492.218 465.357 490.198 469.35 489.047 473.626C487.896 477.902 487.638 482.369 488.289 486.749C488.94 491.129 490.486 495.328 492.83 499.085C495.175 502.841 498.268 506.075 501.917 508.583L544.333 460.542C543.597 459.764 542.833 459.014 542.042 458.292ZM502 492.125C499.948 488.382 499.095 484.099 499.557 479.856C500.019 475.612 501.774 471.613 504.583 468.399C507.392 465.185 511.121 462.912 515.264 461.887C519.408 460.862 523.766 461.134 527.75 462.667L502 492.125ZM816.625 501.5C817.011 502.925 817.194 504.398 817.167 505.875C816.75 514.833 808.292 521.792 798.25 521.292C788.208 520.958 780.333 513.333 780.75 504.417C781.042 495.958 788.542 489.333 797.792 488.917C795.984 488.509 794.143 488.272 792.292 488.208C775.417 487.5 761.667 499.458 761.125 514.292C760.417 530.125 773.167 543.125 789.708 543.833C806.625 544.458 820.333 532.5 820.958 516.708C821.138 511.317 819.638 506.003 816.667 501.5H816.625ZM306.042 519.667C306.042 528.667 297.833 535.917 287.792 535.917C277.708 535.917 269.542 528.708 269.542 519.667C269.542 511.25 276.75 504.333 285.958 503.5C284.144 503.168 282.303 503.001 280.458 503C263.625 503 250.333 515.5 250.333 530.333C250.333 546.25 263.667 558.667 280.167 558.667C297.042 558.667 310.292 546.25 310.292 530.333C310.271 524.96 308.534 519.733 305.333 515.417C305.75 516.667 306.042 518.125 306.042 519.667ZM921.375 428.625L913.875 459.417L906.958 425.25L814.542 404.958L815.208 456.333L829.125 459.458L828.125 468.75L827.708 468.458C810.458 459.375 789.083 458.458 768.958 466.042C762.167 468.542 755.875 472 750.208 476.125L736.25 388.125H674.792L673.125 398.292H608.417L601.042 443.5L595.625 436.875C587.924 427.442 578.236 419.825 567.253 414.567C556.269 409.31 544.26 406.541 532.083 406.458L587 376.917L548.75 319.833L479.458 399.542L491.417 414.125C481.039 418.311 471.519 424.37 463.333 432L404 379.333L383.292 419.042L384.083 380.875L291.333 410.542L293.708 460.375L309.5 456.292L311.833 481.5C293.792 473.458 272.083 473.583 252 482.083C246.129 484.651 240.554 487.851 235.375 491.625C239.05 476.966 237.925 461.514 232.167 447.542C225.221 431.658 213.265 418.487 198.125 410.042C187.298 402.968 174.945 398.569 162.083 397.208C130 391.583 91.4167 397.333 53.5 413.542C40.0786 419.173 27.1457 425.904 14.8333 433.667L0 443.083L8.95833 458.208L36.75 505.167C36.75 505.167 45.25 519.583 45.2917 519.542L60.3333 512.167L62.4167 511.208L131.5 665.375L138.167 680.167L153.583 675.25L190.917 663.25L207.333 658.042L203 641.375L183.167 565.167C188.875 560.958 194.167 556.458 199.125 551.792C198 560.917 198.583 570.125 201.083 578.958C206.25 597.417 218.417 612 235.167 620.042C253.292 628.792 275.375 628.792 295.833 620.125C306.125 615.792 315.292 609.417 322.958 601.833L325.792 632.167L391.208 622.542L391.125 563.917L527.875 631.417V566C547.668 564.031 566.807 557.836 584 547.833L578.25 582.958L652 594.583L656.042 568.042L675.25 603.625L687.042 580.917L691.375 618.208L774.917 632.875L770.5 604.792C785.416 606.387 800.469 603.516 813.75 596.542L810.417 626.458L866.083 634.333L866.5 657.125L924.417 675.375L1000 447.708L921.375 428.625ZM594.75 462.375L598.583 458.333L593.917 487.083L581.875 476.167L594.75 462.375ZM545.708 345.167L566 372.708L508.083 401.417L504.042 395.333L545.708 345.167ZM162.292 557.292L185.417 645.958L148 657.917L71.2917 486.583C67.125 488.792 59.4583 492.417 52.3333 495.875L24.5833 448.958C35.6667 441.917 47.75 435.667 60.625 430.208C96.7917 414.833 131.333 410.208 158.958 415.125C168.667 416.25 179 419.083 188.125 425.125C200.542 432.125 210 442.042 215.5 454.75C228.833 485.583 206.542 530.042 162.333 557.292H162.292ZM334.208 541.542C333.792 554.792 328.917 567.958 320.833 579.167C312.917 590.252 302.127 598.967 289.625 604.375C257.167 618.125 224.75 604.375 216.125 573.542C207.667 543.792 227.208 508.333 258.625 494.792C278.75 486.375 298.875 488.333 313.292 498.125C322.167 504.208 329 513.292 332.167 524.667C333.715 530.167 334.404 535.873 334.208 541.583V541.542ZM510.708 604.208L375.125 536.333L375.375 607.458L340.25 612.25L337.792 582.958C348.625 564.375 352.583 542.458 346.958 522.375C343.982 511.633 338.235 501.862 330.292 494.042L325.25 434.333L309.542 438.417L308.833 423.333L365.167 406.5L368.625 464.667L410.167 406.333L450.75 444.958L394 504.792L447.333 525.917C453.25 537.167 462.333 546.75 473.75 553.833C484.75 560.625 497.417 564.667 510.792 565.958V604.208H510.708ZM440.292 505.875L421.375 498.625L439 481.542C438.208 489.375 438.583 497.583 440.25 505.875H440.292ZM587.875 523.667C574.875 534.458 559.958 541.458 540.417 546.167C536.276 547.164 532.072 547.874 527.833 548.292C496.708 551.333 470.583 537.042 460.667 513.875C459.442 511.067 458.479 508.152 457.792 505.167C453.208 485.667 457.125 468.208 466.75 454.542C469.568 450.538 472.855 446.887 476.542 443.667C486.228 435.229 497.851 429.318 510.375 426.458C540.042 419.333 566.167 428.375 582.167 448L525.708 508.167C530.544 508.568 535.412 508.102 540.083 506.792C553.542 503.5 561.083 496.375 567.708 488.625L590.292 508.875L597.125 515.125C594.186 518.125 591.099 520.976 587.875 523.667ZM707.75 603.958L695.5 522.542L678.083 567.458L652.042 511.292H651.75L641.5 576.292L598.125 568.792L604.208 532.542C605.85 530.99 607.462 529.406 609.042 527.792L623.125 513.292L609.417 501.042L624 414.667H667.75L678.667 474.5L690.917 405.208H722.25L735.25 489.625C718.75 508.417 710.667 533.792 716.25 556.917C718.405 566.449 722.797 575.332 729.064 582.831C735.332 590.329 743.293 596.229 752.292 600.042L753.958 611L707.75 603.958ZM815.875 577.417C811.024 580.867 805.743 583.668 800.167 585.75C789.95 589.843 778.782 590.955 767.958 588.958C761.244 587.678 754.88 584.979 749.292 581.042C740.223 574.404 733.859 564.711 731.375 553.75C728.042 539.75 731.083 524.75 738.625 511.583C742.417 505.167 747.25 499.167 752.958 493.958C759.292 488.25 766.708 483.542 774.917 480.417C794.042 473.25 812.917 475.75 826.167 485.25C835.033 491.618 841.282 500.992 843.75 511.625C847.833 528.542 843 546.542 832.333 561.083C827.754 567.371 822.197 572.885 815.875 577.417ZM913.5 654.125L881.417 644.583L878.667 526.333L862.5 617.583L827.5 611.958L830.083 585.708C852.875 566.375 865 535.917 858.375 508.375C855.609 496.455 849.306 485.65 840.292 477.375L843.25 446.417L830.042 442.875L830.875 426.375L891.208 438.458L911.5 534.625L932.292 448.417L978.125 458.583L913.5 654.125Z" fill="black"/>
</svg>
