<svg width="1000" height="1000" viewBox="0 0 1000 1000" fill="none" xmlns="http://www.w3.org/2000/svg">
<path fill-rule="evenodd" clip-rule="evenodd" d="M125 500C125 292.893 292.893 125 500 125C707.108 125 875 292.893 875 500C875 707.108 707.108 875 500 875C292.893 875 125 707.108 125 500ZM211.287 541.667C231.505 683.013 353.064 791.667 500 791.667C646.938 791.667 768.496 683.013 788.713 541.667H617.888C600.725 590.217 554.425 625 500 625C445.575 625 399.271 590.217 382.112 541.667H211.287ZM788.713 458.333C768.496 316.988 646.938 208.333 500 208.333C353.064 208.333 231.505 316.988 211.287 458.333H382.112C399.271 409.784 445.575 375 500 375C554.425 375 600.725 409.784 617.888 458.333H788.713ZM500 541.667C523.013 541.667 541.667 523.013 541.667 500C541.667 476.988 523.013 458.333 500 458.333C476.988 458.333 458.333 476.988 458.333 500C458.333 523.013 476.988 541.667 500 541.667Z" fill="black"/>
</svg>
