<svg width="1000" height="1000" viewBox="0 0 1000 1000" fill="none" xmlns="http://www.w3.org/2000/svg">
<path d="M713.667 0C674.813 0.289019 636.184 5.93956 598.875 16.7917L596.25 17.625C572.717 13.4662 548.894 11.1674 525 10.75C475.917 9.91667 433.75 21.8333 399.75 41.6667C366.25 30.0417 296.75 10 223.5 14C172.5 16.7917 116.833 32.2917 75.5834 75.8333C34.4584 119.375 12.7084 186.75 17.2917 278.417C18.5417 303.708 25.75 344.958 37.7084 398.375C49.6667 451.792 66.4584 514.333 87.4167 571.375C108.375 628.458 131.333 679.708 167.208 714.542C185.125 732 209.792 746.667 238.875 745.458C259.292 744.625 277.75 735.667 293.667 722.458C301.417 732.667 309.708 737.125 317.25 741.25C326.75 746.458 336 750 345.583 752.333C362.792 756.625 392.25 762.375 426.75 756.5C438.5 754.542 450.875 750.708 463.208 745.25C463.667 759 464.208 772.458 464.75 786.083C466.458 829.25 467.542 869.125 480.5 904.083C482.583 909.792 488.292 939.208 510.792 965.167C533.292 991.167 577.375 1007.38 627.583 996.625C663 989.042 708.042 975.375 737.958 932.792C767.542 890.708 780.875 830.333 783.5 732.417C784.167 727.125 784.958 722.625 785.792 718.417L792.833 719.042H793.667C831.458 720.75 872.458 715.375 906.708 699.458C937.042 685.417 960 671.208 976.708 646C980.875 639.75 985.458 632.208 986.708 619.208C987.958 606.208 980.5 585.875 968.125 576.5C943.333 557.667 927.75 564.833 911.042 568.292C894.583 571.93 877.81 573.968 860.958 574.375C909.125 493.25 943.667 407.083 963.375 330.833C975.042 285.833 981.583 244.333 982.125 208.042C982.667 171.75 979.708 139.625 957.958 111.833C890 25 794.458 1 720.542 0.166667C718.25 0.125 715.958 0.0833333 713.667 0.125V0ZM711.708 26.6667C781.625 26 870.958 45.625 935.083 127.583C949.5 146 953.792 172.917 953.292 206.083C952.75 239.208 946.625 278.875 935.417 322.333C913.667 406.5 872.583 504.625 814.708 592.667C816.752 594.119 818.963 595.322 821.292 596.25C833.375 601.25 860.917 605.542 915.875 594.25C929.708 591.333 939.833 589.375 950.333 597.375C952.885 599.538 954.901 602.262 956.224 605.334C957.547 608.407 958.141 611.743 957.958 615.083C957.398 620.141 955.531 624.965 952.542 629.083C941.917 645.042 920.958 660.167 894.083 672.625C870.292 683.708 836.167 689.5 805.917 689.833C790.75 690 776.75 688.833 764.875 685.125L764.125 684.833C759.542 729 749 816.208 742.125 856C736.625 888.083 727 913.583 708.625 932.667C690.292 951.75 664.333 963.25 629.417 970.75C586.167 980.042 554.625 970.042 534.292 952.917C514 935.833 504.708 913.167 499.125 899.292C495.292 889.708 493.292 877.292 491.375 860.708C489.458 844.125 488.042 823.833 487.083 800.958C485.807 765.932 485.39 730.88 485.833 695.833C467.767 712.381 445.316 723.374 421.167 727.5C392.458 732.375 366.833 727.583 351.542 723.75C344.004 721.857 336.727 719.044 329.875 715.375C322.792 711.583 316.042 707.292 311.542 698.833C308.898 693.989 308.056 688.364 309.167 682.958C310.575 677.478 313.772 672.625 318.25 669.167C326.5 662.458 337.417 658.708 353.875 655.292C383.833 649.125 394.292 644.917 400.667 639.875C406.083 635.542 412.208 626.792 423.042 613.958C422.99 613.39 422.948 612.82 422.917 612.25C403.529 611.704 384.542 606.594 367.5 597.333C361.25 603.917 329.333 637.667 290.417 684.5C274.042 704.083 255.958 715.333 236.875 716.125C217.792 716.958 200.542 707.333 185.875 693.125C156.583 664.667 133.208 615.708 112.833 560.375C92.5 505.042 75.9584 443.417 64.2084 390.917C52.4167 338.417 45.4584 296.083 44.4584 275.667C40.0834 188.917 60.375 130.458 95.1667 93.5833C130 56.7083 177.75 42.75 224.292 40.0833C307.833 35.2917 387.167 64.4167 403.208 70.6667C434.125 49.6667 473.958 36.5833 523.708 37.4167C547.327 37.7479 570.828 40.7958 593.75 46.5L594.583 46.125C604.672 42.5786 614.952 39.6017 625.375 37.2083C653.675 30.6064 682.609 27.0997 711.667 26.75L711.708 26.6667ZM718.042 54.5833H711.958C688.087 54.9162 664.306 57.5958 640.958 62.5833C692.875 85.5833 732.083 121 759.708 156.333C778.898 180.798 794.759 207.699 806.875 236.333C811.458 247.333 814.542 256.625 816.292 263.833C817.167 267.458 817.75 270.5 817.958 273.667C818.042 275.25 818.125 276.875 817.458 279.667C817.458 279.792 817.25 280.083 817.208 280.208C818.458 316.708 809.417 341.458 808.333 376.292C807.5 401.542 813.958 431.208 815.542 463.583C817.042 494 813.375 527.417 793.625 560.208C795.292 562.208 796.792 564.208 798.375 566.208C850.625 483.917 888.292 392.875 908.375 315.25C919.125 273.458 924.833 235.583 925.333 205.583C925.75 175.583 920.167 153.833 913.042 144.75C857.125 73.25 781.458 55.0417 718.042 54.5417V54.5833ZM518.458 65.25C469.208 65.375 433.875 80.25 407.083 102.542C379.458 125.583 360.917 157.125 348.75 189.417C334.292 227.75 329.333 264.833 327.375 290L327.917 289.667C342.792 281.333 362.333 273 383.25 268.167C404.167 263.375 426.708 261.875 447.125 269.792C467.542 277.708 484.417 296.333 490.542 324.583C519.875 460.292 481.417 510.75 467.25 548.833C461.876 562.637 457.271 576.728 453.458 591.042C455.25 590.625 457.042 590.125 458.833 589.958C468.833 589.125 476.667 592.458 481.333 594.458C495.583 600.375 505.375 612.792 510.667 626.958C512.042 630.667 513.042 634.667 513.625 638.792C514.241 640.486 514.524 642.282 514.458 644.083C512.879 695.991 513.059 747.938 515 799.833C515.958 822.25 517.375 842 519.167 857.583C520.958 873.125 523.5 884.958 525.125 888.958C530.458 902.292 538.25 919.75 552.333 931.625C566.417 943.458 586.625 951.375 623.542 943.458C655.542 936.583 675.292 927.042 688.5 913.333C701.667 899.625 709.542 880.542 714.583 851.333C722.125 807.583 737.292 680.708 739.125 656.833C738.292 638.833 740.958 625 746.708 614.458C752.625 603.625 761.792 597 769.708 593.417C773.667 591.625 777.375 590.417 780.417 589.542C777.197 584.914 773.82 580.398 770.292 576C758.878 562.157 749.531 546.733 742.542 530.208C739.195 523.384 735.623 516.672 731.833 510.083C726.292 500.083 719.292 487.583 711.958 473.542C697.292 445.417 681.333 411.333 673.042 378.125C664.792 344.958 663.583 310.625 684.75 286.417C703.5 264.917 736.417 256 785.833 261C784.375 256.625 783.5 253 781.042 247.167C769.87 220.87 755.286 196.158 737.667 173.667C695.792 120.125 628 67.0417 523.25 65.3333H518.458V65.25ZM241.708 67.4167C236.417 67.4167 231.125 67.5833 225.875 67.875C183.792 70.2917 144 82.5 115.542 112.667C87.0417 142.833 68.2917 192.292 72.375 274.167C73.1667 289.667 79.9167 333.083 91.5 384.667C103.042 436.25 119.417 496.958 139.083 550.583C158.792 604.208 182.667 650.875 205.333 672.958C216.75 684 226.667 688.458 235.667 688.083C244.708 687.667 255.583 682.458 268.875 666.5C293.109 637.268 318.26 608.809 344.292 581.167C325.821 565.129 311.685 544.7 303.188 521.763C294.69 498.825 292.103 474.117 295.667 449.917C299.958 419.125 300.542 390.333 300.042 367.583C299.542 345.417 297.958 330.667 297.958 321.458C297.951 321.195 297.951 320.931 297.958 320.667V320.458L297.917 320.208V320.167C297.892 272.2 306.239 224.597 322.583 179.5C334.25 148.5 351.625 117 377.667 91.5C352.083 83.0833 306.667 70.25 257.5 67.8333C252.227 67.5625 246.947 67.4236 241.667 67.4167H241.708ZM758.292 287.5C730 287.875 714.125 295.167 705.792 304.708C694 318.25 692.875 342 700.208 371.25C707.5 400.542 722.583 433.292 736.75 460.5C743.833 474.125 750.708 486.375 756.25 496.333C761.833 506.333 765.917 513.417 768.417 519.458C770.708 525.042 773.25 529.958 775.833 534.542C786.792 511.417 788.75 488.708 787.625 465.042C786.167 435.75 779.375 405.792 780.375 375.458C781.5 340 788.5 316.917 789.125 289.5C778.901 288.176 768.602 287.508 758.292 287.5ZM415.208 292.292C406.565 292.372 397.958 293.406 389.542 295.375C372.768 299.45 356.612 305.742 341.5 314.083C336.388 316.825 331.523 320.004 326.958 323.583L326.042 324.417C326.292 330.5 327.5 345.25 328 366.958C328.5 390.708 327.917 421 323.333 453.792C313.375 525.042 365.083 584.042 425.833 584.125C429.375 569.5 435.208 554.667 441.042 539.042C457.958 493.458 491.25 460.208 463.208 330.458C458.625 309.208 449.542 300.625 437.042 295.792C430.036 293.314 422.638 292.128 415.208 292.292ZM745.083 300.792H747.167C749.917 300.875 752.458 301.167 754.667 301.708C756.917 302.208 758.833 302.958 760.417 304C761.229 304.503 761.927 305.171 762.465 305.96C763.004 306.75 763.37 307.643 763.542 308.583L763.5 308.917H763.542H763.5C763.581 310.895 763.074 312.852 762.042 314.542C760.813 316.829 759.27 318.932 757.458 320.792C753.232 325.446 747.571 328.555 741.375 329.625C735.346 330.354 729.261 328.825 724.292 325.333C722.258 323.965 720.433 322.309 718.875 320.417C717.527 318.93 716.618 317.098 716.25 315.125C716.163 314.164 716.273 313.195 716.574 312.278C716.875 311.36 717.36 310.514 718 309.792C719.367 308.238 721.023 306.965 722.875 306.042C726.875 303.792 732.292 302.125 738.417 301.208C740.708 300.875 742.958 300.708 745.083 300.667V300.792ZM419.25 307.792C421.458 307.792 423.792 308 426.167 308.333C432.542 309.208 438.208 310.917 442.542 313.417C444.655 314.52 446.537 316.019 448.083 317.833C448.926 318.796 449.56 319.921 449.947 321.14C450.335 322.359 450.466 323.645 450.333 324.917C449.933 327.312 448.847 329.541 447.208 331.333C445.504 333.426 443.495 335.252 441.25 336.75C435.831 340.589 429.175 342.268 422.583 341.458C415.847 340.351 409.682 337.004 405.083 331.958C403.127 329.927 401.471 327.626 400.167 325.125C398.793 322.925 398.192 320.33 398.458 317.75C399.083 313.25 402.792 310.917 406.417 309.625C410.546 308.306 414.879 307.741 419.208 307.958L419.25 307.792ZM796.75 613.75L796.625 613.792C790.5 616 785.458 616.917 781.208 618.792C776.91 620.446 773.368 623.618 771.25 627.708C768.625 632.5 766.375 641 767.042 655.458C768.927 656.756 771.009 657.741 773.208 658.375C780.333 660.542 792.292 661.958 805.625 661.75C832.208 661.458 864.917 655.25 882.292 647.167C896.545 640.545 909.777 631.916 921.583 621.542H921.542C863.5 633.542 830.708 630.333 810.583 622.042C805.586 619.962 800.924 617.154 796.75 613.708V613.75ZM462.125 617.667H461.25C459.042 617.875 455.833 618.625 449.625 625.5C435.125 641.75 430.042 651.958 418.083 661.5C406.125 671 390.583 676.083 359.542 682.458C349.708 684.458 344.083 686.667 340.333 688.458C341.542 689.458 341.417 689.708 343.25 690.667C347.792 693.167 353.625 695.375 358.333 696.583C371.667 699.917 393.583 703.792 416.458 699.917C439.333 696 463.125 685.042 483.417 656.583C486.917 651.667 487.292 644.417 484.417 636.625C481.5 628.833 475.125 622.125 470.625 620.25C467.947 618.958 465.076 618.113 462.125 617.75V617.667Z" fill="black"/>
</svg>
