<svg width="1000" height="1000" viewBox="0 0 1000 1000" fill="none" xmlns="http://www.w3.org/2000/svg">
<path d="M500 55.5557C412.097 55.5557 326.168 81.6219 253.08 130.458C179.991 179.294 123.026 248.707 89.3868 329.919C55.7479 411.13 46.9464 500.493 64.0954 586.707C81.2444 672.921 123.574 752.113 185.73 814.27C247.887 876.427 327.079 918.756 413.293 935.905C499.507 953.054 588.87 944.252 670.081 910.613C751.293 876.974 820.706 820.009 869.542 746.92C918.378 673.832 944.444 587.903 944.444 500C944.444 382.126 897.619 269.08 814.27 185.73C730.92 102.381 617.874 55.5557 500 55.5557ZM680.556 775.556H326.111C317.446 775.537 309.101 772.279 302.716 766.422C296.33 760.565 292.365 752.533 291.6 743.902C290.834 735.271 293.323 726.665 298.578 719.776C303.833 712.886 311.474 708.211 320 706.667C324.167 706.667 367.778 693.056 367.778 608.333V527.778H298.333C290.966 527.778 283.901 524.851 278.691 519.642C273.482 514.433 270.555 507.367 270.555 500C270.555 492.633 273.482 485.568 278.691 480.358C283.901 475.149 290.966 472.222 298.333 472.222H367.778V330C367.224 308.613 370.899 287.327 378.592 267.363C386.285 247.4 397.844 229.152 412.607 213.667C427.369 198.182 445.044 185.764 464.618 177.127C484.191 168.489 505.277 163.802 526.667 163.333C548.868 163.5 570.779 168.392 590.942 177.684C611.106 186.975 629.06 200.454 643.611 217.222C646.693 220.633 649.074 224.618 650.617 228.948C652.159 233.279 652.833 237.871 652.601 242.462C652.369 247.054 651.235 251.554 649.263 255.707C647.292 259.86 644.522 263.584 641.111 266.667C637.7 269.749 633.716 272.13 629.385 273.672C625.055 275.215 620.462 275.889 615.871 275.657C611.28 275.425 606.779 274.291 602.626 272.319C598.473 270.348 594.749 267.578 591.667 264.167C583.79 254.859 574.015 247.342 562.996 242.12C551.977 236.898 539.97 234.092 527.778 233.889C503.191 234.83 479.978 245.47 463.216 263.481C446.454 281.493 437.507 305.41 438.333 330V472.222H521.667C529.034 472.222 536.099 475.149 541.308 480.358C546.518 485.568 549.444 492.633 549.444 500C549.444 507.367 546.518 514.433 541.308 519.642C536.099 524.851 529.034 527.778 521.667 527.778H438.333V608.333C439.004 642.187 431.576 675.71 416.667 706.111H680.556C689.764 706.111 698.596 709.769 705.108 716.281C711.62 722.793 715.278 731.625 715.278 740.833C715.278 750.042 711.62 758.874 705.108 765.386C698.596 771.897 689.764 775.556 680.556 775.556Z" fill="black"/>
</svg>
