<svg width="1000" height="1000" viewBox="0 0 1000 1000" fill="none" xmlns="http://www.w3.org/2000/svg">
<path fill-rule="evenodd" clip-rule="evenodd" d="M333.333 333.333H133.333V666.666H200V600H333.333C406.971 600 466.667 540.304 466.667 466.666C466.667 393.028 406.971 333.333 333.333 333.333ZM333.333 533.333H200V400H333.333C370.152 400 400 429.848 400 466.666C400 503.485 370.152 533.333 333.333 533.333Z" fill="black"/>
<path fill-rule="evenodd" clip-rule="evenodd" d="M499.989 0C336.373 0 191.125 78.616 99.9547 200C44.7472 200.025 0 244.787 0 300V700C0 755.213 44.7471 799.973 99.9547 800C191.125 921.387 336.373 1000 499.989 1000C776.133 1000 999.987 776.14 999.987 500C999.987 223.857 776.133 0 499.989 0ZM66.6667 300C66.6667 281.591 81.5907 266.667 100 266.667H500C518.11 266.667 532.846 281.109 533.321 299.103V700.893C532.846 718.893 518.11 733.333 500 733.333H100C81.5907 733.333 66.6667 718.407 66.6667 700V300Z" fill="black"/>
</svg>
