<svg width="1000" height="1000" viewBox="0 0 1000 1000" fill="none" xmlns="http://www.w3.org/2000/svg">
<g clip-path="url(#clip0_8_101)">
<path d="M965.875 128.208C989.542 128.208 1004.33 147.5 998.875 171.333L846.417 837.208C841 861.042 817.375 880.333 793.708 880.333H34.125C10.4583 880.333 -4.33337 861.042 1.12496 837.208L153.583 171.333C159 147.5 182.625 128.208 206.292 128.208H965.875ZM616.917 517.583C627.375 501.167 626.375 479.875 613.167 465.792L380.083 217.833C364.25 200.958 336.875 200.875 319 217.667C301.125 234.458 299.5 261.708 315.333 278.542L509.583 485.208V489.792L200.417 713.667C181.667 727.292 178.208 754.375 192.625 774.208C207.042 794.042 233.917 799.083 252.625 785.458L595.5 539.25C607.167 531.042 613.75 524 616.917 517.583ZM500.417 700.875C495.335 700.842 490.297 701.811 485.591 703.726C480.884 705.642 476.601 708.466 472.987 712.038C469.373 715.61 466.498 719.859 464.527 724.542C462.556 729.226 461.527 734.252 461.5 739.333C461.5 760.583 478.917 777.792 500.417 777.792H685.125C690.206 777.825 695.244 776.856 699.951 774.94C704.657 773.025 708.94 770.201 712.555 766.629C716.169 763.057 719.044 758.808 721.015 754.124C722.986 749.441 724.014 744.415 724.042 739.333C724.014 734.252 722.986 729.226 721.015 724.542C719.044 719.859 716.169 715.61 712.555 712.038C708.94 708.466 704.657 705.642 699.951 703.726C695.244 701.811 690.206 700.842 685.125 700.875H500.417Z" fill="black"/>
</g>
<defs>
<clipPath id="clip0_8_101">
<rect width="1000" height="1000" fill="white"/>
</clipPath>
</defs>
</svg>
