<svg width="1000" height="1000" viewBox="0 0 1000 1000" fill="none" xmlns="http://www.w3.org/2000/svg">
<path d="M65.1907 212.68C58.1461 214.805 52.8906 217.712 48.9769 222.52C43.3859 229.229 43.1623 230.236 43.6096 250.252C43.8332 261.769 43.8332 282.12 43.6096 295.874C43.3859 320.474 43.3859 320.474 38.8013 319.02C29.6322 315.889 7.71557 317.343 4.02553 321.369C0.894592 324.723 0.894592 324.723 4.47281 323.493C7.15647 322.71 8.05103 323.046 7.38011 324.723C6.93283 326.177 5.25555 327.183 4.02553 326.848C2.57188 326.624 1.67733 330.426 1.67733 337.247C1.67733 343.285 1.00641 351.672 0.447315 355.585C-0.33542 361.4 0.447315 363.972 4.80827 368.556C9.84014 373.924 11.5174 374.371 26.5012 374.371C40.4786 374.371 42.9387 375.042 43.8332 377.949C45.0632 382.757 43.6096 620.709 42.3796 624.063C41.7086 625.964 37.0122 626.747 27.9549 626.747C18.8975 626.747 12.3002 627.977 8.16285 630.325C1.90097 634.127 1.67733 634.463 1.45369 650.788C1.00641 683.999 1.90097 685.229 28.1785 685.229H45.7341L45.0632 725.26C44.2805 781.617 45.8459 784.077 86.3245 786.313C146.372 789.444 322.151 790.674 351.001 788.214C361.065 787.431 370.01 787.208 379.738 787.431C393.269 787.655 396.623 787.431 399.083 785.083C401.208 783.406 401.99 783.406 401.99 785.083C401.99 786.313 402.997 787.431 404.115 787.431C405.345 787.431 406.24 785.53 406.24 783.07C406.24 780.722 405.457 779.492 404.115 780.163C403.109 780.834 401.99 780.387 401.99 779.157C401.99 775.355 407.022 777.927 409.259 782.959C411.383 787.543 411.942 787.543 458.236 787.543C484.066 787.543 519.513 788.214 537.068 788.773C584.368 790.674 658.504 787.991 658.504 784.189C658.504 782.511 659.51 781.281 660.852 781.281C662.082 781.281 662.753 782.735 661.859 784.412C661.076 787.096 663.312 787.543 676.842 787.543C685.564 787.767 733.758 787.99 784.077 788.214C834.172 788.438 874.539 787.991 873.98 786.984C873.532 786.201 874.651 785.531 876.44 785.531C878.564 785.531 879.123 786.537 878.341 787.991C875.881 791.904 930.448 788.661 939.618 784.077C954.825 776.585 955.72 773.454 955.831 728.167C956.055 705.803 956.614 686.235 957.509 684.334C958.291 681.874 959.969 681.427 963.323 682.433C969.362 684.558 992.061 683.439 996.31 681.203C998.994 679.526 998.77 679.302 995.639 679.078C993.291 679.078 992.061 678.072 992.732 676.395C993.179 675.165 994.633 674.047 995.639 674.27C998.323 674.941 1000.45 641.507 998.099 637.37C993.067 628.424 992.285 627.977 973.275 626.971L954.266 625.964L953.819 500.168L953.148 374.595H971.71C988.818 374.595 990.272 374.147 995.304 368.78C999.665 364.195 1000.56 361.735 999.665 355.809C998.994 351.895 998.435 343.509 998.435 337.694C998.435 330.65 997.652 326.848 996.086 327.295C994.856 327.519 993.179 326.512 992.732 324.947C992.061 323.27 992.955 322.822 995.639 323.717C998.994 324.947 998.994 324.723 996.31 321.816C992.955 318.238 972.381 316.56 962.988 319.132C953.595 321.592 952.812 319.356 951.471 281.785C949.122 223.75 944.761 215.476 916.247 216.258C907.861 216.482 900.034 216.035 898.692 215.476C896.455 213.463 861.009 211.003 843.118 211.003C836.185 211.227 824.108 211.227 816.057 211.227C808.118 211.227 766.857 211.674 724.254 211.898C681.874 212.121 639.159 212.568 629.319 212.904C619.479 213.239 607.402 213.687 602.259 213.575C521.302 212.345 454.21 211.898 450.632 212.792C447.948 213.463 446.047 214.693 446.495 215.476C446.718 216.258 446.047 217.153 444.817 217.377C443.811 217.824 442.693 216.706 442.693 215.252C442.693 213.351 432.629 212.792 399.978 212.792C366.767 212.792 357.486 213.463 357.598 215.252C358.045 216.706 356.815 217.936 354.915 217.936C353.237 217.936 352.231 217.153 352.79 216.035C355.25 212.233 341.72 211.674 246.673 211.674C193.895 211.674 133.848 211.227 113.161 210.891C85.7654 210.22 72.6826 210.779 65.1907 212.68ZM489.098 269.149C774.572 269.596 869.06 268.925 869.06 267.248C869.06 265.347 869.731 265.571 870.737 267.248C871.52 268.702 876.999 270.155 882.59 270.379L892.989 271.05L893.213 281.449C893.66 298.11 896.344 466.622 896.12 470.2C895.449 487.979 896.12 622.051 897.126 668.791C898.133 715.532 897.909 728.838 895.896 730.068C894.443 730.851 886.503 731.298 878.564 731.074C863.133 730.404 806.776 730.404 590.741 730.627C478.698 730.851 464.162 731.298 465.168 733.982C465.951 736.106 464.945 737.113 462.261 737.113C459.577 737.113 458.459 736.106 459.354 733.982C460.36 731.298 447.277 731.074 354.467 731.074C296.321 731.298 231.466 731.857 210.332 732.528C189.422 733.311 172.425 733.311 172.425 732.305C172.425 729.844 165.157 730.627 162.362 733.311C160.461 735.212 159.231 735.435 158.224 733.758C157.442 732.081 147.378 731.298 130.94 731.074C116.739 730.851 104.216 730.292 103.433 729.621C102.427 728.95 101.532 721.123 101.532 711.73C101.532 697.752 101.085 695.292 98.401 696.299C96.2765 697.081 95.2701 696.075 95.2701 693.391C95.2701 690.708 96.2765 689.59 98.401 690.484C101.085 691.49 101.532 682.321 101.756 616.012C102.538 366.544 102.538 369.451 99.631 368.445C97.9537 367.774 97.5065 366.991 98.9601 366.096C102.091 364.195 102.538 339.036 99.631 329.755C98.1774 325.618 97.7301 321.033 98.8483 319.579C99.631 318.126 100.526 306.385 100.973 293.973C101.197 281.225 101.42 269.82 101.42 268.143C101.644 266.242 102.874 265.794 105.334 267.136C107.235 267.919 279.996 268.925 489.098 269.149Z" fill="black"/>
<path d="M763.39 321.704L718.998 322.151L710.835 330.091C703.903 336.8 702.449 339.483 701.443 349.324C699.094 369.116 699.094 396.847 700.995 441.127C702.002 464.721 702.673 487.644 702.225 492.229C701.778 496.813 701.443 535.167 701.443 577.77L701.219 654.926L706.251 663.089C708.934 667.449 714.19 672.258 717.88 673.935C726.266 677.513 810.019 678.296 821.089 674.941C831.265 671.81 839.428 661.411 840.658 649.894C842.782 629.655 841.888 475.568 839.651 469.753L837.303 464.162H808.677C789.333 464.162 779.269 464.945 777.592 466.622C775.914 468.299 775.131 476.462 775.131 489.098V509.113L781.393 512.692L787.655 516.493L787.879 539.864C787.879 552.835 787.879 573.633 787.655 586.604C787.432 600.582 788.326 611.428 789.78 613.664C791.457 616.348 791.681 619.032 790.003 623.057C787.879 628.648 787.655 628.648 772.112 627.865C754.333 627.083 751.09 625.741 754.333 621.604C756.681 618.696 757.688 472.884 755.787 404.339L754.78 370.793L769.764 370.01C792.128 369.004 791.904 368.78 791.904 383.764C791.904 391.032 792.911 397.741 794.364 399.195C796.265 401.096 796.265 401.655 794.364 401.655C789.78 401.655 791.681 407.47 796.713 408.588C804.204 410.041 833.613 408.811 835.738 406.687C836.52 405.68 837.862 389.579 838.421 370.793L839.204 336.576L833.389 330.762C828.357 325.73 823.997 324.052 810.019 321.816C808.677 321.369 787.543 321.369 763.39 321.704ZM167.394 325.73C165.493 327.631 164.934 339.483 165.493 368.445C166.164 415.185 165.94 411.607 168.4 407.693C170.077 405.233 170.524 405.792 170.524 410.153C170.524 413.061 169.518 415.968 168.064 416.415C166.164 417.086 165.604 426.032 165.604 447.501C165.381 473.555 164.934 478.363 161.803 481.494C158.672 484.401 158.001 488.986 158.001 508.219C158.001 520.966 158.672 530.694 159.454 530.135C161.355 528.234 168.4 534.72 168.4 538.522C168.4 539.975 167.729 541.206 166.946 541.206C165.94 541.206 165.045 569.831 164.598 604.831C164.374 639.83 165.045 668.456 165.828 668.456C166.834 668.456 168.735 670.804 169.965 673.711C172.314 678.743 173.096 678.967 193.112 678.967C223.974 678.967 222.297 682.769 221.738 606.843C221.29 573.633 220.955 545.566 220.508 544.448C218.16 535.503 219.278 535.055 248.91 535.055C281.002 535.055 293.078 532.707 300.235 525.215L305.043 519.96L305.714 429.498C306.161 368.556 305.49 337.471 304.037 334.787C298.781 325.171 293.19 324.388 229.565 323.717C185.508 323.381 168.959 323.829 167.394 325.73ZM249.693 375.713C249.916 377.837 249.916 400.09 250.14 425.361C250.14 450.632 250.811 469.529 251.146 467.517C252.824 461.255 255.954 463.715 255.954 471.43C255.954 477.468 255.284 478.699 252.6 477.692C250.252 476.909 249.693 477.469 250.475 480.152C251.482 483.283 250.252 483.73 237.728 483.059C229.789 482.612 222.744 480.935 221.067 479.481C217.712 476.127 217.489 470.088 220.62 470.088C222.073 470.088 222.52 455.44 221.626 422.342C221.179 396.064 221.179 373.924 221.85 373.365C222.632 372.694 229.118 372.135 236.498 372.135C247.68 372.247 249.693 372.806 249.693 375.713ZM345.857 325.059C342.279 329.196 343.509 375.489 347.311 374.707C348.541 374.483 349.771 375.713 349.771 377.39C349.771 379.068 348.541 380.298 347.311 379.85C345.41 379.627 344.404 382.981 343.956 390.473C343.509 399.195 343.956 401.32 346.081 400.09C348.205 398.86 348.205 399.083 346.528 401.543C343.173 405.904 340.937 642.178 344.068 656.156C345.969 663.648 348.205 667.673 353.461 671.363L360.394 676.73L415.073 675.948C476.015 675.165 480.376 674.047 486.973 661.299C491.558 652.354 493.459 582.02 492.34 459.577C491.893 409.706 491.558 360.058 491.558 349.659C491.558 337.583 490.775 329.867 489.21 328.749C487.756 328.078 486.302 328.525 485.855 329.755C484.849 333.333 481.27 332.886 481.27 329.084C481.27 326.624 477.916 325.953 463.491 325.953C434.865 325.953 436.99 319.021 437.214 415.185C437.437 459.577 437.996 508.442 438.667 523.426C439.674 543.218 439.338 551.157 437.661 551.157C433.859 551.157 434.977 559.097 439.114 561.333C441.574 563.01 442.022 564.017 440.121 565.135C438.667 566.365 437.437 576.652 436.99 595.326C436.319 619.479 435.76 624.511 432.629 627.642C429.051 631.22 428.715 631.22 426.143 627.642C423.012 623.728 414.291 623.057 408.029 626.412C401.767 629.543 395.281 623.505 396.959 616.013C398.412 609.751 399.419 436.654 398.412 373.924L397.63 330.985L388.684 326.177C382.646 322.822 378.285 321.592 375.713 322.822C371.799 324.5 357.822 324.5 351.784 322.599C349.883 322.599 347.311 323.381 345.857 325.059ZM531.701 324.835C529.353 327.966 528.57 403.668 530.918 413.843C531.924 417.757 531.924 427.597 531.365 435.76C530.583 443.923 530.694 451.415 531.813 452.868C534.496 456.223 531.813 463.938 528.011 463.938C526.334 463.938 525.551 464.945 526.11 466.063C526.781 467.293 525.886 469.641 524.209 471.43C520.407 475.232 519.401 504.417 522.979 506.653C524.209 507.324 525.103 509.784 525.103 511.909C525.103 514.033 526.11 516.046 527.452 516.493C529.353 517.164 529.912 535.838 529.912 584.927C529.688 624.175 530.583 653.696 531.813 655.261C532.819 656.491 532.819 658.168 532.036 658.616C531.03 659.287 530.583 663.648 531.03 668.232L531.813 676.73L587.499 676.06C670.469 675.389 665.66 681.315 665.884 578.665C665.884 509.672 665.66 506.542 661.747 502.292C649.223 488.762 647.769 486.19 651.124 484.401C659.51 479.817 661.523 470.2 661.97 438.891C662.194 422.23 662.641 391.927 662.977 371.576C663.648 336.576 663.424 334.228 659.175 330.314C652.689 323.829 642.961 322.599 586.381 322.375C546.908 322.375 533.378 322.822 531.701 324.835ZM609.751 372.47C610.981 374.595 610.981 390.361 609.751 451.526C609.527 466.734 608.521 467.628 592.866 465.057L583.92 463.827L582.69 445.712C582.02 435.648 581.46 426.143 581.237 424.466C581.237 422.789 581.908 409.818 582.69 395.729L584.144 370.234H596.221C602.818 370.122 608.856 371.128 609.751 372.47ZM608.856 519.065C609.639 520.295 610.533 536.397 610.533 554.736C610.533 573.074 610.757 596.668 610.757 607.291C610.981 617.69 610.533 627.306 609.751 628.313C608.073 630.996 586.381 629.99 582.802 626.859C580.454 624.958 580.119 622.498 581.349 616.795C582.355 612.658 583.25 589.064 583.25 564.24C583.25 525.439 583.697 518.953 586.604 516.941C590.518 514.033 606.62 515.487 608.856 519.065Z" fill="black"/>
</svg>
