<svg width="1000" height="1000" viewBox="0 0 1000 1000" fill="none" xmlns="http://www.w3.org/2000/svg">
<g clip-path="url(#clip0_5_243)">
<path d="M536.854 256.425C533.596 256.928 530.463 268.927 524.164 275.178C519.559 279.69 513.809 279.408 510.755 284.985C509.596 287.069 509.971 290.625 508.656 294.04C506.086 300.871 497.032 301.481 497.032 308.923C497 316.96 504.583 318.495 511.146 324.197C516.27 328.787 516.771 331.951 522.974 334.175C528.27 335.978 536.149 330.087 543.246 332.202C549.074 333.941 554.65 335.194 555.967 341.179C557.125 346.693 555.888 355.246 548.823 354.26C546.442 353.993 536.118 350.515 523.429 351.862C508.123 353.602 490.655 358.598 488.948 375.66C488.008 385.2 499.804 396.448 511.194 394.161C519.073 392.609 515.345 383.321 519.637 378.808C525.261 373.028 557.125 398.986 586.75 398.986C599.22 398.986 608.494 395.837 617.707 386.187C618.567 385.451 619.617 383.868 620.949 383.774C622.203 383.868 624.395 385.105 625.116 385.638C648.975 404.813 667.006 443.274 754.689 443.728C767.018 443.79 781.069 449.681 792.537 460.145C802.767 469.608 808.752 484.317 814.563 499.247C823.336 521.65 839.065 543.441 862.908 567.692C864.209 568.992 883.838 584.251 885.404 585.395C885.655 585.551 887.096 588.997 886.596 590.924C886.016 605.462 883.901 647.744 915.42 649.655C923.128 650.047 921.106 644.627 921.106 640.898C921.092 633.535 919.744 626.219 923.63 618.684C928.94 608.314 912.366 603.535 912.852 581.117C913.196 564.402 899.159 567.252 892.031 554.516C887.926 547.138 884.276 543.222 884.543 534.197C886.141 483.41 873.733 450.041 867.545 441.848C862.721 435.66 858.726 433.201 863.143 430.333C889.447 412.96 895.415 396.792 895.415 396.792C909.404 363.91 921.985 333.877 939.326 320.657C942.82 317.93 951.781 311.242 957.28 308.609C973.462 300.98 981.985 296.359 986.685 291.784C994.126 284.531 1000 269.413 992.872 260.249C984.005 248.937 968.669 257.914 961.901 261.924C913.541 290.625 906.413 341.256 889.665 370.333C876.303 393.565 854.574 410.625 835.149 412.02C820.579 413.1 804.882 410.155 789.247 403.294C751.227 386.626 730.421 365.101 725.519 361.295C715.304 353.414 636.003 275.57 571.757 272.39C571.757 272.39 563.784 256.427 561.778 256.16C557.078 255.564 552.27 265.7 548.823 266.876C545.58 267.956 540.129 255.894 536.854 256.427V256.425ZM254.023 721.03C247.975 720.888 242.837 715.922 242.837 709.781L242.853 509.383H176.806V730.287C176.806 741.113 185.578 749.949 196.34 749.949H311.783C322.623 749.949 331.287 741.113 331.287 730.287V509.383H265.302L265.239 709.781C265.239 715.922 260.1 720.888 254.023 721.03ZM475.162 509.383H375.198C363.371 509.383 353.736 519.002 353.736 530.955V749.948H419.844V549.066C419.891 542.909 424.873 538.037 431.015 538.037C437.187 538.037 442.137 542.799 442.278 548.894V749.949H508.122V548.892C508.2 542.798 513.15 538.036 519.307 538.036C525.417 538.036 530.462 542.908 530.509 549.065V749.949H596.618V530.955C596.618 519.002 586.968 509.383 575.141 509.383H475.162ZM88.418 549.488C88.4652 542.798 83.0137 538.036 77.2327 538.036H66.016V659.713H77.2327C83.0609 659.713 88.4663 655.075 88.418 648.418V549.488ZM132.737 689.493H66.016V749.949H0V509.383H133.161C145.082 509.383 154.387 519.065 154.387 531.05V667.828C154.387 679.829 144.722 689.493 132.737 689.493ZM823.164 696.151C809.895 696.151 798.756 707.619 798.756 721.515C798.756 735.458 809.895 746.831 823.587 746.831C837.17 746.831 848.167 735.458 848.167 721.515C848.167 707.587 837.169 696.151 823.586 696.151H823.164ZM852.898 721.437C852.898 737.775 839.801 751.061 823.587 751.061C807.2 751.061 794.041 737.871 794.041 721.437C794.041 705.316 807.2 691.844 823.101 691.844C839.801 691.844 852.898 704.91 852.898 721.437Z" fill="black"/>
<path d="M820.532 719.557C825.122 719.557 827.535 717.927 827.535 714.67C827.535 711.771 825.2 710.283 820.735 710.283H819.42V719.557H820.532ZM837.436 738.575H829.556L819.42 725.087V738.575H812.981V704.471H819.749C828.945 704.471 833.832 707.949 833.832 714.591C833.832 719.024 830.95 722.957 826.923 724.131L826.453 724.304L837.436 738.575ZM707.456 659.76V548.988C707.299 542.861 702.364 538.162 696.208 538.162C690.113 538.162 685.069 543.049 685.023 549.16V659.76H707.456ZM707.456 749.949V689.557H685.023V749.949H619.038V530.955C619.038 519.002 628.672 509.383 640.5 509.383H751.978C763.838 509.383 773.472 519.002 773.472 530.955V749.948L707.456 749.949Z" fill="black"/>
</g>
<defs>
<clipPath id="clip0_5_243">
<rect width="1000" height="1000" fill="white"/>
</clipPath>
</defs>
</svg>
