<svg width="1000" height="1000" viewBox="0 0 1000 1000" fill="none" xmlns="http://www.w3.org/2000/svg">
<g clip-path="url(#clip0_8_58)">
<path d="M488.625 8.13901e-05C448.333 0.0417481 408.875 3.58341 370.542 10.3334L374.625 9.75008C273.667 27.5834 255.375 64.9168 255.375 133.75V224.667H493.958V254.958H165.875C165.042 254.958 164.083 254.917 163.125 254.917C90.75 254.917 30.4583 306.542 17 374.958L16.8333 375.917C6.16666 412.25 0.0416565 454 0.0416565 497.167C0.0416565 540.333 6.16666 582.083 17.625 621.542L16.8333 618.375C33.7917 689 74.2917 739.292 143.5 739.292H225.542V630.292C227.417 548.917 293.125 483.5 374.458 482.083H374.583H612.875C678.875 481.542 732.167 427.958 732.167 361.875C732.167 361.5 732.167 361.167 732.167 360.792V360.833V133.667C727.833 68.6251 677.417 16.5834 613.5 9.70842L612.917 9.66675C576.833 3.45841 535.292 -0.083252 492.958 -0.083252C491.458 -0.083252 490 -0.083252 488.5 -0.083252H488.708L488.625 8.13901e-05ZM359.625 73.1251H360.333C385.458 73.1251 405.792 93.5001 405.792 118.583C405.792 143.667 385.417 164.042 360.333 164.042C335.292 164.042 314.958 143.75 314.875 118.708C314.875 118.625 314.875 118.5 314.875 118.375C314.875 93.5418 334.875 73.3751 359.625 73.1251H359.667H359.625Z" fill="black"/>
<path d="M761.958 254.958V360.875C761.042 443.25 695.125 509.958 613.125 512.125H612.917H374.625C308.625 513.5 255.625 567.208 255.375 633.333V860.542C255.375 925.167 311.583 963.208 374.625 981.792C410.25 993.333 451.25 1000 493.792 1000C536.333 1000 577.333 993.333 615.75 981L612.917 981.792C672.917 964.417 732.167 929.375 732.167 860.542V769.542H493.875V739.25H851.458C920.792 739.25 946.625 690.875 970.75 618.333C982.417 582.083 989.125 540.375 989.125 497.083C989.125 453.792 982.417 412.083 969.958 372.958L970.75 375.875C953.625 306.875 920.75 254.958 851.458 254.958H761.958ZM627.958 830.25H628.667C653.792 830.25 674.125 850.625 674.125 875.708C674.125 900.792 653.75 921.167 628.667 921.167C603.542 921.167 583.208 900.792 583.208 875.708C583.208 875.667 583.208 875.583 583.208 875.542C583.208 875.458 583.208 875.333 583.208 875.25C583.208 850.458 603.208 830.375 627.958 830.25Z" fill="black"/>
</g>
<defs>
<clipPath id="clip0_8_58">
<rect width="1000" height="1000" fill="white"/>
</clipPath>
</defs>
</svg>
