<svg width="1000" height="1000" viewBox="0 0 1000 1000" fill="none" xmlns="http://www.w3.org/2000/svg">
<path d="M500 1000C223.844 1000 0 776.156 0 500C0 223.844 223.844 0 500 0C776.156 0 1000 223.844 1000 500C1000 776.156 776.156 1000 500 1000ZM705.938 607.656C705.156 600.781 701.187 585.031 690.875 581C685.719 578.969 681.344 580.594 679.375 584.219C676.187 589.875 678.563 600.781 684.531 610.469C690.469 620.187 696.031 625.031 700 625.031C703.969 625.031 707.531 620.187 705.938 607.656V607.656ZM650.406 635.156C644.062 629.469 636.906 626.656 630.562 626.656C628.149 626.521 625.737 626.96 623.526 627.938C621.315 628.916 619.368 630.404 617.844 632.281C610.719 641.187 613.906 657.344 625.031 667.063C629.781 671.5 636.906 673.937 643.656 673.937C646.736 674.008 649.792 673.391 652.603 672.132C655.414 670.872 657.909 669.002 659.906 666.656C666.281 657.75 662.719 645.656 650.406 635.125V635.156ZM218.75 465.438C218.75 618.938 340.938 743.375 491.688 743.375C531.781 743.375 571.437 735.719 629.781 735.281C681.75 735.281 738.875 753.875 801.562 810.438C807.906 816.094 816.25 808.813 810.687 801.969C749.187 722.375 692.063 707.437 634.938 694.469C565.094 678.75 529.406 639.156 504.406 595.094C499.625 586.219 497.25 587.844 496.844 599.156C496.4 615.797 497.604 632.44 500.437 648.844H492.094C392.531 648.844 311.594 566.438 311.594 465C311.562 363.625 392.5 281.25 492.094 281.25C591.687 281.25 672.625 363.656 672.625 465.062C672.625 472.344 672.219 479.625 671.438 486.5C657.938 484.062 632.156 483.688 613.906 485.281C607.156 486.094 607.969 489.313 613.125 490.125C672.625 501.438 713.5 539 723 607.313C723.406 608.906 725.375 609.312 726.188 608.094C751.386 564.786 764.659 515.574 764.656 465.469C764.687 311.938 642.5 187.5 491.688 187.5C340.938 187.5 218.75 311.937 218.75 465.438Z" fill="black"/>
</svg>
