<svg width="638" height="1007" viewBox="0 0 638 1007" fill="none" xmlns="http://www.w3.org/2000/svg">
<g clip-path="url(#clip0_12_473)">
<path d="M0.199213 1.13233C145.621 1.7303 290.844 -0.0635934 436.266 1.53099C509.973 1.73031 582.086 42.9901 618.342 107.371C646.232 167.367 638.861 235.735 636.072 299.917C633.881 366.889 582.684 421.504 523.718 446.818C457.183 472.331 384.671 463.561 315.347 464.557C417.54 612.455 523.519 757.761 623.123 907.452C665.555 954.891 608.98 1025.45 552.404 1005.52C518.539 982.397 497.622 945.722 473.717 913.432C376.304 772.511 277.099 632.786 179.088 492.462C169.526 472.53 150.004 464.956 130.083 459.973C128.091 624.414 132.075 789.054 128.29 953.496C129.286 1010.3 55.5791 1020.87 16.9327 994.556C0.199216 973.029 0.199208 945.124 0 919.212C0.597625 613.252 0.199213 307.292 0.199213 1.13233ZM129.685 130.692C129.685 198.86 129.685 266.829 129.685 334.798C230.683 334.2 331.682 336.393 432.68 334.599C463.956 334.001 510.969 322.241 507.981 282.177C505.79 232.147 529.097 148.232 460.171 134.479C350.607 124.712 239.847 133.483 129.685 130.692Z" fill="black"/>
</g>
<defs>
<clipPath id="clip0_12_473">
<rect width="638" height="1007" fill="white"/>
</clipPath>
</defs>
</svg>
