<svg width="1000" height="1000" viewBox="0 0 1000 1000" fill="none" xmlns="http://www.w3.org/2000/svg">
<path d="M588.963 499.037C588.963 548.333 549 588.296 499.704 588.296C450.407 588.296 410.444 548.333 410.444 499.037C410.444 449.741 450.407 409.778 499.704 409.778C549 409.778 588.963 449.741 588.963 499.037Z" fill="black"/>
<path d="M499.667 703.482C492.222 703.667 483.444 703.778 474.63 703.778C370.519 703.778 270.111 688.037 175.63 658.815L182.778 660.704C132.741 644.556 89.3704 620.741 51.6297 590.222L52.4075 590.815C23.1852 569.667 3.51856 536.926 0.18523 499.444L0.148193 498.963C0.148193 439.926 64.8519 382.148 173.519 344.445C266.556 313.815 373.63 296.148 484.815 296.148C489.963 296.148 495.111 296.185 500.259 296.259H499.482C503.778 296.185 508.815 296.148 513.889 296.148C623.704 296.148 729.445 313.519 828.556 345.667L821.333 343.63C869.667 359.333 911.63 382 948.482 410.815L947.593 410.148C976.296 430.37 995.667 462.148 998.926 498.556L998.963 499.037C998.963 560.37 926.593 622.444 809.963 661.037C722.444 688.037 621.815 703.593 517.556 703.593C511.259 703.593 505 703.519 498.741 703.407H499.667V703.482ZM499.667 339.037C495.741 338.963 491.074 338.963 486.407 338.963C379.704 338.963 276.926 355.704 180.519 386.704L187.593 384.741C87.6667 419.593 42.8519 467.259 42.8519 499.074C42.8519 532.148 91.0371 584.259 196.667 620.333C279.963 646.148 375.704 661.037 474.926 661.037C483.63 661.037 492.296 660.926 500.926 660.704L499.667 660.741C505.074 660.852 511.444 660.926 517.815 660.926C617.222 660.926 713.148 646.111 803.556 618.593L796.63 620.408C906.259 583.963 956.63 531.852 956.63 498.926C952.852 475.296 939.519 455.37 920.852 442.815L920.556 442.63C888.482 417.667 851.074 397.556 810.556 384.333L807.963 383.593C720.259 355.222 619.333 338.852 514.63 338.852C509.37 338.852 504.148 338.889 498.926 338.963H499.704L499.667 339.037Z" fill="black"/>
<path d="M297.148 943.926C296.556 943.926 295.852 943.963 295.185 943.963C278.407 943.963 262.667 939.555 249.074 931.852L249.556 932.111C198.518 902.481 180.741 817.593 202.148 704.667C227.963 588.815 269.815 486.37 326 393.556L323.444 398.148C378.963 299.815 446.037 215.704 524.37 143.63L525.111 142.963C559.296 111.704 599.296 86.037 643.148 67.8518L645.852 66.8518C660.926 59.5926 678.63 55.3704 697.333 55.3704C715.889 55.3704 733.481 59.5555 749.185 67L748.444 66.7037C801.593 97.2963 819.222 191.148 794.296 311.37C767.63 421.259 726.963 518.037 673.481 606.148L676.074 601.593C622.296 699 557.222 782.407 481.037 854.148L480.518 854.63C445.037 887.111 403.37 913.518 357.518 931.741L354.778 932.704C337.741 939.407 318.037 943.518 297.407 944H297.185L297.148 943.926ZM341.778 408.852L360.259 419.518C309.111 503.963 268.963 601.963 245.222 706.185L243.963 712.852C224.222 816.889 243.259 879.444 270.63 895.296C277.704 899.074 286.074 901.259 294.963 901.259C295.704 901.259 296.481 901.259 297.222 901.222H297.111C332.481 901.222 388.148 878.815 452.518 822.63C525.704 753.481 587.852 673.63 636.667 585.444L639.185 580.444C688 500.593 727 408.111 751.222 309.815L752.63 303.074C775.926 189.815 755.815 120.481 727.222 103.889C718.407 100.407 708.185 98.4074 697.518 98.4074C684.037 98.4074 671.296 101.63 660.037 107.296L660.518 107.074C619.111 124.296 583.556 147.296 552.852 175.444L553.111 175.222C477.518 244.889 413.407 325.481 362.889 414.778L360.333 419.667L341.778 408.852Z" fill="black"/>
<path d="M702.222 944.444C653.852 944.444 592.593 915.296 528.519 860.148C447.963 786.704 379.741 701.556 326.148 607.037L323.481 601.963C270.519 514.963 229 414 204.407 306.593L203.074 299.741C197.074 273.481 193.63 243.37 193.63 212.444C193.63 192.926 195 173.778 197.63 155L197.37 157.148C200.519 120.185 219.889 88.3333 248.185 68.2962L248.556 68.037C301.519 37.2962 391.704 68.9259 483.444 150.555C558.333 221.444 622.259 302.889 673 392.778L675.667 397.889C728.556 482.963 770.37 581.63 795.741 686.704L797.148 693.593C803.185 719.852 806.667 750.037 806.667 781C806.667 802.37 805.037 823.333 801.852 843.815L802.148 841.518C798.333 879.37 778.296 911.926 749.222 932.481L748.815 932.741C735.926 940.111 720.518 944.444 704.111 944.444C703.444 944.444 702.778 944.444 702.111 944.407H702.222V944.444ZM360.444 580.63C414.444 675.852 479.593 757.333 555.667 827.148L556.407 827.815C636.63 896.815 700.259 911.741 727.815 895.741C756.444 879.222 777.407 811.444 755.741 701.926C729.741 594.889 689.556 500.667 636.519 415.222L638.926 419.37C587.852 328.407 526.815 250.407 455.667 182.926L455.222 182.518C368.778 105.704 298.741 88.4444 270.111 104.963C252.593 119.222 241.074 140.222 239.556 163.963V164.222C237.519 178.667 236.37 195.333 236.37 212.296C236.37 240.333 239.556 267.593 245.556 293.815L245.074 291.37C270 400.704 309.778 497.259 362.926 584.852L360.481 580.518L360.444 580.63Z" fill="black"/>
</svg>
