<svg width="1000" height="1000" viewBox="0 0 1000 1000" fill="none" xmlns="http://www.w3.org/2000/svg">
<g clip-path="url(#clip0_12_266)">
<path d="M500 0C367.392 0 240.215 52.6784 146.447 146.447C52.6784 240.215 0 367.392 0 500C0 632.608 52.6784 759.785 146.447 853.553C240.215 947.322 367.392 1000 500 1000C632.608 1000 759.785 947.322 853.553 853.553C947.322 759.785 1000 632.608 1000 500C1000 367.392 947.322 240.215 853.553 146.447C759.785 52.6784 632.608 0 500 0V0ZM708.75 197.667C737.417 197.667 760.833 221.042 760.833 249.708C760.688 263.222 755.296 276.151 745.796 285.762C736.296 295.374 723.432 300.917 709.92 301.22C696.409 301.523 683.309 296.562 673.388 287.386C663.466 278.209 657.5 265.535 656.75 252.042L548.542 229.25L515.208 385.375C591.208 388.292 660.208 411.708 709.958 447.375C722.792 434.5 740.375 426.917 760.25 426.917C800.583 426.917 833.333 459.667 833.333 500C833.333 529.833 815.208 555.542 791.25 567.25C792.439 574.411 793.024 581.658 793 588.917C793 701.167 662.583 791.833 501.167 791.833C339.75 791.833 209.333 701.167 209.333 588.917C209.333 581.292 209.958 573.667 211.125 566.667C198.226 560.943 187.268 551.595 179.583 539.76C171.897 527.925 167.815 514.112 167.833 500C167.833 459.667 200.583 426.917 240.917 426.917C260.208 426.917 278.333 435.083 291.208 447.333C341.5 410.542 411.125 387.75 488.875 385.375L525.75 211.125C526.631 207.77 528.705 204.852 531.583 202.917C534.576 201.174 538.092 200.554 541.5 201.167L662.583 226.875C666.675 218.098 673.201 210.68 681.385 205.502C689.568 200.325 699.066 197.605 708.75 197.667ZM385.417 500C356.708 500 333.333 523.417 333.333 552.083C333.333 580.708 356.708 604.083 385.417 604.083C414.042 604.083 437.417 580.708 437.417 552.042C437.417 523.375 414.042 500 385.375 500H385.417ZM614.583 500C585.958 500 562.583 523.375 562.583 552.083C562.583 580.708 585.958 604.083 614.625 604.083C643.292 604.083 666.667 580.708 666.667 552.042C666.667 523.417 643.25 500 614.583 500ZM386.833 666.25C383.234 666.233 379.773 667.641 377.208 670.167C374.676 672.739 373.257 676.203 373.257 679.813C373.257 683.422 374.676 686.886 377.208 689.458C412.292 724.542 480.708 727.5 500.583 727.5C520.458 727.5 588.292 725.167 623.958 689.458C626.394 686.897 627.851 683.56 628.071 680.032C628.292 676.505 627.264 673.012 625.167 670.167C622.593 667.622 619.119 666.195 615.5 666.195C611.881 666.195 608.407 667.622 605.833 670.167C583.042 692.375 535.667 700.583 501.167 700.583C466.667 700.583 418.708 692.417 396.5 670.167C395.23 668.902 393.721 667.901 392.062 667.221C390.403 666.542 388.626 666.198 386.833 666.208V666.25Z" fill="black"/>
</g>
<defs>
<clipPath id="clip0_12_266">
<rect width="1000" height="1000" fill="white"/>
</clipPath>
</defs>
</svg>
