<svg width="1000" height="1000" viewBox="0 0 1000 1000" fill="none" xmlns="http://www.w3.org/2000/svg">
<path d="M693.042 687.667C729.25 684.542 757.333 652.667 755.5 614.583C753.583 576.5 722.375 545.917 684.333 545.917H681.792C642.5 547.208 611.875 580.25 613.125 619.625C614.375 639.583 622.542 655.833 633.708 667.667C590.042 752.583 524.5 815 425.208 867.458C358.417 902.375 287.875 915.542 219.208 906.167C161.792 898.083 116.875 872.417 89.3749 831.25C48.2083 768.792 44.4583 701.417 78.7499 634C103.792 585.292 141.208 549.708 166.208 532.208C159.958 516 152.458 488.542 148.708 467.958C-36.1251 600.333 -17.3334 781.333 38.8333 866.875C80.6666 929.292 166.208 969.208 259.833 969.208C284.792 969.208 311.042 967.375 336.625 961.125C498.958 929.917 621.917 832.542 692.458 688.958L693.042 687.667ZM915.875 531.583C819.167 417.958 676.792 355.542 514.458 355.542H493.208C482.667 332.458 458.333 318.083 430.833 318.083H428.958C389.667 318.083 359.042 351.833 360.333 391.125C361.583 428.542 393.417 459.792 431.5 459.792H434.583C462.708 458.542 487.042 441.042 497 416.083H520.125C616.333 416.083 707.417 444.167 790.458 499.083C854.083 540.917 899.708 595.833 925.292 661.417C947.708 715.083 946.5 767.542 923.417 811.292C887.833 879.917 827.875 916.167 748.625 916.167C698.667 916.167 650 900.542 625 889.333C610.042 901.75 585.042 922.375 566.917 934.875C621.833 959.792 677.417 974.167 731.083 974.167C852.833 974.167 943.292 905.542 977.667 839.333C1015.08 764.417 1012 638.333 916.458 530.333L915.875 531.583ZM270.417 710.083C271.625 747.542 303.458 778.75 341.583 778.75H344.083C384.042 777.5 414.625 744.458 412.75 705.083C412.75 667.625 380.292 636.458 342.208 636.458H339.667C337.167 636.458 333.458 636.458 330.292 637.667C278.5 550.25 256.625 456.583 264.792 355.542C269.75 279.375 294.75 213.167 339.667 158.25C377.125 111.417 447.667 88.2917 495.75 87.0833C630.583 84.5417 686.792 252.542 691.125 319.333L753.542 338.042C739.167 133.292 611.875 25.875 490.125 25.875C375.875 25.875 270.417 108.917 227.917 230.667C169.875 393 207.958 549.042 279.125 673.917C272.917 682.042 269.167 696.375 270.417 710.083Z" fill="black"/>
</svg>
