<svg width="1000" height="1000" viewBox="0 0 1000 1000" fill="none" xmlns="http://www.w3.org/2000/svg">
<path d="M500 0C468.875 0 403.333 0.541667 387.792 2.20833C373.333 3.875 369.458 8.33333 361.125 18.875C350 33.875 254.458 195 205 284.458C168.875 348.875 112.208 461.125 107.208 473.333C102.208 483.875 100 492.792 100 500C100 507.792 102.208 516.667 107.208 526.667C118.875 552.792 155 623.875 205 715.542C257.208 810.542 351.667 967.792 361.667 981.667C372.208 996.125 379.458 996.667 388.875 997.792C403.333 998.875 466.125 1000 500 1000C536.125 1000 601.667 998.333 611.125 997.792C620 997.208 627.792 996.125 638.333 981.667C647.792 968.333 749.458 798.875 795 715.542C838.875 635.542 887.208 539.458 892.792 526.667C898.875 512.792 900 505.542 900 500C900 495.542 898.875 486.125 892.792 473.333C861.72 409.597 829.114 346.62 795 284.458C742.208 189.458 648.333 32.2083 637.792 18.3333C627.208 4.45833 621.125 3.33333 611.667 2.79167H610C596.125 0.541667 536.125 0 500 0ZM597.792 38.3333C601.667 38.3333 603.875 38.875 604.458 40C587.792 72.7917 545.542 155.542 515.542 231.667C558.223 310.298 598.615 390.152 636.667 471.125C643.333 485.542 646.667 492.792 646.667 500C646.667 507.208 643.333 514.458 636.667 528.875C585.542 638.875 466.125 864.458 416.667 948.333C411.667 956.667 406.125 961.125 402.208 961.125C398.333 961.125 396.125 960.542 395.542 959.458C412.208 926.667 454.458 843.875 484.458 767.792C441.777 689.16 401.385 609.307 363.333 528.333C356.667 513.875 353.333 506.667 353.333 499.458C353.333 492.208 356.667 485 363.875 470.542C413.875 360.542 533.333 135 583.333 51.125C588.333 42.7917 593.875 38.3333 597.792 38.3333V38.3333Z" fill="black"/>
</svg>
