<svg width="1000" height="1000" viewBox="0 0 1000 1000" fill="none" xmlns="http://www.w3.org/2000/svg">
<path d="M242.5 39.9609C238.223 40.1396 234.117 41.6855 230.784 44.3715C227.451 47.0574 225.068 50.7417 223.984 54.8828L40.664 751.523C39.9927 754.065 39.8291 756.714 40.1825 759.32C40.536 761.925 41.3995 764.435 42.7237 766.706C44.0479 768.977 45.8068 770.965 47.8999 772.555C49.993 774.146 52.3791 775.309 54.9218 775.977L751.601 959.336C754.143 960.007 756.793 960.171 759.398 959.817C762.003 959.464 764.513 958.601 766.784 957.276C769.055 955.952 771.043 954.193 772.633 952.1C774.224 950.007 775.387 947.621 776.055 945.078L959.375 248.398C960.046 245.857 960.21 243.207 959.856 240.602C959.503 237.997 958.639 235.487 957.315 233.216C955.991 230.945 954.232 228.957 952.139 227.366C950.046 225.776 947.66 224.613 945.117 223.945L248.437 40.625C246.503 40.1076 244.501 39.8837 242.5 39.9609ZM430 380L620 430L570 620L380 570L430 380Z" fill="black"/>
</svg>
