<svg width="1000" height="1000" viewBox="0 0 1000 1000" fill="none" xmlns="http://www.w3.org/2000/svg">
<path d="M240 60C140.8 60 60 140.8 60 240V760C60 859.2 140.8 940 240 940H760C859.2 940 940 859.2 940 760V240C940 140.8 859.2 60 760 60H240ZM314.414 200H480C553.2 200 604.789 217.189 598.789 298.789C593.389 373.989 544.805 387.812 544.805 387.812C544.805 387.812 560.6 416.802 555 471.602C549.2 529.402 555.616 550.8 561.016 560H462.617C462.617 560 457.005 548.195 459.805 525.195C468.405 456.795 458.581 420 410.781 420H353.398L322.617 560H237.188L314.414 200ZM385.781 260.586L366.211 359.414H455.586C482.586 359.414 511.398 350.386 518.398 315.586C525.598 280.186 500.619 260.586 474.219 260.586H385.781ZM646.602 480L665.586 599.414H780L676.016 676.406L700 800L603.398 725L480 800L538.008 672.188L460 600H580L646.602 480Z" fill="black"/>
</svg>
