<svg width="1000" height="1632" viewBox="0 0 1000 1632" fill="none" xmlns="http://www.w3.org/2000/svg">
<g clip-path="url(#clip0_9_557)">
<path d="M739.613 224.253C742.765 228.954 749.866 234.475 754.553 236.825C767.954 243.922 779.802 246.267 792.341 246.267C812.028 246.267 823.825 237.594 823.825 225.032C823.825 210.032 808.834 207.682 786.046 204.59C756.954 200.641 741.212 187.24 741.212 163.654C741.958 140.037 764.055 121.889 796.286 121.889C818.272 121.889 833.272 126.641 842.719 131.341V162.055C839.567 156.553 832.465 152.604 825.428 149.484C815.922 146.304 806.484 144.733 796.286 144.733C780.544 144.733 771.092 151.032 771.092 158.954C771.092 172.272 783.691 173.871 811.235 179.396C838.77 184.889 855.309 196.719 854.511 221.078C853.714 249.392 831.668 268.304 792.341 268.304C774.991 268.304 753.004 265.134 739.613 258.083V224.253Z" fill="black"/>
<path d="M250.917 167.576C250.917 181.747 239.124 187.24 221.032 187.24H187.995V147.083H221.032C239.124 147.083 250.917 152.604 250.917 167.576ZM271.355 230.525C264.309 217.161 258.811 206.94 248.567 202.189C270.608 197.488 281.604 184.894 281.604 166.005C281.604 147.912 273.705 133.765 258.816 128.244C249.373 124.295 237.516 124.295 219.428 124.295H147.06C154.157 128.995 158.055 143.161 158.055 155.783V235.249C158.055 247.041 154.152 262.009 147.06 265.963H198.931C191.889 262.009 187.995 247.041 187.995 235.249V210.028H209.981C221.032 210.028 227.322 213.977 232.023 222.677C239.866 235.249 245.424 252.562 254.866 265.963H296.544C284.005 257.313 277.654 243.917 271.355 230.525Z" fill="black"/>
<path d="M381.562 269.885C401.198 269.885 417.797 264.355 430.341 253.313C445.336 240.769 455.525 221.848 455.525 195.11C455.525 169.175 445.336 149.484 430.341 136.862C417.797 126.64 401.198 121.12 381.562 121.12C361.866 121.12 345.373 126.64 332.728 136.862C317.839 149.484 307.59 169.175 307.59 195.11C307.59 221.848 317.839 240.769 332.728 253.313C345.373 264.355 362.668 269.885 381.562 269.885ZM351.673 232.898C343.032 225.027 339.083 212.456 339.083 195.11C339.083 178.567 343.032 166.004 351.673 157.355C358.719 150.253 368.968 145.562 381.562 145.562C394.152 145.562 404.401 150.253 411.447 157.355C420.147 166 424.839 178.567 424.839 195.11C424.839 212.461 420.143 225.027 411.447 232.898C404.396 239.995 394.152 244.691 381.562 244.691C368.968 244.691 358.719 239.995 351.673 232.898Z" fill="black"/>
<path d="M586.18 229.719C578.277 239.991 561.788 243.12 543.696 243.12H516.152V155.783C516.152 143.963 520.055 128.991 526.35 124.295H475.226C482.263 128.995 486.267 143.968 486.267 155.783V235.249C486.267 247.866 482.263 261.212 475.226 265.963H581.424L586.18 229.719Z" fill="black"/>
<path d="M714.419 229.719C706.525 239.991 690.032 243.917 671.94 243.12H643.604V155.783C643.604 143.963 647.502 128.991 654.645 124.295H603.47C610.511 128.995 614.511 143.968 614.511 155.783V235.249C614.511 247.866 610.511 262.009 603.47 266.705H708.876L714.419 229.719Z" fill="black"/>
<path d="M999.304 143.161C999.304 65.2672 936.327 2.31787 858.465 2.31787H143.111C65.1935 2.31787 2.21655 65.2672 2.21655 143.161V1490.4C2.21655 1568.37 65.1935 1631.29 143.111 1631.29H858.461C936.323 1631.29 999.304 1568.37 999.304 1490.4V143.161ZM50.2442 143.161C50.2442 92.0045 91.9262 50.2994 143.111 50.2994H858.461C910.392 50.2994 952.069 92.0045 952.069 143.161V1490.4C952.069 1541.58 910.392 1583.26 858.461 1583.26H143.111C91.9308 1583.26 50.2442 1541.58 50.2442 1490.4V143.161Z" fill="black"/>
<path d="M442.134 1141.04V929.336C462.576 928.585 482.267 927.783 501.963 926.18C494.862 909.636 487.765 893.147 479.12 877.405C467.323 878.949 454.788 878.949 442.134 879.756V835.723C414.59 842.014 384.71 846.714 354.023 849.866V1141.04C354.023 1205.51 324.083 1222.86 305.995 1234.65H490.115C472.88 1222.86 442.134 1205.51 442.134 1141.04Z" fill="black"/>
<path d="M870.253 1233.91C855.313 1219.71 836.364 1197.67 826.977 1154.44C809.677 1074.92 773.442 960.815 697.129 875.802C771.899 834.921 817.525 770.345 817.525 690.935C818.272 634.23 789.184 574.456 737.258 539.046C715.221 524.82 689.276 514.599 658.544 508.299C669.585 531.921 676.636 557.11 678.23 582.327C710.465 607.465 727.816 646.051 727.816 692.474C727.816 751.502 697.926 820.723 593.276 856.156C601.862 872.65 610.507 889.995 617.608 906.488C623.157 904.945 628.65 903.387 634.203 901.788C682.981 958.465 722.263 1047.38 734.055 1130C742.76 1189.82 721.516 1219.71 707.378 1233.91H870.253Z" fill="black"/>
<path d="M282.401 784.548V454.055H407.498C453.175 454.829 487.018 464.276 513.76 483.115C549.138 508.299 568.088 548.442 568.088 596.47C568.088 677.484 512.157 780.594 282.401 784.548ZM686.885 1138.65C671.134 1124.5 652.304 1102.45 643.599 1059.18C626.304 979.714 591.664 867.958 522.452 788.438C525.548 786.894 527.949 786.087 531.041 784.544C609.765 744.401 657.793 677.484 657.793 595.645C658.544 538.217 629.406 479.193 577.525 443.779C536.59 416.244 481.521 405.249 411.447 405.249H146.258C164.35 417.041 194.24 434.336 194.24 498.857V1045.04C194.24 1110.3 164.35 1126.85 146.258 1138.65H330.382C313.088 1126.85 282.401 1110.3 282.401 1045.04V833.323C346.926 833.323 407.498 825.428 458.627 812.083C505.111 867.963 539.747 954.525 550.742 1033.99C558.585 1093.87 538.147 1124.51 524 1138.65H686.885V1138.65Z" fill="black"/>
<path d="M442.134 737.364V550.843H541.295C534.258 530.35 521.604 513.829 504.364 501.207H305.991C324.083 513.023 354.018 529.571 354.018 594.866V759.35C387.06 754.654 416.94 747.613 442.134 737.364Z" fill="black"/>
<path d="M622.359 1438.52C622.359 1465.21 638.106 1485.7 665.645 1485.7C685.332 1485.7 703.424 1480.2 711.276 1470.76L706.525 1501.5C699.479 1504.59 686.885 1508.54 666.447 1508.54C622.364 1508.54 591.668 1482.55 591.668 1438.52C591.668 1414.94 601.12 1396.79 615.263 1385C627.857 1373.95 645.147 1367.65 666.442 1367.65C686.885 1367.65 699.475 1371.59 706.521 1375.54V1404.69C697.926 1395.24 685.327 1390.49 665.641 1390.49C638.106 1390.49 622.359 1410.99 622.359 1438.52Z" fill="black"/>
<path d="M246.166 1411.73C246.166 1425.12 235.175 1430.62 217.88 1430.62H186.396V1392.89H217.88C235.175 1392.89 246.166 1397.58 246.166 1411.73ZM265.862 1471.56C259.562 1458.96 254.06 1448.71 244.617 1444.82C265.111 1440.87 275.304 1428.27 276.106 1410.99C276.106 1392.89 268.253 1379.49 254.06 1373.94C245.419 1370.8 233.617 1370.8 216.276 1370.8H147.811C154.157 1374.75 158.06 1388.14 158.06 1400.68V1476.3C158.06 1487.29 154.157 1501.49 147.811 1506.19H196.59C190.346 1501.49 186.396 1487.29 186.396 1476.3V1451.86H206.839C217.88 1451.86 224.124 1456.56 228.931 1464.45C235.972 1476.3 241.475 1492.74 250.115 1505.38L290.3 1506.19C277.654 1496.8 272.207 1484.9 265.862 1471.56Z" fill="black"/>
<path d="M370.567 1509.35C389.406 1509.35 405.148 1503.85 416.94 1493.59C431.083 1481.8 441.387 1463.66 441.387 1438.52C441.387 1413.34 431.088 1395.24 416.94 1382.59C405.148 1373.19 389.406 1367.65 370.567 1367.65C352.419 1367.65 336.677 1373.19 324.885 1382.59C310.737 1395.24 300.489 1413.34 300.489 1438.52C300.489 1463.66 310.737 1481.81 324.885 1493.59C336.682 1503.85 352.424 1509.35 370.567 1509.35ZM342.175 1473.96C334.332 1466.8 330.383 1455.01 330.383 1438.52C330.383 1421.98 334.332 1410.24 342.175 1402.29C349.277 1395.25 358.719 1391.29 371.318 1391.29C383.111 1391.29 392.553 1395.24 399.654 1402.29C407.498 1410.24 411.452 1421.98 411.452 1438.52C411.452 1455.01 407.502 1466.81 399.654 1473.96C392.553 1481 383.111 1485.7 371.318 1485.7C358.719 1485.7 349.277 1481 342.175 1473.96Z" fill="black"/>
<path d="M546.788 1370.8C549.995 1373.19 551.539 1375.54 550.742 1378.64C550.742 1381.84 549.134 1386.54 546.041 1391.29L519.249 1429.82L492.511 1390.49C489.364 1385.79 486.272 1381.1 487.018 1377.1C487.765 1374.75 488.622 1372.4 491.719 1370.8H437.433C446.829 1374.75 451.576 1381.84 458.627 1392.09L502.76 1454.21V1476.3C502.76 1487.29 498.811 1501.49 492.511 1505.39H541.29C534.991 1501.49 531.041 1487.29 531.041 1476.3V1454.21L571.226 1397.58C577.525 1389.74 586.175 1375.54 595.617 1370.79H546.788" fill="black"/>
<path d="M808.083 1484.15H773.442V1447.17H825.428L828.521 1426.68H773.442V1392.9H804.134C821.475 1392.9 835.622 1393.64 842.719 1400.68V1370.8H734.908C741.207 1375.54 745.106 1389.74 745.106 1400.68V1476.31C745.106 1488.05 741.207 1501.5 734.908 1506.19H843.516L848.207 1473.1C840.318 1483.35 825.433 1484.15 808.083 1484.15Z" fill="black"/>
</g>
<defs>
<clipPath id="clip0_9_557">
<rect width="1000" height="1631.34" fill="white"/>
</clipPath>
</defs>
</svg>
