<svg width="1000" height="1000" viewBox="0 0 1000 1000" fill="none" xmlns="http://www.w3.org/2000/svg">
<path d="M576.389 256.945H416.667V501.667H577.5C611.564 503.182 644.85 491.195 670.127 468.31C695.404 445.425 710.631 413.491 712.5 379.445C711.648 362.45 707.446 345.791 700.136 330.426C692.826 315.06 682.551 301.29 669.904 289.907C657.256 278.524 642.483 269.752 626.435 264.095C610.387 258.439 593.379 256.008 576.389 256.945Z" fill="black"/>
<path d="M500 55.5557C412.097 55.5557 326.168 81.6219 253.08 130.458C179.991 179.294 123.026 248.707 89.3868 329.919C55.7479 411.13 46.9464 500.493 64.0954 586.707C81.2444 672.921 123.574 752.113 185.73 814.27C247.887 876.427 327.079 918.756 413.293 935.905C499.507 953.054 588.87 944.252 670.081 910.613C751.293 876.974 820.706 820.009 869.542 746.92C918.378 673.832 944.444 587.903 944.444 500C944.444 382.126 897.619 269.08 814.27 185.73C730.92 102.381 617.874 55.5557 500 55.5557ZM576.389 571.111H416.667V611.111H646.944C654.312 611.111 661.377 614.038 666.586 619.247C671.796 624.456 674.722 631.522 674.722 638.889C674.722 646.256 671.796 653.322 666.586 658.531C661.377 663.74 654.312 666.667 646.944 666.667H416.667V805.556C416.667 814.765 413.008 823.596 406.497 830.108C399.985 836.62 391.153 840.278 381.944 840.278C372.736 840.278 363.904 836.62 357.392 830.108C350.88 823.596 347.222 814.765 347.222 805.556V666.667H312.5C305.133 666.667 298.067 663.74 292.858 658.531C287.649 653.322 284.722 646.256 284.722 638.889C284.722 631.522 287.649 624.456 292.858 619.247C298.067 614.038 305.133 611.111 312.5 611.111H346.111V571.111H312.5C303.291 571.111 294.459 567.453 287.948 560.941C281.436 554.43 277.778 545.598 277.778 536.389C277.778 527.18 281.436 518.348 287.948 511.837C294.459 505.325 303.291 501.667 312.5 501.667H346.111V222.222C346.111 213.013 349.769 204.182 356.281 197.67C362.793 191.158 371.624 187.5 380.833 187.5H575.278C627.793 185.852 678.816 205.11 717.146 241.044C755.476 276.979 777.982 326.655 779.722 379.167C777.98 431.505 755.638 481.037 717.557 516.985C679.477 552.932 628.741 572.385 576.389 571.111Z" fill="black"/>
</svg>
