<svg width="1000" height="1000" viewBox="0 0 1000 1000" fill="none" xmlns="http://www.w3.org/2000/svg">
<path d="M707.881 100.288C739.984 100.288 767.487 102.764 794.17 112.77C874.462 142.879 897.905 172.443 894.569 219.138C893.429 235.107 889.547 260.131 883.173 289.146L632.446 159.984C625.146 134.836 615.21 116.01 593.915 102.458C638.942 102.458 675.779 100.288 707.881 100.288ZM536.931 122.538C560.537 121.899 580.106 127.32 594.457 139.905C651.863 190.242 599.693 333.564 477.777 459.553C355.861 585.543 210.107 646.651 152.702 596.313C95.2963 545.976 148.008 402.654 269.924 276.664C361.361 182.172 466.114 124.456 536.931 122.538ZM896.197 295.659L853.324 862.235L354.585 896.425L488.631 833.472L668.264 691.828L807.738 517.622L887.514 355.355L896.197 295.659ZM881.002 300C868.004 354.26 843.717 422.619 800.683 486.146C768.08 534.273 717.315 592.107 663.38 646.241C601.443 708.408 535.683 765.951 487.546 799.825C402.688 859.54 329.539 895.723 265.583 899.681L379.549 600.655L663.38 646.241L597.714 382.49L881.002 300ZM110.371 613.137C110.371 613.137 113.127 629.54 139.677 642.443L260.156 899.681C258.048 899.752 256.274 899.681 254.186 899.681C187.479 899.681 133.639 883.276 113.627 819.905C93.6152 756.533 110.371 613.137 110.371 613.137Z" fill="black"/>
</svg>
