<svg width="1000" height="1000" viewBox="0 0 1000 1000" fill="none" xmlns="http://www.w3.org/2000/svg">
<path fill-rule="evenodd" clip-rule="evenodd" d="M41.6667 500C41.6667 246.875 246.875 41.6666 500 41.6666C753.125 41.6666 958.333 246.875 958.333 500C958.333 753.125 753.125 958.333 500 958.333C246.875 958.333 41.6667 753.125 41.6667 500ZM333.333 250C322.283 250 311.685 254.39 303.871 262.204C296.057 270.018 291.667 280.616 291.667 291.667C291.667 302.717 296.057 313.315 303.871 321.129C311.685 328.943 322.283 333.333 333.333 333.333H458.333C472.5 333.333 494.667 337.917 512.083 350.5C520 356.167 527.583 363.875 533.125 375H333.208C322.158 375 311.56 379.39 303.746 387.204C295.932 395.018 291.542 405.616 291.542 416.667C291.542 427.717 295.932 438.315 303.746 446.129C311.56 453.943 322.158 458.333 333.208 458.333H533.125C528.266 468.116 521.049 476.535 512.125 482.833C496.267 493.709 477.56 499.679 458.333 500H333.208C324.572 499.996 316.148 502.676 309.101 507.668C302.054 512.661 296.733 519.72 293.873 527.87C291.013 536.019 290.756 544.855 293.138 553.157C295.519 561.458 300.422 568.815 307.167 574.208L515.625 740.875C519.899 744.295 524.804 746.839 530.061 748.364C535.317 749.888 540.823 750.362 546.263 749.758C551.703 749.154 556.971 747.485 561.766 744.846C566.561 742.206 570.789 738.648 574.208 734.375C577.628 730.102 580.173 725.196 581.697 719.94C583.221 714.683 583.695 709.177 583.091 703.737C582.488 698.297 580.819 693.029 578.179 688.234C575.54 683.44 571.982 679.211 567.708 675.792L452 583.333H458.25C485.792 583.333 526.125 575.417 560.75 550.458C591.594 528.374 612.986 495.482 620.667 458.333H666.667C677.717 458.333 688.316 453.943 696.13 446.129C703.944 438.315 708.333 427.717 708.333 416.667C708.333 405.616 703.944 395.018 696.13 387.204C688.316 379.39 677.717 375 666.667 375H620.667C617.546 360.464 612.398 346.438 605.375 333.333H666.667C677.717 333.333 688.316 328.943 696.13 321.129C703.944 313.315 708.333 302.717 708.333 291.667C708.333 280.616 703.944 270.018 696.13 262.204C688.316 254.39 677.717 250 666.667 250H333.333Z" fill="black"/>
</svg>
