<svg width="1000" height="1000" viewBox="0 0 1000 1000" fill="none" xmlns="http://www.w3.org/2000/svg">
<path d="M986.958 487.875L945.5 462.208C945.154 458.177 944.765 454.149 944.333 450.125L979.958 416.917C981.717 415.249 983.024 413.163 983.757 410.854C984.491 408.544 984.626 406.086 984.152 403.709C983.678 401.333 982.608 399.116 981.044 397.265C979.48 395.414 977.472 393.989 975.208 393.125L929.667 376.083C928.541 372.146 927.346 368.229 926.083 364.333L954.5 324.875C955.925 322.903 956.821 320.6 957.104 318.184C957.386 315.767 957.046 313.319 956.114 311.072C955.183 308.825 953.691 306.853 951.782 305.346C949.873 303.838 947.61 302.844 945.208 302.458L897.208 294.667C895.335 291.039 893.404 287.441 891.417 283.875L911.583 239.583C913.667 235.083 913.208 229.833 910.458 225.75C907.708 221.667 903.042 219.25 898.083 219.417L849.333 221.125C846.832 217.958 844.262 214.846 841.625 211.792L852.833 164.333C853.386 161.967 853.326 159.499 852.659 157.162C851.992 154.825 850.74 152.697 849.022 150.978C847.303 149.26 845.175 148.008 842.838 147.341C840.501 146.674 838.033 146.614 835.667 147.167L788.208 158.375C785.11 155.773 781.985 153.203 778.833 150.667L780.542 101.917C780.658 99.4776 780.142 97.0499 779.043 94.8691C777.944 92.6883 776.301 90.8285 774.272 89.4701C772.242 88.1117 769.897 87.3009 767.462 87.1163C765.027 86.9318 762.586 87.3797 760.375 88.4167L716.083 108.625C712.5 106.667 708.917 104.708 705.292 102.833L697.458 54.7917C697.052 52.4019 696.046 50.1542 694.534 48.2589C693.023 46.3636 691.056 44.8826 688.816 43.9544C686.577 43.0262 684.139 42.6811 681.73 42.9514C679.321 43.2217 677.02 44.0986 675.042 45.5L635.542 73.9167C631.646 72.6674 627.729 71.4867 623.792 70.375L606.75 24.8333C605.886 22.5694 604.461 20.5615 602.61 18.9974C600.759 17.4333 598.542 16.3641 596.166 15.8896C593.789 15.4152 591.331 15.551 589.021 16.2844C586.712 17.0178 584.626 18.3248 582.958 20.0833L549.75 55.75C545.729 55.2972 541.7 54.9083 537.667 54.5833L512 13.125C510.723 11.0573 508.939 9.35048 506.817 8.16668C504.695 6.98288 502.305 6.36145 499.875 6.36145C497.445 6.36145 495.055 6.98288 492.933 8.16668C490.811 9.35048 489.027 11.0573 487.75 13.125L462.083 54.5833C458.042 54.9167 454 55.3333 450 55.75L416.75 20.0833C415.093 18.3031 413.009 16.9764 410.694 16.2296C408.38 15.4828 405.913 15.3407 403.528 15.8168C401.143 16.2929 398.92 17.3714 397.07 18.9497C395.22 20.5279 393.804 22.5534 392.958 24.8333L375.917 70.375C371.958 71.5 368.083 72.7083 364.167 73.9167L324.708 45.5C322.73 44.0986 320.429 43.2217 318.02 42.9514C315.611 42.6811 313.173 43.0262 310.934 43.9544C308.694 44.8826 306.727 46.3636 305.215 48.2589C303.704 50.1542 302.698 52.4019 302.292 54.7917L294.458 102.833C290.831 104.707 287.233 106.637 283.667 108.625L239.375 88.4167C237.162 87.4047 234.728 86.9761 232.302 87.1717C229.877 87.3673 227.543 88.1805 225.521 89.534C223.499 90.8874 221.858 92.7359 220.753 94.9035C219.648 97.0711 219.116 99.4854 219.208 101.917L220.917 150.667C217.75 153.167 214.625 155.75 211.542 158.375L164.083 147.167C161.717 146.614 159.248 146.674 156.912 147.341C154.575 148.008 152.447 149.26 150.728 150.978C149.01 152.697 147.758 154.825 147.091 157.162C146.424 159.499 146.364 161.967 146.917 164.333L158.083 211.792C155.5 214.875 152.917 218 150.417 221.125L101.667 219.417C99.2354 219.324 96.821 219.856 94.6534 220.961C92.4858 222.066 90.6373 223.708 89.2839 225.729C87.9304 227.751 87.1172 230.086 86.9216 232.511C86.7261 234.936 87.1546 237.371 88.1666 239.583L108.375 283.875C106.386 287.441 104.455 291.038 102.583 294.667L54.5832 302.458C52.1935 302.865 49.9458 303.871 48.0505 305.382C46.1552 306.894 44.6742 308.861 43.746 311.1C42.8178 313.34 42.4727 315.778 42.743 318.187C43.0133 320.596 43.8902 322.897 45.2916 324.875L73.7083 364.333C72.4583 368.25 71.2916 372.125 70.1249 376.083L24.5832 393.125C22.3193 393.989 20.3114 395.414 18.7473 397.265C17.1832 399.116 16.114 401.333 15.6395 403.709C15.1651 406.086 15.3009 408.544 16.0343 410.854C16.7677 413.163 18.0747 415.249 19.8332 416.917L55.4582 450.125C55.0055 454.146 54.6165 458.175 54.2916 462.208L12.8332 487.875C10.7459 489.136 9.01944 490.915 7.82112 493.039C6.6228 495.164 5.99316 497.561 5.99316 500C5.99316 502.439 6.6228 504.836 7.82112 506.961C9.01944 509.085 10.7459 510.864 12.8332 512.125L54.2916 537.792C54.6249 541.833 55.0416 545.875 55.4582 549.875L19.8332 583.125C18.053 584.782 16.7263 586.866 15.9795 589.181C15.2327 591.495 15.0906 593.962 15.5667 596.347C16.0428 598.732 17.1213 600.955 18.6996 602.805C20.2778 604.655 22.3033 606.071 24.5832 606.917L70.1249 623.958C71.2499 627.917 72.4583 631.833 73.7083 635.708L45.2916 675.167C43.8542 677.138 42.9485 679.446 42.6619 681.869C42.3752 684.291 42.7172 686.747 43.655 688.999C44.5927 691.252 46.0945 693.224 48.0159 694.728C49.9372 696.231 52.2133 697.215 54.6249 697.583L102.625 705.375C104.5 709 106.417 712.583 108.417 716.167L88.2083 760.458C87.1963 762.671 86.7677 765.106 86.9633 767.531C87.1589 769.956 87.9721 772.291 89.3255 774.312C90.679 776.334 92.5275 777.976 94.6951 779.081C96.8626 780.186 99.277 780.717 101.708 780.625L150.417 778.917C152.958 782.083 155.5 785.208 158.125 788.292L146.958 835.792C146.402 838.157 146.46 840.625 147.127 842.962C147.793 845.298 149.046 847.425 150.766 849.141C152.486 850.857 154.617 852.105 156.955 852.766C159.293 853.427 161.761 853.478 164.125 852.917L211.583 841.75C214.667 844.375 217.792 846.917 220.958 849.417L219.25 898.167C219.141 900.602 219.663 903.025 220.765 905.2C221.866 907.375 223.511 909.229 225.539 910.582C227.567 911.935 229.909 912.742 232.341 912.925C234.772 913.108 237.209 912.66 239.417 911.625L283.708 891.458C287.292 893.458 290.875 895.375 294.5 897.25L302.333 945.25C302.734 947.643 303.736 949.896 305.245 951.796C306.754 953.697 308.72 955.183 310.961 956.116C313.201 957.048 315.641 957.397 318.053 957.129C320.465 956.861 322.769 955.985 324.75 954.583L364.208 926.167C368.125 927.417 372 928.625 375.958 929.75L393 975.292C393.837 977.58 395.248 979.614 397.097 981.2C398.947 982.785 401.173 983.869 403.562 984.346C405.951 984.823 408.423 984.677 410.74 983.924C413.056 983.17 415.14 981.833 416.792 980.042L450.042 944.417C454.042 944.875 458.083 945.25 462.125 945.625L487.792 987.083C489.076 989.141 490.863 990.839 492.984 992.015C495.105 993.192 497.491 993.81 499.917 993.81C502.342 993.81 504.728 993.192 506.849 992.015C508.971 990.839 510.757 989.141 512.042 987.083L537.708 945.625C541.75 945.25 545.792 944.875 549.792 944.417L583 980.042C584.667 981.8 586.753 983.107 589.063 983.841C591.373 984.574 593.831 984.71 596.207 984.235C598.584 983.761 600.801 982.692 602.652 981.128C604.503 979.563 605.927 977.556 606.792 975.292L623.833 929.75C627.792 928.625 631.708 927.417 635.583 926.167L675.042 954.583C677.013 956.021 679.321 956.926 681.744 957.213C684.166 957.5 686.622 957.158 688.874 956.22C691.127 955.282 693.099 953.78 694.603 951.859C696.106 949.938 697.09 947.662 697.458 945.25L705.292 897.25C708.917 895.375 712.5 893.417 716.083 891.458L760.375 911.625C762.585 912.623 765.013 913.042 767.43 912.843C769.846 912.644 772.173 911.833 774.19 910.487C776.207 909.141 777.848 907.304 778.959 905.149C780.071 902.993 780.615 900.591 780.542 898.167L778.833 849.417C782 846.917 785.125 844.375 788.167 841.75L835.625 852.917C837.987 853.466 840.451 853.406 842.783 852.741C845.115 852.076 847.24 850.828 848.957 849.115C850.675 847.402 851.927 845.28 852.598 842.949C853.269 840.618 853.336 838.155 852.792 835.792L841.625 788.292C844.208 785.208 846.792 782.083 849.292 778.917L898.042 780.625C900.481 780.741 902.908 780.225 905.089 779.126C907.27 778.028 909.13 776.384 910.488 774.355C911.846 772.326 912.657 769.98 912.842 767.545C913.026 765.11 912.579 762.669 911.542 760.458L891.375 716.167C893.333 712.583 895.292 709 897.167 705.375L945.167 697.583C947.556 697.177 949.804 696.171 951.699 694.659C953.595 693.148 955.076 691.181 956.004 688.941C956.932 686.702 957.277 684.264 957.007 681.855C956.737 679.446 955.86 677.145 954.458 675.167L926.042 635.708L929.625 623.958L975.167 606.917C977.446 606.071 979.472 604.655 981.05 602.805C982.628 600.955 983.707 598.732 984.183 596.347C984.659 593.962 984.517 591.495 983.77 589.181C983.024 586.866 981.697 584.782 979.917 583.125L944.292 549.875C944.708 545.875 945.125 541.833 945.458 537.792L986.917 512.125C989.004 510.864 990.73 509.085 991.929 506.961C993.127 504.836 993.757 502.439 993.757 500C993.757 497.561 993.127 495.164 991.929 493.039C990.73 490.915 989.004 489.136 986.917 487.875H986.958ZM709.5 831.75C705.727 830.943 702.15 829.401 698.974 827.211C695.797 825.022 693.082 822.228 690.985 818.99C686.75 812.449 685.287 804.494 686.917 796.875C687.724 793.102 689.266 789.525 691.455 786.349C693.645 783.172 696.438 780.458 699.677 778.36C706.217 774.125 714.172 772.662 721.792 774.292C725.564 775.101 729.141 776.646 732.316 778.838C735.492 781.03 738.205 783.826 740.3 787.067C742.395 790.307 743.831 793.928 744.527 797.724C745.223 801.519 745.164 805.415 744.354 809.187C743.544 812.96 741.999 816.537 739.807 819.712C737.615 822.888 734.819 825.601 731.579 827.696C728.339 829.791 724.717 831.227 720.922 831.923C717.126 832.619 713.231 832.56 709.458 831.75H709.5ZM695.417 736.5C691.98 735.76 688.431 735.706 684.973 736.341C681.516 736.976 678.218 738.287 675.268 740.199C672.318 742.112 669.775 744.588 667.784 747.485C665.793 750.382 664.394 753.644 663.667 757.083L648.958 825.75C603.542 846.375 553.125 857.833 500 857.833C447.467 857.91 395.555 846.475 347.917 824.333L333.208 755.667C332.481 752.228 331.082 748.968 329.09 746.072C327.099 743.177 324.555 740.704 321.604 738.795C318.654 736.886 315.355 735.579 311.897 734.949C308.44 734.319 304.892 734.379 301.458 735.125L240.833 748.125C229.568 736.525 219.1 724.178 209.5 711.167H504.5C507.833 711.167 510.083 710.583 510.083 707.542V603.167C510.083 600.125 507.875 599.542 504.5 599.542H418.208V533.375H511.542C520.042 533.375 557.083 535.792 568.917 583.125C572.625 597.667 580.75 645.042 586.333 660.208C591.875 677.208 614.458 711.167 638.542 711.167H785.542C787.332 711.141 789.116 710.96 790.875 710.625C780.682 724.472 769.515 737.575 757.458 749.833L695.417 736.5ZM287.375 830.333C283.602 831.143 279.707 831.202 275.911 830.506C272.116 829.811 268.495 828.374 265.254 826.279C262.014 824.184 259.218 821.471 257.026 818.296C254.834 815.12 253.289 811.544 252.479 807.771C251.669 803.998 251.61 800.103 252.306 796.307C253.002 792.512 254.438 788.89 256.533 785.65C258.628 782.41 261.341 779.614 264.517 777.422C267.693 775.23 271.269 773.685 275.042 772.875C282.661 771.239 290.618 772.698 297.162 776.929C303.707 781.16 308.302 787.818 309.937 795.437C311.573 803.057 310.115 811.014 305.883 817.558C301.652 824.103 294.994 828.698 287.375 830.333ZM175.458 376.5C177.168 380.045 178.148 383.897 178.34 387.827C178.533 391.758 177.933 395.687 176.577 399.382C175.221 403.077 173.137 406.461 170.448 409.334C167.759 412.208 164.52 414.512 160.923 416.109C157.326 417.706 153.445 418.564 149.51 418.633C145.576 418.701 141.667 417.978 138.017 416.507C134.367 415.035 131.05 412.845 128.263 410.067C125.475 407.289 123.275 403.979 121.792 400.333C118.916 393.265 118.903 385.356 121.756 378.279C124.609 371.202 130.104 365.513 137.078 362.416C144.052 359.319 151.957 359.057 159.12 361.685C166.284 364.314 172.143 369.627 175.458 376.5ZM141.083 458.042L204.25 429.958C207.463 428.532 210.364 426.486 212.786 423.938C215.208 421.39 217.104 418.389 218.366 415.107C219.628 411.826 220.23 408.328 220.138 404.813C220.047 401.299 219.264 397.837 217.833 394.625L204.833 365.208H256V595.792H152.792C140.064 551.041 136.102 504.253 141.125 458L141.083 458.042ZM418.25 435.667V367.708H540.083C546.375 367.708 584.5 375 584.5 403.5C584.5 427.167 555.25 435.667 531.208 435.667H418.25ZM861 496.833C861 505.833 860.667 514.792 860 523.625H822.958C819.25 523.625 817.75 526.042 817.75 529.708V546.708C817.75 586.75 795.167 595.458 775.375 597.667C756.542 599.792 735.667 589.792 733.083 578.25C721.958 515.75 703.458 502.375 674.208 479.333C710.5 456.292 748.25 422.292 748.25 376.792C748.25 327.667 714.542 296.708 691.583 281.5C659.375 260.25 623.708 256 614.083 256H231.042C283.979 196.807 354.968 156.736 433 142L478.167 189.375C480.586 191.921 483.485 193.965 486.697 195.387C489.908 196.81 493.369 197.584 496.881 197.666C500.392 197.747 503.885 197.134 507.159 195.861C510.433 194.589 513.423 192.682 515.958 190.25L566.458 141.917C617.95 151.574 666.724 172.318 709.397 202.709C752.071 233.101 787.621 272.412 813.583 317.917L779 396.042C776.134 402.531 775.954 409.89 778.499 416.512C781.045 423.133 786.108 428.477 792.583 431.375L859.167 460.958C860.333 472.792 860.917 484.708 860.917 496.833H861ZM478.208 101.75C480.996 99.0907 484.28 97.0066 487.874 95.6166C491.467 94.2267 495.299 93.558 499.151 93.649C503.002 93.7399 506.798 94.5886 510.322 96.1466C513.846 97.7045 517.028 99.9413 519.687 102.729C522.347 105.517 524.431 108.801 525.821 112.395C527.211 115.988 527.879 119.82 527.788 123.672C527.698 127.523 526.849 131.319 525.291 134.843C523.733 138.367 521.496 141.549 518.708 144.208C513.002 149.132 505.621 151.673 498.093 151.307C490.565 150.941 483.466 147.696 478.264 142.242C473.062 136.789 470.155 129.544 470.144 122.007C470.134 114.47 473.021 107.218 478.208 101.75ZM821.417 377.917C827.958 363.083 845.292 356.417 860.083 363C865.401 365.347 869.903 369.218 873.02 374.124C876.136 379.031 877.727 384.751 877.591 390.562C877.455 396.373 875.598 402.013 872.256 406.768C868.913 411.523 864.234 415.18 858.813 417.275C853.391 419.37 847.469 419.81 841.798 418.538C836.126 417.267 830.959 414.341 826.951 410.132C822.943 405.922 820.273 400.618 819.281 394.891C818.288 389.164 819.017 383.271 821.375 377.958L821.417 377.917Z" fill="black"/>
</svg>
