<svg width="1000" height="1000" viewBox="0 0 1000 1000" fill="none" xmlns="http://www.w3.org/2000/svg">
<path d="M825.692 428.367L827.604 540.592H826.646L794.175 428.367H740.688V569.721H776.025L774.117 453.679H775.075L809.933 569.721H861.033V428.367H825.692ZM152.817 428.367L126.075 571.158H164.758L184.338 441.263H185.292L204.396 571.154H242.6L216.333 428.367H152.817ZM368.671 428.367L351.004 537.25H350.046L332.379 428.367H274.117L271.25 571.158H307.067L308.025 442.692H308.5L332.375 571.154H368.671L392.55 442.696H393.508L394.458 571.154H430.275L426.933 428.367H368.671ZM65.9042 530.563C67.3333 533.904 66.8583 538.683 66.3792 541.071C65.425 545.846 62.0833 550.621 52.5292 550.621C43.4583 550.621 38.2042 545.371 38.2042 537.725V523.879H0V534.863C0 566.858 25.3083 576.408 52.0542 576.408C77.8417 576.408 99.3292 567.333 102.675 543.933C104.583 531.517 103.15 523.4 102.675 520.533C95.9875 490.45 41.55 481.854 37.725 465.138C37.25 462.271 37.25 459.408 37.725 457.496C38.6833 452.721 42.025 447.946 50.6208 447.946C59.2167 447.946 63.9958 453.196 63.9958 460.842V469.438H99.8083V459.408C99.8083 428.367 71.6333 423.592 51.575 423.592C26.2667 423.592 5.25417 432.188 1.43333 455.108C0.475 461.317 0 467.05 1.90833 474.213C7.64167 503.821 58.7417 512.417 65.9 530.563H65.9042ZM530.567 530.563C531.996 533.908 531.517 538.204 531.042 541.071C530.083 545.846 526.742 550.621 517.192 550.621C508.117 550.621 502.867 545.371 502.867 537.725V523.879H464.658V534.863C464.658 566.379 489.492 575.933 516.237 575.933C542.025 575.933 563.037 567.338 566.379 543.458C568.292 531.042 566.858 523.4 566.379 520.058C560.65 490.45 506.683 481.375 502.867 465.142C502.388 462.275 502.388 459.408 502.867 457.496C503.821 452.721 507.163 447.946 515.758 447.946C523.875 447.946 529.133 453.196 529.133 460.842V469.438H564.467V459.408C564.467 428.367 536.771 423.592 516.717 423.592C491.404 423.592 470.867 431.708 467.05 455.108C466.092 461.317 466.092 467.05 467.525 474.213C473.258 503.821 523.4 511.938 530.567 530.563ZM650.908 549.667C660.938 549.667 663.8 542.979 664.754 539.158C665.233 537.729 665.233 535.338 665.233 533.908V428.367H701.525V531.042C701.525 533.908 701.525 539.158 701.05 540.592C698.662 567.338 677.65 575.933 651.383 575.933C625.121 575.933 604.108 567.338 601.717 540.592C601.717 539.158 601.242 533.908 601.242 531.042V428.367H637.533V533.908C637.533 535.817 637.533 537.725 638.013 539.158C638.013 542.979 640.879 549.667 650.908 549.667ZM948.9 548.233C959.408 548.233 962.75 541.546 963.704 537.725C964.183 536.296 964.183 533.904 964.183 532.475V511.938H949.379V490.925H1000V529.133C1000 531.996 1000 533.904 999.521 538.683C997.133 564.946 974.688 574.021 949.379 574.021C924.067 574.021 901.625 564.946 899.237 538.683C898.758 533.904 898.758 531.996 898.758 529.129V468.963C898.758 466.571 899.237 461.796 899.237 459.408C902.579 432.663 924.071 424.067 949.379 424.067C974.688 424.067 996.658 432.663 999.521 459.408C1000 463.704 1000 468.958 1000 468.958V473.733H964.183V465.617C964.183 465.617 964.183 462.271 963.704 460.363C963.229 457.021 960.363 449.858 949.379 449.858C938.875 449.858 936.004 456.542 935.054 460.363C934.575 462.271 934.575 464.663 934.575 467.05V532.475C934.575 534.383 934.575 536.292 935.054 537.725C935.054 541.546 938.875 548.233 948.9 548.233Z" fill="black"/>
</svg>
