<svg width="1000" height="1000" viewBox="0 0 1000 1000" fill="none" xmlns="http://www.w3.org/2000/svg">
<path d="M500 1000C223.844 1000 0 776.156 0 500C0 223.844 223.844 0 500 0C776.156 0 1000 223.844 1000 500C1000 776.156 776.156 1000 500 1000ZM708.781 230.25L365.438 425.531L201.812 332.5L184.938 366.031L365.438 469.938L738.312 257.062L708.781 230.25ZM633.719 187.5L365.438 340.875L246.5 273L222.062 302.312L365.438 383.625L673.344 207.625L633.75 187.5H633.719ZM764.469 284.719L365.438 512.688L171.438 402.062L162.156 438.938L365.438 554.594L786.375 314.062L764.469 284.719ZM825.188 392.844L806.625 345.906L365.438 597.344L156.25 479.156V501.781C156.25 547.562 165.406 592.875 183.25 635.062C200.168 675.922 225.12 712.966 256.625 744C288.119 774.561 325.016 799.007 365.438 816.094C408.188 834.531 452.906 843.75 499.594 843.75C545.719 843.75 590.406 834.531 633.719 816.094C674.617 799.433 711.867 774.943 743.375 744C774.523 712.671 799.424 675.701 816.75 635.062L825.188 612.438C837.562 576.688 843.75 539.781 843.75 501.813C843.75 463.781 837.562 427.5 825.188 392.844Z" fill="black"/>
</svg>
