<svg width="1000" height="1000" viewBox="0 0 1000 1000" fill="none" xmlns="http://www.w3.org/2000/svg">
<path d="M505.344 584.375C490.313 591.281 473.844 600.281 440.875 618.375C428.375 625.406 415.313 632.437 403.156 639.062C402.313 638.219 401.438 637.156 400.594 636.281C335.375 566.594 214.75 517.375 219.875 423.781C221.781 389.687 233.5 300.187 451.531 191.5C630.969 103.062 773.75 127.562 798.406 181.906C833.844 259.375 721.875 403.531 536.563 424.437C516.053 428.597 494.871 428.095 474.581 422.967C454.292 417.84 435.414 408.217 419.344 394.812C409.531 384.156 408.063 383.531 404.438 385.656C398.469 388.781 402.313 398.437 404.438 403.969C411.506 416.767 421.069 428.018 432.561 437.057C444.053 446.096 457.24 452.739 471.344 456.594C544.269 472.356 620.303 464.825 688.719 435.062C801.031 391.594 888.719 270.75 863.031 169.437C837.25 66.7187 666.75 32.8437 505.438 90.1562C404.415 124.2 311.079 177.791 230.75 247.875C141.875 331 127.813 403.25 133.563 433.5C154.25 540.906 302.313 610.812 361.688 662.594C358.563 664.312 355.938 665.719 353.594 667.062C323.969 681.781 211.031 740.812 182.875 803.25C150.906 874 188 924.719 212.5 931.531C249.422 940.375 288.183 937.468 323.372 923.215C358.562 908.963 388.421 884.076 408.781 852.031C426.071 825.458 436.688 795.103 439.73 763.547C442.771 731.991 438.147 700.167 426.25 670.781C433.269 665.183 440.755 660.196 448.625 655.875C463.75 646.937 478.156 638.125 490.938 631.312C534.699 610.814 582.457 600.26 630.781 600.406C732.219 612.344 752.25 675.625 748.406 702.281C746.608 711.739 742.805 720.701 737.253 728.566C731.701 736.43 724.529 743.014 716.219 747.875C709.188 752.344 706.844 753.844 707.469 757.031C708.313 761.719 711.719 761.5 717.688 760.656C732.928 755.839 746.355 746.525 756.204 733.937C766.054 721.349 771.865 706.076 772.875 690.125C776 627.625 716.406 559.062 610.906 559.687C579.316 559.742 548.042 565.973 518.844 578.031C514.156 579.969 509.604 582.052 505.188 584.281L505.344 584.375ZM354.563 829.344C320.875 866 274 879.844 253.75 868.125C231.875 855.625 240.531 801.406 281.875 762.625C306.361 740.563 332.827 720.802 360.938 703.594C365.844 700.469 373.094 696.344 381.813 691.094C383.313 690.25 384.156 689.812 384.156 689.812L389.281 686.687C396.655 711.409 397.326 737.647 391.225 762.714C385.125 787.78 372.472 810.775 354.563 829.344Z" fill="black"/>
</svg>
