<svg width="1000" height="1000" viewBox="0 0 1000 1000" fill="none" xmlns="http://www.w3.org/2000/svg">
<g clip-path="url(#clip0_9_578)">
<path d="M498.279 0C222.167 0.958333 -0.949897 225.612 0.00426972 501.733C0.95427 777.854 225.608 1000.95 501.729 1000C777.846 999.05 1000.95 774.404 999.996 498.283C999.046 222.167 774.4 -0.95 498.279 0.00416667V0ZM500.008 88.9292C609.817 88.9292 713.042 131.696 790.679 209.329C868.333 286.971 911.088 390.196 911.088 500C911.088 609.792 868.329 713.021 790.679 790.662C713.042 868.296 609.817 911.054 500.013 911.054C390.2 911.054 286.971 868.296 209.329 790.662C131.679 713.021 88.9209 609.792 88.9209 500C88.9209 390.196 131.679 286.971 209.329 209.329C286.967 131.696 390.204 88.9292 500.008 88.9292ZM504.767 138.662C469.163 138.63 433.747 143.805 399.642 154.025H399.633C396.342 155.021 393.871 156.371 392.133 158.067C390.404 159.754 389.458 161.825 389.313 163.925C389.021 168.129 391.592 172.146 395.271 175.312H395.275C427.658 203.017 471.138 244.504 501.833 295.946C484.625 296.296 471.042 286.775 459.346 275.562H459.338C417.854 236.083 374.688 207.95 340.408 188.696C334.208 185.229 327.467 183.621 320.95 187.362L320.942 187.371C283.138 209.354 257.513 230.158 227.496 264.967C224.683 268.233 223.963 271.683 224.996 274.517C226.033 277.35 228.471 279.371 231.192 280.817C263.308 297.846 313.475 330.129 359.775 371.883C355.708 374.508 350.875 375.683 344.454 374.775C337.05 373.725 327.896 370.267 317.004 364.558H316.996C274.571 342.267 233.8 329.45 202.713 321.446C195.483 319.592 187.442 321.658 183.571 328.375C163.588 363.096 149.829 404.542 143.321 446.583V446.596C141.946 455.554 148.133 463.587 157.013 465.137C193.058 471.446 243.1 483.075 286.688 511.483C330.271 539.892 367.446 584.962 378.079 658.692C378.913 664.6 376.65 670.046 372.517 673.204C368.375 676.371 362.338 677.383 355.033 673.954C333.308 663.775 311.604 653.621 289.904 643.437V643.429H289.896C287.504 642.325 284.713 641.312 281.792 641.312H179.421C171.583 641.312 165.688 645.171 163.254 650.675C160.829 656.179 161.913 663.154 167.013 668.996C191.563 697.267 214.075 727.771 233.325 760.087C235.229 763.296 238.117 764.921 241.846 764.921H286.533C289.763 764.948 292.937 764.082 295.704 762.417C309.746 754.179 323.788 745.967 337.867 737.737H337.875L337.883 737.729C340.042 736.437 342.175 736.454 345.233 736.454H682.088C683.971 736.454 685.596 737.062 686.717 738.046C687.842 739.025 688.517 740.346 688.517 742.133V758.708C688.517 765.792 694.904 771.217 701.892 770.133H701.9C743.658 763.448 782.452 744.395 813.271 715.437C814.589 714.205 815.64 712.714 816.358 711.058C817.077 709.403 817.447 707.617 817.447 705.812C817.447 704.008 817.077 702.222 816.358 700.566C815.64 698.911 814.589 697.42 813.271 696.187C782.456 667.219 743.659 648.161 701.896 641.479H701.892C694.9 640.396 688.517 645.837 688.517 652.917V668.071C688.517 669.875 687.771 671.958 686.592 673.479C685.409 675.004 683.908 675.921 682.313 675.921C679.004 675.921 675.746 676.004 672.513 675.921H672.488C667.388 675.837 664.696 672.921 663.167 668.713C661.638 664.508 661.679 659.083 662.742 655.254C687.583 566.171 693.683 512.021 693.392 472.533C693.083 430.742 692.017 388.825 673.113 333.492C654.988 280.521 638.133 228.058 550.342 148.562C544.158 143 537.642 140.175 529.308 139.571C521.142 138.966 512.956 138.663 504.767 138.662ZM568.425 543.017C594.463 543.017 615.6 564.154 615.6 590.192C615.6 616.175 594.463 637.325 568.425 637.325C542.4 637.325 521.308 616.175 521.308 590.192C521.308 564.158 542.404 543.017 568.425 543.017Z" fill="black"/>
</g>
<defs>
<clipPath id="clip0_9_578">
<rect width="1000" height="1000" fill="white"/>
</clipPath>
</defs>
</svg>
