<svg width="1000" height="1000" viewBox="0 0 1000 1000" fill="none" xmlns="http://www.w3.org/2000/svg">
<path d="M964.637 606.16C971.747 573.643 975.53 539.89 975.53 505.25C975.53 245.527 764.977 34.97 505.243 34.97C477.823 34.97 450.957 37.34 424.817 41.85C382.787 15.37 333.06 0 279.72 0C129.093 0 6.98999 122.117 6.98999 272.72C6.98999 323.067 20.6867 370.187 44.4767 410.67C38.24 441.223 34.9633 472.847 34.9633 505.247C34.9633 764.97 245.513 975.527 505.243 975.527C534.663 975.527 563.44 972.803 591.357 967.637C629.75 988.27 673.65 1000 720.283 1000C870.913 1000 993.01 877.897 993.01 727.28C993.01 683.757 982.767 642.657 964.637 606.16ZM746.44 729.993C724.683 760.78 692.54 785.177 650.893 802.49C609.65 819.633 560.21 828.327 503.933 828.327C436.387 828.327 379.757 816.447 335.557 793C303.96 775.93 277.903 752.813 258.127 724.29C238.15 695.473 228.017 666.88 228.017 639.31C228.017 622.077 234.617 607.137 247.637 594.91C260.52 582.79 277.03 576.65 296.717 576.65C312.877 576.65 326.813 581.503 338.147 591.077C348.97 600.25 358.26 613.823 365.723 631.353C374.057 650.44 383.143 666.557 392.74 679.25C401.963 691.46 415.233 701.723 432.18 709.733C449.23 717.807 472.213 721.897 500.483 721.897C539.36 721.897 571.237 713.597 595.213 697.223C618.63 681.233 630.017 662.04 630.017 638.543C630.017 619.977 624.073 605.387 611.853 593.937C599.053 581.967 582.173 572.65 561.67 566.26C540.297 559.597 511.28 552.41 475.39 544.897C426.77 534.483 385.44 522.13 352.523 508.167C352.397 508.117 352.267 508.063 352.14 508.007C318.417 493.663 291.237 473.773 271.353 448.887C251.157 423.613 240.923 391.907 240.923 354.637C240.923 319.11 251.667 287.087 272.857 259.463C293.887 232.033 324.6 210.717 364.14 196.09C403.17 181.657 449.597 174.343 502.127 174.343C544.127 174.343 581.053 179.193 611.873 188.777C642.87 198.43 669.003 211.467 689.537 227.507C710.22 243.667 725.603 260.957 735.267 278.913C745.027 297.05 749.973 315.1 749.973 332.56C749.973 349.363 743.483 364.633 730.683 377.943C717.807 391.33 701.557 398.127 682.383 398.127C664.967 398.127 651.337 393.877 641.877 385.497C633.073 377.717 623.947 365.587 613.81 348.133C602.083 325.853 587.893 308.29 571.61 295.913C555.81 283.893 529.39 277.79 493.093 277.79C459.383 277.79 431.967 284.557 411.61 297.903C391.993 310.763 382.463 325.51 382.463 342.98C382.463 353.697 385.53 362.65 391.84 370.357C398.523 378.52 407.95 385.69 419.867 391.65C432.227 397.863 444.963 402.8 457.723 406.323C470.793 409.95 492.723 415.323 522.797 422.27C554.483 429.073 583.993 436.567 610.857 444.587C616.253 446.197 621.587 447.827 626.76 449.48C658.077 459.503 685.14 471.867 707.21 486.22C729.737 500.89 747.573 519.73 760.23 542.22C772.92 564.79 779.35 592.66 779.35 625.033C779.343 663.783 768.27 699.09 746.44 729.993Z" fill="black"/>
</svg>
