<svg width="1000" height="1000" viewBox="0 0 1000 1000" fill="none" xmlns="http://www.w3.org/2000/svg">
<path fill-rule="evenodd" clip-rule="evenodd" d="M541.667 416.667C541.667 462.692 578.975 500 625 500C671.025 500 708.333 462.692 708.333 416.667V208.333C708.333 162.31 671.025 125 625 125C578.975 125 541.667 162.31 541.667 208.333V416.667ZM208.333 333.333C162.31 333.333 125 370.643 125 416.667C125 462.692 162.31 500 208.333 500H416.667C462.692 500 500 462.692 500 416.667C500 370.643 462.692 333.333 416.667 333.333H208.333ZM625 541.667C578.975 541.667 541.667 578.975 541.667 625C541.667 671.025 578.975 708.333 625 708.333H833.333C879.358 708.333 916.667 671.025 916.667 625C916.667 578.975 879.358 541.667 833.333 541.667H625ZM416.667 916.667C370.643 916.667 333.333 879.358 333.333 833.333V625C333.333 578.975 370.643 541.667 416.667 541.667C462.692 541.667 500 578.975 500 625V833.333C500 879.358 462.692 916.667 416.667 916.667ZM333.333 208.333C333.333 162.31 370.643 125 416.667 125C462.692 125 500 162.31 500 208.333V291.667H416.667C370.643 291.667 333.333 254.357 333.333 208.333ZM125 625C125 671.025 162.31 708.333 208.333 708.333C254.357 708.333 291.667 671.025 291.667 625V541.667H208.333C162.31 541.667 125 578.975 125 625ZM708.333 833.333C708.333 879.358 671.025 916.667 625 916.667C578.975 916.667 541.667 879.358 541.667 833.333V750H625C671.025 750 708.333 787.308 708.333 833.333ZM916.667 416.667C916.667 370.643 879.358 333.333 833.333 333.333C787.308 333.333 750 370.643 750 416.667V500H833.333C879.358 500 916.667 462.692 916.667 416.667Z" fill="black"/>
</svg>
