<svg width="1000" height="1000" viewBox="0 0 1000 1000" fill="none" xmlns="http://www.w3.org/2000/svg">
<path d="M508.583 33.0417C549.833 33.0417 689.708 44.5417 755.667 192.25C777.708 241.958 772.458 326.375 768.125 394.208L768 396.708C767.5 404.208 767.083 411.083 766.75 417.958C769.875 419.833 775.208 421.708 783.458 421.708C795.958 421.042 810.917 416.708 826.5 409.167C833.375 405.5 840.833 404.833 845.833 404.833C853.417 404.833 860.792 406.042 867.042 408.583C885.792 414.792 897.625 428.542 897.625 443.5C898.25 462.208 881.375 478.458 847.083 492.167C843.375 493.375 838.375 495.292 832.75 497.125C814 502.75 785.292 512.125 777.208 530.875C773.458 540.208 774.667 552.708 782.208 567.042L782.833 567.667C785.333 573.333 846.417 712.458 982.458 734.917C993.083 736.75 1000.58 746.167 999.958 756.125C999.958 759.25 999.333 762.333 998.083 765.5C988.083 789.208 945.042 806.667 867 818.458C864.542 822.25 862 834.083 860.167 842.208C858.958 849.667 857.083 857.208 854.583 865.25C851.417 876.542 843.333 882.125 831.458 882.125H830.208C824.583 882.125 817.167 880.833 807.792 879.042C792.792 875.917 775.917 873.417 754.75 873.417C742.25 873.417 729.792 874.042 716.708 876.5C691.708 880.833 669.917 895.833 644.917 913.333C609.375 938.292 568.833 967 507.667 967C505.167 967 502.708 966.375 500.167 966.375H493.958C432.792 966.375 392.833 938.25 357.333 912.708C332.375 895.208 311.208 880.25 286.208 875.875C273.125 874 260 872.792 247.542 872.792C225.042 872.792 207.625 876.5 194.542 879C185.75 880.792 178.25 882.083 172.042 882.083C156.458 882.083 150.25 872.75 147.75 864.583C145.208 856.583 144 848.375 142.125 840.958C140.208 833.417 137.75 820.375 135.208 817.208C55.2917 807.958 12.2917 790.458 2.33339 766.125C1.04172 763.5 0.166718 759.875 0.0417184 756.75C-0.583282 746.625 6.91672 737.375 17.5417 735.542C153.542 713.042 214.625 573.917 217.167 568.042L217.833 566.833C225.333 552.458 227.167 539.958 222.792 530.625C214.667 512.542 185.958 503.208 167.292 496.917C162.25 495.708 157.292 493.833 152.875 491.958C106.75 473.833 100.5 453.208 103 438.917C106.75 418.958 131.083 405.875 151.667 405.875C157.75 405.875 162.917 407.083 167.625 408.958C185.125 417.042 200.5 421.458 213.625 421.458C223.375 421.458 229.625 418.958 233 417.083L231.083 393.375C227 325.625 221.708 241.25 243.875 191.833C308 44.875 447.458 33.625 488.625 33.625L506.083 33H508.583V33.0417Z" fill="black"/>
</svg>
