<svg width="1000" height="1000" viewBox="0 0 1000 1000" fill="none" xmlns="http://www.w3.org/2000/svg">
<path fill-rule="evenodd" clip-rule="evenodd" d="M977.971 563.13C977.971 561.735 977.353 560.267 976.119 559.566C974.873 558.829 973.483 558.757 972.087 558.757H964.881V575.292H966.899V567.665H970.619L975.34 575.292H977.742L972.746 567.665C975.693 567.582 977.971 566.383 977.971 563.13ZM969.997 566.072H966.894V560.225H971.615C973.67 560.225 975.921 560.536 975.921 563.094C975.927 566.461 972.316 566.072 969.997 566.072ZM883.659 483.19L913.906 450.893C915.66 448.522 916.532 446.862 916.532 445.441C916.532 443.07 914.493 442.12 908.08 442.12H900.448V421.73H983.055V442.12H972.201C959.667 442.12 957.337 444.014 939.848 466.064L891.997 517.739V549.273C891.997 557.34 896.069 560.178 907.733 560.178H925.798V579.852H810.095V560.178H828.161C839.813 560.178 843.897 557.34 843.897 549.273V517.739L787.537 455.392C778.224 444.491 779.511 442.12 753.58 442.12V421.73H858.216V442.12H850.766C843.186 442.12 839.974 443.542 839.974 446.385C839.974 448.761 842.304 450.655 843.762 452.549L872.276 483.626C875.664 487.149 879.799 487.605 883.659 483.19ZM181.604 421.725H206.844V478.619H183.534C181.469 467.247 174.35 462.821 167.86 456.855C156.15 446.094 130.79 437.134 109.461 437.134C81.9325 437.134 58.6996 445.674 58.6996 458.23C58.6996 493.084 216.136 465.348 216.136 531.249C216.136 565.621 182.413 584.822 121.851 584.822C100.885 584.822 69.1591 578.316 50.44 568.376C44.5721 564.988 42.0817 571.582 40.9818 579.847H15.1029V521.054H38.5122C43.6745 535.991 50.7876 539.067 57.3299 544.998C68.6818 555.431 95.7021 563.021 120.481 562.778C157.841 562.409 170.688 554.243 170.688 542.388C170.688 530.538 157.982 527.69 117.041 521.293L82.2801 515.601C43.0519 509.671 14.4907 500.903 14.4907 469.613C14.4907 437.134 50.6216 416.745 107.749 416.745C131.823 416.745 151.963 419.961 171.295 430.888C176.649 434.369 181.671 434.784 181.604 421.725ZM674.195 516.981L674.693 453.747C674.693 445.451 670.376 442.608 658.044 442.608H643.553V422.934H735.748V442.608H723.732C711.389 442.608 707.073 445.456 707.073 453.747V581.051L670.988 580.765L554.129 470.105V550.471C554.129 558.534 558.445 561.61 570.778 561.61H586.82V581.051H491.071V561.61H506.937C519.269 561.61 523.586 558.528 523.586 550.471V453.747C523.586 445.451 519.269 442.608 506.937 442.608H491.071V422.934H573.854L674.195 516.981ZM365.376 415.551C291.9 415.551 245.906 448.035 245.906 500.182C245.906 551.395 291.262 583.629 363.135 583.629C439.474 583.629 483.88 551.867 483.88 497.577C483.885 448.746 435.967 415.551 365.376 415.551ZM363.705 563.011C323.035 563.011 299.657 539.54 299.657 498.999C299.657 459.413 324.052 435.941 365.739 435.941C405.73 435.941 429.108 459.89 429.108 500.664C429.108 540.489 405.387 563.011 363.705 563.011Z" fill="black"/>
</svg>
