<svg width="1000" height="1000" viewBox="0 0 1000 1000" fill="none" xmlns="http://www.w3.org/2000/svg">
<path d="M748.612 0.396484H250.595C112.609 0.396484 0 113.006 0 250.991V749.802C0 886.994 112.609 999.603 250.595 999.603H749.405C887.391 999.603 1000 886.994 1000 749.009V250.991C999.207 113.006 886.598 0.396484 748.612 0.396484ZM197.462 604.679C197.462 606.265 195.876 607.058 195.083 607.058C193.497 607.058 192.704 606.265 192.704 604.679L187.946 568.2L192.704 530.928C192.704 529.342 194.29 528.549 195.083 528.549C196.669 528.549 197.462 529.342 197.462 530.928L203.013 568.2L197.462 604.679ZM220.46 626.883C220.46 628.469 218.874 629.262 218.081 629.262C216.495 629.262 215.702 628.469 215.702 626.883L209.358 568.2L215.702 507.93C215.702 506.344 217.288 505.551 218.081 505.551C219.667 505.551 220.46 506.344 220.46 507.93L227.597 568.2L220.46 626.883ZM245.837 637.193C245.837 638.779 244.251 640.365 242.665 640.365C241.079 640.365 239.492 638.779 239.492 637.193L233.941 568.2L239.492 496.828C239.492 495.242 241.079 493.656 242.665 493.656C244.251 493.656 245.837 495.242 245.837 496.828L252.181 568.2L245.837 637.193ZM271.213 639.572C271.213 641.951 269.627 643.537 267.248 643.537C264.869 643.537 264.076 641.951 263.283 639.572L257.732 568.993L263.283 496.035C263.283 493.656 264.869 492.07 267.248 492.07C269.627 492.07 270.42 493.656 271.213 496.035L277.557 568.993L271.213 639.572ZM296.59 640.365C296.59 642.744 295.004 645.123 292.625 645.123C290.246 645.123 288.66 643.537 288.66 640.365L283.109 568.993L288.66 500.793C288.66 498.414 290.246 496.035 292.625 496.035C295.004 496.035 296.59 497.621 296.59 500.793L302.141 568.993L296.59 640.365ZM325.139 640.365C325.139 643.537 321.174 645.123 318.795 645.123C316.416 645.123 313.243 642.744 313.243 640.365L307.692 568.993L312.45 457.97C312.45 454.798 314.829 453.212 317.209 453.212C319.588 453.212 321.967 455.591 321.967 457.97L329.104 568.993L325.139 640.365ZM348.929 639.572C348.929 642.744 345.757 645.123 343.378 645.123C340.206 645.123 337.827 642.744 337.827 639.572L333.069 568.2L337.827 431.8C337.827 428.628 340.206 426.249 343.378 426.249C346.55 426.249 348.136 428.628 348.929 431.8L354.481 568.2L348.929 639.572ZM372.72 638.779C372.72 641.951 370.341 645.123 367.169 645.123C363.997 645.123 361.618 642.744 361.618 638.779L357.653 568.2L361.618 420.698C361.618 417.526 363.997 414.354 367.169 414.354C370.341 414.354 372.72 416.733 372.72 420.698L376.685 568.2L372.72 638.779ZM399.683 638.779C399.683 642.744 396.511 645.123 393.339 645.123C390.167 645.123 386.994 641.951 386.994 638.779L383.029 568.993L386.994 416.733C386.994 412.768 390.167 410.389 393.339 410.389C396.511 410.389 399.683 413.561 399.683 416.733L404.441 568.2L399.683 638.779ZM426.646 637.986C426.646 641.951 423.473 645.123 419.508 645.123C415.543 645.123 413.164 641.951 412.371 637.986L408.406 568.993L412.371 419.905C412.371 415.94 415.543 412.768 419.508 412.768C423.473 412.768 426.646 415.94 426.646 419.905L430.611 568.2L426.646 637.986ZM452.022 637.193C452.022 641.158 448.85 645.123 444.885 645.123C440.92 645.123 437.748 641.951 437.748 637.193L434.576 568.2L437.748 425.456C437.748 420.698 440.92 417.526 444.885 417.526C448.85 417.526 452.022 420.698 452.022 425.456L455.194 568.2L452.022 637.193ZM483.743 637.193C483.743 641.951 478.192 645.916 474.227 645.916C470.262 645.916 465.504 641.951 465.504 637.193L462.331 568.993L464.711 398.493C464.711 393.735 467.883 389.77 472.641 389.77C476.606 389.77 480.571 393.735 480.571 398.493L486.122 568.993L483.743 637.193ZM507.534 635.607C507.534 640.365 502.776 644.33 498.81 644.33C494.052 644.33 490.087 640.365 490.087 635.607L486.915 568.2L490.087 382.633C490.087 377.875 494.052 373.91 498.81 373.91C503.569 373.91 507.534 377.875 507.534 382.633L511.499 568.2L507.534 635.607ZM734.338 645.123C732.752 645.123 522.601 645.123 522.601 645.123C517.843 644.33 515.464 640.365 515.464 635.607V373.91C515.464 369.151 516.257 366.772 521.808 364.393C536.876 358.049 553.529 354.877 570.182 354.877C640.761 354.877 698.652 412.768 704.996 487.312C713.719 483.347 724.029 480.967 734.338 480.967C776.368 480.967 811.261 518.239 811.261 563.442C811.261 608.644 777.161 645.123 734.338 645.123Z" fill="black"/>
</svg>
