<svg width="1000" height="1000" viewBox="0 0 1000 1000" fill="none" xmlns="http://www.w3.org/2000/svg">
<path d="M500 0C224.906 0 0 224.906 0 500C0 775.094 224.906 1000 500 1000C775.094 1000 1000 775.094 1000 500C1000 224.906 777.5 0 500 0ZM730 722.5C720.031 737.469 702.469 742.5 687.5 732.406C570 660 422.531 645 247.406 684.906C230 690.062 215 677.562 209.938 662.406C205.062 645 217.438 630.031 232.406 625C422.531 582.5 587.562 599.906 717.438 680C735.031 687.5 737.438 707.5 729.969 722.5H730ZM790.031 584.969C777.5 602.562 755.031 610.062 737.438 597.5C602.531 514.969 397.438 490.094 240.062 540.031C220.031 544.906 197.406 535 192.531 514.938C187.5 494.938 197.406 472.469 217.438 467.438C400.062 412.406 624.969 440.062 779.938 534.969C795.062 542.469 802.562 567.5 790.031 584.938V584.969ZM795.094 445C634.938 349.906 367.5 340 215 387.531C189.969 395 165.031 380.031 157.531 357.406C150.062 332.5 165.031 307.438 187.5 299.938C365.094 247.406 657.531 257.469 842.625 367.469C865.094 380 872.531 409.969 860.031 432.438C847.5 450.031 817.531 457.469 795.062 444.969L795.094 445Z" fill="black"/>
</svg>
