<svg width="1000" height="1000" viewBox="0 0 1000 1000" fill="none" xmlns="http://www.w3.org/2000/svg">
<path d="M750 656.25V281.25H687.5V718.75H937.5V656.25H750Z" fill="black"/>
<path d="M562.5 281.25H437.5C420.924 281.25 405.027 287.835 393.306 299.556C381.585 311.277 375 327.174 375 343.75V656.25C375 672.826 381.585 688.723 393.306 700.444C405.027 712.165 420.924 718.75 437.5 718.75H468.75V781.25C468.75 797.826 475.335 813.723 487.056 825.444C498.777 837.165 514.674 843.75 531.25 843.75H593.75V781.25H531.25V718.75H562.5C579.076 718.75 594.973 712.165 606.694 700.444C618.415 688.723 625 672.826 625 656.25V343.75C625 327.174 618.415 311.277 606.694 299.556C594.973 287.835 579.076 281.25 562.5 281.25ZM437.5 656.25V343.75H562.5V656.25H437.5Z" fill="black"/>
<path d="M250 718.75H62.5V656.25H250V531.25H125C108.424 531.25 92.5268 524.665 80.8058 512.944C69.0848 501.223 62.5 485.326 62.5 468.75V343.75C62.5 327.174 69.0848 311.277 80.8058 299.556C92.5268 287.835 108.424 281.25 125 281.25H312.5V343.75H125V468.75H250C266.576 468.75 282.473 475.335 294.194 487.056C305.915 498.777 312.5 514.674 312.5 531.25V656.25C312.5 672.826 305.915 688.723 294.194 700.444C282.473 712.165 266.576 718.75 250 718.75Z" fill="black"/>
</svg>
