<svg width="1000" height="1000" viewBox="0 0 1000 1000" fill="none" xmlns="http://www.w3.org/2000/svg">
<path d="M791.083 911.042V644.208H880V1000H76.8334V644.208H165.583V911.042H791.083ZM254.625 822.125H702.083V733.083H254.625V822.125ZM265.417 619.958L702.083 711.167L720.875 624.917L284.292 533.792L265.417 619.958ZM322.042 409.292L726.417 598.042L764.042 516.792L359.625 328.042L322.042 408.708V409.292ZM435.167 209.917L777.542 495.542L834.167 428.042L491.833 142.5L435.583 209.875L435.167 209.917ZM656.292 0L583.542 53.9167L850.417 412.417L923.167 358.5L656.208 0H656.292Z" fill="black"/>
</svg>
