<svg width="1050" height="1050" viewBox="0 0 1050 1050" fill="none" xmlns="http://www.w3.org/2000/svg">
<path d="M525 1025C801.142 1025 1025 801.142 1025 525C1025 248.858 801.142 25 525 25C248.858 25 25 248.858 25 525C25 801.142 248.858 1025 525 1025Z" stroke="black" stroke-width="50"/>
<path d="M609.643 754.926C591.536 760.961 568.685 763.979 541.091 763.979C513.496 763.979 480.729 760.53 442.788 753.632L445.051 779.501C445.051 783.381 442.572 785.322 437.614 785.322L381.995 786.938C373.803 786.507 369.276 782.303 368.414 774.327L356.126 649.185C356.126 644.873 358.713 642.502 363.887 642.07L427.266 636.25C431.362 636.25 433.626 638.73 434.057 643.687L438.261 696.073C469.304 699.306 500.239 700.923 531.066 700.923C561.894 700.923 583.451 695.75 595.739 685.401C608.028 674.838 614.171 658.993 614.171 637.867C614.171 618.897 606.949 603.375 592.506 591.302C584.96 584.836 575.152 578.475 563.079 572.224L474.478 529.216C443.219 514.342 421.769 502.485 410.128 493.646C398.487 484.592 389.54 475.754 383.288 467.13C370.785 449.669 364.533 429.189 364.533 405.691C364.533 381.977 368.198 361.821 375.528 345.221C382.857 328.407 393.205 313.963 406.571 301.891C434.596 276.237 470.166 263.41 513.282 263.41C543.894 263.41 577.092 268.261 612.878 277.962C640.471 269.554 657.718 265.35 664.616 265.35C671.73 265.35 675.503 268.261 675.934 274.081L669.466 408.278C669.036 413.236 667.311 415.715 664.292 415.715L609.968 413.775C606.949 413.559 605.118 412.805 604.47 411.511C603.824 410.218 603.392 408.169 603.177 405.367L600.59 334.227C574.936 328.191 553.594 325.173 536.564 325.173C493.663 325.173 464.453 337.137 448.932 361.066C443.327 369.689 440.524 379.929 440.524 391.786C440.524 403.428 443.327 413.128 448.932 420.889C454.537 428.65 462.621 435.979 473.184 442.878C483.747 449.56 496.682 456.351 511.988 463.25L565.02 487.502C614.818 510.569 648.017 531.156 664.616 549.265C682.724 568.882 691.779 596.368 691.779 631.723C691.779 695.318 664.401 736.385 609.643 754.926Z" fill="black"/>
</svg>
