<svg width="1000" height="1001" viewBox="0 0 1000 1001" fill="none" xmlns="http://www.w3.org/2000/svg">
<path d="M500.002 30.5586C240.723 30.5586 30.5587 240.739 30.5587 500.002C30.5587 759.274 240.715 969.446 500.002 969.446C759.266 969.446 969.446 759.274 969.446 500.002C969.446 240.739 759.274 30.5586 500.002 30.5586ZM504.427 63.9978C518.729 64.1373 532.537 65.9642 544.63 71.9297C552.552 79.0287 554.805 88.3687 554.398 98.7312C552.159 106.057 548.095 113.14 541.582 118.227C549.512 124.113 557.444 130.211 558.657 140.77C560.904 151.134 557.821 160.473 551.935 168.198C539.552 182.209 519.859 178.583 501.964 179.177L454.707 180.43L454.415 176.13L449.53 68.8405L449.322 66.5027C466.805 66.3892 486.039 63.8185 504.427 63.9978ZM595.227 74.9773L632.632 87.0421C624.288 111.119 613.335 134.873 607.417 160.266C606.823 166.584 610.552 173.096 617.77 174.919C622.764 177.667 629.885 178.183 633.634 174.919C649.696 152.376 657.298 124.323 667.366 99.0235C680.163 103.501 690.16 109.922 702.558 114.595C689.33 142.633 681.192 175.621 662.899 198.673C649.693 210.258 628.77 207.424 612.928 203.558C594.838 197.069 575.115 185.479 569.636 165.151C565.377 151.233 584.676 103.508 595.227 74.9773ZM379.02 82.3665C390.542 82.0711 401.316 85.3764 410.33 94.6818C417.641 102.807 418.65 114.167 418.846 124.531C417.038 131.224 415.368 137.956 410.914 143.442C420.55 155.309 438.482 168.775 450.866 180.555L449.322 181.056L412.751 189.155C399.742 178.69 392.385 171.28 381.065 163.522C376.189 164.117 372.829 166.998 368.249 169.033L380.815 197.88L346.499 216.583C332.417 182.235 315.174 142.096 302.414 109.878C324.629 100.939 353.671 83.0164 379.02 82.3665ZM740.924 151.708C762.179 152.103 781.195 161.126 793.942 176.756C800.862 185.281 805.516 195.842 808.553 206.605C800.021 211.193 793.517 216.401 785.384 220.048C783.372 207.453 776.484 194.613 764.093 188.32C758.199 184.86 749.411 184.286 742.719 186.525C732.347 190.376 723.45 199.289 719.591 209.653C716.131 219.609 719.98 229.363 725.686 237.08C733.6 246.027 744.167 250.708 756.119 251.107C750.749 259.944 747.806 265.52 742.719 272.44C722.79 269.591 704.121 258.623 692.748 240.128C682.994 224.497 682.412 200.524 690.953 184.062C699.884 165.964 717.548 154.395 736.624 151.75C738.059 151.699 739.506 151.682 740.924 151.708ZM237.581 152.084L241.046 154.213C274.69 174.76 309.254 198.947 343.326 218.336L339.82 220.674L312.976 238.333C302.965 233.057 297.118 229.493 289.807 226.143L260.125 251.149C263.177 258.475 267.062 267.404 270.311 275.529L243.802 305.17L241.673 300.494L194.707 188.946L237.581 152.084ZM498.917 208.901C658.574 208.901 788.014 338.367 788.014 498.04C788.014 657.691 658.574 787.096 498.917 787.096C339.26 787.096 209.82 657.691 209.82 498.04C209.82 338.367 339.259 208.901 498.917 208.901ZM832.934 219.797L854.892 248.686C845.555 258.032 833.186 265.965 823.207 274.903C839.065 278.347 856.912 277.725 873.178 280.372C880.497 290.955 884.346 301.103 891.463 313.895L831.765 309.678C818.551 330.398 806.543 351.517 795.153 373.05C788.054 362.686 782.577 349.267 775.657 337.69C783.39 322.035 793.423 305.504 801.164 289.848C787.857 298.091 776.174 308.752 762.632 317.276L741.55 288.93C769.995 264.547 800.635 242.803 830.512 220.674L832.934 219.797ZM159.682 226.811L184.145 241.172C178.744 252.341 171.658 259.976 166.695 270.645L236.162 316.358C232.499 326.714 224.592 336.891 217.877 346.833L146.573 302.331C140.178 310.762 135.568 319.405 129.165 330.176C119.819 323.984 113.211 319.89 105.703 314.521C123.393 285.035 140.183 257.4 159.682 226.811ZM99.0236 338.275C105.107 341.748 112.226 347.041 118.519 352.302C105.91 362.078 96.963 376.296 99.608 392.546C101.04 394.98 102.448 398.615 105.703 399.225C115.856 399.225 119.323 388.282 123.988 381.566C129.483 369.371 140.045 356.173 154.463 354.765C166.854 353.958 177.448 357.202 185.565 366.955C197.955 381.803 195.744 405.738 189.865 423.021C184.354 435.819 175.835 448.826 163.648 457.17L141.689 443.769C153.681 435.456 166.285 421.805 167.906 406.573C167.906 401.086 166.706 393.783 159.974 393.172C145.963 397.242 144.517 414.09 134.968 423.647C127.656 431.17 118.507 436.832 106.914 435.211C96.1424 434.593 86.9901 427.886 80.6967 419.347C68.7043 401.069 74.6391 374.238 81.9491 360.234C86.4337 352.297 91.7122 344.388 99.0236 338.275ZM880.525 347.751C894.641 347.58 908.239 356.255 914.632 368.166C925.183 385.222 929.277 407.789 923.775 428.532L901.232 427.321C904.292 413.701 906.522 396.621 896.973 385.24C894.132 381.788 889.073 379.727 885.409 381.566C873.019 395.382 886.414 415.314 878.688 430.953C875.017 438.076 869.542 446.598 861.614 449.822C848.8 454.707 832.96 452.278 823.207 442.517C804.123 422.604 795.174 391.706 807.385 365.703H831.138C827.076 375.886 824.24 390.322 828.091 402.315C830.111 407.395 832.576 413.892 838.486 415.715C857.985 416.419 844.751 388.488 849.424 375.471C851.255 365.718 856.548 355.569 866.498 351.091C871.067 348.856 875.82 347.809 880.525 347.751ZM130.083 544.922L141.063 577.276C153.368 577.213 165.214 577.657 177.925 577.359L149.621 601.03C152.345 610.986 154.685 622.409 158.137 635.763L130.083 616.267C118.287 621.652 111.203 628.267 99.0236 634.552L108.792 601.03C99.5319 593.452 89.156 586.246 80.4045 578.528C93.1637 578.199 104.347 578.696 116.683 578.445C122.381 567.791 124.901 555.584 130.083 544.922ZM868.711 545.089L879.648 577.401C891.937 577.354 902.927 577.716 916.469 577.568L888.206 601.197C890.954 611.13 893.287 622.602 896.723 635.972L868.711 616.434C856.899 621.805 849.805 628.426 837.609 634.719L847.336 601.197C838.092 593.635 827.735 586.414 819.032 578.695C831.759 578.366 842.941 578.904 855.268 578.653C860.247 567.553 863.819 556.862 868.711 545.089ZM228.564 705.397C234.306 705.289 240.138 705.888 245.931 707.108C261.537 711.382 276.203 723.149 285.549 737.584C287.999 743.47 291.51 748.124 293.021 756.954C286.525 761.041 278.323 764.395 270.895 768.059C269.087 754.643 257.298 741.628 244.094 738.168C233.128 735.444 221.151 740.655 213.034 750.4C206.319 758.306 204.277 769.666 206.313 779.623C211.605 793.415 226.221 803.836 241.046 803.836L245.305 804.003C241.258 813.772 238.632 818.634 234.367 825.962C209.765 825.124 184.987 810.709 175.838 786.929C167.916 767.641 171.378 742.667 183.77 726.604C195.047 712.292 211.339 705.719 228.564 705.397ZM743.345 710.74C749.245 714.616 753.508 719.698 759.167 724.809L760.712 726.312L724.141 760.336L736.331 775.072C746.687 766.947 757.86 758.285 768.936 747.937C774.627 752.711 779.222 758.312 784.591 764.636C773.64 775.077 762.23 782.182 752.696 792.147C756.759 797.242 759.898 802.991 766.097 809.096L805.548 776.575L822.372 793.984C800.023 815.204 775.656 837.062 752.487 854.016L683.605 765.011C705.562 746.711 724.034 730.043 743.345 710.74ZM316.901 770.981C339.318 771.098 359.69 782.03 371.505 799.745C383.896 815.595 384.074 840.193 376.348 858.274C367.73 876.669 351.194 888.36 333.098 892.423C311.182 895.867 290.428 888.787 274.569 873.553C260.558 858.102 252.859 835.925 259.958 814.398C266.259 791.025 289.011 773.955 312.392 771.106C313.902 771.017 315.406 770.973 316.901 770.981ZM670.455 772.317C675.044 777.669 677.711 783.761 681.726 790.227L682.77 792.147L638.143 814.523L645.699 832.057C659.31 826.859 671.073 822.032 684.607 815.191C688.732 821.391 691.563 828.01 694.96 835.564C682.686 842.107 669.973 847.176 656.595 853.056C659.084 859.067 660.327 863.45 664.694 873.094L711.701 852.972L723.014 874.388C695.601 888.478 666.066 902.6 639.061 912.378L597.899 807.635C624.105 796.238 646.518 785.405 670.455 772.317ZM406.865 809.388C433.893 815.228 461.575 820.312 487.937 824.25C486.467 832.529 485.959 842.488 484.598 852.805C467.596 849.956 451.368 846.94 435.086 844.497C434.178 852.638 431.885 857.532 431.203 863.701C445.817 868.053 459.339 869.55 473.451 872.134L469.444 898.267C455.409 896.452 440.28 894.005 425.902 890.92C422.715 902.254 419.841 916.524 415.715 928.868C403.723 926.958 390.998 924.247 379.437 919.684L406.239 811.601L406.865 809.388ZM583.037 811.935C584.166 820.268 586.682 829.919 588.506 840.198C571.41 842.664 555.108 844.69 538.827 847.336C540.47 855.352 539.728 860.727 540.956 866.832C556.204 866.534 569.517 863.829 583.747 861.989L587.921 888.039C574.004 890.591 558.819 892.903 544.212 894.343C544.62 906.123 546.196 920.533 546.007 933.544C534.023 935.375 521.085 936.695 508.686 935.881L501.38 824.751L501.255 822.413C528.769 819.768 556.737 816.208 583.037 811.935Z" fill="black"/>
<path d="M512.931 90.7998C515.764 93.8296 515.178 100.146 513.525 103.606C508.258 109.711 498.504 109.484 490.371 108.467C490.966 101.571 488.422 94.8555 488.931 87.7552C495.843 88.7638 507.85 85.3039 512.931 90.7998Z" fill="black"/>
<path d="M378.821 118.83C380.833 123.91 380.959 132.183 376.629 135.197L356.52 143.73C351.502 134.501 349.366 128.176 345.914 120.677C355.253 117.217 371.292 103.198 378.821 118.83Z" fill="black"/>
<path d="M519.632 137.124C521.244 144.247 518.011 151.558 511.091 152.99C504.595 153.992 499.725 153.389 492.813 153.585C491.795 146.258 491.201 136.513 491.795 130.415C501.135 131.636 515.178 126.555 519.632 137.124Z" fill="black"/>
<path d="M266.042 210.889C260.562 215.978 254.457 220.846 247.764 225.511C242.88 213.926 238.199 203.562 233.126 190.764C244.798 196.972 255.053 204.174 266.042 210.889Z" fill="black"/>
<path d="M496.788 229.274C453.181 229.635 409.943 239.771 375.138 259.666C289.199 303.359 237.409 392.139 230.693 483.972L233.115 488.856C265.42 506.132 286.355 468.134 317.861 472.408C324.961 475.665 316.439 481.135 316.65 485.808C314.192 491.898 305.64 489.05 300.16 490.693C278.611 500.031 256.474 518.121 231.278 508.352C231.278 508.352 231.458 510.236 231.654 512.944H231.612C232.135 519.871 233.115 532.148 233.115 532.148C261.365 541.104 279.633 511.605 306.255 515.073C305.629 520.959 305.238 527.262 301.997 531.521C277.614 532.757 262.351 555.711 236.747 554.106L241.631 573.602C263.767 575.848 278.016 553.078 300.16 555.317L299.576 569.928C280.062 571.753 267.47 590.04 247.768 591.261C250.397 636.364 281.653 584.346 301.371 593.098C302.176 597.966 305.047 602.648 303.208 607.751C287.357 607.532 277.398 621.371 263.59 626.036C266.024 631.719 267.658 639.838 273.943 641.858C285.739 636.982 295.292 626.652 309.303 627.247C307.684 621.956 306.263 614.837 306.881 610.172C324.549 614.839 334.727 601.004 347.125 593.098C349.959 568.082 367.414 549.008 378.185 527.263C379.335 522.465 379.725 517.696 379.646 512.944C379.099 486.511 363.185 460.951 375.764 433.374C379.631 422.605 386.341 408.415 397.723 405.362C376.792 430.364 380.661 468.546 391.628 496.788C393.844 502.534 394.636 507.872 394.425 512.944C393.486 535.236 372.745 552.227 364.784 572.392C354.852 592.517 363.952 615.49 375.138 632.131C359.091 644.53 344.261 660.362 323.33 660.77C317.45 657.898 317.24 649.816 314.187 644.321C301.803 641.871 291.873 650.421 281.917 656.511L293.481 671.123C302.012 667.052 311.789 658.353 321.535 664.443C335.968 681.516 307.481 672.933 303.834 683.313C307.88 688.8 312.78 692.862 317.861 697.34C323.747 695.508 328.43 690.827 335.562 691.829C338.403 695.281 341.646 698.738 342.867 702.809L331.888 709.53C339.816 717.655 349.781 725.388 359.315 729.068C365.014 709.938 380.246 695.13 387.369 676.633C388.794 669.519 389.186 660.968 391.001 654.675C411.517 686.572 368.458 705.478 368.458 735.747C372.943 739.802 378.42 742.024 383.696 744.263C382.881 720.499 402.802 705.267 411.123 685.15C426.371 653.245 391.207 633.331 380.022 607.751C369.455 584.565 384.296 562.8 398.933 545.548C409.125 534.543 411.773 523.77 410.873 512.944C408.845 488.42 388.627 463.795 397.096 436.422C401.982 419.357 409.278 399.019 426.945 391.92C414.14 406.738 407.436 424.018 406.239 443.728C402.678 470.506 424.138 489.125 425.359 512.944C425.586 517.696 425.019 522.645 423.313 527.889C413.357 549.431 390.813 565.649 391.001 591.261C388.356 624.966 432.456 637.801 427.572 672.375C427.172 702.449 392.637 719.069 400.144 751.569L419.055 757.706C408.284 721.136 446.28 700.778 446.483 668.075C448.307 640.429 418.646 626.021 411.123 602.241C403.21 578.663 420.469 559.784 433.667 541.875C440.157 531.77 441.679 522.243 440.638 512.944C437.992 489.9 419.39 468.325 420.266 443.143C419.852 419.981 429.998 397.214 450.115 386.451C444.042 395.17 437.127 403.499 433.667 413.252C421.064 447.403 442.214 476.672 452.578 505.93C453.376 508.35 453.935 510.674 454.248 512.944C458.146 540.059 430.369 557.368 425.109 582.119C417.994 612.192 450.322 626 457.421 651.001C472.669 691.822 423.3 715.61 434.877 756.453C434.674 768.446 448.696 763.788 456.21 766.222C437.926 732.502 467.408 704.659 476.332 675.423C486.297 644.113 456.46 626.427 444.062 602.241C431.037 575.018 460.685 558.146 467.189 535.195C472.66 519.54 486.719 533.987 495.87 532.148C508.268 534.411 519.02 522.185 529.392 530.937C534.457 551.665 558.42 564.46 558.615 587.003C557.802 621.929 507.236 640.222 523.297 678.429C536.503 705.059 559.033 735.523 544.004 766.222L562.873 761.964C575.475 730.458 552.134 706.259 540.956 680.85C530.805 651.81 556.214 630.075 571.431 607.751C585.882 580.715 562.72 558.531 549.514 537.616C544.959 529.007 544.027 520.834 545.131 512.944C547.457 496.217 558.905 480.669 564.126 465.06C575.303 438.455 568.996 405.358 548.262 385.24L548.888 384.614C559.252 390.719 568.595 401.483 573.268 412.042C591.052 447.805 565.618 479.481 559.325 512.944L558.657 516.91C558.054 540.502 577.365 551.674 586.711 570.555C602.342 601.028 574.727 622.573 559.283 645.532C534.274 688.404 594.022 713.59 581.826 756.453L600.111 750.358C604.776 727.377 587.493 708.726 576.316 690.034C560.887 658.733 588.519 634.563 604.37 610.799C618.389 581.132 594.016 556.129 579.989 533.358C575.505 526.807 574.087 519.895 574.479 512.944H574.521C575.257 499.637 582.591 486.148 587.921 474.829C598.49 446.369 591.165 411.859 572.684 390.709C585.082 395.798 594.196 409.631 598.275 421.811C612.905 452.087 595.018 482.362 589.132 510.815L589.09 512.944C588.865 540.231 614.717 555.311 622.029 579.655C629.152 604.861 609.056 622.331 597.064 640.648C561.096 678.048 617.178 706.083 616.56 743.053C621.851 740.822 628.745 739.77 631.797 734.495C629.152 713.987 611.689 699.542 604.37 680.85C603.97 671.918 601.93 660.928 608.043 654.048L609.254 655.259C607.023 685.114 633.042 703.211 640.94 729.026C650.106 723.509 659.634 718.281 667.157 710.156C664.324 707.3 660.063 705.078 656.219 703.435C654.153 698.965 660.057 694.689 662.899 690.619L679.931 696.714C685.012 692.033 690.541 688.207 693.374 682.102C687.269 677.829 680.563 674.749 673.252 673.544C673.018 668.879 675.66 665.229 678.721 661.98C689.109 661.582 697.236 666.442 705.564 670.497C710.018 666.45 714.939 661.179 716.543 655.301L694.585 644.321C679.548 634.771 683.611 655.479 676.299 660.143C655.784 659.33 641.161 644.895 625.702 632.09C627.534 622.76 634.85 615.664 637.308 606.499C646.247 576.645 622.467 554.114 609.254 530.311C605.942 524.488 604.707 518.712 604.745 512.944C604.855 496.765 614.763 480.639 615.349 463.85C620.422 442.112 610.251 421.215 601.907 403.525C607.612 406.986 613.734 411.625 617.186 417.511C628.559 439.866 631.808 470.984 621.444 494.951C618.893 501.37 618.034 507.348 618.355 512.944C620.022 541.014 651.567 560.671 651.919 590.635C664.092 599.793 675.107 615.056 691.537 610.172C692.766 616.059 689.497 622.321 689.7 627.831C704.33 627.017 714.099 638.015 726.897 641.858C729.941 636.575 735.228 631.286 734.829 625.368C720.41 621.11 710.047 606.914 694 606.499L697.006 592.472C713.889 592.064 726.276 606.313 742.134 610.172C747.622 606.086 749.437 598.588 751.277 591.887C731.778 588.843 717.757 572.355 698.258 569.302C698.65 564.457 697.238 558.784 699.469 554.691C717.958 554.691 730.15 569.548 747.019 573.602C763.269 581.321 757.967 562.017 761.63 554.691C735.815 555.725 720.204 531.758 695.211 530.937L692.163 515.658C719.177 511.212 737.461 540.688 765.304 532.774C767.989 525.728 767.344 519.817 767.141 512.944L767.099 508.352C735.608 520.766 714.898 489.271 684.816 489.482C680.934 485.012 679.926 479.536 678.095 474.245C712.035 463.294 734.396 512.208 767.725 487.019C765.103 445.761 756.325 407.001 737.25 372.466C717.313 333.038 680.568 294.206 642.151 270.645C602.593 242.641 549.417 228.838 496.788 229.274ZM498.917 246.265C505.623 255.406 507.854 267.383 513.528 277.325L546.467 279.161L545.841 282.209L521.46 305.378C525.711 315.75 530.003 326.139 534.277 336.48C552.766 325.733 570.457 312.287 592.806 310.847C590.771 322.651 581.832 335.068 583.037 346.833C596.861 342.974 609.455 334.429 624.492 335.228C615.13 352.511 601.511 369.81 600.696 391.335C580.173 383.633 559.063 374.277 536.113 370.629C487.145 362.285 439.97 373.023 399.518 392.546C396.074 372.023 386.122 354.17 373.927 337.106C381.238 334.664 390.184 338.679 397.723 340.738C404.024 342.547 409.3 346.848 416.008 348.086C417.205 335.89 410.101 323.863 405.028 312.684C408.48 310.039 413.985 312.065 417.845 313.31C433.883 319.393 448.3 328.931 462.931 337.691C470.446 328.931 473.279 316.337 476.332 304.752L451.367 282.209V279.788L484.264 277.951C489.744 267.595 493.43 256.629 498.917 246.265ZM286.133 356.56C288.022 356.679 290.123 358.265 291.644 359.023C307.307 371.219 314.819 388.076 316.65 406.573C336.352 399.042 363.146 386.029 384.28 399.852C379.795 406.145 371.108 409.619 364.784 415.089C354.436 425.249 341.824 437.651 334.309 450.449C308.908 445.36 288.594 460.203 267.264 468.734C259.139 470.346 248.372 471.165 241.673 465.686C261.79 432.552 290.186 402.074 283.086 358.397C283.925 356.947 285 356.489 286.133 356.56ZM714.122 357.186C716.753 357.586 718.577 360.456 717.754 363.281C709.848 404.728 738.273 433.992 757.372 465.686C735.439 480.324 714.67 457.766 693.958 452.286C684.815 450.868 674.08 449.651 665.32 451.075C652.749 431.584 635.872 413.281 615.349 402.315C616.554 395.622 625.903 395.196 632.424 394.383C650.505 392.574 666.343 400.058 681.184 407.784C684.025 401.091 685.217 393.551 687.237 386.451C692.137 374.459 701.73 362.251 714.122 357.186ZM496.704 379.103C497.815 379.081 498.929 379.093 500.044 379.103C505.992 379.16 512 379.647 517.787 380.356C529.584 383.4 542.587 388.503 548.262 401.104C548.888 404.556 552.338 407.598 550.099 411.457C538.106 407.786 524.495 409.832 512.902 414.505C502.53 422.222 504.161 438.076 506.807 449.238L509.896 451.701C514.969 450.472 515.17 443.957 519.623 442.517C527.154 444.357 537.523 447.01 544.63 442.517C550.923 442.728 550.714 451.474 551.309 455.959C546.848 479.529 536.919 505.114 512.944 516.284C502.98 521.168 490.139 517.891 480.59 514.447C457.029 500.428 443.838 472.633 446.483 447.443C448.314 443.584 451.149 440.497 455.626 443.143C465.152 449.64 475.514 438.089 484.264 446.191C494.823 441.518 488.522 428.524 488.522 418.763C479.99 407.781 465.376 409.383 452.578 410.205C446.879 406.737 453.015 401.298 454.415 397.43C464.135 383.72 480.049 379.443 496.704 379.103ZM458.047 420.475C465.961 420.184 473.752 423.169 477.543 429.116V431.579C470.639 430.961 459.472 424.055 453.162 432.79C449.108 434.605 448.498 429.908 448.904 427.279C448.091 424.235 449.933 421.814 452.578 421.226C454.366 420.806 456.221 420.542 458.047 420.475ZM536.03 421.143C541.696 421.026 547.619 421.459 550.099 426.069C549.91 428.527 550.527 431.366 547.677 432.79C539.952 429.745 529.186 425.465 521.46 431.579C516.982 422.022 529.392 424.06 533.65 421.226C534.439 421.198 535.221 421.159 536.03 421.143ZM500.044 460.969C495.702 460.967 491.194 462.238 487.938 464.476C488.337 466.104 486.933 468.539 489.148 469.36C495.653 467.951 507.425 472.82 511.065 465.102C508.529 462.261 504.387 460.971 500.044 460.969ZM476.958 480.924L477.543 484.598C485.479 489.881 487.927 498.847 498.917 498.04C508.662 498.62 515.981 489.488 520.834 482.177C507.645 480.352 491.596 483.171 476.958 480.924Z" fill="black"/>
<path d="M345.907 814.401C352.787 830.448 344.875 846.29 333.696 857.664C326.597 863.355 317.29 866.932 307.952 863.48C302.074 860.631 294.801 855.434 293.173 849.125C288.695 832.875 296.124 817.643 307.489 806.464C314.401 800.765 324.358 797.526 333.077 801.588C338.369 803.199 344.263 809.109 345.907 814.401Z" fill="black"/>
</svg>
