<svg width="1000" height="1000" viewBox="0 0 1000 1000" fill="none" xmlns="http://www.w3.org/2000/svg">
<g clip-path="url(#clip0_12_311)">
<path d="M499.188 0C236.656 0 21.3125 202.469 0.96875 459.812L268.875 570.656C291.656 555.188 319 546.094 348.625 546.094C351.219 546.094 353.844 546.25 356.438 546.25L475.594 373.719V371.281C475.594 267.281 560.062 182.812 664.062 182.812C768.062 182.812 852.688 267.438 852.688 371.438C852.688 475.438 768.062 559.906 664.062 559.906H659.844L489.906 681.156C489.906 683.438 490.062 685.562 490.062 687.844C490.062 765.969 426.906 829.281 348.781 829.281C280.75 829.281 223.125 780.438 209.938 715.688L18.2188 636.25C77.625 846.219 270.188 1000.03 499.188 1000.03C775.219 1000.03 999.031 776.25 999.031 500.031C999.031 223.812 775.25 0.03125 499.188 0.03125V0ZM314.125 758.781L252.75 733.375C263.656 756 282.531 774.875 307.594 785.469C361.625 807.938 423.969 782.219 446.438 728.188C457.344 701.812 457.344 673.188 446.594 646.969C435.844 620.594 415.344 600.25 389.125 589.344C363.25 578.438 335.406 578.938 311 588.031L374.312 614.25C414.188 631 433.062 676.75 416.469 716.625C399.875 756.5 353.969 775.375 314.094 758.781H314.125ZM789.719 371.094C789.719 301.906 733.406 245.438 664.219 245.438C594.719 245.438 538.562 301.906 538.562 371.094C538.562 440.438 594.719 496.75 664.219 496.75C733.406 496.75 789.719 440.438 789.719 371.094ZM570.156 370.938C570.156 318.688 612.312 276.531 664.406 276.531C716.5 276.531 758.969 318.688 758.969 370.938C758.969 423.031 716.5 465.344 664.406 465.344C612.312 465.344 570.156 423.031 570.156 370.938Z" fill="black"/>
</g>
<defs>
<clipPath id="clip0_12_311">
<rect width="1000" height="1000" fill="white"/>
</clipPath>
</defs>
</svg>
