<svg width="1000" height="1000" viewBox="0 0 1000 1000" fill="none" xmlns="http://www.w3.org/2000/svg">
<path d="M500 207.625C625.167 207.625 759.333 233.125 866.083 300.917C935.458 345.25 1000 412.5 1000 500.083C1000 602.417 912.625 676.833 828.917 720.375C729.292 771.958 611.583 792.375 500 792.375C374.875 792.375 240.958 767.167 134.167 699.125C64.8333 654.75 0 587.542 0 500.125C0 397.333 87.1667 323.208 171.083 279.583C271 228.083 388.458 207.625 500 207.625ZM498.958 238.708C382.583 238.708 257.208 260.5 156.25 321.333C92.75 359.333 30 419.125 30 498.542C30 591.833 115 657.125 191 694.625C285.083 740.542 395.042 758.375 498.958 758.375C615.542 758.375 741 736.583 841.958 675.75C905.167 637.5 968.167 578 968.167 498.542C968.167 405.083 883.375 339.667 807.167 302.5C713.083 256.5 603.083 238.75 498.958 238.75V238.708ZM59.7917 433.958L251.333 401.292L309 276.167L366.417 401.25L557.917 433.917L366.417 466.917L309 592.333L251.333 466.917L59.7917 433.958ZM480.875 529.333L565.375 514.5L590.583 457.875L615.833 514.5L700.333 529.333L615.833 543.917L590.583 600.583L565.375 543.917L480.875 529.333ZM655.708 378.458L740.208 363.875L765.417 307L790.667 363.833L875.167 378.417L790.667 393.292L765.417 449.958L740.167 393.292L655.708 378.458ZM565.417 646.25L649.583 631.667L674.875 574.792L700.375 631.667L784.833 646.25L700.375 661.125L674.875 717.792L649.625 661.125L565.417 646.25ZM305.833 666.708L390.333 652.125L415.833 595.208L441.042 652.125L525.542 666.708L441.042 681.583L415.833 738.208L390.333 681.583L305.833 666.708ZM730.667 527L814.917 512.125L840.125 455.5L865.625 512.125L950.125 527L865.625 541.583L840.125 598.125L814.875 541.583L730.667 527Z" fill="black"/>
</svg>
