<svg width="1000" height="1000" viewBox="0 0 1000 1000" fill="none" xmlns="http://www.w3.org/2000/svg">
<g clip-path="url(#clip0_15_20)">
<path d="M125.125 984.042V747.084C125.417 734.667 133.208 724.125 144.167 719.834L144.375 719.75L454.917 621.375L144.333 522.792C136.792 519.917 130.875 514.25 127.75 507.084L127.667 506.875C126.083 504.209 125.125 501.042 125.125 497.625C125.125 497.417 125.125 497.209 125.125 497.042V497.084V258.459C125.125 258.334 125.125 258.167 125.125 258.042C125.125 254.584 126.083 251.334 127.792 248.584L127.75 248.667C130.958 241.292 136.875 235.625 144.208 232.875L144.417 232.792L875.583 0.958659C877.083 0.375326 878.833 0.0419922 880.625 0.0419922C888.542 0.0419922 894.917 6.45866 894.917 14.3337C894.917 14.9587 894.875 15.542 894.792 16.167V16.0837V253C894.458 265.417 886.667 275.917 875.75 280.25L875.542 280.334L568.25 377.75L875.667 475.209C886.833 479.584 894.625 490.125 894.917 502.542V502.584V739.542V739.667C894.917 741.167 894.75 742.667 894.458 744.084L894.5 743.959C892.708 754.709 885.458 763.417 875.75 767.209L875.542 767.292L144.333 999.125C142.75 999.667 140.917 1000 139 1000.04C131.25 999.834 125.042 993.459 125.042 985.667C125.042 985.084 125.083 984.5 125.167 983.917V984L125.125 984.042Z" fill="black"/>
</g>
<defs>
<clipPath id="clip0_15_20">
<rect width="1000" height="1000" fill="white"/>
</clipPath>
</defs>
</svg>
