<svg width="1000" height="814" viewBox="0 0 1000 814" fill="none" xmlns="http://www.w3.org/2000/svg">
<g clip-path="url(#clip0_8_266)">
<path d="M528.707 343.218H470.032V386.12H528.707V343.218ZM557.098 534.7L528.707 506.309V425.868H470.032V468.77H490.852V535.016H339.432V468.77H367.823V343.218H339.432V276.972H593.06L635.331 319.874V373.502L597.476 401.262L635.331 429.653V477.918H659.306V534.7H557.098ZM635.962 66.2461V200.946L579.18 257.729H424.606L367.823 200.946V66.2461H339.432V0H495.268V66.2461H470.662V191.798H557.413V66.2461H536.278V0H659.937V66.2461H635.647H635.962ZM897.476 66.2461H810.726V110.41H897.792V66.2461H897.476ZM958.991 155.521H810.726V191.167H838.17V257.413H679.811V191.167H708.202V66.2461H679.811V0H954.259L1000 44.164V114.827L958.991 155.205V155.521ZM941.956 534.7H747.003L679.811 468.454V342.902L747.003 276.656H900.631L919.558 300.946L938.486 276.972H1000V385.489H919.558V342.902H784.543V469.085H919.558V425.868H1000V477.918L941.956 534.7ZM631.546 812.934H339.432V746.688H367.823V621.451H339.432V555.205H498.423V621.451H470.032V747.003H579.811V663.722H659.937V782.334L631.546 812.934ZM971.609 812.934H679.495V746.688H707.255V621.451H679.495V555.205H837.855V621.451H809.464V747.003H919.874V663.722H1000V782.334L971.609 812.934ZM270.032 257.729H91.4827L70.347 235.016L51.4196 257.729H0V178.864H71.9243V200.946H206.625V164.038H46.3722L0 120.82V57.7287L53.6278 0H213.88L235.016 22.7129L253.943 0H305.363V78.8644H232.808V56.7823H111.672V94.0063H268.139L320.505 143.533V203.47L270.032 257.729ZM291.483 534.7H0V468.454H28.3912V343.849H0V277.603H291.483L319.874 309.148V397.476L239.748 398.107V343.849H130.599V381.703H177.918V429.653H130.599V468.77H239.748V415.142H319.874V503.47L291.483 535.016V534.7ZM291.483 812.618H0V746.372H28.3912V621.451H0V555.205H291.483L319.874 586.751V675.079H239.748V621.451H130.599V660.252H177.918V707.571H130.599V747.634H239.748V694.006H319.874V782.334L291.483 813.88" fill="#100F0D"/>
</g>
<defs>
<clipPath id="clip0_8_266">
<rect width="1000" height="813.88" fill="white"/>
</clipPath>
</defs>
</svg>
