<svg width="1000" height="1000" viewBox="0 0 1000 1000" fill="none" xmlns="http://www.w3.org/2000/svg">
<path d="M673.579 434.032H710.988V441.273C733.5 432.085 755.371 427.684 773.095 447.621C783.191 443.354 792.38 437.779 802.342 435.459C831.335 428.59 851.513 446.128 847.899 475.694C844.285 505.261 838.564 534.708 833.789 564.341H795.874C797.941 551.138 799.875 538.335 802.089 525.519C804.409 511.289 806.876 497.046 809.21 482.843C809.191 482.622 809.233 482.401 809.33 482.203C810.757 471.454 807.13 463.305 799.888 461.238C791.993 459.037 782.164 463.438 778.67 473.134C775.176 482.829 773.869 493.138 772.002 503.287C768.761 522.318 765.92 541.589 762.546 560.634C762.218 561.578 761.673 562.431 760.955 563.126C760.237 563.821 759.366 564.338 758.412 564.635C747.276 565.021 736.02 564.755 724.111 564.755C726.445 550.005 728.779 535.641 731.099 521.278C733.3 507.435 735.767 493.712 737.767 479.935C738.928 472.427 735.567 465.052 729.872 462.211C724.178 459.371 716.803 461.171 711.108 466.732C703.866 473.854 703.48 483.296 701.919 492.352C697.918 516.357 694.157 540.363 690.143 564.568H652.361C659.483 520.865 666.471 477.775 673.579 434.032ZM332.475 551.272C328.475 576.117 324.58 599.803 320.566 623.875H282.651C293 560.46 303.229 497.446 313.578 434.165H351.493C351.106 437.392 350.586 440.366 350.333 442.954C358.095 439.98 365.603 435.845 373.618 434.165C400.798 428.337 423.309 442.567 430.964 469.36C441.954 507.782 414.761 553.726 375.565 562.461C359.775 565.768 345.545 562.528 332.475 551.272ZM392.769 495.366C392.903 480.696 387.341 471.04 378.099 467.546C368.857 464.052 358.175 467.933 350.28 477.508C346.602 481.864 343.845 486.92 342.176 492.371C340.508 497.821 339.961 503.554 340.571 509.222C341.478 518.798 345.492 526.813 355.241 530.173C364.576 533.414 372.578 529.92 379.446 523.585C387.415 516.289 392.199 506.155 392.769 495.366ZM29.9136 532.374C38.5822 525.132 46.9974 518.144 55.4127 511.036C59.1602 515.317 62.4009 519.704 66.2818 523.332C75.6173 532.267 86.5931 532.387 98.2891 528.386C109.545 524.506 116.787 516.997 118.854 504.954C120.187 496.806 117.827 489.951 110.705 485.417C105.664 482.189 100.223 479.589 94.915 476.748C91.6876 475.068 88.3268 473.507 85.0861 471.96C39.4891 449.689 46.9974 399.757 79.8716 376.699C101.743 361.429 124.388 363.362 147.167 374.245C152.075 376.579 156.609 379.806 161.837 382.913C154.462 392.102 147.607 400.637 140.872 408.919C134.791 406.252 129.096 403.105 123.015 401.291C108.651 396.89 95.7151 402.838 89.1137 416.308C84.7127 425.363 86.6464 433.512 95.3151 438.566C103.984 443.621 112.919 447.488 121.588 452.142C137.765 460.824 149.594 473.107 152.128 492.152C156.129 521.398 141.459 546.751 114.346 558.833C82.1921 572.89 49.3446 562.914 29.9136 532.374ZM181.068 434.032H219.116C214.582 461.718 210.314 489.164 205.78 516.464C203.966 527.466 207.114 531.734 218.076 532.641C231.786 533.801 238.081 528.64 240.201 515.303C244.469 488.377 249.003 461.465 253.538 434.032H291.453C288.866 450.462 286.278 466.639 283.558 482.949C281.744 494.205 279.797 505.461 277.863 516.717C273.595 541.95 256.765 558.913 231.666 563.048C217.423 565.382 203.326 565.502 189.603 560.38C172.906 554.046 164.117 538.389 167.091 520.651C171.746 492.138 176.28 463.412 181.068 434.032ZM649.001 504.821H567.649C566.622 518.277 573.09 531.734 582.799 534.841C598.976 540.176 607.378 529.28 615.273 517.624C624.208 520.998 633.01 524.292 641.799 527.586C630.93 550.631 598.456 573.53 566.102 562.794C543.323 555.286 532.454 537.562 530.254 514.517C526.786 478.935 553.232 442.834 587.787 435.072C617.807 428.404 644.213 445.741 648.734 476.415C650.027 485.403 649.001 494.979 649.001 504.821ZM571.09 481.522H617.94C614.059 466.852 606.418 459.131 596.602 459.011C585.853 458.877 575.371 468.066 571.09 481.522ZM942.107 517.624C951.029 520.998 959.698 524.292 968.38 527.466C952.976 559.033 907.686 578.971 877.012 554.246C859.408 540.016 854.114 520.598 857.608 499.126C862.396 468.706 879.213 446.715 908.846 436.619C942.88 424.976 974.194 446.581 976.395 482.563C976.915 489.804 976.528 497.046 976.528 504.821H894.349C892.936 517.504 899.791 530.827 909.366 534.841C919.715 539.362 928.651 534.841 942.107 517.624ZM943.921 481.909C943.267 469.907 933.825 459.237 923.596 458.877C912.474 458.491 899.404 470.267 898.257 481.909H943.921ZM535.121 433.898C531.761 445.288 528.653 455.77 525.413 466.772C524.022 466.585 522.642 466.327 521.278 465.999C503.288 460.424 487.764 469.613 484.39 488.377C480.256 511.289 476.762 534.188 473.001 557.1C472.614 559.42 472.094 561.754 471.667 564.341H433.925C441.047 520.731 448.035 477.508 455.143 434.032H492.672C492.552 437.006 492.285 439.86 492.032 443.22C505.101 433.378 519.465 432.085 535.121 433.898Z" fill="black"/>
</svg>
