<svg width="1000" height="1000" viewBox="0 0 1000 1000" fill="none" xmlns="http://www.w3.org/2000/svg">
<g clip-path="url(#clip0_8_74)">
<path d="M916 681.167C918.333 676.5 918.333 671.833 920.667 667.167C976.75 447.5 843.542 190.5 614.542 54.9584C715.042 190.5 754.75 351.708 719.708 496.583C717.375 508.25 712.708 522.292 708.042 533.958C701.596 530.392 695.338 526.498 689.292 522.292C689.292 522.292 462.667 382.083 219.708 136.75C212.667 129.75 350.542 333 504.75 494.25C432.333 452.167 226.708 305 98.1666 185.792C112.208 211.5 133.25 237.208 154.25 262.917C261.75 400.792 401.958 569 570.208 697.5C451.042 770 285.125 774.625 116.875 697.5C74.7916 678.833 39.7916 655.458 0.041626 627.417C70.125 737.25 179.958 837.75 310.833 891.458C467.375 959.25 626.25 954.583 740.75 891.458H743.125C747.792 889.125 752.458 886.792 757.125 882.125C813.208 854.083 923.042 823.708 983.792 940.542C1000.12 973.25 1030.5 821.375 916.042 681.167H916Z" fill="black"/>
</g>
<defs>
<clipPath id="clip0_8_74">
<rect width="1000" height="1000" fill="white"/>
</clipPath>
</defs>
</svg>
