<svg width="1000" height="1000" viewBox="0 0 1000 1000" fill="none" xmlns="http://www.w3.org/2000/svg">
<path d="M500 0C223.875 0 0 223.875 0 500C0 776.125 223.875 1000 500 1000C776.125 1000 1000 776.125 1000 500C1000 223.875 776.125 0 500 0ZM745.583 342.542L663.5 729.208C657.458 756.625 641.125 763.292 618.333 750.375L493.333 658.292L433.083 716.375C427.25 723.875 418.208 728.667 408.083 728.667C408 728.667 407.958 728.667 407.875 728.667L416.75 601.417L648.417 392.167C658.417 383.292 646.167 378.25 632.875 387.125L346.667 567.375L223.333 528.875C196.667 520.417 195.917 502.208 228.958 489.125L710.875 303.375C733.292 295.208 752.792 308.708 745.542 342.583L745.583 342.542Z" fill="black"/>
</svg>
