<svg width="1000" height="1000" viewBox="0 0 1000 1000" fill="none" xmlns="http://www.w3.org/2000/svg">
<g clip-path="url(#clip0_9_584)">
<path d="M500 223.417L603.125 97.3332C732.333 104.375 852.667 135.167 962.25 185.458L956.125 182.917C921.625 227.833 876.125 262.708 823.625 283.75L821.5 284.5C815.417 224.542 773.417 209.917 640.083 209.917L500.042 1000L359.167 209.75C226.667 209.75 184.667 224.5 178.542 284.417C123.958 262.792 78.5 228.083 44.5416 184.042L44 183.333C147.375 135.5 267.708 104.625 394.375 97.6248L396.917 97.4998L500.042 223.417H500ZM500 60.9165C504.458 60.8332 509.708 60.8332 514.958 60.8332C680.25 60.8332 837.375 95.8332 979.292 158.833L972 155.958C981.875 139.542 991.292 120.417 999.083 100.5L1000 97.8748C852.042 36.9165 680.375 1.08317 500.417 0.0415039H500C319.667 1.0415 147.958 36.8748 -9.08337 101.208L-4.1008e-05 97.9165C9.33329 121.042 18.7083 140.208 29.2916 158.667L28 156.25C162.917 95.9165 320.375 60.7915 486.083 60.7915C491 60.7915 495.875 60.8332 500.75 60.8748H500V60.9165Z" fill="black"/>
</g>
<defs>
<clipPath id="clip0_9_584">
<rect width="1000" height="1000" fill="white"/>
</clipPath>
</defs>
</svg>
