<svg width="1000" height="1000" viewBox="0 0 1000 1000" fill="none" xmlns="http://www.w3.org/2000/svg">
<path d="M522.125 0.84375C576.656 0 630.875 0.5 685.031 0C688.312 63.7812 711.25 128.75 757.938 173.844C804.531 220.062 870.438 241.219 934.562 248.375V416.156C874.469 414.188 814.094 401.688 759.562 375.812C735.812 365.062 713.688 351.219 692.031 337.062C691.75 458.812 692.531 580.406 691.25 701.656C688 759.906 668.781 817.875 634.906 865.875C580.406 945.781 485.812 997.875 388.656 999.5C329.062 1002.91 269.531 986.656 218.75 956.719C134.594 907.094 75.375 816.25 66.75 718.75C65.75 697.906 65.4062 677.094 66.25 656.75C73.75 577.469 112.969 501.625 173.844 450.031C242.844 389.938 339.5 361.312 430 378.25C430.844 439.969 428.375 501.625 428.375 563.344C387.031 549.969 338.719 553.719 302.594 578.812C276.219 595.906 256.187 622.094 245.75 651.719C237.125 672.844 239.594 696.312 240.094 718.75C250 787.125 315.75 844.594 385.938 838.375C432.469 837.875 477.062 810.875 501.312 771.344C509.156 757.5 517.938 743.344 518.406 727.062C522.5 652.531 520.875 578.312 521.375 503.781C521.719 335.812 520.875 168.312 522.156 0.875L522.125 0.84375Z" fill="black"/>
</svg>
