<svg width="1000" height="1000" viewBox="0 0 1000 1000" fill="none" xmlns="http://www.w3.org/2000/svg">
<g clip-path="url(#clip0_12_464)">
<path d="M388.208 393.792C390.083 396.833 393.333 398.792 397.042 398.792C399.542 398.792 401.875 397.917 403.625 396.417L404.25 395.917C420.5 382.375 435.125 368.417 448.875 353.542C582.583 208.417 504.5 30.2501 503.875 28.5835C500.125 19.8335 502.625 9.45846 510.125 3.83346C518.25 -1.79154 528.25 -1.16654 535.75 5.20846C988.875 426.625 868.875 747.625 860.125 769.25C823.875 900.125 679.5 994.834 508.292 999.667C502.542 1000 498.208 1000 493.167 1000C291 1000 119.125 875.459 119.125 716.375V713.875C119.125 493.167 318.917 275.458 327.833 266.208C333.5 260 342.208 258.083 349.708 261.833C357.208 265 362.083 272.458 361.833 280.625C360.042 323.792 368.792 361.25 388.125 393.125V393.75L388.208 393.792Z" fill="black"/>
</g>
<defs>
<clipPath id="clip0_12_464">
<rect width="1000" height="1000" fill="white"/>
</clipPath>
</defs>
</svg>
