<svg width="1000" height="1000" viewBox="0 0 1000 1000" fill="none" xmlns="http://www.w3.org/2000/svg">
<path d="M500 176.5C223.875 176.5 0 321.333 0 499.917C0 678.625 223.875 823.5 500 823.5C776.125 823.5 1000 678.667 1000 499.917C1000 321.167 776.125 176.5 500 176.5ZM500 684.667C458.917 684.667 425.417 603.75 423.333 501.958C474.347 506.425 525.653 506.425 576.667 501.958C574.583 603.708 541.083 684.667 500 684.667ZM428.375 421.167C439.542 349.208 467.417 298.125 500 298.125C532.583 298.125 560.417 349.208 571.625 421.167C523.969 425.398 476.031 425.398 428.375 421.167ZM500 223.25C446.375 223.25 400.625 303.583 383.75 415.708C282.083 399.875 211.125 363.708 211.125 321.708C211.125 265.042 340.458 219.167 500 219.167C659.583 219.167 788.875 265.083 788.875 321.708C788.875 363.708 717.917 399.875 616.25 415.708C599.375 303.625 553.625 223.292 500 223.292V223.25ZM71.6667 487.833C71.6667 433.042 92.7917 381.583 129.5 337.417C129.125 340.5 128.875 343.667 128.875 346.833C128.875 415.875 232.417 474.75 376.917 496.417C376.792 501.417 376.792 506.5 376.792 511.583C376.792 640.333 412.875 749.292 462.75 786.292C243.583 773.083 71.7083 644.5 71.7083 487.833H71.6667ZM537.25 786.292C587.125 749.292 623.208 640.292 623.208 511.583C623.208 506.458 623.125 501.458 623.083 496.458C767.5 474.792 871.125 415.958 871.125 346.833C871.125 343.667 870.875 340.5 870.5 337.417C907.208 381.708 928.292 433.042 928.292 487.833C928.292 644.5 756.417 773.083 537.25 786.292Z" fill="black"/>
</svg>
