<svg width="1000" height="1000" viewBox="0 0 1000 1000" fill="none" xmlns="http://www.w3.org/2000/svg">
<path d="M0 500V1000H1000V0H0V500ZM805.875 460.167C831.292 466.5 850.625 477.792 868.417 496.208C877.625 506.042 891.292 523.958 892.375 528.292C892.708 529.542 849.208 558.708 822.875 575.083C821.917 575.708 818.083 571.583 813.833 565.25C800.917 546.5 787.458 538.417 766.833 537C736.5 534.917 717 550.792 717.167 577.292C716.89 583.808 718.357 590.281 721.417 596.042C728.083 609.833 740.5 618.125 779.333 634.917C850.958 665.75 881.583 686.042 900.625 714.917C921.875 747.125 926.667 798.583 912.208 836.833C896.375 878.417 857 906.667 801.583 916C784.458 919.042 743.833 918.583 725.417 915.25C685.25 908.083 647.167 888.25 623.667 862.208C614.458 852.083 596.5 825.542 597.625 823.667C598.083 823 602.208 820.458 606.792 817.792C611.292 815.25 628.083 805.542 643.958 796.333L672.708 779.667L678.75 788.583C687.167 801.417 705.542 819.042 716.667 824.917C748.583 841.75 792.375 839.375 813.958 820C818.299 816.344 821.734 811.734 823.997 806.529C826.259 801.325 827.287 795.668 827 790C827 778.417 825.542 773.333 819.5 764.583C811.75 753.5 795.875 744.167 750.792 724.583C699.208 702.375 677 688.583 656.667 666.667C643.976 652.203 634.604 635.137 629.208 616.667C625.417 602.542 624.458 567.125 627.458 552.875C638.083 503 675.708 468.292 730 457.958C747.625 454.625 788.583 455.875 805.875 460.167ZM571.125 501.917L571.458 542.875H441.25V912.708H349.167V542.875H219.083V502.708C219.083 480.458 219.542 461.875 220.167 461.458C220.667 460.792 299.875 460.458 395.875 460.625L570.667 461.125L571.125 501.917Z" fill="black"/>
</svg>
