<svg width="1000" height="1000" viewBox="0 0 1000 1000" fill="none" xmlns="http://www.w3.org/2000/svg">
<g clip-path="url(#clip0_12_319)">
<path d="M977.332 185.123C961.623 192.09 945.471 197.971 928.968 202.745C948.507 180.648 963.403 154.648 972.497 126.197C974.536 119.819 972.423 112.839 967.181 108.668C961.945 104.494 954.671 103.994 948.906 107.41C913.858 128.197 876.045 143.136 836.397 151.871C796.458 112.845 742.213 90.6355 686.136 90.6355C567.765 90.6355 471.461 186.935 471.461 305.303C471.461 314.626 472.052 323.897 473.219 333.039C326.332 320.142 189.774 247.945 96.0001 132.916C92.6581 128.816 87.5097 126.606 82.2388 127.029C76.9646 127.442 72.2259 130.416 69.5613 134.987C50.542 167.623 40.4872 204.948 40.4872 242.926C40.4872 294.652 58.9549 343.729 91.5775 382.077C81.6581 378.642 72.0323 374.348 62.8452 369.248C57.913 366.503 51.8936 366.545 46.9936 369.355C42.0904 372.165 39.0162 377.332 38.8872 382.981C38.8646 383.932 38.8646 384.884 38.8646 385.848C38.8646 463.058 80.4194 532.571 143.952 570.458C138.494 569.913 133.039 569.123 127.619 568.087C122.032 567.019 116.287 568.977 112.519 573.239C108.745 577.497 107.497 583.432 109.236 588.852C132.752 662.271 193.297 716.274 266.49 732.739C205.784 770.761 136.361 790.677 63.4839 790.677C48.2775 790.677 32.9839 789.784 18.0162 788.013C10.5807 787.129 3.47102 791.519 0.938765 798.59C-1.59349 805.665 1.09038 813.552 7.41618 817.606C101.039 877.635 209.294 909.365 320.471 909.365C539.032 909.365 675.758 806.3 751.968 719.839C847 612.029 901.503 469.329 901.503 328.332C901.503 322.442 901.413 316.494 901.232 310.565C938.726 282.316 971.006 248.129 997.274 208.835C1001.26 202.868 1000.83 194.981 996.21 189.487C991.594 183.99 983.9 182.213 977.332 185.123Z" fill="black"/>
</g>
<defs>
<clipPath id="clip0_12_319">
<rect width="1000" height="1000" fill="white"/>
</clipPath>
</defs>
</svg>
