<svg width="1000" height="1000" viewBox="0 0 1000 1000" fill="none" xmlns="http://www.w3.org/2000/svg">
<path fill-rule="evenodd" clip-rule="evenodd" d="M7.46533 345.478C7.46533 345.478 10.1215 336.488 19.4079 339.289L497.209 483.471L978.149 338.682C978.149 338.682 987.144 335.818 990.195 345.188C974.227 350.578 497.064 514.723 497.064 514.723L7.46533 345.478Z" fill="black"/>
<path fill-rule="evenodd" clip-rule="evenodd" d="M616.458 447.509C592.272 398.058 540.725 364.451 481.972 364.451C426.243 364.451 377.928 394.629 352.435 439.981L361.784 453.34C383.843 409.316 429.377 379.096 481.972 379.096C538.479 379.096 587.478 413.424 607.327 462.834L616.458 447.509Z" fill="black"/>
<path fill-rule="evenodd" clip-rule="evenodd" d="M600.277 520.534C596.516 582.602 544.984 631.773 481.972 631.773C416.511 631.773 363.444 578.706 363.444 513.24C363.444 511.196 363.496 509.162 363.599 507.144L349.374 489.899C348.007 497.671 347.321 505.546 347.325 513.437C347.325 587.8 407.608 648.089 481.972 648.089C556.33 648.089 616.619 587.8 616.619 513.437C616.619 508.789 616.375 504.197 615.918 499.673L600.277 520.534Z" fill="black"/>
<path fill-rule="evenodd" clip-rule="evenodd" d="M391.36 551.086C391.36 551.086 388.014 541.358 398.825 536.834C409.637 532.316 414.944 530.35 414.944 530.35L497.048 514.724L391.36 551.086Z" fill="black"/>
<path fill-rule="evenodd" clip-rule="evenodd" d="M616.396 500.524L616.043 501.032C616.406 505.053 616.619 509.126 616.619 513.245C616.619 587.499 556.418 647.7 482.164 647.7C407.909 647.7 347.714 587.499 347.714 513.245C347.714 505.785 348.352 498.464 349.519 491.331L334.028 496.042C333.337 501.851 332.983 507.695 332.97 513.546C332.97 595.945 399.764 662.739 482.164 662.739C564.563 662.739 631.358 595.945 631.358 513.546C631.358 511.507 631.285 509.494 631.207 507.476L616.396 500.524Z" fill="black"/>
<path fill-rule="evenodd" clip-rule="evenodd" d="M990.527 345.105L497.048 514.724L7.20592 345.442C7.20592 345.442 6.03864 348.233 6.01789 350.023C5.99195 351.813 6.22541 356.119 12.3004 358.682C18.3755 361.25 334.158 496.14 334.158 496.14L349.566 491.445L363.854 508.477L415.147 530.386L496.638 514.869L391.204 551.106C391.204 551.106 392.501 557.104 401.222 557.726C409.943 558.354 498.194 565.539 498.194 565.539L600.111 522.085L616.069 500.856L631.078 508.524C631.078 508.524 978.558 361.483 986.288 358.344C994.023 355.206 990.527 345.105 990.527 345.105Z" fill="black"/>
<path fill-rule="evenodd" clip-rule="evenodd" d="M381.861 448.495C403.059 415.806 439.872 394.182 481.728 394.182C526.842 394.182 566.099 419.307 586.259 456.328L607.327 462.876C587.255 413.564 538.842 378.8 482.32 378.8C429.465 378.8 383.708 409.191 361.576 453.449L381.861 448.495Z" fill="black"/>
</svg>
