<svg width="1000" height="1000" viewBox="0 0 1000 1000" fill="none" xmlns="http://www.w3.org/2000/svg">
<path d="M203.125 93.75C142.941 93.75 93.75 142.941 93.75 203.125V796.875C93.75 857.059 142.941 906.25 203.125 906.25H796.875C857.059 906.25 906.25 857.059 906.25 796.875V203.125C906.25 142.941 857.059 93.75 796.875 93.75H203.125ZM203.125 125H796.875C840.128 125 875 159.872 875 203.125V796.875C875 840.128 840.128 875 796.875 875H203.125C159.872 875 125 840.128 125 796.875V203.125C125 159.872 159.872 125 203.125 125ZM335.358 368.591C327.576 368.591 321.259 374.894 321.259 382.66V503.387C321.259 512.137 319.903 520.021 317.2 527.1C314.497 534.162 310.707 540.255 305.817 545.349C300.926 550.443 295.213 554.408 288.666 557.22C282.119 560.033 275.093 561.432 267.609 561.432C259.906 561.432 252.763 560.076 246.216 557.373C239.669 554.67 233.999 550.779 229.218 545.685C224.436 540.591 220.69 534.424 217.987 527.252C215.284 520.08 213.912 512.152 213.959 503.418V382.69C213.959 374.909 207.656 368.622 199.89 368.622H195.251C187.47 368.622 181.183 374.925 181.183 382.69V505.28C181.183 518.17 183.326 529.875 187.592 540.375C191.857 550.875 197.673 559.868 205.048 567.352C212.423 574.837 221.168 580.624 231.262 584.686C241.356 588.733 252.199 590.759 263.855 590.759C275.292 590.759 285.962 588.659 295.837 584.503C305.712 580.347 314.282 574.445 321.564 566.742V572.937C321.564 580.718 327.897 587.006 335.663 587.006H339.966C347.747 587.006 354.034 580.703 354.034 572.937V382.66C354.034 374.879 347.731 368.591 339.966 368.591H335.358ZM393.036 368.622C385.255 368.622 378.967 374.925 378.967 382.69V572.968C378.967 580.749 385.27 587.036 393.036 587.036H396.088C403.869 587.036 410.187 580.733 410.187 572.968V567.078C417.452 574.359 425.936 580.115 435.608 584.381C445.28 588.647 455.715 590.759 466.949 590.759C478.606 590.759 489.538 588.604 499.725 584.229C509.913 579.869 518.761 573.921 526.245 566.437C533.729 558.952 539.631 550.163 544.006 540.07C548.366 529.976 550.568 519.219 550.568 507.782C550.568 496.344 548.381 485.529 544.006 475.342C539.647 465.154 533.729 456.306 526.245 448.822C518.761 441.338 509.913 435.405 499.725 431.03C489.522 426.671 478.606 424.5 466.949 424.5C455.715 424.5 445.323 426.612 435.76 430.878C426.198 435.143 417.773 440.9 410.492 448.181V382.69C410.492 374.909 404.174 368.622 396.393 368.622H393.036ZM643.86 424.774C632.204 424.774 621.404 426.96 611.42 431.335C601.435 435.695 592.792 441.686 585.51 449.28C578.229 456.874 572.516 465.632 568.359 475.616C564.203 485.601 562.135 496.227 562.103 507.477C562.103 519.336 564.259 530.312 568.634 540.405C572.993 550.483 578.985 559.258 586.578 566.742C594.172 574.226 603.106 580.072 613.403 584.229C623.7 588.385 634.778 590.454 646.637 590.454C661.199 590.454 674.287 587.452 685.944 581.421C692.397 578.077 698.286 574.025 703.583 569.275C710.333 563.228 710.071 552.601 702.789 547.211C697.164 543.054 689.558 543.895 684.418 548.645C674.058 558.223 661.465 562.988 646.637 562.988C639.981 562.988 633.699 561.852 627.777 559.57C621.855 557.289 616.534 554.111 611.847 550.049C607.159 545.986 603.284 541.191 600.159 535.675C597.049 530.159 594.98 524.214 593.933 517.761H723.419V507.446C723.419 495.587 721.452 484.612 717.499 474.518C713.546 464.44 708.036 455.724 700.958 448.334C693.896 440.959 685.471 435.186 675.69 431.03C665.908 426.874 655.297 424.774 643.86 424.774ZM810.181 426.666C801.446 426.666 793.88 428.501 787.537 432.251C781.193 435.985 776.048 441.087 772.095 447.54V441.956C772.095 434.174 765.792 427.887 758.026 427.887H754.974C747.193 427.887 740.906 434.19 740.906 441.956V572.937C740.906 580.718 747.209 587.006 754.974 587.006H758.331C766.113 587.006 772.43 580.703 772.43 572.937V496.521C772.43 484.037 775.753 474.17 782.41 466.888C789.066 459.607 797.577 455.962 807.983 455.994H810.425C818.534 455.994 825.104 449.408 825.104 441.315C825.104 433.205 818.519 426.666 810.425 426.666H810.181ZM643.25 452.24C655.109 452.24 665.442 455.927 674.286 463.318C683.114 470.708 688.917 480.532 691.62 492.798H594.574C597.48 480.532 603.369 470.708 612.213 463.318C621.057 455.927 631.39 452.24 643.25 452.24ZM464.783 452.545C472.267 452.545 479.336 453.944 485.992 456.757C492.649 459.569 498.436 463.46 503.326 468.445C508.217 473.429 512.108 479.318 515.015 486.084C517.936 492.85 519.379 500.048 519.379 507.751C519.379 515.455 517.921 522.641 515.015 529.297C512.093 535.953 508.217 541.769 503.326 546.753C498.436 551.753 492.649 555.718 485.992 558.624C479.336 561.546 472.267 562.988 464.783 562.988C457.08 562.988 449.894 561.531 443.237 558.624C436.581 555.702 430.781 551.753 425.781 546.753C420.781 541.769 416.906 535.953 414.093 529.297C411.281 522.641 409.851 515.455 409.851 507.751C409.851 500.048 411.324 492.834 414.246 486.084C417.167 479.334 421.102 473.445 426.086 468.445C431.071 463.445 436.917 459.569 443.573 456.757C450.229 453.944 457.298 452.545 464.783 452.545Z" fill="#1A1A1A"/>
</svg>
