<svg width="1000" height="1000" viewBox="0 0 1000 1000" fill="none" xmlns="http://www.w3.org/2000/svg">
<g clip-path="url(#clip0_15_30)">
<path d="M829.094 799.969L650.094 500L829.094 200.031L916.688 500L829.094 799.969ZM433.25 770.844L208.344 549.969H566.75L745.75 849.938L433.25 770.844ZM433.25 224.906L745.75 145.812L566.75 445.781H204.094C204.094 450.031 433.25 224.906 433.25 224.906ZM891.594 0L483.438 104.156L420.938 208.312H299.969L0 499.969L299.969 791.625H420.938L479.188 895.781L887.562 999.938L995.781 604.094L937.531 499.938L1000.03 395.781L891.594 0Z" fill="black"/>
</g>
<defs>
<clipPath id="clip0_15_30">
<rect width="1000" height="1000" fill="white"/>
</clipPath>
</defs>
</svg>
