<svg width="1000" height="1000" viewBox="0 0 1000 1000" fill="none" xmlns="http://www.w3.org/2000/svg">
<path d="M500 0C226.062 0 4.21875 223.781 4.21875 500C4.21875 776.219 226.062 1000 500 1000C773.75 1000 995.781 776.219 995.781 500C995.781 223.781 773.781 0 499.844 0H500ZM500 21.9688C626.469 21.9688 745.594 71.7813 835.125 161.938C924.469 251.781 974.281 373.375 973.969 500C973.969 627.594 924.656 747.719 835.125 838.062C746.75 927.75 625.969 978.188 500 978.031C374.031 978.188 253.25 927.75 164.875 838.062C75.5312 748.219 25.5625 626.625 25.875 500C25.875 372.406 75.3437 252.281 164.719 161.938C253.094 72.0938 374.031 21.625 500 21.9688ZM475.094 197.906C394.375 219.562 319.656 261.062 220.062 375.312C120.469 489.562 139.344 583.969 139.344 583.969C139.344 583.969 166.844 519.031 232.938 450.656C264.344 418.281 287.625 407.375 303.75 407.375C318.062 406.562 330.125 418.125 330.125 432.438V664.375C330.125 687.312 315.312 692.375 301.656 692.031C290.094 691.875 279.344 687.812 279.344 687.812C347.219 786.438 509.656 800.281 509.656 800.281L580.938 724.094L582.562 725.562L647.844 781.219C767.312 710.25 824.938 578.75 824.938 578.75C771.562 635.062 737.687 648.25 717.5 648.25C699.594 648.094 692.594 637.656 692.594 637.656C691.625 632.781 690 562.125 689.344 491.5C688.688 418.406 689.344 345.188 692.938 345C713.594 306.25 779.375 228.125 779.375 228.125C656.5 252.375 589.594 332.938 589.594 332.938C569.75 317.312 529.375 319.906 529.375 319.906C548.25 330.312 567.125 360.594 567.125 385.656V632.406C567.125 632.406 525.938 668.688 494.219 668.688C475.344 668.688 463.781 658.438 457.437 649.969C455 646.719 452.875 643.125 451.25 639.219V334.531C446.844 337.781 441.469 339.562 436.125 339.75C429.281 339.75 422.281 336.344 417.562 326.406C413.969 318.906 411.688 307.688 411.688 291.25C411.688 235.094 475.156 197.812 475.156 197.812L475.094 197.906Z" fill="black"/>
</svg>
