<svg width="1000" height="1000" viewBox="0 0 1000 1000" fill="none" xmlns="http://www.w3.org/2000/svg">
<path d="M1000 500.311C1000 224.2 776.111 0.363281 500 0.363281C223.837 0.363281 0 224.252 0 500.311C0 713.144 133.254 894.466 320.65 966.57L226.277 527.928L199.595 403.966L152.357 184.697L335.341 145.297L402.98 459.821C421.252 544.747 459.77 590.324 523.204 576.62C573.401 565.822 594.684 524.969 600.394 493.719C602.938 481.883 601.069 467.245 597.955 452.917L523.048 104.859L705.98 65.5626L791.424 462.728C825.789 622.456 918.812 646.906 918.812 646.906C918.812 646.906 793.241 673.951 740.604 685.216C688.071 696.584 652.668 602.627 652.668 602.627L649.034 603.405C634.084 644.155 617.213 710.34 486.711 738.476C477.159 740.5 467.816 741.798 458.576 742.784L513.808 999.637C783.43 992.317 1000 771.75 1000 500.311Z" fill="#030104"/>
</svg>
