<svg width="1000" height="1000" viewBox="0 0 1000 1000" fill="none" xmlns="http://www.w3.org/2000/svg">
<g clip-path="url(#clip0_15_52)">
<path d="M862.083 97.375C837.292 74.6666 736.875 1.66664 513.25 0.708306C513.25 0.708306 249.375 -15.0834 120.833 102.875C49.3334 174.375 24.2917 279.083 21.4167 408.958C18.5417 538.833 15.3333 782.25 249.958 848.417H250.167L249.958 949.208C249.958 949.208 248.417 990.042 275.25 998.25C307.667 1008.42 326.833 977.333 357.875 943.917C374.875 925.542 398.292 898.625 416.083 878.083C441.083 880.542 470.083 881.917 499.458 881.917C575.583 881.917 649.542 872.542 720.208 854.875L713.958 856.208C746.375 845.667 929.792 822.208 959.458 578.833C990.458 327.583 944.708 169.083 862.083 97.375ZM889.25 560.5C863.958 763.625 715.375 776.542 688.042 785.292C628.375 800.458 559.875 809.125 489.333 809.125C469.083 809.125 449 808.417 429.125 807L431.792 807.167C431.792 807.167 330.208 929.625 298.583 961.458C288.25 971.792 276.875 970.958 277.083 950.333C277.083 936.875 277.875 782.917 277.875 782.917C79.25 727.833 90.75 520.5 93.0834 412.208C95.4167 303.917 115.75 214.917 176.292 155.167C285.125 56.5416 509.167 71.1666 509.167 71.1666C698.458 71.9583 789.083 129 810.167 148.125C879.917 207.917 915.458 350.917 889.25 560.458V560.5ZM617.958 402.667V403.25C617.958 410.25 612.292 415.917 605.292 415.917C598.5 415.917 592.958 410.583 592.667 403.875V403.833C592.833 402.083 592.958 400 592.958 397.958C592.958 364.583 565.917 337.542 532.542 337.542C531.292 337.542 530.042 337.583 528.833 337.667H529C522.292 337.292 517 331.792 517 325.042C517 318.042 522.667 312.375 529.667 312.375H530.375H530.333C531.167 312.333 532.208 312.333 533.208 312.333C580.125 312.333 618.125 350.333 618.125 397.25C618.125 399.167 618.042 401.083 617.917 402.958V402.708L617.958 402.667ZM657.583 424.792C659.542 341.958 607.792 277.125 509.542 269.875C502.917 269.417 497.75 263.917 497.75 257.25C497.75 250.25 503.417 244.583 510.417 244.583C510.708 244.583 511.042 244.583 511.333 244.625H511.292H512C606.458 244.625 683.083 321.208 683.083 415.708C683.083 419.083 683 422.458 682.792 425.792L682.833 425.333C682.667 432.208 677.083 437.667 670.208 437.667C663.208 437.667 657.542 432 657.542 425C657.542 424.875 657.542 424.792 657.542 424.667L657.583 424.792ZM749.25 451V451.083C749.25 458.083 743.583 463.75 736.583 463.75C729.583 463.75 724 458.125 723.958 451.208C722.958 291.958 616.75 205.25 488.042 204.333C481.042 204.333 475.417 198.667 475.417 191.708C475.417 184.75 481.083 179.083 488.042 179.083C632.167 180.083 748 279.542 749.167 450.958L749.25 451ZM727.375 642.583V642.958C706.292 680.083 666.833 721.083 626.208 708L625.833 707.417C549.5 678.917 483.5 641.667 424.542 595.792L426.25 597.042C395.292 572.375 368.083 545.167 344.208 515.25L343.417 514.208C322.208 487.625 302.333 457.875 285 426.458L283.333 423.167C264.292 392.083 247.083 356.167 233.625 318.458L232.375 314.375C219.292 273.75 260.083 234.292 297.417 213.208H297.792C303.208 209.75 309.792 207.667 316.875 207.667C328 207.667 337.917 212.792 344.458 220.75L344.5 220.833C344.5 220.833 368.708 249.708 379.083 264C388.833 277.292 401.958 298.583 408.75 310.458C412.667 316.583 414.958 324.083 414.958 332.125C414.958 344.125 409.792 354.917 401.542 362.375L401.5 362.417L378.083 381.167C371.625 387.417 367.625 396.167 367.625 405.833C367.625 406.792 367.667 407.708 367.75 408.625V408.5C391.875 487.792 453.083 549 530.667 572.708L532.417 573.167C533.208 573.25 534.167 573.292 535.083 573.292C544.75 573.292 553.5 569.292 559.75 562.875L578.5 539.458C586 531.167 596.792 526 608.792 526C616.833 526 624.292 528.333 630.625 532.333L630.458 532.25C664.333 551.542 693.625 572.75 720.333 596.792L719.875 596.375C727.875 602.792 732.917 612.583 732.917 623.542C732.917 630.583 730.833 637.125 727.208 642.625L727.292 642.5L727.375 642.583Z" fill="black"/>
</g>
<defs>
<clipPath id="clip0_15_52">
<rect width="1000" height="1000" fill="white"/>
</clipPath>
</defs>
</svg>
