<svg width="1000" height="1000" viewBox="0 0 1000 1000" fill="none" xmlns="http://www.w3.org/2000/svg">
<g clip-path="url(#clip0_5_158)">
<path d="M726.875 359.219C710.781 353.219 685.531 346.688 654.281 346.688C574.375 346.688 517.906 387.062 517.562 444.844C516.906 487.312 557.594 511.25 588.344 525.563C619.938 540.219 630.5 549.344 630.344 562.344C630.188 582.375 605.094 591.313 582 591.313C549.906 591.313 532.5 586.938 505.656 575.688L495.688 570.969L484.312 637.719C503.844 645.688 538.844 652.688 574.969 653.344C660.094 653.344 715.594 613.312 716.219 551.594C716.875 517.75 695.094 492.062 648.688 470.875C620.688 457.219 603.156 447.906 603.156 433.906C603.156 421.531 618.125 408.531 649.375 408.531C676.219 408.031 695.125 413.906 709.906 419.75L717.562 423.156L728.781 358.875L726.875 359.219ZM934.594 352.219H872.094C852.562 352.219 838.062 357.437 829.438 376.812L709.312 649.094H794.281L811.406 604.5L915.062 604.656C917.656 615.063 924.969 649.063 924.969 649.063H1000L934.594 352.219ZM402.5 349.781H483.406L432.781 646.781H351.875L402.5 349.625V349.781ZM196.781 513.344L205.062 554.688L284.312 352.219H370.094L242.469 648.594H157.062L87.0625 397.625C85.5938 393.25 83.8125 390.281 79.4062 387.719C55.8125 375.344 29.2812 365.25 0 358.25L0.96875 352.031H131.5C149.094 352.688 163.406 358.25 168.281 377.125L196.781 513.5V513.344ZM834.469 543.781L866.875 460.625C866.375 461.406 873.531 443.531 877.594 432.281L883.125 457.812L901.875 543.594H834.469V543.781Z" fill="black"/>
</g>
<defs>
<clipPath id="clip0_5_158">
<rect width="1000" height="1000" fill="white"/>
</clipPath>
</defs>
</svg>
