<svg width="1000" height="1000" viewBox="0 0 1000 1000" fill="none" xmlns="http://www.w3.org/2000/svg">
<path d="M628.039 83.3335H372.396C138.888 83.3335 83.3333 138.888 83.3333 371.961V627.604C83.3333 861.11 138.456 916.667 371.961 916.667H627.604C861.112 916.667 916.667 861.544 916.667 628.037V372.396C916.667 138.888 861.544 83.3335 628.039 83.3335ZM756.075 677.951H695.312C672.31 677.951 665.364 659.287 624.133 618.055C588.107 583.333 572.917 578.992 563.802 578.992C551.216 578.992 547.742 582.464 547.742 599.826V654.513C547.742 669.271 542.969 677.951 504.341 677.951C466.857 675.432 430.508 664.045 398.287 644.727C366.065 625.41 338.894 598.714 319.01 566.839C271.806 508.085 238.963 439.128 223.091 365.451C223.091 356.336 226.562 348.089 243.924 348.089H304.687C320.312 348.089 325.956 355.034 332.031 371.094C361.544 457.898 411.893 533.419 432.292 533.419C440.104 533.419 443.575 529.948 443.575 510.417V421.006C440.971 380.208 419.271 376.735 419.271 361.979C419.556 358.086 421.348 354.458 424.266 351.865C427.183 349.271 430.996 347.917 434.896 348.089H530.383C543.404 348.089 547.742 354.599 547.742 370.224V490.886C547.742 503.906 553.385 508.245 557.292 508.245C565.104 508.245 571.179 503.906 585.502 489.583C616.281 452.049 641.43 410.233 660.156 365.451C662.067 360.062 665.691 355.448 670.472 352.312C675.253 349.177 680.929 347.694 686.633 348.089H747.396C765.625 348.089 769.531 357.203 765.625 370.224C743.515 419.737 716.16 466.737 684.029 510.417C677.518 520.398 674.914 525.607 684.029 537.326C690.104 546.44 711.372 564.235 725.695 581.162C746.528 601.943 763.827 625.986 776.909 652.344C782.117 669.271 773.437 677.951 756.075 677.951Z" fill="black"/>
</svg>
