<svg width="1000" height="1000" viewBox="0 0 1000 1000" fill="none" xmlns="http://www.w3.org/2000/svg">
<path fill-rule="evenodd" clip-rule="evenodd" d="M499.813 14.8643C231.774 14.8643 14.4907 232.158 14.4907 500.187C14.4907 768.221 231.779 985.509 499.813 985.509C767.837 985.509 985.136 768.221 985.136 500.187C985.136 232.163 767.837 14.8643 499.813 14.8643ZM499.813 941.995C255.806 941.995 58.0044 744.194 58.0044 500.187C58.0044 256.19 255.806 58.3831 499.813 58.3831C743.81 58.3831 941.622 256.19 941.622 500.187C941.622 744.194 743.81 941.995 499.813 941.995Z" fill="black"/>
<path fill-rule="evenodd" clip-rule="evenodd" d="M403.084 170.101C434.507 160.927 467.079 156.286 499.813 156.316C533.355 156.316 565.782 161.12 596.434 170.075L499.813 384.245L403.084 170.101Z" fill="black"/>
<path fill-rule="evenodd" clip-rule="evenodd" d="M684.4 210.004C720.611 233.105 752.204 262.745 777.565 297.41L618.982 648.342L557.786 512.27H441.84L380.65 648.337L222.295 297.083C247.608 262.556 279.115 233.03 315.211 210.009L441.84 490.931H558.181L684.4 210.004ZM167.559 411.188C159.818 440.22 155.909 470.14 155.932 500.187C155.932 634.951 233.439 751.598 346.309 807.999L167.559 411.188Z" fill="black"/>
<path fill-rule="evenodd" clip-rule="evenodd" d="M404.682 830.739C435.612 839.612 467.635 844.098 499.813 844.068C532.779 844.068 564.656 839.424 594.83 830.775L499.813 619.754L404.682 830.739ZM653.302 807.999C766.177 751.598 843.684 634.951 843.684 500.187C843.684 469.68 839.71 440.102 832.265 411.94L653.302 807.999Z" fill="black"/>
</svg>
