<svg width="1000" height="1000" viewBox="0 0 1000 1000" fill="none" xmlns="http://www.w3.org/2000/svg">
<g clip-path="url(#clip0_9_597)">
<path d="M469.542 467.708H447.792V453.417H534.125V467.708H512.625V532.292H532.583C551.042 532.292 563.167 520.125 563.167 503.542H577.417V546.792H447.833V532.333H469.583L469.542 467.708ZM575.083 467.75H553.625V453.417H647.292V467.75H624.625L656.208 525.375L687.417 467.75H668.75V453.417H733.333V467.75H711.833L669.042 546.917L618.625 546.875L575.083 467.75ZM790.958 451.417C834.333 451.417 857.625 473.083 857.625 500.208C857.625 527.708 835.667 549.667 791.208 549.667C746.75 549.667 724.583 527.75 724.583 500.208C724.583 473.083 747.625 451.458 790.958 451.458V451.417ZM240.875 525.417L272.042 467.792H253.417V453.458H317.917V467.792H296.458L253.625 546.958L203.208 546.917L159.667 467.792H138.25V453.458H231.875V467.792H209.25L240.875 525.417ZM375.75 451.458C419.125 451.458 442.417 473.125 442.417 500.25C442.417 527.75 420.458 549.708 376 549.708C331.542 549.708 309.375 527.792 309.375 500.25C309.375 473.125 332.375 451.5 375.75 451.5V451.458ZM352.792 499.667C353.083 481.667 361.708 465.958 376.542 466.208C391.375 466.5 399.208 482.458 398.917 500.5C398.583 517.458 391.583 535.125 375.292 534.833C359.458 534.542 352.5 517.042 352.792 499.667V499.667ZM768 499.667C768.292 481.667 776.917 465.958 791.75 466.208C806.583 466.5 814.417 482.458 814.125 500.5C813.792 517.458 806.792 535.125 790.5 534.833C774.667 534.542 767.708 517.042 768 499.667ZM134.417 409.583C174.917 245.292 323.208 123.458 500 123.458C676.792 123.458 825.083 245.292 865.583 409.542L134.417 409.583ZM865.583 590.5C825.083 754.75 676.792 876.583 500 876.583C323.208 876.583 174.917 754.75 134.417 590.5H865.583ZM900.958 201.292L924.625 177.583C941.458 199.75 956.667 223.25 969.917 247.917H988.625V11.7917H752.5V30.2917C777.042 43.5 800.417 58.625 822.417 75.375L798.708 99.0417C712.469 34.5949 607.66 -0.156279 500 3.67652e-05C223.875 3.67652e-05 0 223.875 0 500C0 776.125 223.875 1000 500 1000C776.125 1000 1000 776.125 1000 500C1000 388 963.167 284.583 900.958 201.25V201.292Z" fill="black"/>
</g>
<defs>
<clipPath id="clip0_9_597">
<rect width="1000" height="1000" fill="white"/>
</clipPath>
</defs>
</svg>
