<svg width="1000" height="1000" viewBox="0 0 1000 1000" fill="none" xmlns="http://www.w3.org/2000/svg">
<g clip-path="url(#clip0_12_605)">
<path d="M9.51422 348.714C9.51422 348.714 -14.8422 330.968 14.3855 307.272L82.4817 245.723C82.4817 245.723 101.967 225.001 122.568 243.055L750.963 723.958V954.558C750.963 954.558 750.658 990.77 704.683 986.77L9.51422 348.714Z" fill="black"/>
<path d="M171.481 497.362L9.51139 646.204C9.51139 646.204 -7.13215 658.721 9.51139 681.083L84.7117 750.221C84.7117 750.221 102.573 769.608 128.959 747.554L300.671 615.946L171.481 497.362Z" fill="black"/>
<path d="M455.833 498.587L752.879 269.317L750.95 39.9435C750.95 39.9435 738.263 -10.1166 695.946 15.9392L300.662 379.594L455.833 498.587Z" fill="black"/>
<path d="M704.671 987.083C721.921 1004.93 742.829 999.083 742.829 999.083L974.325 883.783C1003.96 863.367 999.8 838.029 999.8 838.029V149.501C999.8 119.24 969.15 108.776 969.15 108.776L768.504 11.0157C724.662 -16.3737 695.946 15.9395 695.946 15.9395C695.946 15.9395 732.883 -10.9368 750.95 39.9437V950.358C750.95 956.617 749.629 962.771 746.992 968.308C741.712 979.079 730.246 989.133 702.742 984.929L704.671 987.083Z" fill="black"/>
</g>
<defs>
<clipPath id="clip0_12_605">
<rect width="1000" height="1000" fill="white"/>
</clipPath>
</defs>
</svg>
