<svg width="1000" height="1000" viewBox="0 0 1000 1000" fill="none" xmlns="http://www.w3.org/2000/svg">
<g clip-path="url(#clip0_8_14)">
<path d="M181.129 66.6667H33.3333C21.3978 66.6667 10.3732 73.0481 4.42859 83.3981C-1.51601 93.7481 -1.47325 106.486 4.54071 116.796L471.207 916.793C477.181 927.033 488.145 933.333 500 933.333C511.855 933.333 522.819 927.033 528.793 916.793L995.46 116.796C1001.47 106.486 1001.51 93.7481 995.573 83.3981C989.627 73.0481 978.6 66.6667 966.667 66.6667H818.873L500.003 598.123L181.129 66.6667Z" fill="black"/>
<path d="M741.127 66.6667H546.067L500.001 158.798L453.935 66.6667H258.875L500.003 468.546L741.127 66.6667Z" fill="black"/>
</g>
<defs>
<clipPath id="clip0_8_14">
<rect width="1000" height="1000" fill="white"/>
</clipPath>
</defs>
</svg>
