<svg width="1000" height="1000" viewBox="0 0 1000 1000" fill="none" xmlns="http://www.w3.org/2000/svg">
<path d="M921.875 781.25H78.125C69.4844 781.25 62.5 774.266 62.5 765.625V171.875C62.5 163.234 69.4844 156.25 78.125 156.25H921.875C930.516 156.25 937.5 163.234 937.5 171.875V765.625C937.5 774.266 930.516 781.25 921.875 781.25ZM93.75 750H906.25V187.5H93.75V750Z" fill="black"/>
<path d="M437.5 765.625H562.5V828.125H437.5V765.625Z" fill="black"/>
<path d="M695.312 843.75H304.688C300.375 843.75 296.875 840.25 296.875 835.938V820.312C296.875 816 300.375 812.5 304.688 812.5H695.312C699.625 812.5 703.125 816 703.125 820.312V835.938C703.125 840.25 699.625 843.75 695.312 843.75Z" fill="black"/>
<path d="M500 296.875C405.078 296.875 328.125 373.828 328.125 468.75C328.125 563.672 405.078 640.625 500 640.625C594.922 640.625 671.875 563.672 671.875 468.75C671.875 373.828 594.922 296.875 500 296.875ZM500 546.875C456.859 546.875 421.875 511.891 421.875 468.75C421.875 425.609 456.859 390.625 500 390.625C543.141 390.625 578.125 425.609 578.125 468.75C578.125 511.891 543.141 546.875 500 546.875Z" fill="black"/>
<path d="M390.625 531.25L250 511.719V425.781L390.625 406.25V531.25Z" fill="black"/>
<path d="M499.438 594.719L412.219 706.734L337.781 663.766L391.187 532.219L499.438 594.719Z" fill="black"/>
<path d="M608.813 532.219L662.219 663.766L587.781 706.734L500.562 594.719L608.813 532.219Z" fill="black"/>
<path d="M609.375 406.25L750 425.781V511.719L609.375 531.25V406.25Z" fill="black"/>
<path d="M500.562 342.781L587.781 230.766L662.219 273.734L608.813 405.281L500.562 342.781Z" fill="black"/>
<path d="M391.187 405.281L337.781 273.734L412.219 230.766L499.438 342.781L391.187 405.281Z" fill="black"/>
</svg>
