<svg width="1030" height="1000" viewBox="0 0 1030 1000" fill="none" xmlns="http://www.w3.org/2000/svg">
<g clip-path="url(#clip0_15_2)">
<path fill-rule="evenodd" clip-rule="evenodd" d="M72.3438 500L15.0156 541.094L15 566.25L515 924.812L1014.97 566.25L1015 541.125L957.656 500L515 729.781L72.3438 500Z" stroke="black" stroke-width="30"/>
<path fill-rule="evenodd" clip-rule="evenodd" d="M515 75.2031L15.0312 433.75L15 458.906L515 817.5L1014.97 458.906L1015 433.75L515 75.2031ZM580.406 429.078L519.469 345.016L571.438 306.984L679.781 467.188L636.141 499.125L519.609 450.922L519.109 451.281L585.469 536.188L541.828 568.125L322.656 488.828L374.797 450.672L489.375 495.297L490.031 494.828L426.438 412.906L467.453 382.906L579.734 429.422L580.406 429.078Z" fill="black"/>
</g>
<defs>
<clipPath id="clip0_15_2">
<rect width="1030" height="1000" fill="white"/>
</clipPath>
</defs>
</svg>
