<svg width="1000" height="1000" viewBox="0 0 1000 1000" fill="none" xmlns="http://www.w3.org/2000/svg">
<path d="M505.155 236.717C363.204 236.717 248.216 350.912 248.216 492.07C248.216 547.581 266.455 599.921 297.383 641.951L264.869 737.113L363.997 705.392C404.441 732.355 453.608 747.423 505.948 747.423C647.898 747.423 763.68 633.227 763.68 492.07C762.887 350.912 647.105 236.717 505.155 236.717ZM655.829 597.542C649.485 614.988 618.557 631.641 605.075 633.228C591.594 634.814 591.594 644.33 514.671 614.988C438.541 584.853 390.167 507.93 386.201 502.379C382.236 497.621 355.274 461.935 355.274 425.456C355.274 388.977 374.306 370.737 381.443 363.6C388.58 356.463 396.511 354.084 401.269 354.084C406.027 354.084 411.578 354.877 415.543 354.877C420.301 354.877 425.853 352.498 432.197 367.565C438.541 382.633 453.608 419.112 455.194 423.077C456.78 427.042 458.366 431.007 455.987 435.765C453.608 440.523 452.022 443.695 448.85 448.454C444.885 452.419 440.92 457.97 437.748 461.142C433.783 465.107 429.818 469.072 434.576 476.209C439.334 483.346 454.401 507.93 476.606 527.756C505.155 553.132 529.738 561.063 536.875 565.028C544.013 568.993 548.771 568.2 552.736 563.442C557.494 558.684 571.768 542.03 576.527 534.1C581.285 526.963 586.836 527.756 593.18 530.135C600.317 532.514 636.796 550.753 644.726 554.718C651.864 558.684 657.415 560.27 659.001 563.442C661.38 565.028 661.38 580.095 655.829 597.542Z" fill="black"/>
<path d="M748.612 0.396484H250.595C112.609 0.396484 0 113.006 0 250.991V749.802C0 886.994 112.609 999.603 250.595 999.603H749.405C887.391 999.603 1000 886.994 1000 749.009V250.991C999.207 113.006 886.598 0.396484 748.612 0.396484ZM505.155 795.797C451.229 795.797 401.269 782.316 356.86 757.732L187.153 811.657L242.665 649.088C214.909 603.093 199.048 549.167 199.048 492.07C199.048 323.949 336.241 188.343 505.155 188.343C674.068 188.343 811.261 323.949 811.261 492.07C811.261 660.19 674.068 795.797 505.155 795.797Z" fill="black"/>
</svg>
