<svg width="1000" height="1000" viewBox="0 0 1000 1000" fill="none" xmlns="http://www.w3.org/2000/svg">
<path d="M500 0C223.867 0 0 223.867 0 500C0 776.133 223.867 1000 500 1000C776.133 1000 1000 776.133 1000 500C1000 223.867 776.133 0 500 0ZM794.793 383.662C766.363 447.908 679.407 651.396 621.381 784.031C621.299 784.092 606.179 784 606.138 783.98L514.629 568.44C478.363 639.57 438.179 713.514 403.816 783.877C403.611 784.235 387.192 784.041 387.171 783.816C334.639 661.197 280.174 539.386 227.366 416.859C215.141 386.905 172.256 338.731 142.905 339.008C142.905 335.529 142.742 327.765 142.701 323.069L323.591 323.049L323.448 338.711C302.21 339.693 265.504 353.248 275.018 376.696C300.512 431.744 390.783 645.003 415.182 699.141C432.205 665.821 479.744 577.003 499.325 539.458C483.98 507.969 433.269 390.404 418.066 360.798C406.598 341.494 377.821 339.13 355.662 338.793C355.662 333.852 355.918 330.046 355.826 323.263L514.834 323.754V338.199C493.309 338.793 472.931 346.803 482.169 367.386C503.56 411.785 516.051 443.396 535.683 484.46C541.954 472.43 574.097 406.486 589.422 371.683C598.68 348.542 584.849 339.877 546.128 338.834C546.639 335.028 546.302 327.386 546.639 323.744L683.969 323.877L684.031 338.21C658.793 339.192 632.665 352.634 619.028 373.504L552.9 510.65C560.153 528.788 623.734 670.036 630.425 685.698L767.141 370.128C757.412 344.583 726.384 338.875 714.251 338.598C714.332 334.527 714.353 328.317 714.373 323.13L857.095 323.54L857.299 324.256L857.064 338.517C825.749 339.468 806.384 356.215 794.793 383.662Z" fill="black"/>
</svg>
