<svg width="1000" height="1000" viewBox="0 0 1000 1000" fill="none" xmlns="http://www.w3.org/2000/svg">
<path d="M492.778 444.444L478.333 500H523.611L508.889 444.444H492.778Z" fill="black"/>
<path d="M331.667 500H406.389L421.111 444.444H316.944L331.667 500Z" fill="black"/>
<path d="M369.167 641.667L391.667 555.556H346.389L369.167 641.667Z" fill="black"/>
<path d="M595.555 500H670.278L685 444.444H580.833L595.555 500Z" fill="black"/>
<path d="M632.778 641.667L655.556 555.556H610.278L632.778 641.667Z" fill="black"/>
<path d="M500 55.5557C412.097 55.5557 326.168 81.6219 253.08 130.458C179.991 179.294 123.026 248.707 89.3869 329.919C55.7479 411.13 46.9464 500.493 64.0954 586.707C81.2444 672.921 123.574 752.113 185.73 814.27C247.887 876.427 327.079 918.756 413.293 935.905C499.507 953.054 588.87 944.252 670.082 910.613C751.293 876.974 820.706 820.009 869.542 746.92C918.378 673.832 944.444 587.903 944.444 500C944.444 382.126 897.619 269.08 814.27 185.73C730.92 102.381 617.874 55.5557 500 55.5557ZM805.556 555.556H727.5L666.667 786.667C664.736 794.113 660.388 800.707 654.305 805.414C648.222 810.121 640.748 812.675 633.056 812.675C625.364 812.675 617.889 810.121 611.806 805.414C605.723 800.707 601.375 794.113 599.444 786.667L538.333 555.556H463.611L402.778 786.667C400.848 794.113 396.499 800.707 390.416 805.414C384.333 810.121 376.859 812.675 369.167 812.675C361.475 812.675 354.001 810.121 347.917 805.414C341.834 800.707 337.486 794.113 335.556 786.667L274.444 555.556H194.444C187.077 555.556 180.012 552.629 174.803 547.42C169.593 542.21 166.667 535.145 166.667 527.778C166.667 520.411 169.593 513.345 174.803 508.136C180.012 502.927 187.077 500 194.444 500H259.722L245 444.445H194.444C187.077 444.445 180.012 441.518 174.803 436.309C169.593 431.099 166.667 424.034 166.667 416.667C166.667 409.3 169.593 402.234 174.803 397.025C180.012 391.816 187.077 388.889 194.444 388.889H230.556L202.778 286.667C200.42 277.753 201.701 268.267 206.337 260.297C210.973 252.326 218.586 246.524 227.5 244.167C236.414 241.809 245.9 243.09 253.87 247.726C261.84 252.362 267.643 259.975 270 268.889L302.222 388.889H435.556L467.222 268.889C469.153 261.443 473.501 254.849 479.584 250.142C485.667 245.434 493.141 242.88 500.833 242.88C508.525 242.88 516 245.434 522.083 250.142C528.166 254.849 532.514 261.443 534.444 268.889L566.111 388.889H699.444L731.111 268.889C733.469 259.975 739.271 252.362 747.241 247.726C755.211 243.09 764.697 241.809 773.611 244.167C782.525 246.524 790.138 252.326 794.774 260.297C799.411 268.267 800.691 277.753 798.333 286.667L770.556 388.889H805.556C812.923 388.889 819.988 391.816 825.197 397.025C830.407 402.234 833.333 409.3 833.333 416.667C833.333 424.034 830.407 431.099 825.197 436.309C819.988 441.518 812.923 444.445 805.556 444.445H756.667L741.944 500H805.556C812.923 500 819.988 502.927 825.197 508.136C830.407 513.345 833.333 520.411 833.333 527.778C833.333 535.145 830.407 542.21 825.197 547.42C819.988 552.629 812.923 555.556 805.556 555.556Z" fill="black"/>
</svg>
