<svg width="1000" height="1000" viewBox="0 0 1000 1000" fill="none" xmlns="http://www.w3.org/2000/svg">
<path d="M505.155 526.17C505.155 526.17 504.362 526.17 503.569 526.17C475.813 607.058 448.057 687.946 420.301 768.834C478.985 785.488 536.082 783.902 592.387 764.869C563.045 684.774 534.496 605.472 505.155 526.17Z" fill="black"/>
<path d="M244.251 387.391C243.458 387.391 243.458 387.391 242.665 387.391C211.737 461.142 210.151 535.686 241.872 610.23C268.834 673.672 314.037 720.46 375.892 752.181C376.685 752.181 376.685 751.388 377.478 751.388C333.069 629.262 288.66 508.723 244.251 387.391Z" fill="black"/>
<path d="M671.689 419.905C665.345 408.01 658.208 396.907 651.071 385.012C644.726 373.91 639.968 362.014 638.382 349.326C635.21 323.156 652.657 298.573 678.826 293.814C681.205 293.021 684.377 293.021 689.136 292.228C611.419 227.201 524.98 204.203 428.232 228.787C359.239 246.233 306.106 285.884 264.869 346.154C279.937 346.154 293.418 346.154 306.106 346.154C322.76 345.361 339.413 343.775 356.067 342.982C363.997 342.189 368.755 346.154 369.548 352.498C370.341 359.635 367.169 364.393 358.446 365.186C356.067 365.979 353.688 365.979 351.308 365.979C343.378 366.772 336.241 367.565 327.518 368.358C361.618 469.865 395.718 570.579 429.025 670.5C430.611 669.707 431.404 668.914 431.404 668.121C451.229 609.437 471.055 550.753 490.087 491.277C490.88 488.898 490.087 484.933 489.294 482.554C476.606 446.075 463.124 410.389 449.643 373.91C448.057 369.152 445.678 367.565 440.92 367.565C432.99 367.565 425.059 365.979 417.129 365.186C410.785 364.393 407.613 359.635 407.613 353.291C408.406 346.947 412.371 342.982 418.715 342.982C421.887 342.982 424.266 343.775 427.439 343.775C457.573 344.568 488.501 345.361 518.636 346.154C534.496 346.154 551.15 344.568 567.01 343.775C574.147 343.775 578.906 347.74 579.699 354.084C580.492 360.428 576.527 365.186 570.182 365.979C567.01 366.772 564.631 366.772 561.459 366.772C553.529 367.565 545.599 368.358 537.669 369.151C571.768 469.865 605.075 568.993 639.175 670.5C639.968 668.121 640.761 667.328 640.761 666.535C655.036 619.746 668.517 572.958 682.791 526.17C693.894 488.898 690.722 453.212 671.689 419.905Z" fill="black"/>
<path d="M748.612 0.396484H250.595C112.609 0.396484 0 113.006 0 250.991V749.802C0 886.994 112.609 999.603 250.595 999.603H749.405C887.391 999.603 1000 886.994 1000 749.009V250.991C999.207 113.006 886.598 0.396484 748.612 0.396484ZM808.882 515.86C808.882 518.239 808.882 519.825 808.882 522.205C806.503 563.442 796.194 603.093 777.161 639.572C727.201 733.941 650.278 789.453 544.013 806.899C534.496 808.485 524.98 809.278 515.464 809.278H483.743C482.157 809.278 479.778 809.278 477.399 809.278C436.162 806.899 397.304 797.383 361.618 778.35C266.455 728.39 210.944 651.467 193.497 545.202C191.118 534.893 190.325 526.17 190.325 515.86V484.14C190.325 482.553 190.325 480.174 190.325 477.795C192.704 435.765 203.013 396.114 222.839 359.635C272.799 266.059 349.722 211.34 454.401 193.894C463.918 192.308 474.227 191.515 483.743 191.515H515.464C517.843 191.515 519.429 191.515 521.808 191.515C562.252 193.894 601.11 203.41 637.589 222.442C732.752 272.403 789.056 349.326 806.503 456.384C808.089 465.9 808.882 475.416 808.882 484.933V515.86Z" fill="black"/>
<path d="M747.026 367.565C747.819 388.977 747.819 408.803 744.647 429.421C740.682 452.419 733.545 474.623 725.615 496.828C697.859 573.751 671.689 650.674 645.519 727.597C643.933 731.562 642.347 736.32 641.554 740.285C642.347 740.285 642.347 741.079 643.14 741.079C718.477 694.29 764.473 626.883 777.954 538.858C786.677 478.588 776.368 421.491 747.026 367.565Z" fill="black"/>
</svg>
