<svg width="1000" height="1000" viewBox="0 0 1000 1000" fill="none" xmlns="http://www.w3.org/2000/svg">
<path d="M552.632 315.789H750V684.21H552.632V644.737H710.525L710.526 618.421H552.632V592.105H710.526V565.789H552.632V539.473H710.526V513.158H552.632V486.842H710.526V460.526H552.632V434.21H710.526L710.525 407.895H552.63V381.579H710.525L710.526 355.263H552.632V315.789ZM249.999 309.212L539.474 263.158V736.842L249.999 690.789V309.212ZM485.263 422.713L454.505 424.356L433.745 550.471L433.354 550.456C428.046 508.785 417.645 467.918 409.14 426.78L376.511 428.523L349.184 547.646L348.612 547.625C344.488 508.395 335.255 469.864 327.824 431.125L294.532 432.904L330.122 579.573L365.328 581.742L390.622 466.051L390.984 466.042C395.909 506.2 406.979 545.37 415.809 584.852L449.595 586.934L485.263 422.713Z" fill="black"/>
</svg>
