<svg width="1000" height="1000" viewBox="0 0 1000 1000" fill="none" xmlns="http://www.w3.org/2000/svg">
<path d="M1000 500C1000 499.958 1000 499.958 1000 499.917C1000 349.167 933.083 214.042 827.333 122.667L826.708 122.125C747.125 164.75 678.875 216.333 619.75 276.833L619.583 277C621.417 278.917 623.208 280.542 625.042 282.5C780 449.667 921.125 687.917 897.792 802.125C961.542 719.417 999.958 614.292 999.958 500.208C999.958 500.125 999.958 500.042 999.958 499.958L1000 500Z" fill="black"/>
<path d="M524.625 164.792C594.625 118.792 678.75 88.4167 769.292 80.5417L771.292 80.4167C694.75 30.0001 600.875 0.041748 500 0.041748C409.542 0.041748 324.708 24.1667 251.583 66.3334L254 65.0417C281.417 88.6667 372.208 97.5834 482.5 165.042C488.458 168.75 495.667 170.958 503.417 170.958C511.292 170.958 518.625 168.667 524.792 164.75L524.625 164.833V164.792Z" fill="black"/>
<path d="M381.917 282.417C383.833 280.375 385.792 278.667 387.667 276.667C338.917 229.417 285.75 186.083 229.083 147.5L224.958 144.833C212.375 135.625 196.583 130.083 179.5 130.083C173.417 130.083 167.5 130.792 161.792 132.125L162.333 132.042C62.4167 223.625 0 354.708 0 500.375C0 621.583 43.2083 732.708 115.083 819.167L114.417 818.333C71.4583 712.208 217.625 457 381.875 282.417H381.917Z" fill="black"/>
<path d="M503.5 383.25C338.417 529.208 108.625 747 143.833 850.667C234.417 942.875 360.417 1000 499.75 1000C645.292 1000 776.292 937.667 867.5 838.208L867.833 837.833C888.083 728.75 669.708 532.125 503.5 383.25Z" fill="black"/>
</svg>
