<svg width="1000" height="1000" viewBox="0 0 1000 1000" fill="none" xmlns="http://www.w3.org/2000/svg">
<path d="M500.023 0C224.328 0 0.0234375 224.305 0.0234375 500C0.0234375 775.695 224.328 1000 500.023 1000C775.703 1000 999.977 775.695 999.977 500C999.977 224.305 775.703 0 500.023 0ZM730.336 280.633L575.359 492.188H687.031C708.57 492.188 726.086 509.727 726.086 531.25C726.086 552.797 708.57 570.312 687.031 570.312H539.062V609.375H687.023C708.563 609.375 726.078 626.914 726.078 648.438C726.078 669.977 708.563 687.5 687.023 687.5H539.062V789.43C539.062 810.953 521.523 828.484 500 828.484C478.453 828.484 460.938 810.953 460.938 789.43V687.5H313.383C291.844 687.5 274.328 669.977 274.328 648.438C274.328 626.914 291.844 609.375 313.383 609.375H460.938V570.312H313.383C291.844 570.312 274.328 552.797 274.328 531.25C274.328 509.727 291.844 492.188 313.383 492.188H425.586L270.609 280.633C257.891 263.273 261.656 238.727 279.016 225.984C285.773 221.039 293.758 218.398 302.086 218.398C314.5 218.398 326.281 224.352 333.617 234.344L500.477 461.961L667.32 234.328C674.656 224.336 686.453 218.367 698.867 218.367C707.211 218.367 715.18 221.047 721.922 225.992C739.289 238.727 743.055 263.273 730.336 280.633Z" fill="black"/>
</svg>
