<svg width="1000" height="1000" viewBox="0 0 1000 1000" fill="none" xmlns="http://www.w3.org/2000/svg">
<path d="M961.023 208.532C924.926 165.622 858.281 148.119 731.003 148.119H268.987C138.797 148.119 71.0226 166.751 35.0613 212.435C0 256.977 0 322.606 0 413.439V586.564C0 762.535 41.6 851.88 268.987 851.88H731.006C841.381 851.88 902.542 836.435 942.11 798.568C982.687 759.735 1000 696.332 1000 586.564V413.439C1000 317.648 997.287 251.632 961.023 208.532ZM642.003 523.903L432.203 633.551C427.513 636.003 422.384 637.219 417.261 637.219C411.461 637.219 405.674 635.658 400.548 632.555C390.897 626.706 385.003 616.245 385.003 604.961V386.368C385.003 375.103 390.881 364.651 400.513 358.8C410.148 352.948 422.132 352.548 432.129 357.742L641.929 466.684C652.603 472.226 659.306 483.245 659.323 495.268C659.336 507.3 652.661 518.335 642.003 523.903Z" fill="black"/>
</svg>
