<svg width="1000" height="1000" viewBox="0 0 1000 1000" fill="none" xmlns="http://www.w3.org/2000/svg">
<path d="M672.38 80H327.62C191.08 80 80 191.08 80 327.62V672.38C80 808.92 191.08 920 327.62 920H672.38C808.92 920 920 808.92 920 672.38V327.62C920 191.08 808.92 80 672.38 80ZM600 607.72C600 625.56 585.56 640 567.72 640H300.1C255.86 640 220 604.14 220 559.9V372.26C220 354.44 234.44 340 252.28 340H519.92C564.14 340 600 375.86 600 420.1V607.72ZM780 603.92C780 619.62 762.72 629.2 749.4 620.88L649.4 558.38C643.56 554.72 640 548.32 640 541.42V438.6C640 431.7 643.56 425.3 649.4 421.64L749.4 359.14C762.72 350.8 780 360.38 780 376.08V603.92Z" fill="#1A1A1A"/>
</svg>
